# Blender 4.4.0
# www.blender.org
mtllib smoothCube.mtl
o Cube
v 0.940842 0.940842 -1.000000
v 0.940842 1.000000 -0.940842
v 1.000000 0.940842 -0.940842
v 0.940842 0.982673 -0.982673
v 0.974997 0.974997 -0.974997
v 0.982673 0.982673 -0.940842
v 0.982673 0.940842 -0.982673
v 0.940842 -1.000000 -0.940842
v 0.940842 -0.940842 -1.000000
v 1.000000 -0.940842 -0.940842
v 0.940842 -0.982673 -0.982673
v 0.974997 -0.974997 -0.974997
v 0.982673 -0.940842 -0.982673
v 0.982673 -0.982673 -0.940842
v 0.940842 1.000000 0.940842
v 0.940842 0.940842 1.000000
v 1.000000 0.940842 0.940842
v 0.940842 0.982673 0.982673
v 0.974997 0.974997 0.974997
v 0.982673 0.940842 0.982673
v 0.982673 0.982673 0.940842
v 1.000000 -0.940842 0.940842
v 0.940842 -0.940842 1.000000
v 0.940842 -1.000000 0.940842
v 0.982673 -0.940842 0.982673
v 0.974997 -0.974997 0.974997
v 0.940842 -0.982673 0.982673
v 0.982673 -0.982673 0.940842
v -0.940842 1.000000 -0.940842
v -0.940842 0.940842 -1.000000
v -1.000000 0.940842 -0.940842
v -0.940842 0.982673 -0.982673
v -0.974997 0.974997 -0.974997
v -0.982673 0.940842 -0.982673
v -0.982673 0.982673 -0.940842
v -1.000000 -0.940842 -0.940842
v -0.940842 -0.940842 -1.000000
v -0.940842 -1.000000 -0.940842
v -0.982673 -0.940842 -0.982673
v -0.974997 -0.974997 -0.974997
v -0.940842 -0.982673 -0.982673
v -0.982673 -0.982673 -0.940842
v -0.940842 0.940842 1.000000
v -0.940842 1.000000 0.940842
v -1.000000 0.940842 0.940842
v -0.940842 0.982673 0.982673
v -0.974997 0.974997 0.974997
v -0.982673 0.982673 0.940842
v -0.982673 0.940842 0.982673
v -0.940842 -1.000000 0.940842
v -0.940842 -0.940842 1.000000
v -1.000000 -0.940842 0.940842
v -0.940842 -0.982673 0.982673
v -0.974997 -0.974997 0.974997
v -0.982673 -0.940842 0.982673
v -0.982673 -0.982673 0.940842
vn -0.0000 -1.0000 -0.0000
vn 1.0000 -0.0000 -0.0000
vn -0.0000 -0.0000 1.0000
vn -1.0000 -0.0000 -0.0000
vn -0.0000 1.0000 -0.0000
vn 0.2402 0.2402 -0.9406
vn 0.5774 0.5774 -0.5774
vn 0.6993 0.1479 -0.6993
vn 0.2402 0.9406 -0.2402
vn 0.1479 0.6993 -0.6993
vn 0.9406 0.2402 -0.2402
vn 0.6993 0.6993 -0.1479
vn 0.2402 -0.9406 -0.2402
vn 0.5774 -0.5774 -0.5774
vn 0.6993 -0.6993 -0.1479
vn 0.2402 -0.2402 -0.9406
vn 0.1479 -0.6993 -0.6993
vn 0.9406 -0.2402 -0.2402
vn 0.6993 -0.1479 -0.6993
vn 0.2402 0.9406 0.2402
vn 0.5774 0.5774 0.5774
vn 0.6993 0.6993 0.1479
vn 0.2402 0.2402 0.9406
vn 0.1479 0.6993 0.6993
vn 0.9406 0.2402 0.2402
vn 0.6993 0.1479 0.6993
vn 0.9406 -0.2402 0.2402
vn 0.5774 -0.5774 0.5774
vn 0.6993 -0.6993 0.1479
vn 0.2402 -0.2402 0.9406
vn 0.6993 -0.1479 0.6993
vn 0.2402 -0.9406 0.2402
vn 0.1479 -0.6993 0.6993
vn -0.2402 0.9406 -0.2402
vn -0.5774 0.5774 -0.5774
vn -0.6993 0.6993 -0.1479
vn -0.2402 0.2402 -0.9406
vn -0.1479 0.6993 -0.6993
vn -0.9406 0.2402 -0.2402
vn -0.6993 0.1479 -0.6993
vn -0.9406 -0.2402 -0.2402
vn -0.5774 -0.5774 -0.5774
vn -0.6993 -0.6993 -0.1479
vn -0.2402 -0.2402 -0.9406
vn -0.6993 -0.1479 -0.6993
vn -0.2402 -0.9406 -0.2402
vn -0.1479 -0.6993 -0.6993
vn -0.2402 0.2402 0.9406
vn -0.5774 0.5774 0.5774
vn -0.6993 0.1479 0.6993
vn -0.2402 0.9406 0.2402
vn -0.1479 0.6993 0.6993
vn -0.9406 0.2402 0.2402
vn -0.6993 0.6993 0.1479
vn -0.2402 -0.9406 0.2402
vn -0.5774 -0.5774 0.5774
vn -0.6993 -0.6993 0.1479
vn -0.2402 -0.2402 0.9406
vn -0.1479 -0.6993 0.6993
vn -0.9406 -0.2402 0.2402
vn -0.6993 -0.1479 0.6993
vn -0.0000 -0.0000 -1.0000
vt 0.367605 0.742605
vt 0.132395 0.507395
vt 0.367605 0.507395
vt 0.617605 0.742605
vt 0.382395 0.507395
vt 0.617605 0.507395
vt 0.617605 0.992605
vt 0.382395 0.757395
vt 0.617605 0.757395
vt 0.617605 0.242605
vt 0.382395 0.007395
vt 0.617605 0.007395
vt 0.867605 0.742605
vt 0.632395 0.507395
vt 0.867605 0.507395
vt 0.617605 0.492605
vt 0.623958 0.500000
vt 0.617605 0.500000
vt 0.632395 0.500000
vt 0.625000 0.507395
vt 0.375000 0.501042
vt 0.375000 0.507395
vt 0.382395 0.492605
vt 0.375000 0.492605
vt 0.382395 0.500000
vt 0.632395 0.742605
vt 0.625000 0.748958
vt 0.625000 0.742605
vt 0.625000 0.757395
vt 0.617605 0.750000
vt 0.382395 0.742605
vt 0.376042 0.750000
vt 0.375000 0.742605
vt 0.382395 0.750000
vt 0.367605 0.750000
vt 0.871875 0.500000
vt 0.875000 0.507395
vt 0.617605 0.257395
vt 0.621875 0.250000
vt 0.625000 0.257395
vt 0.625000 0.246875
vt 0.617605 0.250000
vt 0.382395 0.242605
vt 0.378125 0.250000
vt 0.375000 0.242605
vt 0.382395 0.257395
vt 0.375000 0.253125
vt 0.382395 0.250000
vt 0.125000 0.503125
vt 0.132395 0.500000
vt 0.625000 0.996875
vt 0.617605 1.000000
vt 0.875000 0.746875
vt 0.867605 0.750000
vt 0.621875 0.000000
vt 0.625000 0.007395
vt 0.132395 0.742605
vt 0.128125 0.750000
vt 0.125000 0.742605
vt 0.382395 0.992605
vt 0.378125 1.000000
vt 0.375000 0.992605
vt 0.375000 0.003125
vt 0.382395 0.000000
vt 0.625000 0.492605
vt 0.867605 0.500000
vt 0.375000 0.757395
vt 0.132395 0.750000
vt 0.617605 0.000000
vt 0.382395 1.000000
vt 0.125000 0.507395
vt 0.375000 0.007395
vt 0.367605 0.500000
vt 0.375000 0.257395
vt 0.625000 0.242605
vt 0.875000 0.742605
vt 0.632395 0.750000
vt 0.625000 0.992605
s 1
usemtl Material.003
f 24/1/1 38/2/1 8/3/1
f 17/4/2 10/5/2 3/6/2
f 43/7/3 23/8/3 16/9/3
f 31/10/4 52/11/4 45/12/4
f 44/13/5 2/14/5 29/15/5
f 1/16/6 5/17/7 7/18/8
f 2/14/9 5/17/7 4/19/10
f 3/6/11 5/17/7 6/20/12
f 8/3/13 12/21/14 14/22/15
f 9/23/16 12/21/14 11/24/17
f 10/5/18 12/21/14 13/25/19
f 15/26/20 19/27/21 21/28/22
f 16/9/23 19/27/21 18/29/24
f 17/4/25 19/27/21 20/30/26
f 22/31/27 26/32/28 28/33/29
f 23/8/30 26/32/28 25/34/31
f 24/1/32 26/32/28 27/35/33
f 29/15/34 33/36/35 35/37/36
f 30/38/37 33/39/35 32/40/38
f 31/10/39 33/41/35 34/42/40
f 36/43/41 40/44/42 42/45/43
f 37/46/44 40/47/42 39/48/45
f 38/2/46 40/49/42 41/50/47
f 43/7/48 47/51/49 49/52/50
f 44/13/51 47/53/49 46/54/52
f 45/12/53 47/55/49 48/56/54
f 50/57/55 54/58/56 56/59/57
f 51/60/58 54/61/56 53/62/59
f 52/11/60 54/63/56 55/64/61
f 30/38/37 4/65/10 1/16/6
f 32/66/38 2/14/9 4/19/10
f 15/26/20 6/20/12 2/14/9
f 21/28/22 3/6/11 6/20/12
f 23/8/30 20/30/26 16/9/23
f 25/34/31 17/4/25 20/30/26
f 51/60/58 27/67/33 23/8/30
f 53/68/59 24/1/32 27/35/33
f 52/11/60 49/69/50 45/12/53
f 55/70/61 43/7/48 49/52/50
f 50/57/55 42/71/43 38/2/46
f 56/72/57 36/43/41 42/45/43
f 38/2/46 11/73/17 8/3/13
f 41/74/47 9/23/16 11/24/17
f 10/5/18 7/18/8 3/6/11
f 13/25/19 1/16/6 7/18/8
f 22/31/27 14/22/15 10/5/18
f 28/33/29 8/3/13 14/22/15
f 37/46/44 34/42/40 30/38/37
f 39/48/45 31/10/39 34/42/40
f 45/12/53 35/75/36 31/10/39
f 48/76/54 29/15/34 35/37/36
f 44/13/51 18/77/24 15/26/20
f 46/78/52 16/9/23 18/29/24
f 1/16/62 37/46/62 30/38/62
f 24/1/1 50/57/1 38/2/1
f 17/4/2 22/31/2 10/5/2
f 43/7/3 51/60/3 23/8/3
f 31/10/4 36/43/4 52/11/4
f 44/13/5 15/26/5 2/14/5
f 1/16/6 4/65/10 5/17/7
f 2/14/9 6/20/12 5/17/7
f 3/6/11 7/18/8 5/17/7
f 8/3/13 11/73/17 12/21/14
f 9/23/16 13/25/19 12/21/14
f 10/5/18 14/22/15 12/21/14
f 15/26/20 18/77/24 19/27/21
f 16/9/23 20/30/26 19/27/21
f 17/4/25 21/28/22 19/27/21
f 22/31/27 25/34/31 26/32/28
f 23/8/30 27/67/33 26/32/28
f 24/1/32 28/33/29 26/32/28
f 29/15/34 32/66/38 33/36/35
f 30/38/37 34/42/40 33/39/35
f 31/10/39 35/75/36 33/41/35
f 36/43/41 39/48/45 40/44/42
f 37/46/44 41/74/47 40/47/42
f 38/2/46 42/71/43 40/49/42
f 43/7/48 46/78/52 47/51/49
f 44/13/51 48/76/54 47/53/49
f 45/12/53 49/69/50 47/55/49
f 50/57/55 53/68/59 54/58/56
f 51/60/58 55/70/61 54/61/56
f 52/11/60 56/72/57 54/63/56
f 30/38/37 32/40/38 4/65/10
f 32/66/38 29/15/34 2/14/9
f 15/26/20 21/28/22 6/20/12
f 21/28/22 17/4/25 3/6/11
f 23/8/30 25/34/31 20/30/26
f 25/34/31 22/31/27 17/4/25
f 51/60/58 53/62/59 27/67/33
f 53/68/59 50/57/55 24/1/32
f 52/11/60 55/64/61 49/69/50
f 55/70/61 51/60/58 43/7/48
f 50/57/55 56/59/57 42/71/43
f 56/72/57 52/11/60 36/43/41
f 38/2/46 41/50/47 11/73/17
f 41/74/47 37/46/44 9/23/16
f 10/5/18 13/25/19 7/18/8
f 13/25/19 9/23/16 1/16/6
f 22/31/27 28/33/29 14/22/15
f 28/33/29 24/1/32 8/3/13
f 37/46/44 39/48/45 34/42/40
f 39/48/45 36/43/41 31/10/39
f 45/12/53 48/56/54 35/75/36
f 48/76/54 44/13/51 29/15/34
f 44/13/51 46/54/52 18/77/24
f 46/78/52 43/7/48 16/9/23
f 1/16/62 9/23/62 37/46/62
