# Blender 4.4.0
# www.blender.org
mtllib teleporter.mtl
o 球
v 0.000000 0.500000 -3.464102
v 0.000000 0.258819 -3.863703
v 0.000000 0.000000 -4.000000
v 0.990395 0.707107 -2.391024
v 1.325654 0.500000 -3.200413
v 1.478575 0.258819 -3.569596
v 1.530734 0.000000 -3.695518
v 1.830011 0.707107 -1.830010
v 2.449490 0.500000 -2.449490
v 2.732051 0.258819 -2.732050
v 2.828427 0.000000 -2.828427
v 2.391024 0.707107 -0.990394
v 3.200413 0.500000 -1.325654
v 3.569596 0.258819 -1.478575
v 3.695518 0.000000 -1.530733
v 2.588026 0.707107 0.000000
v 3.464101 0.500000 0.000000
v 3.863703 0.258819 0.000001
v 4.000000 0.000000 0.000001
v 2.391024 0.707107 0.990395
v 3.200412 0.500000 1.325655
v 3.569596 0.258819 1.478576
v 3.695518 0.000000 1.530734
v 1.830010 0.707107 1.830011
v 2.449489 0.500000 2.449490
v 2.732050 0.258819 2.732051
v 2.828426 0.000000 2.828428
v 0.990394 0.707107 2.391024
v 1.325653 0.500000 3.200413
v 1.478574 0.258819 3.569596
v 1.530733 0.000000 3.695518
v -0.000001 0.707107 2.588025
v -0.000001 0.500000 3.464101
v -0.000001 0.258819 3.863702
v -0.000001 0.000000 4.000000
v -0.990395 0.707107 2.391023
v -1.325655 0.500000 3.200412
v -1.478576 0.258819 3.569595
v -1.530735 0.000000 3.695518
v -1.830011 0.707107 1.830010
v -2.449490 0.500000 2.449489
v -2.732051 0.258819 2.732049
v -2.828428 0.000000 2.828426
v -2.391024 0.707107 0.990393
v -3.200412 0.500000 1.325653
v -3.569596 0.258819 1.478574
v -3.695519 0.000000 1.530732
v -2.588025 0.707107 -0.000001
v -3.464101 0.500000 -0.000001
v -3.863702 0.258819 -0.000001
v -4.000000 0.000000 -0.000002
v -2.391023 0.707107 -0.990395
v -3.200411 0.500000 -1.325655
v -3.569595 0.258819 -1.478576
v -3.695517 0.000000 -1.530736
v -1.830009 0.707107 -1.830011
v -2.449488 0.500000 -2.449490
v -2.732049 0.258819 -2.732051
v -2.828425 0.000000 -2.828429
v -0.990393 0.707107 -2.391024
v -1.325653 0.500000 -3.200412
v -1.478573 0.258819 -3.569596
v -1.530732 0.000000 -3.695519
v 0.000002 0.707107 -2.588025
v 1.082392 0.707107 -2.613126
v 2.000000 0.707107 -2.000000
v 2.613126 0.707107 -1.082392
v 2.828427 0.707107 0.000000
v 2.613125 0.707107 1.082393
v 1.999999 0.707107 2.000000
v 1.082391 0.707107 2.613126
v -0.000001 0.707107 2.828427
v -1.082393 0.707107 2.613125
v -2.000000 0.707107 1.999999
v -2.613126 0.707107 1.082391
v -2.828426 0.707107 -0.000001
v -2.613125 0.707107 -1.082393
v -1.999998 0.707107 -2.000000
v -1.082390 0.707107 -2.613126
v 0.000002 0.707107 -2.828426
v 0.381301 0.607383 -0.920542
v 0.704552 0.607383 -0.704552
v 0.920542 0.607383 -0.381301
v 0.996387 0.607383 -0.000000
v 0.920541 0.607383 0.381301
v 0.704552 0.607383 0.704552
v 0.381301 0.607383 0.920541
v -0.000000 0.607383 0.996387
v -0.381301 0.607383 0.920541
v -0.704552 0.607383 0.704552
v -0.920541 0.607383 0.381300
v -0.996387 0.607383 -0.000000
v -0.920541 0.607383 -0.381301
v -0.704551 0.607383 -0.704552
v -0.381300 0.607383 -0.920541
v 0.000001 0.607383 -0.996387
v 0.990395 0.607383 -2.391024
v 1.830011 0.607383 -1.830010
v 2.391024 0.607383 -0.990394
v 2.588026 0.607383 0.000000
v 2.391024 0.607383 0.990395
v 1.830010 0.607383 1.830011
v 0.990394 0.607383 2.391024
v -0.000001 0.607383 2.588025
v -0.990395 0.607383 2.391023
v -1.830011 0.607383 1.830010
v -2.391024 0.607383 0.990393
v -2.588025 0.607383 -0.000001
v -2.391023 0.607383 -0.990395
v -1.830009 0.607383 -1.830011
v -0.990393 0.607383 -2.391024
v 0.000002 0.607383 -2.588025
v 2.965663 0.848528 -0.641971
v 3.597794 0.600000 -0.786251
v 3.995168 0.310583 -0.876949
v 4.130705 0.000000 -0.907885
v 2.965662 0.848528 0.641973
v 3.597794 0.600000 0.786252
v 3.995167 0.310583 0.876950
v 4.130705 0.000000 0.907886
v 2.965663 0.000000 -0.641971
v 2.965662 0.000000 0.641973
v -0.641971 0.848528 -2.965663
v -0.786251 0.600000 -3.597794
v -0.876949 0.310583 -3.995168
v -0.907885 0.000000 -4.130705
v 0.641973 0.848528 -2.965662
v 0.786253 0.600000 -3.597794
v 0.876951 0.310583 -3.995167
v 0.907886 0.000000 -4.130705
v -0.641971 0.000000 -2.965663
v 0.641973 0.000000 -2.965662
v -2.965663 0.848528 0.641971
v -3.597794 0.600000 0.786251
v -3.995168 0.310583 0.876949
v -4.130705 0.000000 0.907884
v -2.965662 0.848528 -0.641973
v -3.597794 0.600000 -0.786253
v -3.995167 0.310583 -0.876951
v -4.130705 0.000000 -0.907886
v -2.965663 0.000000 0.641971
v -2.965662 0.000000 -0.641973
v 0.641971 0.848528 2.965663
v 0.786251 0.600000 3.597794
v 0.876949 0.310583 3.995168
v 0.907885 0.000000 4.130705
v -0.641973 0.848528 2.965662
v -0.786253 0.600000 3.597794
v -0.876951 0.310583 3.995167
v -0.907886 0.000000 4.130705
v 0.641971 0.000000 2.965663
v -0.641973 0.000000 2.965662
v 0.381301 0.560456 -0.920542
v 0.704552 0.560456 -0.704552
v 0.920542 0.560456 -0.381301
v 0.996387 0.560456 -0.000000
v 0.920541 0.560456 0.381301
v 0.704552 0.560456 0.704552
v 0.381301 0.560456 0.920541
v -0.000000 0.560456 0.996387
v -0.381301 0.560456 0.920541
v -0.704552 0.560456 0.704552
v -0.920541 0.560456 0.381300
v -0.996387 0.560456 -0.000000
v -0.920541 0.560456 -0.381301
v -0.704551 0.560456 -0.704552
v -0.381300 0.560456 -0.920541
v 0.000001 0.560456 -0.996387
v 0.381301 0.518370 -0.920542
v 0.704552 0.518370 -0.704552
v 0.920542 0.518370 -0.381301
v 0.996387 0.518370 -0.000000
v 0.920541 0.518370 0.381301
v 0.704552 0.518370 0.704552
v 0.381301 0.518370 0.920541
v -0.000000 0.518370 0.996387
v -0.381301 0.518370 0.920541
v -0.704552 0.518370 0.704552
v -0.920541 0.518370 0.381300
v -0.996387 0.518370 -0.000000
v -0.920541 0.518370 -0.381301
v -0.704551 0.518370 -0.704552
v -0.381300 0.518370 -0.920541
v 0.000001 0.518370 -0.996387
vn 0.1733 0.4589 -0.8714
vn 0.0615 0.9490 -0.3092
vn 0.1022 0.8517 -0.5140
vn 0.1751 0.9490 -0.2621
vn 0.2912 0.8517 -0.4358
vn 0.4936 0.4589 -0.7388
vn 0.7388 0.4589 -0.4936
vn 0.2621 0.9490 -0.1751
vn 0.4358 0.8517 -0.2912
vn 0.5140 0.8517 -0.1022
vn 0.8714 0.4589 -0.1733
vn 0.3092 0.9490 -0.0615
vn 0.3092 0.9490 0.0615
vn 0.5140 0.8517 0.1022
vn 0.8714 0.4589 0.1733
vn 0.7388 0.4589 0.4936
vn 0.2621 0.9490 0.1751
vn 0.4358 0.8517 0.2912
vn 0.2912 0.8517 0.4358
vn 0.4936 0.4589 0.7388
vn 0.1751 0.9490 0.2621
vn 0.0615 0.9490 0.3092
vn 0.1022 0.8517 0.5140
vn 0.1733 0.4589 0.8714
vn -0.1733 0.4589 0.8714
vn -0.0615 0.9490 0.3092
vn -0.1022 0.8517 0.5140
vn -0.2912 0.8517 0.4358
vn -0.4936 0.4589 0.7388
vn -0.1751 0.9490 0.2621
vn -0.2621 0.9490 0.1751
vn -0.4358 0.8517 0.2912
vn -0.7388 0.4589 0.4936
vn -0.8714 0.4589 0.1733
vn -0.3092 0.9490 0.0615
vn -0.5140 0.8517 0.1022
vn -0.3092 0.9490 -0.0615
vn -0.5140 0.8517 -0.1022
vn -0.8714 0.4589 -0.1733
vn -0.2621 0.9490 -0.1751
vn -0.4358 0.8517 -0.2912
vn -0.7388 0.4589 -0.4936
vn -0.2912 0.8517 -0.4358
vn -0.4936 0.4589 -0.7388
vn 0.9808 -0.0000 -0.1951
vn -0.1751 0.9490 -0.2621
vn -0.0000 -1.0000 -0.0000
vn -0.0615 0.9490 -0.3092
vn -0.1022 0.8517 -0.5140
vn -0.1733 0.4589 -0.8714
vn -0.0000 1.0000 -0.0000
vn 0.9808 -0.0000 0.1951
vn -0.9808 -0.0000 -0.1951
vn -0.8315 -0.0000 -0.5556
vn 0.8315 -0.0000 0.5556
vn -0.5556 -0.0000 -0.8315
vn 0.5556 -0.0000 0.8315
vn -0.1951 -0.0000 -0.9808
vn 0.1951 -0.0000 0.9808
vn 0.1951 -0.0000 -0.9808
vn -0.5556 -0.0000 0.8315
vn -0.1951 -0.0000 0.9808
vn 0.5556 -0.0000 -0.8315
vn -0.8315 -0.0000 0.5556
vn 0.8315 -0.0000 -0.5556
vn -0.9808 -0.0000 0.1951
vn 0.3659 0.9307 -0.0000
vn 0.5887 0.8083 -0.0000
vn 0.9165 0.4000 -0.0000
vn -1.0000 -0.0000 -0.0000
vn -0.2225 -0.0000 -0.9749
vn -0.2225 -0.0000 0.9749
vn -0.0000 0.9307 -0.3659
vn -0.0000 0.8083 -0.5887
vn -0.0000 0.4000 -0.9165
vn -0.0000 -0.0000 1.0000
vn -0.9749 -0.0000 0.2225
vn 0.9749 -0.0000 0.2225
vn -0.3659 0.9307 -0.0000
vn -0.5887 0.8083 -0.0000
vn -0.9165 0.4000 -0.0000
vn 1.0000 -0.0000 -0.0000
vn 0.2225 -0.0000 0.9749
vn 0.2225 -0.0000 -0.9749
vn -0.0000 0.9307 0.3659
vn -0.0000 0.8083 0.5887
vn -0.0000 0.4000 0.9165
vn -0.0000 -0.0000 -1.0000
vn 0.9749 -0.0000 -0.2225
vn -0.9749 -0.0000 -0.2225
vt 0.195219 0.832901
vt 0.184014 0.848298
vt 0.183721 0.834913
vt 0.236521 0.825390
vt 0.211192 0.854085
vt 0.210762 0.830109
vt 0.194689 0.850643
vt 0.235899 0.859148
vt 0.201010 0.875587
vt 0.187907 0.866673
vt 0.179127 0.860438
vt 0.169854 0.869635
vt 0.224100 0.890950
vt 0.184123 0.892238
vt 0.175468 0.878888
vt 0.161901 0.901140
vt 0.159116 0.885198
vt 0.157491 0.874361
vt 0.199404 0.914793
vt 0.166486 0.927047
vt 0.138096 0.899864
vt 0.141657 0.884666
vt 0.144271 0.874384
vt 0.126096 0.877437
vt 0.132114 0.869043
vt 0.131518 0.927274
vt 0.116837 0.890209
vt 0.114230 0.864994
vt 0.123261 0.859134
vt 0.101072 0.912610
vt 0.100871 0.873165
vt 0.078400 0.887448
vt 0.092491 0.851204
vt 0.107990 0.848515
vt 0.118796 0.846285
vt 0.108054 0.831038
vt 0.118648 0.832868
vt 0.066355 0.856064
vt 0.092923 0.827831
vt 0.114708 0.814893
vt 0.123824 0.820823
vt 0.066865 0.822846
vt 0.102365 0.806442
vt 0.080029 0.791582
vt 0.118631 0.789521
vt 0.127319 0.803031
vt 0.133243 0.811738
vt 0.143342 0.796445
vt 0.145544 0.807198
vt 0.104314 0.767618
vt 0.140601 0.781483
vt 0.135279 0.755130
vt 0.164025 0.781005
vt 0.160625 0.796943
vt 0.158710 0.807323
vt 0.168909 0.755050
vt 0.185645 0.790818
vt 0.176580 0.803692
vt 0.170620 0.812687
vt 0.188870 0.816232
vt 0.179472 0.822316
vt 0.099884 0.760922
vt 0.131019 0.732420
vt 0.133865 0.747850
vt 0.200698 0.768477
vt 0.201671 0.808198
vt 0.224460 0.793560
vt 0.230806 0.895381
vt 0.243283 0.860581
vt 0.203831 0.921819
vt 0.168076 0.935921
vt 0.096595 0.918653
vt 0.129726 0.935221
vt 0.071124 0.891919
vt 0.059049 0.821173
vt 0.059074 0.857329
vt 0.072837 0.786690
vt 0.170535 0.747100
vt 0.205730 0.761186
vt 0.231389 0.789144
vt 0.244414 0.823962
vt 0.502331 0.797582
vt 0.487964 0.803533
vt 0.125827 0.950866
vt 0.173645 0.731417
vt 0.086947 0.931317
vt 0.215043 0.747872
vt 0.057722 0.899947
vt 0.245166 0.780823
vt 0.043708 0.859819
vt 0.259923 0.821499
vt 0.043708 0.817964
vt 0.244170 0.904136
vt 0.258735 0.863754
vt 0.059748 0.777667
vt 0.212667 0.935634
vt 0.091485 0.747594
vt 0.170798 0.952177
vt 0.476967 0.858815
vt 0.452592 0.922749
vt 0.424030 0.894187
vt 0.502331 0.875763
vt 0.487964 0.869812
vt 0.530303 0.938207
vt 0.489910 0.938207
vt 0.532250 0.869812
vt 0.517883 0.875763
vt 0.543246 0.858816
vt 0.567622 0.922749
vt 0.611641 0.856869
vt 0.596184 0.894187
vt 0.549198 0.844448
vt 0.611641 0.816476
vt 0.543246 0.814529
vt 0.549198 0.828897
vt 0.567622 0.750596
vt 0.596184 0.779158
vt 0.517883 0.797582
vt 0.532250 0.803533
vt 0.530303 0.735138
vt 0.489910 0.735138
vt 0.424030 0.779158
vt 0.452592 0.750596
vt 0.471016 0.828897
vt 0.476967 0.814529
vt 0.408572 0.856869
vt 0.408572 0.816476
vt 0.471016 0.844448
vt 0.357061 0.331030
vt 0.428450 0.414318
vt 0.357061 0.414318
vt 0.428450 0.331030
vt 0.357061 0.247742
vt 0.428450 0.247742
vt 0.357061 0.164455
vt 0.428450 0.164455
vt 0.428450 0.414318
vt 0.428557 0.331030
vt 0.499947 0.414318
vt 0.428557 0.414318
vt 0.499947 0.331030
vt 0.428557 0.247742
vt 0.499947 0.247742
vt 0.428557 0.164455
vt 0.499947 0.164455
vt 0.499947 0.414318
vt 0.500053 0.331030
vt 0.571443 0.414318
vt 0.500053 0.414318
vt 0.571443 0.331030
vt 0.500053 0.247742
vt 0.571443 0.247742
vt 0.500053 0.164455
vt 0.571443 0.164455
vt 0.571443 0.414318
vt 0.571550 0.331030
vt 0.642939 0.414318
vt 0.571550 0.414318
vt 0.642939 0.331030
vt 0.571550 0.247742
vt 0.642939 0.247742
vt 0.571550 0.164455
vt 0.642939 0.164455
vt 0.642939 0.414318
vt 0.753954 0.820253
vt 0.875724 0.738889
vt 0.957088 0.860659
vt 0.835318 0.942023
vt 0.797988 0.926560
vt 0.769416 0.897989
vt 0.753954 0.860659
vt 0.769417 0.782923
vt 0.797988 0.754351
vt 0.835318 0.738889
vt 0.913054 0.754351
vt 0.941625 0.782923
vt 0.957088 0.820253
vt 0.941625 0.897989
vt 0.913054 0.926560
vt 0.875724 0.942023
s 0
usemtl マテリアル
f 2/1/1 7/2/1 3/3/1
f 80/4/2 5/5/2 1/6/2
f 2/1/3 5/5/3 6/7/3
f 65/8/4 9/9/4 5/5/4
f 6/7/5 9/9/5 10/10/5
f 6/7/6 11/11/6 7/2/6
f 10/10/7 15/12/7 11/11/7
f 66/13/8 13/14/8 9/9/8
f 10/10/9 13/14/9 14/15/9
f 14/15/10 17/16/10 18/17/10
f 14/15/11 19/18/11 15/12/11
f 67/19/12 17/16/12 13/14/12
f 68/20/13 21/21/13 17/16/13
f 18/17/14 21/21/14 22/22/14
f 18/17/15 23/23/15 19/18/15
f 23/23/16 26/24/16 27/25/16
f 69/26/17 25/27/17 21/21/17
f 21/21/18 26/24/18 22/22/18
f 25/27/19 30/28/19 26/24/19
f 27/25/20 30/28/20 31/29/20
f 70/30/21 29/31/21 25/27/21
f 71/32/22 33/33/22 29/31/22
f 29/31/23 34/34/23 30/28/23
f 31/29/24 34/34/24 35/35/24
f 35/35/25 38/36/25 39/37/25
f 72/38/26 37/39/26 33/33/26
f 33/33/27 38/36/27 34/34/27
f 37/39/28 42/40/28 38/36/28
f 39/37/29 42/40/29 43/41/29
f 73/42/30 41/43/30 37/39/30
f 74/44/31 45/45/31 41/43/31
f 42/40/32 45/45/32 46/46/32
f 43/41/33 46/46/33 47/47/33
f 47/47/34 50/48/34 51/49/34
f 75/50/35 49/51/35 45/45/35
f 46/46/36 49/51/36 50/48/36
f 76/52/37 53/53/37 49/51/37
f 50/48/38 53/53/38 54/54/38
f 51/49/39 54/54/39 55/55/39
f 77/56/40 57/57/40 53/53/40
f 54/54/41 57/57/41 58/58/41
f 55/55/42 58/58/42 59/59/42
f 57/57/43 62/60/43 58/58/43
f 59/59/44 62/60/44 63/61/44
f 44/62/45 108/63/45 48/64/45
f 78/65/46 61/66/46 57/57/46
f 35/35/47 51/49/47 3/3/47
f 79/67/48 1/6/48 61/66/48
f 62/60/49 1/6/49 2/1/49
f 63/61/50 2/1/50 3/3/50
f 8/68/51 65/8/51 4/69/51
f 8/68/51 67/19/51 66/13/51
f 12/70/51 68/20/51 67/19/51
f 16/71/51 69/26/51 68/20/51
f 24/72/51 69/26/51 20/73/51
f 24/72/51 71/32/51 70/30/51
f 28/74/51 72/38/51 71/32/51
f 36/75/51 72/38/51 32/76/51
f 40/77/51 73/42/51 36/75/51
f 40/77/51 75/50/51 74/44/51
f 44/62/51 76/52/51 75/50/51
f 52/78/51 76/52/51 48/64/51
f 52/78/51 78/65/51 77/56/51
f 56/79/51 79/67/51 78/65/51
f 60/80/51 80/4/51 79/67/51
f 4/69/51 80/4/51 64/81/51
f 92/82/52 165/83/52 93/83/52
f 16/71/53 101/84/53 20/73/53
f 48/64/52 109/85/52 52/78/52
f 20/73/54 102/86/54 24/72/54
f 52/78/55 110/87/55 56/79/55
f 24/72/56 103/88/56 28/74/56
f 56/79/57 111/89/57 60/80/57
f 28/74/58 104/90/58 32/76/58
f 60/80/59 112/91/59 64/81/59
f 32/76/60 105/92/60 36/75/60
f 4/69/61 98/93/61 8/68/61
f 64/81/62 97/94/62 4/69/62
f 36/75/63 106/95/63 40/77/63
f 8/68/64 99/96/64 12/70/64
f 40/77/65 107/97/65 44/62/65
f 12/70/66 100/98/66 16/71/66
f 81/99/51 98/100/51 97/101/51
f 83/102/51 98/100/51 82/103/51
f 83/102/51 100/104/51 99/105/51
f 85/106/51 100/104/51 84/107/51
f 86/108/51 101/109/51 85/106/51
f 86/108/51 103/110/51 102/111/51
f 87/112/51 104/113/51 103/110/51
f 89/114/51 104/113/51 88/115/51
f 89/114/51 106/116/51 105/117/51
f 91/118/51 106/116/51 90/119/51
f 92/82/51 107/120/51 91/118/51
f 93/83/51 108/121/51 92/82/51
f 93/83/51 110/122/51 109/123/51
f 95/124/51 110/122/51 94/125/51
f 95/124/51 112/126/51 111/127/51
f 81/99/51 112/126/51 96/128/51
f 118/129/67 113/130/67 117/131/67
f 114/132/68 119/133/68 115/134/68
f 115/134/69 120/135/69 116/136/69
f 117/131/70 121/137/70 122/131/70
f 120/135/47 121/137/47 116/136/47
f 115/134/71 116/136/71 121/137/71
f 122/131/72 119/133/72 118/129/72
f 128/138/73 123/139/73 127/140/73
f 124/141/74 129/142/74 125/143/74
f 125/143/75 130/144/75 126/145/75
f 127/140/76 131/146/76 132/140/76
f 130/144/47 131/146/47 126/145/47
f 125/143/77 126/145/77 131/146/77
f 132/140/78 129/142/78 128/138/78
f 138/147/79 133/148/79 137/149/79
f 134/150/80 139/151/80 135/152/80
f 135/152/81 140/153/81 136/154/81
f 137/149/82 141/155/82 142/149/82
f 140/153/47 141/155/47 136/154/47
f 135/152/83 136/154/83 141/155/83
f 142/149/84 139/151/84 138/147/84
f 148/156/85 143/157/85 147/158/85
f 144/159/86 149/160/86 145/161/86
f 145/161/87 150/162/87 146/163/87
f 147/158/88 151/164/88 152/158/88
f 150/162/47 151/164/47 146/163/47
f 145/161/89 146/163/89 151/164/89
f 152/158/90 149/160/90 148/156/90
f 167/124/59 184/128/59 168/128/59
f 85/106/54 158/108/54 86/108/54
f 93/83/55 166/125/55 94/125/55
f 86/108/56 159/112/56 87/112/56
f 94/125/57 167/124/57 95/124/57
f 87/112/58 160/115/58 88/115/58
f 95/124/59 168/128/59 96/128/59
f 88/115/60 161/114/60 89/114/60
f 81/99/61 154/103/61 82/103/61
f 96/128/62 153/99/62 81/99/62
f 89/114/63 162/119/63 90/119/63
f 82/103/64 155/102/64 83/102/64
f 90/119/65 163/118/65 91/118/65
f 83/102/66 156/107/66 84/107/66
f 91/118/45 164/82/45 92/82/45
f 84/107/53 157/106/53 85/106/53
f 183/165/51 179/166/51 175/167/51
f 160/115/60 177/114/60 161/114/60
f 153/99/61 170/103/61 154/103/61
f 168/128/62 169/99/62 153/99/62
f 161/114/63 178/119/63 162/119/63
f 154/103/64 171/102/64 155/102/64
f 162/119/65 179/118/65 163/118/65
f 155/102/66 172/107/66 156/107/66
f 163/118/45 180/82/45 164/82/45
f 156/107/53 173/106/53 157/106/53
f 164/82/52 181/83/52 165/83/52
f 157/106/54 174/108/54 158/108/54
f 165/83/55 182/125/55 166/125/55
f 158/108/56 175/112/56 159/112/56
f 166/125/57 183/124/57 167/124/57
f 159/112/58 176/115/58 160/115/58
f 2/1/1 6/7/1 7/2/1
f 80/4/2 65/8/2 5/5/2
f 2/1/3 1/6/3 5/5/3
f 65/8/4 66/13/4 9/9/4
f 6/7/5 5/5/5 9/9/5
f 6/7/6 10/10/6 11/11/6
f 10/10/7 14/15/7 15/12/7
f 66/13/8 67/19/8 13/14/8
f 10/10/9 9/9/9 13/14/9
f 14/15/10 13/14/10 17/16/10
f 14/15/11 18/17/11 19/18/11
f 67/19/12 68/20/12 17/16/12
f 68/20/13 69/26/13 21/21/13
f 18/17/14 17/16/14 21/21/14
f 18/17/15 22/22/15 23/23/15
f 23/23/16 22/22/16 26/24/16
f 69/26/17 70/30/17 25/27/17
f 21/21/18 25/27/18 26/24/18
f 25/27/19 29/31/19 30/28/19
f 27/25/20 26/24/20 30/28/20
f 70/30/21 71/32/21 29/31/21
f 71/32/22 72/38/22 33/33/22
f 29/31/23 33/33/23 34/34/23
f 31/29/24 30/28/24 34/34/24
f 35/35/25 34/34/25 38/36/25
f 72/38/26 73/42/26 37/39/26
f 33/33/27 37/39/27 38/36/27
f 37/39/28 41/43/28 42/40/28
f 39/37/29 38/36/29 42/40/29
f 73/42/30 74/44/30 41/43/30
f 74/44/31 75/50/31 45/45/31
f 42/40/32 41/43/32 45/45/32
f 43/41/33 42/40/33 46/46/33
f 47/47/34 46/46/34 50/48/34
f 75/50/35 76/52/35 49/51/35
f 46/46/36 45/45/36 49/51/36
f 76/52/37 77/56/37 53/53/37
f 50/48/38 49/51/38 53/53/38
f 51/49/39 50/48/39 54/54/39
f 77/56/40 78/65/40 57/57/40
f 54/54/41 53/53/41 57/57/41
f 55/55/42 54/54/42 58/58/42
f 57/57/43 61/66/43 62/60/43
f 59/59/44 58/58/44 62/60/44
f 44/62/45 107/97/45 108/63/45
f 78/65/46 79/67/46 61/66/46
f 3/3/47 7/2/47 19/18/47
f 7/2/47 11/11/47 19/18/47
f 11/11/47 15/12/47 19/18/47
f 19/18/47 23/23/47 27/25/47
f 27/25/47 31/29/47 19/18/47
f 31/29/47 35/35/47 19/18/47
f 35/35/47 39/37/47 43/41/47
f 43/41/47 47/47/47 51/49/47
f 51/49/47 55/55/47 59/59/47
f 59/59/47 63/61/47 3/3/47
f 35/35/47 43/41/47 51/49/47
f 51/49/47 59/59/47 3/3/47
f 3/3/47 19/18/47 35/35/47
f 79/67/48 80/4/48 1/6/48
f 62/60/49 61/66/49 1/6/49
f 63/61/50 62/60/50 2/1/50
f 8/68/51 66/13/51 65/8/51
f 8/68/51 12/70/51 67/19/51
f 12/70/51 16/71/51 68/20/51
f 16/71/51 20/73/51 69/26/51
f 24/72/51 70/30/51 69/26/51
f 24/72/51 28/74/51 71/32/51
f 28/74/51 32/76/51 72/38/51
f 36/75/51 73/42/51 72/38/51
f 40/77/51 74/44/51 73/42/51
f 40/77/51 44/62/51 75/50/51
f 44/62/51 48/64/51 76/52/51
f 52/78/51 77/56/51 76/52/51
f 52/78/51 56/79/51 78/65/51
f 56/79/51 60/80/51 79/67/51
f 60/80/51 64/81/51 80/4/51
f 4/69/51 65/8/51 80/4/51
f 92/82/52 164/82/52 165/83/52
f 16/71/53 100/98/53 101/84/53
f 48/64/52 108/63/52 109/85/52
f 20/73/54 101/84/54 102/86/54
f 52/78/55 109/85/55 110/87/55
f 24/72/56 102/86/56 103/88/56
f 56/79/57 110/87/57 111/89/57
f 28/74/58 103/88/58 104/90/58
f 60/80/59 111/89/59 112/91/59
f 32/76/60 104/90/60 105/92/60
f 4/69/61 97/94/61 98/93/61
f 64/81/62 112/91/62 97/94/62
f 36/75/63 105/92/63 106/95/63
f 8/68/64 98/93/64 99/96/64
f 40/77/65 106/95/65 107/97/65
f 12/70/66 99/96/66 100/98/66
f 81/99/51 82/103/51 98/100/51
f 83/102/51 99/105/51 98/100/51
f 83/102/51 84/107/51 100/104/51
f 85/106/51 101/109/51 100/104/51
f 86/108/51 102/111/51 101/109/51
f 86/108/51 87/112/51 103/110/51
f 87/112/51 88/115/51 104/113/51
f 89/114/51 105/117/51 104/113/51
f 89/114/51 90/119/51 106/116/51
f 91/118/51 107/120/51 106/116/51
f 92/82/51 108/121/51 107/120/51
f 93/83/51 109/123/51 108/121/51
f 93/83/51 94/125/51 110/122/51
f 95/124/51 111/127/51 110/122/51
f 95/124/51 96/128/51 112/126/51
f 81/99/51 97/101/51 112/126/51
f 118/129/67 114/132/67 113/130/67
f 114/132/68 118/129/68 119/133/68
f 115/134/69 119/133/69 120/135/69
f 117/131/70 113/130/70 121/137/70
f 120/135/47 122/131/47 121/137/47
f 113/130/71 114/132/71 121/137/71
f 114/132/71 115/134/71 121/137/71
f 118/129/72 117/131/72 122/131/72
f 122/131/72 120/135/72 119/133/72
f 128/138/73 124/141/73 123/139/73
f 124/141/74 128/138/74 129/142/74
f 125/143/75 129/142/75 130/144/75
f 127/140/76 123/139/76 131/146/76
f 130/144/47 132/140/47 131/146/47
f 123/139/77 124/141/77 131/146/77
f 124/141/77 125/143/77 131/146/77
f 128/138/78 127/140/78 132/140/78
f 132/140/78 130/144/78 129/142/78
f 138/147/79 134/150/79 133/148/79
f 134/150/80 138/147/80 139/151/80
f 135/152/81 139/151/81 140/153/81
f 137/149/82 133/148/82 141/155/82
f 140/153/47 142/149/47 141/155/47
f 133/148/83 134/150/83 141/155/83
f 134/150/83 135/152/83 141/155/83
f 138/147/84 137/149/84 142/149/84
f 142/149/84 140/153/84 139/151/84
f 148/156/85 144/159/85 143/157/85
f 144/159/86 148/156/86 149/160/86
f 145/161/87 149/160/87 150/162/87
f 147/158/88 143/157/88 151/164/88
f 150/162/47 152/158/47 151/164/47
f 143/157/89 144/159/89 151/164/89
f 144/159/89 145/161/89 151/164/89
f 148/156/90 147/158/90 152/158/90
f 152/158/90 150/162/90 149/160/90
f 167/124/59 183/124/59 184/128/59
f 85/106/54 157/106/54 158/108/54
f 93/83/55 165/83/55 166/125/55
f 86/108/56 158/108/56 159/112/56
f 94/125/57 166/125/57 167/124/57
f 87/112/58 159/112/58 160/115/58
f 95/124/59 167/124/59 168/128/59
f 88/115/60 160/115/60 161/114/60
f 81/99/61 153/99/61 154/103/61
f 96/128/62 168/128/62 153/99/62
f 89/114/63 161/114/63 162/119/63
f 82/103/64 154/103/64 155/102/64
f 90/119/65 162/119/65 163/118/65
f 83/102/66 155/102/66 156/107/66
f 91/118/45 163/118/45 164/82/45
f 84/107/53 156/107/53 157/106/53
f 171/168/51 170/169/51 169/170/51
f 169/170/51 184/171/51 171/168/51
f 184/171/51 183/165/51 171/168/51
f 183/165/51 182/172/51 179/166/51
f 182/172/51 181/173/51 179/166/51
f 181/173/51 180/174/51 179/166/51
f 179/166/51 178/175/51 175/167/51
f 178/175/51 177/176/51 175/167/51
f 177/176/51 176/177/51 175/167/51
f 175/167/51 174/178/51 173/179/51
f 173/179/51 172/180/51 171/168/51
f 175/167/51 173/179/51 171/168/51
f 171/168/51 183/165/51 175/167/51
f 160/115/60 176/115/60 177/114/60
f 153/99/61 169/99/61 170/103/61
f 168/128/62 184/128/62 169/99/62
f 161/114/63 177/114/63 178/119/63
f 154/103/64 170/103/64 171/102/64
f 162/119/65 178/119/65 179/118/65
f 155/102/66 171/102/66 172/107/66
f 163/118/45 179/118/45 180/82/45
f 156/107/53 172/107/53 173/106/53
f 164/82/52 180/82/52 181/83/52
f 157/106/54 173/106/54 174/108/54
f 165/83/55 181/83/55 182/125/55
f 158/108/56 174/108/56 175/112/56
f 166/125/57 182/125/57 183/124/57
f 159/112/58 175/112/58 176/115/58
