# Blender 4.4.0
# www.blender.org
mtllib powerGenerator.mtl
o 立方体.003
v 0.791386 -2.500000 -1.201508
v 0.791386 2.500000 -1.201508
v 1.498492 -2.500000 -1.808614
v 1.498492 2.500000 -1.808614
v 1.201508 -2.500000 -0.791386
v 1.201508 2.500000 -0.791386
v 1.808614 -2.500000 -1.498493
v 1.808614 2.500000 -1.498493
v 1.703553 -2.500000 -1.703554
v 1.703553 2.500000 -1.703554
v 0.996447 -2.500000 -0.996447
v 0.996447 2.500000 -0.996447
v 1.806084 2.500000 -1.601023
v 1.098977 -2.500000 -0.893916
v 1.806084 -2.500000 -1.601023
v 1.098977 2.500000 -0.893916
v 1.601023 -2.500000 -1.806084
v 0.893916 2.500000 -1.098977
v 1.601023 2.500000 -1.806084
v 0.893916 -2.500000 -1.098977
v 0.000000 -2.500000 -1.450000
v 0.000000 2.500000 -1.450000
v 0.282881 -2.500000 -1.422138
v 0.282881 2.500000 -1.422138
v 0.554891 -2.500000 -1.339625
v 0.554891 2.500000 -1.339625
v 0.805577 -2.500000 -1.205631
v 0.805577 2.500000 -1.205631
v 1.025305 -2.500000 -1.025305
v 1.025305 2.500000 -1.025305
v 1.205631 -2.500000 -0.805577
v 1.205631 2.500000 -0.805577
v 1.339625 -2.500000 -0.554891
v 1.339625 2.500000 -0.554891
v 1.422138 -2.500000 -0.282881
v 1.422138 2.500000 -0.282881
v 1.450000 -2.500000 0.000000
v 1.450000 2.500000 0.000000
v 1.422139 -2.500000 0.282881
v 1.422139 2.500000 0.282881
v 1.339625 -2.500000 0.554891
v 1.339625 2.500000 0.554891
v 1.205631 -2.500000 0.805577
v 1.205631 2.500000 0.805577
v 1.025305 -2.500000 1.025305
v 1.025305 2.500000 1.025305
v 0.805577 -2.500000 1.205631
v 0.805577 2.500000 1.205631
v 0.554891 -2.500000 1.339625
v 0.554891 2.500000 1.339625
v 0.282881 -2.500000 1.422138
v 0.282881 2.500000 1.422138
v 0.000000 -2.500000 1.450000
v 0.000000 2.500000 1.450000
v -0.282881 -2.500000 1.422138
v -0.282881 2.500000 1.422138
v -0.554891 -2.500000 1.339625
v -0.554891 2.500000 1.339625
v -0.805577 -2.500000 1.205631
v -0.805577 2.500000 1.205631
v -1.025305 -2.500000 1.025305
v -1.025305 2.500000 1.025305
v -1.205631 -2.500000 0.805577
v -1.205631 2.500000 0.805577
v -1.339625 -2.500000 0.554891
v -1.339625 2.500000 0.554891
v -1.422138 -2.500000 0.282881
v -1.422138 2.500000 0.282881
v -1.450000 -2.500000 -0.000000
v -1.450000 2.500000 -0.000000
v -1.422138 -2.500000 -0.282881
v -1.422138 2.500000 -0.282881
v -1.339625 -2.500000 -0.554891
v -1.339625 2.500000 -0.554891
v -1.205631 -2.500000 -0.805577
v -1.205631 2.500000 -0.805577
v -1.025305 -2.500000 -1.025305
v -1.025305 2.500000 -1.025305
v -0.805577 -2.500000 -1.205631
v -0.805577 2.500000 -1.205631
v -0.554891 -2.500000 -1.339625
v -0.554891 2.500000 -1.339625
v -0.282881 -2.500000 -1.422138
v -0.282881 2.500000 -1.422138
v -2.000000 -2.500000 -1.585787
v -2.000000 -3.000000 -1.585787
v -1.585787 -2.500000 -2.000000
v -1.585787 -3.000000 -2.000000
v 1.585787 -2.500000 -2.000000
v 1.585787 -3.000000 -2.000000
v 2.000000 -2.500000 -1.585787
v 2.000000 -3.000000 -1.585787
v 2.000000 -3.000000 1.585787
v 2.000000 -2.500000 1.585787
v 1.585786 -2.500000 2.000000
v 1.585786 -3.000000 2.000000
v -2.000000 -2.500000 1.585787
v -2.000000 -3.000000 1.585787
v -1.585787 -3.000000 2.000000
v -1.585787 -2.500000 2.000000
v 1.201508 -2.500000 0.791386
v 1.201508 2.500000 0.791386
v 1.808614 -2.500000 1.498492
v 1.808614 2.500000 1.498492
v 0.791386 -2.500000 1.201507
v 0.791386 2.500000 1.201507
v 1.498493 -2.500000 1.808614
v 1.498493 2.500000 1.808614
v 1.703553 -2.500000 1.703553
v 1.703553 2.500000 1.703553
v 0.996447 -2.500000 0.996447
v 0.996447 2.500000 0.996447
v 1.601023 2.500000 1.806084
v 0.893916 -2.500000 1.098977
v 1.601023 -2.500000 1.806084
v 0.893916 2.500000 1.098977
v 1.806084 -2.500000 1.601023
v 1.098977 2.500000 0.893916
v 1.806084 2.500000 1.601023
v 1.098977 -2.500000 0.893916
v -2.000000 3.000000 -1.585787
v -2.000000 2.500000 -1.585787
v -1.585787 3.000000 -2.000000
v -1.585787 2.500000 -2.000000
v 1.585787 3.000000 -2.000000
v 1.585787 2.500000 -2.000000
v 2.000000 3.000000 -1.585787
v 2.000000 2.500000 -1.585787
v 2.000000 2.500000 1.585787
v 2.000000 3.000000 1.585787
v 1.585786 3.000000 2.000000
v 1.585786 2.500000 2.000000
v -2.000000 3.000000 1.585787
v -2.000000 2.500000 1.585787
v -1.585787 2.500000 2.000000
v -1.585787 3.000000 2.000000
v 0.000000 2.500000 -2.000000
v 0.000000 3.000000 -2.000000
v 2.000000 2.500000 0.000000
v 2.000000 3.000000 0.000000
v 0.000000 2.500000 2.000000
v 0.000000 3.000000 2.000000
v -2.000000 3.000000 -0.000000
v -2.000000 2.500000 -0.000000
v -1.201507 -2.500000 -0.791386
v -1.201507 2.500000 -0.791386
v -1.808614 -2.500000 -1.498492
v -1.808614 2.500000 -1.498492
v -0.791386 -2.500000 -1.201508
v -0.791386 2.500000 -1.201508
v -1.498492 -2.500000 -1.808614
v -1.498492 2.500000 -1.808614
v -1.703553 -2.500000 -1.703553
v -1.703553 2.500000 -1.703553
v -0.996446 -2.500000 -0.996447
v -0.996446 2.500000 -0.996447
v -1.601023 2.500000 -1.806084
v -0.893916 -2.500000 -1.098977
v -1.601023 -2.500000 -1.806084
v -0.893916 2.500000 -1.098977
v -1.806084 -2.500000 -1.601023
v -1.098977 2.500000 -0.893916
v -1.806084 2.500000 -1.601023
v -1.098977 -2.500000 -0.893916
v -0.791386 -2.500000 1.201508
v -0.791386 2.500000 1.201508
v -1.498493 -2.500000 1.808614
v -1.498493 2.500000 1.808614
v -1.201508 -2.500000 0.791386
v -1.201508 2.500000 0.791386
v -1.808614 -2.500000 1.498493
v -1.808614 2.500000 1.498493
v -1.703554 -2.500000 1.703553
v -1.703554 2.500000 1.703553
v -0.996447 -2.500000 0.996447
v -0.996447 2.500000 0.996447
v -1.806084 2.500000 1.601023
v -1.098977 -2.500000 0.893916
v -1.806084 -2.500000 1.601023
v -1.098977 2.500000 0.893916
v -1.601023 -2.500000 1.806084
v -0.893916 2.500000 1.098977
v -1.601023 2.500000 1.806084
v -0.893916 -2.500000 1.098977
v 0.000000 -0.250000 -1.700000
v 0.000000 0.250000 -1.700000
v 0.331654 -0.250000 -1.667335
v 0.331654 0.250000 -1.667335
v 0.650562 -0.250000 -1.570595
v 0.650562 0.250000 -1.570595
v 0.944470 -0.250000 -1.413499
v 0.944470 0.250000 -1.413499
v 1.202082 -0.250000 -1.202082
v 1.202082 0.250000 -1.202082
v 1.413499 -0.250000 -0.944470
v 1.413499 0.250000 -0.944470
v 1.570595 -0.250000 -0.650562
v 1.570595 0.250000 -0.650562
v 1.667335 -0.250000 -0.331654
v 1.667335 0.250000 -0.331654
v 1.700000 -0.250000 0.000000
v 1.700000 0.250000 0.000000
v 1.667335 -0.250000 0.331654
v 1.667335 0.250000 0.331654
v 1.570595 -0.250000 0.650562
v 1.570595 0.250000 0.650562
v 1.413498 -0.250000 0.944470
v 1.413498 0.250000 0.944470
v 1.202082 -0.250000 1.202081
v 1.202082 0.250000 1.202081
v 0.944470 -0.250000 1.413498
v 0.944470 0.250000 1.413498
v 0.650562 -0.250000 1.570595
v 0.650562 0.250000 1.570595
v 0.331654 -0.250000 1.667335
v 0.331654 0.250000 1.667335
v 0.000000 -0.250000 1.700000
v 0.000000 0.250000 1.700000
v -0.331653 -0.250000 1.667335
v -0.331653 0.250000 1.667335
v -0.650562 -0.250000 1.570595
v -0.650562 0.250000 1.570595
v -0.944470 -0.250000 1.413498
v -0.944470 0.250000 1.413498
v -1.202082 -0.250000 1.202081
v -1.202082 0.250000 1.202081
v -1.413499 -0.250000 0.944469
v -1.413499 0.250000 0.944469
v -1.570595 -0.250000 0.650562
v -1.570595 0.250000 0.650562
v -1.667335 -0.250000 0.331653
v -1.667335 0.250000 0.331653
v -1.700000 -0.250000 0.000000
v -1.700000 0.250000 0.000000
v -1.667335 -0.250000 -0.331654
v -1.667335 0.250000 -0.331654
v -1.570595 -0.250000 -0.650562
v -1.570595 0.250000 -0.650562
v -1.413498 -0.250000 -0.944470
v -1.413498 0.250000 -0.944470
v -1.202082 -0.250000 -1.202082
v -1.202082 0.250000 -1.202082
v -0.944470 -0.250000 -1.413498
v -0.944470 0.250000 -1.413498
v -0.650562 -0.250000 -1.570595
v -0.650562 0.250000 -1.570595
v -0.331653 -0.250000 -1.667335
v -0.331653 0.250000 -1.667335
vn -0.6514 -0.0000 -0.7587
vn 0.9997 -0.0000 -0.0247
vn 0.7587 -0.0000 0.6514
vn -0.7071 -0.0000 0.7071
vn -0.0000 -1.0000 -0.0000
vn -0.0000 1.0000 -0.0000
vn 0.7071 -0.0000 -0.7071
vn 0.0247 -0.0000 -0.9997
vn 0.0980 -0.0000 -0.9952
vn 0.2903 -0.0000 -0.9569
vn 0.4714 -0.0000 -0.8819
vn 0.6344 -0.0000 -0.7730
vn 0.7730 -0.0000 -0.6344
vn 0.8819 -0.0000 -0.4714
vn 0.9569 -0.0000 -0.2903
vn 0.9952 -0.0000 -0.0980
vn 0.9952 -0.0000 0.0980
vn 0.9569 -0.0000 0.2903
vn 0.8819 -0.0000 0.4714
vn 0.7730 -0.0000 0.6344
vn 0.6344 -0.0000 0.7730
vn 0.4714 -0.0000 0.8819
vn 0.2903 -0.0000 0.9569
vn 0.0980 -0.0000 0.9952
vn -0.0980 -0.0000 0.9952
vn -0.2903 -0.0000 0.9569
vn -0.4714 -0.0000 0.8819
vn -0.6344 -0.0000 0.7730
vn -0.7730 -0.0000 0.6344
vn -0.8819 -0.0000 0.4714
vn -0.9569 -0.0000 0.2903
vn -0.9952 -0.0000 0.0980
vn -0.9952 -0.0000 -0.0980
vn -0.9569 -0.0000 -0.2903
vn -0.8819 -0.0000 -0.4714
vn -0.7730 -0.0000 -0.6344
vn -0.6344 -0.0000 -0.7730
vn -0.4714 -0.0000 -0.8819
vn -0.2903 -0.0000 -0.9569
vn -0.0980 -0.0000 -0.9952
vn -1.0000 -0.0000 -0.0000
vn -0.0000 -0.0000 -1.0000
vn 1.0000 -0.0000 -0.0000
vn -0.0000 -0.0000 1.0000
vn -0.7071 -0.0000 -0.7071
vn 0.7071 -0.0000 0.7071
vn 0.7587 -0.0000 -0.6514
vn 0.0247 -0.0000 0.9997
vn -0.6514 -0.0000 0.7587
vn 0.9997 -0.0000 0.0247
vn -0.7587 -0.0000 0.6514
vn -0.0247 -0.0000 -0.9997
vn 0.6514 -0.0000 -0.7587
vn -0.9997 -0.0000 -0.0247
vn 0.6514 -0.0000 0.7587
vn -0.9997 -0.0000 0.0247
vn -0.7587 -0.0000 -0.6514
vn -0.0247 -0.0000 0.9997
vt 0.833755 0.641452
vt 0.756833 0.718373
vt 0.756833 0.641452
vt 0.833755 0.776064
vt 0.756833 0.795294
vt 0.756833 0.776064
vt 0.833755 0.795294
vt 0.756833 0.872215
vt 0.833755 0.929906
vt 0.756833 0.949136
vt 0.756833 0.929906
vt 0.737603 0.872215
vt 0.737603 0.795294
vt 0.910676 0.795294
vt 0.891445 0.872215
vt 0.891445 0.795294
vt 0.872215 0.795294
vt 0.852985 0.872215
vt 0.852985 0.795294
vt 0.718373 0.795294
vt 0.699143 0.872215
vt 0.699143 0.795294
vt 0.833755 0.891445
vt 0.756833 0.910676
vt 0.756833 0.891445
vt 0.833755 0.737603
vt 0.756833 0.756833
vt 0.756833 0.737603
vt 0.833755 0.872215
vt 0.718373 0.872215
vt 0.833755 0.756833
vt 0.833755 0.718373
vt 0.679912 0.795294
vt 0.679912 0.872215
vt 0.872215 0.872215
vt 0.833755 0.910676
vt 0.334603 0.923946
vt 0.326331 0.791588
vt 0.334603 0.791588
vt 0.326331 0.923946
vt 0.318058 0.791588
vt 0.318058 0.923946
vt 0.309786 0.791588
vt 0.309786 0.923946
vt 0.301514 0.791588
vt 0.301514 0.923946
vt 0.293241 0.791588
vt 0.293241 0.923946
vt 0.284969 0.791588
vt 0.284969 0.923946
vt 0.276696 0.791588
vt 0.276696 0.923946
vt 0.268424 0.791588
vt 0.268424 0.923946
vt 0.260152 0.791588
vt 0.260152 0.923946
vt 0.251879 0.791588
vt 0.251879 0.923946
vt 0.243607 0.791588
vt 0.243607 0.923946
vt 0.235335 0.791588
vt 0.235335 0.923946
vt 0.227062 0.791588
vt 0.227062 0.923946
vt 0.218790 0.791588
vt 0.218790 0.923946
vt 0.210518 0.791588
vt 0.210518 0.923946
vt 0.202245 0.791588
vt 0.202245 0.923946
vt 0.193973 0.791588
vt 0.193973 0.923946
vt 0.185701 0.791588
vt 0.185701 0.923946
vt 0.177428 0.791588
vt 0.177428 0.923946
vt 0.169156 0.791588
vt 0.169156 0.923946
vt 0.160883 0.791588
vt 0.160883 0.923946
vt 0.152611 0.791588
vt 0.152611 0.923946
vt 0.144339 0.791588
vt 0.144339 0.923946
vt 0.136066 0.791588
vt 0.136066 0.923946
vt 0.127794 0.791588
vt 0.127794 0.923946
vt 0.119522 0.791588
vt 0.119522 0.923946
vt 0.111249 0.791588
vt 0.111249 0.923946
vt 0.102977 0.791588
vt 0.102977 0.923946
vt 0.094705 0.791588
vt 0.094705 0.923946
vt 0.086432 0.791588
vt 0.180990 0.770333
vt 0.171363 0.778234
vt 0.091143 0.680485
vt 0.086432 0.923946
vt 0.078160 0.791588
vt 0.078160 0.923946
vt 0.069888 0.791588
vt 0.233128 0.778234
vt 0.244112 0.784105
vt 0.215599 0.760706
vt 0.833755 0.710407
vt 0.756833 0.649417
vt 0.833755 0.649417
vt 0.756833 0.726338
vt 0.833755 0.787329
vt 0.756833 0.787329
vt 0.833755 0.803259
vt 0.756833 0.864250
vt 0.756833 0.803259
vt 0.833755 0.880181
vt 0.756833 0.941171
vt 0.756833 0.880181
vt 0.687878 0.872215
vt 0.679912 0.864250
vt 0.902710 0.795294
vt 0.910676 0.803259
vt 0.910676 0.864250
vt 0.814173 0.921941
vt 0.794943 0.899411
vt 0.794943 0.921941
vt 0.814173 0.691177
vt 0.794943 0.668647
vt 0.794943 0.691177
vt 0.814173 0.768098
vt 0.794943 0.745569
vt 0.794943 0.768098
vt 0.794943 0.822490
vt 0.814173 0.845019
vt 0.814173 0.822490
vt 0.756833 0.679912
vt 0.833755 0.679912
vt 0.833755 0.833755
vt 0.756833 0.833755
vt 0.910676 0.833755
vt 0.949136 0.949136
vt 0.939521 0.795294
vt 0.949136 0.795294
vt 0.939521 0.949136
vt 0.929906 0.795294
vt 0.929906 0.949136
vt 0.920291 0.795294
vt 0.920291 0.949136
vt 0.910676 0.949136
vt 0.901060 0.795294
vt 0.901060 0.949136
vt 0.891445 0.949136
vt 0.881830 0.795294
vt 0.881830 0.949136
vt 0.872215 0.949136
vt 0.862600 0.795294
vt 0.862600 0.949136
vt 0.852985 0.949136
vt 0.843370 0.795294
vt 0.843370 0.949136
vt 0.833755 0.949136
vt 0.824139 0.795294
vt 0.824139 0.949136
vt 0.814524 0.795294
vt 0.814524 0.949136
vt 0.804909 0.795294
vt 0.804909 0.949136
vt 0.795294 0.795294
vt 0.795294 0.949136
vt 0.785679 0.795294
vt 0.785679 0.949136
vt 0.776064 0.795294
vt 0.776064 0.949136
vt 0.766448 0.795294
vt 0.766448 0.949136
vt 0.747218 0.795294
vt 0.747218 0.949136
vt 0.737603 0.949136
vt 0.727988 0.795294
vt 0.727988 0.949136
vt 0.718373 0.949136
vt 0.708758 0.795294
vt 0.708758 0.949136
vt 0.699143 0.949136
vt 0.689527 0.795294
vt 0.689527 0.949136
vt 0.679912 0.949136
vt 0.670297 0.795294
vt 0.670297 0.949136
vt 0.660682 0.795294
vt 0.770589 0.770589
vt 0.759399 0.779772
vt 0.666157 0.666157
vt 0.660682 0.949136
vt 0.651067 0.795294
vt 0.651067 0.949136
vt 0.641452 0.795294
vt 0.831189 0.779772
vt 0.843956 0.786596
vt 0.810816 0.759399
vt 0.910676 0.872215
vt 0.160379 0.784105
vt 0.148461 0.787720
vt 0.073756 0.713015
vt 0.136066 0.788941
vt 0.072535 0.725409
vt 0.123672 0.787720
vt 0.073756 0.737804
vt 0.111754 0.784105
vt 0.077371 0.749722
vt 0.100770 0.778234
vt 0.091143 0.770333
vt 0.083242 0.760706
vt 0.077371 0.701097
vt 0.083242 0.690113
vt 0.100770 0.672585
vt 0.111754 0.666714
vt 0.188891 0.760706
vt 0.123672 0.663098
vt 0.198377 0.737804
vt 0.136066 0.661878
vt 0.199598 0.725409
vt 0.148461 0.663098
vt 0.198377 0.713015
vt 0.160379 0.666714
vt 0.194762 0.701097
vt 0.171363 0.672585
vt 0.180990 0.680485
vt 0.188891 0.690113
vt 0.194762 0.749722
vt 0.069888 0.923946
vt 0.256030 0.787720
vt 0.268424 0.788941
vt 0.204892 0.725409
vt 0.280818 0.787720
vt 0.206113 0.713015
vt 0.292737 0.784105
vt 0.303720 0.778234
vt 0.209729 0.701097
vt 0.313348 0.770333
vt 0.223500 0.680485
vt 0.321249 0.760706
vt 0.233128 0.672585
vt 0.327120 0.749722
vt 0.330735 0.737804
vt 0.244112 0.666714
vt 0.331956 0.725409
vt 0.268424 0.661878
vt 0.330735 0.713015
vt 0.280818 0.663098
vt 0.327120 0.701097
vt 0.321249 0.690113
vt 0.292737 0.666714
vt 0.313348 0.680485
vt 0.303720 0.672585
vt 0.256030 0.663098
vt 0.215599 0.690113
vt 0.206113 0.737804
vt 0.209729 0.749722
vt 0.223500 0.770333
vt 0.756833 0.710407
vt 0.833755 0.726338
vt 0.833755 0.864250
vt 0.833755 0.941171
vt 0.679912 0.803259
vt 0.687878 0.795294
vt 0.748868 0.795294
vt 0.748868 0.872215
vt 0.902710 0.872215
vt 0.841720 0.872215
vt 0.841720 0.795294
vt 0.814173 0.899411
vt 0.814173 0.668647
vt 0.814173 0.745569
vt 0.794943 0.845019
vt 0.679912 0.833755
vt 0.746632 0.786596
vt 0.732779 0.790798
vt 0.645947 0.703967
vt 0.718373 0.792217
vt 0.644529 0.718373
vt 0.703966 0.790798
vt 0.645947 0.732779
vt 0.690114 0.786596
vt 0.650150 0.746632
vt 0.677347 0.779772
vt 0.666157 0.770589
vt 0.656974 0.759399
vt 0.650150 0.690114
vt 0.656974 0.677347
vt 0.677347 0.656974
vt 0.690114 0.650150
vt 0.779772 0.759399
vt 0.703966 0.645947
vt 0.790798 0.732779
vt 0.718373 0.644529
vt 0.792217 0.718373
vt 0.732779 0.645947
vt 0.790798 0.703967
vt 0.746632 0.650150
vt 0.786596 0.690114
vt 0.759399 0.656974
vt 0.779772 0.677347
vt 0.770589 0.666157
vt 0.786596 0.746632
vt 0.641452 0.949136
vt 0.857809 0.790798
vt 0.872215 0.792217
vt 0.798371 0.718373
vt 0.886621 0.790798
vt 0.799790 0.703967
vt 0.900474 0.786596
vt 0.913241 0.779772
vt 0.803992 0.690114
vt 0.924431 0.770589
vt 0.819999 0.666157
vt 0.933614 0.759399
vt 0.831189 0.656974
vt 0.940438 0.746632
vt 0.944640 0.732779
vt 0.843956 0.650150
vt 0.946059 0.718373
vt 0.872215 0.644529
vt 0.944640 0.703967
vt 0.886621 0.645947
vt 0.940438 0.690114
vt 0.933614 0.677347
vt 0.900474 0.650150
vt 0.924431 0.666157
vt 0.913241 0.656974
vt 0.857809 0.645947
vt 0.810816 0.677347
vt 0.799790 0.732779
vt 0.803992 0.746632
vt 0.819999 0.770589
s 0
usemtl マテリアル
f 2/1/1 3/2/1 1/3/1
f 13/4/2 7/5/2 15/6/2
f 8/7/3 5/8/3 7/5/3
f 18/9/4 1/10/4 20/11/4
f 7/5/5 14/12/5 15/13/5
f 4/14/6 18/15/6 19/16/6
f 10/17/6 16/18/6 13/19/6
f 9/20/5 20/21/5 17/22/5
f 16/23/4 11/24/4 14/25/4
f 19/26/7 9/27/7 17/28/7
f 6/29/4 14/25/4 5/8/4
f 8/7/6 16/18/6 6/29/6
f 15/13/5 11/30/5 9/20/5
f 10/31/7 15/6/7 9/27/7
f 4/32/8 17/28/8 3/2/8
f 3/33/5 20/21/5 1/34/5
f 19/16/6 12/35/6 10/17/6
f 12/36/4 20/11/4 11/24/4
f 22/37/9 23/38/9 21/39/9
f 24/40/10 25/41/10 23/38/10
f 26/42/11 27/43/11 25/41/11
f 28/44/12 29/45/12 27/43/12
f 30/46/13 31/47/13 29/45/13
f 32/48/14 33/49/14 31/47/14
f 34/50/15 35/51/15 33/49/15
f 36/52/16 37/53/16 35/51/16
f 38/54/17 39/55/17 37/53/17
f 40/56/18 41/57/18 39/55/18
f 42/58/19 43/59/19 41/57/19
f 44/60/20 45/61/20 43/59/20
f 46/62/21 47/63/21 45/61/21
f 48/64/22 49/65/22 47/63/22
f 50/66/23 51/67/23 49/65/23
f 52/68/24 53/69/24 51/67/24
f 54/70/25 55/71/25 53/69/25
f 56/72/26 57/73/26 55/71/26
f 58/74/27 59/75/27 57/73/27
f 60/76/28 61/77/28 59/75/28
f 62/78/29 63/79/29 61/77/29
f 64/80/30 65/81/30 63/79/30
f 66/82/31 67/83/31 65/81/31
f 68/84/32 69/85/32 67/83/32
f 70/86/33 71/87/33 69/85/33
f 72/88/34 73/89/34 71/87/34
f 74/90/35 75/91/35 73/89/35
f 76/92/36 77/93/36 75/91/36
f 78/94/37 79/95/37 77/93/37
f 80/96/38 81/97/38 79/95/38
f 30/98/6 28/99/6 62/100/6
f 82/101/39 83/102/39 81/97/39
f 84/103/40 21/104/40 83/102/40
f 79/105/5 81/106/5 75/107/5
f 85/108/41 98/109/41 97/110/41
f 88/111/42 89/112/42 90/113/42
f 91/114/43 93/115/43 92/116/43
f 95/117/44 99/118/44 96/119/44
f 99/120/5 98/121/5 92/116/5
f 87/122/6 85/123/6 97/124/6
f 85/125/45 88/126/45 86/127/45
f 89/128/7 92/129/7 90/130/7
f 94/131/46 96/132/46 93/133/46
f 98/134/4 100/135/4 97/136/4
f 102/1/47 103/2/47 101/3/47
f 113/4/48 107/5/48 115/6/48
f 108/7/49 105/8/49 107/5/49
f 118/9/45 101/10/45 120/11/45
f 107/5/5 114/12/5 115/13/5
f 104/14/6 118/15/6 119/16/6
f 110/17/6 116/18/6 113/19/6
f 109/20/5 120/21/5 117/22/5
f 116/23/45 111/24/45 114/25/45
f 119/26/46 109/27/46 117/28/46
f 106/29/45 114/25/45 105/8/45
f 108/7/6 116/18/6 106/29/6
f 115/13/5 111/30/5 109/20/5
f 110/31/46 115/6/46 109/27/46
f 104/32/50 117/28/50 103/2/50
f 103/33/5 120/21/5 101/34/5
f 119/16/6 112/35/6 110/17/6
f 112/36/45 120/11/45 111/24/45
f 121/108/41 144/137/41 143/138/41
f 124/111/42 138/31/42 137/27/42
f 140/139/43 129/115/43 139/140/43
f 142/36/44 135/118/44 141/24/44
f 139/140/5 129/115/5 141/30/5
f 138/17/6 123/122/6 143/141/6
f 121/125/45 124/126/45 122/127/45
f 125/128/7 128/129/7 126/130/7
f 130/131/46 132/132/46 129/133/46
f 134/134/4 136/135/4 133/136/4
f 137/27/42 125/112/42 126/113/42
f 127/114/43 139/140/43 128/116/43
f 131/117/44 141/24/44 132/119/44
f 143/138/41 134/109/41 133/110/41
f 146/1/51 147/2/51 145/3/51
f 157/4/52 151/5/52 159/6/52
f 152/7/53 149/8/53 151/5/53
f 162/9/46 145/10/46 164/11/46
f 151/5/5 158/12/5 159/13/5
f 148/14/6 162/15/6 163/16/6
f 154/17/6 160/18/6 157/19/6
f 153/20/5 164/21/5 161/22/5
f 160/23/46 155/24/46 158/25/46
f 163/26/45 153/27/45 161/28/45
f 150/29/46 158/25/46 149/8/46
f 152/7/6 160/18/6 150/29/6
f 159/13/5 155/30/5 153/20/5
f 154/31/45 159/6/45 153/27/45
f 148/32/54 161/28/54 147/2/54
f 147/33/5 164/21/5 145/34/5
f 163/16/6 156/35/6 154/17/6
f 156/36/46 164/11/46 155/24/46
f 166/1/55 167/2/55 165/3/55
f 177/4/56 171/5/56 179/6/56
f 172/7/57 169/8/57 171/5/57
f 182/9/7 165/10/7 184/11/7
f 171/5/5 178/12/5 179/13/5
f 168/14/6 182/15/6 183/16/6
f 174/17/6 180/18/6 177/19/6
f 173/20/5 184/21/5 181/22/5
f 180/23/7 175/24/7 178/25/7
f 183/26/4 173/27/4 181/28/4
f 170/29/7 178/25/7 169/8/7
f 172/7/6 180/18/6 170/29/6
f 179/13/5 175/30/5 173/20/5
f 174/31/4 179/6/4 173/27/4
f 168/32/58 181/28/58 167/2/58
f 167/33/5 184/21/5 165/34/5
f 183/16/6 176/35/6 174/17/6
f 176/36/7 184/11/7 175/24/7
f 186/142/9 187/143/9 185/144/9
f 188/145/10 189/146/10 187/143/10
f 190/147/11 191/148/11 189/146/11
f 192/149/12 193/14/12 191/148/12
f 194/150/13 195/151/13 193/14/13
f 196/152/14 197/16/14 195/151/14
f 198/153/15 199/154/15 197/16/15
f 200/155/16 201/17/16 199/154/16
f 202/156/17 203/157/17 201/17/17
f 204/158/18 205/19/18 203/157/18
f 206/159/19 207/160/19 205/19/19
f 208/161/20 209/7/20 207/160/20
f 210/162/21 211/163/21 209/7/21
f 212/164/22 213/165/22 211/163/22
f 214/166/23 215/167/23 213/165/23
f 216/168/24 217/169/24 215/167/24
f 218/170/25 219/171/25 217/169/25
f 220/172/26 221/173/26 219/171/26
f 222/174/27 223/175/27 221/173/27
f 224/176/28 225/5/28 223/175/28
f 226/10/29 227/177/29 225/5/29
f 228/178/30 229/13/30 227/177/30
f 230/179/31 231/180/31 229/13/31
f 232/181/32 233/20/32 231/180/32
f 234/182/33 235/183/33 233/20/33
f 236/184/34 237/22/34 235/183/34
f 238/185/35 239/186/35 237/22/35
f 240/187/36 241/33/36 239/186/36
f 242/188/37 243/189/37 241/33/37
f 244/190/38 245/191/38 243/189/38
f 194/192/6 192/193/6 226/194/6
f 246/195/39 247/196/39 245/191/39
f 248/197/40 185/198/40 247/196/40
f 243/199/5 245/200/5 239/201/5
f 2/1/1 4/32/1 3/2/1
f 13/4/2 8/7/2 7/5/2
f 8/7/3 6/29/3 5/8/3
f 18/9/4 2/162/4 1/10/4
f 7/5/5 5/8/5 14/12/5
f 4/14/6 2/202/6 18/15/6
f 10/17/6 12/35/6 16/18/6
f 9/20/5 11/30/5 20/21/5
f 16/23/4 12/36/4 11/24/4
f 19/26/7 10/31/7 9/27/7
f 6/29/4 16/23/4 14/25/4
f 8/7/6 13/19/6 16/18/6
f 15/13/5 14/12/5 11/30/5
f 10/31/7 13/4/7 15/6/7
f 4/32/8 19/26/8 17/28/8
f 3/33/5 17/22/5 20/21/5
f 19/16/6 18/15/6 12/35/6
f 12/36/4 18/9/4 20/11/4
f 22/37/9 24/40/9 23/38/9
f 24/40/10 26/42/10 25/41/10
f 26/42/11 28/44/11 27/43/11
f 28/44/12 30/46/12 29/45/12
f 30/46/13 32/48/13 31/47/13
f 32/48/14 34/50/14 33/49/14
f 34/50/15 36/52/15 35/51/15
f 36/52/16 38/54/16 37/53/16
f 38/54/17 40/56/17 39/55/17
f 40/56/18 42/58/18 41/57/18
f 42/58/19 44/60/19 43/59/19
f 44/60/20 46/62/20 45/61/20
f 46/62/21 48/64/21 47/63/21
f 48/64/22 50/66/22 49/65/22
f 50/66/23 52/68/23 51/67/23
f 52/68/24 54/70/24 53/69/24
f 54/70/25 56/72/25 55/71/25
f 56/72/26 58/74/26 57/73/26
f 58/74/27 60/76/27 59/75/27
f 60/76/28 62/78/28 61/77/28
f 62/78/29 64/80/29 63/79/29
f 64/80/30 66/82/30 65/81/30
f 66/82/31 68/84/31 67/83/31
f 68/84/32 70/86/32 69/85/32
f 70/86/33 72/88/33 71/87/33
f 72/88/34 74/90/34 73/89/34
f 74/90/35 76/92/35 75/91/35
f 76/92/36 78/94/36 77/93/36
f 78/94/37 80/96/37 79/95/37
f 80/96/38 82/101/38 81/97/38
f 26/203/6 24/204/6 68/205/6
f 24/204/6 22/206/6 70/207/6
f 22/206/6 84/208/6 72/209/6
f 84/208/6 82/210/6 74/211/6
f 82/210/6 80/212/6 74/211/6
f 80/212/6 78/213/6 76/214/6
f 74/211/6 80/212/6 76/214/6
f 74/211/6 72/209/6 84/208/6
f 72/209/6 70/207/6 22/206/6
f 70/207/6 68/205/6 24/204/6
f 68/205/6 66/215/6 26/203/6
f 66/215/6 64/216/6 26/203/6
f 64/216/6 62/100/6 28/99/6
f 26/203/6 64/216/6 28/99/6
f 62/100/6 60/217/6 30/98/6
f 60/217/6 58/218/6 32/219/6
f 30/98/6 60/217/6 32/219/6
f 58/218/6 56/220/6 36/221/6
f 56/220/6 54/222/6 38/223/6
f 54/222/6 52/224/6 40/225/6
f 52/224/6 50/226/6 42/227/6
f 50/226/6 48/228/6 42/227/6
f 48/228/6 46/229/6 44/230/6
f 42/227/6 48/228/6 44/230/6
f 42/227/6 40/225/6 52/224/6
f 40/225/6 38/223/6 54/222/6
f 38/223/6 36/221/6 56/220/6
f 36/221/6 34/231/6 58/218/6
f 34/231/6 32/219/6 58/218/6
f 82/101/39 84/103/39 83/102/39
f 84/103/40 22/232/40 21/104/40
f 83/233/5 21/234/5 69/235/5
f 21/234/5 23/236/5 67/237/5
f 23/236/5 25/238/5 67/237/5
f 25/238/5 27/239/5 65/240/5
f 67/237/5 25/238/5 65/240/5
f 27/239/5 29/241/5 61/242/5
f 29/241/5 31/243/5 59/244/5
f 31/243/5 33/245/5 59/244/5
f 33/245/5 35/246/5 57/247/5
f 59/244/5 33/245/5 57/247/5
f 35/246/5 37/248/5 53/249/5
f 37/248/5 39/250/5 51/251/5
f 39/250/5 41/252/5 51/251/5
f 41/252/5 43/253/5 49/254/5
f 51/251/5 41/252/5 49/254/5
f 43/253/5 45/255/5 47/256/5
f 47/256/5 49/254/5 43/253/5
f 51/251/5 53/249/5 37/248/5
f 53/249/5 55/257/5 35/246/5
f 55/257/5 57/247/5 35/246/5
f 59/244/5 61/242/5 29/241/5
f 61/242/5 63/258/5 27/239/5
f 63/258/5 65/240/5 27/239/5
f 67/237/5 69/235/5 21/234/5
f 69/235/5 71/259/5 83/233/5
f 71/259/5 73/260/5 83/233/5
f 73/260/5 75/107/5 81/106/5
f 83/233/5 73/260/5 81/106/5
f 75/107/5 77/261/5 79/105/5
f 85/108/41 86/262/41 98/109/41
f 88/111/42 87/263/42 89/112/42
f 91/114/43 94/264/43 93/115/43
f 95/117/44 100/265/44 99/118/44
f 98/121/5 86/266/5 88/267/5
f 88/267/5 90/268/5 98/121/5
f 90/268/5 92/116/5 98/121/5
f 92/116/5 93/115/5 96/269/5
f 96/269/5 99/120/5 92/116/5
f 97/124/6 100/270/6 91/114/6
f 100/270/6 95/271/6 91/114/6
f 95/271/6 94/264/6 91/114/6
f 91/114/6 89/272/6 97/124/6
f 89/272/6 87/122/6 97/124/6
f 85/125/45 87/273/45 88/126/45
f 89/128/7 91/274/7 92/129/7
f 94/131/46 95/275/46 96/132/46
f 98/134/4 99/276/4 100/135/4
f 102/1/47 104/32/47 103/2/47
f 113/4/48 108/7/48 107/5/48
f 108/7/49 106/29/49 105/8/49
f 118/9/45 102/162/45 101/10/45
f 107/5/5 105/8/5 114/12/5
f 104/14/6 102/202/6 118/15/6
f 110/17/6 112/35/6 116/18/6
f 109/20/5 111/30/5 120/21/5
f 116/23/45 112/36/45 111/24/45
f 119/26/46 110/31/46 109/27/46
f 106/29/45 116/23/45 114/25/45
f 108/7/6 113/19/6 116/18/6
f 115/13/5 114/12/5 111/30/5
f 110/31/46 113/4/46 115/6/46
f 104/32/50 119/26/50 117/28/50
f 103/33/5 117/22/5 120/21/5
f 119/16/6 118/15/6 112/35/6
f 112/36/45 118/9/45 120/11/45
f 121/108/41 122/262/41 144/137/41
f 124/111/42 123/263/42 138/31/42
f 140/139/43 130/264/43 129/115/43
f 142/36/44 136/265/44 135/118/44
f 144/277/5 122/266/5 137/20/5
f 122/266/5 124/267/5 137/20/5
f 137/20/5 126/268/5 144/277/5
f 126/268/5 128/116/5 134/121/5
f 144/277/5 126/268/5 134/121/5
f 135/120/5 134/121/5 128/116/5
f 129/115/5 132/269/5 141/30/5
f 141/30/5 135/120/5 128/116/5
f 128/116/5 139/140/5 141/30/5
f 133/124/6 136/270/6 127/114/6
f 136/270/6 142/35/6 140/139/6
f 142/35/6 131/271/6 130/264/6
f 140/139/6 127/114/6 136/270/6
f 127/114/6 125/272/6 133/124/6
f 142/35/6 130/264/6 140/139/6
f 143/141/6 133/124/6 125/272/6
f 123/122/6 121/123/6 143/141/6
f 125/272/6 138/17/6 143/141/6
f 121/125/45 123/273/45 124/126/45
f 125/128/7 127/274/7 128/129/7
f 130/131/46 131/275/46 132/132/46
f 134/134/4 135/276/4 136/135/4
f 137/27/42 138/31/42 125/112/42
f 127/114/43 140/139/43 139/140/43
f 131/117/44 142/36/44 141/24/44
f 143/138/41 144/137/41 134/109/41
f 146/1/51 148/32/51 147/2/51
f 157/4/52 152/7/52 151/5/52
f 152/7/53 150/29/53 149/8/53
f 162/9/46 146/162/46 145/10/46
f 151/5/5 149/8/5 158/12/5
f 148/14/6 146/202/6 162/15/6
f 154/17/6 156/35/6 160/18/6
f 153/20/5 155/30/5 164/21/5
f 160/23/46 156/36/46 155/24/46
f 163/26/45 154/31/45 153/27/45
f 150/29/46 160/23/46 158/25/46
f 152/7/6 157/19/6 160/18/6
f 159/13/5 158/12/5 155/30/5
f 154/31/45 157/4/45 159/6/45
f 148/32/54 163/26/54 161/28/54
f 147/33/5 161/22/5 164/21/5
f 163/16/6 162/15/6 156/35/6
f 156/36/46 162/9/46 164/11/46
f 166/1/55 168/32/55 167/2/55
f 177/4/56 172/7/56 171/5/56
f 172/7/57 170/29/57 169/8/57
f 182/9/7 166/162/7 165/10/7
f 171/5/5 169/8/5 178/12/5
f 168/14/6 166/202/6 182/15/6
f 174/17/6 176/35/6 180/18/6
f 173/20/5 175/30/5 184/21/5
f 180/23/7 176/36/7 175/24/7
f 183/26/4 174/31/4 173/27/4
f 170/29/7 180/23/7 178/25/7
f 172/7/6 177/19/6 180/18/6
f 179/13/5 178/12/5 175/30/5
f 174/31/4 177/4/4 179/6/4
f 168/32/58 183/26/58 181/28/58
f 167/33/5 181/22/5 184/21/5
f 183/16/6 182/15/6 176/35/6
f 176/36/7 182/9/7 184/11/7
f 186/142/9 188/145/9 187/143/9
f 188/145/10 190/147/10 189/146/10
f 190/147/11 192/149/11 191/148/11
f 192/149/12 194/150/12 193/14/12
f 194/150/13 196/152/13 195/151/13
f 196/152/14 198/153/14 197/16/14
f 198/153/15 200/155/15 199/154/15
f 200/155/16 202/156/16 201/17/16
f 202/156/17 204/158/17 203/157/17
f 204/158/18 206/159/18 205/19/18
f 206/159/19 208/161/19 207/160/19
f 208/161/20 210/162/20 209/7/20
f 210/162/21 212/164/21 211/163/21
f 212/164/22 214/166/22 213/165/22
f 214/166/23 216/168/23 215/167/23
f 216/168/24 218/170/24 217/169/24
f 218/170/25 220/172/25 219/171/25
f 220/172/26 222/174/26 221/173/26
f 222/174/27 224/176/27 223/175/27
f 224/176/28 226/10/28 225/5/28
f 226/10/29 228/178/29 227/177/29
f 228/178/30 230/179/30 229/13/30
f 230/179/31 232/181/31 231/180/31
f 232/181/32 234/182/32 233/20/32
f 234/182/33 236/184/33 235/183/33
f 236/184/34 238/185/34 237/22/34
f 238/185/35 240/187/35 239/186/35
f 240/187/36 242/188/36 241/33/36
f 242/188/37 244/190/37 243/189/37
f 244/190/38 246/195/38 245/191/38
f 190/278/6 188/279/6 232/280/6
f 188/279/6 186/281/6 234/282/6
f 186/281/6 248/283/6 236/284/6
f 248/283/6 246/285/6 238/286/6
f 246/285/6 244/287/6 238/286/6
f 244/287/6 242/288/6 240/289/6
f 238/286/6 244/287/6 240/289/6
f 238/286/6 236/284/6 248/283/6
f 236/284/6 234/282/6 186/281/6
f 234/282/6 232/280/6 188/279/6
f 232/280/6 230/290/6 190/278/6
f 230/290/6 228/291/6 190/278/6
f 228/291/6 226/194/6 192/193/6
f 190/278/6 228/291/6 192/193/6
f 226/194/6 224/292/6 194/192/6
f 224/292/6 222/293/6 196/294/6
f 194/192/6 224/292/6 196/294/6
f 222/293/6 220/295/6 200/296/6
f 220/295/6 218/297/6 202/298/6
f 218/297/6 216/299/6 204/300/6
f 216/299/6 214/301/6 206/302/6
f 214/301/6 212/303/6 208/304/6
f 212/303/6 210/305/6 208/304/6
f 208/304/6 206/302/6 214/301/6
f 206/302/6 204/300/6 216/299/6
f 204/300/6 202/298/6 218/297/6
f 202/298/6 200/296/6 220/295/6
f 200/296/6 198/306/6 222/293/6
f 198/306/6 196/294/6 222/293/6
f 246/195/39 248/197/39 247/196/39
f 248/197/40 186/307/40 185/198/40
f 247/308/5 185/309/5 233/310/5
f 185/309/5 187/311/5 231/312/5
f 187/311/5 189/313/5 231/312/5
f 189/313/5 191/314/5 229/315/5
f 231/312/5 189/313/5 229/315/5
f 191/314/5 193/316/5 225/317/5
f 193/316/5 195/318/5 223/319/5
f 195/318/5 197/320/5 223/319/5
f 197/320/5 199/321/5 221/322/5
f 223/319/5 197/320/5 221/322/5
f 199/321/5 201/323/5 217/324/5
f 201/323/5 203/325/5 215/326/5
f 203/325/5 205/327/5 215/326/5
f 205/327/5 207/328/5 213/329/5
f 215/326/5 205/327/5 213/329/5
f 207/328/5 209/330/5 211/331/5
f 211/331/5 213/329/5 207/328/5
f 215/326/5 217/324/5 201/323/5
f 217/324/5 219/332/5 199/321/5
f 219/332/5 221/322/5 199/321/5
f 223/319/5 225/317/5 193/316/5
f 225/317/5 227/333/5 191/314/5
f 227/333/5 229/315/5 191/314/5
f 231/312/5 233/310/5 185/309/5
f 233/310/5 235/334/5 247/308/5
f 235/334/5 237/335/5 247/308/5
f 237/335/5 239/201/5 245/200/5
f 247/308/5 237/335/5 245/200/5
f 239/201/5 241/336/5 243/199/5
