# Blender 4.4.0
# www.blender.org
mtllib fence.mtl
o 立方体.005
v -0.100000 -2.500000 0.025000
v 0.000000 2.500000 0.025000
v -0.100000 -2.500000 -0.025000
v 0.000000 2.500000 -0.025000
v 0.100000 -2.500000 0.025000
v 0.100000 -2.500000 -0.025000
v -0.100000 2.262625 0.025000
v -0.100000 2.262625 -0.025000
v 0.100000 2.262625 -0.025000
v 0.100000 2.262625 0.025000
v -5.999999 -2.500000 0.500000
v -5.999999 -2.500000 -0.500000
v -5.999999 2.500000 0.500000
v -5.499999 -2.500000 0.500000
v -5.499999 2.500000 0.500000
v -5.499999 -2.500000 -0.500000
v -5.499999 2.500000 -0.500000
v -5.999999 2.500000 -0.500000
v 5.499999 -2.500000 0.500000
v 5.499999 -2.500000 -0.500000
v 5.499999 2.500000 0.500000
v 5.999999 -2.500000 0.500000
v 5.999999 2.500000 0.500000
v 5.999999 -2.500000 -0.500000
v 5.999999 2.500000 -0.500000
v 5.499999 2.500000 -0.500000
v -5.749999 -2.150000 0.050000
v -5.749999 -2.150000 -0.050000
v -5.749999 -1.850000 0.050000
v 5.749999 -2.150000 0.050000
v 5.749999 -1.850000 0.050000
v 5.749999 -2.150000 -0.050000
v 5.749999 -1.850000 -0.050000
v -5.749999 -1.850000 -0.050000
v -5.749999 1.500000 0.050000
v -5.749999 1.500000 -0.050000
v -5.749999 2.000000 0.050000
v 5.749999 1.500000 0.050000
v 5.749999 2.000000 0.050000
v 5.749999 1.500000 -0.050000
v 5.749999 2.000000 -0.050000
v -5.749999 2.000000 -0.050000
v -0.600000 -2.500000 0.025000
v -0.600000 -2.500000 -0.025000
v -0.400000 -2.500000 0.025000
v -0.600000 2.262625 0.025000
v -0.400000 -2.500000 -0.025000
v -0.400000 2.262625 0.025000
v -0.400000 2.262625 -0.025000
v -0.500000 2.500000 0.025000
v -0.500000 2.500000 -0.025000
v -0.600000 2.262625 -0.025000
v 0.400000 -2.500000 0.025000
v 0.400000 -2.500000 -0.025000
v 0.600000 -2.500000 0.025000
v 0.400000 2.262625 0.025000
v 0.600000 -2.500000 -0.025000
v 0.600000 2.262625 0.025000
v 0.600000 2.262625 -0.025000
v 0.500000 2.500000 0.025000
v 0.500000 2.500000 -0.025000
v 0.400000 2.262625 -0.025000
v 0.900000 -2.500000 0.025000
v 0.900000 -2.500000 -0.025000
v 1.100000 -2.500000 0.025000
v 0.900000 2.262625 0.025000
v 1.100000 -2.500000 -0.025000
v 1.100000 2.262625 0.025000
v 1.100000 2.262625 -0.025000
v 1.000000 2.500000 0.025000
v 1.000000 2.500000 -0.025000
v 0.900000 2.262625 -0.025000
v -1.100000 -2.500000 0.025000
v -1.100000 -2.500000 -0.025000
v -0.900000 -2.500000 0.025000
v -1.100000 2.262625 0.025000
v -0.900000 -2.500000 -0.025000
v -0.900000 2.262625 0.025000
v -0.900000 2.262625 -0.025000
v -1.000000 2.500000 0.025000
v -1.000000 2.500000 -0.025000
v -1.100000 2.262625 -0.025000
v 3.399999 -2.500000 0.025000
v 3.399999 -2.500000 -0.025000
v 3.599999 -2.500000 0.025000
v 3.399999 2.262625 0.025000
v 3.599999 -2.500000 -0.025000
v 3.599999 2.262625 0.025000
v 3.599999 2.262625 -0.025000
v 3.499999 2.500000 0.025000
v 3.499999 2.500000 -0.025000
v 3.399999 2.262625 -0.025000
v 2.899999 -2.500000 0.025000
v 2.899999 -2.500000 -0.025000
v 3.099999 -2.500000 0.025000
v 2.899999 2.262625 0.025000
v 3.099999 -2.500000 -0.025000
v 3.099999 2.262625 0.025000
v 3.099999 2.262625 -0.025000
v 3.000000 2.500000 0.025000
v 3.000000 2.500000 -0.025000
v 2.899999 2.262625 -0.025000
v 1.400000 -2.500000 0.025000
v 1.400000 -2.500000 -0.025000
v 1.600000 -2.500000 0.025000
v 1.400000 2.262625 0.025000
v 1.600000 -2.500000 -0.025000
v 1.600000 2.262625 0.025000
v 1.600000 2.262625 -0.025000
v 1.500000 2.500000 0.025000
v 1.500000 2.500000 -0.025000
v 1.400000 2.262625 -0.025000
v 1.900000 -2.500000 0.025000
v 1.900000 -2.500000 -0.025000
v 2.100000 -2.500000 0.025000
v 1.900000 2.262625 0.025000
v 2.100000 -2.500000 -0.025000
v 2.100000 2.262625 0.025000
v 2.100000 2.262625 -0.025000
v 2.000000 2.500000 0.025000
v 2.000000 2.500000 -0.025000
v 1.900000 2.262625 -0.025000
v 2.400000 -2.500000 0.025000
v 2.400000 -2.500000 -0.025000
v 2.600000 -2.500000 0.025000
v 2.400000 2.262625 0.025000
v 2.600000 -2.500000 -0.025000
v 2.600000 2.262625 0.025000
v 2.600000 2.262625 -0.025000
v 2.500000 2.500000 0.025000
v 2.500000 2.500000 -0.025000
v 2.400000 2.262625 -0.025000
v -1.600000 -2.500000 0.025000
v -1.600000 -2.500000 -0.025000
v -1.400000 -2.500000 0.025000
v -1.600000 2.262625 0.025000
v -1.400000 -2.500000 -0.025000
v -1.400000 2.262625 0.025000
v -1.400000 2.262625 -0.025000
v -1.500000 2.500000 0.025000
v -1.500000 2.500000 -0.025000
v -1.600000 2.262625 -0.025000
v -2.100000 -2.500000 0.025000
v -2.100000 -2.500000 -0.025000
v -1.900000 -2.500000 0.025000
v -2.100000 2.262625 0.025000
v -1.900000 -2.500000 -0.025000
v -1.900000 2.262625 0.025000
v -1.900000 2.262625 -0.025000
v -2.000000 2.500000 0.025000
v -2.000000 2.500000 -0.025000
v -2.100000 2.262625 -0.025000
v -3.599999 -2.500000 0.025000
v -3.599999 -2.500000 -0.025000
v -3.399999 -2.500000 0.025000
v -3.599999 2.262625 0.025000
v -3.399999 -2.500000 -0.025000
v -3.399999 2.262625 0.025000
v -3.399999 2.262625 -0.025000
v -3.499999 2.500000 0.025000
v -3.499999 2.500000 -0.025000
v -3.599999 2.262625 -0.025000
v -3.099999 -2.500000 0.025000
v -3.099999 -2.500000 -0.025000
v -2.899999 -2.500000 0.025000
v -3.099999 2.262625 0.025000
v -2.899999 -2.500000 -0.025000
v -2.899999 2.262625 0.025000
v -2.899999 2.262625 -0.025000
v -3.000000 2.500000 0.025000
v -3.000000 2.500000 -0.025000
v -3.099999 2.262625 -0.025000
v -2.600000 -2.500000 0.025000
v -2.600000 -2.500000 -0.025000
v -2.400000 -2.500000 0.025000
v -2.600000 2.262625 0.025000
v -2.400000 -2.500000 -0.025000
v -2.400000 2.262625 0.025000
v -2.400000 2.262625 -0.025000
v -2.500000 2.500000 0.025000
v -2.500000 2.500000 -0.025000
v -2.600000 2.262625 -0.025000
v -4.099999 -2.500000 0.025000
v -4.099999 -2.500000 -0.025000
v -3.899999 -2.500000 0.025000
v -4.099999 2.262625 0.025000
v -3.899999 -2.500000 -0.025000
v -3.899999 2.262625 0.025000
v -3.899999 2.262625 -0.025000
v -3.999999 2.500000 0.025000
v -3.999999 2.500000 -0.025000
v -4.099999 2.262625 -0.025000
v -4.599999 -2.500000 0.025000
v -4.599999 -2.500000 -0.025000
v -4.399999 -2.500000 0.025000
v -4.599999 2.262625 0.025000
v -4.399999 -2.500000 -0.025000
v -4.399999 2.262625 0.025000
v -4.399999 2.262625 -0.025000
v -4.499999 2.500000 0.025000
v -4.499999 2.500000 -0.025000
v -4.599999 2.262625 -0.025000
v -5.099999 -2.500000 0.025000
v -5.099999 -2.500000 -0.025000
v -4.899999 -2.500000 0.025000
v -5.099999 2.262625 0.025000
v -4.899999 -2.500000 -0.025000
v -4.899999 2.262625 0.025000
v -4.899999 2.262625 -0.025000
v -4.999999 2.500000 0.025000
v -4.999999 2.500000 -0.025000
v -5.099999 2.262625 -0.025000
v 3.899999 -2.500000 0.025000
v 3.899999 -2.500000 -0.025000
v 4.099999 -2.500000 0.025000
v 3.899999 2.262625 0.025000
v 4.099999 -2.500000 -0.025000
v 4.099999 2.262625 0.025000
v 4.099999 2.262625 -0.025000
v 3.999999 2.500000 0.025000
v 3.999999 2.500000 -0.025000
v 3.899999 2.262625 -0.025000
v 4.399999 -2.500000 0.025000
v 4.399999 -2.500000 -0.025000
v 4.599999 -2.500000 0.025000
v 4.399999 2.262625 0.025000
v 4.599999 -2.500000 -0.025000
v 4.599999 2.262625 0.025000
v 4.599999 2.262625 -0.025000
v 4.499999 2.500000 0.025000
v 4.499999 2.500000 -0.025000
v 4.399999 2.262625 -0.025000
v 4.899999 -2.500000 0.025000
v 4.899999 -2.500000 -0.025000
v 5.099999 -2.500000 0.025000
v 4.899999 2.262625 0.025000
v 5.099999 -2.500000 -0.025000
v 5.099999 2.262625 0.025000
v 5.099999 2.262625 -0.025000
v 4.999999 2.500000 0.025000
v 4.999999 2.500000 -0.025000
v 4.899999 2.262625 -0.025000
vn -0.9216 0.3882 -0.0000
vn -0.0000 -0.0000 -1.0000
vn 0.9216 0.3882 -0.0000
vn -0.0000 -0.0000 1.0000
vn -0.0000 -1.0000 -0.0000
vn 1.0000 -0.0000 -0.0000
vn -1.0000 -0.0000 -0.0000
vn -0.0000 1.0000 -0.0000
vt 0.142387 0.000470
vt 0.139018 0.071429
vt 0.139018 0.000470
vt 0.142387 0.142387
vt 0.139018 0.142387
vt 0.139018 0.213345
vt 0.142387 0.284304
vt 0.139018 0.284304
vt 0.071429 0.142387
vt 0.000470 0.213345
vt 0.000470 0.142387
vt 0.071429 0.284304
vt 0.071429 0.213345
vt 0.071429 0.071429
vt 0.071429 0.000470
vt 0.142387 0.071429
vt 0.142387 0.213345
vt 0.099913 0.871043
vt 0.070113 0.900843
vt 0.070113 0.871043
vt 0.070113 0.930643
vt 0.040314 0.960443
vt 0.040314 0.930643
vt 0.099913 0.960443
vt 0.099913 0.990243
vt 0.070113 0.990243
vt 0.070113 0.960443
vt 0.099913 0.900843
vt 0.099913 0.930643
vt 0.129713 0.930643
vt 0.129713 0.960443
vt 0.217905 0.871043
vt 0.188105 0.900843
vt 0.188105 0.871043
vt 0.188105 0.930643
vt 0.158305 0.960443
vt 0.158305 0.930643
vt 0.217905 0.960443
vt 0.217905 0.990243
vt 0.188105 0.990243
vt 0.188105 0.960443
vt 0.217905 0.900843
vt 0.217905 0.930643
vt 0.247704 0.930643
vt 0.247704 0.960443
vt 0.390242 0.871044
vt 0.362045 0.899240
vt 0.362045 0.871044
vt 0.362045 0.927437
vt 0.333848 0.955634
vt 0.333848 0.927437
vt 0.390242 0.955634
vt 0.390242 0.983831
vt 0.362045 0.983831
vt 0.362045 0.955634
vt 0.390242 0.899240
vt 0.390242 0.927437
vt 0.418439 0.927437
vt 0.418439 0.955634
vt 0.304875 0.871044
vt 0.276678 0.899240
vt 0.276678 0.871044
vt 0.276678 0.927437
vt 0.248481 0.955634
vt 0.248481 0.927437
vt 0.304875 0.955634
vt 0.304875 0.983831
vt 0.276678 0.983831
vt 0.276678 0.955634
vt 0.304875 0.899240
vt 0.304875 0.927437
vt 0.333072 0.927437
vt 0.333072 0.955634
vt 0.214286 0.142387
vt 0.143327 0.213345
vt 0.143327 0.142387
vt 0.281875 0.000470
vt 0.214286 0.071429
vt 0.214286 0.000470
vt 0.281875 0.213345
vt 0.214286 0.284304
vt 0.214286 0.213345
vt 0.281875 0.284304
vt 0.281875 0.142387
vt 0.285244 0.284304
vt 0.285244 0.142387
vt 0.285244 0.213345
vt 0.285244 0.000470
vt 0.285244 0.071429
vt 0.281875 0.071429
vt 0.500000 0.711935
vt 0.429042 0.782893
vt 0.429042 0.711935
vt 0.567590 0.570018
vt 0.500000 0.640977
vt 0.500000 0.570018
vt 0.567590 0.782893
vt 0.500000 0.853852
vt 0.500000 0.782893
vt 0.567590 0.853852
vt 0.567590 0.711935
vt 0.570958 0.853852
vt 0.570958 0.711935
vt 0.570958 0.782893
vt 0.570958 0.570018
vt 0.570958 0.640977
vt 0.567590 0.640977
vt 0.642857 0.711935
vt 0.571899 0.782893
vt 0.571899 0.711935
vt 0.710447 0.570018
vt 0.642857 0.640977
vt 0.642857 0.570018
vt 0.710447 0.782893
vt 0.642857 0.853852
vt 0.642857 0.782893
vt 0.710447 0.853852
vt 0.710447 0.711935
vt 0.713816 0.853852
vt 0.713816 0.711935
vt 0.713816 0.782893
vt 0.713816 0.570018
vt 0.713816 0.640977
vt 0.710447 0.640977
vt 0.357143 0.142387
vt 0.286184 0.213345
vt 0.286184 0.142387
vt 0.424733 0.000470
vt 0.357143 0.071429
vt 0.357143 0.000470
vt 0.424733 0.213345
vt 0.357143 0.284304
vt 0.357143 0.213345
vt 0.424733 0.284304
vt 0.424733 0.142387
vt 0.428101 0.284304
vt 0.428101 0.142387
vt 0.428101 0.213345
vt 0.428101 0.000470
vt 0.428101 0.071429
vt 0.424733 0.071429
vt 0.785714 0.142387
vt 0.714756 0.213345
vt 0.714756 0.142387
vt 0.853304 0.000470
vt 0.785714 0.071429
vt 0.785714 0.000470
vt 0.853304 0.213345
vt 0.785714 0.284304
vt 0.785714 0.213345
vt 0.853304 0.284304
vt 0.853304 0.142387
vt 0.856673 0.284304
vt 0.856673 0.142387
vt 0.856673 0.213345
vt 0.856673 0.000470
vt 0.856673 0.071429
vt 0.853304 0.071429
vt 0.785714 0.427161
vt 0.714756 0.498119
vt 0.714756 0.427161
vt 0.853304 0.285244
vt 0.785714 0.356203
vt 0.785714 0.285244
vt 0.853304 0.498119
vt 0.785714 0.569078
vt 0.785714 0.498119
vt 0.853304 0.569078
vt 0.853304 0.427161
vt 0.856673 0.569078
vt 0.856673 0.427161
vt 0.856673 0.498119
vt 0.856673 0.285244
vt 0.856673 0.356203
vt 0.853304 0.356203
vt 0.071429 0.427161
vt 0.000470 0.498119
vt 0.000470 0.427161
vt 0.139018 0.285244
vt 0.071429 0.356203
vt 0.071429 0.285244
vt 0.139018 0.498119
vt 0.071429 0.569078
vt 0.071429 0.498119
vt 0.139018 0.569078
vt 0.139018 0.427161
vt 0.142387 0.569078
vt 0.142387 0.427161
vt 0.142387 0.498119
vt 0.142387 0.285244
vt 0.142387 0.356203
vt 0.139018 0.356203
vt 0.214286 0.427161
vt 0.143327 0.498119
vt 0.143327 0.427161
vt 0.281875 0.285244
vt 0.214286 0.356203
vt 0.214286 0.285244
vt 0.281875 0.498119
vt 0.214286 0.569078
vt 0.214286 0.498119
vt 0.281875 0.569078
vt 0.281875 0.427161
vt 0.285244 0.569078
vt 0.285244 0.427161
vt 0.285244 0.498119
vt 0.285244 0.285244
vt 0.285244 0.356203
vt 0.281875 0.356203
vt 0.424733 0.285244
vt 0.357143 0.356203
vt 0.357143 0.285244
vt 0.357143 0.427161
vt 0.286184 0.498119
vt 0.286184 0.427161
vt 0.357143 0.498119
vt 0.424733 0.498119
vt 0.357143 0.569078
vt 0.424733 0.569078
vt 0.424733 0.427161
vt 0.428101 0.569078
vt 0.428101 0.427161
vt 0.428101 0.498119
vt 0.428101 0.285244
vt 0.428101 0.356203
vt 0.424733 0.356203
vt 0.785714 0.711935
vt 0.714756 0.782893
vt 0.714756 0.711935
vt 0.853304 0.570018
vt 0.785714 0.640977
vt 0.785714 0.570018
vt 0.853304 0.782893
vt 0.785714 0.853852
vt 0.785714 0.782893
vt 0.853304 0.853852
vt 0.853304 0.711935
vt 0.856673 0.853852
vt 0.856673 0.711935
vt 0.856673 0.782893
vt 0.856673 0.570018
vt 0.856673 0.640977
vt 0.853304 0.640977
vt 0.928571 0.142387
vt 0.857613 0.213345
vt 0.857613 0.142387
vt 0.996161 0.000470
vt 0.928571 0.071429
vt 0.928571 0.000470
vt 0.996161 0.213345
vt 0.928571 0.284304
vt 0.928571 0.213345
vt 0.996161 0.284304
vt 0.996161 0.142387
vt 0.999530 0.284304
vt 0.999530 0.142387
vt 0.999530 0.213345
vt 0.999530 0.000470
vt 0.999530 0.071429
vt 0.996161 0.071429
vt 0.500000 0.142387
vt 0.429042 0.213345
vt 0.429042 0.142387
vt 0.567590 0.000470
vt 0.500000 0.071429
vt 0.500000 0.000470
vt 0.567590 0.213345
vt 0.500000 0.284304
vt 0.500000 0.213345
vt 0.567590 0.284304
vt 0.567590 0.142387
vt 0.570958 0.284304
vt 0.570958 0.142387
vt 0.570958 0.213345
vt 0.570958 0.000470
vt 0.570958 0.071429
vt 0.567590 0.071429
vt 0.500000 0.427161
vt 0.429042 0.498119
vt 0.429042 0.427161
vt 0.567590 0.285244
vt 0.500000 0.356203
vt 0.500000 0.285244
vt 0.567590 0.498119
vt 0.500000 0.569078
vt 0.500000 0.498119
vt 0.567590 0.569078
vt 0.567590 0.427161
vt 0.570958 0.569078
vt 0.570958 0.427161
vt 0.570958 0.498119
vt 0.570958 0.285244
vt 0.570958 0.356203
vt 0.567590 0.356203
vt 0.710447 0.000470
vt 0.642857 0.071429
vt 0.642857 0.000470
vt 0.642857 0.142387
vt 0.571899 0.213345
vt 0.571899 0.142387
vt 0.642857 0.213345
vt 0.710447 0.213345
vt 0.642857 0.284304
vt 0.710447 0.284304
vt 0.710447 0.142387
vt 0.713816 0.284304
vt 0.713816 0.142387
vt 0.713816 0.213345
vt 0.713816 0.000470
vt 0.713816 0.071429
vt 0.710447 0.071429
vt 0.710447 0.285244
vt 0.642857 0.356203
vt 0.642857 0.285244
vt 0.642857 0.427161
vt 0.571899 0.498119
vt 0.571899 0.427161
vt 0.642857 0.498119
vt 0.710447 0.498119
vt 0.642857 0.569078
vt 0.710447 0.569078
vt 0.710447 0.427161
vt 0.713816 0.569078
vt 0.713816 0.427161
vt 0.713816 0.498119
vt 0.713816 0.285244
vt 0.713816 0.356203
vt 0.710447 0.356203
vt 0.071429 0.711935
vt 0.000470 0.782893
vt 0.000470 0.711935
vt 0.139018 0.570018
vt 0.071429 0.640977
vt 0.071429 0.570018
vt 0.139018 0.782893
vt 0.071429 0.853852
vt 0.071429 0.782893
vt 0.139018 0.853852
vt 0.139018 0.711935
vt 0.142387 0.853852
vt 0.142387 0.711935
vt 0.142387 0.782893
vt 0.142387 0.570018
vt 0.142387 0.640977
vt 0.139018 0.640977
vt 0.214286 0.711935
vt 0.143327 0.782893
vt 0.143327 0.711935
vt 0.281875 0.570018
vt 0.214286 0.640977
vt 0.214286 0.570018
vt 0.281875 0.782893
vt 0.214286 0.853852
vt 0.214286 0.782893
vt 0.281875 0.853852
vt 0.281875 0.711935
vt 0.285244 0.853852
vt 0.285244 0.711935
vt 0.285244 0.782893
vt 0.285244 0.570018
vt 0.285244 0.640977
vt 0.281875 0.640977
vt 0.424733 0.570018
vt 0.357143 0.640977
vt 0.357143 0.570018
vt 0.357143 0.711935
vt 0.286184 0.782893
vt 0.286184 0.711935
vt 0.357143 0.782893
vt 0.424733 0.782893
vt 0.357143 0.853852
vt 0.424733 0.853852
vt 0.424733 0.711935
vt 0.428101 0.853852
vt 0.428101 0.711935
vt 0.428101 0.782893
vt 0.428101 0.570018
vt 0.428101 0.640977
vt 0.424733 0.640977
vt 0.928571 0.427161
vt 0.857613 0.498119
vt 0.857613 0.427161
vt 0.996161 0.285244
vt 0.928571 0.356203
vt 0.928571 0.285244
vt 0.996161 0.498119
vt 0.928571 0.569078
vt 0.928571 0.498119
vt 0.996161 0.569078
vt 0.996161 0.427161
vt 0.999530 0.569078
vt 0.999530 0.427161
vt 0.999530 0.498119
vt 0.999530 0.285244
vt 0.999530 0.356203
vt 0.996161 0.356203
vt 0.928571 0.711935
vt 0.857613 0.782893
vt 0.857613 0.711935
vt 0.996161 0.570018
vt 0.928571 0.640977
vt 0.928571 0.570018
vt 0.996161 0.782893
vt 0.928571 0.853852
vt 0.928571 0.782893
vt 0.996161 0.853852
vt 0.996161 0.711935
vt 0.999530 0.853852
vt 0.999530 0.711935
vt 0.999530 0.782893
vt 0.999530 0.570018
vt 0.999530 0.640977
vt 0.996161 0.640977
s 0
usemtl マテリアル.010
f 2/1/1 8/2/1 7/3/1
f 8/2/2 4/4/2 9/5/2
f 4/4/3 10/6/3 9/5/3
f 10/6/4 2/7/4 7/8/4
f 6/9/5 1/10/5 3/11/5
f 10/6/4 1/12/4 5/13/4
f 9/5/6 5/13/6 6/9/6
f 8/2/2 6/9/2 3/14/2
f 7/3/7 3/14/7 1/15/7
f 2/1/1 4/16/1 8/2/1
f 4/4/3 2/17/3 10/6/3
f 6/9/5 5/13/5 1/10/5
f 10/6/4 7/8/4 1/12/4
f 9/5/6 10/6/6 5/13/6
f 8/2/2 9/5/2 6/9/2
f 7/3/7 8/2/7 3/14/7
f 13/18/7 12/19/7 11/20/7
f 16/21/5 11/22/5 12/23/5
f 15/24/4 13/25/4 11/26/4
f 15/24/4 11/26/4 14/27/4
f 16/21/5 14/27/5 11/22/5
f 18/28/2 16/21/2 12/19/2
f 17/29/6 14/27/6 16/21/6
f 18/28/2 17/29/2 16/21/2
f 13/18/7 18/28/7 12/19/7
f 18/30/8 13/31/8 15/24/8
f 18/30/8 15/24/8 17/29/8
f 17/29/6 15/24/6 14/27/6
f 21/32/7 20/33/7 19/34/7
f 24/35/5 19/36/5 20/37/5
f 23/38/4 21/39/4 19/40/4
f 23/38/4 19/40/4 22/41/4
f 24/35/5 22/41/5 19/36/5
f 26/42/2 24/35/2 20/33/2
f 25/43/6 22/41/6 24/35/6
f 26/42/2 25/43/2 24/35/2
f 21/32/7 26/42/7 20/33/7
f 26/44/8 21/45/8 23/38/8
f 26/44/8 23/38/8 25/43/8
f 25/43/6 23/38/6 22/41/6
f 29/46/7 28/47/7 27/48/7
f 32/49/5 27/50/5 28/51/5
f 31/52/4 29/53/4 27/54/4
f 31/52/4 27/54/4 30/55/4
f 32/49/5 30/55/5 27/50/5
f 34/56/2 32/49/2 28/47/2
f 33/57/6 30/55/6 32/49/6
f 34/56/2 33/57/2 32/49/2
f 29/46/7 34/56/7 28/47/7
f 34/58/8 29/59/8 31/52/8
f 34/58/8 31/52/8 33/57/8
f 33/57/6 31/52/6 30/55/6
f 37/60/7 36/61/7 35/62/7
f 40/63/5 35/64/5 36/65/5
f 39/66/4 37/67/4 35/68/4
f 39/66/4 35/68/4 38/69/4
f 40/63/5 38/69/5 35/64/5
f 42/70/2 40/63/2 36/61/2
f 41/71/6 38/69/6 40/63/6
f 42/70/2 41/71/2 40/63/2
f 37/60/7 42/70/7 36/61/7
f 42/72/8 37/73/8 39/66/8
f 42/72/8 39/66/8 41/71/8
f 41/71/6 39/66/6 38/69/6
f 47/74/5 43/75/5 44/76/5
f 46/77/7 44/78/7 43/79/7
f 48/80/4 43/81/4 45/82/4
f 47/74/5 45/82/5 43/75/5
f 48/80/4 46/83/4 43/81/4
f 49/84/6 48/80/6 45/82/6
f 48/80/4 50/85/4 46/83/4
f 51/86/3 48/80/3 49/84/3
f 51/86/3 50/87/3 48/80/3
f 50/88/1 51/89/1 52/90/1
f 52/90/2 51/86/2 49/84/2
f 52/90/2 47/74/2 44/78/2
f 46/77/7 52/90/7 44/78/7
f 52/90/2 49/84/2 47/74/2
f 50/88/1 52/90/1 46/77/1
f 49/84/6 45/82/6 47/74/6
f 57/91/5 53/92/5 54/93/5
f 56/94/7 54/95/7 53/96/7
f 58/97/4 53/98/4 55/99/4
f 57/91/5 55/99/5 53/92/5
f 58/97/4 56/100/4 53/98/4
f 59/101/6 58/97/6 55/99/6
f 58/97/4 60/102/4 56/100/4
f 61/103/3 58/97/3 59/101/3
f 61/103/3 60/104/3 58/97/3
f 60/105/1 61/106/1 62/107/1
f 62/107/2 61/103/2 59/101/2
f 62/107/2 57/91/2 54/95/2
f 56/94/7 62/107/7 54/95/7
f 62/107/2 59/101/2 57/91/2
f 60/105/1 62/107/1 56/94/1
f 59/101/6 55/99/6 57/91/6
f 67/108/5 63/109/5 64/110/5
f 66/111/7 64/112/7 63/113/7
f 68/114/4 63/115/4 65/116/4
f 67/108/5 65/116/5 63/109/5
f 68/114/4 66/117/4 63/115/4
f 69/118/6 68/114/6 65/116/6
f 68/114/4 70/119/4 66/117/4
f 71/120/3 68/114/3 69/118/3
f 71/120/3 70/121/3 68/114/3
f 70/122/1 71/123/1 72/124/1
f 72/124/2 71/120/2 69/118/2
f 72/124/2 67/108/2 64/112/2
f 66/111/7 72/124/7 64/112/7
f 72/124/2 69/118/2 67/108/2
f 70/122/1 72/124/1 66/111/1
f 69/118/6 65/116/6 67/108/6
f 77/125/5 73/126/5 74/127/5
f 76/128/7 74/129/7 73/130/7
f 78/131/4 73/132/4 75/133/4
f 77/125/5 75/133/5 73/126/5
f 78/131/4 76/134/4 73/132/4
f 79/135/6 78/131/6 75/133/6
f 78/131/4 80/136/4 76/134/4
f 81/137/3 78/131/3 79/135/3
f 81/137/3 80/138/3 78/131/3
f 80/139/1 81/140/1 82/141/1
f 82/141/2 81/137/2 79/135/2
f 82/141/2 77/125/2 74/129/2
f 76/128/7 82/141/7 74/129/7
f 82/141/2 79/135/2 77/125/2
f 80/139/1 82/141/1 76/128/1
f 79/135/6 75/133/6 77/125/6
f 87/142/5 83/143/5 84/144/5
f 86/145/7 84/146/7 83/147/7
f 88/148/4 83/149/4 85/150/4
f 87/142/5 85/150/5 83/143/5
f 88/148/4 86/151/4 83/149/4
f 89/152/6 88/148/6 85/150/6
f 88/148/4 90/153/4 86/151/4
f 91/154/3 88/148/3 89/152/3
f 91/154/3 90/155/3 88/148/3
f 90/156/1 91/157/1 92/158/1
f 92/158/2 91/154/2 89/152/2
f 92/158/2 87/142/2 84/146/2
f 86/145/7 92/158/7 84/146/7
f 92/158/2 89/152/2 87/142/2
f 90/156/1 92/158/1 86/145/1
f 89/152/6 85/150/6 87/142/6
f 97/159/5 93/160/5 94/161/5
f 96/162/7 94/163/7 93/164/7
f 98/165/4 93/166/4 95/167/4
f 97/159/5 95/167/5 93/160/5
f 98/165/4 96/168/4 93/166/4
f 99/169/6 98/165/6 95/167/6
f 98/165/4 100/170/4 96/168/4
f 101/171/3 98/165/3 99/169/3
f 101/171/3 100/172/3 98/165/3
f 100/173/1 101/174/1 102/175/1
f 102/175/2 101/171/2 99/169/2
f 102/175/2 97/159/2 94/163/2
f 96/162/7 102/175/7 94/163/7
f 102/175/2 99/169/2 97/159/2
f 100/173/1 102/175/1 96/162/1
f 99/169/6 95/167/6 97/159/6
f 107/176/5 103/177/5 104/178/5
f 106/179/7 104/180/7 103/181/7
f 108/182/4 103/183/4 105/184/4
f 107/176/5 105/184/5 103/177/5
f 108/182/4 106/185/4 103/183/4
f 109/186/6 108/182/6 105/184/6
f 108/182/4 110/187/4 106/185/4
f 111/188/3 108/182/3 109/186/3
f 111/188/3 110/189/3 108/182/3
f 110/190/1 111/191/1 112/192/1
f 112/192/2 111/188/2 109/186/2
f 112/192/2 107/176/2 104/180/2
f 106/179/7 112/192/7 104/180/7
f 112/192/2 109/186/2 107/176/2
f 110/190/1 112/192/1 106/179/1
f 109/186/6 105/184/6 107/176/6
f 117/193/5 113/194/5 114/195/5
f 116/196/7 114/197/7 113/198/7
f 118/199/4 113/200/4 115/201/4
f 117/193/5 115/201/5 113/194/5
f 118/199/4 116/202/4 113/200/4
f 119/203/6 118/199/6 115/201/6
f 118/199/4 120/204/4 116/202/4
f 121/205/3 118/199/3 119/203/3
f 121/205/3 120/206/3 118/199/3
f 120/207/1 121/208/1 122/209/1
f 122/209/2 121/205/2 119/203/2
f 122/209/2 117/193/2 114/197/2
f 116/196/7 122/209/7 114/197/7
f 122/209/2 119/203/2 117/193/2
f 120/207/1 122/209/1 116/196/1
f 119/203/6 115/201/6 117/193/6
f 126/210/7 124/211/7 123/212/7
f 127/213/5 123/214/5 124/215/5
f 127/213/5 125/216/5 123/214/5
f 128/217/4 123/218/4 125/216/4
f 128/217/4 126/219/4 123/218/4
f 129/220/6 128/217/6 125/216/6
f 128/217/4 130/221/4 126/219/4
f 131/222/3 128/217/3 129/220/3
f 131/222/3 130/223/3 128/217/3
f 130/224/1 131/225/1 132/226/1
f 132/226/2 131/222/2 129/220/2
f 126/210/7 132/226/7 124/211/7
f 132/226/2 127/213/2 124/211/2
f 132/226/2 129/220/2 127/213/2
f 130/224/1 132/226/1 126/210/1
f 129/220/6 125/216/6 127/213/6
f 137/227/5 133/228/5 134/229/5
f 136/230/7 134/231/7 133/232/7
f 138/233/4 133/234/4 135/235/4
f 137/227/5 135/235/5 133/228/5
f 138/233/4 136/236/4 133/234/4
f 139/237/6 138/233/6 135/235/6
f 138/233/4 140/238/4 136/236/4
f 141/239/3 138/233/3 139/237/3
f 141/239/3 140/240/3 138/233/3
f 140/241/1 141/242/1 142/243/1
f 142/243/2 141/239/2 139/237/2
f 142/243/2 137/227/2 134/231/2
f 136/230/7 142/243/7 134/231/7
f 142/243/2 139/237/2 137/227/2
f 140/241/1 142/243/1 136/230/1
f 139/237/6 135/235/6 137/227/6
f 147/244/5 143/245/5 144/246/5
f 146/247/7 144/248/7 143/249/7
f 148/250/4 143/251/4 145/252/4
f 147/244/5 145/252/5 143/245/5
f 148/250/4 146/253/4 143/251/4
f 149/254/6 148/250/6 145/252/6
f 148/250/4 150/255/4 146/253/4
f 151/256/3 148/250/3 149/254/3
f 151/256/3 150/257/3 148/250/3
f 150/258/1 151/259/1 152/260/1
f 152/260/2 151/256/2 149/254/2
f 152/260/2 147/244/2 144/248/2
f 146/247/7 152/260/7 144/248/7
f 152/260/2 149/254/2 147/244/2
f 150/258/1 152/260/1 146/247/1
f 149/254/6 145/252/6 147/244/6
f 157/261/5 153/262/5 154/263/5
f 156/264/7 154/265/7 153/266/7
f 158/267/4 153/268/4 155/269/4
f 157/261/5 155/269/5 153/262/5
f 158/267/4 156/270/4 153/268/4
f 159/271/6 158/267/6 155/269/6
f 158/267/4 160/272/4 156/270/4
f 161/273/3 158/267/3 159/271/3
f 161/273/3 160/274/3 158/267/3
f 160/275/1 161/276/1 162/277/1
f 162/277/2 161/273/2 159/271/2
f 162/277/2 157/261/2 154/265/2
f 156/264/7 162/277/7 154/265/7
f 162/277/2 159/271/2 157/261/2
f 160/275/1 162/277/1 156/264/1
f 159/271/6 155/269/6 157/261/6
f 167/278/5 163/279/5 164/280/5
f 166/281/7 164/282/7 163/283/7
f 168/284/4 163/285/4 165/286/4
f 167/278/5 165/286/5 163/279/5
f 168/284/4 166/287/4 163/285/4
f 169/288/6 168/284/6 165/286/6
f 168/284/4 170/289/4 166/287/4
f 171/290/3 168/284/3 169/288/3
f 171/290/3 170/291/3 168/284/3
f 170/292/1 171/293/1 172/294/1
f 172/294/2 171/290/2 169/288/2
f 172/294/2 167/278/2 164/282/2
f 166/281/7 172/294/7 164/282/7
f 172/294/2 169/288/2 167/278/2
f 170/292/1 172/294/1 166/281/1
f 169/288/6 165/286/6 167/278/6
f 176/295/7 174/296/7 173/297/7
f 177/298/5 173/299/5 174/300/5
f 177/298/5 175/301/5 173/299/5
f 178/302/4 173/303/4 175/301/4
f 178/302/4 176/304/4 173/303/4
f 179/305/6 178/302/6 175/301/6
f 178/302/4 180/306/4 176/304/4
f 181/307/3 178/302/3 179/305/3
f 181/307/3 180/308/3 178/302/3
f 180/309/1 181/310/1 182/311/1
f 182/311/2 181/307/2 179/305/2
f 176/295/7 182/311/7 174/296/7
f 182/311/2 177/298/2 174/296/2
f 182/311/2 179/305/2 177/298/2
f 180/309/1 182/311/1 176/295/1
f 179/305/6 175/301/6 177/298/6
f 186/312/7 184/313/7 183/314/7
f 187/315/5 183/316/5 184/317/5
f 187/315/5 185/318/5 183/316/5
f 188/319/4 183/320/4 185/318/4
f 188/319/4 186/321/4 183/320/4
f 189/322/6 188/319/6 185/318/6
f 188/319/4 190/323/4 186/321/4
f 191/324/3 188/319/3 189/322/3
f 191/324/3 190/325/3 188/319/3
f 190/326/1 191/327/1 192/328/1
f 192/328/2 191/324/2 189/322/2
f 186/312/7 192/328/7 184/313/7
f 192/328/2 187/315/2 184/313/2
f 192/328/2 189/322/2 187/315/2
f 190/326/1 192/328/1 186/312/1
f 189/322/6 185/318/6 187/315/6
f 197/329/5 193/330/5 194/331/5
f 196/332/7 194/333/7 193/334/7
f 198/335/4 193/336/4 195/337/4
f 197/329/5 195/337/5 193/330/5
f 198/335/4 196/338/4 193/336/4
f 199/339/6 198/335/6 195/337/6
f 198/335/4 200/340/4 196/338/4
f 201/341/3 198/335/3 199/339/3
f 201/341/3 200/342/3 198/335/3
f 200/343/1 201/344/1 202/345/1
f 202/345/2 201/341/2 199/339/2
f 202/345/2 197/329/2 194/333/2
f 196/332/7 202/345/7 194/333/7
f 202/345/2 199/339/2 197/329/2
f 200/343/1 202/345/1 196/332/1
f 199/339/6 195/337/6 197/329/6
f 207/346/5 203/347/5 204/348/5
f 206/349/7 204/350/7 203/351/7
f 208/352/4 203/353/4 205/354/4
f 207/346/5 205/354/5 203/347/5
f 208/352/4 206/355/4 203/353/4
f 209/356/6 208/352/6 205/354/6
f 208/352/4 210/357/4 206/355/4
f 211/358/3 208/352/3 209/356/3
f 211/358/3 210/359/3 208/352/3
f 210/360/1 211/361/1 212/362/1
f 212/362/2 211/358/2 209/356/2
f 212/362/2 207/346/2 204/350/2
f 206/349/7 212/362/7 204/350/7
f 212/362/2 209/356/2 207/346/2
f 210/360/1 212/362/1 206/349/1
f 209/356/6 205/354/6 207/346/6
f 216/363/7 214/364/7 213/365/7
f 217/366/5 213/367/5 214/368/5
f 217/366/5 215/369/5 213/367/5
f 218/370/4 213/371/4 215/369/4
f 218/370/4 216/372/4 213/371/4
f 219/373/6 218/370/6 215/369/6
f 218/370/4 220/374/4 216/372/4
f 221/375/3 218/370/3 219/373/3
f 221/375/3 220/376/3 218/370/3
f 220/377/1 221/378/1 222/379/1
f 222/379/2 221/375/2 219/373/2
f 216/363/7 222/379/7 214/364/7
f 222/379/2 217/366/2 214/364/2
f 222/379/2 219/373/2 217/366/2
f 220/377/1 222/379/1 216/363/1
f 219/373/6 215/369/6 217/366/6
f 227/380/5 223/381/5 224/382/5
f 226/383/7 224/384/7 223/385/7
f 228/386/4 223/387/4 225/388/4
f 227/380/5 225/388/5 223/381/5
f 228/386/4 226/389/4 223/387/4
f 229/390/6 228/386/6 225/388/6
f 228/386/4 230/391/4 226/389/4
f 231/392/3 228/386/3 229/390/3
f 231/392/3 230/393/3 228/386/3
f 230/394/1 231/395/1 232/396/1
f 232/396/2 231/392/2 229/390/2
f 232/396/2 227/380/2 224/384/2
f 226/383/7 232/396/7 224/384/7
f 232/396/2 229/390/2 227/380/2
f 230/394/1 232/396/1 226/383/1
f 229/390/6 225/388/6 227/380/6
f 237/397/5 233/398/5 234/399/5
f 236/400/7 234/401/7 233/402/7
f 238/403/4 233/404/4 235/405/4
f 237/397/5 235/405/5 233/398/5
f 238/403/4 236/406/4 233/404/4
f 239/407/6 238/403/6 235/405/6
f 238/403/4 240/408/4 236/406/4
f 241/409/3 238/403/3 239/407/3
f 241/409/3 240/410/3 238/403/3
f 240/411/1 241/412/1 242/413/1
f 242/413/2 241/409/2 239/407/2
f 242/413/2 237/397/2 234/401/2
f 236/400/7 242/413/7 234/401/7
f 242/413/2 239/407/2 237/397/2
f 240/411/1 242/413/1 236/400/1
f 239/407/6 235/405/6 237/397/6
