# Blender 4.4.0
# www.blender.org
mtllib immobileEnemy.mtl
o 立方体.004
v -0.097692 0.902308 1.400000
v -0.200000 0.902308 1.297692
v -0.097692 0.800000 1.297692
v -0.170035 0.902308 1.370034
v -0.156760 0.843241 1.356759
v -0.170035 0.829965 1.297692
v -0.097692 0.829965 1.370034
v -0.097692 1.097692 1.400000
v -0.097692 1.200000 1.297692
v -0.200000 1.097692 1.297692
v -0.097692 1.170035 1.370034
v -0.156760 1.156760 1.356759
v -0.170035 1.170035 1.297692
v -0.170035 1.097692 1.370034
v -0.097692 0.800000 0.702308
v -0.200000 0.902308 0.702308
v -0.097692 0.902308 0.600000
v -0.170035 0.829965 0.702308
v -0.156760 0.843240 0.643240
v -0.170035 0.902308 0.629965
v -0.097692 0.829965 0.629965
v -0.200000 1.097692 0.702308
v -0.097692 1.200000 0.702308
v -0.097692 1.097692 0.600000
v -0.170035 1.170035 0.702308
v -0.156760 1.156760 0.643240
v -0.097692 1.170035 0.629965
v -0.170035 1.097692 0.629965
v 0.097692 0.800000 1.297692
v 0.200000 0.902308 1.297692
v 0.097692 0.902308 1.400000
v 0.170035 0.829965 1.297692
v 0.156760 0.843241 1.356759
v 0.170035 0.902308 1.370034
v 0.097692 0.829965 1.370034
v 0.097692 1.097692 1.400000
v 0.200000 1.097692 1.297692
v 0.097692 1.200000 1.297692
v 0.170035 1.097692 1.370034
v 0.156760 1.156760 1.356759
v 0.170035 1.170035 1.297692
v 0.097692 1.170035 1.370034
v 0.097692 0.800000 0.702308
v 0.097692 0.902308 0.600000
v 0.200000 0.902308 0.702308
v 0.097692 0.829965 0.629965
v 0.156760 0.843240 0.643240
v 0.170035 0.902308 0.629965
v 0.170035 0.829965 0.702308
v 0.200000 1.097692 0.702308
v 0.097692 1.097692 0.600000
v 0.097692 1.200000 0.702308
v 0.170035 1.097692 0.629965
v 0.156760 1.156760 0.643240
v 0.097692 1.170035 0.629965
v 0.170035 1.170035 0.702308
v -0.897692 -1.897692 1.000000
v -1.000000 -1.897692 0.897692
v -0.897692 -2.000000 0.897692
v -0.970035 -1.897692 0.970035
v -0.956760 -1.956759 0.956760
v -0.970035 -1.970035 0.897692
v -0.897692 -1.970035 0.970035
v -0.897692 -1.302308 1.000000
v -0.897692 -1.200000 0.897692
v -1.000000 -1.302308 0.897692
v -0.897692 -1.229965 0.970035
v -0.956760 -1.243240 0.956760
v -0.970035 -1.229965 0.897692
v -0.970035 -1.302308 0.970035
v -0.897692 -2.000000 -0.897692
v -1.000000 -1.897692 -0.897692
v -0.897692 -1.897692 -1.000000
v -0.970035 -1.970035 -0.897692
v -0.956760 -1.956760 -0.956759
v -0.970035 -1.897692 -0.970035
v -0.897692 -1.970035 -0.970035
v -1.000000 -1.302308 -0.897692
v -0.897692 -1.200000 -0.897692
v -0.897692 -1.302308 -1.000000
v -0.970035 -1.229965 -0.897692
v -0.956760 -1.243241 -0.956759
v -0.897692 -1.229965 -0.970035
v -0.970035 -1.302308 -0.970035
v 0.897692 -2.000000 0.897692
v 1.000000 -1.897692 0.897692
v 0.897692 -1.897692 1.000000
v 0.970035 -1.970035 0.897692
v 0.956760 -1.956759 0.956760
v 0.970035 -1.897692 0.970035
v 0.897692 -1.970035 0.970035
v 0.897692 -1.302308 1.000000
v 1.000000 -1.302308 0.897692
v 0.897692 -1.200000 0.897692
v 0.970035 -1.302308 0.970035
v 0.956760 -1.243240 0.956760
v 0.970035 -1.229965 0.897692
v 0.897692 -1.229965 0.970035
v 0.897692 -2.000000 -0.897692
v 0.897692 -1.897692 -1.000000
v 1.000000 -1.897692 -0.897692
v 0.897692 -1.970035 -0.970035
v 0.956760 -1.956760 -0.956759
v 0.970035 -1.897692 -0.970035
v 0.970035 -1.970035 -0.897692
v 1.000000 -1.302308 -0.897692
v 0.897692 -1.302308 -1.000000
v 0.897692 -1.200000 -0.897692
v 0.970035 -1.302308 -0.970035
v 0.956760 -1.243241 -0.956759
v 0.897692 -1.229965 -0.970035
v 0.970035 -1.229965 -0.897692
v -0.697692 0.302308 0.800000
v -0.800000 0.302308 0.697692
v -0.697692 0.200000 0.697692
v -0.770035 0.302308 0.770035
v -0.756760 0.243241 0.756760
v -0.770035 0.229965 0.697692
v -0.697692 0.229965 0.770035
v -0.697692 1.697692 0.800000
v -0.697692 1.800000 0.697692
v -0.800000 1.697692 0.697692
v -0.697692 1.770035 0.770035
v -0.756760 1.756760 0.756759
v -0.770035 1.770035 0.697692
v -0.770035 1.697692 0.770035
v -0.697692 0.200000 -0.697692
v -0.800000 0.302308 -0.697692
v -0.697692 0.302308 -0.800000
v -0.770035 0.229965 -0.697692
v -0.756760 0.243240 -0.756760
v -0.770035 0.302308 -0.770035
v -0.697692 0.229965 -0.770035
v -0.800000 1.697692 -0.697692
v -0.697692 1.800000 -0.697692
v -0.697692 1.697692 -0.800000
v -0.770035 1.770035 -0.697692
v -0.756760 1.756760 -0.756760
v -0.697692 1.770035 -0.770035
v -0.770035 1.697692 -0.770035
v 0.697692 0.200000 0.697692
v 0.800000 0.302308 0.697692
v 0.697692 0.302308 0.800000
v 0.770035 0.229965 0.697692
v 0.756760 0.243241 0.756760
v 0.770035 0.302308 0.770035
v 0.697692 0.229965 0.770035
v 0.697692 1.697692 0.800000
v 0.800000 1.697692 0.697692
v 0.697692 1.800000 0.697692
v 0.770035 1.697692 0.770035
v 0.756760 1.756760 0.756759
v 0.770035 1.770035 0.697692
v 0.697692 1.770035 0.770035
v 0.697692 0.200000 -0.697692
v 0.697692 0.302308 -0.800000
v 0.800000 0.302308 -0.697692
v 0.697692 0.229965 -0.770035
v 0.756760 0.243240 -0.756760
v 0.770035 0.302308 -0.770035
v 0.770035 0.229965 -0.697692
v 0.800000 1.697692 -0.697692
v 0.697692 1.697692 -0.800000
v 0.697692 1.800000 -0.697692
v 0.770035 1.697692 -0.770035
v 0.756760 1.756760 -0.756760
v 0.697692 1.770035 -0.770035
v 0.770035 1.770035 -0.697692
v -0.297692 -1.497692 0.400000
v -0.400000 -1.497692 0.297692
v -0.297692 -1.600000 0.297692
v -0.370035 -1.497692 0.370035
v -0.356760 -1.556760 0.356760
v -0.370035 -1.570035 0.297692
v -0.297692 -1.570035 0.370035
v -0.297692 0.297692 0.400000
v -0.297692 0.400000 0.297692
v -0.400000 0.297692 0.297692
v -0.297692 0.370035 0.370035
v -0.356760 0.356760 0.356760
v -0.370035 0.370035 0.297692
v -0.370035 0.297692 0.370035
v -0.297692 -1.600000 -0.297692
v -0.400000 -1.497692 -0.297692
v -0.297692 -1.497692 -0.400000
v -0.370035 -1.570035 -0.297692
v -0.356760 -1.556760 -0.356759
v -0.370035 -1.497692 -0.370035
v -0.297692 -1.570035 -0.370035
v -0.400000 0.297692 -0.297692
v -0.297692 0.400000 -0.297692
v -0.297692 0.297692 -0.400000
v -0.370035 0.370035 -0.297692
v -0.356760 0.356760 -0.356760
v -0.297692 0.370035 -0.370035
v -0.370035 0.297692 -0.370035
v 0.297692 -1.600000 0.297692
v 0.400000 -1.497692 0.297692
v 0.297692 -1.497692 0.400000
v 0.370035 -1.570035 0.297692
v 0.356760 -1.556760 0.356760
v 0.370035 -1.497692 0.370035
v 0.297692 -1.570035 0.370035
v 0.297692 0.297692 0.400000
v 0.400000 0.297692 0.297692
v 0.297692 0.400000 0.297692
v 0.370035 0.297692 0.370035
v 0.356760 0.356760 0.356760
v 0.370035 0.370035 0.297692
v 0.297692 0.370035 0.370035
v 0.297692 -1.600000 -0.297692
v 0.297692 -1.497692 -0.400000
v 0.400000 -1.497692 -0.297692
v 0.297692 -1.570035 -0.370035
v 0.356760 -1.556760 -0.356759
v 0.370035 -1.497692 -0.370035
v 0.370035 -1.570035 -0.297692
v 0.400000 0.297692 -0.297692
v 0.297692 0.297692 -0.400000
v 0.297692 0.400000 -0.297692
v 0.370035 0.297692 -0.370035
v 0.356760 0.356760 -0.356760
v 0.297692 0.370035 -0.370035
v 0.370035 0.370035 -0.297692
vn -0.0000 -0.0000 -1.0000
vn -0.0000 -1.0000 -0.0000
vn -0.0000 -0.0000 1.0000
vn -0.0000 1.0000 -0.0000
vn 1.0000 -0.0000 -0.0000
vn -1.0000 -0.0000 -0.0000
vn -0.2402 -0.2402 0.9406
vn -0.5774 -0.5774 0.5773
vn -0.1479 -0.6993 0.6993
vn -0.9406 -0.2402 0.2402
vn -0.6993 -0.1479 0.6993
vn -0.2402 -0.9406 0.2402
vn -0.6993 -0.6993 0.1479
vn -0.2402 0.2402 0.9406
vn -0.5774 0.5774 0.5773
vn -0.6993 0.1479 0.6993
vn -0.2402 0.9406 0.2402
vn -0.1479 0.6993 0.6993
vn -0.9406 0.2402 0.2402
vn -0.6993 0.6993 0.1479
vn -0.2402 -0.9406 -0.2402
vn -0.5774 -0.5774 -0.5774
vn -0.1479 -0.6993 -0.6993
vn -0.9406 -0.2402 -0.2402
vn -0.6993 -0.6993 -0.1479
vn -0.2402 -0.2402 -0.9406
vn -0.6993 -0.1479 -0.6993
vn -0.9406 0.2402 -0.2402
vn -0.5774 0.5774 -0.5774
vn -0.6993 0.1479 -0.6993
vn -0.2402 0.9406 -0.2402
vn -0.6993 0.6993 -0.1479
vn -0.2402 0.2402 -0.9406
vn -0.1479 0.6993 -0.6993
vn 0.2402 -0.9406 0.2402
vn 0.5774 -0.5774 0.5773
vn 0.1479 -0.6993 0.6993
vn 0.9406 -0.2402 0.2402
vn 0.6993 -0.6993 0.1479
vn 0.2402 -0.2402 0.9406
vn 0.6993 -0.1479 0.6993
vn 0.2402 0.2402 0.9406
vn 0.5774 0.5774 0.5773
vn 0.1479 0.6993 0.6993
vn 0.9406 0.2402 0.2402
vn 0.6993 0.1479 0.6993
vn 0.2402 0.9406 0.2402
vn 0.6993 0.6993 0.1479
vn 0.2402 -0.9406 -0.2402
vn 0.5774 -0.5774 -0.5774
vn 0.6993 -0.6993 -0.1479
vn 0.2402 -0.2402 -0.9406
vn 0.1479 -0.6993 -0.6993
vn 0.9406 -0.2402 -0.2402
vn 0.6993 -0.1479 -0.6993
vn 0.9406 0.2402 -0.2402
vn 0.5774 0.5774 -0.5774
vn 0.6993 0.6993 -0.1479
vn 0.2402 0.2402 -0.9406
vn 0.6993 0.1479 -0.6993
vn 0.2402 0.9406 -0.2402
vn 0.1479 0.6993 -0.6993
vn -0.5774 -0.5774 0.5774
vn -0.5774 0.5774 0.5774
vn 0.5774 -0.5774 0.5774
vn 0.5774 0.5774 0.5774
vn -0.5773 0.5774 0.5774
vn -0.5773 0.5773 -0.5774
vn 0.5773 0.5774 0.5774
vn 0.5773 0.5773 -0.5774
vn -0.5774 -0.5774 -0.5773
vn 0.5774 -0.5774 -0.5773
vt 0.593029 0.487212
vt 0.406971 0.262789
vt 0.593029 0.262789
vt 0.343029 0.718029
vt 0.156971 0.531971
vt 0.343029 0.531971
vt 0.612211 0.968029
vt 0.387789 0.781971
vt 0.612212 0.781971
vt 0.362211 0.737211
vt 0.137788 0.512788
vt 0.362211 0.512788
vt 0.561058 0.436058
vt 0.438942 0.313942
vt 0.561058 0.313943
vt 0.862211 0.737211
vt 0.637788 0.512788
vt 0.862211 0.512788
vt 0.311057 0.718029
vt 0.188942 0.531971
vt 0.311058 0.531971
vt 0.609014 0.984014
vt 0.390986 0.765986
vt 0.609014 0.765986
vt 0.593029 0.987212
vt 0.406971 0.762789
vt 0.593029 0.762789
vt 0.359014 0.734014
vt 0.140986 0.515986
vt 0.359014 0.515986
vt 0.612211 0.718029
vt 0.387789 0.531971
vt 0.612212 0.531971
vt 0.811057 0.718029
vt 0.688942 0.531971
vt 0.811057 0.531971
vt 0.609014 0.734014
vt 0.390986 0.515986
vt 0.609014 0.515986
vt 0.561057 0.218029
vt 0.438942 0.031971
vt 0.561057 0.031971
vt 0.593029 0.237212
vt 0.406971 0.012788
vt 0.593029 0.012788
vt 0.843029 0.718029
vt 0.656971 0.531971
vt 0.843029 0.531971
vt 0.609014 0.234014
vt 0.390986 0.015986
vt 0.609014 0.015986
vt 0.593029 0.737212
vt 0.406971 0.512789
vt 0.593029 0.512789
vt 0.609014 0.484014
vt 0.390986 0.265986
vt 0.609014 0.265986
vt 0.859014 0.734014
vt 0.640986 0.515986
vt 0.859014 0.515986
vt 0.612211 0.218029
vt 0.387789 0.031971
vt 0.612212 0.031971
vt 0.561058 0.718029
vt 0.438942 0.531971
vt 0.561058 0.531971
vt 0.612211 0.468029
vt 0.387789 0.281971
vt 0.612212 0.281971
vt 0.438942 0.936058
vt 0.402025 1.000000
vt 0.375000 0.936058
vt 0.375000 0.013513
vt 0.438942 0.000000
vt 0.188942 0.718029
vt 0.152025 0.750000
vt 0.125000 0.718029
vt 0.561058 0.936058
vt 0.625000 0.972975
vt 0.561057 1.000000
vt 0.875000 0.736487
vt 0.811058 0.750000
vt 0.597975 0.000000
vt 0.625000 0.031971
vt 0.125000 0.513513
vt 0.188943 0.500000
vt 0.438942 0.218029
vt 0.402025 0.250000
vt 0.375000 0.218029
vt 0.375000 0.277025
vt 0.438942 0.250000
vt 0.625000 0.236487
vt 0.561057 0.250000
vt 0.847975 0.500000
vt 0.875000 0.531971
vt 0.597975 0.250000
vt 0.625000 0.313942
vt 0.384008 0.754504
vt 0.311058 0.750000
vt 0.438942 0.718029
vt 0.375000 0.718029
vt 0.438942 0.813943
vt 0.438942 0.750000
vt 0.561058 0.813943
vt 0.625000 0.745496
vt 0.625000 0.813943
vt 0.561057 0.750000
vt 0.688942 0.718029
vt 0.625000 0.718029
vt 0.375000 0.504504
vt 0.375000 0.531971
vt 0.438942 0.436058
vt 0.375000 0.436058
vt 0.438942 0.500000
vt 0.615992 0.495496
vt 0.625000 0.531971
vt 0.561057 0.500000
vt 0.688943 0.500000
vt 0.406971 0.987211
vt 0.388513 1.000000
vt 0.375000 0.987211
vt 0.375000 0.005405
vt 0.406971 0.000000
vt 0.137789 0.737212
vt 0.130405 0.750000
vt 0.125000 0.737212
vt 0.625000 0.994595
vt 0.593029 1.000000
vt 0.875000 0.744595
vt 0.862212 0.750000
vt 0.611487 0.000000
vt 0.625000 0.012789
vt 0.125000 0.505405
vt 0.137789 0.500000
vt 0.406971 0.237212
vt 0.388513 0.250000
vt 0.375000 0.237211
vt 0.375000 0.255405
vt 0.406971 0.250000
vt 0.625000 0.244595
vt 0.593029 0.250000
vt 0.869595 0.500000
vt 0.875000 0.512789
vt 0.611487 0.250000
vt 0.625000 0.262789
vt 0.379504 0.750000
vt 0.362212 0.750000
vt 0.406971 0.737212
vt 0.375000 0.737212
vt 0.406971 0.750000
vt 0.622298 0.748198
vt 0.625000 0.762789
vt 0.593029 0.750000
vt 0.637789 0.737212
vt 0.625000 0.737212
vt 0.377703 0.501802
vt 0.375000 0.512789
vt 0.406971 0.487212
vt 0.375000 0.487211
vt 0.406971 0.500000
vt 0.620496 0.500000
vt 0.625000 0.512789
vt 0.593029 0.500000
vt 0.637788 0.500000
vt 0.390986 0.984014
vt 0.381756 1.000000
vt 0.375000 0.984014
vt 0.375000 0.006756
vt 0.390986 0.000000
vt 0.140986 0.734014
vt 0.131756 0.750000
vt 0.125000 0.734014
vt 0.625000 0.993244
vt 0.609014 1.000000
vt 0.875000 0.743244
vt 0.859014 0.750000
vt 0.618244 0.000000
vt 0.625000 0.015986
vt 0.125000 0.506756
vt 0.140986 0.500000
vt 0.390986 0.234014
vt 0.381756 0.250000
vt 0.375000 0.234014
vt 0.375000 0.256756
vt 0.390986 0.250000
vt 0.625000 0.243244
vt 0.609014 0.250000
vt 0.868244 0.500000
vt 0.875000 0.515986
vt 0.618244 0.250000
vt 0.625000 0.265986
vt 0.377252 0.750000
vt 0.359014 0.750000
vt 0.390986 0.734014
vt 0.375000 0.734014
vt 0.390986 0.750000
vt 0.625000 0.747748
vt 0.625000 0.765986
vt 0.609014 0.750000
vt 0.640986 0.734014
vt 0.625000 0.734014
vt 0.375000 0.502252
vt 0.375000 0.515986
vt 0.390986 0.484014
vt 0.375000 0.484014
vt 0.390986 0.500000
vt 0.622748 0.500000
vt 0.625000 0.515986
vt 0.609014 0.500000
vt 0.640986 0.500000
vt 0.387789 0.968029
vt 0.380405 1.000000
vt 0.375000 0.968029
vt 0.375000 0.013513
vt 0.387788 0.000000
vt 0.156971 0.718029
vt 0.138513 0.750000
vt 0.625000 0.986487
vt 0.612211 1.000000
vt 0.875000 0.736487
vt 0.843029 0.750000
vt 0.619595 0.000000
vt 0.625000 0.031971
vt 0.125000 0.513513
vt 0.156971 0.500000
vt 0.387789 0.218029
vt 0.380405 0.250000
vt 0.375000 0.218029
vt 0.375000 0.263513
vt 0.387788 0.250000
vt 0.625000 0.236487
vt 0.612211 0.250000
vt 0.861487 0.500000
vt 0.875000 0.531971
vt 0.619595 0.250000
vt 0.625000 0.281971
vt 0.376802 0.750000
vt 0.343029 0.750000
vt 0.387789 0.718029
vt 0.387788 0.750000
vt 0.627703 0.745496
vt 0.625000 0.781971
vt 0.612211 0.750000
vt 0.656971 0.718029
vt 0.372297 0.504504
vt 0.375000 0.531971
vt 0.387789 0.468029
vt 0.375000 0.468029
vt 0.387788 0.500000
vt 0.623198 0.500000
vt 0.625000 0.531971
vt 0.612211 0.500000
vt 0.656971 0.500000
vt 0.438942 1.000000
vt 0.561058 0.000000
vt 0.375000 0.031971
vt 0.375000 0.313942
vt 0.311057 0.500000
vt 0.188943 0.750000
vt 0.375000 0.813942
vt 0.811058 0.500000
vt 0.625000 0.436058
vt 0.406971 1.000000
vt 0.593029 0.000000
vt 0.375000 0.012789
vt 0.125000 0.512789
vt 0.375000 0.262789
vt 0.362212 0.500000
vt 0.137789 0.750000
vt 0.375000 0.762789
vt 0.862212 0.500000
vt 0.625000 0.487211
vt 0.390986 1.000000
vt 0.375000 0.015986
vt 0.125000 0.515986
vt 0.375000 0.265986
vt 0.359014 0.500000
vt 0.140986 0.750000
vt 0.375000 0.765986
vt 0.859014 0.500000
vt 0.625000 0.484014
vt 0.387788 1.000000
vt 0.612211 0.000000
vt 0.375000 0.031971
vt 0.125000 0.531971
vt 0.375000 0.281971
vt 0.343029 0.500000
vt 0.156971 0.750000
vt 0.375000 0.781971
vt 0.843029 0.500000
vt 0.625000 0.468029
vt 0.875000 0.718029
vt 0.625000 0.936058
vt 0.688943 0.750000
vt 0.875000 0.737212
vt 0.625000 0.237211
vt 0.625000 0.987211
vt 0.637788 0.750000
vt 0.875000 0.734014
vt 0.625000 0.234014
vt 0.625000 0.984014
vt 0.640986 0.750000
vt 0.875000 0.718029
vt 0.625000 0.218029
vt 0.625000 0.968029
vt 0.656971 0.750000
vt 0.125000 0.531971
vt 0.625000 0.218029
vt 0.609014 0.000000
s 1
f 107/1/1 73/2/1 80/3/1
f 197/4/2 183/5/2 211/6/2
f 176/7/3 199/8/3 204/9/3
f 85/10/2 71/11/2 99/12/2
f 51/13/1 17/14/1 24/15/1
f 65/16/4 108/17/4 79/18/4
f 29/19/2 15/20/2 43/21/2
f 120/22/3 143/23/3 148/24/3
f 64/25/3 87/26/3 92/27/3
f 141/28/2 127/29/2 155/30/2
f 205/31/5 213/32/5 218/33/5
f 9/34/4 52/35/4 23/36/4
f 149/37/5 157/38/5 162/39/5
f 22/40/6 2/41/6 10/42/6
f 78/43/6 58/44/6 66/45/6
f 177/46/4 220/47/4 191/48/4
f 134/49/6 114/50/6 122/51/6
f 93/52/5 101/53/5 106/54/5
f 163/55/1 129/56/1 136/57/1
f 121/58/4 164/59/4 135/60/4
f 190/61/6 170/62/6 178/63/6
f 37/64/5 45/65/5 50/66/5
f 219/67/1 185/68/1 192/69/1
f 1/70/7 5/71/8 7/72/9
f 2/41/10 5/73/8 4/74/11
f 3/75/12 5/76/8 6/77/13
f 8/78/14 12/79/15 14/80/16
f 9/34/17 12/81/15 11/82/18
f 10/42/19 12/83/15 13/84/20
f 15/20/21 19/85/22 21/86/23
f 16/87/24 19/88/22 18/89/25
f 17/14/26 19/90/22 20/91/27
f 22/40/28 26/92/29 28/93/30
f 23/36/31 26/94/29 25/95/32
f 24/15/33 26/96/29 27/97/34
f 29/19/35 33/98/36 35/99/37
f 30/100/38 33/98/36 32/101/39
f 31/102/40 33/98/36 34/103/41
f 36/104/42 40/105/43 42/106/44
f 37/64/45 40/105/43 39/107/46
f 38/108/47 40/105/43 41/109/48
f 43/21/49 47/110/50 49/111/51
f 44/112/52 47/110/50 46/113/53
f 45/65/54 47/110/50 48/114/55
f 50/66/56 54/115/57 56/116/58
f 51/13/59 54/115/57 53/117/60
f 52/35/61 54/115/57 55/118/62
f 57/119/7 61/120/63 63/121/9
f 58/44/10 61/122/63 60/123/11
f 59/124/12 61/125/63 62/126/13
f 64/25/14 68/127/64 70/128/16
f 65/16/17 68/129/64 67/130/18
f 66/45/19 68/131/64 69/132/20
f 71/11/21 75/133/22 77/134/23
f 72/135/24 75/136/22 74/137/25
f 73/2/26 75/138/22 76/139/27
f 78/43/28 82/140/29 84/141/30
f 79/18/31 82/142/29 81/143/32
f 80/3/33 82/144/29 83/145/34
f 85/10/35 89/146/65 91/147/37
f 86/148/38 89/146/65 88/149/39
f 87/26/40 89/146/65 90/150/41
f 92/27/42 96/151/66 98/152/44
f 93/52/45 96/151/66 95/153/46
f 94/154/47 96/151/66 97/155/48
f 99/12/49 103/156/50 105/157/51
f 100/158/52 103/156/50 102/159/53
f 101/53/54 103/156/50 104/160/55
f 106/54/56 110/161/57 112/162/58
f 107/1/59 110/161/57 109/163/60
f 108/17/61 110/161/57 111/164/62
f 113/165/7 117/166/63 119/167/9
f 114/50/10 117/168/63 116/169/11
f 115/170/12 117/171/63 118/172/13
f 120/22/14 124/173/67 126/174/16
f 121/58/17 124/175/67 123/176/18
f 122/51/19 124/177/67 125/178/20
f 127/29/21 131/179/22 133/180/23
f 128/181/24 131/182/22 130/183/25
f 129/56/26 131/184/22 132/185/27
f 134/49/28 138/186/68 140/187/30
f 135/60/31 138/188/68 137/189/32
f 136/57/33 138/190/68 139/191/34
f 141/28/35 145/192/65 147/193/37
f 142/194/38 145/192/65 144/195/39
f 143/23/40 145/192/65 146/196/41
f 148/24/42 152/197/69 154/198/44
f 149/37/45 152/197/69 151/199/46
f 150/200/47 152/197/69 153/201/48
f 155/30/49 159/202/50 161/203/51
f 156/204/52 159/202/50 158/205/53
f 157/38/54 159/202/50 160/206/55
f 162/39/56 166/207/70 168/208/58
f 163/55/59 166/207/70 165/209/60
f 164/59/61 166/207/70 167/210/62
f 169/211/7 173/212/8 175/213/9
f 170/62/10 173/214/8 172/215/11
f 171/216/12 173/217/8 174/77/13
f 176/7/14 180/218/64 182/219/16
f 177/46/17 180/220/64 179/221/18
f 178/63/19 180/222/64 181/223/20
f 183/5/21 187/224/71 189/225/23
f 184/226/24 187/227/71 186/228/25
f 185/68/26 187/229/71 188/230/27
f 190/61/28 194/231/29 196/232/30
f 191/48/31 194/233/29 193/234/32
f 192/69/33 194/235/29 195/236/34
f 197/4/35 201/237/36 203/238/37
f 198/239/38 201/237/36 200/101/39
f 199/8/40 201/237/36 202/240/41
f 204/9/42 208/241/66 210/242/44
f 205/31/45 208/241/66 207/243/46
f 206/244/47 208/241/66 209/109/48
f 211/6/49 215/245/72 217/246/51
f 212/247/52 215/245/72 214/248/53
f 213/32/54 215/245/72 216/249/55
f 218/33/56 222/250/57 224/251/58
f 219/67/59 222/250/57 221/252/60
f 220/47/61 222/250/57 223/253/62
f 8/78/14 4/254/11 1/70/7
f 14/255/16 2/41/10 4/74/11
f 16/87/24 6/256/13 2/41/10
f 6/77/13 15/20/21 3/75/12
f 22/40/28 20/91/27 16/87/24
f 28/93/30 17/14/26 20/91/27
f 44/112/52 21/257/23 17/14/26
f 46/258/53 15/20/21 21/86/23
f 51/13/59 48/114/55 44/112/52
f 53/117/60 45/65/54 48/114/55
f 43/21/49 32/101/39 29/19/35
f 32/101/39 45/65/54 30/100/38
f 37/64/45 34/103/41 30/100/38
f 39/107/46 31/102/40 34/103/41
f 29/19/35 7/259/9 3/75/12
f 35/260/37 1/70/7 7/72/9
f 52/35/61 27/261/34 23/36/31
f 55/262/62 24/15/33 27/97/34
f 50/66/56 41/109/48 37/64/45
f 41/109/48 52/35/61 38/108/47
f 64/25/14 60/263/11 57/119/7
f 70/264/16 58/44/10 60/123/11
f 72/135/24 62/265/13 58/44/10
f 74/266/25 59/124/12 62/126/13
f 78/43/28 76/139/27 72/135/24
f 84/141/30 73/2/26 76/139/27
f 100/158/52 77/267/23 73/2/26
f 102/268/53 71/11/21 77/134/23
f 107/1/59 104/160/55 100/158/52
f 109/163/60 101/53/54 104/160/55
f 99/12/49 88/149/39 85/10/35
f 105/157/51 86/148/38 88/149/39
f 93/52/45 90/150/41 86/148/38
f 95/153/46 87/26/40 90/150/41
f 85/10/35 63/269/9 59/124/12
f 91/270/37 57/119/7 63/121/9
f 108/17/61 83/271/34 79/18/31
f 111/272/62 80/3/33 83/145/34
f 106/54/56 97/155/48 93/52/45
f 112/162/58 94/154/47 97/155/48
f 120/22/14 116/273/11 113/165/7
f 116/169/11 122/51/19 114/50/10
f 128/181/24 118/274/13 114/50/10
f 130/275/25 115/170/12 118/172/13
f 134/49/28 132/185/27 128/181/24
f 132/185/27 136/57/33 129/56/26
f 156/204/52 133/276/23 129/56/26
f 158/277/53 127/29/21 133/180/23
f 163/55/59 160/206/55 156/204/52
f 160/206/55 162/39/56 157/38/54
f 155/30/49 144/195/39 141/28/35
f 161/203/51 142/194/38 144/195/39
f 149/37/45 146/196/41 142/194/38
f 146/196/41 148/24/42 143/23/40
f 141/28/35 119/278/9 115/170/12
f 147/279/37 113/165/7 119/167/9
f 164/59/61 139/280/34 135/60/31
f 167/281/62 136/57/33 139/191/34
f 162/39/56 153/201/48 149/37/45
f 168/208/58 150/200/47 153/201/48
f 169/211/7 182/219/16 172/282/11
f 182/283/16 170/62/10 172/215/11
f 184/226/24 174/284/13 170/62/10
f 186/285/25 171/216/12 174/77/13
f 184/226/24 196/232/30 188/230/27
f 196/232/30 185/68/26 188/230/27
f 212/247/52 189/286/23 185/68/26
f 214/287/53 183/5/21 189/225/23
f 212/247/52 221/252/60 216/249/55
f 221/252/60 213/32/54 216/249/55
f 211/6/49 200/101/39 197/4/35
f 217/246/51 198/239/38 200/101/39
f 198/239/38 207/243/46 202/240/41
f 207/243/46 199/8/40 202/240/41
f 197/4/35 175/288/9 171/216/12
f 203/289/37 169/211/7 175/213/9
f 220/47/61 195/290/34 191/48/31
f 223/291/62 192/69/33 195/236/34
f 218/33/56 209/109/48 205/31/45
f 224/251/58 206/244/47 209/109/48
f 23/36/31 13/292/20 9/34/17
f 13/84/20 22/40/28 10/42/19
f 36/104/42 11/293/18 8/78/14
f 42/294/44 9/34/17 11/82/18
f 79/18/31 69/295/20 65/16/17
f 81/296/32 66/45/19 69/132/20
f 92/27/42 67/297/18 64/25/14
f 98/298/44 65/16/17 67/130/18
f 135/60/31 125/299/20 121/58/17
f 137/300/32 122/51/19 125/178/20
f 148/24/42 123/301/18 120/22/14
f 154/302/44 121/58/17 123/176/18
f 191/48/31 181/303/20 177/46/17
f 193/304/32 178/63/19 181/223/20
f 204/9/42 179/305/18 176/7/14
f 210/306/44 177/46/17 179/221/18
f 8/78/3 31/102/3 36/104/3
f 107/1/1 100/158/1 73/2/1
f 197/4/2 171/216/2 183/5/2
f 176/7/3 169/211/3 199/8/3
f 85/10/2 59/124/2 71/11/2
f 51/13/1 44/112/1 17/14/1
f 65/16/4 94/154/4 108/17/4
f 29/19/2 3/75/2 15/20/2
f 120/22/3 113/165/3 143/23/3
f 64/25/3 57/119/3 87/26/3
f 141/28/2 115/170/2 127/29/2
f 205/31/5 198/239/5 213/32/5
f 9/34/4 38/108/4 52/35/4
f 149/37/5 142/194/5 157/38/5
f 22/40/6 16/87/6 2/41/6
f 78/43/6 72/135/6 58/44/6
f 177/46/4 206/244/4 220/47/4
f 134/49/6 128/181/6 114/50/6
f 93/52/5 86/148/5 101/53/5
f 163/55/1 156/204/1 129/56/1
f 121/58/4 150/200/4 164/59/4
f 190/61/6 184/226/6 170/62/6
f 37/64/5 30/100/5 45/65/5
f 219/67/1 212/247/1 185/68/1
f 1/70/7 4/254/11 5/71/8
f 2/41/10 6/256/13 5/73/8
f 3/75/12 7/259/9 5/76/8
f 8/78/14 11/293/18 12/79/15
f 9/34/17 13/292/20 12/81/15
f 10/42/19 14/255/16 12/83/15
f 15/20/21 18/307/25 19/85/22
f 16/87/24 20/91/27 19/88/22
f 17/14/26 21/257/23 19/90/22
f 22/40/28 25/308/32 26/92/29
f 23/36/31 27/261/34 26/94/29
f 24/15/33 28/93/30 26/96/29
f 29/19/35 32/101/39 33/98/36
f 30/100/38 34/103/41 33/98/36
f 31/102/40 35/260/37 33/98/36
f 36/104/42 39/107/46 40/105/43
f 37/64/45 41/109/48 40/105/43
f 38/108/47 42/294/44 40/105/43
f 43/21/49 46/258/53 47/110/50
f 44/112/52 48/114/55 47/110/50
f 45/65/54 49/111/51 47/110/50
f 50/66/56 53/117/60 54/115/57
f 51/13/59 55/262/62 54/115/57
f 52/35/61 56/116/58 54/115/57
f 57/119/7 60/263/11 61/120/63
f 58/44/10 62/265/13 61/122/63
f 59/124/12 63/269/9 61/125/63
f 64/25/14 67/297/18 68/127/64
f 65/16/17 69/295/20 68/129/64
f 66/45/19 70/264/16 68/131/64
f 71/11/21 74/266/25 75/133/22
f 72/135/24 76/139/27 75/136/22
f 73/2/26 77/267/23 75/138/22
f 78/43/28 81/296/32 82/140/29
f 79/18/31 83/271/34 82/142/29
f 80/3/33 84/141/30 82/144/29
f 85/10/35 88/149/39 89/146/65
f 86/148/38 90/150/41 89/146/65
f 87/26/40 91/270/37 89/146/65
f 92/27/42 95/153/46 96/151/66
f 93/52/45 97/155/48 96/151/66
f 94/154/47 98/298/44 96/151/66
f 99/12/49 102/268/53 103/156/50
f 100/158/52 104/160/55 103/156/50
f 101/53/54 105/157/51 103/156/50
f 106/54/56 109/163/60 110/161/57
f 107/1/59 111/272/62 110/161/57
f 108/17/61 112/162/58 110/161/57
f 113/165/7 116/273/11 117/166/63
f 114/50/10 118/274/13 117/168/63
f 115/170/12 119/278/9 117/171/63
f 120/22/14 123/301/18 124/173/67
f 121/58/17 125/299/20 124/175/67
f 122/51/19 126/309/16 124/177/67
f 127/29/21 130/275/25 131/179/22
f 128/181/24 132/185/27 131/182/22
f 129/56/26 133/276/23 131/184/22
f 134/49/28 137/300/32 138/186/68
f 135/60/31 139/280/34 138/188/68
f 136/57/33 140/187/30 138/190/68
f 141/28/35 144/195/39 145/192/65
f 142/194/38 146/196/41 145/192/65
f 143/23/40 147/279/37 145/192/65
f 148/24/42 151/199/46 152/197/69
f 149/37/45 153/201/48 152/197/69
f 150/200/47 154/302/44 152/197/69
f 155/30/49 158/277/53 159/202/50
f 156/204/52 160/206/55 159/202/50
f 157/38/54 161/203/51 159/202/50
f 162/39/56 165/209/60 166/207/70
f 163/55/59 167/281/62 166/207/70
f 164/59/61 168/208/58 166/207/70
f 169/211/7 172/282/11 173/212/8
f 170/62/10 174/284/13 173/214/8
f 171/216/12 175/288/9 173/217/8
f 176/7/14 179/305/18 180/218/64
f 177/46/17 181/303/20 180/220/64
f 178/63/19 182/283/16 180/222/64
f 183/5/21 186/285/25 187/224/71
f 184/226/24 188/230/27 187/227/71
f 185/68/26 189/286/23 187/229/71
f 190/61/28 193/304/32 194/231/29
f 191/48/31 195/290/34 194/233/29
f 192/69/33 196/232/30 194/235/29
f 197/4/35 200/101/39 201/237/36
f 198/239/38 202/240/41 201/237/36
f 199/8/40 203/289/37 201/237/36
f 204/9/42 207/243/46 208/241/66
f 205/31/45 209/109/48 208/241/66
f 206/244/47 210/306/44 208/241/66
f 211/6/49 214/287/53 215/245/72
f 212/247/52 216/249/55 215/245/72
f 213/32/54 217/246/51 215/245/72
f 218/33/56 221/252/60 222/250/57
f 219/67/59 223/291/62 222/250/57
f 220/47/61 224/251/58 222/250/57
f 8/78/14 14/80/16 4/254/11
f 14/255/16 10/42/19 2/41/10
f 16/87/24 18/89/25 6/256/13
f 6/77/13 18/307/25 15/20/21
f 22/40/28 28/93/30 20/91/27
f 28/93/30 24/15/33 17/14/26
f 44/112/52 46/113/53 21/257/23
f 46/258/53 43/21/49 15/20/21
f 51/13/59 53/117/60 48/114/55
f 53/117/60 50/66/56 45/65/54
f 43/21/49 49/111/51 32/101/39
f 32/101/39 49/111/51 45/65/54
f 37/64/45 39/107/46 34/103/41
f 39/107/46 36/104/42 31/102/40
f 29/19/35 35/99/37 7/259/9
f 35/260/37 31/102/40 1/70/7
f 52/35/61 55/118/62 27/261/34
f 55/262/62 51/13/59 24/15/33
f 50/66/56 56/116/58 41/109/48
f 41/109/48 56/116/58 52/35/61
f 64/25/14 70/128/16 60/263/11
f 70/264/16 66/45/19 58/44/10
f 72/135/24 74/137/25 62/265/13
f 74/266/25 71/11/21 59/124/12
f 78/43/28 84/141/30 76/139/27
f 84/141/30 80/3/33 73/2/26
f 100/158/52 102/159/53 77/267/23
f 102/268/53 99/12/49 71/11/21
f 107/1/59 109/163/60 104/160/55
f 109/163/60 106/54/56 101/53/54
f 99/12/49 105/157/51 88/149/39
f 105/157/51 101/53/54 86/148/38
f 93/52/45 95/153/46 90/150/41
f 95/153/46 92/27/42 87/26/40
f 85/10/35 91/147/37 63/269/9
f 91/270/37 87/26/40 57/119/7
f 108/17/61 111/164/62 83/271/34
f 111/272/62 107/1/59 80/3/33
f 106/54/56 112/162/58 97/155/48
f 112/162/58 108/17/61 94/154/47
f 120/22/14 126/174/16 116/273/11
f 116/169/11 126/309/16 122/51/19
f 128/181/24 130/183/25 118/274/13
f 130/275/25 127/29/21 115/170/12
f 134/49/28 140/187/30 132/185/27
f 132/185/27 140/187/30 136/57/33
f 156/204/52 158/205/53 133/276/23
f 158/277/53 155/30/49 127/29/21
f 163/55/59 165/209/60 160/206/55
f 160/206/55 165/209/60 162/39/56
f 155/30/49 161/203/51 144/195/39
f 161/203/51 157/38/54 142/194/38
f 149/37/45 151/199/46 146/196/41
f 146/196/41 151/199/46 148/24/42
f 141/28/35 147/193/37 119/278/9
f 147/279/37 143/23/40 113/165/7
f 164/59/61 167/210/62 139/280/34
f 167/281/62 163/55/59 136/57/33
f 162/39/56 168/208/58 153/201/48
f 168/208/58 164/59/61 150/200/47
f 169/211/7 176/7/14 182/219/16
f 182/283/16 178/63/19 170/62/10
f 184/226/24 186/228/25 174/284/13
f 186/285/25 183/5/21 171/216/12
f 184/226/24 190/61/28 196/232/30
f 196/232/30 192/69/33 185/68/26
f 212/247/52 214/248/53 189/286/23
f 214/287/53 211/6/49 183/5/21
f 212/247/52 219/67/59 221/252/60
f 221/252/60 218/33/56 213/32/54
f 211/6/49 217/246/51 200/101/39
f 217/246/51 213/32/54 198/239/38
f 198/239/38 205/31/45 207/243/46
f 207/243/46 204/9/42 199/8/40
f 197/4/35 203/238/37 175/288/9
f 203/289/37 199/8/40 169/211/7
f 220/47/61 223/253/62 195/290/34
f 223/291/62 219/67/59 192/69/33
f 218/33/56 224/251/58 209/109/48
f 224/251/58 220/47/61 206/244/47
f 23/36/31 25/95/32 13/292/20
f 13/84/20 25/308/32 22/40/28
f 36/104/42 42/106/44 11/293/18
f 42/294/44 38/108/47 9/34/17
f 79/18/31 81/143/32 69/295/20
f 81/296/32 78/43/28 66/45/19
f 92/27/42 98/152/44 67/297/18
f 98/298/44 94/154/47 65/16/17
f 135/60/31 137/189/32 125/299/20
f 137/300/32 134/49/28 122/51/19
f 148/24/42 154/198/44 123/301/18
f 154/302/44 150/200/47 121/58/17
f 191/48/31 193/234/32 181/303/20
f 193/304/32 190/61/28 178/63/19
f 204/9/42 210/242/44 179/305/18
f 210/306/44 206/244/47 177/46/17
f 8/78/3 1/70/3 31/102/3
