# Blender 4.4.0
# www.blender.org
mtllib player.mtl
o 立方体
v -0.369266 1.192781 0.318916
v -0.296941 1.120456 0.318916
v -0.296941 1.192781 0.391241
v -0.296941 1.786663 0.391241
v -0.296941 1.858988 0.318916
v -0.369266 1.786663 0.318916
v -0.296941 1.192781 -0.391241
v -0.296941 1.120456 -0.318916
v -0.369266 1.192781 -0.318916
v -0.296941 1.858988 -0.318916
v -0.296941 1.786663 -0.391241
v -0.369266 1.786663 -0.318916
v 0.369266 1.192781 0.318916
v 0.296941 1.192781 0.391241
v 0.296941 1.120456 0.318916
v 0.296941 1.858988 0.318916
v 0.296941 1.786663 0.391241
v 0.369266 1.786663 0.318916
v 0.296941 1.120456 -0.318916
v 0.296941 1.192781 -0.391241
v 0.369266 1.192781 -0.318916
v 0.296941 1.786663 -0.391241
v 0.296941 1.858988 -0.318916
v 0.369266 1.786663 -0.318916
v -0.469376 -0.366929 0.271341
v -0.469376 -0.511579 0.271341
v -0.541701 -0.366929 0.199016
v -0.068385 -0.366929 0.271341
v -0.469376 0.742687 0.271341
v -0.140710 -0.511579 0.271341
v -0.541701 0.670362 0.199016
v -0.614026 0.742687 0.199016
v -0.541701 0.670362 -0.199016
v -0.614026 0.742687 -0.199016
v -0.541701 -0.366929 -0.199016
v -0.469376 -0.366929 -0.271341
v -0.541701 -0.511579 -0.199016
v -0.469376 -0.511579 -0.271341
v -0.541701 -0.511579 0.199016
v -0.541701 -1.891427 0.199016
v -0.469376 -1.891427 0.271341
v -0.469376 -1.963752 0.199016
v -0.541701 -1.891427 -0.199015
v -0.469376 -1.963752 -0.199015
v -0.469376 -1.891427 -0.271341
v -0.140710 -1.891427 -0.271341
v -0.140710 -0.511579 -0.271341
v -0.068385 -0.511579 -0.199016
v -0.068385 -0.366929 -0.271341
v -0.068385 -1.891427 -0.199015
v -0.140710 -1.963752 -0.199015
v -0.068385 -1.891427 0.199016
v -0.068385 -0.511579 0.199016
v 0.003940 -0.439254 0.199016
v -0.140710 -1.891427 0.271341
v -0.140710 -1.963752 0.199016
v -0.003940 -0.439254 0.199016
v 0.003940 -0.439254 -0.199016
v -0.003940 -0.439254 -0.199016
v 0.068385 -0.511579 -0.199016
v 0.068385 -0.366929 -0.271341
v 0.068385 -0.511579 0.199016
v 0.140710 -0.511579 0.271341
v 0.068385 -1.891427 0.199016
v 0.068385 -0.366929 0.271341
v 0.068385 -1.891427 -0.199015
v 0.140710 -1.891427 -0.271341
v 0.140710 -1.963752 -0.199015
v 0.140710 -1.963752 0.199016
v 0.140710 -1.891427 0.271341
v 0.469376 -1.963752 0.199016
v 0.469376 -1.891427 0.271341
v 0.541701 -1.891427 0.199016
v 0.469376 -1.963752 -0.199015
v 0.541701 -1.891427 -0.199015
v 0.469376 -1.891427 -0.271341
v 0.469376 -0.511579 -0.271341
v 0.469376 -0.366929 -0.271341
v 0.541701 -0.511579 -0.199016
v 0.140710 -0.511579 -0.271341
v 0.541701 -0.366929 -0.199016
v 0.541701 0.670362 -0.199016
v 0.541701 -0.366929 0.199016
v 0.469376 0.670362 -0.271341
v 0.469376 0.815012 -0.271341
v -0.469376 0.670362 -0.271341
v -0.469376 0.815012 -0.271341
v -0.614026 0.815012 -0.271341
v -0.469376 1.064342 -0.271341
v -0.614026 1.064342 -0.271341
v 0.469376 1.064342 -0.271341
v 0.614026 1.064342 -0.271341
v 0.469376 1.136667 -0.199016
v 0.614026 0.815012 -0.271341
v 0.614026 0.742687 -0.199016
v 2.108728 0.815012 -0.271341
v 2.108727 0.742687 -0.199016
v 2.181053 0.815012 -0.199016
v 2.108727 0.742687 0.199016
v 2.181053 0.815012 0.199016
v 2.108728 0.815012 0.271341
v 2.181053 1.064342 0.199016
v 2.108728 1.064342 0.271341
v 2.108727 1.136667 0.199016
v 2.181053 1.064342 -0.199016
v 2.108727 1.136667 -0.199016
v 2.108728 1.064342 -0.271341
v 0.614026 1.136667 -0.199016
v 0.614026 1.136667 0.199016
v 0.614026 1.064342 0.271341
v 0.469376 1.136667 0.199016
v 0.469376 1.064342 0.271341
v -0.469376 1.136667 0.199016
v -0.469376 1.136667 -0.199016
v -0.614026 1.136667 -0.199016
v -0.614026 1.136667 0.199016
v -0.614026 1.064342 0.271341
v -2.108727 1.136667 0.199016
v -2.108728 1.064342 0.271341
v -2.181053 1.064342 0.199016
v -2.108727 1.136667 -0.199016
v -2.181053 1.064342 -0.199016
v -2.108728 1.064342 -0.271341
v -2.108728 0.815012 -0.271341
v -2.181053 0.815012 -0.199016
v -2.108727 0.742687 -0.199016
v -2.108727 0.742687 0.199016
v -2.108728 0.815012 0.271341
v -2.181053 0.815012 0.199016
v -0.614026 0.815012 0.271341
v -0.469376 1.064342 0.271341
v 0.469376 0.742687 0.271341
v 0.614026 0.815012 0.271341
v 0.614026 0.742687 0.199016
v 0.541701 0.670362 0.199016
v 0.469376 -0.366929 0.271341
v 0.469376 -0.511579 0.271341
v 0.541701 -0.511579 0.199016
v -1.361377 1.136667 0.199016
v -1.361377 1.136667 -0.199016
v -1.361377 1.064342 -0.271341
v -1.361377 0.815012 -0.271341
v -1.361377 0.742687 -0.199016
v -1.361377 0.742687 0.199016
v -1.361377 0.815012 0.271341
v -1.361377 1.064342 0.271341
v 1.361377 0.815012 -0.271341
v 1.361377 0.742687 -0.199016
v 1.361377 1.064342 -0.271341
v 1.361377 1.136667 -0.199016
v 1.361377 1.136667 0.199016
v 1.361377 0.815012 0.271341
v 1.361377 0.742687 0.199016
v 1.361377 1.064342 0.271341
vn -0.7588 -0.4606 0.4606
vn -0.4606 -0.7588 0.4606
vn -0.4606 -0.4606 0.7588
vn -0.4606 0.4606 0.7588
vn -0.4606 0.7588 0.4606
vn -0.7588 0.4606 0.4606
vn -0.4606 -0.4606 -0.7588
vn -0.4606 -0.7588 -0.4606
vn -0.7588 -0.4606 -0.4606
vn -0.4606 0.7588 -0.4606
vn -0.4606 0.4606 -0.7588
vn -0.7588 0.4606 -0.4606
vn 0.7588 -0.4606 0.4606
vn 0.4606 -0.4606 0.7588
vn 0.4606 -0.7588 0.4606
vn 0.4606 0.7588 0.4606
vn 0.4606 0.4606 0.7588
vn 0.7588 0.4606 0.4606
vn 0.4606 -0.7588 -0.4606
vn 0.4606 -0.4606 -0.7588
vn 0.7588 -0.4606 -0.4606
vn 0.4606 0.4606 -0.7588
vn 0.4606 0.7588 -0.4606
vn 0.7588 0.4606 -0.4606
vn -0.0000 -1.0000 -0.0000
vn 0.3549 -0.0633 0.9328
vn -1.0000 -0.0000 -0.0000
vn -0.9239 -0.0000 0.3827
vn -0.9239 -0.0000 -0.3827
vn -0.0000 0.3827 0.9239
vn -0.0000 0.9239 0.3827
vn -0.0000 1.0000 -0.0000
vn 0.0881 -0.0686 -0.9937
vn -0.0000 0.3827 -0.9239
vn -0.0000 0.9239 -0.3827
vn -0.0000 -0.0000 1.0000
vn -0.3549 -0.0633 -0.9328
vn 0.3827 -0.0000 -0.9239
vn -0.0154 0.0202 0.9997
vn 0.1130 -0.1936 -0.9746
vn 0.7252 -0.3979 -0.5619
vn 0.3558 -0.0631 -0.9324
vn -0.1936 -0.1130 0.9746
vn -0.3827 -0.0000 0.9239
vn 0.1130 -0.1936 0.9746
vn -0.0000 -0.3827 -0.9239
vn -0.0000 -0.7071 -0.7071
vn 0.3225 -0.7160 -0.6192
vn -0.3276 -0.7140 -0.6188
vn -0.3846 -0.0068 -0.9231
vn -0.7153 -0.4919 -0.4964
vn 0.3827 -0.0000 0.9239
vn -0.0793 -0.0659 -0.9947
vn 0.3853 -0.0063 -0.9228
vn 0.7161 -0.4915 -0.4955
vn 0.7108 -0.3215 0.6256
vn -0.3827 -0.0000 -0.9239
vn -0.0000 -0.0000 -1.0000
vn -0.1129 -0.1936 0.9746
vn -0.7252 -0.3979 0.5619
vn -0.3558 -0.0631 0.9324
vn -0.0633 -0.3550 0.9327
vn 1.0000 -0.0000 -0.0000
vn 0.9239 -0.0000 -0.3827
vn -0.1130 -0.1936 -0.9746
vn -0.7254 -0.3978 -0.5617
vn -0.7589 -0.5487 -0.3507
vn 0.7588 -0.5488 -0.3509
vn 0.7254 -0.3978 0.5617
vn -0.7588 -0.5488 0.3509
vn 0.7589 -0.5487 0.3507
vn 0.1936 -0.1130 0.9746
vn 0.3980 -0.7252 0.5619
vn 0.0631 -0.3558 0.9324
vn 0.9239 -0.0000 0.3827
vn -0.0000 0.7071 -0.7071
vn -0.0000 -0.7071 0.7071
vn -0.0154 -0.7212 0.6926
vn -0.0034 -0.7058 0.7084
vn -0.0000 0.7071 0.7071
vn -0.3978 -0.7255 0.5617
vn -0.7105 -0.3246 0.6244
vn 0.0307 -0.6659 -0.7454
vt 0.399483 0.023108
vt 0.375000 0.023108
vt 0.399483 0.000000
vt 0.600517 0.000000
vt 0.625000 0.023108
vt 0.600517 0.023108
vt 0.399483 0.274483
vt 0.375000 0.250694
vt 0.399483 0.227098
vt 0.625000 0.250694
vt 0.600517 0.274483
vt 0.600517 0.227098
vt 0.399265 0.726892
vt 0.392806 0.771145
vt 0.350517 0.726892
vt 0.649483 0.726892
vt 0.607194 0.771145
vt 0.600735 0.726892
vt 0.353655 0.517008
vt 0.399483 0.475517
vt 0.399483 0.522902
vt 0.600517 0.475517
vt 0.646345 0.517008
vt 0.600517 0.522902
vt 0.134550 0.533318
vt 0.125000 0.716681
vt 0.125000 0.533319
vt 0.562500 0.033318
vt 0.562500 0.216682
vt 0.187500 0.716682
vt 0.178153 0.750000
vt 0.177950 0.750000
vt 0.125000 0.532672
vt 0.615613 0.765433
vt 0.625000 0.716681
vt 0.641689 0.716681
vt 0.850517 0.523108
vt 0.850517 0.726892
vt 0.573973 0.216682
vt 0.613526 0.250000
vt 0.573973 0.250000
vt 0.573974 0.033318
vt 0.134550 0.716682
vt 0.134550 0.750000
vt 0.573974 0.483311
vt 0.613526 0.266041
vt 0.613527 0.483311
vt 0.625000 0.033318
vt 0.625000 0.217283
vt 0.600517 0.975517
vt 0.399483 0.975517
vt 0.625000 0.533319
vt 0.613526 0.716682
vt 0.613527 0.533319
vt 0.613527 0.033318
vt 0.573973 0.000000
vt 0.613526 0.000000
vt 0.365450 0.750000
vt 0.322050 0.716682
vt 0.365450 0.716682
vt 0.375000 0.447050
vt 0.386474 0.487778
vt 0.366424 0.499026
vt 0.573973 0.750000
vt 0.613672 0.750000
vt 0.187500 0.500000
vt 0.187500 0.532689
vt 0.177950 0.500000
vt 0.562500 0.983384
vt 0.386473 0.987793
vt 0.386474 0.912907
vt 0.573974 0.500000
vt 0.562500 0.533318
vt 0.562500 0.533319
vt 0.551026 0.266630
vt 0.551027 0.216682
vt 0.177950 0.533319
vt 0.177950 0.716682
vt 0.625000 0.248124
vt 0.625000 0.532717
vt 0.638277 0.523095
vt 0.375000 0.716682
vt 0.366424 0.750761
vt 0.573974 0.266689
vt 0.551027 0.483370
vt 0.551027 0.533318
vt 0.551027 0.716681
vt 0.134550 0.500000
vt 0.134337 0.750000
vt 0.312500 0.750000
vt 0.312500 0.716682
vt 0.321829 0.750000
vt 0.616553 0.000000
vt 0.573695 0.000000
vt 0.562500 0.000000
vt 0.562500 0.716682
vt 0.187500 0.533318
vt 0.386474 0.532485
vt 0.858311 0.716681
vt 0.386474 0.412780
vt 0.375000 0.437500
vt 0.375000 0.371399
vt 0.625000 0.216982
vt 0.573973 0.500000
vt 0.573974 0.533319
vt 0.375000 0.532672
vt 0.365450 0.500000
vt 0.237531 0.525218
vt 0.187500 0.716681
vt 0.246399 0.716682
vt 0.187500 0.750000
vt 0.239172 0.716682
vt 0.562500 0.766616
vt 0.573974 0.750000
vt 0.375000 0.378601
vt 0.322050 0.500000
vt 0.312500 0.533318
vt 0.613818 0.000000
vt 0.573974 0.250000
vt 0.613527 0.250000
vt 0.322050 0.533318
vt 0.613527 0.216682
vt 0.322050 0.750000
vt 0.312500 0.716681
vt 0.386474 0.033318
vt 0.551306 0.033318
vt 0.375000 0.533318
vt 0.365450 0.533318
vt 0.613818 0.750000
vt 0.573973 0.716681
vt 0.613527 0.500000
vt 0.850517 0.750000
vt 0.386362 0.762088
vt 0.386474 0.337220
vt 0.386474 0.262222
vt 0.149483 0.523108
vt 0.149483 0.726892
vt 0.375000 0.716681
vt 0.386188 0.716681
vt 0.613526 0.500000
vt 0.625000 0.216682
vt 0.613526 0.750000
vt 0.625000 0.716682
vt 0.573834 0.000000
vt 0.613672 0.000000
vt 0.386474 0.216682
vt 0.625000 0.533018
vt 0.858311 0.750000
vt 0.375000 0.802950
vt 0.386474 0.837093
vt 0.386473 0.000000
vt 0.132459 0.750000
vt 0.858311 0.533318
vt 0.246399 0.533319
vt 0.125000 0.526507
vt 0.149483 0.750000
vt 0.613527 0.983332
s 1
usemtl マテリアル.032
f 1/1/1 2/2/2 3/3/3
f 4/4/4 5/5/5 6/6/6
f 7/7/7 8/8/8 9/9/9
f 10/10/10 11/11/11 12/12/12
f 13/13/13 14/14/14 15/15/15
f 16/16/16 17/17/17 18/18/18
f 19/19/19 20/20/20 21/21/21
f 22/22/22 23/23/23 24/24/24
f 6/6/6 3/3/3 4/4/4
f 44/25/8 40/26/1 43/27/9
f 127/28/25 143/29/25 144/28/25
f 52/30/13 30/31/26 55/32/14
f 43/27/27 39/26/28 37/33/29
f 112/34/30 109/35/31 111/36/31
f 16/16/32 10/37/32 5/38/32
f 125/39/9 123/40/11 124/41/7
f 129/42/1 126/29/8 127/28/2
f 42/43/2 55/32/14 41/44/3
f 8/8/8 1/1/1 9/9/9
f 85/45/33 89/46/34 91/47/34
f 11/11/11 9/9/9 12/12/12
f 113/48/31 115/49/35 116/48/31
f 14/14/36 4/50/36 3/51/36
f 106/52/23 102/53/18 105/54/24
f 120/55/6 128/56/3 119/57/4
f 72/58/14 69/59/2 71/60/15
f 80/61/37 78/62/38 77/63/38
f 101/64/36 154/65/36 152/64/39
f 49/66/40 48/67/41 47/68/42
f 29/69/43 25/70/44 28/71/45
f 94/72/46 148/73/47 95/74/48
f 34/29/49 86/75/50 33/76/51
f 42/43/25 51/77/25 56/78/25
f 10/10/10 22/22/22 11/11/11
f 114/79/35 91/47/34 89/46/34
f 108/80/35 91/47/34 93/81/35
f 73/82/13 137/83/52 72/58/14
f 87/84/53 84/85/54 86/75/50
f 82/86/55 78/62/38 84/85/54
f 41/44/3 40/26/1 42/43/2
f 95/74/48 135/87/56 82/86/55
f 44/25/8 43/27/9 45/88/7
f 41/44/36 30/31/26 26/89/44
f 38/88/57 46/68/58 45/88/58
f 38/88/57 43/27/9 37/33/29
f 12/12/12 5/5/5 10/10/10
f 65/90/59 62/91/60 63/92/61
f 131/93/30 130/94/62 29/95/43
f 153/96/25 97/74/25 99/96/25
f 50/97/21 51/77/19 46/68/20
f 135/87/63 81/98/64 82/86/63
f 93/81/35 113/99/31 111/36/31
f 9/9/27 6/6/27 12/12/27
f 61/100/65 60/101/66 59/102/67
f 140/103/32 116/48/31 115/49/35
f 21/21/21 15/15/15 19/19/19
f 55/32/14 56/78/15 52/30/13
f 96/104/20 105/54/24 98/105/21
f 79/106/64 76/107/20 77/63/38
f 58/108/68 53/109/69 48/67/41
f 57/110/70 28/111/45 54/112/71
f 51/77/19 45/88/7 46/68/20
f 132/113/72 134/96/73 133/114/74
f 24/24/24 20/20/20 22/22/22
f 58/115/68 61/100/65 59/102/67
f 80/116/37 66/117/9 60/117/66
f 53/109/69 28/111/45 30/31/26
f 144/28/25 34/29/25 32/28/25
f 131/93/30 116/48/31 117/118/30
f 89/46/34 88/119/46 90/120/34
f 67/116/7 68/121/8 66/117/9
f 125/39/27 120/55/27 122/122/27
f 57/110/70 60/117/66 62/91/60
f 70/123/3 64/124/1 69/59/2
f 33/76/27 27/125/28 31/126/27
f 72/58/14 71/60/15 73/82/13
f 17/17/17 13/13/13 18/18/18
f 75/127/21 74/128/19 76/107/20
f 70/123/36 137/83/52 63/92/61
f 80/116/37 76/107/58 67/116/58
f 67/116/7 74/128/19 68/121/8
f 112/34/30 133/114/74 110/129/30
f 23/23/23 18/18/18 24/24/24
f 99/96/15 98/105/21 100/130/13
f 70/123/3 62/91/60 64/124/1
f 85/45/33 92/131/34 94/72/46
f 34/29/49 142/119/47 88/119/46
f 4/132/4 16/16/16 5/38/5
f 136/133/52 135/87/56 132/113/72
f 151/35/32 108/80/35 109/35/31
f 95/74/48 84/85/54 85/45/33
f 49/134/40 36/135/57 86/75/50
f 61/100/65 49/134/40 86/75/50
f 58/108/32 57/110/32 54/112/32
f 34/29/49 88/119/46 87/84/53
f 8/136/25 15/15/25 2/137/25
f 142/119/58 90/120/34 88/119/46
f 79/106/64 73/82/63 75/127/63
f 138/138/75 81/98/64 83/139/75
f 138/138/75 136/133/52 137/83/52
f 85/45/33 94/72/46 95/74/48
f 149/140/76 106/52/23 107/140/22
f 56/78/15 50/97/21 52/30/13
f 96/104/20 98/105/21 97/74/19
f 134/96/25 148/73/25 153/96/25
f 37/33/29 36/88/57 38/88/57
f 14/14/14 2/137/2 15/15/15
f 101/64/14 99/96/15 100/130/13
f 121/141/32 139/48/32 140/103/32
f 103/142/17 102/53/18 104/143/16
f 105/54/63 100/130/63 98/105/63
f 106/52/23 105/54/24 107/140/22
f 103/142/17 100/130/13 102/53/18
f 140/103/76 90/120/34 141/120/76
f 74/128/25 69/59/25 68/121/25
f 46/68/20 48/67/41 50/97/21
f 144/28/77 130/94/62 145/144/78
f 52/30/63 48/67/63 53/109/63
f 119/57/36 145/144/36 146/145/36
f 112/34/30 29/69/43 132/113/72
f 60/117/27 64/124/27 62/91/27
f 93/81/35 109/35/31 108/80/35
f 86/75/50 35/146/29 33/76/51
f 152/64/77 134/96/73 153/96/79
f 75/127/21 71/60/15 74/128/19
f 118/48/5 120/55/6 119/57/4
f 104/143/32 150/147/32 151/35/32
f 121/141/10 123/40/11 122/122/12
f 154/65/80 104/143/16 151/35/80
f 33/76/51 32/28/81 34/29/49
f 19/19/19 7/7/7 20/20/20
f 124/41/7 126/29/8 125/39/9
f 147/72/47 97/74/19 148/73/47
f 124/41/58 141/120/58 142/119/58
f 131/148/30 111/36/31 113/99/31
f 146/145/80 116/48/31 139/48/80
f 128/56/3 129/42/1 127/28/2
f 84/85/54 61/100/65 86/75/50
f 146/145/36 130/94/62 117/118/30
f 64/124/1 68/121/8 69/59/2
f 99/96/15 152/64/77 153/96/79
f 7/7/58 22/22/58 20/20/58
f 21/21/63 18/18/63 13/13/63
f 90/120/34 114/79/35 89/46/34
f 136/133/52 63/149/61 137/83/52
f 152/64/39 110/129/30 133/114/74
f 29/95/43 32/28/81 31/126/82
f 132/113/72 65/150/59 136/133/52
f 122/122/12 118/48/5 121/141/10
f 41/44/3 39/26/28 40/26/1
f 127/28/2 145/144/78 128/56/3
f 25/151/44 31/126/82 27/125/28
f 110/129/30 151/35/80 109/35/31
f 79/106/64 78/62/38 81/98/64
f 47/68/42 36/88/57 49/66/40
f 30/31/26 25/152/44 26/89/44
f 108/80/35 149/140/76 92/131/34
f 107/140/58 147/72/58 149/140/58
f 142/119/47 126/29/8 124/41/7
f 27/26/28 37/33/29 39/26/28
f 118/48/5 146/145/80 139/48/80
f 121/141/10 141/120/76 123/40/11
f 57/110/70 65/90/59 28/111/45
f 29/69/43 28/71/45 65/150/59
f 58/115/68 49/134/40 61/100/65
f 149/140/58 94/72/46 92/131/34
f 39/26/28 25/152/44 27/26/28
f 6/6/6 1/1/1 3/3/3
f 44/25/8 42/43/2 40/26/1
f 127/28/25 126/29/25 143/29/25
f 52/30/13 53/109/69 30/31/26
f 43/27/27 40/26/27 39/26/28
f 112/34/30 110/129/30 109/35/31
f 16/16/32 23/23/32 10/37/32
f 125/39/9 122/122/12 123/40/11
f 129/42/1 125/39/9 126/29/8
f 42/43/2 56/78/15 55/32/14
f 8/8/8 2/2/2 1/1/1
f 85/45/33 87/84/53 89/46/34
f 11/11/11 7/7/7 9/9/9
f 113/48/31 114/79/35 115/49/35
f 14/14/36 17/17/36 4/50/36
f 106/52/23 104/143/16 102/53/18
f 120/55/6 129/42/1 128/56/3
f 72/58/14 70/123/3 69/59/2
f 80/61/37 61/100/65 78/62/38
f 101/64/36 103/142/36 154/65/36
f 49/66/40 58/108/68 48/67/41
f 94/72/46 147/72/47 148/73/47
f 34/29/49 87/84/53 86/75/50
f 42/43/25 44/25/25 51/77/25
f 10/10/10 23/23/23 22/22/22
f 114/79/35 93/81/35 91/47/34
f 108/80/35 92/131/34 91/47/34
f 73/82/13 138/138/75 137/83/52
f 87/84/53 85/45/33 84/85/54
f 82/86/55 81/98/64 78/62/38
f 95/74/48 134/96/73 135/87/56
f 41/44/36 55/32/36 30/31/26
f 38/88/57 47/68/42 46/68/58
f 38/88/57 45/88/7 43/27/9
f 12/12/12 6/6/6 5/5/5
f 65/90/59 57/110/70 62/91/60
f 131/93/30 117/118/30 130/94/62
f 153/96/25 148/73/25 97/74/25
f 135/87/63 83/139/75 81/98/64
f 93/81/35 114/153/35 113/99/31
f 9/9/27 1/1/27 6/6/27
f 61/100/65 80/61/37 60/101/66
f 140/103/32 139/48/32 116/48/31
f 21/21/21 13/13/13 15/15/15
f 96/104/20 107/140/22 105/54/24
f 79/106/64 75/127/21 76/107/20
f 58/108/68 54/112/71 53/109/69
f 51/77/19 44/25/8 45/88/7
f 132/113/72 135/87/56 134/96/73
f 24/24/24 21/21/21 20/20/20
f 80/116/37 67/116/7 66/117/9
f 53/109/69 54/112/71 28/111/45
f 144/28/25 143/29/25 34/29/25
f 131/93/30 113/48/31 116/48/31
f 89/46/34 87/84/53 88/119/46
f 125/39/27 129/42/27 120/55/27
f 57/110/70 59/154/67 60/117/66
f 33/76/27 35/146/29 27/125/28
f 17/17/17 14/14/14 13/13/13
f 70/123/36 72/58/36 137/83/52
f 80/116/37 77/63/38 76/107/58
f 67/116/7 76/107/20 74/128/19
f 112/34/30 132/113/72 133/114/74
f 23/23/23 16/16/16 18/18/18
f 99/96/15 97/74/19 98/105/21
f 70/123/3 63/92/61 62/91/60
f 85/45/33 91/47/34 92/131/34
f 34/29/49 143/29/83 142/119/47
f 4/132/4 17/17/17 16/16/16
f 136/133/52 83/139/75 135/87/56
f 151/35/32 150/147/32 108/80/35
f 95/74/48 82/86/55 84/85/54
f 58/108/32 59/154/32 57/110/32
f 8/136/25 19/19/25 15/15/25
f 142/119/58 141/120/58 90/120/34
f 79/106/64 138/138/75 73/82/63
f 138/138/75 79/106/64 81/98/64
f 138/138/75 83/139/75 136/133/52
f 149/140/76 150/147/76 106/52/23
f 56/78/15 51/77/19 50/97/21
f 134/96/25 95/74/25 148/73/25
f 37/33/29 35/155/29 36/88/57
f 14/14/14 3/156/3 2/137/2
f 121/141/32 118/48/32 139/48/32
f 105/54/63 102/53/63 100/130/63
f 103/142/17 101/64/14 100/130/13
f 140/103/76 115/49/35 90/120/34
f 74/128/25 71/60/25 69/59/25
f 46/68/20 47/68/42 48/67/41
f 144/28/77 32/28/81 130/94/62
f 52/30/63 50/97/63 48/67/63
f 119/57/36 128/56/36 145/144/36
f 112/34/30 131/157/30 29/69/43
f 60/117/27 66/117/27 64/124/27
f 93/81/35 111/36/31 109/35/31
f 86/75/50 36/135/57 35/146/29
f 152/64/77 133/114/74 134/96/73
f 75/127/21 73/82/13 71/60/15
f 104/143/32 106/52/32 150/147/32
f 154/65/80 103/142/17 104/143/16
f 33/76/51 31/126/82 32/28/81
f 19/19/19 8/8/8 7/7/7
f 147/72/47 96/104/20 97/74/19
f 124/41/58 123/40/58 141/120/58
f 131/148/30 112/34/30 111/36/31
f 146/145/80 117/118/30 116/48/31
f 84/85/54 78/62/38 61/100/65
f 146/145/36 145/144/36 130/94/62
f 64/124/1 66/117/9 68/121/8
f 99/96/15 101/64/14 152/64/77
f 7/7/58 11/11/58 22/22/58
f 21/21/63 24/24/63 18/18/63
f 90/120/34 115/49/35 114/79/35
f 136/133/52 65/150/59 63/149/61
f 152/64/39 154/65/36 110/129/30
f 29/95/43 130/94/62 32/28/81
f 132/113/72 29/69/43 65/150/59
f 122/122/12 120/55/6 118/48/5
f 41/44/3 26/89/44 39/26/28
f 127/28/2 144/28/77 145/144/78
f 25/151/44 29/95/43 31/126/82
f 110/129/30 154/65/80 151/35/80
f 79/106/64 77/63/38 78/62/38
f 47/68/42 38/88/57 36/88/57
f 30/31/26 28/111/45 25/152/44
f 108/80/35 150/147/76 149/140/76
f 107/140/58 96/104/58 147/72/58
f 142/119/47 143/29/83 126/29/8
f 27/26/28 35/155/29 37/33/29
f 118/48/5 119/57/4 146/145/80
f 121/141/10 140/103/76 141/120/76
f 149/140/58 147/72/58 94/72/46
f 39/26/28 26/89/44 25/152/44
