# Blender 4.4.0
# www.blender.org
mtllib steelBundle.mtl
o 立方体.002
v -3.100000 -3.060000 4.250000
v -2.797887 2.700000 4.250000
v -3.100000 -3.060000 3.750000
v -2.797887 2.700000 3.750000
v 2.747192 -3.060000 4.250000
v 3.029170 2.700000 4.250000
v 2.747192 -3.060000 3.750000
v 3.029170 2.700000 3.750000
v -3.009121 -2.968410 3.750000
v -2.707007 2.608410 3.750000
v 2.656313 -2.968410 3.750000
v 2.938291 2.608410 3.750000
v 2.656313 -2.968410 4.250000
v 2.938291 2.608410 4.250000
v -3.009121 -2.968410 4.250000
v -2.707007 2.608410 4.250000
v -3.100000 -0.177655 4.250000
v -3.100000 -0.177655 3.750000
v -3.009121 -0.177730 3.750000
v -3.009121 -0.177730 4.250000
v -3.009121 1.793883 4.250000
v -3.009121 1.793883 3.750000
v -3.100000 1.794680 3.750000
v -3.100000 1.794680 4.250000
v 3.100000 0.972660 3.750000
v 3.009121 0.974373 3.750000
v 3.100000 0.972660 4.250000
v 3.009121 0.974373 4.250000
v 3.100000 -2.223663 3.750000
v 3.009121 -2.222361 3.750000
v 3.100000 -2.223663 4.250000
v 3.009121 -2.222361 4.250000
v -3.100000 -3.060000 -3.750000
v -2.797886 2.700000 -3.750000
v -3.100000 -3.060000 -4.250000
v -2.797886 2.700000 -4.250000
v 2.747192 -3.060000 -3.750000
v 3.029170 2.700000 -3.750000
v 2.747192 -3.060000 -4.250000
v 3.029170 2.700000 -4.250000
v -3.009120 -2.968410 -4.250000
v -2.707007 2.608410 -4.250000
v 2.656313 -2.968410 -4.250000
v 2.938290 2.608410 -4.250000
v 2.656313 -2.968410 -3.750000
v 2.938290 2.608410 -3.750000
v -3.009120 -2.968410 -3.750000
v -2.707007 2.608410 -3.750000
v -3.100000 -0.177655 -3.750000
v -3.100000 -0.177655 -4.250000
v -3.009120 -0.177730 -4.250000
v -3.009120 -0.177730 -3.750000
v -3.009120 1.793883 -3.750000
v -3.009120 1.793883 -4.250000
v -3.100000 1.794680 -4.250000
v -3.100000 1.794680 -3.750000
v 3.100000 0.972660 -4.250000
v 3.009120 0.974373 -4.250000
v 3.100000 0.972660 -3.750000
v 3.009120 0.974373 -3.750000
v 3.100000 -2.223663 -4.250000
v 3.009120 -2.222361 -4.250000
v 3.100000 -2.223663 -3.750000
v 3.009120 -2.222361 -3.750000
v -0.690000 0.140819 7.096643
v -0.690000 0.290819 7.096643
v -0.690000 0.140819 -6.903357
v -0.690000 0.290819 -6.903357
v 0.910000 0.140819 7.096643
v 0.910000 0.290819 7.096643
v 0.910000 0.140819 -6.903357
v 0.910000 0.290819 -6.903357
v 0.910000 -0.534181 7.096643
v 0.910000 0.965819 7.096643
v 0.910000 -0.534181 -6.903357
v 0.910000 0.965819 -6.903357
v 1.051176 -0.534181 7.096643
v 1.051176 0.965819 7.096643
v 1.051176 -0.534181 -6.903357
v 1.051176 0.965819 -6.903357
v -0.831176 -0.534181 7.096643
v -0.831176 0.965819 7.096643
v -0.831176 -0.534181 -6.903357
v -0.831176 0.965819 -6.903357
v -0.690000 -0.534181 7.096643
v -0.690000 0.965819 7.096643
v -0.690000 -0.534181 -6.903357
v -0.690000 0.965819 -6.903357
v -2.845294 -2.325000 7.054369
v -2.845294 -2.175000 7.054369
v -2.845294 -2.325000 -6.945630
v -2.845294 -2.175000 -6.945630
v -1.245294 -2.325000 7.054369
v -1.245294 -2.175000 7.054369
v -1.245294 -2.325000 -6.945630
v -1.245294 -2.175000 -6.945630
v -1.245294 -3.000000 7.054369
v -1.245294 -1.500000 7.054369
v -1.245294 -3.000000 -6.945630
v -1.245294 -1.500000 -6.945630
v -1.104117 -3.000000 7.054369
v -1.104117 -1.500000 7.054369
v -1.104117 -3.000000 -6.945630
v -1.104117 -1.500000 -6.945630
v -2.986470 -3.000000 7.054369
v -2.986470 -1.500000 7.054369
v -2.986470 -3.000000 -6.945630
v -2.986470 -1.500000 -6.945630
v -2.845294 -3.000000 7.054369
v -2.845294 -1.500000 7.054369
v -2.845294 -3.000000 -6.945630
v -2.845294 -1.500000 -6.945630
v -0.962941 -2.325000 7.000000
v -0.962941 -2.175000 7.000000
v -0.962941 -2.325000 -6.999999
v -0.962941 -2.175000 -6.999999
v 0.637059 -2.325000 7.000000
v 0.637059 -2.175000 7.000000
v 0.637059 -2.325000 -6.999999
v 0.637059 -2.175000 -6.999999
v 0.637059 -3.000000 7.000000
v 0.637059 -1.500000 7.000000
v 0.637059 -3.000000 -6.999999
v 0.637059 -1.500000 -6.999999
v 0.778235 -3.000000 7.000000
v 0.778235 -1.500000 7.000000
v 0.778235 -3.000000 -6.999999
v 0.778235 -1.500000 -6.999999
v -1.104118 -3.000000 7.000000
v -1.104118 -1.500000 7.000000
v -1.104118 -3.000000 -6.999999
v -1.104118 -1.500000 -6.999999
v -0.962941 -3.000000 7.000000
v -0.962941 -1.500000 7.000000
v -0.962941 -3.000000 -6.999999
v -0.962941 -1.500000 -6.999999
v 0.919412 -2.325000 7.103723
v 0.919412 -2.175000 7.103723
v 0.919412 -2.325000 -6.896277
v 0.919412 -2.175000 -6.896277
v 2.519411 -2.325000 7.103723
v 2.519411 -2.175000 7.103723
v 2.519411 -2.325000 -6.896277
v 2.519411 -2.175000 -6.896277
v 2.519411 -3.000000 7.103723
v 2.519411 -1.500000 7.103723
v 2.519411 -3.000000 -6.896277
v 2.519411 -1.500000 -6.896277
v 2.660588 -3.000000 7.103723
v 2.660588 -1.500000 7.103723
v 2.660588 -3.000000 -6.896277
v 2.660588 -1.500000 -6.896277
v 0.778235 -3.000000 7.103723
v 0.778235 -1.500000 7.103723
v 0.778235 -3.000000 -6.896277
v 0.778235 -1.500000 -6.896277
v 0.919412 -3.000000 7.103723
v 0.919412 -1.500000 7.103723
v 0.919412 -3.000000 -6.896277
v 0.919412 -1.500000 -6.896277
v -2.562941 -1.505000 7.000000
v -2.562941 -1.355000 7.000000
v -2.562941 -1.505000 -6.999999
v -2.562941 -1.355000 -6.999999
v -0.962941 -1.505000 7.000000
v -0.962941 -1.355000 7.000000
v -0.962941 -1.505000 -6.999999
v -0.962941 -1.355000 -6.999999
v -0.962941 -2.180000 7.000000
v -0.962941 -0.680000 7.000000
v -0.962941 -2.180000 -6.999999
v -0.962941 -0.680000 -6.999999
v -0.821764 -2.180000 7.000000
v -0.821764 -0.680000 7.000000
v -0.821764 -2.180000 -6.999999
v -0.821764 -0.680000 -6.999999
v -2.704118 -2.180000 7.000000
v -2.704118 -0.680000 7.000000
v -2.704118 -2.180000 -6.999999
v -2.704118 -0.680000 -6.999999
v -2.562941 -2.180000 7.000000
v -2.562941 -0.680000 7.000000
v -2.562941 -2.180000 -6.999999
v -2.562941 -0.680000 -6.999999
v -0.690000 -1.505000 6.844421
v -0.690000 -1.355000 6.844421
v -0.690000 -1.505000 -7.155578
v -0.690000 -1.355000 -7.155578
v 0.910000 -1.505000 6.844421
v 0.910000 -1.355000 6.844421
v 0.910000 -1.505000 -7.155578
v 0.910000 -1.355000 -7.155578
v 0.910000 -2.180000 6.844421
v 0.910000 -0.680000 6.844421
v 0.910000 -2.180000 -7.155578
v 0.910000 -0.680000 -7.155578
v 1.051176 -2.180000 6.844421
v 1.051176 -0.680000 6.844421
v 1.051176 -2.180000 -7.155578
v 1.051176 -0.680000 -7.155578
v -0.831176 -2.180000 6.844421
v -0.831176 -0.680000 6.844421
v -0.831176 -2.180000 -7.155578
v -0.831176 -0.680000 -7.155578
v -0.690000 -2.180000 6.844421
v -0.690000 -0.680000 6.844421
v -0.690000 -2.180000 -7.155578
v -0.690000 -0.680000 -7.155578
v 1.222078 -1.505000 7.059334
v 1.222078 -1.355000 7.059334
v 1.222078 -1.505000 -6.940665
v 1.222078 -1.355000 -6.940665
v 2.822078 -1.505000 7.059334
v 2.822078 -1.355000 7.059334
v 2.822078 -1.505000 -6.940665
v 2.822078 -1.355000 -6.940665
v 2.822078 -2.180000 7.059334
v 2.822078 -0.680000 7.059334
v 2.822078 -2.180000 -6.940665
v 2.822078 -0.680000 -6.940665
v 2.963254 -2.180000 7.059334
v 2.963254 -0.680000 7.059334
v 2.963254 -2.180000 -6.940665
v 2.963254 -0.680000 -6.940665
v 1.080902 -2.180000 7.059334
v 1.080902 -0.680000 7.059334
v 1.080902 -2.180000 -6.940665
v 1.080902 -0.680000 -6.940665
v 1.222078 -2.180000 7.059334
v 1.222078 -0.680000 7.059334
v 1.222078 -2.180000 -6.940665
v 1.222078 -0.680000 -6.940665
v 0.919412 -2.325000 7.000000
v 0.919412 -2.175000 7.000000
v 0.919412 -2.325000 -6.999999
v 0.919412 -2.175000 -6.999999
v 2.519411 -2.325000 7.000000
v 2.519411 -2.175000 7.000000
v 2.519411 -2.325000 -6.999999
v 2.519411 -2.175000 -6.999999
v 2.519411 -3.000000 7.000000
v 2.519411 -1.500000 7.000000
v 2.519411 -3.000000 -6.999999
v 2.519411 -1.500000 -6.999999
v 2.660588 -3.000000 7.000000
v 2.660588 -1.500000 7.000000
v 2.660588 -3.000000 -6.999999
v 2.660588 -1.500000 -6.999999
v 0.778235 -3.000000 7.000000
v 0.778235 -1.500000 7.000000
v 0.778235 -3.000000 -6.999999
v 0.778235 -1.500000 -6.999999
v 0.919412 -3.000000 7.000000
v 0.919412 -1.500000 7.000000
v 0.919412 -3.000000 -6.999999
v 0.919412 -1.500000 -6.999999
v -2.845294 -2.325000 7.000000
v -2.845294 -2.175000 7.000000
v -2.845294 -2.325000 -6.999999
v -2.845294 -2.175000 -6.999999
v -1.245294 -2.325000 7.000000
v -1.245294 -2.175000 7.000000
v -1.245294 -2.325000 -6.999999
v -1.245294 -2.175000 -6.999999
v -1.245294 -3.000000 7.000000
v -1.245294 -1.500000 7.000000
v -1.245294 -3.000000 -6.999999
v -1.245294 -1.500000 -6.999999
v -1.104117 -3.000000 7.000000
v -1.104117 -1.500000 7.000000
v -1.104117 -3.000000 -6.999999
v -1.104117 -1.500000 -6.999999
v -2.986470 -3.000000 7.000000
v -2.986470 -1.500000 7.000000
v -2.986470 -3.000000 -6.999999
v -2.986470 -1.500000 -6.999999
v -2.845294 -3.000000 7.000000
v -2.845294 -1.500000 7.000000
v -2.845294 -3.000000 -6.999999
v -2.845294 -1.500000 -6.999999
v -0.962941 -2.325000 7.000000
v -0.962941 -2.175000 7.000000
v -0.962941 -2.325000 -6.999999
v -0.962941 -2.175000 -6.999999
v 0.637059 -2.325000 7.000000
v 0.637059 -2.175000 7.000000
v 0.637059 -2.325000 -6.999999
v 0.637059 -2.175000 -6.999999
v 0.637059 -3.000000 7.000000
v 0.637059 -1.500000 7.000000
v 0.637059 -3.000000 -6.999999
v 0.637059 -1.500000 -6.999999
v 0.778235 -3.000000 7.000000
v 0.778235 -1.500000 7.000000
v 0.778235 -3.000000 -6.999999
v 0.778235 -1.500000 -6.999999
v -1.104118 -3.000000 7.000000
v -1.104118 -1.500000 7.000000
v -1.104118 -3.000000 -6.999999
v -1.104118 -1.500000 -6.999999
v -0.962941 -3.000000 7.000000
v -0.962941 -1.500000 7.000000
v -0.962941 -3.000000 -6.999999
v -0.962941 -1.500000 -6.999999
v 0.919412 -0.675014 7.000000
v 0.919412 -0.525014 7.000000
v 0.919412 -0.675014 -6.999999
v 0.919412 -0.525014 -6.999999
v 2.519411 -0.675014 7.000000
v 2.519411 -0.525014 7.000000
v 2.519411 -0.675014 -6.999999
v 2.519411 -0.525014 -6.999999
v 2.519411 -1.350014 7.000000
v 2.519411 0.149986 7.000000
v 2.519411 -1.350014 -6.999999
v 2.519411 0.149986 -6.999999
v 2.660588 -1.350014 7.000000
v 2.660588 0.149986 7.000000
v 2.660588 -1.350014 -6.999999
v 2.660588 0.149986 -6.999999
v 0.778235 -1.350014 7.000000
v 0.778235 0.149986 7.000000
v 0.778235 -1.350014 -6.999999
v 0.778235 0.149986 -6.999999
v 0.919412 -1.350014 7.000000
v 0.919412 0.149986 7.000000
v 0.919412 -1.350014 -6.999999
v 0.919412 0.149986 -6.999999
v -2.845294 -0.675014 7.000000
v -2.845294 -0.525014 7.000000
v -2.845294 -0.675014 -6.999999
v -2.845294 -0.525014 -6.999999
v -1.245294 -0.675014 7.000000
v -1.245294 -0.525014 7.000000
v -1.245294 -0.675014 -6.999999
v -1.245294 -0.525014 -6.999999
v -1.245294 -1.350014 7.000000
v -1.245294 0.149986 7.000000
v -1.245294 -1.350014 -6.999999
v -1.245294 0.149986 -6.999999
v -1.104117 -1.350014 7.000000
v -1.104117 0.149986 7.000000
v -1.104117 -1.350014 -6.999999
v -1.104117 0.149986 -6.999999
v -2.986470 -1.350014 7.000000
v -2.986470 0.149986 7.000000
v -2.986470 -1.350014 -6.999999
v -2.986470 0.149986 -6.999999
v -2.845294 -1.350014 7.000000
v -2.845294 0.149986 7.000000
v -2.845294 -1.350014 -6.999999
v -2.845294 0.149986 -6.999999
v -0.962941 -0.675014 7.240934
v -0.962941 -0.525014 7.240934
v -0.962941 -0.675014 -6.759066
v -0.962941 -0.525014 -6.759066
v 0.637059 -0.675014 7.240934
v 0.637059 -0.525014 7.240934
v 0.637059 -0.675014 -6.759066
v 0.637059 -0.525014 -6.759066
v 0.637059 -1.350014 7.240934
v 0.637059 0.149986 7.240934
v 0.637059 -1.350014 -6.759066
v 0.637059 0.149986 -6.759066
v 0.778235 -1.350014 7.240934
v 0.778235 0.149986 7.240934
v 0.778235 -1.350014 -6.759066
v 0.778235 0.149986 -6.759066
v -1.104118 -1.350014 7.240934
v -1.104118 0.149986 7.240934
v -1.104118 -1.350014 -6.759066
v -1.104118 0.149986 -6.759066
v -0.962941 -1.350014 7.240934
v -0.962941 0.149986 7.240934
v -0.962941 -1.350014 -6.759066
v -0.962941 0.149986 -6.759066
v 1.258829 0.140819 7.020117
v 1.258829 0.290819 7.020117
v 1.258829 0.140819 -6.979882
v 1.258829 0.290819 -6.979882
v 2.858829 0.140819 7.020117
v 2.858829 0.290819 7.020117
v 2.858829 0.140819 -6.979882
v 2.858829 0.290819 -6.979882
v 2.858829 -0.534181 7.020117
v 2.858829 0.965819 7.020117
v 2.858829 -0.534181 -6.979882
v 2.858829 0.965819 -6.979882
v 3.000005 -0.534181 7.020117
v 3.000005 0.965819 7.020117
v 3.000005 -0.534181 -6.979882
v 3.000005 0.965819 -6.979882
v 1.117653 -0.534181 7.020117
v 1.117653 0.965819 7.020117
v 1.117653 -0.534181 -6.979882
v 1.117653 0.965819 -6.979882
v 1.258829 -0.534181 7.020117
v 1.258829 0.965819 7.020117
v 1.258829 -0.534181 -6.979882
v 1.258829 0.965819 -6.979882
v -2.562941 0.140819 7.059882
v -2.562941 0.290819 7.059882
v -2.562941 0.140819 -6.940118
v -2.562941 0.290819 -6.940118
v -0.962941 0.140819 7.059882
v -0.962941 0.290819 7.059882
v -0.962941 0.140819 -6.940118
v -0.962941 0.290819 -6.940118
v -0.962941 -0.534181 7.059882
v -0.962941 0.965819 7.059882
v -0.962941 -0.534181 -6.940118
v -0.962941 0.965819 -6.940118
v -0.821764 -0.534181 7.059882
v -0.821764 0.965819 7.059882
v -0.821764 -0.534181 -6.940118
v -0.821764 0.965819 -6.940118
v -2.704118 -0.534181 7.059882
v -2.704118 0.965819 7.059882
v -2.704118 -0.534181 -6.940118
v -2.704118 0.965819 -6.940118
v -2.562941 -0.534181 7.059882
v -2.562941 0.965819 7.059882
v -2.562941 -0.534181 -6.940118
v -2.562941 0.965819 -6.940118
v -0.962941 0.967066 7.046784
v -0.962941 1.117066 7.046784
v -0.962941 0.967066 -6.953216
v -0.962941 1.117066 -6.953216
v 0.637059 0.967066 7.046784
v 0.637059 1.117066 7.046784
v 0.637059 0.967066 -6.953216
v 0.637059 1.117066 -6.953216
v 0.637059 0.292066 7.046784
v 0.637059 1.792066 7.046784
v 0.637059 0.292066 -6.953216
v 0.637059 1.792066 -6.953216
v 0.778235 0.292066 7.046784
v 0.778235 1.792066 7.046784
v 0.778235 0.292066 -6.953216
v 0.778235 1.792066 -6.953216
v -1.104118 0.292066 7.046784
v -1.104118 1.792066 7.046784
v -1.104118 0.292066 -6.953216
v -1.104118 1.792066 -6.953216
v -0.962941 0.292066 7.046784
v -0.962941 1.792066 7.046784
v -0.962941 0.292066 -6.953216
v -0.962941 1.792066 -6.953216
v -2.860352 0.967066 7.106257
v -2.860352 1.117066 7.106257
v -2.860352 0.967066 -6.893743
v -2.860352 1.117066 -6.893743
v -1.260352 0.967066 7.106257
v -1.260352 1.117066 7.106257
v -1.260352 0.967066 -6.893743
v -1.260352 1.117066 -6.893743
v -1.260352 0.292066 7.106257
v -1.260352 1.792066 7.106257
v -1.260352 0.292066 -6.893743
v -1.260352 1.792066 -6.893743
v -1.119175 0.292066 7.106257
v -1.119175 1.792066 7.106257
v -1.119175 0.292066 -6.893743
v -1.119175 1.792066 -6.893743
v -3.001528 0.292066 7.106257
v -3.001528 1.792066 7.106257
v -3.001528 0.292066 -6.893743
v -3.001528 1.792066 -6.893743
v -2.860352 0.292066 7.106257
v -2.860352 1.792066 7.106257
v -2.860352 0.292066 -6.893743
v -2.860352 1.792066 -6.893743
v 0.919412 0.967066 7.000000
v 0.919412 1.117066 7.000000
v 0.919412 0.967066 -6.999999
v 0.919412 1.117066 -6.999999
v 2.519411 0.967066 7.000000
v 2.519411 1.117066 7.000000
v 2.519411 0.967066 -6.999999
v 2.519411 1.117066 -6.999999
v 2.519411 0.292066 7.000000
v 2.519411 1.792066 7.000000
v 2.519411 0.292066 -6.999999
v 2.519411 1.792066 -6.999999
v 2.660588 0.292066 7.000000
v 2.660588 1.792066 7.000000
v 2.660588 0.292066 -6.999999
v 2.660588 1.792066 -6.999999
v 0.778235 0.292066 7.000000
v 0.778235 1.792066 7.000000
v 0.778235 0.292066 -6.999999
v 0.778235 1.792066 -6.999999
v 0.919412 0.292066 7.000000
v 0.919412 1.792066 7.000000
v 0.919412 0.292066 -6.999999
v 0.919412 1.792066 -6.999999
v -2.562941 1.782775 6.932408
v -2.562941 1.932775 6.932408
v -2.562941 1.782775 -7.067591
v -2.562941 1.932775 -7.067591
v -0.962941 1.782775 6.932408
v -0.962941 1.932775 6.932408
v -0.962941 1.782775 -7.067591
v -0.962941 1.932775 -7.067591
v -0.962941 1.107775 6.932408
v -0.962941 2.607775 6.932408
v -0.962941 1.107775 -7.067591
v -0.962941 2.607775 -7.067591
v -0.821764 1.107775 6.932408
v -0.821764 2.607775 6.932408
v -0.821764 1.107775 -7.067591
v -0.821764 2.607775 -7.067591
v -2.704118 1.107775 6.932408
v -2.704118 2.607775 6.932408
v -2.704118 1.107775 -7.067591
v -2.704118 2.607775 -7.067591
v -2.562941 1.107775 6.932408
v -2.562941 2.607775 6.932408
v -2.562941 1.107775 -7.067591
v -2.562941 2.607775 -7.067591
v -0.690000 1.782775 7.000000
v -0.690000 1.932775 7.000000
v -0.690000 1.782775 -6.999999
v -0.690000 1.932775 -6.999999
v 0.910000 1.782775 7.000000
v 0.910000 1.932775 7.000000
v 0.910000 1.782775 -6.999999
v 0.910000 1.932775 -6.999999
v 0.910000 1.107775 7.000000
v 0.910000 2.607775 7.000000
v 0.910000 1.107775 -6.999999
v 0.910000 2.607775 -6.999999
v 1.051176 1.107775 7.000000
v 1.051176 2.607775 7.000000
v 1.051176 1.107775 -6.999999
v 1.051176 2.607775 -6.999999
v -0.831176 1.107775 7.000000
v -0.831176 2.607775 7.000000
v -0.831176 1.107775 -6.999999
v -0.831176 2.607775 -6.999999
v -0.690000 1.107775 7.000000
v -0.690000 2.607775 7.000000
v -0.690000 1.107775 -6.999999
v -0.690000 2.607775 -6.999999
v 1.192353 1.782775 6.901203
v 1.192353 1.932775 6.901203
v 1.192353 1.782775 -7.098796
v 1.192353 1.932775 -7.098796
v 2.792353 1.782775 6.901203
v 2.792353 1.932775 6.901203
v 2.792353 1.782775 -7.098796
v 2.792353 1.932775 -7.098796
v 2.792353 1.107775 6.901203
v 2.792353 2.607775 6.901203
v 2.792353 1.107775 -7.098796
v 2.792353 2.607775 -7.098796
v 2.933529 1.107775 6.901203
v 2.933529 2.607775 6.901203
v 2.933529 1.107775 -7.098796
v 2.933529 2.607775 -7.098796
v 1.051176 1.107775 6.901203
v 1.051176 2.607775 6.901203
v 1.051176 1.107775 -7.098796
v 1.051176 2.607775 -7.098796
v 1.192353 1.107775 6.901203
v 1.192353 2.607775 6.901203
v 1.192353 1.107775 -7.098796
v 1.192353 2.607775 -7.098796
vn -0.0000 -0.0000 1.0000
vn -0.0000 -0.0000 -1.0000
vn -0.9486 0.3165 -0.0000
vn 0.9992 0.0410 -0.0000
vn -0.0000 -1.0000 -0.0000
vn -0.0000 1.0000 -0.0000
vn -0.9040 0.4275 -0.0000
vn 1.0000 -0.0000 -0.0000
vn 0.9376 -0.3478 -0.0000
vn -1.0000 -0.0000 -0.0000
vn -0.9991 -0.0433 -0.0000
vn 0.9214 -0.3887 -0.0000
vt 0.130670 0.897463
vt 0.135363 0.896935
vt 0.135936 0.897463
vt 0.105164 0.825343
vt 0.100450 0.824815
vt 0.105569 0.824815
vt 0.135936 0.753224
vt 0.130670 0.789284
vt 0.130670 0.753224
vt 0.135936 0.825343
vt 0.125371 0.861403
vt 0.125371 0.825343
vt 0.135363 0.861932
vt 0.135936 0.861403
vt 0.117921 0.897463
vt 0.100450 0.896935
vt 0.117921 0.896935
vt 0.099876 0.825343
vt 0.063817 0.861403
vt 0.063817 0.825343
vt 0.171996 0.825343
vt 0.135363 0.789812
vt 0.135936 0.789284
vt 0.280347 0.820056
vt 0.309904 0.825343
vt 0.309904 0.820056
vt 0.280347 0.825343
vt 0.309904 0.861403
vt 0.280347 0.789284
vt 0.309904 0.753224
vt 0.280347 0.753224
vt 0.093374 0.933609
vt 0.063817 0.915564
vt 0.063817 0.933609
vt 0.093374 0.902815
vt 0.063817 0.897549
vt 0.063817 0.902815
vt 0.100450 0.789812
vt 0.099876 0.789284
vt 0.117921 0.753224
vt 0.099876 0.753224
vt 0.117921 0.789284
vt 0.130264 0.789812
vt 0.117921 0.789812
vt 0.093374 0.915564
vt 0.130264 0.896935
vt 0.309904 0.799849
vt 0.309904 0.789284
vt 0.105569 0.861932
vt 0.125133 0.861932
vt 0.105164 0.861403
vt 0.135363 0.824815
vt 0.099876 0.861403
vt 0.100450 0.861932
vt 0.280347 0.799849
vt 0.125133 0.824815
vt 0.238935 0.897463
vt 0.243628 0.896935
vt 0.244201 0.897463
vt 0.213429 0.825343
vt 0.208715 0.824815
vt 0.213834 0.824815
vt 0.244201 0.753224
vt 0.238935 0.789284
vt 0.238935 0.753224
vt 0.244201 0.825343
vt 0.233636 0.861403
vt 0.233636 0.825343
vt 0.244201 0.861403
vt 0.243628 0.861932
vt 0.226186 0.897463
vt 0.208715 0.896935
vt 0.226186 0.896935
vt 0.208142 0.825343
vt 0.172082 0.861403
vt 0.172082 0.825343
vt 0.280261 0.825343
vt 0.244201 0.789284
vt 0.243628 0.824815
vt 0.243628 0.789812
vt 0.280347 0.928321
vt 0.309904 0.933609
vt 0.309904 0.928321
vt 0.280347 0.933609
vt 0.309904 0.969668
vt 0.280347 0.897549
vt 0.309904 0.861489
vt 0.280347 0.861489
vt 0.123017 0.933609
vt 0.093460 0.915564
vt 0.093460 0.933609
vt 0.123017 0.902815
vt 0.093460 0.897549
vt 0.093460 0.902815
vt 0.208715 0.789812
vt 0.208142 0.789284
vt 0.226186 0.753224
vt 0.208142 0.753224
vt 0.226186 0.789284
vt 0.238529 0.789812
vt 0.226186 0.789812
vt 0.123017 0.915564
vt 0.238529 0.896935
vt 0.309904 0.908114
vt 0.309904 0.897549
vt 0.213834 0.861932
vt 0.233398 0.861932
vt 0.213429 0.861403
vt 0.208142 0.861403
vt 0.208715 0.861932
vt 0.280347 0.908114
vt 0.233398 0.824815
vt 0.759881 0.744046
vt 0.751919 0.752007
vt 0.751919 0.744046
vt 0.759881 0.752007
vt 0.751919 0.759968
vt 0.759881 0.759968
vt 0.751919 0.767930
vt 0.759881 0.767930
vt 0.751919 0.775891
vt 0.743958 0.767930
vt 0.743958 0.759968
vt 0.767842 0.759968
vt 0.784112 0.744046
vt 0.776150 0.752007
vt 0.776150 0.744046
vt 0.784112 0.752007
vt 0.776150 0.759968
vt 0.784112 0.759968
vt 0.776150 0.767930
vt 0.784112 0.767930
vt 0.776150 0.775891
vt 0.768189 0.767930
vt 0.768189 0.759968
vt 0.792073 0.759968
vt 0.759881 0.776238
vt 0.751919 0.784199
vt 0.751919 0.776238
vt 0.759881 0.784199
vt 0.751919 0.792161
vt 0.759881 0.792161
vt 0.751919 0.800122
vt 0.759881 0.800122
vt 0.751919 0.808083
vt 0.743958 0.800122
vt 0.743958 0.792161
vt 0.767842 0.792161
vt 0.784112 0.776238
vt 0.776150 0.784199
vt 0.776150 0.776238
vt 0.784112 0.784199
vt 0.776150 0.792161
vt 0.784112 0.792161
vt 0.776150 0.800122
vt 0.784112 0.800122
vt 0.776150 0.808083
vt 0.768189 0.800122
vt 0.768189 0.792161
vt 0.792073 0.792161
vt 0.808343 0.744046
vt 0.800382 0.752007
vt 0.800382 0.744046
vt 0.808343 0.752007
vt 0.800382 0.759968
vt 0.808343 0.759968
vt 0.800382 0.767930
vt 0.808343 0.767930
vt 0.800382 0.775891
vt 0.792420 0.767930
vt 0.792420 0.759968
vt 0.816304 0.759968
vt 0.808343 0.776238
vt 0.800382 0.784199
vt 0.800382 0.776238
vt 0.808343 0.784199
vt 0.800382 0.792161
vt 0.808343 0.792161
vt 0.800382 0.800122
vt 0.808343 0.800122
vt 0.800382 0.808083
vt 0.792420 0.800122
vt 0.792420 0.792161
vt 0.816304 0.792161
vt 0.759881 0.808430
vt 0.751919 0.816392
vt 0.751919 0.808430
vt 0.759881 0.816392
vt 0.751919 0.824353
vt 0.759881 0.824353
vt 0.751919 0.832314
vt 0.759881 0.832314
vt 0.751919 0.840275
vt 0.743958 0.832314
vt 0.743958 0.824353
vt 0.767842 0.824353
vt 0.784112 0.808430
vt 0.776150 0.816392
vt 0.776150 0.808430
vt 0.784112 0.816392
vt 0.776150 0.824353
vt 0.784112 0.824353
vt 0.776150 0.832314
vt 0.784112 0.832314
vt 0.776150 0.840275
vt 0.768189 0.832314
vt 0.768189 0.824353
vt 0.792073 0.824353
vt 0.808343 0.808430
vt 0.800382 0.816392
vt 0.800382 0.808430
vt 0.808343 0.816392
vt 0.800382 0.824353
vt 0.808343 0.824353
vt 0.800382 0.832314
vt 0.808343 0.832314
vt 0.800382 0.840275
vt 0.792420 0.832314
vt 0.792420 0.824353
vt 0.816304 0.824353
vt 0.832574 0.744046
vt 0.824613 0.752007
vt 0.824613 0.744046
vt 0.832574 0.752007
vt 0.824613 0.759968
vt 0.832574 0.759968
vt 0.824613 0.767930
vt 0.832574 0.767930
vt 0.824613 0.775891
vt 0.816651 0.767930
vt 0.816651 0.759968
vt 0.840535 0.759968
vt 0.832574 0.776238
vt 0.824613 0.784199
vt 0.824613 0.776238
vt 0.832574 0.784199
vt 0.824613 0.792161
vt 0.832574 0.792161
vt 0.824613 0.800122
vt 0.832574 0.800122
vt 0.824613 0.808083
vt 0.816651 0.800122
vt 0.816651 0.792161
vt 0.840535 0.792161
vt 0.832574 0.808430
vt 0.824613 0.816392
vt 0.824613 0.808430
vt 0.832574 0.816392
vt 0.824613 0.824353
vt 0.832574 0.824353
vt 0.824613 0.832314
vt 0.832574 0.832314
vt 0.824613 0.840275
vt 0.816651 0.832314
vt 0.816651 0.824353
vt 0.840535 0.824353
vt 0.856805 0.744046
vt 0.848844 0.752007
vt 0.848844 0.744046
vt 0.856805 0.752007
vt 0.848844 0.759968
vt 0.856805 0.759968
vt 0.848844 0.767930
vt 0.856805 0.767930
vt 0.848844 0.775891
vt 0.840883 0.767930
vt 0.840883 0.759968
vt 0.864766 0.759968
vt 0.856805 0.776238
vt 0.848844 0.784199
vt 0.848844 0.776238
vt 0.856805 0.784199
vt 0.848844 0.792161
vt 0.856805 0.792161
vt 0.848844 0.800122
vt 0.856805 0.800122
vt 0.848844 0.808083
vt 0.840883 0.800122
vt 0.840883 0.792161
vt 0.864766 0.792161
vt 0.856805 0.808430
vt 0.848844 0.816392
vt 0.848844 0.808430
vt 0.856805 0.816392
vt 0.848844 0.824353
vt 0.856805 0.824353
vt 0.848844 0.832314
vt 0.856805 0.832314
vt 0.848844 0.840275
vt 0.840883 0.832314
vt 0.840883 0.824353
vt 0.864766 0.824353
vt 0.759881 0.840623
vt 0.751919 0.848584
vt 0.751919 0.840623
vt 0.759881 0.848584
vt 0.751919 0.856545
vt 0.759881 0.856545
vt 0.751919 0.864506
vt 0.759881 0.864506
vt 0.751919 0.872468
vt 0.743958 0.864506
vt 0.743958 0.856545
vt 0.767842 0.856545
vt 0.784112 0.840623
vt 0.776150 0.848584
vt 0.776150 0.840623
vt 0.784112 0.848584
vt 0.776150 0.856545
vt 0.784112 0.856545
vt 0.776150 0.864506
vt 0.784112 0.864506
vt 0.776150 0.872468
vt 0.768189 0.864506
vt 0.768189 0.856545
vt 0.792073 0.856545
vt 0.808343 0.840623
vt 0.800382 0.848584
vt 0.800382 0.840623
vt 0.808343 0.848584
vt 0.800382 0.856545
vt 0.808343 0.856545
vt 0.800382 0.864506
vt 0.808343 0.864506
vt 0.800382 0.872468
vt 0.792420 0.864506
vt 0.792420 0.856545
vt 0.816304 0.856545
vt 0.832574 0.840623
vt 0.824613 0.848584
vt 0.824613 0.840623
vt 0.832574 0.848584
vt 0.824613 0.856545
vt 0.832574 0.856545
vt 0.824613 0.864506
vt 0.832574 0.864506
vt 0.824613 0.872468
vt 0.816651 0.864506
vt 0.816651 0.856545
vt 0.840535 0.856545
vt 0.856805 0.840623
vt 0.848844 0.848584
vt 0.848844 0.840623
vt 0.856805 0.848584
vt 0.848844 0.856545
vt 0.856805 0.856545
vt 0.848844 0.864506
vt 0.856805 0.864506
vt 0.848844 0.872468
vt 0.840883 0.864506
vt 0.840883 0.856545
vt 0.864766 0.856545
vt 0.881036 0.744046
vt 0.873075 0.752007
vt 0.873075 0.744046
vt 0.881036 0.752007
vt 0.873075 0.759968
vt 0.881036 0.759968
vt 0.873075 0.767930
vt 0.881036 0.767930
vt 0.873075 0.775891
vt 0.865114 0.767930
vt 0.865114 0.759968
vt 0.888997 0.759968
vt 0.881036 0.776238
vt 0.873075 0.784199
vt 0.873075 0.776238
vt 0.881036 0.784199
vt 0.873075 0.792161
vt 0.881036 0.792161
vt 0.873075 0.800122
vt 0.881036 0.800122
vt 0.873075 0.808083
vt 0.865114 0.800122
vt 0.865114 0.792161
vt 0.888997 0.792161
vt 0.881036 0.808430
vt 0.873075 0.816392
vt 0.873075 0.808430
vt 0.881036 0.816392
vt 0.873075 0.824353
vt 0.881036 0.824353
vt 0.873075 0.832314
vt 0.881036 0.832314
vt 0.873075 0.840275
vt 0.865114 0.832314
vt 0.865114 0.824353
vt 0.888997 0.824353
vt 0.881036 0.840623
vt 0.873075 0.848584
vt 0.873075 0.840623
vt 0.881036 0.848584
vt 0.873075 0.856545
vt 0.881036 0.856545
vt 0.873075 0.864506
vt 0.881036 0.864506
vt 0.873075 0.872468
vt 0.865114 0.864506
vt 0.865114 0.856545
vt 0.888997 0.856545
vt 0.759881 0.872815
vt 0.751919 0.880776
vt 0.751919 0.872815
vt 0.759881 0.880776
vt 0.751919 0.888737
vt 0.759881 0.888737
vt 0.751919 0.896699
vt 0.759881 0.896699
vt 0.751919 0.904660
vt 0.743958 0.896699
vt 0.743958 0.888737
vt 0.767842 0.888737
vt 0.784112 0.872815
vt 0.776150 0.880776
vt 0.776150 0.872815
vt 0.784112 0.880776
vt 0.776150 0.888737
vt 0.784112 0.888737
vt 0.776150 0.896699
vt 0.784112 0.896699
vt 0.776150 0.904660
vt 0.768189 0.896699
vt 0.768189 0.888737
vt 0.792073 0.888737
vt 0.808343 0.872815
vt 0.800382 0.880776
vt 0.800382 0.872815
vt 0.808343 0.880776
vt 0.800382 0.888737
vt 0.808343 0.888737
vt 0.800382 0.896699
vt 0.808343 0.896699
vt 0.800382 0.904660
vt 0.792420 0.896699
vt 0.792420 0.888737
vt 0.816304 0.888737
vt 0.832574 0.872815
vt 0.824613 0.880776
vt 0.824613 0.872815
vt 0.832574 0.880776
vt 0.824613 0.888737
vt 0.832574 0.888737
vt 0.824613 0.896699
vt 0.832574 0.896699
vt 0.824613 0.904660
vt 0.816651 0.896699
vt 0.816651 0.888737
vt 0.840535 0.888737
vt 0.856805 0.872815
vt 0.848844 0.880776
vt 0.848844 0.872815
vt 0.856805 0.880776
vt 0.848844 0.888737
vt 0.856805 0.888737
vt 0.848844 0.896699
vt 0.856805 0.896699
vt 0.848844 0.904660
vt 0.840883 0.896699
vt 0.840883 0.888737
vt 0.864766 0.888737
vt 0.881036 0.872815
vt 0.873075 0.880776
vt 0.873075 0.872815
vt 0.881036 0.880776
vt 0.873075 0.888737
vt 0.881036 0.888737
vt 0.873075 0.896699
vt 0.881036 0.896699
vt 0.873075 0.904660
vt 0.865114 0.896699
vt 0.865114 0.888737
vt 0.888997 0.888737
vt 0.905267 0.744046
vt 0.897306 0.752007
vt 0.897306 0.744046
vt 0.905267 0.752007
vt 0.897306 0.759968
vt 0.905267 0.759968
vt 0.897306 0.767930
vt 0.905267 0.767930
vt 0.897306 0.775891
vt 0.889345 0.767930
vt 0.889345 0.759968
vt 0.913228 0.759968
vt 0.905267 0.776238
vt 0.897306 0.784199
vt 0.897306 0.776238
vt 0.905267 0.784199
vt 0.897306 0.792161
vt 0.905267 0.792161
vt 0.897306 0.800122
vt 0.905267 0.800122
vt 0.897306 0.808083
vt 0.889345 0.800122
vt 0.889345 0.792161
vt 0.913228 0.792161
vt 0.905267 0.808430
vt 0.897306 0.816392
vt 0.897306 0.808430
vt 0.905267 0.816392
vt 0.897306 0.824353
vt 0.905267 0.824353
vt 0.897306 0.832314
vt 0.905267 0.832314
vt 0.897306 0.840275
vt 0.889345 0.832314
vt 0.889345 0.824353
vt 0.913228 0.824353
vt 0.905267 0.840623
vt 0.897306 0.848584
vt 0.897306 0.840623
vt 0.905267 0.848584
vt 0.897306 0.856545
vt 0.905267 0.856545
vt 0.897306 0.864506
vt 0.905267 0.864506
vt 0.897306 0.872468
vt 0.889345 0.864506
vt 0.889345 0.856545
vt 0.913228 0.856545
vt 0.905267 0.872815
vt 0.897306 0.880776
vt 0.897306 0.872815
vt 0.905267 0.880776
vt 0.897306 0.888737
vt 0.905267 0.888737
vt 0.897306 0.896699
vt 0.905267 0.896699
vt 0.897306 0.904660
vt 0.889345 0.896699
vt 0.889345 0.888737
vt 0.913228 0.888737
vt 0.759881 0.905007
vt 0.751919 0.912968
vt 0.751919 0.905007
vt 0.759881 0.912968
vt 0.751919 0.920930
vt 0.759881 0.920930
vt 0.751919 0.928891
vt 0.759881 0.928891
vt 0.751919 0.936852
vt 0.743958 0.928891
vt 0.743958 0.920930
vt 0.767842 0.920930
vt 0.784112 0.905007
vt 0.776150 0.912968
vt 0.776150 0.905007
vt 0.784112 0.912968
vt 0.776150 0.920930
vt 0.784112 0.920930
vt 0.776150 0.928891
vt 0.784112 0.928891
vt 0.776150 0.936852
vt 0.768189 0.928891
vt 0.768189 0.920930
vt 0.792073 0.920930
vt 0.808343 0.905007
vt 0.800382 0.912968
vt 0.800382 0.905007
vt 0.808343 0.912968
vt 0.800382 0.920930
vt 0.808343 0.920930
vt 0.800382 0.928891
vt 0.808343 0.928891
vt 0.800382 0.936852
vt 0.792420 0.928891
vt 0.792420 0.920930
vt 0.816304 0.920930
vt 0.832574 0.905007
vt 0.824613 0.912968
vt 0.824613 0.905007
vt 0.832574 0.912968
vt 0.824613 0.920930
vt 0.832574 0.920930
vt 0.824613 0.928891
vt 0.832574 0.928891
vt 0.824613 0.936852
vt 0.816651 0.928891
vt 0.816651 0.920930
vt 0.840535 0.920930
vt 0.856805 0.905007
vt 0.848844 0.912968
vt 0.848844 0.905007
vt 0.856805 0.912968
vt 0.848844 0.920930
vt 0.856805 0.920930
vt 0.848844 0.928891
vt 0.856805 0.928891
vt 0.848844 0.936852
vt 0.840883 0.928891
vt 0.840883 0.920930
vt 0.864766 0.920930
vt 0.881036 0.905007
vt 0.873075 0.912968
vt 0.873075 0.905007
vt 0.881036 0.912968
vt 0.873075 0.920930
vt 0.881036 0.920930
vt 0.873075 0.928891
vt 0.881036 0.928891
vt 0.873075 0.936852
vt 0.865114 0.928891
vt 0.865114 0.920930
vt 0.888997 0.920930
vt 0.905267 0.905007
vt 0.897306 0.912968
vt 0.897306 0.905007
vt 0.905267 0.912968
vt 0.897306 0.920930
vt 0.905267 0.920930
vt 0.897306 0.928891
vt 0.905267 0.928891
vt 0.897306 0.936852
vt 0.889345 0.928891
vt 0.889345 0.920930
vt 0.913228 0.920930
vt 0.929498 0.744046
vt 0.921537 0.752007
vt 0.921537 0.744046
vt 0.929498 0.752007
vt 0.921537 0.759968
vt 0.929498 0.759968
vt 0.921537 0.767930
vt 0.929498 0.767930
vt 0.921537 0.775891
vt 0.913576 0.767930
vt 0.913576 0.759968
vt 0.937459 0.759968
vt 0.929498 0.776238
vt 0.921537 0.784199
vt 0.921537 0.776238
vt 0.929498 0.784199
vt 0.921537 0.792161
vt 0.929498 0.792161
vt 0.921537 0.800122
vt 0.929498 0.800122
vt 0.921537 0.808083
vt 0.913576 0.800122
vt 0.913576 0.792161
vt 0.937459 0.792161
vt 0.929498 0.808430
vt 0.921537 0.816392
vt 0.921537 0.808430
vt 0.929498 0.816392
vt 0.921537 0.824353
vt 0.929498 0.824353
vt 0.921537 0.832314
vt 0.929498 0.832314
vt 0.921537 0.840275
vt 0.913576 0.832314
vt 0.913576 0.824353
vt 0.937459 0.824353
vt 0.929498 0.840623
vt 0.921537 0.848584
vt 0.921537 0.840623
vt 0.929498 0.848584
vt 0.921537 0.856545
vt 0.929498 0.856545
vt 0.921537 0.864506
vt 0.929498 0.864506
vt 0.921537 0.872468
vt 0.913576 0.864506
vt 0.913576 0.856545
vt 0.937459 0.856545
vt 0.929498 0.872815
vt 0.921537 0.880776
vt 0.921537 0.872815
vt 0.929498 0.880776
vt 0.921537 0.888737
vt 0.929498 0.888737
vt 0.921537 0.896699
vt 0.929498 0.896699
vt 0.921537 0.904660
vt 0.913576 0.896699
vt 0.913576 0.888737
vt 0.937459 0.888737
vt 0.929498 0.905007
vt 0.921537 0.912968
vt 0.921537 0.905007
vt 0.929498 0.912968
vt 0.921537 0.920930
vt 0.929498 0.920930
vt 0.921537 0.928891
vt 0.929498 0.928891
vt 0.921537 0.936852
vt 0.913576 0.928891
vt 0.913576 0.920930
vt 0.937459 0.920930
vt 0.953729 0.744046
vt 0.945768 0.752007
vt 0.945768 0.744046
vt 0.953729 0.752007
vt 0.945768 0.759968
vt 0.953729 0.759968
vt 0.945768 0.767930
vt 0.953729 0.767930
vt 0.945768 0.775891
vt 0.937807 0.767930
vt 0.937807 0.759968
vt 0.961690 0.759968
vt 0.953729 0.776238
vt 0.945768 0.784199
vt 0.945768 0.776238
vt 0.953729 0.784199
vt 0.945768 0.792161
vt 0.953729 0.792161
vt 0.945768 0.800122
vt 0.953729 0.800122
vt 0.945768 0.808083
vt 0.937807 0.800122
vt 0.937807 0.792161
vt 0.961690 0.792161
vt 0.953729 0.808430
vt 0.945768 0.816392
vt 0.945768 0.808430
vt 0.953729 0.816392
vt 0.945768 0.824353
vt 0.953729 0.824353
vt 0.945768 0.832314
vt 0.953729 0.832314
vt 0.945768 0.840275
vt 0.937807 0.832314
vt 0.937807 0.824353
vt 0.961690 0.824353
vt 0.953729 0.840623
vt 0.945768 0.848584
vt 0.945768 0.840623
vt 0.953729 0.848584
vt 0.945768 0.856545
vt 0.953729 0.856545
vt 0.945768 0.864506
vt 0.953729 0.864506
vt 0.945768 0.872468
vt 0.937807 0.864506
vt 0.937807 0.856545
vt 0.961690 0.856545
vt 0.953729 0.872815
vt 0.945768 0.880776
vt 0.945768 0.872815
vt 0.953729 0.880776
vt 0.945768 0.888737
vt 0.953729 0.888737
vt 0.945768 0.896699
vt 0.953729 0.896699
vt 0.945768 0.904660
vt 0.937807 0.896699
vt 0.937807 0.888737
vt 0.961690 0.888737
vt 0.953729 0.905007
vt 0.945768 0.912968
vt 0.945768 0.905007
vt 0.953729 0.912968
vt 0.945768 0.920930
vt 0.953729 0.920930
vt 0.945768 0.928891
vt 0.953729 0.928891
vt 0.945768 0.936852
vt 0.937807 0.928891
vt 0.937807 0.920930
vt 0.961690 0.920930
vt 0.759881 0.937200
vt 0.751919 0.945161
vt 0.751919 0.937200
vt 0.759881 0.945161
vt 0.751919 0.953122
vt 0.759881 0.953122
vt 0.751919 0.961083
vt 0.759881 0.961083
vt 0.751919 0.969044
vt 0.743958 0.961083
vt 0.743958 0.953122
vt 0.767842 0.953122
vt 0.784112 0.937200
vt 0.776150 0.945161
vt 0.776150 0.937200
vt 0.784112 0.945161
vt 0.776150 0.953122
vt 0.784112 0.953122
vt 0.776150 0.961083
vt 0.784112 0.961083
vt 0.776150 0.969044
vt 0.768189 0.961083
vt 0.768189 0.953122
vt 0.792073 0.953122
vt 0.808343 0.937200
vt 0.800382 0.945161
vt 0.800382 0.937200
vt 0.808343 0.945161
vt 0.800382 0.953122
vt 0.808343 0.953122
vt 0.800382 0.961083
vt 0.808343 0.961083
vt 0.800382 0.969044
vt 0.792420 0.961083
vt 0.792420 0.953122
vt 0.816304 0.953122
vt 0.832574 0.937200
vt 0.824613 0.945161
vt 0.824613 0.937200
vt 0.832574 0.945161
vt 0.824613 0.953122
vt 0.832574 0.953122
vt 0.824613 0.961083
vt 0.832574 0.961083
vt 0.824613 0.969044
vt 0.816651 0.961083
vt 0.816651 0.953122
vt 0.840535 0.953122
vt 0.856805 0.937200
vt 0.848844 0.945161
vt 0.848844 0.937200
vt 0.856805 0.945161
vt 0.848844 0.953122
vt 0.856805 0.953122
vt 0.848844 0.961083
vt 0.856805 0.961083
vt 0.848844 0.969044
vt 0.840883 0.961083
vt 0.840883 0.953122
vt 0.864766 0.953122
vt 0.881036 0.937200
vt 0.873075 0.945161
vt 0.873075 0.937200
vt 0.881036 0.945161
vt 0.873075 0.953122
vt 0.881036 0.953122
vt 0.873075 0.961083
vt 0.881036 0.961083
vt 0.873075 0.969044
vt 0.865114 0.961083
vt 0.865114 0.953122
vt 0.888997 0.953122
vt 0.905267 0.937200
vt 0.897306 0.945161
vt 0.897306 0.937200
vt 0.905267 0.945161
vt 0.897306 0.953122
vt 0.905267 0.953122
vt 0.897306 0.961083
vt 0.905267 0.961083
vt 0.897306 0.969044
vt 0.889345 0.961083
vt 0.889345 0.953122
vt 0.913228 0.953122
vt 0.929498 0.937200
vt 0.921537 0.945161
vt 0.921537 0.937200
vt 0.929498 0.945161
vt 0.921537 0.953122
vt 0.929498 0.953122
vt 0.921537 0.961083
vt 0.929498 0.961083
vt 0.921537 0.969044
vt 0.913576 0.961083
vt 0.913576 0.953122
vt 0.937459 0.953122
vt 0.953729 0.937200
vt 0.945768 0.945161
vt 0.945768 0.937200
vt 0.953729 0.945161
vt 0.945768 0.953122
vt 0.953729 0.953122
vt 0.945768 0.961083
vt 0.953729 0.961083
vt 0.945768 0.969044
vt 0.937807 0.961083
vt 0.937807 0.953122
vt 0.961690 0.953122
vt 0.099876 0.897463
vt 0.171996 0.861403
vt 0.280347 0.861403
vt 0.093374 0.897549
vt 0.208142 0.897463
vt 0.280261 0.861403
vt 0.280347 0.969668
vt 0.123017 0.897549
vt 0.759881 0.775891
vt 0.767842 0.767930
vt 0.784112 0.775891
vt 0.792073 0.767930
vt 0.759881 0.808083
vt 0.767842 0.800122
vt 0.784112 0.808083
vt 0.792073 0.800122
vt 0.808343 0.775891
vt 0.816304 0.767930
vt 0.808343 0.808083
vt 0.816304 0.800122
vt 0.759881 0.840275
vt 0.767842 0.832314
vt 0.784112 0.840275
vt 0.792073 0.832314
vt 0.808343 0.840275
vt 0.816304 0.832314
vt 0.832574 0.775891
vt 0.840535 0.767930
vt 0.832574 0.808083
vt 0.840535 0.800122
vt 0.832574 0.840275
vt 0.840535 0.832314
vt 0.856805 0.775891
vt 0.864766 0.767930
vt 0.856805 0.808083
vt 0.864766 0.800122
vt 0.856805 0.840275
vt 0.864766 0.832314
vt 0.759881 0.872468
vt 0.767842 0.864506
vt 0.784112 0.872468
vt 0.792073 0.864506
vt 0.808343 0.872468
vt 0.816304 0.864506
vt 0.832574 0.872468
vt 0.840535 0.864506
vt 0.856805 0.872468
vt 0.864766 0.864506
vt 0.881036 0.775891
vt 0.888997 0.767930
vt 0.881036 0.808083
vt 0.888997 0.800122
vt 0.881036 0.840275
vt 0.888997 0.832314
vt 0.881036 0.872468
vt 0.888997 0.864506
vt 0.759881 0.904660
vt 0.767842 0.896699
vt 0.784112 0.904660
vt 0.792073 0.896699
vt 0.808343 0.904660
vt 0.816304 0.896699
vt 0.832574 0.904660
vt 0.840535 0.896699
vt 0.856805 0.904660
vt 0.864766 0.896699
vt 0.881036 0.904660
vt 0.888997 0.896699
vt 0.905267 0.775891
vt 0.913228 0.767930
vt 0.905267 0.808083
vt 0.913228 0.800122
vt 0.905267 0.840275
vt 0.913228 0.832314
vt 0.905267 0.872468
vt 0.913228 0.864506
vt 0.905267 0.904660
vt 0.913228 0.896699
vt 0.759881 0.936852
vt 0.767842 0.928891
vt 0.784112 0.936852
vt 0.792073 0.928891
vt 0.808343 0.936852
vt 0.816304 0.928891
vt 0.832574 0.936852
vt 0.840535 0.928891
vt 0.856805 0.936852
vt 0.864766 0.928891
vt 0.881036 0.936852
vt 0.888997 0.928891
vt 0.905267 0.936852
vt 0.913228 0.928891
vt 0.929498 0.775891
vt 0.937459 0.767930
vt 0.929498 0.808083
vt 0.937459 0.800122
vt 0.929498 0.840275
vt 0.937459 0.832314
vt 0.929498 0.872468
vt 0.937459 0.864506
vt 0.929498 0.904660
vt 0.937459 0.896699
vt 0.929498 0.936852
vt 0.937459 0.928891
vt 0.953729 0.775891
vt 0.961690 0.767930
vt 0.953729 0.808083
vt 0.961690 0.800122
vt 0.953729 0.840275
vt 0.961690 0.832314
vt 0.953729 0.872468
vt 0.961690 0.864506
vt 0.953729 0.904660
vt 0.961690 0.896699
vt 0.953729 0.936852
vt 0.961690 0.928891
vt 0.759881 0.969044
vt 0.767842 0.961083
vt 0.784112 0.969044
vt 0.792073 0.961083
vt 0.808343 0.969044
vt 0.816304 0.961083
vt 0.832574 0.969044
vt 0.840535 0.961083
vt 0.856805 0.969044
vt 0.864766 0.961083
vt 0.881036 0.969044
vt 0.888997 0.961083
vt 0.905267 0.969044
vt 0.913228 0.961083
vt 0.929498 0.969044
vt 0.937459 0.961083
vt 0.953729 0.969044
vt 0.961690 0.961083
s 0
usemtl マテリアル
f 24/1/1 16/2/1 2/3/1
f 29/4/2 11/5/2 30/6/2
f 2/7/3 23/8/3 24/9/3
f 8/10/4 27/11/4 25/12/4
f 14/13/1 27/11/1 6/14/1
f 17/15/1 15/16/1 20/17/1
f 7/18/5 1/19/5 3/20/5
f 4/21/6 6/14/6 8/10/6
f 10/22/2 23/8/2 4/23/2
f 30/24/7 13/25/7 32/26/7
f 11/27/6 15/28/6 13/25/6
f 12/29/5 16/30/5 10/31/5
f 9/32/8 20/33/8 15/34/8
f 22/35/9 16/36/9 21/37/9
f 9/38/2 11/5/2 3/39/2
f 17/40/10 3/39/10 1/41/10
f 24/9/10 18/42/10 17/40/10
f 18/42/2 22/43/2 19/44/2
f 19/45/8 21/37/8 20/33/8
f 17/15/1 21/46/1 24/1/1
f 12/29/11 28/47/11 14/48/11
f 32/49/1 27/11/1 28/50/1
f 25/12/8 31/51/8 29/4/8
f 25/12/2 12/52/2 8/10/2
f 29/4/12 5/53/12 7/18/12
f 5/53/1 32/49/1 13/54/1
f 26/55/10 32/26/10 28/47/10
f 25/12/2 30/6/2 26/56/2
f 56/57/1 48/58/1 34/59/1
f 61/60/2 43/61/2 62/62/2
f 34/63/3 55/64/3 56/65/3
f 40/66/4 59/67/4 57/68/4
f 38/69/1 48/58/1 46/70/1
f 49/71/1 47/72/1 52/73/1
f 39/74/5 33/75/5 35/76/5
f 36/77/6 38/69/6 40/66/6
f 36/78/2 44/79/2 42/80/2
f 62/81/7 45/82/7 64/83/7
f 43/84/6 47/85/6 45/82/6
f 44/86/5 48/87/5 42/88/5
f 41/89/8 52/90/8 47/91/8
f 54/92/9 48/93/9 53/94/9
f 41/95/2 43/61/2 35/96/2
f 49/97/10 35/96/10 33/98/10
f 56/65/10 50/99/10 49/97/10
f 50/99/2 54/100/2 51/101/2
f 51/102/8 53/94/8 52/90/8
f 49/71/1 53/103/1 56/57/1
f 44/86/11 60/104/11 46/105/11
f 64/106/1 59/67/1 60/107/1
f 57/68/8 63/108/8 61/60/8
f 57/68/2 44/79/2 40/66/2
f 61/60/12 37/109/12 39/74/12
f 37/109/1 64/106/1 45/110/1
f 58/111/10 64/83/10 60/104/10
f 57/68/2 62/62/2 58/112/2
f 66/113/10 67/114/10 65/115/10
f 68/116/2 71/117/2 67/114/2
f 72/118/8 69/119/8 71/117/8
f 70/120/1 65/121/1 69/119/1
f 71/117/5 65/122/5 67/123/5
f 68/124/6 70/120/6 72/118/6
f 74/125/10 75/126/10 73/127/10
f 76/128/2 79/129/2 75/126/2
f 80/130/8 77/131/8 79/129/8
f 78/132/1 73/133/1 77/131/1
f 79/129/5 73/134/5 75/135/5
f 76/136/6 78/132/6 80/130/6
f 82/137/10 83/138/10 81/139/10
f 84/140/2 87/141/2 83/138/2
f 88/142/8 85/143/8 87/141/8
f 86/144/1 81/145/1 85/143/1
f 87/141/5 81/146/5 83/147/5
f 84/148/6 86/144/6 88/142/6
f 90/149/10 91/150/10 89/151/10
f 92/152/2 95/153/2 91/150/2
f 96/154/8 93/155/8 95/153/8
f 94/156/1 89/157/1 93/155/1
f 95/153/5 89/158/5 91/159/5
f 92/160/6 94/156/6 96/154/6
f 98/161/10 99/162/10 97/163/10
f 100/164/2 103/165/2 99/162/2
f 104/166/8 101/167/8 103/165/8
f 102/168/1 97/169/1 101/167/1
f 103/165/5 97/170/5 99/171/5
f 100/172/6 102/168/6 104/166/6
f 106/173/10 107/174/10 105/175/10
f 108/176/2 111/177/2 107/174/2
f 112/178/8 109/179/8 111/177/8
f 110/180/1 105/181/1 109/179/1
f 111/177/5 105/182/5 107/183/5
f 108/184/6 110/180/6 112/178/6
f 114/185/10 115/186/10 113/187/10
f 116/188/2 119/189/2 115/186/2
f 120/190/8 117/191/8 119/189/8
f 118/192/1 113/193/1 117/191/1
f 119/189/5 113/194/5 115/195/5
f 116/196/6 118/192/6 120/190/6
f 122/197/10 123/198/10 121/199/10
f 124/200/2 127/201/2 123/198/2
f 128/202/8 125/203/8 127/201/8
f 126/204/1 121/205/1 125/203/1
f 127/201/5 121/206/5 123/207/5
f 124/208/6 126/204/6 128/202/6
f 130/209/10 131/210/10 129/211/10
f 132/212/2 135/213/2 131/210/2
f 136/214/8 133/215/8 135/213/8
f 134/216/1 129/217/1 133/215/1
f 135/213/5 129/218/5 131/219/5
f 132/220/6 134/216/6 136/214/6
f 138/221/10 139/222/10 137/223/10
f 140/224/2 143/225/2 139/222/2
f 144/226/8 141/227/8 143/225/8
f 142/228/1 137/229/1 141/227/1
f 143/225/5 137/230/5 139/231/5
f 140/232/6 142/228/6 144/226/6
f 146/233/10 147/234/10 145/235/10
f 148/236/2 151/237/2 147/234/2
f 152/238/8 149/239/8 151/237/8
f 150/240/1 145/241/1 149/239/1
f 151/237/5 145/242/5 147/243/5
f 148/244/6 150/240/6 152/238/6
f 154/245/10 155/246/10 153/247/10
f 156/248/2 159/249/2 155/246/2
f 160/250/8 157/251/8 159/249/8
f 158/252/1 153/253/1 157/251/1
f 159/249/5 153/254/5 155/255/5
f 156/256/6 158/252/6 160/250/6
f 162/257/10 163/258/10 161/259/10
f 164/260/2 167/261/2 163/258/2
f 168/262/8 165/263/8 167/261/8
f 166/264/1 161/265/1 165/263/1
f 167/261/5 161/266/5 163/267/5
f 164/268/6 166/264/6 168/262/6
f 170/269/10 171/270/10 169/271/10
f 172/272/2 175/273/2 171/270/2
f 176/274/8 173/275/8 175/273/8
f 174/276/1 169/277/1 173/275/1
f 175/273/5 169/278/5 171/279/5
f 172/280/6 174/276/6 176/274/6
f 178/281/10 179/282/10 177/283/10
f 180/284/2 183/285/2 179/282/2
f 184/286/8 181/287/8 183/285/8
f 182/288/1 177/289/1 181/287/1
f 183/285/5 177/290/5 179/291/5
f 180/292/6 182/288/6 184/286/6
f 186/293/10 187/294/10 185/295/10
f 188/296/2 191/297/2 187/294/2
f 192/298/8 189/299/8 191/297/8
f 190/300/1 185/301/1 189/299/1
f 191/297/5 185/302/5 187/303/5
f 188/304/6 190/300/6 192/298/6
f 194/305/10 195/306/10 193/307/10
f 196/308/2 199/309/2 195/306/2
f 200/310/8 197/311/8 199/309/8
f 198/312/1 193/313/1 197/311/1
f 199/309/5 193/314/5 195/315/5
f 196/316/6 198/312/6 200/310/6
f 202/317/10 203/318/10 201/319/10
f 204/320/2 207/321/2 203/318/2
f 208/322/8 205/323/8 207/321/8
f 206/324/1 201/325/1 205/323/1
f 207/321/5 201/326/5 203/327/5
f 204/328/6 206/324/6 208/322/6
f 210/329/10 211/330/10 209/331/10
f 212/332/2 215/333/2 211/330/2
f 216/334/8 213/335/8 215/333/8
f 214/336/1 209/337/1 213/335/1
f 215/333/5 209/338/5 211/339/5
f 212/340/6 214/336/6 216/334/6
f 218/341/10 219/342/10 217/343/10
f 220/344/2 223/345/2 219/342/2
f 224/346/8 221/347/8 223/345/8
f 222/348/1 217/349/1 221/347/1
f 223/345/5 217/350/5 219/351/5
f 220/352/6 222/348/6 224/346/6
f 226/353/10 227/354/10 225/355/10
f 228/356/2 231/357/2 227/354/2
f 232/358/8 229/359/8 231/357/8
f 230/360/1 225/361/1 229/359/1
f 231/357/5 225/362/5 227/363/5
f 228/364/6 230/360/6 232/358/6
f 234/365/10 235/366/10 233/367/10
f 236/368/2 239/369/2 235/366/2
f 240/370/8 237/371/8 239/369/8
f 238/372/1 233/373/1 237/371/1
f 239/369/5 233/374/5 235/375/5
f 236/376/6 238/372/6 240/370/6
f 242/377/10 243/378/10 241/379/10
f 244/380/2 247/381/2 243/378/2
f 248/382/8 245/383/8 247/381/8
f 246/384/1 241/385/1 245/383/1
f 247/381/5 241/386/5 243/387/5
f 244/388/6 246/384/6 248/382/6
f 250/389/10 251/390/10 249/391/10
f 252/392/2 255/393/2 251/390/2
f 256/394/8 253/395/8 255/393/8
f 254/396/1 249/397/1 253/395/1
f 255/393/5 249/398/5 251/399/5
f 252/400/6 254/396/6 256/394/6
f 258/401/10 259/402/10 257/403/10
f 260/404/2 263/405/2 259/402/2
f 264/406/8 261/407/8 263/405/8
f 262/408/1 257/409/1 261/407/1
f 263/405/5 257/410/5 259/411/5
f 260/412/6 262/408/6 264/406/6
f 266/413/10 267/414/10 265/415/10
f 268/416/2 271/417/2 267/414/2
f 272/418/8 269/419/8 271/417/8
f 270/420/1 265/421/1 269/419/1
f 271/417/5 265/422/5 267/423/5
f 268/424/6 270/420/6 272/418/6
f 274/425/10 275/426/10 273/427/10
f 276/428/2 279/429/2 275/426/2
f 280/430/8 277/431/8 279/429/8
f 278/432/1 273/433/1 277/431/1
f 279/429/5 273/434/5 275/435/5
f 276/436/6 278/432/6 280/430/6
f 282/437/10 283/438/10 281/439/10
f 284/440/2 287/441/2 283/438/2
f 288/442/8 285/443/8 287/441/8
f 286/444/1 281/445/1 285/443/1
f 287/441/5 281/446/5 283/447/5
f 284/448/6 286/444/6 288/442/6
f 290/449/10 291/450/10 289/451/10
f 292/452/2 295/453/2 291/450/2
f 296/454/8 293/455/8 295/453/8
f 294/456/1 289/457/1 293/455/1
f 295/453/5 289/458/5 291/459/5
f 292/460/6 294/456/6 296/454/6
f 298/461/10 299/462/10 297/463/10
f 300/464/2 303/465/2 299/462/2
f 304/466/8 301/467/8 303/465/8
f 302/468/1 297/469/1 301/467/1
f 303/465/5 297/470/5 299/471/5
f 300/472/6 302/468/6 304/466/6
f 306/473/10 307/474/10 305/475/10
f 308/476/2 311/477/2 307/474/2
f 312/478/8 309/479/8 311/477/8
f 310/480/1 305/481/1 309/479/1
f 311/477/5 305/482/5 307/483/5
f 308/484/6 310/480/6 312/478/6
f 314/485/10 315/486/10 313/487/10
f 316/488/2 319/489/2 315/486/2
f 320/490/8 317/491/8 319/489/8
f 318/492/1 313/493/1 317/491/1
f 319/489/5 313/494/5 315/495/5
f 316/496/6 318/492/6 320/490/6
f 322/497/10 323/498/10 321/499/10
f 324/500/2 327/501/2 323/498/2
f 328/502/8 325/503/8 327/501/8
f 326/504/1 321/505/1 325/503/1
f 327/501/5 321/506/5 323/507/5
f 324/508/6 326/504/6 328/502/6
f 330/509/10 331/510/10 329/511/10
f 332/512/2 335/513/2 331/510/2
f 336/514/8 333/515/8 335/513/8
f 334/516/1 329/517/1 333/515/1
f 335/513/5 329/518/5 331/519/5
f 332/520/6 334/516/6 336/514/6
f 338/521/10 339/522/10 337/523/10
f 340/524/2 343/525/2 339/522/2
f 344/526/8 341/527/8 343/525/8
f 342/528/1 337/529/1 341/527/1
f 343/525/5 337/530/5 339/531/5
f 340/532/6 342/528/6 344/526/6
f 346/533/10 347/534/10 345/535/10
f 348/536/2 351/537/2 347/534/2
f 352/538/8 349/539/8 351/537/8
f 350/540/1 345/541/1 349/539/1
f 351/537/5 345/542/5 347/543/5
f 348/544/6 350/540/6 352/538/6
f 354/545/10 355/546/10 353/547/10
f 356/548/2 359/549/2 355/546/2
f 360/550/8 357/551/8 359/549/8
f 358/552/1 353/553/1 357/551/1
f 359/549/5 353/554/5 355/555/5
f 356/556/6 358/552/6 360/550/6
f 362/557/10 363/558/10 361/559/10
f 364/560/2 367/561/2 363/558/2
f 368/562/8 365/563/8 367/561/8
f 366/564/1 361/565/1 365/563/1
f 367/561/5 361/566/5 363/567/5
f 364/568/6 366/564/6 368/562/6
f 370/569/10 371/570/10 369/571/10
f 372/572/2 375/573/2 371/570/2
f 376/574/8 373/575/8 375/573/8
f 374/576/1 369/577/1 373/575/1
f 375/573/5 369/578/5 371/579/5
f 372/580/6 374/576/6 376/574/6
f 378/581/10 379/582/10 377/583/10
f 380/584/2 383/585/2 379/582/2
f 384/586/8 381/587/8 383/585/8
f 382/588/1 377/589/1 381/587/1
f 383/585/5 377/590/5 379/591/5
f 380/592/6 382/588/6 384/586/6
f 386/593/10 387/594/10 385/595/10
f 388/596/2 391/597/2 387/594/2
f 392/598/8 389/599/8 391/597/8
f 390/600/1 385/601/1 389/599/1
f 391/597/5 385/602/5 387/603/5
f 388/604/6 390/600/6 392/598/6
f 394/605/10 395/606/10 393/607/10
f 396/608/2 399/609/2 395/606/2
f 400/610/8 397/611/8 399/609/8
f 398/612/1 393/613/1 397/611/1
f 399/609/5 393/614/5 395/615/5
f 396/616/6 398/612/6 400/610/6
f 402/617/10 403/618/10 401/619/10
f 404/620/2 407/621/2 403/618/2
f 408/622/8 405/623/8 407/621/8
f 406/624/1 401/625/1 405/623/1
f 407/621/5 401/626/5 403/627/5
f 404/628/6 406/624/6 408/622/6
f 410/629/10 411/630/10 409/631/10
f 412/632/2 415/633/2 411/630/2
f 416/634/8 413/635/8 415/633/8
f 414/636/1 409/637/1 413/635/1
f 415/633/5 409/638/5 411/639/5
f 412/640/6 414/636/6 416/634/6
f 418/641/10 419/642/10 417/643/10
f 420/644/2 423/645/2 419/642/2
f 424/646/8 421/647/8 423/645/8
f 422/648/1 417/649/1 421/647/1
f 423/645/5 417/650/5 419/651/5
f 420/652/6 422/648/6 424/646/6
f 426/653/10 427/654/10 425/655/10
f 428/656/2 431/657/2 427/654/2
f 432/658/8 429/659/8 431/657/8
f 430/660/1 425/661/1 429/659/1
f 431/657/5 425/662/5 427/663/5
f 428/664/6 430/660/6 432/658/6
f 434/665/10 435/666/10 433/667/10
f 436/668/2 439/669/2 435/666/2
f 440/670/8 437/671/8 439/669/8
f 438/672/1 433/673/1 437/671/1
f 439/669/5 433/674/5 435/675/5
f 436/676/6 438/672/6 440/670/6
f 442/677/10 443/678/10 441/679/10
f 444/680/2 447/681/2 443/678/2
f 448/682/8 445/683/8 447/681/8
f 446/684/1 441/685/1 445/683/1
f 447/681/5 441/686/5 443/687/5
f 444/688/6 446/684/6 448/682/6
f 450/689/10 451/690/10 449/691/10
f 452/692/2 455/693/2 451/690/2
f 456/694/8 453/695/8 455/693/8
f 454/696/1 449/697/1 453/695/1
f 455/693/5 449/698/5 451/699/5
f 452/700/6 454/696/6 456/694/6
f 458/701/10 459/702/10 457/703/10
f 460/704/2 463/705/2 459/702/2
f 464/706/8 461/707/8 463/705/8
f 462/708/1 457/709/1 461/707/1
f 463/705/5 457/710/5 459/711/5
f 460/712/6 462/708/6 464/706/6
f 466/713/10 467/714/10 465/715/10
f 468/716/2 471/717/2 467/714/2
f 472/718/8 469/719/8 471/717/8
f 470/720/1 465/721/1 469/719/1
f 471/717/5 465/722/5 467/723/5
f 468/724/6 470/720/6 472/718/6
f 474/725/10 475/726/10 473/727/10
f 476/728/2 479/729/2 475/726/2
f 480/730/8 477/731/8 479/729/8
f 478/732/1 473/733/1 477/731/1
f 479/729/5 473/734/5 475/735/5
f 476/736/6 478/732/6 480/730/6
f 482/737/10 483/738/10 481/739/10
f 484/740/2 487/741/2 483/738/2
f 488/742/8 485/743/8 487/741/8
f 486/744/1 481/745/1 485/743/1
f 487/741/5 481/746/5 483/747/5
f 484/748/6 486/744/6 488/742/6
f 490/749/10 491/750/10 489/751/10
f 492/752/2 495/753/2 491/750/2
f 496/754/8 493/755/8 495/753/8
f 494/756/1 489/757/1 493/755/1
f 495/753/5 489/758/5 491/759/5
f 492/760/6 494/756/6 496/754/6
f 498/761/10 499/762/10 497/763/10
f 500/764/2 503/765/2 499/762/2
f 504/766/8 501/767/8 503/765/8
f 502/768/1 497/769/1 501/767/1
f 503/765/5 497/770/5 499/771/5
f 500/772/6 502/768/6 504/766/6
f 506/773/10 507/774/10 505/775/10
f 508/776/2 511/777/2 507/774/2
f 512/778/8 509/779/8 511/777/8
f 510/780/1 505/781/1 509/779/1
f 511/777/5 505/782/5 507/783/5
f 508/784/6 510/780/6 512/778/6
f 514/785/10 515/786/10 513/787/10
f 516/788/2 519/789/2 515/786/2
f 520/790/8 517/791/8 519/789/8
f 518/792/1 513/793/1 517/791/1
f 519/789/5 513/794/5 515/795/5
f 516/796/6 518/792/6 520/790/6
f 522/797/10 523/798/10 521/799/10
f 524/800/2 527/801/2 523/798/2
f 528/802/8 525/803/8 527/801/8
f 526/804/1 521/805/1 525/803/1
f 527/801/5 521/806/5 523/807/5
f 524/808/6 526/804/6 528/802/6
f 530/809/10 531/810/10 529/811/10
f 532/812/2 535/813/2 531/810/2
f 536/814/8 533/815/8 535/813/8
f 534/816/1 529/817/1 533/815/1
f 535/813/5 529/818/5 531/819/5
f 532/820/6 534/816/6 536/814/6
f 538/821/10 539/822/10 537/823/10
f 540/824/2 543/825/2 539/822/2
f 544/826/8 541/827/8 543/825/8
f 542/828/1 537/829/1 541/827/1
f 543/825/5 537/830/5 539/831/5
f 540/832/6 542/828/6 544/826/6
f 546/833/10 547/834/10 545/835/10
f 548/836/2 551/837/2 547/834/2
f 552/838/8 549/839/8 551/837/8
f 550/840/1 545/841/1 549/839/1
f 551/837/5 545/842/5 547/843/5
f 548/844/6 550/840/6 552/838/6
f 554/845/10 555/846/10 553/847/10
f 556/848/2 559/849/2 555/846/2
f 560/850/8 557/851/8 559/849/8
f 558/852/1 553/853/1 557/851/1
f 559/849/5 553/854/5 555/855/5
f 556/856/6 558/852/6 560/850/6
f 562/857/10 563/858/10 561/859/10
f 564/860/2 567/861/2 563/858/2
f 568/862/8 565/863/8 567/861/8
f 566/864/1 561/865/1 565/863/1
f 567/861/5 561/866/5 563/867/5
f 564/868/6 566/864/6 568/862/6
f 24/1/1 21/46/1 16/2/1
f 29/4/2 7/18/2 11/5/2
f 2/7/3 4/23/3 23/8/3
f 8/10/4 6/14/4 27/11/4
f 14/13/1 28/50/1 27/11/1
f 6/14/1 2/3/1 14/13/1
f 2/3/1 16/2/1 14/13/1
f 17/15/1 1/869/1 15/16/1
f 7/18/5 5/53/5 1/19/5
f 4/21/6 2/870/6 6/14/6
f 10/22/2 22/43/2 23/8/2
f 4/23/2 8/10/2 10/22/2
f 8/10/2 12/52/2 10/22/2
f 30/24/7 11/27/7 13/25/7
f 11/27/6 9/871/6 15/28/6
f 12/29/5 14/48/5 16/30/5
f 9/32/8 19/45/8 20/33/8
f 22/35/9 10/872/9 16/36/9
f 11/5/2 7/18/2 3/39/2
f 3/39/2 18/42/2 9/38/2
f 18/42/2 19/44/2 9/38/2
f 17/40/10 18/42/10 3/39/10
f 24/9/10 23/8/10 18/42/10
f 18/42/2 23/8/2 22/43/2
f 19/45/8 22/35/8 21/37/8
f 17/15/1 20/17/1 21/46/1
f 12/29/11 26/55/11 28/47/11
f 32/49/1 31/51/1 27/11/1
f 25/12/8 27/11/8 31/51/8
f 25/12/2 26/56/2 12/52/2
f 29/4/12 31/51/12 5/53/12
f 13/54/1 15/16/1 1/869/1
f 5/53/1 31/51/1 32/49/1
f 13/54/1 1/869/1 5/53/1
f 26/55/10 30/24/10 32/26/10
f 25/12/2 29/4/2 30/6/2
f 56/57/1 53/103/1 48/58/1
f 61/60/2 39/74/2 43/61/2
f 34/63/3 36/78/3 55/64/3
f 40/66/4 38/69/4 59/67/4
f 46/70/1 60/107/1 59/67/1
f 38/69/1 34/59/1 48/58/1
f 46/70/1 59/67/1 38/69/1
f 49/71/1 33/873/1 47/72/1
f 39/74/5 37/109/5 33/75/5
f 36/77/6 34/874/6 38/69/6
f 42/80/2 54/100/2 55/64/2
f 36/78/2 40/66/2 44/79/2
f 42/80/2 55/64/2 36/78/2
f 62/81/7 43/84/7 45/82/7
f 43/84/6 41/875/6 47/85/6
f 44/86/5 46/105/5 48/87/5
f 41/89/8 51/102/8 52/90/8
f 54/92/9 42/876/9 48/93/9
f 43/61/2 39/74/2 35/96/2
f 35/96/2 50/99/2 41/95/2
f 50/99/2 51/101/2 41/95/2
f 49/97/10 50/99/10 35/96/10
f 56/65/10 55/64/10 50/99/10
f 50/99/2 55/64/2 54/100/2
f 51/102/8 54/92/8 53/94/8
f 49/71/1 52/73/1 53/103/1
f 44/86/11 58/111/11 60/104/11
f 64/106/1 63/108/1 59/67/1
f 57/68/8 59/67/8 63/108/8
f 57/68/2 58/112/2 44/79/2
f 61/60/12 63/108/12 37/109/12
f 45/110/1 47/72/1 33/873/1
f 37/109/1 63/108/1 64/106/1
f 45/110/1 33/873/1 37/109/1
f 58/111/10 62/81/10 64/83/10
f 57/68/2 61/60/2 62/62/2
f 66/113/10 68/116/10 67/114/10
f 68/116/2 72/118/2 71/117/2
f 72/118/8 70/120/8 69/119/8
f 70/120/1 66/877/1 65/121/1
f 71/117/5 69/119/5 65/122/5
f 68/124/6 66/878/6 70/120/6
f 74/125/10 76/128/10 75/126/10
f 76/128/2 80/130/2 79/129/2
f 80/130/8 78/132/8 77/131/8
f 78/132/1 74/879/1 73/133/1
f 79/129/5 77/131/5 73/134/5
f 76/136/6 74/880/6 78/132/6
f 82/137/10 84/140/10 83/138/10
f 84/140/2 88/142/2 87/141/2
f 88/142/8 86/144/8 85/143/8
f 86/144/1 82/881/1 81/145/1
f 87/141/5 85/143/5 81/146/5
f 84/148/6 82/882/6 86/144/6
f 90/149/10 92/152/10 91/150/10
f 92/152/2 96/154/2 95/153/2
f 96/154/8 94/156/8 93/155/8
f 94/156/1 90/883/1 89/157/1
f 95/153/5 93/155/5 89/158/5
f 92/160/6 90/884/6 94/156/6
f 98/161/10 100/164/10 99/162/10
f 100/164/2 104/166/2 103/165/2
f 104/166/8 102/168/8 101/167/8
f 102/168/1 98/885/1 97/169/1
f 103/165/5 101/167/5 97/170/5
f 100/172/6 98/886/6 102/168/6
f 106/173/10 108/176/10 107/174/10
f 108/176/2 112/178/2 111/177/2
f 112/178/8 110/180/8 109/179/8
f 110/180/1 106/887/1 105/181/1
f 111/177/5 109/179/5 105/182/5
f 108/184/6 106/888/6 110/180/6
f 114/185/10 116/188/10 115/186/10
f 116/188/2 120/190/2 119/189/2
f 120/190/8 118/192/8 117/191/8
f 118/192/1 114/889/1 113/193/1
f 119/189/5 117/191/5 113/194/5
f 116/196/6 114/890/6 118/192/6
f 122/197/10 124/200/10 123/198/10
f 124/200/2 128/202/2 127/201/2
f 128/202/8 126/204/8 125/203/8
f 126/204/1 122/891/1 121/205/1
f 127/201/5 125/203/5 121/206/5
f 124/208/6 122/892/6 126/204/6
f 130/209/10 132/212/10 131/210/10
f 132/212/2 136/214/2 135/213/2
f 136/214/8 134/216/8 133/215/8
f 134/216/1 130/893/1 129/217/1
f 135/213/5 133/215/5 129/218/5
f 132/220/6 130/894/6 134/216/6
f 138/221/10 140/224/10 139/222/10
f 140/224/2 144/226/2 143/225/2
f 144/226/8 142/228/8 141/227/8
f 142/228/1 138/895/1 137/229/1
f 143/225/5 141/227/5 137/230/5
f 140/232/6 138/896/6 142/228/6
f 146/233/10 148/236/10 147/234/10
f 148/236/2 152/238/2 151/237/2
f 152/238/8 150/240/8 149/239/8
f 150/240/1 146/897/1 145/241/1
f 151/237/5 149/239/5 145/242/5
f 148/244/6 146/898/6 150/240/6
f 154/245/10 156/248/10 155/246/10
f 156/248/2 160/250/2 159/249/2
f 160/250/8 158/252/8 157/251/8
f 158/252/1 154/899/1 153/253/1
f 159/249/5 157/251/5 153/254/5
f 156/256/6 154/900/6 158/252/6
f 162/257/10 164/260/10 163/258/10
f 164/260/2 168/262/2 167/261/2
f 168/262/8 166/264/8 165/263/8
f 166/264/1 162/901/1 161/265/1
f 167/261/5 165/263/5 161/266/5
f 164/268/6 162/902/6 166/264/6
f 170/269/10 172/272/10 171/270/10
f 172/272/2 176/274/2 175/273/2
f 176/274/8 174/276/8 173/275/8
f 174/276/1 170/903/1 169/277/1
f 175/273/5 173/275/5 169/278/5
f 172/280/6 170/904/6 174/276/6
f 178/281/10 180/284/10 179/282/10
f 180/284/2 184/286/2 183/285/2
f 184/286/8 182/288/8 181/287/8
f 182/288/1 178/905/1 177/289/1
f 183/285/5 181/287/5 177/290/5
f 180/292/6 178/906/6 182/288/6
f 186/293/10 188/296/10 187/294/10
f 188/296/2 192/298/2 191/297/2
f 192/298/8 190/300/8 189/299/8
f 190/300/1 186/907/1 185/301/1
f 191/297/5 189/299/5 185/302/5
f 188/304/6 186/908/6 190/300/6
f 194/305/10 196/308/10 195/306/10
f 196/308/2 200/310/2 199/309/2
f 200/310/8 198/312/8 197/311/8
f 198/312/1 194/909/1 193/313/1
f 199/309/5 197/311/5 193/314/5
f 196/316/6 194/910/6 198/312/6
f 202/317/10 204/320/10 203/318/10
f 204/320/2 208/322/2 207/321/2
f 208/322/8 206/324/8 205/323/8
f 206/324/1 202/911/1 201/325/1
f 207/321/5 205/323/5 201/326/5
f 204/328/6 202/912/6 206/324/6
f 210/329/10 212/332/10 211/330/10
f 212/332/2 216/334/2 215/333/2
f 216/334/8 214/336/8 213/335/8
f 214/336/1 210/913/1 209/337/1
f 215/333/5 213/335/5 209/338/5
f 212/340/6 210/914/6 214/336/6
f 218/341/10 220/344/10 219/342/10
f 220/344/2 224/346/2 223/345/2
f 224/346/8 222/348/8 221/347/8
f 222/348/1 218/915/1 217/349/1
f 223/345/5 221/347/5 217/350/5
f 220/352/6 218/916/6 222/348/6
f 226/353/10 228/356/10 227/354/10
f 228/356/2 232/358/2 231/357/2
f 232/358/8 230/360/8 229/359/8
f 230/360/1 226/917/1 225/361/1
f 231/357/5 229/359/5 225/362/5
f 228/364/6 226/918/6 230/360/6
f 234/365/10 236/368/10 235/366/10
f 236/368/2 240/370/2 239/369/2
f 240/370/8 238/372/8 237/371/8
f 238/372/1 234/919/1 233/373/1
f 239/369/5 237/371/5 233/374/5
f 236/376/6 234/920/6 238/372/6
f 242/377/10 244/380/10 243/378/10
f 244/380/2 248/382/2 247/381/2
f 248/382/8 246/384/8 245/383/8
f 246/384/1 242/921/1 241/385/1
f 247/381/5 245/383/5 241/386/5
f 244/388/6 242/922/6 246/384/6
f 250/389/10 252/392/10 251/390/10
f 252/392/2 256/394/2 255/393/2
f 256/394/8 254/396/8 253/395/8
f 254/396/1 250/923/1 249/397/1
f 255/393/5 253/395/5 249/398/5
f 252/400/6 250/924/6 254/396/6
f 258/401/10 260/404/10 259/402/10
f 260/404/2 264/406/2 263/405/2
f 264/406/8 262/408/8 261/407/8
f 262/408/1 258/925/1 257/409/1
f 263/405/5 261/407/5 257/410/5
f 260/412/6 258/926/6 262/408/6
f 266/413/10 268/416/10 267/414/10
f 268/416/2 272/418/2 271/417/2
f 272/418/8 270/420/8 269/419/8
f 270/420/1 266/927/1 265/421/1
f 271/417/5 269/419/5 265/422/5
f 268/424/6 266/928/6 270/420/6
f 274/425/10 276/428/10 275/426/10
f 276/428/2 280/430/2 279/429/2
f 280/430/8 278/432/8 277/431/8
f 278/432/1 274/929/1 273/433/1
f 279/429/5 277/431/5 273/434/5
f 276/436/6 274/930/6 278/432/6
f 282/437/10 284/440/10 283/438/10
f 284/440/2 288/442/2 287/441/2
f 288/442/8 286/444/8 285/443/8
f 286/444/1 282/931/1 281/445/1
f 287/441/5 285/443/5 281/446/5
f 284/448/6 282/932/6 286/444/6
f 290/449/10 292/452/10 291/450/10
f 292/452/2 296/454/2 295/453/2
f 296/454/8 294/456/8 293/455/8
f 294/456/1 290/933/1 289/457/1
f 295/453/5 293/455/5 289/458/5
f 292/460/6 290/934/6 294/456/6
f 298/461/10 300/464/10 299/462/10
f 300/464/2 304/466/2 303/465/2
f 304/466/8 302/468/8 301/467/8
f 302/468/1 298/935/1 297/469/1
f 303/465/5 301/467/5 297/470/5
f 300/472/6 298/936/6 302/468/6
f 306/473/10 308/476/10 307/474/10
f 308/476/2 312/478/2 311/477/2
f 312/478/8 310/480/8 309/479/8
f 310/480/1 306/937/1 305/481/1
f 311/477/5 309/479/5 305/482/5
f 308/484/6 306/938/6 310/480/6
f 314/485/10 316/488/10 315/486/10
f 316/488/2 320/490/2 319/489/2
f 320/490/8 318/492/8 317/491/8
f 318/492/1 314/939/1 313/493/1
f 319/489/5 317/491/5 313/494/5
f 316/496/6 314/940/6 318/492/6
f 322/497/10 324/500/10 323/498/10
f 324/500/2 328/502/2 327/501/2
f 328/502/8 326/504/8 325/503/8
f 326/504/1 322/941/1 321/505/1
f 327/501/5 325/503/5 321/506/5
f 324/508/6 322/942/6 326/504/6
f 330/509/10 332/512/10 331/510/10
f 332/512/2 336/514/2 335/513/2
f 336/514/8 334/516/8 333/515/8
f 334/516/1 330/943/1 329/517/1
f 335/513/5 333/515/5 329/518/5
f 332/520/6 330/944/6 334/516/6
f 338/521/10 340/524/10 339/522/10
f 340/524/2 344/526/2 343/525/2
f 344/526/8 342/528/8 341/527/8
f 342/528/1 338/945/1 337/529/1
f 343/525/5 341/527/5 337/530/5
f 340/532/6 338/946/6 342/528/6
f 346/533/10 348/536/10 347/534/10
f 348/536/2 352/538/2 351/537/2
f 352/538/8 350/540/8 349/539/8
f 350/540/1 346/947/1 345/541/1
f 351/537/5 349/539/5 345/542/5
f 348/544/6 346/948/6 350/540/6
f 354/545/10 356/548/10 355/546/10
f 356/548/2 360/550/2 359/549/2
f 360/550/8 358/552/8 357/551/8
f 358/552/1 354/949/1 353/553/1
f 359/549/5 357/551/5 353/554/5
f 356/556/6 354/950/6 358/552/6
f 362/557/10 364/560/10 363/558/10
f 364/560/2 368/562/2 367/561/2
f 368/562/8 366/564/8 365/563/8
f 366/564/1 362/951/1 361/565/1
f 367/561/5 365/563/5 361/566/5
f 364/568/6 362/952/6 366/564/6
f 370/569/10 372/572/10 371/570/10
f 372/572/2 376/574/2 375/573/2
f 376/574/8 374/576/8 373/575/8
f 374/576/1 370/953/1 369/577/1
f 375/573/5 373/575/5 369/578/5
f 372/580/6 370/954/6 374/576/6
f 378/581/10 380/584/10 379/582/10
f 380/584/2 384/586/2 383/585/2
f 384/586/8 382/588/8 381/587/8
f 382/588/1 378/955/1 377/589/1
f 383/585/5 381/587/5 377/590/5
f 380/592/6 378/956/6 382/588/6
f 386/593/10 388/596/10 387/594/10
f 388/596/2 392/598/2 391/597/2
f 392/598/8 390/600/8 389/599/8
f 390/600/1 386/957/1 385/601/1
f 391/597/5 389/599/5 385/602/5
f 388/604/6 386/958/6 390/600/6
f 394/605/10 396/608/10 395/606/10
f 396/608/2 400/610/2 399/609/2
f 400/610/8 398/612/8 397/611/8
f 398/612/1 394/959/1 393/613/1
f 399/609/5 397/611/5 393/614/5
f 396/616/6 394/960/6 398/612/6
f 402/617/10 404/620/10 403/618/10
f 404/620/2 408/622/2 407/621/2
f 408/622/8 406/624/8 405/623/8
f 406/624/1 402/961/1 401/625/1
f 407/621/5 405/623/5 401/626/5
f 404/628/6 402/962/6 406/624/6
f 410/629/10 412/632/10 411/630/10
f 412/632/2 416/634/2 415/633/2
f 416/634/8 414/636/8 413/635/8
f 414/636/1 410/963/1 409/637/1
f 415/633/5 413/635/5 409/638/5
f 412/640/6 410/964/6 414/636/6
f 418/641/10 420/644/10 419/642/10
f 420/644/2 424/646/2 423/645/2
f 424/646/8 422/648/8 421/647/8
f 422/648/1 418/965/1 417/649/1
f 423/645/5 421/647/5 417/650/5
f 420/652/6 418/966/6 422/648/6
f 426/653/10 428/656/10 427/654/10
f 428/656/2 432/658/2 431/657/2
f 432/658/8 430/660/8 429/659/8
f 430/660/1 426/967/1 425/661/1
f 431/657/5 429/659/5 425/662/5
f 428/664/6 426/968/6 430/660/6
f 434/665/10 436/668/10 435/666/10
f 436/668/2 440/670/2 439/669/2
f 440/670/8 438/672/8 437/671/8
f 438/672/1 434/969/1 433/673/1
f 439/669/5 437/671/5 433/674/5
f 436/676/6 434/970/6 438/672/6
f 442/677/10 444/680/10 443/678/10
f 444/680/2 448/682/2 447/681/2
f 448/682/8 446/684/8 445/683/8
f 446/684/1 442/971/1 441/685/1
f 447/681/5 445/683/5 441/686/5
f 444/688/6 442/972/6 446/684/6
f 450/689/10 452/692/10 451/690/10
f 452/692/2 456/694/2 455/693/2
f 456/694/8 454/696/8 453/695/8
f 454/696/1 450/973/1 449/697/1
f 455/693/5 453/695/5 449/698/5
f 452/700/6 450/974/6 454/696/6
f 458/701/10 460/704/10 459/702/10
f 460/704/2 464/706/2 463/705/2
f 464/706/8 462/708/8 461/707/8
f 462/708/1 458/975/1 457/709/1
f 463/705/5 461/707/5 457/710/5
f 460/712/6 458/976/6 462/708/6
f 466/713/10 468/716/10 467/714/10
f 468/716/2 472/718/2 471/717/2
f 472/718/8 470/720/8 469/719/8
f 470/720/1 466/977/1 465/721/1
f 471/717/5 469/719/5 465/722/5
f 468/724/6 466/978/6 470/720/6
f 474/725/10 476/728/10 475/726/10
f 476/728/2 480/730/2 479/729/2
f 480/730/8 478/732/8 477/731/8
f 478/732/1 474/979/1 473/733/1
f 479/729/5 477/731/5 473/734/5
f 476/736/6 474/980/6 478/732/6
f 482/737/10 484/740/10 483/738/10
f 484/740/2 488/742/2 487/741/2
f 488/742/8 486/744/8 485/743/8
f 486/744/1 482/981/1 481/745/1
f 487/741/5 485/743/5 481/746/5
f 484/748/6 482/982/6 486/744/6
f 490/749/10 492/752/10 491/750/10
f 492/752/2 496/754/2 495/753/2
f 496/754/8 494/756/8 493/755/8
f 494/756/1 490/983/1 489/757/1
f 495/753/5 493/755/5 489/758/5
f 492/760/6 490/984/6 494/756/6
f 498/761/10 500/764/10 499/762/10
f 500/764/2 504/766/2 503/765/2
f 504/766/8 502/768/8 501/767/8
f 502/768/1 498/985/1 497/769/1
f 503/765/5 501/767/5 497/770/5
f 500/772/6 498/986/6 502/768/6
f 506/773/10 508/776/10 507/774/10
f 508/776/2 512/778/2 511/777/2
f 512/778/8 510/780/8 509/779/8
f 510/780/1 506/987/1 505/781/1
f 511/777/5 509/779/5 505/782/5
f 508/784/6 506/988/6 510/780/6
f 514/785/10 516/788/10 515/786/10
f 516/788/2 520/790/2 519/789/2
f 520/790/8 518/792/8 517/791/8
f 518/792/1 514/989/1 513/793/1
f 519/789/5 517/791/5 513/794/5
f 516/796/6 514/990/6 518/792/6
f 522/797/10 524/800/10 523/798/10
f 524/800/2 528/802/2 527/801/2
f 528/802/8 526/804/8 525/803/8
f 526/804/1 522/991/1 521/805/1
f 527/801/5 525/803/5 521/806/5
f 524/808/6 522/992/6 526/804/6
f 530/809/10 532/812/10 531/810/10
f 532/812/2 536/814/2 535/813/2
f 536/814/8 534/816/8 533/815/8
f 534/816/1 530/993/1 529/817/1
f 535/813/5 533/815/5 529/818/5
f 532/820/6 530/994/6 534/816/6
f 538/821/10 540/824/10 539/822/10
f 540/824/2 544/826/2 543/825/2
f 544/826/8 542/828/8 541/827/8
f 542/828/1 538/995/1 537/829/1
f 543/825/5 541/827/5 537/830/5
f 540/832/6 538/996/6 542/828/6
f 546/833/10 548/836/10 547/834/10
f 548/836/2 552/838/2 551/837/2
f 552/838/8 550/840/8 549/839/8
f 550/840/1 546/997/1 545/841/1
f 551/837/5 549/839/5 545/842/5
f 548/844/6 546/998/6 550/840/6
f 554/845/10 556/848/10 555/846/10
f 556/848/2 560/850/2 559/849/2
f 560/850/8 558/852/8 557/851/8
f 558/852/1 554/999/1 553/853/1
f 559/849/5 557/851/5 553/854/5
f 556/856/6 554/1000/6 558/852/6
f 562/857/10 564/860/10 563/858/10
f 564/860/2 568/862/2 567/861/2
f 568/862/8 566/864/8 565/863/8
f 566/864/1 562/1001/1 561/865/1
f 567/861/5 565/863/5 561/866/5
f 564/868/6 562/1002/6 566/864/6
