# Blender 4.4.0
# www.blender.org
mtllib normalEnemy.mtl
o chara
v -0.558061 0.558061 -0.200000
v -0.500000 0.558061 -0.141939
v -0.558061 0.500000 -0.141939
v -0.517006 0.558061 -0.182995
v -0.524539 0.524539 -0.175461
v -0.517006 0.517006 -0.141940
v -0.558061 0.517006 -0.182995
v -0.558061 0.941939 -0.200000
v -0.558061 1.000000 -0.141940
v -0.500000 0.941939 -0.141940
v -0.558061 0.982994 -0.182995
v -0.524539 0.975461 -0.175461
v -0.517006 0.982994 -0.141940
v -0.517006 0.941939 -0.182995
v -0.558061 0.500000 0.941939
v -0.500000 0.558061 0.941939
v -0.558061 0.558061 1.000000
v -0.517006 0.517006 0.941939
v -0.524539 0.524539 0.975461
v -0.517006 0.558061 0.982994
v -0.558061 0.517006 0.982994
v -0.500000 0.941940 0.941939
v -0.558061 1.000000 0.941939
v -0.558061 0.941940 1.000000
v -0.517006 0.982994 0.941939
v -0.524539 0.975461 0.975461
v -0.558061 0.982994 0.982994
v -0.517006 0.941940 0.982994
v -0.941939 0.500000 -0.141939
v -1.000000 0.558061 -0.141939
v -0.941939 0.558061 -0.200000
v -0.982994 0.517006 -0.141940
v -0.975461 0.524539 -0.175461
v -0.982994 0.558061 -0.182995
v -0.941939 0.517006 -0.182995
v -0.941939 0.941939 -0.200000
v -1.000000 0.941939 -0.141940
v -0.941939 1.000000 -0.141940
v -0.982994 0.941939 -0.182995
v -0.975461 0.975461 -0.175461
v -0.982994 0.982994 -0.141940
v -0.941939 0.982994 -0.182995
v -0.941939 0.500000 0.941939
v -0.941939 0.558061 1.000000
v -1.000000 0.558061 0.941939
v -0.941939 0.517006 0.982994
v -0.975461 0.524539 0.975461
v -0.982994 0.558061 0.982994
v -0.982994 0.517006 0.941939
v -1.000000 0.941940 0.941939
v -0.941939 0.941940 1.000000
v -0.941939 1.000000 0.941939
v -0.982994 0.941940 0.982994
v -0.975461 0.975461 0.975461
v -0.941939 0.982994 0.982994
v -0.982994 0.982994 0.941939
v 0.441939 1.058061 -0.500000
v 0.500000 1.058061 -0.441940
v 0.441939 1.000000 -0.441940
v 0.482994 1.058061 -0.482995
v 0.475461 1.024539 -0.475461
v 0.482994 1.017006 -0.441940
v 0.441939 1.017006 -0.482995
v 0.441939 1.941939 -0.500000
v 0.441939 2.000000 -0.441940
v 0.500000 1.941939 -0.441940
v 0.441939 1.982994 -0.482995
v 0.475461 1.975461 -0.475461
v 0.482994 1.982994 -0.441940
v 0.482994 1.941939 -0.482995
v 0.441939 1.000000 0.441939
v 0.500000 1.058061 0.441939
v 0.441939 1.058061 0.500000
v 0.482994 1.017006 0.441939
v 0.475461 1.024539 0.475461
v 0.482994 1.058061 0.482994
v 0.441939 1.017006 0.482994
v 0.500000 1.941939 0.441939
v 0.441939 2.000000 0.441939
v 0.441939 1.941939 0.500000
v 0.482994 1.982994 0.441939
v 0.475461 1.975461 0.475461
v 0.441939 1.982994 0.482994
v 0.482994 1.941939 0.482994
v -0.441939 1.000000 -0.441940
v -0.500000 1.058061 -0.441940
v -0.441939 1.058061 -0.500000
v -0.482994 1.017006 -0.441940
v -0.475461 1.024539 -0.475461
v -0.482994 1.058061 -0.482995
v -0.441939 1.017006 -0.482995
v -0.441939 1.941939 -0.500000
v -0.500000 1.941939 -0.441940
v -0.441939 2.000000 -0.441940
v -0.482994 1.941939 -0.482995
v -0.475461 1.975461 -0.475461
v -0.482994 1.982994 -0.441940
v -0.441939 1.982994 -0.482995
v -0.441939 1.000000 0.441939
v -0.441939 1.058061 0.500000
v -0.500000 1.058061 0.441939
v -0.441939 1.017006 0.482994
v -0.475461 1.024539 0.475461
v -0.482994 1.058061 0.482994
v -0.482994 1.017006 0.441939
v -0.500000 1.941939 0.441939
v -0.441939 1.941939 0.500000
v -0.441939 2.000000 0.441939
v -0.482994 1.941939 0.482994
v -0.475461 1.975461 0.475461
v -0.441939 1.982994 0.482994
v -0.482994 1.982994 0.441939
v 0.691939 -0.941939 -0.350000
v 0.750000 -0.941939 -0.291939
v 0.691939 -1.000000 -0.291939
v 0.732994 -0.941939 -0.332994
v 0.725461 -0.975461 -0.325461
v 0.732994 -0.982994 -0.291939
v 0.691939 -0.982994 -0.332994
v 0.691939 0.941939 -0.350000
v 0.691939 1.000000 -0.291940
v 0.750000 0.941939 -0.291939
v 0.691939 0.982994 -0.332995
v 0.725461 0.975461 -0.325461
v 0.732994 0.982994 -0.291939
v 0.732994 0.941939 -0.332995
v 0.691939 -1.000000 0.291940
v 0.750000 -0.941939 0.291939
v 0.691939 -0.941939 0.350000
v 0.732994 -0.982994 0.291939
v 0.725461 -0.975461 0.325461
v 0.732994 -0.941939 0.332995
v 0.691939 -0.982994 0.332995
v 0.750000 0.941939 0.291939
v 0.691939 1.000000 0.291939
v 0.691939 0.941939 0.350000
v 0.732994 0.982994 0.291939
v 0.725461 0.975461 0.325461
v 0.691939 0.982994 0.332994
v 0.732994 0.941939 0.332994
v -0.691939 -1.000000 -0.291939
v -0.750000 -0.941939 -0.291939
v -0.691939 -0.941939 -0.350000
v -0.732994 -0.982994 -0.291939
v -0.725461 -0.975461 -0.325461
v -0.732994 -0.941939 -0.332994
v -0.691939 -0.982994 -0.332994
v -0.691939 0.941939 -0.350000
v -0.750000 0.941939 -0.291939
v -0.691939 1.000000 -0.291940
v -0.732994 0.941939 -0.332995
v -0.725461 0.975461 -0.325461
v -0.732994 0.982994 -0.291939
v -0.691939 0.982994 -0.332995
v -0.691939 -1.000000 0.291940
v -0.691939 -0.941939 0.350000
v -0.750000 -0.941939 0.291939
v -0.691939 -0.982994 0.332995
v -0.725461 -0.975461 0.325461
v -0.732994 -0.941939 0.332995
v -0.732994 -0.982994 0.291939
v -0.750000 0.941939 0.291939
v -0.691939 0.941939 0.350000
v -0.691939 1.000000 0.291939
v -0.732994 0.941939 0.332994
v -0.725461 0.975461 0.325461
v -0.691939 0.982994 0.332994
v -0.732994 0.982994 0.291939
v -0.208061 -1.941939 -0.250000
v -0.150000 -1.941939 -0.191939
v -0.208061 -2.000000 -0.191939
v -0.167006 -1.941939 -0.232994
v -0.174539 -1.975461 -0.225461
v -0.167006 -1.982994 -0.191939
v -0.208061 -1.982994 -0.232994
v -0.208061 -1.058061 -0.250000
v -0.208061 -1.000000 -0.191939
v -0.150000 -1.058061 -0.191939
v -0.208061 -1.017006 -0.232994
v -0.174539 -1.024539 -0.225461
v -0.167006 -1.017006 -0.191939
v -0.167006 -1.058061 -0.232994
v -0.208061 -2.000000 0.191940
v -0.150000 -1.941939 0.191940
v -0.208061 -1.941939 0.250000
v -0.167006 -1.982994 0.191940
v -0.174539 -1.975461 0.225461
v -0.167006 -1.941939 0.232995
v -0.208061 -1.982994 0.232995
v -0.150000 -1.058061 0.191940
v -0.208061 -1.000000 0.191940
v -0.208061 -1.058061 0.250000
v -0.167006 -1.017006 0.191940
v -0.174539 -1.024539 0.225461
v -0.208061 -1.017006 0.232995
v -0.167006 -1.058061 0.232995
v -0.591939 -2.000000 -0.191939
v -0.650000 -1.941939 -0.191939
v -0.591939 -1.941939 -0.250000
v -0.632994 -1.982994 -0.191939
v -0.625461 -1.975461 -0.225461
v -0.632994 -1.941939 -0.232994
v -0.591939 -1.982994 -0.232994
v -0.591939 -1.058061 -0.250000
v -0.650000 -1.058061 -0.191939
v -0.591939 -1.000000 -0.191939
v -0.632994 -1.058061 -0.232994
v -0.625461 -1.024539 -0.225461
v -0.632994 -1.017006 -0.191939
v -0.591939 -1.017006 -0.232994
v -0.591939 -2.000000 0.191940
v -0.591939 -1.941939 0.250000
v -0.650000 -1.941939 0.191940
v -0.591939 -1.982994 0.232995
v -0.625461 -1.975461 0.225461
v -0.632994 -1.941939 0.232995
v -0.632994 -1.982994 0.191940
v -0.650000 -1.058061 0.191940
v -0.591939 -1.058061 0.250000
v -0.591939 -1.000000 0.191940
v -0.632994 -1.058061 0.232995
v -0.625461 -1.024539 0.225461
v -0.591939 -1.017006 0.232995
v -0.632994 -1.017006 0.191940
v 0.591939 -1.941939 -0.250000
v 0.650000 -1.941939 -0.191939
v 0.591939 -2.000000 -0.191939
v 0.632994 -1.941939 -0.232994
v 0.625461 -1.975461 -0.225461
v 0.632994 -1.982994 -0.191939
v 0.591939 -1.982994 -0.232994
v 0.591939 -1.058061 -0.250000
v 0.591939 -1.000000 -0.191939
v 0.650000 -1.058061 -0.191939
v 0.591939 -1.017006 -0.232994
v 0.625461 -1.024539 -0.225461
v 0.632994 -1.017006 -0.191939
v 0.632994 -1.058061 -0.232994
v 0.591939 -2.000000 0.191940
v 0.650000 -1.941939 0.191940
v 0.591939 -1.941939 0.250000
v 0.632994 -1.982994 0.191940
v 0.625461 -1.975461 0.225461
v 0.632994 -1.941939 0.232995
v 0.591939 -1.982994 0.232995
v 0.650000 -1.058061 0.191940
v 0.591939 -1.000000 0.191940
v 0.591939 -1.058061 0.250000
v 0.632994 -1.017006 0.191940
v 0.625461 -1.024539 0.225461
v 0.591939 -1.017006 0.232995
v 0.632994 -1.058061 0.232995
v 0.208061 -2.000000 -0.191939
v 0.150000 -1.941939 -0.191939
v 0.208061 -1.941939 -0.250000
v 0.167006 -1.982994 -0.191939
v 0.174539 -1.975461 -0.225461
v 0.167006 -1.941939 -0.232994
v 0.208061 -1.982994 -0.232994
v 0.208061 -1.058061 -0.250000
v 0.150000 -1.058061 -0.191939
v 0.208061 -1.000000 -0.191939
v 0.167006 -1.058061 -0.232994
v 0.174539 -1.024539 -0.225461
v 0.167006 -1.017006 -0.191939
v 0.208061 -1.017006 -0.232994
v 0.208061 -2.000000 0.191940
v 0.208061 -1.941939 0.250000
v 0.150000 -1.941939 0.191940
v 0.208061 -1.982994 0.232995
v 0.174539 -1.975461 0.225461
v 0.167006 -1.941939 0.232995
v 0.167006 -1.982994 0.191940
v 0.150000 -1.058061 0.191940
v 0.208061 -1.058061 0.250000
v 0.208061 -1.000000 0.191940
v 0.167006 -1.058061 0.232995
v 0.174539 -1.024539 0.225461
v 0.208061 -1.017006 0.232995
v 0.167006 -1.017006 0.191940
v 0.941939 0.558061 -0.200000
v 1.000000 0.558061 -0.141939
v 0.941939 0.500000 -0.141939
v 0.982994 0.558061 -0.182995
v 0.975461 0.524539 -0.175461
v 0.982994 0.517006 -0.141940
v 0.941939 0.517006 -0.182995
v 0.941939 0.941939 -0.200000
v 0.941939 1.000000 -0.141940
v 1.000000 0.941939 -0.141940
v 0.941939 0.982994 -0.182995
v 0.975461 0.975461 -0.175461
v 0.982994 0.982994 -0.141940
v 0.982994 0.941939 -0.182995
v 0.941939 0.500000 0.941939
v 1.000000 0.558061 0.941939
v 0.941939 0.558061 1.000000
v 0.982994 0.517006 0.941939
v 0.975461 0.524539 0.975461
v 0.982994 0.558061 0.982994
v 0.941939 0.517006 0.982994
v 1.000000 0.941940 0.941939
v 0.941939 1.000000 0.941939
v 0.941939 0.941940 1.000000
v 0.982994 0.982994 0.941939
v 0.975461 0.975461 0.975461
v 0.941939 0.982994 0.982994
v 0.982994 0.941940 0.982994
v 0.558061 0.500000 -0.141939
v 0.500000 0.558061 -0.141939
v 0.558061 0.558061 -0.200000
v 0.517006 0.517006 -0.141940
v 0.524539 0.524539 -0.175461
v 0.517006 0.558061 -0.182995
v 0.558061 0.517006 -0.182995
v 0.558061 0.941939 -0.200000
v 0.500000 0.941939 -0.141940
v 0.558061 1.000000 -0.141940
v 0.517006 0.941939 -0.182995
v 0.524539 0.975461 -0.175461
v 0.517006 0.982994 -0.141940
v 0.558061 0.982994 -0.182995
v 0.558061 0.500000 0.941939
v 0.558061 0.558061 1.000000
v 0.500000 0.558061 0.941939
v 0.558061 0.517006 0.982994
v 0.524539 0.524539 0.975461
v 0.517006 0.558061 0.982994
v 0.517006 0.517006 0.941939
v 0.500000 0.941940 0.941939
v 0.558061 0.941940 1.000000
v 0.558061 1.000000 0.941939
v 0.517006 0.941940 0.982994
v 0.524539 0.975461 0.975461
v 0.558061 0.982994 0.982994
v 0.517006 0.982994 0.941939
vn -0.0000 -0.0000 -1.0000
vn -0.0000 -1.0000 -0.0000
vn 1.0000 -0.0000 -0.0000
vn -0.0000 1.0000 -0.0000
vn -1.0000 -0.0000 -0.0000
vn -0.0000 -0.0000 1.0000
vn 0.2402 -0.2402 -0.9406
vn 0.5774 -0.5774 -0.5773
vn 0.1479 -0.6993 -0.6993
vn 0.9406 -0.2402 -0.2402
vn 0.6993 -0.1479 -0.6993
vn 0.2402 -0.9406 -0.2402
vn 0.6993 -0.6993 -0.1479
vn 0.2402 0.2402 -0.9406
vn 0.5774 0.5774 -0.5773
vn 0.6993 0.1479 -0.6993
vn 0.2402 0.9406 -0.2402
vn 0.1479 0.6993 -0.6993
vn 0.9406 0.2402 -0.2402
vn 0.6993 0.6993 -0.1479
vn 0.2402 -0.9406 0.2402
vn 0.5773 -0.5774 0.5774
vn 0.1479 -0.6993 0.6993
vn 0.9406 -0.2402 0.2402
vn 0.6993 -0.6993 0.1479
vn 0.2402 -0.2402 0.9406
vn 0.6993 -0.1479 0.6993
vn 0.9406 0.2402 0.2402
vn 0.5773 0.5774 0.5773
vn 0.6993 0.1479 0.6993
vn 0.2402 0.9406 0.2402
vn 0.6993 0.6993 0.1479
vn 0.2402 0.2402 0.9406
vn 0.1479 0.6993 0.6993
vn -0.2402 -0.9406 -0.2402
vn -0.5774 -0.5774 -0.5773
vn -0.1479 -0.6993 -0.6993
vn -0.9406 -0.2402 -0.2402
vn -0.6993 -0.6993 -0.1479
vn -0.2402 -0.2402 -0.9406
vn -0.6993 -0.1479 -0.6993
vn -0.2402 0.2402 -0.9406
vn -0.5774 0.5774 -0.5773
vn -0.1479 0.6993 -0.6993
vn -0.9406 0.2402 -0.2402
vn -0.6993 0.1479 -0.6993
vn -0.2402 0.9406 -0.2402
vn -0.6993 0.6993 -0.1479
vn -0.2402 -0.9406 0.2402
vn -0.5774 -0.5774 0.5774
vn -0.6993 -0.6993 0.1479
vn -0.2402 -0.2402 0.9406
vn -0.1479 -0.6993 0.6993
vn -0.9406 -0.2402 0.2402
vn -0.6993 -0.1479 0.6993
vn -0.9406 0.2402 0.2402
vn -0.5773 0.5774 0.5773
vn -0.6993 0.6993 0.1479
vn -0.2402 0.2402 0.9406
vn -0.6993 0.1479 0.6993
vn -0.2402 0.9406 0.2402
vn -0.1479 0.6993 0.6993
vn 0.5774 0.5774 0.5773
vn -0.5773 -0.5774 0.5774
vn -0.5774 0.5774 0.5773
vn 0.5774 -0.5774 -0.5774
vn 0.5774 -0.5774 0.5773
vn -0.5774 -0.5774 0.5773
vn 0.5774 0.5774 -0.5774
vn -0.5774 0.5774 -0.5774
vn 0.5774 -0.5774 0.5774
vt 0.595970 0.970970
vt 0.404030 0.779030
vt 0.595970 0.779030
vt 0.345970 0.720970
vt 0.154030 0.529030
vt 0.345970 0.529030
vt 0.610485 0.970970
vt 0.389515 0.779030
vt 0.610485 0.779030
vt 0.610485 0.220970
vt 0.389515 0.029030
vt 0.610485 0.029030
vt 0.845970 0.720970
vt 0.654030 0.529030
vt 0.845970 0.529030
vt 0.610485 0.985485
vt 0.389515 0.764515
vt 0.610485 0.764515
vt 0.860485 0.735485
vt 0.639515 0.514515
vt 0.860485 0.514515
vt 0.617742 0.990323
vt 0.382258 0.759677
vt 0.617742 0.759677
vt 0.610485 0.235485
vt 0.389515 0.014515
vt 0.610485 0.014515
vt 0.345970 0.737904
vt 0.154030 0.512096
vt 0.345970 0.512096
vt 0.595970 0.737904
vt 0.404030 0.512096
vt 0.595970 0.512096
vt 0.365323 0.729264
vt 0.134677 0.520736
vt 0.365323 0.520736
vt 0.845970 0.737904
vt 0.654030 0.512096
vt 0.845970 0.512096
vt 0.610485 0.720970
vt 0.389515 0.529030
vt 0.610485 0.529030
vt 0.617742 0.229264
vt 0.382258 0.020736
vt 0.617742 0.020736
vt 0.610485 0.735485
vt 0.389515 0.514515
vt 0.610485 0.514515
vt 0.617742 0.490323
vt 0.382258 0.259677
vt 0.617742 0.259677
vt 0.595970 0.237904
vt 0.404030 0.012096
vt 0.595970 0.012096
vt 0.360485 0.735485
vt 0.139515 0.514515
vt 0.360485 0.514515
vt 0.595970 0.470970
vt 0.404030 0.279030
vt 0.595970 0.279030
vt 0.617742 0.729264
vt 0.382258 0.520736
vt 0.617742 0.520736
vt 0.610485 0.470970
vt 0.389515 0.279030
vt 0.610485 0.279030
vt 0.610485 0.485485
vt 0.389515 0.264515
vt 0.610485 0.264515
vt 0.865323 0.729264
vt 0.634677 0.520736
vt 0.865323 0.520736
vt 0.404030 0.970970
vt 0.387270 1.000000
vt 0.375000 0.970970
vt 0.375000 0.005112
vt 0.404030 0.000000
vt 0.154030 0.737904
vt 0.137270 0.750000
vt 0.125000 0.737904
vt 0.625000 0.987730
vt 0.595970 1.000000
vt 0.875000 0.744888
vt 0.845970 0.750000
vt 0.612730 0.000000
vt 0.625000 0.012096
vt 0.125000 0.505112
vt 0.154030 0.500000
vt 0.404030 0.237904
vt 0.387270 0.250000
vt 0.375000 0.237904
vt 0.375000 0.262270
vt 0.404030 0.250000
vt 0.625000 0.244888
vt 0.595970 0.250000
vt 0.862730 0.500000
vt 0.875000 0.512096
vt 0.612730 0.250000
vt 0.625000 0.279030
vt 0.379090 0.752386
vt 0.345970 0.750000
vt 0.404030 0.737904
vt 0.375000 0.737904
vt 0.404030 0.750000
vt 0.625000 0.748296
vt 0.625000 0.779030
vt 0.595970 0.750000
vt 0.654030 0.737904
vt 0.625000 0.737904
vt 0.375000 0.501704
vt 0.375000 0.512096
vt 0.404030 0.470970
vt 0.375000 0.470970
vt 0.404030 0.500000
vt 0.620910 0.497614
vt 0.625000 0.512096
vt 0.595970 0.500000
vt 0.654030 0.500000
vt 0.389515 0.985485
vt 0.381135 1.000000
vt 0.375000 0.985485
vt 0.375000 0.006135
vt 0.389515 0.000000
vt 0.139515 0.735485
vt 0.131135 0.750000
vt 0.125000 0.735485
vt 0.625000 0.993865
vt 0.610485 1.000000
vt 0.875000 0.743865
vt 0.860485 0.750000
vt 0.618865 0.000000
vt 0.625000 0.014515
vt 0.125000 0.506135
vt 0.139515 0.500000
vt 0.389515 0.235485
vt 0.381135 0.250000
vt 0.375000 0.235485
vt 0.375000 0.256135
vt 0.389515 0.250000
vt 0.625000 0.243865
vt 0.610485 0.250000
vt 0.868865 0.500000
vt 0.875000 0.514515
vt 0.618865 0.250000
vt 0.625000 0.264515
vt 0.377045 0.750000
vt 0.360485 0.750000
vt 0.389515 0.735485
vt 0.375000 0.735485
vt 0.389515 0.750000
vt 0.625000 0.747955
vt 0.625000 0.764515
vt 0.610485 0.750000
vt 0.639515 0.735485
vt 0.625000 0.735485
vt 0.375000 0.502045
vt 0.375000 0.514515
vt 0.389515 0.485485
vt 0.375000 0.485485
vt 0.389515 0.500000
vt 0.622955 0.500000
vt 0.625000 0.514515
vt 0.610485 0.500000
vt 0.639515 0.500000
vt 0.382258 0.990323
vt 0.378067 1.000000
vt 0.375000 0.990323
vt 0.375000 0.008764
vt 0.382258 0.000000
vt 0.134677 0.729264
vt 0.129090 0.750000
vt 0.125000 0.729264
vt 0.625000 0.995910
vt 0.617742 1.000000
vt 0.875000 0.741236
vt 0.865323 0.750000
vt 0.621933 0.000000
vt 0.625000 0.020736
vt 0.125000 0.508764
vt 0.134677 0.500000
vt 0.382258 0.229264
vt 0.378067 0.250000
vt 0.375000 0.229264
vt 0.375000 0.254090
vt 0.382258 0.250000
vt 0.625000 0.241236
vt 0.617742 0.250000
vt 0.870910 0.500000
vt 0.875000 0.520736
vt 0.621933 0.250000
vt 0.625000 0.259677
vt 0.376022 0.748442
vt 0.365323 0.750000
vt 0.382258 0.729264
vt 0.375000 0.729264
vt 0.382258 0.750000
vt 0.625341 0.747079
vt 0.625000 0.759677
vt 0.617742 0.750000
vt 0.634677 0.729264
vt 0.625000 0.729264
vt 0.374659 0.502921
vt 0.375000 0.520736
vt 0.382258 0.490323
vt 0.375000 0.490323
vt 0.382258 0.500000
vt 0.623978 0.501558
vt 0.625000 0.520736
vt 0.617742 0.500000
vt 0.634677 0.500000
vt 0.389515 0.970970
vt 0.375000 0.012270
vt 0.154030 0.720970
vt 0.125000 0.720970
vt 0.875000 0.737730
vt 0.625000 0.029030
vt 0.125000 0.512270
vt 0.389515 0.220970
vt 0.375000 0.220970
vt 0.625000 0.237730
vt 0.875000 0.529030
vt 0.389515 0.720970
vt 0.375000 0.720970
vt 0.627045 0.745910
vt 0.654030 0.720970
vt 0.625000 0.720970
vt 0.372955 0.504090
vt 0.375000 0.529030
vt 0.389515 0.470970
vt 0.625000 0.529030
vt 0.404030 1.000000
vt 0.595970 0.000000
vt 0.375000 0.012096
vt 0.125000 0.512096
vt 0.375000 0.279030
vt 0.345970 0.500000
vt 0.154030 0.750000
vt 0.375000 0.779030
vt 0.845970 0.500000
vt 0.625000 0.470970
vt 0.389515 1.000000
vt 0.610485 0.000000
vt 0.375000 0.014515
vt 0.125000 0.514515
vt 0.375000 0.264515
vt 0.360485 0.500000
vt 0.139515 0.750000
vt 0.375000 0.764515
vt 0.860485 0.500000
vt 0.625000 0.485485
vt 0.382258 1.000000
vt 0.617742 0.000000
vt 0.375000 0.020736
vt 0.125000 0.520736
vt 0.375000 0.259677
vt 0.365323 0.500000
vt 0.134677 0.750000
vt 0.375000 0.759677
vt 0.865323 0.500000
vt 0.625000 0.490323
vt 0.375000 0.029030
vt 0.125000 0.529030
vt 0.875000 0.737904
vt 0.625000 0.237904
vt 0.625000 0.970970
vt 0.654030 0.750000
vt 0.875000 0.735485
vt 0.625000 0.235485
vt 0.625000 0.985485
vt 0.639515 0.750000
vt 0.875000 0.729264
vt 0.625000 0.229264
vt 0.625000 0.990323
vt 0.634677 0.750000
vt 0.875000 0.720970
vt 0.625000 0.220970
s 1
usemtl マテリアル
f 288/1/1 311/2/1 316/3/1
f 197/4/2 183/5/2 211/6/2
f 176/7/1 199/8/1 204/9/1
f 190/10/3 170/11/3 178/12/3
f 177/13/4 220/14/4 191/15/4
f 64/16/1 87/17/1 92/18/1
f 65/19/4 108/20/4 79/21/4
f 120/22/1 143/23/1 148/24/1
f 78/25/3 58/26/3 66/27/3
f 29/28/2 15/29/2 43/30/2
f 37/31/5 45/32/5 50/33/5
f 141/34/2 127/35/2 155/36/2
f 9/37/4 52/38/4 23/39/4
f 205/40/5 213/41/5 218/42/5
f 134/43/3 114/44/3 122/45/3
f 309/28/2 295/29/2 323/30/2
f 233/13/4 276/14/4 247/15/4
f 93/46/5 101/47/5 106/48/5
f 163/49/6 129/50/6 136/51/6
f 302/52/3 282/53/3 290/54/3
f 85/55/2 71/56/2 99/57/2
f 51/58/6 17/59/6 24/60/6
f 149/61/5 157/62/5 162/63/5
f 246/10/3 226/11/3 234/12/3
f 219/64/6 185/65/6 192/66/6
f 107/67/6 73/68/6 80/69/6
f 261/40/5 269/41/5 274/42/5
f 253/4/2 239/5/2 267/6/2
f 289/37/4 332/38/4 303/39/4
f 121/70/4 164/71/4 135/72/4
f 232/7/1 255/8/1 260/9/1
f 317/31/5 325/32/5 330/33/5
f 275/64/6 241/65/6 248/66/6
f 22/52/3 2/53/3 10/54/3
f 331/58/6 297/59/6 304/60/6
f 1/73/7 5/74/8 7/75/9
f 2/53/10 5/76/8 4/77/11
f 3/78/12 5/79/8 6/80/13
f 8/1/14 12/81/15 14/82/16
f 9/37/17 12/83/15 11/84/18
f 10/54/19 12/85/15 13/86/20
f 15/29/21 19/87/22 21/88/23
f 16/89/24 19/90/22 18/91/25
f 17/59/26 19/92/22 20/93/27
f 22/52/28 26/94/29 28/95/30
f 23/39/31 26/96/29 25/97/32
f 24/60/33 26/98/29 27/99/34
f 29/28/35 33/100/36 35/101/37
f 30/102/38 33/100/36 32/103/39
f 31/2/40 33/100/36 34/104/41
f 36/3/42 40/105/43 42/106/44
f 37/31/45 40/105/43 39/107/46
f 38/108/47 40/105/43 41/109/48
f 43/30/49 47/110/50 49/111/51
f 44/112/52 47/110/50 46/113/53
f 45/32/54 47/110/50 48/114/55
f 50/33/56 54/115/57 56/116/58
f 51/58/59 54/115/57 53/117/60
f 52/38/61 54/115/57 55/118/62
f 57/119/7 61/120/8 63/121/9
f 58/26/10 61/122/8 60/123/11
f 59/124/12 61/125/8 62/126/13
f 64/16/14 68/127/15 70/128/16
f 65/19/17 68/129/15 67/130/18
f 66/27/19 68/131/15 69/132/20
f 71/56/21 75/133/22 77/134/23
f 72/135/24 75/136/22 74/137/25
f 73/68/26 75/138/22 76/139/27
f 78/25/28 82/140/63 84/141/30
f 79/21/31 82/142/63 81/143/32
f 80/69/33 82/144/63 83/145/34
f 85/55/35 89/146/36 91/147/37
f 86/148/38 89/146/36 88/149/39
f 87/17/40 89/146/36 90/150/41
f 92/18/42 96/151/43 98/152/44
f 93/46/45 96/151/43 95/153/46
f 94/154/47 96/151/43 97/155/48
f 99/57/49 103/156/64 105/157/51
f 100/158/52 103/156/64 102/159/53
f 101/47/54 103/156/64 104/160/55
f 106/48/56 110/161/65 112/162/58
f 107/67/59 110/161/65 109/163/60
f 108/20/61 110/161/65 111/164/62
f 113/165/7 117/166/66 119/167/9
f 114/44/10 117/168/66 116/169/11
f 115/170/12 117/171/66 118/172/13
f 120/22/14 124/173/15 126/174/16
f 121/70/17 124/175/15 123/176/18
f 122/45/19 124/177/15 125/178/20
f 127/35/21 131/179/67 133/180/23
f 128/181/24 131/182/67 130/183/25
f 129/50/26 131/184/67 132/185/27
f 134/43/28 138/186/63 140/187/30
f 135/72/31 138/188/63 137/189/32
f 136/51/33 138/190/63 139/191/34
f 141/34/35 145/192/36 147/193/37
f 142/194/38 145/192/36 144/195/39
f 143/23/40 145/192/36 146/196/41
f 148/24/42 152/197/43 154/198/44
f 149/61/45 152/197/43 151/199/46
f 150/200/47 152/197/43 153/201/48
f 155/36/49 159/202/68 161/203/51
f 156/204/52 159/202/68 158/205/53
f 157/62/54 159/202/68 160/206/55
f 162/63/56 166/207/65 168/208/58
f 163/49/59 166/207/65 165/209/60
f 164/71/61 166/207/65 167/210/62
f 169/211/7 173/120/8 175/75/9
f 170/11/10 173/212/8 172/123/11
f 171/213/12 173/79/8 174/214/13
f 176/7/14 180/81/69 182/128/16
f 177/13/17 180/215/69 179/84/18
f 178/12/19 180/131/69 181/216/20
f 183/5/21 187/217/67 189/88/23
f 184/218/24 187/136/67 186/219/25
f 185/65/26 187/92/67 188/139/27
f 190/10/28 194/220/63 196/141/30
f 191/15/31 194/96/63 193/221/32
f 192/66/33 194/144/63 195/99/34
f 197/4/35 201/146/36 203/101/37
f 198/222/38 201/146/36 200/223/39
f 199/8/40 201/146/36 202/150/41
f 204/9/42 208/224/70 210/106/44
f 205/40/45 208/224/70 207/153/46
f 206/225/47 208/224/70 209/226/48
f 211/6/49 215/227/68 217/228/51
f 212/229/52 215/227/68 214/113/53
f 213/41/54 215/227/68 216/160/55
f 218/42/56 222/161/65 224/230/58
f 219/64/59 222/161/65 221/163/60
f 220/14/61 222/161/65 223/118/62
f 225/211/7 229/120/8 231/75/9
f 226/11/10 229/212/8 228/123/11
f 227/213/12 229/79/8 230/214/13
f 232/7/14 236/81/69 238/128/16
f 233/13/17 236/215/69 235/84/18
f 234/12/19 236/131/69 237/216/20
f 239/5/21 243/217/67 245/88/23
f 240/218/24 243/136/67 242/219/25
f 241/65/26 243/92/67 244/139/27
f 246/10/28 250/220/63 252/141/30
f 247/15/31 250/96/63 249/221/32
f 248/66/33 250/144/63 251/99/34
f 253/4/35 257/146/36 259/101/37
f 254/222/38 257/146/36 256/223/39
f 255/8/40 257/146/36 258/150/41
f 260/9/42 264/224/70 266/106/44
f 261/40/45 264/224/70 263/153/46
f 262/225/47 264/224/70 265/226/48
f 267/6/49 271/227/68 273/228/51
f 268/229/52 271/227/68 270/113/53
f 269/41/54 271/227/68 272/160/55
f 274/42/56 278/161/65 280/230/58
f 275/64/59 278/161/65 277/163/60
f 276/14/61 278/161/65 279/118/62
f 281/73/7 285/74/8 287/75/9
f 282/53/10 285/76/8 284/77/11
f 283/78/12 285/79/8 286/80/13
f 288/1/14 292/81/15 294/82/16
f 289/37/17 292/83/15 291/84/18
f 290/54/19 292/85/15 293/86/20
f 295/29/21 299/87/71 301/88/23
f 296/89/24 299/90/71 298/91/25
f 297/59/26 299/92/71 300/93/27
f 302/52/28 306/94/29 308/95/30
f 303/39/31 306/96/29 305/97/32
f 304/60/33 306/98/29 307/99/34
f 309/28/35 313/100/36 315/101/37
f 310/102/38 313/100/36 312/103/39
f 311/2/40 313/100/36 314/104/41
f 316/3/42 320/105/43 322/106/44
f 317/31/45 320/105/43 319/107/46
f 318/108/47 320/105/43 321/109/48
f 323/30/49 327/110/64 329/111/51
f 324/112/52 327/110/64 326/113/53
f 325/32/54 327/110/64 328/114/55
f 330/33/56 334/115/57 336/116/58
f 331/58/59 334/115/57 333/117/60
f 332/38/61 334/115/57 335/118/62
f 8/1/14 4/231/11 1/73/7
f 14/232/16 2/53/10 4/77/11
f 2/53/10 18/91/25 6/233/13
f 18/234/25 3/78/12 6/80/13
f 22/52/28 20/93/27 16/89/24
f 28/95/30 17/59/26 20/93/27
f 44/112/52 21/235/23 17/59/26
f 46/236/53 15/29/21 21/88/23
f 51/58/59 48/114/55 44/112/52
f 53/117/60 45/32/54 48/114/55
f 29/28/35 49/111/51 32/103/39
f 49/111/51 30/102/38 32/103/39
f 37/31/45 34/104/41 30/102/38
f 39/107/46 31/2/40 34/104/41
f 29/28/35 7/237/9 3/78/12
f 35/238/37 1/73/7 7/75/9
f 52/38/61 27/239/34 23/39/31
f 55/240/62 24/60/33 27/99/34
f 37/31/45 56/116/58 41/109/48
f 56/116/58 38/108/47 41/109/48
f 57/119/7 70/128/16 60/241/11
f 70/242/16 58/26/10 60/123/11
f 72/135/24 62/243/13 58/26/10
f 74/244/25 59/124/12 62/126/13
f 78/25/28 76/139/27 72/135/24
f 84/141/30 73/68/26 76/139/27
f 100/158/52 77/245/23 73/68/26
f 102/246/53 71/56/21 77/134/23
f 107/67/59 104/160/55 100/158/52
f 109/163/60 101/47/54 104/160/55
f 99/57/49 88/149/39 85/55/35
f 105/157/51 86/148/38 88/149/39
f 93/46/45 90/150/41 86/148/38
f 95/153/46 87/17/40 90/150/41
f 85/55/35 63/247/9 59/124/12
f 91/248/37 57/119/7 63/121/9
f 108/20/61 83/249/34 79/21/31
f 111/250/62 80/69/33 83/145/34
f 106/48/56 97/155/48 93/46/45
f 112/162/58 94/154/47 97/155/48
f 120/22/14 116/251/11 113/165/7
f 126/252/16 114/44/10 116/169/11
f 128/181/24 118/253/13 114/44/10
f 130/254/25 115/170/12 118/172/13
f 134/43/28 132/185/27 128/181/24
f 140/187/30 129/50/26 132/185/27
f 156/204/52 133/255/23 129/50/26
f 158/256/53 127/35/21 133/180/23
f 163/49/59 160/206/55 156/204/52
f 165/209/60 157/62/54 160/206/55
f 155/36/49 144/195/39 141/34/35
f 161/203/51 142/194/38 144/195/39
f 149/61/45 146/196/41 142/194/38
f 151/199/46 143/23/40 146/196/41
f 141/34/35 119/257/9 115/170/12
f 147/258/37 113/165/7 119/167/9
f 164/71/61 139/259/34 135/72/31
f 167/260/62 136/51/33 139/191/34
f 162/63/56 153/201/48 149/61/45
f 168/208/58 150/200/47 153/201/48
f 176/7/14 172/241/11 169/211/7
f 182/242/16 170/11/10 172/123/11
f 184/218/24 174/261/13 170/11/10
f 186/262/25 171/213/12 174/214/13
f 190/10/28 188/139/27 184/218/24
f 196/141/30 185/65/26 188/139/27
f 212/229/52 189/235/23 185/65/26
f 214/236/53 183/5/21 189/88/23
f 219/64/59 216/160/55 212/229/52
f 216/160/55 218/42/56 213/41/54
f 211/6/49 200/223/39 197/4/35
f 217/228/51 198/222/38 200/223/39
f 205/40/45 202/150/41 198/222/38
f 202/150/41 204/9/42 199/8/40
f 197/4/35 175/237/9 171/213/12
f 203/238/37 169/211/7 175/75/9
f 220/14/61 195/239/34 191/15/31
f 195/99/34 219/64/59 192/66/33
f 218/42/56 209/226/48 205/40/45
f 224/230/58 206/225/47 209/226/48
f 232/7/14 228/241/11 225/211/7
f 238/242/16 226/11/10 228/123/11
f 240/218/24 230/261/13 226/11/10
f 242/262/25 227/213/12 230/214/13
f 246/10/28 244/139/27 240/218/24
f 252/141/30 241/65/26 244/139/27
f 268/229/52 245/235/23 241/65/26
f 270/236/53 239/5/21 245/88/23
f 275/64/59 272/160/55 268/229/52
f 272/160/55 274/42/56 269/41/54
f 267/6/49 256/223/39 253/4/35
f 273/228/51 254/222/38 256/223/39
f 261/40/45 258/150/41 254/222/38
f 258/150/41 260/9/42 255/8/40
f 253/4/35 231/237/9 227/213/12
f 259/238/37 225/211/7 231/75/9
f 276/14/61 251/239/34 247/15/31
f 251/99/34 275/64/59 248/66/33
f 274/42/56 265/226/48 261/40/45
f 280/230/58 262/225/47 265/226/48
f 288/1/14 284/231/11 281/73/7
f 294/232/16 282/53/10 284/77/11
f 282/53/10 298/91/25 286/233/13
f 298/234/25 283/78/12 286/80/13
f 302/52/28 300/93/27 296/89/24
f 308/95/30 297/59/26 300/93/27
f 324/112/52 301/235/23 297/59/26
f 326/236/53 295/29/21 301/88/23
f 331/58/59 328/114/55 324/112/52
f 333/117/60 325/32/54 328/114/55
f 309/28/35 329/111/51 312/103/39
f 329/111/51 310/102/38 312/103/39
f 317/31/45 314/104/41 310/102/38
f 319/107/46 311/2/40 314/104/41
f 309/28/35 287/237/9 283/78/12
f 315/238/37 281/73/7 287/75/9
f 332/38/61 307/239/34 303/39/31
f 335/240/62 304/60/33 307/99/34
f 317/31/45 336/116/58 321/109/48
f 336/116/58 318/108/47 321/109/48
f 9/37/17 25/97/32 13/263/20
f 25/264/32 10/54/19 13/86/20
f 36/3/42 11/265/18 8/1/14
f 42/266/44 9/37/17 11/84/18
f 79/21/31 69/267/20 65/19/17
f 81/268/32 66/27/19 69/132/20
f 92/18/42 67/269/18 64/16/14
f 98/270/44 65/19/17 67/130/18
f 135/72/31 125/271/20 121/70/17
f 137/272/32 122/45/19 125/178/20
f 148/24/42 123/273/18 120/22/14
f 154/274/44 121/70/17 123/176/18
f 191/15/31 181/275/20 177/13/17
f 193/276/32 178/12/19 181/216/20
f 204/9/42 179/265/18 176/7/14
f 210/266/44 177/13/17 179/84/18
f 247/15/31 237/275/20 233/13/17
f 249/276/32 234/12/19 237/216/20
f 260/9/42 235/265/18 232/7/14
f 266/266/44 233/13/17 235/84/18
f 289/37/17 305/97/32 293/263/20
f 305/264/32 290/54/19 293/86/20
f 316/3/42 291/265/18 288/1/14
f 322/266/44 289/37/17 291/84/18
f 8/1/1 31/2/1 36/3/1
f 288/1/1 281/73/1 311/2/1
f 197/4/2 171/213/2 183/5/2
f 176/7/1 169/211/1 199/8/1
f 190/10/3 184/218/3 170/11/3
f 177/13/4 206/225/4 220/14/4
f 64/16/1 57/119/1 87/17/1
f 65/19/4 94/154/4 108/20/4
f 120/22/1 113/165/1 143/23/1
f 78/25/3 72/135/3 58/26/3
f 29/28/2 3/78/2 15/29/2
f 37/31/5 30/102/5 45/32/5
f 141/34/2 115/170/2 127/35/2
f 9/37/4 38/108/4 52/38/4
f 205/40/5 198/222/5 213/41/5
f 134/43/3 128/181/3 114/44/3
f 309/28/2 283/78/2 295/29/2
f 233/13/4 262/225/4 276/14/4
f 93/46/5 86/148/5 101/47/5
f 163/49/6 156/204/6 129/50/6
f 302/52/3 296/89/3 282/53/3
f 85/55/2 59/124/2 71/56/2
f 51/58/6 44/112/6 17/59/6
f 149/61/5 142/194/5 157/62/5
f 246/10/3 240/218/3 226/11/3
f 219/64/6 212/229/6 185/65/6
f 107/67/6 100/158/6 73/68/6
f 261/40/5 254/222/5 269/41/5
f 253/4/2 227/213/2 239/5/2
f 289/37/4 318/108/4 332/38/4
f 121/70/4 150/200/4 164/71/4
f 232/7/1 225/211/1 255/8/1
f 317/31/5 310/102/5 325/32/5
f 275/64/6 268/229/6 241/65/6
f 22/52/3 16/89/3 2/53/3
f 331/58/6 324/112/6 297/59/6
f 1/73/7 4/231/11 5/74/8
f 2/53/10 6/233/13 5/76/8
f 3/78/12 7/237/9 5/79/8
f 8/1/14 11/265/18 12/81/15
f 9/37/17 13/263/20 12/83/15
f 10/54/19 14/232/16 12/85/15
f 15/29/21 18/234/25 19/87/22
f 16/89/24 20/93/27 19/90/22
f 17/59/26 21/235/23 19/92/22
f 22/52/28 25/264/32 26/94/29
f 23/39/31 27/239/34 26/96/29
f 24/60/33 28/95/30 26/98/29
f 29/28/35 32/103/39 33/100/36
f 30/102/38 34/104/41 33/100/36
f 31/2/40 35/238/37 33/100/36
f 36/3/42 39/107/46 40/105/43
f 37/31/45 41/109/48 40/105/43
f 38/108/47 42/266/44 40/105/43
f 43/30/49 46/236/53 47/110/50
f 44/112/52 48/114/55 47/110/50
f 45/32/54 49/111/51 47/110/50
f 50/33/56 53/117/60 54/115/57
f 51/58/59 55/240/62 54/115/57
f 52/38/61 56/116/58 54/115/57
f 57/119/7 60/241/11 61/120/8
f 58/26/10 62/243/13 61/122/8
f 59/124/12 63/247/9 61/125/8
f 64/16/14 67/269/18 68/127/15
f 65/19/17 69/267/20 68/129/15
f 66/27/19 70/242/16 68/131/15
f 71/56/21 74/244/25 75/133/22
f 72/135/24 76/139/27 75/136/22
f 73/68/26 77/245/23 75/138/22
f 78/25/28 81/268/32 82/140/63
f 79/21/31 83/249/34 82/142/63
f 80/69/33 84/141/30 82/144/63
f 85/55/35 88/149/39 89/146/36
f 86/148/38 90/150/41 89/146/36
f 87/17/40 91/248/37 89/146/36
f 92/18/42 95/153/46 96/151/43
f 93/46/45 97/155/48 96/151/43
f 94/154/47 98/270/44 96/151/43
f 99/57/49 102/246/53 103/156/64
f 100/158/52 104/160/55 103/156/64
f 101/47/54 105/157/51 103/156/64
f 106/48/56 109/163/60 110/161/65
f 107/67/59 111/250/62 110/161/65
f 108/20/61 112/162/58 110/161/65
f 113/165/7 116/251/11 117/166/66
f 114/44/10 118/253/13 117/168/66
f 115/170/12 119/257/9 117/171/66
f 120/22/14 123/273/18 124/173/15
f 121/70/17 125/271/20 124/175/15
f 122/45/19 126/252/16 124/177/15
f 127/35/21 130/254/25 131/179/67
f 128/181/24 132/185/27 131/182/67
f 129/50/26 133/255/23 131/184/67
f 134/43/28 137/272/32 138/186/63
f 135/72/31 139/259/34 138/188/63
f 136/51/33 140/187/30 138/190/63
f 141/34/35 144/195/39 145/192/36
f 142/194/38 146/196/41 145/192/36
f 143/23/40 147/258/37 145/192/36
f 148/24/42 151/199/46 152/197/43
f 149/61/45 153/201/48 152/197/43
f 150/200/47 154/274/44 152/197/43
f 155/36/49 158/256/53 159/202/68
f 156/204/52 160/206/55 159/202/68
f 157/62/54 161/203/51 159/202/68
f 162/63/56 165/209/60 166/207/65
f 163/49/59 167/260/62 166/207/65
f 164/71/61 168/208/58 166/207/65
f 169/211/7 172/241/11 173/120/8
f 170/11/10 174/261/13 173/212/8
f 171/213/12 175/237/9 173/79/8
f 176/7/14 179/265/18 180/81/69
f 177/13/17 181/275/20 180/215/69
f 178/12/19 182/242/16 180/131/69
f 183/5/21 186/262/25 187/217/67
f 184/218/24 188/139/27 187/136/67
f 185/65/26 189/235/23 187/92/67
f 190/10/28 193/276/32 194/220/63
f 191/15/31 195/239/34 194/96/63
f 192/66/33 196/141/30 194/144/63
f 197/4/35 200/223/39 201/146/36
f 198/222/38 202/150/41 201/146/36
f 199/8/40 203/238/37 201/146/36
f 204/9/42 207/153/46 208/224/70
f 205/40/45 209/226/48 208/224/70
f 206/225/47 210/266/44 208/224/70
f 211/6/49 214/236/53 215/227/68
f 212/229/52 216/160/55 215/227/68
f 213/41/54 217/228/51 215/227/68
f 218/42/56 221/163/60 222/161/65
f 219/64/59 223/240/62 222/161/65
f 220/14/61 224/230/58 222/161/65
f 225/211/7 228/241/11 229/120/8
f 226/11/10 230/261/13 229/212/8
f 227/213/12 231/237/9 229/79/8
f 232/7/14 235/265/18 236/81/69
f 233/13/17 237/275/20 236/215/69
f 234/12/19 238/242/16 236/131/69
f 239/5/21 242/262/25 243/217/67
f 240/218/24 244/139/27 243/136/67
f 241/65/26 245/235/23 243/92/67
f 246/10/28 249/276/32 250/220/63
f 247/15/31 251/239/34 250/96/63
f 248/66/33 252/141/30 250/144/63
f 253/4/35 256/223/39 257/146/36
f 254/222/38 258/150/41 257/146/36
f 255/8/40 259/238/37 257/146/36
f 260/9/42 263/153/46 264/224/70
f 261/40/45 265/226/48 264/224/70
f 262/225/47 266/266/44 264/224/70
f 267/6/49 270/236/53 271/227/68
f 268/229/52 272/160/55 271/227/68
f 269/41/54 273/228/51 271/227/68
f 274/42/56 277/163/60 278/161/65
f 275/64/59 279/240/62 278/161/65
f 276/14/61 280/230/58 278/161/65
f 281/73/7 284/231/11 285/74/8
f 282/53/10 286/233/13 285/76/8
f 283/78/12 287/237/9 285/79/8
f 288/1/14 291/265/18 292/81/15
f 289/37/17 293/263/20 292/83/15
f 290/54/19 294/232/16 292/85/15
f 295/29/21 298/234/25 299/87/71
f 296/89/24 300/93/27 299/90/71
f 297/59/26 301/235/23 299/92/71
f 302/52/28 305/264/32 306/94/29
f 303/39/31 307/239/34 306/96/29
f 304/60/33 308/95/30 306/98/29
f 309/28/35 312/103/39 313/100/36
f 310/102/38 314/104/41 313/100/36
f 311/2/40 315/238/37 313/100/36
f 316/3/42 319/107/46 320/105/43
f 317/31/45 321/109/48 320/105/43
f 318/108/47 322/266/44 320/105/43
f 323/30/49 326/236/53 327/110/64
f 324/112/52 328/114/55 327/110/64
f 325/32/54 329/111/51 327/110/64
f 330/33/56 333/117/60 334/115/57
f 331/58/59 335/240/62 334/115/57
f 332/38/61 336/116/58 334/115/57
f 8/1/14 14/82/16 4/231/11
f 14/232/16 10/54/19 2/53/10
f 2/53/10 16/89/24 18/91/25
f 18/234/25 15/29/21 3/78/12
f 22/52/28 28/95/30 20/93/27
f 28/95/30 24/60/33 17/59/26
f 44/112/52 46/113/53 21/235/23
f 46/236/53 43/30/49 15/29/21
f 51/58/59 53/117/60 48/114/55
f 53/117/60 50/33/56 45/32/54
f 29/28/35 43/30/49 49/111/51
f 49/111/51 45/32/54 30/102/38
f 37/31/45 39/107/46 34/104/41
f 39/107/46 36/3/42 31/2/40
f 29/28/35 35/101/37 7/237/9
f 35/238/37 31/2/40 1/73/7
f 52/38/61 55/118/62 27/239/34
f 55/240/62 51/58/59 24/60/33
f 37/31/45 50/33/56 56/116/58
f 56/116/58 52/38/61 38/108/47
f 57/119/7 64/16/14 70/128/16
f 70/242/16 66/27/19 58/26/10
f 72/135/24 74/137/25 62/243/13
f 74/244/25 71/56/21 59/124/12
f 78/25/28 84/141/30 76/139/27
f 84/141/30 80/69/33 73/68/26
f 100/158/52 102/159/53 77/245/23
f 102/246/53 99/57/49 71/56/21
f 107/67/59 109/163/60 104/160/55
f 109/163/60 106/48/56 101/47/54
f 99/57/49 105/157/51 88/149/39
f 105/157/51 101/47/54 86/148/38
f 93/46/45 95/153/46 90/150/41
f 95/153/46 92/18/42 87/17/40
f 85/55/35 91/147/37 63/247/9
f 91/248/37 87/17/40 57/119/7
f 108/20/61 111/164/62 83/249/34
f 111/250/62 107/67/59 80/69/33
f 106/48/56 112/162/58 97/155/48
f 112/162/58 108/20/61 94/154/47
f 120/22/14 126/174/16 116/251/11
f 126/252/16 122/45/19 114/44/10
f 128/181/24 130/183/25 118/253/13
f 130/254/25 127/35/21 115/170/12
f 134/43/28 140/187/30 132/185/27
f 140/187/30 136/51/33 129/50/26
f 156/204/52 158/205/53 133/255/23
f 158/256/53 155/36/49 127/35/21
f 163/49/59 165/209/60 160/206/55
f 165/209/60 162/63/56 157/62/54
f 155/36/49 161/203/51 144/195/39
f 161/203/51 157/62/54 142/194/38
f 149/61/45 151/199/46 146/196/41
f 151/199/46 148/24/42 143/23/40
f 141/34/35 147/193/37 119/257/9
f 147/258/37 143/23/40 113/165/7
f 164/71/61 167/210/62 139/259/34
f 167/260/62 163/49/59 136/51/33
f 162/63/56 168/208/58 153/201/48
f 168/208/58 164/71/61 150/200/47
f 176/7/14 182/128/16 172/241/11
f 182/242/16 178/12/19 170/11/10
f 184/218/24 186/219/25 174/261/13
f 186/262/25 183/5/21 171/213/12
f 190/10/28 196/141/30 188/139/27
f 196/141/30 192/66/33 185/65/26
f 212/229/52 214/113/53 189/235/23
f 214/236/53 211/6/49 183/5/21
f 219/64/59 221/163/60 216/160/55
f 216/160/55 221/163/60 218/42/56
f 211/6/49 217/228/51 200/223/39
f 217/228/51 213/41/54 198/222/38
f 205/40/45 207/153/46 202/150/41
f 202/150/41 207/153/46 204/9/42
f 197/4/35 203/101/37 175/237/9
f 203/238/37 199/8/40 169/211/7
f 220/14/61 223/118/62 195/239/34
f 195/99/34 223/240/62 219/64/59
f 218/42/56 224/230/58 209/226/48
f 224/230/58 220/14/61 206/225/47
f 232/7/14 238/128/16 228/241/11
f 238/242/16 234/12/19 226/11/10
f 240/218/24 242/219/25 230/261/13
f 242/262/25 239/5/21 227/213/12
f 246/10/28 252/141/30 244/139/27
f 252/141/30 248/66/33 241/65/26
f 268/229/52 270/113/53 245/235/23
f 270/236/53 267/6/49 239/5/21
f 275/64/59 277/163/60 272/160/55
f 272/160/55 277/163/60 274/42/56
f 267/6/49 273/228/51 256/223/39
f 273/228/51 269/41/54 254/222/38
f 261/40/45 263/153/46 258/150/41
f 258/150/41 263/153/46 260/9/42
f 253/4/35 259/101/37 231/237/9
f 259/238/37 255/8/40 225/211/7
f 276/14/61 279/118/62 251/239/34
f 251/99/34 279/240/62 275/64/59
f 274/42/56 280/230/58 265/226/48
f 280/230/58 276/14/61 262/225/47
f 288/1/14 294/82/16 284/231/11
f 294/232/16 290/54/19 282/53/10
f 282/53/10 296/89/24 298/91/25
f 298/234/25 295/29/21 283/78/12
f 302/52/28 308/95/30 300/93/27
f 308/95/30 304/60/33 297/59/26
f 324/112/52 326/113/53 301/235/23
f 326/236/53 323/30/49 295/29/21
f 331/58/59 333/117/60 328/114/55
f 333/117/60 330/33/56 325/32/54
f 309/28/35 323/30/49 329/111/51
f 329/111/51 325/32/54 310/102/38
f 317/31/45 319/107/46 314/104/41
f 319/107/46 316/3/42 311/2/40
f 309/28/35 315/101/37 287/237/9
f 315/238/37 311/2/40 281/73/7
f 332/38/61 335/118/62 307/239/34
f 335/240/62 331/58/59 304/60/33
f 317/31/45 330/33/56 336/116/58
f 336/116/58 332/38/61 318/108/47
f 9/37/17 23/39/31 25/97/32
f 25/264/32 22/52/28 10/54/19
f 36/3/42 42/106/44 11/265/18
f 42/266/44 38/108/47 9/37/17
f 79/21/31 81/143/32 69/267/20
f 81/268/32 78/25/28 66/27/19
f 92/18/42 98/152/44 67/269/18
f 98/270/44 94/154/47 65/19/17
f 135/72/31 137/189/32 125/271/20
f 137/272/32 134/43/28 122/45/19
f 148/24/42 154/198/44 123/273/18
f 154/274/44 150/200/47 121/70/17
f 191/15/31 193/221/32 181/275/20
f 193/276/32 190/10/28 178/12/19
f 204/9/42 210/106/44 179/265/18
f 210/266/44 206/225/47 177/13/17
f 247/15/31 249/221/32 237/275/20
f 249/276/32 246/10/28 234/12/19
f 260/9/42 266/106/44 235/265/18
f 266/266/44 262/225/47 233/13/17
f 289/37/17 303/39/31 305/97/32
f 305/264/32 302/52/28 290/54/19
f 316/3/42 322/106/44 291/265/18
f 322/266/44 318/108/47 289/37/17
f 8/1/1 1/73/1 31/2/1
