# Blender 4.4.0
# www.blender.org
mtllib IBCContainer.mtl
o huta
v 0.000000 1.900000 -0.300000
v 0.000000 2.000000 -0.300000
v 0.058527 1.900000 -0.294236
v 0.058527 2.000000 -0.294236
v 0.114805 1.900000 -0.277164
v 0.114805 2.000000 -0.277164
v 0.166671 1.900000 -0.249441
v 0.166671 2.000000 -0.249441
v 0.212132 1.900000 -0.212132
v 0.212132 2.000000 -0.212132
v 0.249441 1.900000 -0.166671
v 0.249441 2.000000 -0.166671
v 0.277164 1.900000 -0.114805
v 0.277164 2.000000 -0.114805
v 0.294236 1.900000 -0.058527
v 0.294236 2.000000 -0.058527
v 0.300000 1.900000 0.000000
v 0.300000 2.000000 0.000000
v 0.294236 1.900000 0.058527
v 0.294236 2.000000 0.058527
v 0.277164 1.900000 0.114805
v 0.277164 2.000000 0.114805
v 0.249441 1.900000 0.166671
v 0.249441 2.000000 0.166671
v 0.212132 1.900000 0.212132
v 0.212132 2.000000 0.212132
v 0.166671 1.900000 0.249441
v 0.166671 2.000000 0.249441
v 0.114805 1.900000 0.277164
v 0.114805 2.000000 0.277164
v 0.058527 1.900000 0.294236
v 0.058527 2.000000 0.294236
v 0.000000 1.900000 0.300000
v 0.000000 2.000000 0.300000
v -0.058527 1.900000 0.294236
v -0.058527 2.000000 0.294236
v -0.114805 1.900000 0.277164
v -0.114805 2.000000 0.277164
v -0.166671 1.900000 0.249441
v -0.166671 2.000000 0.249441
v -0.212132 1.900000 0.212132
v -0.212132 2.000000 0.212132
v -0.249441 1.900000 0.166671
v -0.249441 2.000000 0.166671
v -0.277164 1.900000 0.114805
v -0.277164 2.000000 0.114805
v -0.294236 1.900000 0.058527
v -0.294236 2.000000 0.058527
v -0.300000 1.900000 0.000000
v -0.300000 2.000000 0.000000
v -0.294236 1.900000 -0.058527
v -0.294236 2.000000 -0.058527
v -0.277164 1.900000 -0.114805
v -0.277164 2.000000 -0.114805
v -0.249441 1.900000 -0.166671
v -0.249441 2.000000 -0.166671
v -0.212132 1.900000 -0.212132
v -0.212132 2.000000 -0.212132
v -0.166671 1.900000 -0.249441
v -0.166671 2.000000 -0.249441
v -0.114805 1.900000 -0.277164
v -0.114805 2.000000 -0.277164
v -0.058527 1.900000 -0.294236
v -0.058527 2.000000 -0.294236
v -0.400000 -2.000000 3.000000
v -0.400000 -1.940000 3.000000
v -0.400000 -2.000000 -3.000000
v -0.400000 -1.940000 -3.000000
v 0.400000 -2.000000 3.000000
v 0.400000 -1.940000 3.000000
v 0.400000 -2.000000 -3.000000
v 0.400000 -1.940000 -3.000000
v 1.200000 -1.940000 -2.200000
v 1.200000 -1.440000 -2.200000
v 1.200000 -1.940000 -3.000000
v 1.200000 -1.440000 -3.000000
v 2.000000 -1.940000 -2.200000
v 2.000000 -1.440000 -2.200000
v 2.000000 -1.940000 -3.000000
v 2.000000 -1.440000 -3.000000
v -0.400000 -1.940000 -2.200000
v -0.400000 -1.440000 -2.200000
v -0.400000 -1.940000 -3.000000
v -0.400000 -1.440000 -3.000000
v 0.400000 -1.940000 -2.200000
v 0.400000 -1.440000 -2.200000
v 0.400000 -1.940000 -3.000000
v 0.400000 -1.440000 -3.000000
v -2.000000 -1.940000 -2.200000
v -2.000000 -1.440000 -2.200000
v -2.000000 -1.940000 -3.000000
v -2.000000 -1.440000 -3.000000
v -1.200000 -1.940000 -2.200000
v -1.200000 -1.440000 -2.200000
v -1.200000 -1.940000 -3.000000
v -1.200000 -1.440000 -3.000000
v 1.200000 -1.940000 3.000000
v 1.200000 -1.440000 3.000000
v 1.200000 -1.940000 2.200000
v 1.200000 -1.440000 2.200000
v 2.000000 -1.940000 3.000000
v 2.000000 -1.440000 3.000000
v 2.000000 -1.940000 2.200000
v 2.000000 -1.440000 2.200000
v -2.000000 -1.940000 3.000000
v -2.000000 -1.440000 3.000000
v -2.000000 -1.940000 2.200000
v -2.000000 -1.440000 2.200000
v -1.200000 -1.940000 3.000000
v -1.200000 -1.440000 3.000000
v -1.200000 -1.940000 2.200000
v -1.200000 -1.440000 2.200000
v -0.400000 -1.940000 3.000000
v -0.400000 -1.440000 3.000000
v -0.400000 -1.940000 2.200000
v -0.400000 -1.440000 2.200000
v 0.400000 -1.940000 3.000000
v 0.400000 -1.440000 3.000000
v 0.400000 -1.940000 2.200000
v 0.400000 -1.440000 2.200000
v -0.400000 -1.940000 0.400000
v -0.400000 -1.440000 0.400000
v -0.400000 -1.940000 -0.400000
v -0.400000 -1.440000 -0.400000
v 0.400000 -1.940000 0.400000
v 0.400000 -1.440000 0.400000
v 0.400000 -1.940000 -0.400000
v 0.400000 -1.440000 -0.400000
v -2.000000 -1.940000 0.400000
v -2.000000 -1.440000 0.400000
v -2.000000 -1.940000 -0.400000
v -2.000000 -1.440000 -0.400000
v -1.200000 -1.940000 0.400000
v -1.200000 -1.440000 0.400000
v -1.200000 -1.940000 -0.400000
v -1.200000 -1.440000 -0.400000
v 1.200000 -1.940000 0.400000
v 1.200000 -1.440000 0.400000
v 1.200000 -1.940000 -0.400000
v 1.200000 -1.440000 -0.400000
v 2.000000 -1.940000 0.400000
v 2.000000 -1.440000 0.400000
v 2.000000 -1.940000 -0.400000
v 2.000000 -1.440000 -0.400000
v -2.000000 -1.440000 3.000000
v -2.000000 -1.380000 3.000000
v -2.000000 -1.440000 -3.000000
v -2.000000 -1.380000 -3.000000
v 2.000000 -1.440000 3.000000
v 2.000000 -1.380000 3.000000
v 2.000000 -1.440000 -3.000000
v 2.000000 -1.380000 -3.000000
v 1.200000 -2.000000 3.000000
v 1.200000 -1.940000 3.000000
v 1.200000 -2.000000 -3.000000
v 1.200000 -1.940000 -3.000000
v 2.000000 -2.000000 3.000000
v 2.000000 -1.940000 3.000000
v 2.000000 -2.000000 -3.000000
v 2.000000 -1.940000 -3.000000
v -2.000000 -2.000000 3.000000
v -2.000000 -1.940000 3.000000
v -2.000000 -2.000000 -3.000000
v -2.000000 -1.940000 -3.000000
v -1.200000 -2.000000 3.000000
v -1.200000 -1.940000 3.000000
v -1.200000 -2.000000 -3.000000
v -1.200000 -1.940000 -3.000000
v -1.700000 -1.311960 -2.591298
v -1.631558 -1.311960 -2.700001
v -1.631558 -1.380000 -2.591298
v -1.679954 -1.311960 -2.668162
v -1.671073 -1.351243 -2.654057
v -1.631558 -1.360072 -2.668162
v -1.679954 -1.360072 -2.591298
v -1.631558 2.000000 -2.591298
v -1.631558 1.931960 -2.700001
v -1.700000 1.931960 -2.591298
v -1.631558 1.980072 -2.668162
v -1.671073 1.971243 -2.654057
v -1.679954 1.931960 -2.668162
v -1.679954 1.980072 -2.591298
v 1.631558 -1.380000 -2.591298
v 1.631558 -1.311960 -2.700001
v 1.700000 -1.311960 -2.591298
v 1.631558 -1.360072 -2.668162
v 1.671073 -1.351243 -2.654057
v 1.679954 -1.311960 -2.668162
v 1.679954 -1.360072 -2.591298
v 1.631558 2.000000 -2.591298
v 1.700000 1.931960 -2.591298
v 1.631558 1.931960 -2.700001
v 1.679954 1.980072 -2.591298
v 1.671073 1.971243 -2.654057
v 1.679954 1.931960 -2.668162
v 1.631558 1.980072 -2.668162
v -1.700000 -1.311960 -0.108703
v -1.631558 -1.380000 -0.108703
v -1.631558 -1.380000 0.108703
v -1.700000 -1.311960 0.108703
v -1.679954 -1.360072 -0.108703
v -1.679954 -1.360072 -0.000000
v -1.631558 -1.380000 -0.000000
v -1.679954 -1.360072 0.108703
v -1.700000 -1.311960 0.000000
v -1.631558 1.900000 0.108703
v -1.631558 1.900000 -0.108703
v -1.700000 1.831960 -0.108703
v -1.700000 1.831960 0.108703
v -1.631558 1.900000 0.000000
v -1.679954 1.880072 0.000000
v -1.679954 1.880072 -0.108703
v -1.700000 1.831960 0.000000
v -1.679954 1.880072 0.108703
v 1.631558 -1.380000 0.108703
v 1.631558 -1.380000 -0.108703
v 1.700000 -1.311960 -0.108703
v 1.700000 -1.311960 0.108703
v 1.631558 -1.380000 0.000000
v 1.679954 -1.360072 0.000000
v 1.679954 -1.360072 -0.108703
v 1.700000 -1.311960 0.000000
v 1.679954 -1.360072 0.108703
v 1.700000 1.831960 -0.108703
v 1.631558 1.900000 -0.108703
v 1.631558 1.900000 0.108703
v 1.700000 1.831960 0.108703
v 1.679954 1.880072 -0.108703
v 1.679954 1.880072 0.000000
v 1.631558 1.900000 -0.000000
v 1.679954 1.880072 0.108703
v 1.700000 1.831960 0.000000
v -1.700000 1.931960 -0.783703
v -1.700000 1.765534 -0.566298
v -1.631558 1.942530 -0.616811
v -1.631558 2.000000 -0.783703
v -1.700000 1.883470 -0.700142
v -1.680083 1.946804 -0.683069
v -1.679954 1.861575 -0.572539
v -1.631558 1.983168 -0.689795
v -1.679954 1.980072 -0.783703
v 1.631558 -1.380000 -0.783703
v 1.700000 -1.311960 -0.783703
v 1.700000 -1.311960 -0.566298
v 1.631558 -1.380000 -0.566298
v 1.679954 -1.360072 -0.783703
v 1.679954 -1.360072 -0.675000
v 1.700000 -1.311960 -0.675000
v 1.679954 -1.360072 -0.566298
v 1.631558 -1.380000 -0.675000
v -1.700000 -1.311960 -0.783703
v -1.631558 -1.380000 -0.783703
v -1.631558 -1.380000 -0.566298
v -1.700000 -1.311960 -0.566298
v -1.679954 -1.360072 -0.783703
v -1.679954 -1.360072 -0.675000
v -1.631558 -1.380000 -0.675000
v -1.679954 -1.360072 -0.566298
v -1.700000 -1.311960 -0.675000
v 1.631558 2.000000 -0.783703
v 1.631558 1.942530 -0.616811
v 1.700000 1.765534 -0.566298
v 1.700000 1.931960 -0.783703
v 1.631558 1.983168 -0.689795
v 1.680083 1.946804 -0.683069
v 1.679954 1.861575 -0.572539
v 1.700000 1.883470 -0.700142
v 1.679954 1.980072 -0.783703
v -1.631558 -1.380000 -0.465048
v -1.700000 -1.311960 -0.465048
v -1.700000 -1.311960 -0.682453
v -1.631558 -1.380000 -0.682453
v -1.679954 -1.360072 -0.465048
v -1.679954 -1.360072 -0.573750
v -1.700000 -1.311960 -0.573750
v -1.679954 -1.360072 -0.682453
v -1.631558 -1.380000 -0.573750
v 1.631558 1.900000 -0.465048
v 1.700000 1.831960 -0.465048
v 1.700000 1.880255 -0.682453
v 1.631558 1.957470 -0.631939
v 1.679954 1.880072 -0.465048
v 1.680083 1.894771 -0.567120
v 1.700000 1.846233 -0.598948
v 1.679954 1.926406 -0.638180
v 1.631558 1.916833 -0.558955
v -1.631558 1.957470 -0.631939
v -1.700000 1.880255 -0.682453
v -1.700000 1.831960 -0.465048
v -1.631558 1.900000 -0.465048
v -1.679954 1.926406 -0.638180
v -1.680083 1.894771 -0.567120
v -1.700000 1.846233 -0.598948
v -1.679954 1.880072 -0.465048
v -1.631558 1.916833 -0.558955
v 1.631558 -1.380000 -0.682453
v 1.700000 -1.311960 -0.682453
v 1.700000 -1.311960 -0.465048
v 1.631558 -1.380000 -0.465048
v 1.679954 -1.360072 -0.682453
v 1.679954 -1.360072 -0.573750
v 1.700000 -1.311960 -0.573750
v 1.679954 -1.360072 -0.465048
v 1.631558 -1.380000 -0.573750
v -1.700000 -1.311960 2.591298
v -1.631558 -1.380000 2.591298
v -1.631558 -1.311960 2.700001
v -1.679954 -1.360072 2.591298
v -1.671073 -1.351243 2.654057
v -1.631558 -1.360072 2.668162
v -1.679954 -1.311960 2.668162
v -1.631558 2.000000 2.591298
v -1.700000 1.931960 2.591298
v -1.631558 1.931960 2.700001
v -1.679954 1.980072 2.591298
v -1.671073 1.971243 2.654057
v -1.679954 1.931960 2.668162
v -1.631558 1.980072 2.668162
v 1.631558 -1.380000 2.591298
v 1.700000 -1.311960 2.591298
v 1.631558 -1.311960 2.700001
v 1.679954 -1.360072 2.591298
v 1.671073 -1.351243 2.654057
v 1.679954 -1.311960 2.668162
v 1.631558 -1.360072 2.668162
v 1.631558 2.000000 2.591298
v 1.631558 1.931960 2.700001
v 1.700000 1.931960 2.591298
v 1.631558 1.980072 2.668162
v 1.671073 1.971243 2.654057
v 1.679954 1.931960 2.668162
v 1.679954 1.980072 2.591298
v -1.700000 1.931960 0.783703
v -1.631558 2.000000 0.783703
v -1.631558 1.942530 0.616811
v -1.700000 1.765534 0.566298
v -1.679954 1.980072 0.783703
v -1.680083 1.946804 0.683069
v -1.631558 1.983168 0.689795
v -1.679954 1.861575 0.572539
v -1.700000 1.883470 0.700142
v 1.631558 -1.380000 0.783703
v 1.631558 -1.380000 0.566298
v 1.700000 -1.311960 0.566298
v 1.700000 -1.311960 0.783703
v 1.631558 -1.380000 0.675000
v 1.679954 -1.360072 0.675000
v 1.679954 -1.360072 0.566298
v 1.700000 -1.311960 0.675000
v 1.679954 -1.360072 0.783703
v -1.700000 -1.311960 0.783703
v -1.700000 -1.311960 0.566298
v -1.631558 -1.380000 0.566298
v -1.631558 -1.380000 0.783703
v -1.700000 -1.311960 0.675000
v -1.679954 -1.360072 0.675000
v -1.679954 -1.360072 0.566298
v -1.631558 -1.380000 0.675000
v -1.679954 -1.360072 0.783703
v 1.631558 2.000000 0.783703
v 1.700000 1.931960 0.783703
v 1.700000 1.765534 0.566298
v 1.631558 1.942530 0.616811
v 1.679954 1.980072 0.783703
v 1.680083 1.946804 0.683069
v 1.700000 1.883470 0.700142
v 1.679954 1.861575 0.572539
v 1.631558 1.983168 0.689795
v -1.631558 -1.380000 0.465048
v -1.631558 -1.380000 0.682453
v -1.700000 -1.311960 0.682453
v -1.700000 -1.311960 0.465048
v -1.631558 -1.380000 0.573750
v -1.679954 -1.360072 0.573750
v -1.679954 -1.360072 0.682453
v -1.700000 -1.311960 0.573750
v -1.679954 -1.360072 0.465048
v 1.631558 1.900000 0.465048
v 1.631558 1.957470 0.631939
v 1.700000 1.880255 0.682453
v 1.700000 1.831960 0.465048
v 1.631558 1.916833 0.558955
v 1.680083 1.894771 0.567120
v 1.679954 1.926406 0.638180
v 1.700000 1.846233 0.598948
v 1.679954 1.880072 0.465048
v -1.631558 1.957470 0.631939
v -1.631558 1.900000 0.465048
v -1.700000 1.831960 0.465048
v -1.700000 1.880255 0.682453
v -1.631558 1.916833 0.558955
v -1.680083 1.894771 0.567120
v -1.679954 1.880072 0.465048
v -1.700000 1.846233 0.598948
v -1.679954 1.926406 0.638180
v 1.631558 -1.380000 0.682453
v 1.631558 -1.380000 0.465048
v 1.700000 -1.311960 0.465048
v 1.700000 -1.311960 0.682453
v 1.631558 -1.380000 0.573750
v 1.679954 -1.360072 0.573750
v 1.679954 -1.360072 0.465048
v 1.700000 -1.311960 0.573750
v 1.679954 -1.360072 0.682453
v -1.820000 1.930000 -0.450000
v -1.820000 2.030000 -0.450000
v -1.820000 1.930000 -0.550000
v -1.820000 2.030000 -0.550000
v 1.820000 1.930000 -0.450000
v 1.820000 2.030000 -0.450000
v 1.820000 1.930000 -0.550000
v 1.820000 2.030000 -0.550000
v -1.300000 -1.380000 -2.800000
v -1.300000 2.000000 -2.800000
v -1.300000 -1.380000 -2.900000
v -1.300000 2.000000 -2.900000
v -1.200000 -1.380000 -2.800000
v -1.200000 2.000000 -2.800000
v -1.200000 -1.380000 -2.900000
v -1.200000 2.000000 -2.900000
v 0.550000 -1.380000 -2.800000
v 0.550000 2.000000 -2.800000
v 0.550000 -1.380000 -2.900000
v 0.550000 2.000000 -2.900000
v 0.650000 -1.380000 -2.800000
v 0.650000 2.000000 -2.800000
v 0.650000 -1.380000 -2.900000
v 0.650000 2.000000 -2.900000
v -0.650000 -1.380000 -2.800000
v -0.650000 2.000000 -2.800000
v -0.650000 -1.380000 -2.900000
v -0.650000 2.000000 -2.900000
v -0.550000 -1.380000 -2.800000
v -0.550000 2.000000 -2.800000
v -0.550000 -1.380000 -2.900000
v -0.550000 2.000000 -2.900000
v 1.200000 -1.380000 -2.800000
v 1.200000 2.000000 -2.800000
v 1.200000 -1.380000 -2.900000
v 1.200000 2.000000 -2.900000
v 1.300000 -1.380000 -2.800000
v 1.300000 2.000000 -2.800000
v 1.300000 -1.380000 -2.900000
v 1.300000 2.000000 -2.900000
v -1.898859 -1.380000 -2.250000
v -1.898859 2.000000 -2.250000
v -1.898859 -1.380000 -2.350000
v -1.898859 2.000000 -2.350000
v -1.798859 -1.380000 -2.250000
v -1.798859 2.000000 -2.250000
v -1.798859 -1.380000 -2.350000
v -1.798859 2.000000 -2.350000
v -1.898859 -1.380000 -0.450000
v -1.898859 2.000000 -0.450000
v -1.898859 -1.380000 -0.550000
v -1.898859 2.000000 -0.550000
v -1.798859 -1.380000 -0.450000
v -1.798859 2.000000 -0.450000
v -1.798859 -1.380000 -0.550000
v -1.798859 2.000000 -0.550000
v -1.898859 -1.380000 0.550000
v -1.898859 2.000000 0.550000
v -1.898859 -1.380000 0.450000
v -1.898859 2.000000 0.450000
v -1.798859 -1.380000 0.550000
v -1.798859 2.000000 0.550000
v -1.798859 -1.380000 0.450000
v -1.798859 2.000000 0.450000
v -1.898859 -1.380000 1.450000
v -1.898859 2.000000 1.450000
v -1.898859 -1.380000 1.350000
v -1.898859 2.000000 1.350000
v -1.798859 -1.380000 1.450000
v -1.798859 2.000000 1.450000
v -1.798859 -1.380000 1.350000
v -1.798859 2.000000 1.350000
v -1.898859 -1.380000 2.350000
v -1.898859 2.000000 2.350000
v -1.898859 -1.380000 2.250000
v -1.898859 2.000000 2.250000
v -1.798859 -1.380000 2.350000
v -1.798859 2.000000 2.350000
v -1.798859 -1.380000 2.250000
v -1.798859 2.000000 2.250000
v -1.898859 -1.380000 -1.350000
v -1.898859 2.000000 -1.350000
v -1.898859 -1.380000 -1.450000
v -1.898859 2.000000 -1.450000
v -1.798859 -1.380000 -1.350000
v -1.798859 2.000000 -1.350000
v -1.798859 -1.380000 -1.450000
v -1.798859 2.000000 -1.450000
v -1.300000 -1.380000 2.900000
v -1.300000 2.000000 2.900000
v -1.300000 -1.380000 2.800000
v -1.300000 2.000000 2.800000
v -1.200000 -1.380000 2.900000
v -1.200000 2.000000 2.900000
v -1.200000 -1.380000 2.800000
v -1.200000 2.000000 2.800000
v 0.550000 -1.380000 2.900000
v 0.550000 2.000000 2.900000
v 0.550000 -1.380000 2.800000
v 0.550000 2.000000 2.800000
v 0.650000 -1.380000 2.900000
v 0.650000 2.000000 2.900000
v 0.650000 -1.380000 2.800000
v 0.650000 2.000000 2.800000
v -0.650000 -1.380000 2.900000
v -0.650000 2.000000 2.900000
v -0.650000 -1.380000 2.800000
v -0.650000 2.000000 2.800000
v -0.550000 -1.380000 2.900000
v -0.550000 2.000000 2.900000
v -0.550000 -1.380000 2.800000
v -0.550000 2.000000 2.800000
v 1.200000 -1.380000 2.900000
v 1.200000 2.000000 2.900000
v 1.200000 -1.380000 2.800000
v 1.200000 2.000000 2.800000
v 1.300000 -1.380000 2.900000
v 1.300000 2.000000 2.900000
v 1.300000 -1.380000 2.800000
v 1.300000 2.000000 2.800000
v 1.791141 -1.380000 -2.250000
v 1.791141 2.000000 -2.250000
v 1.791141 -1.380000 -2.350000
v 1.791141 2.000000 -2.350000
v 1.891141 -1.380000 -2.250000
v 1.891141 2.000000 -2.250000
v 1.891141 -1.380000 -2.350000
v 1.891141 2.000000 -2.350000
v 1.791141 -1.380000 -0.450000
v 1.791141 2.000000 -0.450000
v 1.791141 -1.380000 -0.550000
v 1.791141 2.000000 -0.550000
v 1.891141 -1.380000 -0.450000
v 1.891141 2.000000 -0.450000
v 1.891141 -1.380000 -0.550000
v 1.891141 2.000000 -0.550000
v 1.791141 -1.380000 0.550000
v 1.791141 2.000000 0.550000
v 1.791141 -1.380000 0.450000
v 1.791141 2.000000 0.450000
v 1.891141 -1.380000 0.550000
v 1.891141 2.000000 0.550000
v 1.891141 -1.380000 0.450000
v 1.891141 2.000000 0.450000
v 1.791141 -1.380000 1.450000
v 1.791141 2.000000 1.450000
v 1.791141 -1.380000 1.350000
v 1.791141 2.000000 1.350000
v 1.891141 -1.380000 1.450000
v 1.891141 2.000000 1.450000
v 1.891141 -1.380000 1.350000
v 1.891141 2.000000 1.350000
v 1.791141 -1.380000 2.350000
v 1.791141 2.000000 2.350000
v 1.791141 -1.380000 2.250000
v 1.791141 2.000000 2.250000
v 1.891141 -1.380000 2.350000
v 1.891141 2.000000 2.350000
v 1.891141 -1.380000 2.250000
v 1.891141 2.000000 2.250000
v 1.791141 -1.380000 -1.350000
v 1.791141 2.000000 -1.350000
v 1.791141 -1.380000 -1.450000
v 1.791141 2.000000 -1.450000
v 1.891141 -1.380000 -1.350000
v 1.891141 2.000000 -1.350000
v 1.891141 -1.380000 -1.450000
v 1.891141 2.000000 -1.450000
v -1.920000 1.950000 2.920001
v -1.920000 2.050000 2.920001
v -1.920000 1.950000 -2.920000
v -1.920000 2.050000 -2.920000
v 1.920000 1.950000 2.920001
v 1.920000 2.050000 2.920001
v 1.920000 1.950000 -2.920000
v 1.920000 2.050000 -2.920000
v -1.818948 1.950000 -2.819310
v 1.818948 1.950000 -2.819310
v -1.818948 1.950000 2.819311
v 1.818948 1.950000 2.819311
v 1.818948 2.050000 -2.819310
v -1.818948 2.050000 -2.819310
v -1.818948 2.050000 2.819311
v 1.818948 2.050000 2.819311
v -1.920000 0.260000 2.920001
v -1.920000 0.360000 2.920001
v -1.920000 0.260000 -2.920000
v -1.920000 0.360000 -2.920000
v 1.920000 0.260000 2.920001
v 1.920000 0.360000 2.920001
v 1.920000 0.260000 -2.920000
v 1.920000 0.360000 -2.920000
v -1.818948 0.260000 -2.819310
v 1.818948 0.260000 -2.819310
v -1.818948 0.260000 2.819311
v 1.818948 0.260000 2.819311
v 1.818948 0.360000 -2.819310
v -1.818948 0.360000 -2.819310
v -1.818948 0.360000 2.819311
v 1.818948 0.360000 2.819311
v -1.920000 -1.380000 2.920001
v -1.920000 -1.280000 2.920001
v -1.920000 -1.380000 -2.920000
v -1.920000 -1.280000 -2.920000
v 1.920000 -1.380000 2.920001
v 1.920000 -1.280000 2.920001
v 1.920000 -1.380000 -2.920000
v 1.920000 -1.280000 -2.920000
v -1.818948 -1.380000 -2.819310
v 1.818948 -1.380000 -2.819310
v -1.818948 -1.380000 2.819311
v 1.818948 -1.380000 2.819311
v 1.818948 -1.280000 -2.819310
v -1.818948 -1.280000 -2.819310
v -1.818948 -1.280000 2.819311
v 1.818948 -1.280000 2.819311
v -1.920000 -0.550000 2.920001
v -1.920000 -0.450000 2.920001
v -1.920000 -0.550000 -2.920000
v -1.920000 -0.450000 -2.920000
v 1.920000 -0.550000 2.920001
v 1.920000 -0.450000 2.920001
v 1.920000 -0.550000 -2.920000
v 1.920000 -0.450000 -2.920000
v -1.818948 -0.550000 -2.819310
v 1.818948 -0.550000 -2.819310
v -1.818948 -0.550000 2.819311
v 1.818948 -0.550000 2.819311
v 1.818948 -0.450000 -2.819310
v -1.818948 -0.450000 -2.819310
v -1.818948 -0.450000 2.819311
v 1.818948 -0.450000 2.819311
v -1.920000 1.080000 2.920001
v -1.920000 1.180000 2.920001
v -1.920000 1.080000 -2.920000
v -1.920000 1.180000 -2.920000
v 1.920000 1.080000 2.920001
v 1.920000 1.180000 2.920001
v 1.920000 1.080000 -2.920000
v 1.920000 1.180000 -2.920000
v -1.818948 1.080000 -2.819310
v 1.818948 1.080000 -2.819310
v -1.818948 1.080000 2.819311
v 1.818948 1.080000 2.819311
v 1.818948 1.180000 -2.819310
v -1.818948 1.180000 -2.819310
v -1.818948 1.180000 2.819311
v 1.818948 1.180000 2.819311
v -1.820000 1.930000 0.550000
v -1.820000 2.029999 0.550000
v -1.820000 1.930000 0.450000
v -1.820000 2.029999 0.450000
v 1.820000 1.930000 0.550000
v 1.820000 2.029999 0.550000
v 1.820000 1.930000 0.450000
v 1.820000 2.029999 0.450000
v -0.630200 -0.506884 -2.920000
v -0.630200 1.153116 -2.920000
v -0.630200 -0.506884 -2.960000
v -0.630200 1.153116 -2.960000
v 1.269800 -0.506884 -2.920000
v 1.269800 1.153116 -2.920000
v 1.269800 -0.506884 -2.960000
v 1.269800 1.153116 -2.960000
vn 0.0980 -0.0000 -0.9952
vn 0.2903 -0.0000 -0.9569
vn 0.4714 -0.0000 -0.8819
vn 0.6344 -0.0000 -0.7730
vn 0.7730 -0.0000 -0.6344
vn 0.8819 -0.0000 -0.4714
vn 0.9569 -0.0000 -0.2903
vn 0.9952 -0.0000 -0.0980
vn 0.9952 -0.0000 0.0980
vn 0.9569 -0.0000 0.2903
vn 0.8819 -0.0000 0.4714
vn 0.7730 -0.0000 0.6344
vn 0.6344 -0.0000 0.7730
vn 0.4714 -0.0000 0.8819
vn 0.2903 -0.0000 0.9569
vn 0.0980 -0.0000 0.9952
vn -0.0980 -0.0000 0.9952
vn -0.2903 -0.0000 0.9569
vn -0.4714 -0.0000 0.8819
vn -0.6344 -0.0000 0.7730
vn -0.7730 -0.0000 0.6344
vn -0.8819 -0.0000 0.4714
vn -0.9569 -0.0000 0.2903
vn -0.9952 -0.0000 0.0980
vn -0.9952 -0.0000 -0.0980
vn -0.9569 -0.0000 -0.2903
vn -0.8819 -0.0000 -0.4714
vn -0.7730 -0.0000 -0.6344
vn -0.6344 -0.0000 -0.7730
vn -0.4714 -0.0000 -0.8819
vn -0.0000 1.0000 -0.0000
vn -0.2903 -0.0000 -0.9569
vn -0.0980 -0.0000 -0.9952
vn -0.0000 -1.0000 -0.0000
vn -1.0000 -0.0000 -0.0000
vn -0.0000 -0.0000 -1.0000
vn 1.0000 -0.0000 -0.0000
vn -0.0000 -0.0000 1.0000
vn -0.0000 -0.7115 -0.7027
vn -0.0000 -0.7115 0.7027
vn -0.9077 -0.3782 -0.1817
vn -0.4810 -0.4838 -0.7311
vn -0.2925 -0.9257 -0.2400
vn -0.3745 0.9094 -0.1809
vn -0.4810 0.4838 -0.7311
vn -0.9244 0.2955 -0.2411
vn 0.3745 -0.9094 -0.1809
vn 0.4810 -0.4838 -0.7311
vn 0.9244 -0.2955 -0.2411
vn 0.2925 0.9257 -0.2400
vn 0.9077 0.3782 -0.1817
vn 0.4810 0.4838 -0.7311
vn -0.9231 -0.3846 -0.0000
vn -0.3808 -0.9247 -0.0000
vn -0.3808 0.9247 -0.0000
vn -0.9231 0.3846 -0.0000
vn 0.3808 -0.9247 -0.0000
vn 0.9231 -0.3846 -0.0000
vn 0.9231 0.3846 -0.0000
vn 0.3808 0.9247 -0.0000
vn -0.9158 0.3816 0.1250
vn -0.9591 0.2124 0.1871
vn -0.6075 0.6287 0.4855
vn -0.3756 0.9122 0.1635
vn 0.3756 0.9122 0.1635
vn 0.5064 0.7534 0.4195
vn 0.9591 0.2124 0.1871
vn 0.9540 0.2594 0.1505
vn 0.9216 0.3840 0.0565
vn 0.9476 0.2959 0.1206
vn 0.5291 0.7414 0.4128
vn -0.5291 0.7414 0.4128
vn -0.9476 0.2959 0.1206
vn -0.9330 0.3578 0.0381
vn -0.9244 -0.2955 0.2411
vn -0.3745 -0.9094 0.1809
vn -0.4810 -0.4838 0.7311
vn -0.2925 0.9257 0.2400
vn -0.9077 0.3782 0.1817
vn -0.4810 0.4838 0.7311
vn 0.2925 -0.9257 0.2400
vn 0.9077 -0.3782 0.1817
vn 0.4810 -0.4838 0.7311
vn 0.3745 0.9094 0.1809
vn 0.4810 0.4838 0.7311
vn 0.9244 0.2955 0.2411
vn -0.9540 0.2594 -0.1505
vn -0.3756 0.9122 -0.1635
vn -0.5064 0.7534 -0.4195
vn -0.9591 0.2124 -0.1871
vn 0.3756 0.9122 -0.1635
vn 0.9158 0.3816 -0.1250
vn 0.9591 0.2124 -0.1871
vn 0.6075 0.6287 -0.4855
vn 0.5291 0.7414 -0.4128
vn 0.9476 0.2959 -0.1206
vn 0.9330 0.3578 -0.0381
vn -0.5291 0.7414 -0.4128
vn -0.9216 0.3840 -0.0565
vn -0.9476 0.2959 -0.1206
vn -0.5496 -0.0000 -0.8354
vn -0.9676 -0.0000 -0.2524
vn -0.0000 -0.9680 -0.2510
vn -0.0000 -0.5519 -0.8339
vn -0.0000 0.9680 -0.2510
vn -0.0000 0.5519 -0.8339
vn 0.9676 -0.0000 -0.2524
vn 0.5496 -0.0000 -0.8354
vn 0.4801 -0.6241 -0.6164
vn 0.9542 -0.2128 -0.2102
vn -0.0000 0.8737 0.4865
vn -0.0000 0.9843 0.1764
vn -0.4801 -0.6241 -0.6164
vn -0.9542 -0.2128 -0.2102
vn -0.9676 -0.0000 0.2524
vn -0.5496 -0.0000 0.8354
vn -0.0000 -0.5519 0.8339
vn -0.0000 -0.9680 0.2510
vn -0.0000 0.5519 0.8339
vn -0.0000 0.9680 0.2510
vn 0.5496 -0.0000 0.8354
vn 0.9676 -0.0000 0.2524
vn 0.9542 -0.2128 0.2102
vn 0.4801 -0.6241 0.6164
vn -0.0000 0.9843 -0.1764
vn -0.0000 0.8737 -0.4865
vn -0.9542 -0.2128 0.2102
vn -0.4801 -0.6241 0.6164
vn -0.9244 -0.2955 -0.2411
vn -0.3855 -0.3878 -0.8373
vn -0.3745 -0.9094 -0.1809
vn -0.2925 0.9257 -0.2400
vn -0.3855 0.3878 -0.8373
vn -0.9077 0.3782 -0.1817
vn 0.2925 -0.9257 -0.2400
vn 0.3855 -0.3878 -0.8373
vn 0.9077 -0.3782 -0.1817
vn 0.3745 0.9094 -0.1809
vn 0.9244 0.2955 -0.2411
vn 0.3855 0.3878 -0.8373
vn -0.9540 0.2594 0.1505
vn -0.9499 0.2471 0.1916
vn -0.5064 0.7534 0.4195
vn -0.5556 0.7896 0.2603
vn 0.5556 0.7896 0.2603
vn 0.6075 0.6287 0.4855
vn 0.9499 0.2471 0.1916
vn 0.9158 0.3816 0.1250
vn 0.4284 0.8943 0.1293
vn 0.9330 0.3578 0.0381
vn 0.9445 0.3009 0.1322
vn 0.4355 0.8227 0.3655
vn -0.4355 0.8227 0.3654
vn -0.9445 0.3009 0.1322
vn -0.9216 0.3840 0.0565
vn -0.4284 0.8943 0.1293
vn -0.9077 -0.3782 0.1817
vn -0.2925 -0.9257 0.2400
vn -0.3855 -0.3878 0.8373
vn -0.3745 0.9094 0.1809
vn -0.9244 0.2955 0.2411
vn -0.3855 0.3878 0.8373
vn 0.3745 -0.9094 0.1809
vn 0.9244 -0.2955 0.2411
vn 0.3855 -0.3878 0.8373
vn 0.2925 0.9257 0.2400
vn 0.3855 0.3878 0.8373
vn 0.9077 0.3782 0.1817
vn -0.9158 0.3816 -0.1250
vn -0.5556 0.7896 -0.2603
vn -0.6075 0.6287 -0.4855
vn -0.9499 0.2471 -0.1916
vn 0.5556 0.7896 -0.2603
vn 0.9540 0.2594 -0.1505
vn 0.9499 0.2471 -0.1916
vn 0.5064 0.7534 -0.4195
vn 0.4284 0.8943 -0.1293
vn 0.4355 0.8227 -0.3654
vn 0.9445 0.3009 -0.1322
vn 0.9216 0.3840 -0.0565
vn -0.4355 0.8227 -0.3655
vn -0.4284 0.8943 -0.1293
vn -0.9330 0.3578 -0.0381
vn -0.9445 0.3009 -0.1322
vt 0.858105 0.085289
vt 0.771519 0.090701
vt 0.771519 0.085289
vt 0.858105 0.090701
vt 0.771519 0.096113
vt 0.858105 0.096113
vt 0.771519 0.101524
vt 0.858105 0.101524
vt 0.771519 0.106936
vt 0.858105 0.106936
vt 0.771519 0.112347
vt 0.858105 0.112347
vt 0.771519 0.117759
vt 0.858105 0.117759
vt 0.771519 0.123171
vt 0.858105 0.123171
vt 0.771519 0.128582
vt 0.858105 0.128582
vt 0.771519 0.133994
vt 0.858105 0.133994
vt 0.771519 0.139405
vt 0.858105 0.139405
vt 0.771519 0.144817
vt 0.858105 0.144817
vt 0.771519 0.150229
vt 0.858105 0.150229
vt 0.771519 0.155640
vt 0.858105 0.155640
vt 0.771519 0.161052
vt 0.858105 0.161052
vt 0.771519 0.166463
vt 0.858105 0.166463
vt 0.771519 0.171875
vt 0.858105 0.171875
vt 0.771519 0.177287
vt 0.858105 0.177287
vt 0.771519 0.182698
vt 0.858105 0.182698
vt 0.771519 0.188110
vt 0.858105 0.188110
vt 0.771519 0.193521
vt 0.858105 0.193521
vt 0.771519 0.198933
vt 0.858105 0.198933
vt 0.771519 0.204345
vt 0.858105 0.204345
vt 0.771519 0.209756
vt 0.858105 0.209756
vt 0.771519 0.215168
vt 0.858105 0.215168
vt 0.771519 0.220579
vt 0.858105 0.220579
vt 0.771519 0.225991
vt 0.858105 0.225991
vt 0.771519 0.231402
vt 0.858105 0.231402
vt 0.771519 0.236814
vt 0.858105 0.236814
vt 0.771519 0.242226
vt 0.858105 0.242226
vt 0.771519 0.247637
vt 0.859752 0.221494
vt 0.887459 0.169658
vt 0.939295 0.197365
vt 0.858105 0.247637
vt 0.771519 0.253049
vt 0.858105 0.253049
vt 0.771519 0.258460
vt 0.895450 0.085290
vt 0.858162 0.130724
vt 0.903597 0.168011
vt 0.089983 0.722499
vt 0.070895 0.741588
vt 0.070895 0.722499
vt 0.089983 0.741588
vt 0.070895 0.760676
vt 0.089983 0.760676
vt 0.070895 0.779764
vt 0.089983 0.779764
vt 0.070895 0.798852
vt 0.051807 0.779764
vt 0.051807 0.760676
vt 0.109072 0.760676
vt 0.147420 0.722499
vt 0.128332 0.741588
vt 0.128332 0.722499
vt 0.147420 0.741588
vt 0.128332 0.760676
vt 0.147420 0.760676
vt 0.128332 0.779764
vt 0.147420 0.779764
vt 0.128332 0.798852
vt 0.109243 0.779764
vt 0.109243 0.760676
vt 0.166508 0.760676
vt 0.089983 0.799024
vt 0.070895 0.818112
vt 0.070895 0.799024
vt 0.089983 0.818112
vt 0.070895 0.837201
vt 0.089983 0.837201
vt 0.070895 0.856289
vt 0.089983 0.856289
vt 0.070895 0.875377
vt 0.051807 0.856289
vt 0.051807 0.837201
vt 0.109072 0.837201
vt 0.147420 0.799024
vt 0.128332 0.818112
vt 0.128332 0.799024
vt 0.147420 0.818112
vt 0.128332 0.837201
vt 0.147420 0.837201
vt 0.128332 0.856289
vt 0.147420 0.856289
vt 0.128332 0.875377
vt 0.109243 0.856289
vt 0.109243 0.837201
vt 0.166508 0.837201
vt 0.204857 0.722499
vt 0.185768 0.741588
vt 0.185768 0.722499
vt 0.204857 0.741588
vt 0.185768 0.760676
vt 0.204857 0.760676
vt 0.185768 0.779764
vt 0.204857 0.779764
vt 0.185768 0.798852
vt 0.166680 0.779764
vt 0.166680 0.760676
vt 0.223945 0.760676
vt 0.204857 0.799024
vt 0.185768 0.818112
vt 0.185768 0.799024
vt 0.204857 0.818112
vt 0.185768 0.837201
vt 0.204857 0.837201
vt 0.185768 0.856289
vt 0.204857 0.856289
vt 0.185768 0.875377
vt 0.166680 0.856289
vt 0.166680 0.837201
vt 0.223945 0.837201
vt 0.089983 0.875549
vt 0.070895 0.894637
vt 0.070895 0.875549
vt 0.089983 0.894637
vt 0.070895 0.913725
vt 0.089983 0.913725
vt 0.070895 0.932814
vt 0.089983 0.932814
vt 0.070895 0.951902
vt 0.051807 0.932814
vt 0.051807 0.913725
vt 0.109072 0.913725
vt 0.147420 0.875549
vt 0.128332 0.894637
vt 0.128332 0.875549
vt 0.147420 0.894637
vt 0.128332 0.913725
vt 0.147420 0.913725
vt 0.128332 0.932814
vt 0.147420 0.932814
vt 0.128332 0.951902
vt 0.109243 0.932814
vt 0.109243 0.913725
vt 0.166508 0.913725
vt 0.204857 0.875549
vt 0.185768 0.894637
vt 0.185768 0.875549
vt 0.204857 0.894637
vt 0.185768 0.913725
vt 0.204857 0.913725
vt 0.185768 0.932814
vt 0.204857 0.932814
vt 0.185768 0.951902
vt 0.166680 0.932814
vt 0.166680 0.913725
vt 0.223945 0.913725
vt 0.262293 0.722499
vt 0.243205 0.741588
vt 0.243205 0.722499
vt 0.262293 0.741588
vt 0.243205 0.760676
vt 0.262293 0.760676
vt 0.243205 0.779764
vt 0.262293 0.779764
vt 0.243205 0.798852
vt 0.224117 0.779764
vt 0.224117 0.760676
vt 0.281381 0.760676
vt 0.262293 0.799024
vt 0.243205 0.818112
vt 0.243205 0.799024
vt 0.262293 0.818112
vt 0.243205 0.837201
vt 0.262293 0.837201
vt 0.243205 0.856289
vt 0.262293 0.856289
vt 0.243205 0.875377
vt 0.224117 0.856289
vt 0.224117 0.837201
vt 0.281381 0.837201
vt 0.262293 0.875549
vt 0.243205 0.894637
vt 0.243205 0.875549
vt 0.262293 0.894637
vt 0.243205 0.913725
vt 0.262293 0.913725
vt 0.243205 0.932814
vt 0.262293 0.932814
vt 0.243205 0.951902
vt 0.224117 0.932814
vt 0.224117 0.913725
vt 0.281381 0.913725
vt 0.319730 0.722499
vt 0.300642 0.741588
vt 0.300642 0.722499
vt 0.319730 0.741588
vt 0.300642 0.760676
vt 0.319730 0.760676
vt 0.300642 0.779764
vt 0.319730 0.779764
vt 0.300642 0.798852
vt 0.281553 0.779764
vt 0.281553 0.760676
vt 0.338818 0.760676
vt 0.884051 0.591964
vt 0.924216 0.707122
vt 0.884051 0.707122
vt 0.884051 0.831941
vt 0.924216 0.947098
vt 0.884051 0.947098
vt 0.939215 0.827036
vt 0.931297 0.712026
vt 0.931297 0.827036
vt 0.939215 0.947098
vt 0.931297 0.831941
vt 0.931297 0.947098
vt 0.927925 0.591964
vt 0.927588 0.707122
vt 0.927925 0.707122
vt 0.704069 0.712026
vt 0.711987 0.827036
vt 0.704069 0.827036
vt 0.719067 0.711953
vt 0.759232 0.827110
vt 0.719067 0.827110
vt 0.884051 0.711953
vt 0.924216 0.827110
vt 0.884051 0.827110
vt 0.929047 0.831941
vt 0.926466 0.947098
vt 0.929047 0.947098
vt 0.711987 0.827036
vt 0.879221 0.827110
vt 0.764063 0.711952
vt 0.764063 0.827110
vt 0.929047 0.714206
vt 0.926466 0.827117
vt 0.929047 0.827030
vt 0.716817 0.827117
vt 0.714237 0.714206
vt 0.714237 0.827030
vt 0.931297 0.591964
vt 0.939215 0.707122
vt 0.931297 0.707122
vt 0.939215 0.707122
vt 0.931297 0.707122
vt 0.939215 0.827036
vt 0.927925 0.707122
vt 0.719067 0.711952
vt 0.884051 0.711952
vt 0.929047 0.831941
vt 0.939215 0.947098
vt 0.931297 0.947098
vt 0.716817 0.714046
vt 0.761648 0.828505
vt 0.759232 0.829525
vt 0.764063 0.829525
vt 0.761648 0.827110
vt 0.882657 0.949514
vt 0.881636 0.947098
vt 0.881636 0.590570
vt 0.884051 0.589549
vt 0.761648 0.711952
vt 0.764063 0.709537
vt 0.764063 0.711953
vt 0.759232 0.711952
vt 0.760627 0.709537
vt 0.881976 0.829525
vt 0.884051 0.829525
vt 0.881636 0.827110
vt 0.879221 0.829525
vt 0.881636 0.709877
vt 0.881636 0.707122
vt 0.884051 0.709537
vt 0.879221 0.709537
vt 0.881636 0.711952
vt 0.879221 0.711952
vt 0.704069 0.829525
vt 0.701653 0.827036
vt 0.941630 0.947098
vt 0.939215 0.949514
vt 0.941630 0.591964
vt 0.939215 0.589549
vt 0.939215 0.591964
vt 0.939215 0.591964
vt 0.701653 0.710266
vt 0.704069 0.709537
vt 0.701653 0.709537
vt 0.701653 0.712026
vt 0.941630 0.831941
vt 0.939215 0.829525
vt 0.939215 0.831941
vt 0.941630 0.829520
vt 0.941630 0.827036
vt 0.939215 0.712026
vt 0.941630 0.709543
vt 0.941630 0.712026
vt 0.941630 0.707122
vt 0.939215 0.709537
vt 0.716652 0.711426
vt 0.719067 0.709537
vt 0.714402 0.709537
vt 0.716652 0.713674
vt 0.926632 0.590252
vt 0.928881 0.589549
vt 0.924216 0.589549
vt 0.926632 0.591964
vt 0.924216 0.591964
vt 0.924216 0.829525
vt 0.926632 0.831941
vt 0.924216 0.831941
vt 0.926632 0.827110
vt 0.928881 0.829525
vt 0.719067 0.829525
vt 0.716652 0.827110
vt 0.926632 0.947098
vt 0.924216 0.949514
vt 0.928881 0.949514
vt 0.714402 0.829525
vt 0.926632 0.707122
vt 0.924216 0.709537
vt 0.926787 0.709834
vt 0.926632 0.713674
vt 0.928881 0.709537
vt 0.924216 0.711952
vt 0.931297 0.949514
vt 0.928881 0.947098
vt 0.714402 0.827036
vt 0.711987 0.829525
vt 0.716652 0.829525
vt 0.926632 0.949514
vt 0.931297 0.709537
vt 0.928881 0.707122
vt 0.928918 0.709409
vt 0.928047 0.709537
vt 0.928881 0.711504
vt 0.926466 0.714046
vt 0.928047 0.589549
vt 0.928881 0.591964
vt 0.927588 0.591964
vt 0.714402 0.711504
vt 0.715236 0.709537
vt 0.711987 0.712026
vt 0.714255 0.709537
vt 0.931297 0.589549
vt 0.926632 0.829525
vt 0.928881 0.831941
vt 0.926466 0.831941
vt 0.928881 0.827036
vt 0.931297 0.829525
vt 0.760627 0.829525
vt 0.881636 0.948493
vt 0.884051 0.949514
vt 0.882657 0.589549
vt 0.881636 0.591964
vt 0.761648 0.710558
vt 0.759232 0.709537
vt 0.881636 0.829185
vt 0.881636 0.831941
vt 0.881976 0.709537
vt 0.716831 0.709537
vt 0.927434 0.589549
vt 0.924216 0.829525
vt 0.928918 0.709409
vt 0.714402 0.709728
vt 0.711987 0.709537
vt 0.715236 0.709537
vt 0.168207 0.310249
vt 0.159664 0.318793
vt 0.159664 0.310249
vt 0.168207 0.318793
vt 0.159664 0.327336
vt 0.168207 0.327336
vt 0.159664 0.335880
vt 0.168207 0.335880
vt 0.159664 0.344424
vt 0.151120 0.335880
vt 0.151120 0.327336
vt 0.176751 0.327336
vt 0.081802 0.035428
vt 0.064705 0.052524
vt 0.064705 0.035428
vt 0.081802 0.052524
vt 0.064705 0.069621
vt 0.081802 0.069621
vt 0.064705 0.086717
vt 0.081802 0.086717
vt 0.064705 0.103814
vt 0.047609 0.086717
vt 0.047609 0.069621
vt 0.098898 0.069621
vt 0.133411 0.035428
vt 0.116314 0.052524
vt 0.116314 0.035428
vt 0.133411 0.052524
vt 0.116314 0.069621
vt 0.133411 0.069621
vt 0.116314 0.086717
vt 0.133411 0.086717
vt 0.116314 0.103814
vt 0.099218 0.086717
vt 0.099218 0.069621
vt 0.150507 0.069621
vt 0.081802 0.104133
vt 0.064705 0.121230
vt 0.064705 0.104133
vt 0.081802 0.121230
vt 0.064705 0.138326
vt 0.081802 0.138326
vt 0.064705 0.155422
vt 0.081802 0.155422
vt 0.064705 0.172519
vt 0.047609 0.155422
vt 0.047609 0.138326
vt 0.098898 0.138326
vt 0.133411 0.104133
vt 0.116314 0.121230
vt 0.116314 0.104133
vt 0.133411 0.121230
vt 0.116314 0.138326
vt 0.133411 0.138326
vt 0.116314 0.155422
vt 0.133411 0.155422
vt 0.116314 0.172519
vt 0.099218 0.155422
vt 0.099218 0.138326
vt 0.150507 0.138326
vt 0.185020 0.035428
vt 0.167923 0.052524
vt 0.167923 0.035428
vt 0.185020 0.052524
vt 0.167923 0.069621
vt 0.185020 0.069621
vt 0.167923 0.086717
vt 0.185020 0.086717
vt 0.167923 0.103814
vt 0.150827 0.086717
vt 0.150827 0.069621
vt 0.202116 0.069621
vt 0.185020 0.104133
vt 0.167923 0.121230
vt 0.167923 0.104133
vt 0.185020 0.121230
vt 0.167923 0.138326
vt 0.185020 0.138326
vt 0.167923 0.155422
vt 0.185020 0.155422
vt 0.167923 0.172519
vt 0.150827 0.155422
vt 0.150827 0.138326
vt 0.202116 0.138326
vt 0.081802 0.172839
vt 0.064705 0.189935
vt 0.064705 0.172839
vt 0.081802 0.189935
vt 0.064705 0.207031
vt 0.081802 0.207031
vt 0.064705 0.224128
vt 0.081802 0.224128
vt 0.064705 0.241224
vt 0.047609 0.224128
vt 0.047609 0.207031
vt 0.098898 0.207031
vt 0.133411 0.172839
vt 0.116314 0.189935
vt 0.116314 0.172839
vt 0.133411 0.189935
vt 0.116314 0.207031
vt 0.133411 0.207031
vt 0.116314 0.224128
vt 0.133411 0.224128
vt 0.116314 0.241224
vt 0.099218 0.224128
vt 0.099218 0.207031
vt 0.150507 0.207031
vt 0.185020 0.172839
vt 0.167923 0.189935
vt 0.167923 0.172839
vt 0.185020 0.189935
vt 0.167923 0.207031
vt 0.185020 0.207031
vt 0.167923 0.224128
vt 0.185020 0.224128
vt 0.167923 0.241224
vt 0.150827 0.224128
vt 0.150827 0.207031
vt 0.202116 0.207031
vt 0.236628 0.035428
vt 0.219532 0.052524
vt 0.219532 0.035428
vt 0.236628 0.052524
vt 0.219532 0.069621
vt 0.236628 0.069621
vt 0.219532 0.086717
vt 0.236628 0.086717
vt 0.219532 0.103814
vt 0.202436 0.086717
vt 0.202436 0.069621
vt 0.253725 0.069621
vt 0.236628 0.104133
vt 0.219532 0.121230
vt 0.219532 0.104133
vt 0.236628 0.121230
vt 0.219532 0.138326
vt 0.236628 0.138326
vt 0.219532 0.155422
vt 0.236628 0.155422
vt 0.219532 0.172519
vt 0.202436 0.155422
vt 0.202436 0.138326
vt 0.253725 0.138326
vt 0.236628 0.172839
vt 0.219532 0.189935
vt 0.219532 0.172839
vt 0.236628 0.189935
vt 0.219532 0.207031
vt 0.236628 0.207031
vt 0.219532 0.224128
vt 0.236628 0.224128
vt 0.219532 0.241224
vt 0.202436 0.224128
vt 0.202436 0.207031
vt 0.253725 0.207031
vt 0.288237 0.035428
vt 0.271141 0.052524
vt 0.271141 0.035428
vt 0.288237 0.052524
vt 0.271141 0.069621
vt 0.288237 0.069621
vt 0.271141 0.086717
vt 0.288237 0.086717
vt 0.271141 0.103814
vt 0.254045 0.086717
vt 0.254045 0.069621
vt 0.305334 0.069621
vt 0.288237 0.104133
vt 0.271141 0.121230
vt 0.271141 0.104133
vt 0.288237 0.121230
vt 0.271141 0.138326
vt 0.288237 0.138326
vt 0.271141 0.155422
vt 0.288237 0.155422
vt 0.271141 0.172519
vt 0.254045 0.155422
vt 0.254045 0.138326
vt 0.305334 0.138326
vt 0.288237 0.172839
vt 0.271141 0.189935
vt 0.271141 0.172839
vt 0.288237 0.189935
vt 0.271141 0.207031
vt 0.288237 0.207031
vt 0.271141 0.224128
vt 0.288237 0.224128
vt 0.271141 0.241224
vt 0.254045 0.224128
vt 0.254045 0.207031
vt 0.305334 0.207031
vt 0.081802 0.241544
vt 0.064705 0.258640
vt 0.064705 0.241544
vt 0.081802 0.258640
vt 0.064705 0.275736
vt 0.081802 0.275736
vt 0.064705 0.292833
vt 0.081802 0.292833
vt 0.064705 0.309929
vt 0.047609 0.292833
vt 0.047609 0.275736
vt 0.098898 0.275736
vt 0.133411 0.241544
vt 0.116314 0.258640
vt 0.116314 0.241544
vt 0.133411 0.258640
vt 0.116314 0.275736
vt 0.133411 0.275736
vt 0.116314 0.292833
vt 0.133411 0.292833
vt 0.116314 0.309929
vt 0.099218 0.292833
vt 0.099218 0.275736
vt 0.150507 0.275736
vt 0.185020 0.241544
vt 0.167923 0.258640
vt 0.167923 0.241544
vt 0.185020 0.258640
vt 0.167923 0.275736
vt 0.185020 0.275736
vt 0.167923 0.292833
vt 0.185020 0.292833
vt 0.167923 0.309929
vt 0.150827 0.292833
vt 0.150827 0.275736
vt 0.202116 0.275736
vt 0.236628 0.241544
vt 0.219532 0.258640
vt 0.219532 0.241544
vt 0.236628 0.258640
vt 0.219532 0.275736
vt 0.236628 0.275736
vt 0.219532 0.292833
vt 0.236628 0.292833
vt 0.219532 0.309929
vt 0.202436 0.292833
vt 0.202436 0.275736
vt 0.253725 0.275736
vt 0.288237 0.241544
vt 0.271141 0.258640
vt 0.271141 0.241544
vt 0.288237 0.258640
vt 0.271141 0.275736
vt 0.288237 0.275736
vt 0.271141 0.292833
vt 0.288237 0.292833
vt 0.271141 0.309929
vt 0.254045 0.292833
vt 0.254045 0.275736
vt 0.305334 0.275736
vt 0.339846 0.035428
vt 0.322750 0.052524
vt 0.322750 0.035428
vt 0.339846 0.052524
vt 0.322750 0.069621
vt 0.339846 0.069621
vt 0.322750 0.086717
vt 0.339846 0.086717
vt 0.322750 0.103814
vt 0.305653 0.069621
vt 0.306103 0.069916
vt 0.306103 0.086422
vt 0.322300 0.086422
vt 0.356493 0.086422
vt 0.340296 0.086422
vt 0.356942 0.069621
vt 0.340296 0.069916
vt 0.357262 0.035428
vt 0.357768 0.052524
vt 0.357768 0.035428
vt 0.357262 0.052524
vt 0.357768 0.069621
vt 0.357262 0.086717
vt 0.357262 0.069621
vt 0.357262 0.103814
vt 0.357768 0.086717
vt 0.339846 0.104133
vt 0.322750 0.121230
vt 0.322750 0.104133
vt 0.339846 0.121230
vt 0.322750 0.138326
vt 0.339846 0.138326
vt 0.322750 0.155422
vt 0.339846 0.155422
vt 0.322750 0.172519
vt 0.305653 0.138326
vt 0.306103 0.138621
vt 0.306103 0.155128
vt 0.322300 0.155128
vt 0.356493 0.155128
vt 0.340296 0.155128
vt 0.356942 0.138326
vt 0.340296 0.138621
vt 0.357262 0.104133
vt 0.357768 0.121230
vt 0.357768 0.104133
vt 0.357262 0.121230
vt 0.357768 0.138326
vt 0.357262 0.155422
vt 0.357262 0.138326
vt 0.357262 0.172519
vt 0.357768 0.155422
vt 0.339846 0.172839
vt 0.322750 0.189935
vt 0.322750 0.172839
vt 0.339846 0.189935
vt 0.322750 0.207031
vt 0.339846 0.207031
vt 0.322750 0.224128
vt 0.339846 0.224128
vt 0.322750 0.241224
vt 0.305653 0.207031
vt 0.306103 0.207326
vt 0.306103 0.223833
vt 0.322300 0.223833
vt 0.356493 0.223833
vt 0.340296 0.223833
vt 0.356942 0.207031
vt 0.340296 0.207326
vt 0.357262 0.172839
vt 0.357768 0.189935
vt 0.357768 0.172839
vt 0.357262 0.189935
vt 0.357768 0.207031
vt 0.357262 0.224128
vt 0.357262 0.207031
vt 0.357262 0.241224
vt 0.357768 0.224128
vt 0.339846 0.241544
vt 0.322750 0.258640
vt 0.322750 0.241544
vt 0.339846 0.258640
vt 0.322750 0.275736
vt 0.339846 0.275736
vt 0.322750 0.292833
vt 0.339846 0.292833
vt 0.322750 0.309929
vt 0.305653 0.275736
vt 0.306103 0.276031
vt 0.306103 0.292538
vt 0.322300 0.292538
vt 0.356493 0.292538
vt 0.340296 0.292538
vt 0.356942 0.275736
vt 0.340296 0.276031
vt 0.357262 0.241544
vt 0.357768 0.258640
vt 0.357768 0.241544
vt 0.357262 0.258640
vt 0.357768 0.275736
vt 0.357262 0.292833
vt 0.357262 0.275736
vt 0.357262 0.309929
vt 0.357768 0.292833
vt 0.081802 0.310249
vt 0.064705 0.327345
vt 0.064705 0.310249
vt 0.081802 0.327345
vt 0.064705 0.344442
vt 0.081802 0.344442
vt 0.064705 0.361538
vt 0.081802 0.361538
vt 0.064705 0.378634
vt 0.047609 0.344442
vt 0.048059 0.344736
vt 0.048059 0.361243
vt 0.064256 0.361243
vt 0.098448 0.361243
vt 0.082252 0.361243
vt 0.098898 0.344442
vt 0.082252 0.344736
vt 0.358088 0.035428
vt 0.358594 0.052524
vt 0.358594 0.035428
vt 0.358088 0.052524
vt 0.358594 0.069621
vt 0.358088 0.086717
vt 0.358088 0.069621
vt 0.358088 0.103814
vt 0.358594 0.086717
vt 0.142256 0.310249
vt 0.133713 0.318793
vt 0.133713 0.310249
vt 0.142256 0.318793
vt 0.133713 0.327336
vt 0.142256 0.327336
vt 0.133713 0.335880
vt 0.142256 0.335880
vt 0.133713 0.344424
vt 0.125169 0.335880
vt 0.125169 0.327336
vt 0.150800 0.327336
vt 0.116305 0.310249
vt 0.107762 0.318793
vt 0.107762 0.310249
vt 0.116305 0.318793
vt 0.107762 0.327336
vt 0.116305 0.327336
vt 0.107762 0.335880
vt 0.116305 0.335880
vt 0.107762 0.344424
vt 0.099218 0.335880
vt 0.099218 0.327336
vt 0.124849 0.327336
vt 0.940884 0.205356
vt 0.940884 0.213503
vt 0.939295 0.221494
vt 0.936177 0.229021
vt 0.931650 0.235796
vt 0.925889 0.241557
vt 0.919115 0.246083
vt 0.911588 0.249201
vt 0.903597 0.250791
vt 0.895450 0.250791
vt 0.887459 0.249201
vt 0.879932 0.246083
vt 0.873157 0.241557
vt 0.867396 0.235796
vt 0.862870 0.229021
vt 0.858162 0.213503
vt 0.862870 0.189838
vt 0.858162 0.205356
vt 0.859752 0.197365
vt 0.867396 0.183064
vt 0.873157 0.177303
vt 0.879932 0.172776
vt 0.895450 0.168069
vt 0.919115 0.172776
vt 0.903597 0.168069
vt 0.911588 0.169658
vt 0.925889 0.177303
vt 0.931650 0.183064
vt 0.936177 0.189838
vt 0.858105 0.258460
vt 0.911588 0.166422
vt 0.919115 0.163304
vt 0.925889 0.158777
vt 0.931650 0.153016
vt 0.936177 0.146242
vt 0.940884 0.122577
vt 0.939295 0.138715
vt 0.940884 0.130724
vt 0.939295 0.114586
vt 0.936177 0.107059
vt 0.931650 0.100284
vt 0.925889 0.094523
vt 0.919115 0.089997
vt 0.911588 0.086879
vt 0.903597 0.085290
vt 0.887459 0.086879
vt 0.879932 0.089997
vt 0.873157 0.094523
vt 0.867396 0.100284
vt 0.862870 0.107059
vt 0.859752 0.114586
vt 0.858162 0.122577
vt 0.859752 0.138715
vt 0.862870 0.146242
vt 0.867396 0.153016
vt 0.873157 0.158778
vt 0.879932 0.163304
vt 0.887459 0.166422
vt 0.895450 0.168011
vt 0.089983 0.798852
vt 0.109072 0.779764
vt 0.147420 0.798852
vt 0.166508 0.779764
vt 0.089983 0.875377
vt 0.109072 0.856289
vt 0.147420 0.875377
vt 0.166508 0.856289
vt 0.204857 0.798852
vt 0.223945 0.779764
vt 0.204857 0.875377
vt 0.223945 0.856289
vt 0.089983 0.951902
vt 0.109072 0.932814
vt 0.147420 0.951902
vt 0.166508 0.932814
vt 0.204857 0.951902
vt 0.223945 0.932814
vt 0.262293 0.798852
vt 0.281381 0.779764
vt 0.262293 0.875377
vt 0.281381 0.856289
vt 0.262293 0.951902
vt 0.281381 0.932814
vt 0.319730 0.798852
vt 0.338818 0.779764
vt 0.762668 0.829525
vt 0.701653 0.829525
vt 0.941630 0.948806
vt 0.941630 0.949514
vt 0.701653 0.828796
vt 0.941630 0.590256
vt 0.941630 0.589549
vt 0.715849 0.709537
vt 0.926452 0.589549
vt 0.926632 0.948806
vt 0.716652 0.828818
vt 0.714402 0.828796
vt 0.928881 0.948806
vt 0.928881 0.590252
vt 0.928881 0.829520
vt 0.762668 0.709537
vt 0.929029 0.589549
vt 0.168207 0.344424
vt 0.176751 0.335880
vt 0.081802 0.103814
vt 0.098898 0.086717
vt 0.133411 0.103814
vt 0.150507 0.086717
vt 0.081802 0.172519
vt 0.098898 0.155422
vt 0.133411 0.172519
vt 0.150507 0.155422
vt 0.185020 0.103814
vt 0.202116 0.086717
vt 0.185020 0.172519
vt 0.202116 0.155422
vt 0.081802 0.241224
vt 0.098898 0.224128
vt 0.133411 0.241224
vt 0.150507 0.224128
vt 0.185020 0.241224
vt 0.202116 0.224128
vt 0.236628 0.103814
vt 0.253725 0.086717
vt 0.236628 0.172519
vt 0.253725 0.155422
vt 0.236628 0.241224
vt 0.253725 0.224128
vt 0.288237 0.103814
vt 0.305334 0.086717
vt 0.288237 0.172519
vt 0.305334 0.155422
vt 0.288237 0.241224
vt 0.305334 0.224128
vt 0.081802 0.309929
vt 0.098898 0.292833
vt 0.133411 0.309929
vt 0.150507 0.292833
vt 0.185020 0.309929
vt 0.202116 0.292833
vt 0.236628 0.309929
vt 0.253725 0.292833
vt 0.288237 0.309929
vt 0.305334 0.292833
vt 0.339846 0.103814
vt 0.305653 0.086717
vt 0.322300 0.069916
vt 0.356942 0.086717
vt 0.356493 0.069916
vt 0.357768 0.103814
vt 0.339846 0.172519
vt 0.305653 0.155422
vt 0.322300 0.138621
vt 0.356942 0.155422
vt 0.356493 0.138621
vt 0.357768 0.172519
vt 0.339846 0.241224
vt 0.305653 0.224128
vt 0.322300 0.207326
vt 0.356942 0.224128
vt 0.356493 0.207326
vt 0.357768 0.241224
vt 0.339846 0.309929
vt 0.305653 0.292833
vt 0.322300 0.276031
vt 0.356942 0.292833
vt 0.356493 0.276031
vt 0.357768 0.309929
vt 0.081802 0.378634
vt 0.047609 0.361538
vt 0.064256 0.344736
vt 0.098898 0.361538
vt 0.098448 0.344736
vt 0.358594 0.103814
vt 0.142256 0.344424
vt 0.150800 0.335880
vt 0.116305 0.344424
vt 0.124849 0.335880
s 0
usemtl マテリアル
f 2/1/1 3/2/1 1/3/1
f 4/4/2 5/5/2 3/2/2
f 6/6/3 7/7/3 5/5/3
f 8/8/4 9/9/4 7/7/4
f 10/10/5 11/11/5 9/9/5
f 12/12/6 13/13/6 11/11/6
f 14/14/7 15/15/7 13/13/7
f 16/16/8 17/17/8 15/15/8
f 18/18/9 19/19/9 17/17/9
f 20/20/10 21/21/10 19/19/10
f 22/22/11 23/23/11 21/21/11
f 24/24/12 25/25/12 23/23/12
f 26/26/13 27/27/13 25/25/13
f 28/28/14 29/29/14 27/27/14
f 30/30/15 31/31/15 29/29/15
f 32/32/16 33/33/16 31/31/16
f 34/34/17 35/35/17 33/33/17
f 36/36/18 37/37/18 35/35/18
f 38/38/19 39/39/19 37/37/19
f 40/40/20 41/41/20 39/39/20
f 42/42/21 43/43/21 41/41/21
f 44/44/22 45/45/22 43/43/22
f 46/46/23 47/47/23 45/45/23
f 48/48/24 49/49/24 47/47/24
f 50/50/25 51/51/25 49/49/25
f 52/52/26 53/53/26 51/51/26
f 54/54/27 55/55/27 53/53/27
f 56/56/28 57/57/28 55/55/28
f 58/58/29 59/59/29 57/57/29
f 60/60/30 61/61/30 59/59/30
f 38/62/31 22/63/31 6/64/31
f 62/65/32 63/66/32 61/61/32
f 64/67/33 1/68/33 63/66/33
f 31/69/34 47/70/34 63/71/34
f 66/72/35 67/73/35 65/74/35
f 68/75/36 71/76/36 67/73/36
f 72/77/37 69/78/37 71/76/37
f 70/79/38 65/80/38 69/78/38
f 71/76/34 65/81/34 67/82/34
f 68/83/31 70/79/31 72/77/31
f 74/84/35 75/85/35 73/86/35
f 76/87/36 79/88/36 75/85/36
f 80/89/37 77/90/37 79/88/37
f 78/91/38 73/92/38 77/90/38
f 79/88/34 73/93/34 75/94/34
f 76/95/31 78/91/31 80/89/31
f 82/96/35 83/97/35 81/98/35
f 84/99/36 87/100/36 83/97/36
f 88/101/37 85/102/37 87/100/37
f 86/103/38 81/104/38 85/102/38
f 87/100/34 81/105/34 83/106/34
f 84/107/31 86/103/31 88/101/31
f 90/108/35 91/109/35 89/110/35
f 92/111/36 95/112/36 91/109/36
f 96/113/37 93/114/37 95/112/37
f 94/115/38 89/116/38 93/114/38
f 95/112/34 89/117/34 91/118/34
f 92/119/31 94/115/31 96/113/31
f 98/120/35 99/121/35 97/122/35
f 100/123/36 103/124/36 99/121/36
f 104/125/37 101/126/37 103/124/37
f 102/127/38 97/128/38 101/126/38
f 103/124/34 97/129/34 99/130/34
f 100/131/31 102/127/31 104/125/31
f 106/132/35 107/133/35 105/134/35
f 108/135/36 111/136/36 107/133/36
f 112/137/37 109/138/37 111/136/37
f 110/139/38 105/140/38 109/138/38
f 111/136/34 105/141/34 107/142/34
f 108/143/31 110/139/31 112/137/31
f 114/144/35 115/145/35 113/146/35
f 116/147/36 119/148/36 115/145/36
f 120/149/37 117/150/37 119/148/37
f 118/151/38 113/152/38 117/150/38
f 119/148/34 113/153/34 115/154/34
f 116/155/31 118/151/31 120/149/31
f 122/156/35 123/157/35 121/158/35
f 124/159/36 127/160/36 123/157/36
f 128/161/37 125/162/37 127/160/37
f 126/163/38 121/164/38 125/162/38
f 127/160/34 121/165/34 123/166/34
f 124/167/31 126/163/31 128/161/31
f 130/168/35 131/169/35 129/170/35
f 132/171/36 135/172/36 131/169/36
f 136/173/37 133/174/37 135/172/37
f 134/175/38 129/176/38 133/174/38
f 135/172/34 129/177/34 131/178/34
f 132/179/31 134/175/31 136/173/31
f 138/180/35 139/181/35 137/182/35
f 140/183/36 143/184/36 139/181/36
f 144/185/37 141/186/37 143/184/37
f 142/187/38 137/188/38 141/186/38
f 143/184/34 137/189/34 139/190/34
f 140/191/31 142/187/31 144/185/31
f 146/192/35 147/193/35 145/194/35
f 148/195/36 151/196/36 147/193/36
f 152/197/37 149/198/37 151/196/37
f 150/199/38 145/200/38 149/198/38
f 151/196/34 145/201/34 147/202/34
f 148/203/31 150/199/31 152/197/31
f 154/204/35 155/205/35 153/206/35
f 156/207/36 159/208/36 155/205/36
f 160/209/37 157/210/37 159/208/37
f 158/211/38 153/212/38 157/210/38
f 159/208/34 153/213/34 155/214/34
f 156/215/31 158/211/31 160/209/31
f 162/216/35 163/217/35 161/218/35
f 164/219/36 167/220/36 163/217/36
f 168/221/37 165/222/37 167/220/37
f 166/223/38 161/224/38 165/222/38
f 167/220/34 161/225/34 163/226/34
f 164/227/31 166/223/31 168/221/31
f 176/228/31 260/229/31 190/230/31
f 183/231/34 252/232/34 171/233/34
f 218/234/37 381/235/37 398/236/37
f 199/237/34 397/238/34 369/239/34
f 235/240/39 281/241/39 261/242/39
f 208/243/35 270/244/35 197/245/35
f 233/246/35 169/247/35 251/248/35
f 191/249/37 243/250/37 185/251/37
f 245/252/31 272/253/31 253/254/31
f 372/255/35 209/243/35 200/245/35
f 321/256/38 314/257/38 307/258/38
f 262/259/35 297/260/35 244/261/35
f 271/262/37 234/263/37 254/264/37
f 360/229/31 312/228/31 326/230/31
f 354/232/34 319/231/34 306/233/34
f 290/265/31 225/266/31 278/267/31
f 226/268/31 388/265/31 378/269/31
f 279/235/37 217/270/37 298/236/37
f 379/241/40 335/240/40 363/271/40
f 305/247/35 333/272/35 351/248/35
f 345/250/37 328/273/37 320/251/37
f 370/253/31 343/274/31 353/254/31
f 299/238/34 198/275/34 269/276/34
f 399/260/35 362/259/35 344/261/35
f 371/262/37 336/263/37 390/277/37
f 169/247/41 173/278/41 175/279/41
f 174/280/42 172/281/42 170/258/42
f 171/233/43 173/282/43 174/283/43
f 176/228/44 180/284/44 182/285/44
f 181/286/45 179/287/45 177/288/45
f 178/289/46 180/290/46 181/286/46
f 183/231/47 187/291/47 189/292/47
f 188/293/48 186/294/48 184/256/48
f 185/251/49 187/291/49 188/293/49
f 190/230/50 194/295/50 196/296/50
f 191/249/51 194/295/51 193/297/51
f 196/298/52 195/299/52 192/300/52
f 201/301/53 205/302/53 197/245/53
f 203/303/54 201/304/54 198/275/54
f 204/304/54 203/303/54 199/237/54
f 205/302/53 204/301/53 200/245/53
f 210/305/55 214/306/55 206/307/55
f 212/306/55 210/305/55 207/308/55
f 208/243/56 211/309/56 212/310/56
f 209/243/56 211/311/56 213/312/56
f 219/313/57 223/314/57 215/315/57
f 216/315/57 220/316/57 219/313/57
f 222/317/58 221/314/58 217/270/58
f 218/234/58 220/316/58 222/317/58
f 224/318/59 229/319/59 232/320/59
f 230/321/60 228/322/60 225/266/60
f 231/322/60 230/321/60 226/268/60
f 227/318/59 229/319/59 231/322/59
f 233/246/61 238/323/61 241/324/61
f 239/325/62 237/326/62 234/263/62
f 235/240/63 238/327/63 239/328/63
f 241/329/64 240/330/64 236/331/64
f 246/332/57 250/333/57 242/334/57
f 248/335/58 246/332/58 243/250/58
f 249/336/58 248/335/58 244/261/58
f 250/333/57 249/336/57 245/252/57
f 255/337/53 259/338/53 251/248/53
f 257/339/54 255/340/54 252/232/54
f 258/341/54 257/339/54 253/254/54
f 259/338/53 258/342/53 254/264/53
f 264/343/65 268/344/65 260/229/65
f 261/242/66 265/345/66 264/343/66
f 267/346/67 266/347/67 262/259/67
f 263/348/68 265/345/68 267/346/68
f 273/349/54 277/350/54 269/276/54
f 275/351/53 273/352/53 270/244/53
f 276/353/53 275/351/53 271/262/53
f 277/350/54 276/354/54 272/253/54
f 282/355/65 286/356/65 278/267/65
f 279/235/69 283/357/69 282/355/69
f 285/358/70 284/359/70 280/360/70
f 286/356/71 285/358/71 281/241/71
f 291/361/72 295/362/72 287/363/72
f 293/364/73 291/365/73 288/277/73
f 289/366/74 292/367/74 293/364/74
f 295/362/64 294/368/64 290/265/64
f 300/369/57 304/370/57 296/371/57
f 302/372/58 300/369/58 297/260/58
f 303/373/58 302/372/58 298/236/58
f 304/370/57 303/373/57 299/238/57
f 305/247/75 309/374/75 311/281/75
f 306/233/76 309/375/76 308/376/76
f 311/281/77 310/280/77 307/258/77
f 312/228/78 316/377/78 318/378/78
f 313/289/79 316/379/79 315/380/79
f 318/287/80 317/286/80 314/257/80
f 319/231/81 323/381/81 325/382/81
f 320/251/82 323/381/82 322/292/82
f 325/294/83 324/293/83 321/256/83
f 326/230/84 330/383/84 332/297/84
f 331/299/85 329/298/85 327/300/85
f 328/273/86 330/383/86 331/299/86
f 333/272/87 338/384/87 341/326/87
f 339/330/88 337/329/88 334/331/88
f 335/240/89 338/385/89 339/330/89
f 341/326/90 340/325/90 336/263/90
f 346/333/57 350/386/57 342/334/57
f 348/336/57 346/333/57 343/274/57
f 349/335/58 348/336/58 344/261/58
f 350/386/58 349/335/58 345/250/58
f 355/338/53 359/337/53 351/248/53
f 357/342/53 355/338/53 352/264/53
f 358/339/54 357/341/54 353/254/54
f 359/340/54 358/339/54 354/232/54
f 364/344/91 368/343/91 360/229/91
f 361/348/92 365/345/92 364/344/92
f 367/347/93 366/346/93 362/259/93
f 363/271/94 365/345/94 367/347/94
f 373/350/54 377/349/54 369/239/54
f 375/354/54 373/350/54 370/253/54
f 376/351/53 375/353/53 371/262/53
f 377/352/53 376/351/53 372/255/53
f 382/356/91 386/355/91 378/269/91
f 384/358/95 382/356/95 379/241/95
f 385/359/96 384/358/96 380/360/96
f 381/235/97 383/387/97 385/359/97
f 391/362/98 395/361/98 387/363/98
f 393/368/88 391/362/88 388/265/88
f 389/366/99 392/388/99 393/389/99
f 395/390/100 394/364/100 390/277/100
f 400/370/57 404/369/57 396/371/57
f 402/373/57 400/370/57 397/238/57
f 403/372/58 402/373/58 398/236/58
f 404/369/58 403/372/58 399/260/58
f 176/228/55 241/329/55 236/331/55
f 182/380/56 233/246/56 241/324/56
f 170/258/101 181/286/101 177/288/101
f 172/281/102 178/289/102 181/286/102
f 171/233/103 186/382/103 183/231/103
f 174/280/104 184/256/104 186/294/104
f 190/230/105 179/378/105 176/228/105
f 196/298/106 177/288/106 179/287/106
f 185/251/107 195/299/107 191/249/107
f 188/293/108 192/300/108 195/299/108
f 183/231/57 246/332/57 242/334/57
f 189/292/58 243/250/58 246/332/58
f 198/275/54 273/349/54 269/276/54
f 201/301/53 270/244/53 273/352/53
f 225/266/60 282/355/60 278/267/60
f 228/322/59 279/235/59 282/355/59
f 226/268/31 210/305/31 206/307/31
f 230/321/31 207/308/31 210/305/31
f 199/237/34 219/313/34 215/315/34
f 203/303/34 216/315/34 219/313/34
f 218/234/37 232/320/37 227/318/37
f 222/317/37 224/318/37 232/320/37
f 197/245/35 213/312/35 208/243/35
f 205/302/35 209/243/35 213/312/35
f 235/240/109 291/361/109 287/363/109
f 239/325/110 288/277/110 291/365/110
f 245/252/55 300/369/55 296/371/55
f 249/336/56 297/260/56 300/369/56
f 252/232/54 175/376/54 171/233/54
f 255/337/53 169/247/53 175/279/53
f 260/229/60 193/297/60 190/230/60
f 268/344/59 191/249/59 193/297/59
f 262/259/37 248/335/37 267/346/37
f 267/346/37 243/250/37 263/348/37
f 253/254/34 250/333/34 245/252/34
f 257/339/34 242/334/34 250/333/34
f 261/242/111 240/330/111 235/240/111
f 264/343/112 236/331/112 240/330/112
f 251/248/35 237/326/35 233/246/35
f 259/338/35 234/263/35 237/326/35
f 272/253/60 258/341/60 253/254/60
f 276/353/59 254/264/59 258/342/59
f 261/242/113 285/358/113 266/347/113
f 266/347/114 280/360/114 262/259/114
f 290/265/55 212/306/55 207/308/55
f 294/389/56 208/243/56 212/310/56
f 299/238/57 221/314/57 216/315/57
f 303/373/58 217/270/58 221/314/58
f 271/262/35 293/364/35 288/277/35
f 275/351/35 289/366/35 293/364/35
f 279/235/37 302/372/37 284/359/37
f 284/359/37 297/260/37 280/360/37
f 269/276/34 304/370/34 299/238/34
f 277/350/34 296/371/34 304/370/34
f 278/267/112 295/362/112 290/265/112
f 286/356/111 287/363/111 295/362/111
f 313/289/56 337/324/56 333/272/56
f 315/285/55 334/331/55 337/329/55
f 305/247/115 317/286/115 313/289/115
f 311/281/116 314/257/116 317/286/116
f 307/258/117 325/294/117 321/256/117
f 310/283/118 319/231/118 325/382/118
f 327/300/119 318/287/119 314/257/119
f 329/296/120 312/228/120 318/378/120
f 321/256/121 331/299/121 327/300/121
f 324/293/122 328/273/122 331/299/122
f 320/251/58 350/386/58 345/250/58
f 322/292/57 342/334/57 350/386/57
f 200/245/53 377/352/53 372/255/53
f 204/304/54 369/239/54 377/349/54
f 227/318/59 386/355/59 381/235/59
f 231/322/60 378/269/60 386/355/60
f 390/277/123 340/325/123 395/390/123
f 395/361/124 335/240/124 387/363/124
f 344/261/56 404/369/56 399/260/56
f 348/336/55 396/371/55 404/369/55
f 351/248/53 308/279/53 305/247/53
f 359/340/54 306/233/54 308/376/54
f 361/348/59 332/297/59 328/273/59
f 364/344/60 326/230/60 332/297/60
f 345/250/37 366/346/37 361/348/37
f 349/335/37 362/259/37 366/346/37
f 354/232/34 346/333/34 342/334/34
f 358/339/34 343/274/34 346/333/34
f 360/229/125 339/330/125 334/331/125
f 368/343/126 335/240/126 339/330/126
f 336/263/35 355/338/35 341/326/35
f 341/326/35 351/248/35 333/272/35
f 371/262/59 357/342/59 352/264/59
f 375/354/60 353/254/60 357/341/60
f 380/360/127 367/347/127 362/259/127
f 384/358/128 363/271/128 367/347/128
f 389/366/56 214/310/56 209/243/56
f 393/368/55 206/307/55 214/306/55
f 398/236/58 223/314/58 218/234/58
f 402/373/57 215/315/57 223/314/57
f 389/366/35 376/351/35 394/364/35
f 394/364/35 371/262/35 390/277/35
f 399/260/37 385/359/37 380/360/37
f 403/372/37 381/235/37 385/359/37
f 370/253/34 400/370/34 396/371/34
f 373/350/34 397/238/34 400/370/34
f 379/241/126 391/362/126 387/363/126
f 382/356/125 388/265/125 391/362/125
f 177/288/36 184/256/36 170/258/36
f 406/391/35 407/392/35 405/393/35
f 408/394/36 411/395/36 407/392/36
f 412/396/37 409/397/37 411/395/37
f 410/398/38 405/399/38 409/397/38
f 411/395/34 405/400/34 407/401/34
f 408/402/31 410/398/31 412/396/31
f 414/403/35 415/404/35 413/405/35
f 416/406/36 419/407/36 415/404/36
f 420/408/37 417/409/37 419/407/37
f 418/410/38 413/411/38 417/409/38
f 419/407/34 413/412/34 415/413/34
f 416/414/31 418/410/31 420/408/31
f 422/415/35 423/416/35 421/417/35
f 424/418/36 427/419/36 423/416/36
f 428/420/37 425/421/37 427/419/37
f 426/422/38 421/423/38 425/421/38
f 427/419/34 421/424/34 423/425/34
f 424/426/31 426/422/31 428/420/31
f 430/427/35 431/428/35 429/429/35
f 432/430/36 435/431/36 431/428/36
f 436/432/37 433/433/37 435/431/37
f 434/434/38 429/435/38 433/433/38
f 435/431/34 429/436/34 431/437/34
f 432/438/31 434/434/31 436/432/31
f 438/439/35 439/440/35 437/441/35
f 440/442/36 443/443/36 439/440/36
f 444/444/37 441/445/37 443/443/37
f 442/446/38 437/447/38 441/445/38
f 443/443/34 437/448/34 439/449/34
f 440/450/31 442/446/31 444/444/31
f 446/451/35 447/452/35 445/453/35
f 448/454/36 451/455/36 447/452/36
f 452/456/37 449/457/37 451/455/37
f 450/458/38 445/459/38 449/457/38
f 451/455/34 445/460/34 447/461/34
f 448/462/31 450/458/31 452/456/31
f 454/463/35 455/464/35 453/465/35
f 456/466/36 459/467/36 455/464/36
f 460/468/37 457/469/37 459/467/37
f 458/470/38 453/471/38 457/469/38
f 459/467/34 453/472/34 455/473/34
f 456/474/31 458/470/31 460/468/31
f 462/475/35 463/476/35 461/477/35
f 464/478/36 467/479/36 463/476/36
f 468/480/37 465/481/37 467/479/37
f 466/482/38 461/483/38 465/481/38
f 467/479/34 461/484/34 463/485/34
f 464/486/31 466/482/31 468/480/31
f 470/487/35 471/488/35 469/489/35
f 472/490/36 475/491/36 471/488/36
f 476/492/37 473/493/37 475/491/37
f 474/494/38 469/495/38 473/493/38
f 475/491/34 469/496/34 471/497/34
f 472/498/31 474/494/31 476/492/31
f 478/499/35 479/500/35 477/501/35
f 480/502/36 483/503/36 479/500/36
f 484/504/37 481/505/37 483/503/37
f 482/506/38 477/507/38 481/505/38
f 483/503/34 477/508/34 479/509/34
f 480/510/31 482/506/31 484/504/31
f 486/511/35 487/512/35 485/513/35
f 488/514/36 491/515/36 487/512/36
f 492/516/37 489/517/37 491/515/37
f 490/518/38 485/519/38 489/517/38
f 491/515/34 485/520/34 487/521/34
f 488/522/31 490/518/31 492/516/31
f 494/523/35 495/524/35 493/525/35
f 496/526/36 499/527/36 495/524/36
f 500/528/37 497/529/37 499/527/37
f 498/530/38 493/531/38 497/529/38
f 499/527/34 493/532/34 495/533/34
f 496/534/31 498/530/31 500/528/31
f 502/535/35 503/536/35 501/537/35
f 504/538/36 507/539/36 503/536/36
f 508/540/37 505/541/37 507/539/37
f 506/542/38 501/543/38 505/541/38
f 507/539/34 501/544/34 503/545/34
f 504/546/31 506/542/31 508/540/31
f 510/547/35 511/548/35 509/549/35
f 512/550/36 515/551/36 511/548/36
f 516/552/37 513/553/37 515/551/37
f 514/554/38 509/555/38 513/553/38
f 515/551/34 509/556/34 511/557/34
f 512/558/31 514/554/31 516/552/31
f 518/559/35 519/560/35 517/561/35
f 520/562/36 523/563/36 519/560/36
f 524/564/37 521/565/37 523/563/37
f 522/566/38 517/567/38 521/565/38
f 523/563/34 517/568/34 519/569/34
f 520/570/31 522/566/31 524/564/31
f 526/571/35 527/572/35 525/573/35
f 528/574/36 531/575/36 527/572/36
f 532/576/37 529/577/37 531/575/37
f 530/578/38 525/579/38 529/577/38
f 531/575/34 525/580/34 527/581/34
f 528/582/31 530/578/31 532/576/31
f 534/583/35 535/584/35 533/585/35
f 536/586/36 539/587/36 535/584/36
f 540/588/37 537/589/37 539/587/37
f 538/590/38 533/591/38 537/589/38
f 539/587/34 533/592/34 535/593/34
f 536/594/31 538/590/31 540/588/31
f 542/595/35 543/596/35 541/597/35
f 544/598/36 547/599/36 543/596/36
f 548/600/37 545/601/37 547/599/37
f 546/602/38 541/603/38 545/601/38
f 547/599/34 541/604/34 543/605/34
f 544/606/31 546/602/31 548/600/31
f 550/607/35 551/608/35 549/609/35
f 552/610/36 555/611/36 551/608/36
f 556/612/37 553/613/37 555/611/37
f 554/614/38 549/615/38 553/613/38
f 555/611/34 549/616/34 551/617/34
f 552/618/31 554/614/31 556/612/31
f 558/619/35 559/620/35 557/621/35
f 560/622/36 563/623/36 559/620/36
f 564/624/37 561/625/37 563/623/37
f 562/626/38 557/627/38 561/625/38
f 563/623/34 557/628/34 559/629/34
f 560/630/31 562/626/31 564/624/31
f 566/631/35 567/632/35 565/633/35
f 568/634/36 571/635/36 567/632/36
f 572/636/37 569/637/37 571/635/37
f 570/638/38 565/639/38 569/637/38
f 571/635/34 565/640/34 567/641/34
f 568/642/31 570/638/31 572/636/31
f 574/643/35 575/644/35 573/645/35
f 576/646/36 579/647/36 575/644/36
f 580/648/37 577/649/37 579/647/37
f 578/650/38 573/651/38 577/649/38
f 575/652/34 579/647/34 581/653/34
f 577/649/34 583/654/34 584/655/34
f 587/656/31 578/650/31 588/657/31
f 580/648/31 576/658/31 585/659/31
f 583/660/37 586/661/37 587/662/37
f 581/663/38 585/664/38 586/661/38
f 584/665/35 585/664/35 582/666/35
f 583/667/36 588/668/36 584/665/36
f 590/669/35 591/670/35 589/671/35
f 592/672/36 595/673/36 591/670/36
f 596/674/37 593/675/37 595/673/37
f 594/676/38 589/677/38 593/675/38
f 591/678/34 595/673/34 597/679/34
f 593/675/34 599/680/34 600/681/34
f 603/682/31 594/676/31 604/683/31
f 596/674/31 592/684/31 601/685/31
f 599/686/37 602/687/37 603/688/37
f 597/689/38 601/690/38 602/687/38
f 600/691/35 601/690/35 598/692/35
f 599/693/36 604/694/36 600/691/36
f 606/695/35 607/696/35 605/697/35
f 608/698/36 611/699/36 607/696/36
f 612/700/37 609/701/37 611/699/37
f 610/702/38 605/703/38 609/701/38
f 607/704/34 611/699/34 613/705/34
f 609/701/34 615/706/34 616/707/34
f 619/708/31 610/702/31 620/709/31
f 612/700/31 608/710/31 617/711/31
f 615/712/37 618/713/37 619/714/37
f 613/715/38 617/716/38 618/713/38
f 616/717/35 617/716/35 614/718/35
f 615/719/36 620/720/36 616/717/36
f 622/721/35 623/722/35 621/723/35
f 624/724/36 627/725/36 623/722/36
f 628/726/37 625/727/37 627/725/37
f 626/728/38 621/729/38 625/727/38
f 623/730/34 627/725/34 629/731/34
f 625/727/34 631/732/34 632/733/34
f 635/734/31 626/728/31 636/735/31
f 628/726/31 624/736/31 633/737/31
f 631/738/37 634/739/37 635/740/37
f 629/741/38 633/742/38 634/739/38
f 632/743/35 633/742/35 630/744/35
f 631/745/36 636/746/36 632/743/36
f 638/747/35 639/748/35 637/749/35
f 640/750/36 643/751/36 639/748/36
f 644/752/37 641/753/37 643/751/37
f 642/754/38 637/755/38 641/753/38
f 639/756/34 643/751/34 645/757/34
f 641/753/34 647/758/34 648/759/34
f 651/760/31 642/754/31 652/761/31
f 644/752/31 640/762/31 649/763/31
f 647/764/37 650/765/37 651/766/37
f 645/767/38 649/768/38 650/765/38
f 648/769/35 649/768/35 646/770/35
f 647/771/36 652/772/36 648/769/36
f 654/773/35 655/774/35 653/775/35
f 656/776/36 659/777/36 655/774/36
f 660/778/37 657/779/37 659/777/37
f 658/780/38 653/781/38 657/779/38
f 659/777/34 653/782/34 655/783/34
f 656/784/31 658/780/31 660/778/31
f 662/785/35 663/786/35 661/787/35
f 664/788/36 667/789/36 663/786/36
f 668/790/37 665/791/37 667/789/37
f 666/792/38 661/793/38 665/791/38
f 667/789/34 661/794/34 663/795/34
f 664/796/31 666/792/31 668/790/31
f 2/1/1 4/4/1 3/2/1
f 4/4/2 6/6/2 5/5/2
f 6/6/3 8/8/3 7/7/3
f 8/8/4 10/10/4 9/9/4
f 10/10/5 12/12/5 11/11/5
f 12/12/6 14/14/6 13/13/6
f 14/14/7 16/16/7 15/15/7
f 16/16/8 18/18/8 17/17/8
f 18/18/9 20/20/9 19/19/9
f 20/20/10 22/22/10 21/21/10
f 22/22/11 24/24/11 23/23/11
f 24/24/12 26/26/12 25/25/12
f 26/26/13 28/28/13 27/27/13
f 28/28/14 30/30/14 29/29/14
f 30/30/15 32/32/15 31/31/15
f 32/32/16 34/34/16 33/33/16
f 34/34/17 36/36/17 35/35/17
f 36/36/18 38/38/18 37/37/18
f 38/38/19 40/40/19 39/39/19
f 40/40/20 42/42/20 41/41/20
f 42/42/21 44/44/21 43/43/21
f 44/44/22 46/46/22 45/45/22
f 46/46/23 48/48/23 47/47/23
f 48/48/24 50/50/24 49/49/24
f 50/50/25 52/52/25 51/51/25
f 52/52/26 54/54/26 53/53/26
f 54/54/27 56/56/27 55/55/27
f 56/56/28 58/58/28 57/57/28
f 58/58/29 60/60/29 59/59/29
f 60/60/30 62/65/30 61/61/30
f 6/64/31 4/797/31 2/798/31
f 2/798/31 64/799/31 6/64/31
f 64/799/31 62/800/31 6/64/31
f 62/800/31 60/801/31 58/802/31
f 58/802/31 56/803/31 54/804/31
f 54/804/31 52/805/31 50/806/31
f 50/806/31 48/807/31 54/804/31
f 48/807/31 46/808/31 54/804/31
f 46/808/31 44/809/31 42/810/31
f 42/810/31 40/811/31 38/62/31
f 38/62/31 36/812/31 30/813/31
f 36/812/31 34/814/31 30/813/31
f 34/814/31 32/815/31 30/813/31
f 30/813/31 28/816/31 26/817/31
f 26/817/31 24/818/31 22/63/31
f 22/63/31 20/819/31 14/820/31
f 20/819/31 18/821/31 14/820/31
f 18/821/31 16/822/31 14/820/31
f 14/820/31 12/823/31 10/824/31
f 10/824/31 8/825/31 6/64/31
f 62/800/31 58/802/31 6/64/31
f 58/802/31 54/804/31 6/64/31
f 46/808/31 42/810/31 54/804/31
f 42/810/31 38/62/31 54/804/31
f 30/813/31 26/817/31 38/62/31
f 26/817/31 22/63/31 38/62/31
f 14/820/31 10/824/31 22/63/31
f 10/824/31 6/64/31 22/63/31
f 6/64/31 54/804/31 38/62/31
f 62/65/32 64/67/32 63/66/32
f 64/67/33 2/826/33 1/68/33
f 63/71/34 1/827/34 3/828/34
f 3/828/34 5/829/34 7/830/34
f 7/830/34 9/831/34 15/832/34
f 9/831/34 11/833/34 15/832/34
f 11/833/34 13/834/34 15/832/34
f 15/832/34 17/835/34 19/836/34
f 19/836/34 21/837/34 23/838/34
f 23/838/34 25/839/34 31/69/34
f 25/839/34 27/840/34 31/69/34
f 27/840/34 29/841/34 31/69/34
f 31/69/34 33/842/34 35/843/34
f 35/843/34 37/844/34 39/845/34
f 39/845/34 41/846/34 47/70/34
f 41/846/34 43/847/34 47/70/34
f 43/847/34 45/848/34 47/70/34
f 47/70/34 49/849/34 51/850/34
f 51/850/34 53/851/34 55/852/34
f 55/852/34 57/853/34 59/854/34
f 59/854/34 61/855/34 63/71/34
f 63/71/34 3/828/34 15/832/34
f 3/828/34 7/830/34 15/832/34
f 15/832/34 19/836/34 31/69/34
f 19/836/34 23/838/34 31/69/34
f 31/69/34 35/843/34 47/70/34
f 35/843/34 39/845/34 47/70/34
f 47/70/34 51/850/34 55/852/34
f 55/852/34 59/854/34 47/70/34
f 59/854/34 63/71/34 47/70/34
f 63/71/34 15/832/34 31/69/34
f 66/72/35 68/75/35 67/73/35
f 68/75/36 72/77/36 71/76/36
f 72/77/37 70/79/37 69/78/37
f 70/79/38 66/856/38 65/80/38
f 71/76/34 69/78/34 65/81/34
f 68/83/31 66/857/31 70/79/31
f 74/84/35 76/87/35 75/85/35
f 76/87/36 80/89/36 79/88/36
f 80/89/37 78/91/37 77/90/37
f 78/91/38 74/858/38 73/92/38
f 79/88/34 77/90/34 73/93/34
f 76/95/31 74/859/31 78/91/31
f 82/96/35 84/99/35 83/97/35
f 84/99/36 88/101/36 87/100/36
f 88/101/37 86/103/37 85/102/37
f 86/103/38 82/860/38 81/104/38
f 87/100/34 85/102/34 81/105/34
f 84/107/31 82/861/31 86/103/31
f 90/108/35 92/111/35 91/109/35
f 92/111/36 96/113/36 95/112/36
f 96/113/37 94/115/37 93/114/37
f 94/115/38 90/862/38 89/116/38
f 95/112/34 93/114/34 89/117/34
f 92/119/31 90/863/31 94/115/31
f 98/120/35 100/123/35 99/121/35
f 100/123/36 104/125/36 103/124/36
f 104/125/37 102/127/37 101/126/37
f 102/127/38 98/864/38 97/128/38
f 103/124/34 101/126/34 97/129/34
f 100/131/31 98/865/31 102/127/31
f 106/132/35 108/135/35 107/133/35
f 108/135/36 112/137/36 111/136/36
f 112/137/37 110/139/37 109/138/37
f 110/139/38 106/866/38 105/140/38
f 111/136/34 109/138/34 105/141/34
f 108/143/31 106/867/31 110/139/31
f 114/144/35 116/147/35 115/145/35
f 116/147/36 120/149/36 119/148/36
f 120/149/37 118/151/37 117/150/37
f 118/151/38 114/868/38 113/152/38
f 119/148/34 117/150/34 113/153/34
f 116/155/31 114/869/31 118/151/31
f 122/156/35 124/159/35 123/157/35
f 124/159/36 128/161/36 127/160/36
f 128/161/37 126/163/37 125/162/37
f 126/163/38 122/870/38 121/164/38
f 127/160/34 125/162/34 121/165/34
f 124/167/31 122/871/31 126/163/31
f 130/168/35 132/171/35 131/169/35
f 132/171/36 136/173/36 135/172/36
f 136/173/37 134/175/37 133/174/37
f 134/175/38 130/872/38 129/176/38
f 135/172/34 133/174/34 129/177/34
f 132/179/31 130/873/31 134/175/31
f 138/180/35 140/183/35 139/181/35
f 140/183/36 144/185/36 143/184/36
f 144/185/37 142/187/37 141/186/37
f 142/187/38 138/874/38 137/188/38
f 143/184/34 141/186/34 137/189/34
f 140/191/31 138/875/31 142/187/31
f 146/192/35 148/195/35 147/193/35
f 148/195/36 152/197/36 151/196/36
f 152/197/37 150/199/37 149/198/37
f 150/199/38 146/876/38 145/200/38
f 151/196/34 149/198/34 145/201/34
f 148/203/31 146/877/31 150/199/31
f 154/204/35 156/207/35 155/205/35
f 156/207/36 160/209/36 159/208/36
f 160/209/37 158/211/37 157/210/37
f 158/211/38 154/878/38 153/212/38
f 159/208/34 157/210/34 153/213/34
f 156/215/31 154/879/31 158/211/31
f 162/216/35 164/219/35 163/217/35
f 164/219/36 168/221/36 167/220/36
f 168/221/37 166/223/37 165/222/37
f 166/223/38 162/880/38 161/224/38
f 167/220/34 165/222/34 161/225/34
f 164/227/31 162/881/31 166/223/31
f 176/228/31 236/331/31 260/229/31
f 183/231/34 242/334/34 252/232/34
f 218/234/37 227/318/37 381/235/37
f 199/237/34 215/315/34 397/238/34
f 235/240/39 287/363/39 281/241/39
f 208/243/35 289/366/35 270/244/35
f 233/246/35 178/289/35 169/247/35
f 191/249/37 263/348/37 243/250/37
f 245/252/31 296/371/31 272/253/31
f 372/255/35 389/366/35 209/243/35
f 321/256/38 327/300/38 314/257/38
f 262/259/35 280/360/35 297/260/35
f 271/262/37 288/277/37 234/263/37
f 360/229/31 334/331/31 312/228/31
f 354/232/34 342/334/34 319/231/34
f 290/265/31 207/308/31 225/266/31
f 226/268/31 206/307/31 388/265/31
f 279/235/37 224/318/37 217/270/37
f 379/241/40 387/363/40 335/240/40
f 305/247/35 313/289/35 333/272/35
f 345/250/37 361/348/37 328/273/37
f 370/253/31 396/371/31 343/274/31
f 299/238/34 216/315/34 198/275/34
f 399/260/35 380/360/35 362/259/35
f 371/262/37 352/264/37 336/263/37
f 169/247/129 172/281/129 173/278/129
f 174/280/130 173/882/130 172/281/130
f 171/233/131 175/376/131 173/282/131
f 176/228/132 179/378/132 180/284/132
f 181/286/133 180/379/133 179/287/133
f 178/289/134 182/380/134 180/290/134
f 183/231/135 186/382/135 187/291/135
f 188/293/136 187/291/136 186/294/136
f 185/251/137 189/292/137 187/291/137
f 190/230/138 193/297/138 194/295/138
f 191/249/139 195/299/139 194/295/139
f 196/298/140 194/295/140 195/299/140
f 201/301/53 202/883/53 205/302/53
f 203/303/54 202/884/54 201/304/54
f 204/304/54 202/885/54 203/303/54
f 205/302/53 202/886/53 204/301/53
f 210/305/55 211/887/55 214/306/55
f 212/306/55 211/888/55 210/305/55
f 208/243/56 213/312/56 211/309/56
f 209/243/56 214/310/56 211/311/56
f 219/313/57 220/316/57 223/314/57
f 216/315/57 221/314/57 220/316/57
f 222/317/58 220/316/58 221/314/58
f 218/234/58 223/314/58 220/316/58
f 224/318/59 228/322/59 229/319/59
f 230/321/60 229/319/60 228/322/60
f 231/322/60 229/319/60 230/321/60
f 227/318/59 232/320/59 229/319/59
f 233/246/141 237/326/141 238/323/141
f 239/325/142 238/889/142 237/326/142
f 235/240/143 240/330/143 238/327/143
f 241/329/144 238/890/144 240/330/144
f 246/332/57 247/369/57 250/333/57
f 248/335/58 247/369/58 246/332/58
f 249/336/58 247/369/58 248/335/58
f 250/333/57 247/369/57 249/336/57
f 255/337/53 256/353/53 259/338/53
f 257/339/54 256/891/54 255/340/54
f 258/341/54 256/354/54 257/339/54
f 259/338/53 256/892/53 258/342/53
f 264/343/145 265/345/145 268/344/145
f 261/242/146 266/347/146 265/345/146
f 267/346/147 265/345/147 266/347/147
f 263/348/148 268/344/148 265/345/148
f 273/349/54 274/341/54 277/350/54
f 275/351/53 274/893/53 273/352/53
f 276/353/53 274/342/53 275/351/53
f 277/350/54 274/894/54 276/354/54
f 282/355/149 283/357/149 286/356/149
f 279/235/150 284/359/150 283/357/150
f 285/358/151 283/357/151 284/359/151
f 286/356/152 283/357/152 285/358/152
f 291/361/153 292/328/153 295/362/153
f 293/364/154 292/388/154 291/365/154
f 289/366/155 294/389/155 292/367/155
f 295/362/156 292/895/156 294/368/156
f 300/369/57 301/896/57 304/370/57
f 302/372/58 301/896/58 300/369/58
f 303/373/58 301/896/58 302/372/58
f 304/370/57 301/896/57 303/373/57
f 305/247/157 308/279/157 309/374/157
f 306/233/158 310/283/158 309/375/158
f 311/281/159 309/278/159 310/280/159
f 312/228/160 315/285/160 316/377/160
f 313/289/161 317/286/161 316/379/161
f 318/287/162 316/897/162 317/286/162
f 319/231/163 322/292/163 323/381/163
f 320/251/164 324/293/164 323/381/164
f 325/294/165 323/381/165 324/293/165
f 326/230/166 329/296/166 330/383/166
f 331/299/167 330/383/167 329/298/167
f 328/273/168 332/297/168 330/383/168
f 333/272/169 337/324/169 338/384/169
f 339/330/170 338/327/170 337/329/170
f 335/240/171 340/328/171 338/385/171
f 341/326/172 338/323/172 340/325/172
f 346/333/57 347/369/57 350/386/57
f 348/336/57 347/369/57 346/333/57
f 349/335/58 347/369/58 348/336/58
f 350/386/58 347/369/58 349/335/58
f 355/338/53 356/892/53 359/337/53
f 357/342/53 356/353/53 355/338/53
f 358/339/54 356/891/54 357/341/54
f 359/340/54 356/354/54 358/339/54
f 364/344/173 365/345/173 368/343/173
f 361/348/174 366/346/174 365/345/174
f 367/347/175 365/345/175 366/346/175
f 363/271/176 368/343/176 365/345/176
f 373/350/54 374/894/54 377/349/54
f 375/354/54 374/341/54 373/350/54
f 376/351/53 374/893/53 375/353/53
f 377/352/53 374/342/53 376/351/53
f 382/356/177 383/387/177 386/355/177
f 384/358/178 383/387/178 382/356/178
f 385/359/179 383/387/179 384/358/179
f 381/235/180 386/355/180 383/387/180
f 391/362/181 392/895/181 395/361/181
f 393/368/182 392/898/182 391/362/182
f 389/366/183 394/364/183 392/388/183
f 395/390/184 392/325/184 394/364/184
f 400/370/57 401/896/57 404/369/57
f 402/373/57 401/896/57 400/370/57
f 403/372/58 401/896/58 402/373/58
f 404/369/58 401/896/58 403/372/58
f 176/228/55 182/285/55 241/329/55
f 182/380/56 178/289/56 233/246/56
f 170/258/101 172/281/101 181/286/101
f 172/281/102 169/247/102 178/289/102
f 171/233/103 174/283/103 186/382/103
f 174/280/104 170/258/104 184/256/104
f 190/230/105 196/296/105 179/378/105
f 196/298/106 192/300/106 177/288/106
f 185/251/107 188/293/107 195/299/107
f 188/293/108 184/256/108 192/300/108
f 183/231/57 189/292/57 246/332/57
f 189/292/58 185/251/58 243/250/58
f 198/275/54 201/304/54 273/349/54
f 201/301/53 197/245/53 270/244/53
f 225/266/60 228/322/60 282/355/60
f 228/322/59 224/318/59 279/235/59
f 226/268/31 230/321/31 210/305/31
f 230/321/31 225/266/31 207/308/31
f 199/237/34 203/303/34 219/313/34
f 203/303/34 198/275/34 216/315/34
f 218/234/37 222/317/37 232/320/37
f 222/317/37 217/270/37 224/318/37
f 197/245/35 205/302/35 213/312/35
f 205/302/35 200/245/35 209/243/35
f 235/240/109 239/328/109 291/361/109
f 239/325/110 234/263/110 288/277/110
f 245/252/55 249/336/55 300/369/55
f 249/336/56 244/261/56 297/260/56
f 252/232/54 255/340/54 175/376/54
f 255/337/53 251/248/53 169/247/53
f 260/229/60 268/344/60 193/297/60
f 268/344/59 263/348/59 191/249/59
f 262/259/37 244/261/37 248/335/37
f 267/346/37 248/335/37 243/250/37
f 253/254/34 257/339/34 250/333/34
f 257/339/34 252/232/34 242/334/34
f 261/242/111 264/343/111 240/330/111
f 264/343/112 260/229/112 236/331/112
f 251/248/35 259/338/35 237/326/35
f 259/338/35 254/264/35 234/263/35
f 272/253/60 276/354/60 258/341/60
f 276/353/59 271/262/59 254/264/59
f 261/242/113 281/241/113 285/358/113
f 266/347/114 285/358/114 280/360/114
f 290/265/55 294/368/55 212/306/55
f 294/389/56 289/366/56 208/243/56
f 299/238/57 303/373/57 221/314/57
f 303/373/58 298/236/58 217/270/58
f 271/262/35 275/351/35 293/364/35
f 275/351/35 270/244/35 289/366/35
f 279/235/37 298/236/37 302/372/37
f 284/359/37 302/372/37 297/260/37
f 269/276/34 277/350/34 304/370/34
f 277/350/34 272/253/34 296/371/34
f 278/267/112 286/356/112 295/362/112
f 286/356/111 281/241/111 287/363/111
f 313/289/56 315/380/56 337/324/56
f 315/285/55 312/228/55 334/331/55
f 305/247/115 311/281/115 317/286/115
f 311/281/116 307/258/116 314/257/116
f 307/258/117 310/280/117 325/294/117
f 310/283/118 306/233/118 319/231/118
f 327/300/119 329/298/119 318/287/119
f 329/296/120 326/230/120 312/228/120
f 321/256/121 324/293/121 331/299/121
f 324/293/122 320/251/122 328/273/122
f 320/251/58 322/292/58 350/386/58
f 322/292/57 319/231/57 342/334/57
f 200/245/53 204/301/53 377/352/53
f 204/304/54 199/237/54 369/239/54
f 227/318/59 231/322/59 386/355/59
f 231/322/60 226/268/60 378/269/60
f 390/277/123 336/263/123 340/325/123
f 395/361/124 340/328/124 335/240/124
f 344/261/56 348/336/56 404/369/56
f 348/336/55 343/274/55 396/371/55
f 351/248/53 359/337/53 308/279/53
f 359/340/54 354/232/54 306/233/54
f 361/348/59 364/344/59 332/297/59
f 364/344/60 360/229/60 326/230/60
f 345/250/37 349/335/37 366/346/37
f 349/335/37 344/261/37 362/259/37
f 354/232/34 358/339/34 346/333/34
f 358/339/34 353/254/34 343/274/34
f 360/229/125 368/343/125 339/330/125
f 368/343/126 363/271/126 335/240/126
f 336/263/35 352/264/35 355/338/35
f 341/326/35 355/338/35 351/248/35
f 371/262/59 375/353/59 357/342/59
f 375/354/60 370/253/60 353/254/60
f 380/360/127 384/358/127 367/347/127
f 384/358/128 379/241/128 363/271/128
f 389/366/56 393/389/56 214/310/56
f 393/368/55 388/265/55 206/307/55
f 398/236/58 402/373/58 223/314/58
f 402/373/57 397/238/57 215/315/57
f 389/366/35 372/255/35 376/351/35
f 394/364/35 376/351/35 371/262/35
f 399/260/37 403/372/37 385/359/37
f 403/372/37 398/236/37 381/235/37
f 370/253/34 373/350/34 400/370/34
f 373/350/34 369/239/34 397/238/34
f 379/241/126 382/356/126 391/362/126
f 382/356/125 378/269/125 388/265/125
f 177/288/36 192/300/36 184/256/36
f 406/391/35 408/394/35 407/392/35
f 408/394/36 412/396/36 411/395/36
f 412/396/37 410/398/37 409/397/37
f 410/398/38 406/899/38 405/399/38
f 411/395/34 409/397/34 405/400/34
f 408/402/31 406/900/31 410/398/31
f 414/403/35 416/406/35 415/404/35
f 416/406/36 420/408/36 419/407/36
f 420/408/37 418/410/37 417/409/37
f 418/410/38 414/901/38 413/411/38
f 419/407/34 417/409/34 413/412/34
f 416/414/31 414/902/31 418/410/31
f 422/415/35 424/418/35 423/416/35
f 424/418/36 428/420/36 427/419/36
f 428/420/37 426/422/37 425/421/37
f 426/422/38 422/903/38 421/423/38
f 427/419/34 425/421/34 421/424/34
f 424/426/31 422/904/31 426/422/31
f 430/427/35 432/430/35 431/428/35
f 432/430/36 436/432/36 435/431/36
f 436/432/37 434/434/37 433/433/37
f 434/434/38 430/905/38 429/435/38
f 435/431/34 433/433/34 429/436/34
f 432/438/31 430/906/31 434/434/31
f 438/439/35 440/442/35 439/440/35
f 440/442/36 444/444/36 443/443/36
f 444/444/37 442/446/37 441/445/37
f 442/446/38 438/907/38 437/447/38
f 443/443/34 441/445/34 437/448/34
f 440/450/31 438/908/31 442/446/31
f 446/451/35 448/454/35 447/452/35
f 448/454/36 452/456/36 451/455/36
f 452/456/37 450/458/37 449/457/37
f 450/458/38 446/909/38 445/459/38
f 451/455/34 449/457/34 445/460/34
f 448/462/31 446/910/31 450/458/31
f 454/463/35 456/466/35 455/464/35
f 456/466/36 460/468/36 459/467/36
f 460/468/37 458/470/37 457/469/37
f 458/470/38 454/911/38 453/471/38
f 459/467/34 457/469/34 453/472/34
f 456/474/31 454/912/31 458/470/31
f 462/475/35 464/478/35 463/476/35
f 464/478/36 468/480/36 467/479/36
f 468/480/37 466/482/37 465/481/37
f 466/482/38 462/913/38 461/483/38
f 467/479/34 465/481/34 461/484/34
f 464/486/31 462/914/31 466/482/31
f 470/487/35 472/490/35 471/488/35
f 472/490/36 476/492/36 475/491/36
f 476/492/37 474/494/37 473/493/37
f 474/494/38 470/915/38 469/495/38
f 475/491/34 473/493/34 469/496/34
f 472/498/31 470/916/31 474/494/31
f 478/499/35 480/502/35 479/500/35
f 480/502/36 484/504/36 483/503/36
f 484/504/37 482/506/37 481/505/37
f 482/506/38 478/917/38 477/507/38
f 483/503/34 481/505/34 477/508/34
f 480/510/31 478/918/31 482/506/31
f 486/511/35 488/514/35 487/512/35
f 488/514/36 492/516/36 491/515/36
f 492/516/37 490/518/37 489/517/37
f 490/518/38 486/919/38 485/519/38
f 491/515/34 489/517/34 485/520/34
f 488/522/31 486/920/31 490/518/31
f 494/523/35 496/526/35 495/524/35
f 496/526/36 500/528/36 499/527/36
f 500/528/37 498/530/37 497/529/37
f 498/530/38 494/921/38 493/531/38
f 499/527/34 497/529/34 493/532/34
f 496/534/31 494/922/31 498/530/31
f 502/535/35 504/538/35 503/536/35
f 504/538/36 508/540/36 507/539/36
f 508/540/37 506/542/37 505/541/37
f 506/542/38 502/923/38 501/543/38
f 507/539/34 505/541/34 501/544/34
f 504/546/31 502/924/31 506/542/31
f 510/547/35 512/550/35 511/548/35
f 512/550/36 516/552/36 515/551/36
f 516/552/37 514/554/37 513/553/37
f 514/554/38 510/925/38 509/555/38
f 515/551/34 513/553/34 509/556/34
f 512/558/31 510/926/31 514/554/31
f 518/559/35 520/562/35 519/560/35
f 520/562/36 524/564/36 523/563/36
f 524/564/37 522/566/37 521/565/37
f 522/566/38 518/927/38 517/567/38
f 523/563/34 521/565/34 517/568/34
f 520/570/31 518/928/31 522/566/31
f 526/571/35 528/574/35 527/572/35
f 528/574/36 532/576/36 531/575/36
f 532/576/37 530/578/37 529/577/37
f 530/578/38 526/929/38 525/579/38
f 531/575/34 529/577/34 525/580/34
f 528/582/31 526/930/31 530/578/31
f 534/583/35 536/586/35 535/584/35
f 536/586/36 540/588/36 539/587/36
f 540/588/37 538/590/37 537/589/37
f 538/590/38 534/931/38 533/591/38
f 539/587/34 537/589/34 533/592/34
f 536/594/31 534/932/31 538/590/31
f 542/595/35 544/598/35 543/596/35
f 544/598/36 548/600/36 547/599/36
f 548/600/37 546/602/37 545/601/37
f 546/602/38 542/933/38 541/603/38
f 547/599/34 545/601/34 541/604/34
f 544/606/31 542/934/31 546/602/31
f 550/607/35 552/610/35 551/608/35
f 552/610/36 556/612/36 555/611/36
f 556/612/37 554/614/37 553/613/37
f 554/614/38 550/935/38 549/615/38
f 555/611/34 553/613/34 549/616/34
f 552/618/31 550/936/31 554/614/31
f 558/619/35 560/622/35 559/620/35
f 560/622/36 564/624/36 563/623/36
f 564/624/37 562/626/37 561/625/37
f 562/626/38 558/937/38 557/627/38
f 563/623/34 561/625/34 557/628/34
f 560/630/31 558/938/31 562/626/31
f 566/631/35 568/634/35 567/632/35
f 568/634/36 572/636/36 571/635/36
f 572/636/37 570/638/37 569/637/37
f 570/638/38 566/939/38 565/639/38
f 571/635/34 569/637/34 565/640/34
f 568/642/31 566/940/31 570/638/31
f 574/643/35 576/646/35 575/644/35
f 576/646/36 580/648/36 579/647/36
f 580/648/37 578/650/37 577/649/37
f 578/650/38 574/941/38 573/651/38
f 581/653/34 583/654/34 573/942/34
f 579/647/34 577/649/34 584/655/34
f 579/647/34 584/655/34 582/943/34
f 581/653/34 573/942/34 575/652/34
f 579/647/34 582/943/34 581/653/34
f 577/649/34 573/942/34 583/654/34
f 587/656/31 574/944/31 578/650/31
f 585/659/31 588/657/31 578/650/31
f 576/658/31 574/944/31 587/656/31
f 576/658/31 587/656/31 586/945/31
f 585/659/31 578/650/31 580/648/31
f 576/658/31 586/945/31 585/659/31
f 583/660/37 581/663/37 586/661/37
f 581/663/38 582/666/38 585/664/38
f 584/665/35 588/668/35 585/664/35
f 583/667/36 587/946/36 588/668/36
f 590/669/35 592/672/35 591/670/35
f 592/672/36 596/674/36 595/673/36
f 596/674/37 594/676/37 593/675/37
f 594/676/38 590/947/38 589/677/38
f 597/679/34 599/680/34 589/948/34
f 595/673/34 593/675/34 600/681/34
f 595/673/34 600/681/34 598/949/34
f 597/679/34 589/948/34 591/678/34
f 595/673/34 598/949/34 597/679/34
f 593/675/34 589/948/34 599/680/34
f 603/682/31 590/950/31 594/676/31
f 601/685/31 604/683/31 594/676/31
f 592/684/31 590/950/31 603/682/31
f 592/684/31 603/682/31 602/951/31
f 601/685/31 594/676/31 596/674/31
f 592/684/31 602/951/31 601/685/31
f 599/686/37 597/689/37 602/687/37
f 597/689/38 598/692/38 601/690/38
f 600/691/35 604/694/35 601/690/35
f 599/693/36 603/952/36 604/694/36
f 606/695/35 608/698/35 607/696/35
f 608/698/36 612/700/36 611/699/36
f 612/700/37 610/702/37 609/701/37
f 610/702/38 606/953/38 605/703/38
f 613/705/34 615/706/34 605/954/34
f 611/699/34 609/701/34 616/707/34
f 611/699/34 616/707/34 614/955/34
f 613/705/34 605/954/34 607/704/34
f 611/699/34 614/955/34 613/705/34
f 609/701/34 605/954/34 615/706/34
f 619/708/31 606/956/31 610/702/31
f 617/711/31 620/709/31 610/702/31
f 608/710/31 606/956/31 619/708/31
f 608/710/31 619/708/31 618/957/31
f 617/711/31 610/702/31 612/700/31
f 608/710/31 618/957/31 617/711/31
f 615/712/37 613/715/37 618/713/37
f 613/715/38 614/718/38 617/716/38
f 616/717/35 620/720/35 617/716/35
f 615/719/36 619/958/36 620/720/36
f 622/721/35 624/724/35 623/722/35
f 624/724/36 628/726/36 627/725/36
f 628/726/37 626/728/37 625/727/37
f 626/728/38 622/959/38 621/729/38
f 629/731/34 631/732/34 621/960/34
f 627/725/34 625/727/34 632/733/34
f 627/725/34 632/733/34 630/961/34
f 629/731/34 621/960/34 623/730/34
f 627/725/34 630/961/34 629/731/34
f 625/727/34 621/960/34 631/732/34
f 635/734/31 622/962/31 626/728/31
f 633/737/31 636/735/31 626/728/31
f 624/736/31 622/962/31 635/734/31
f 624/736/31 635/734/31 634/963/31
f 633/737/31 626/728/31 628/726/31
f 624/736/31 634/963/31 633/737/31
f 631/738/37 629/741/37 634/739/37
f 629/741/38 630/744/38 633/742/38
f 632/743/35 636/746/35 633/742/35
f 631/745/36 635/964/36 636/746/36
f 638/747/35 640/750/35 639/748/35
f 640/750/36 644/752/36 643/751/36
f 644/752/37 642/754/37 641/753/37
f 642/754/38 638/965/38 637/755/38
f 645/757/34 647/758/34 637/966/34
f 643/751/34 641/753/34 648/759/34
f 643/751/34 648/759/34 646/967/34
f 645/757/34 637/966/34 639/756/34
f 643/751/34 646/967/34 645/757/34
f 641/753/34 637/966/34 647/758/34
f 651/760/31 638/968/31 642/754/31
f 649/763/31 652/761/31 642/754/31
f 640/762/31 638/968/31 651/760/31
f 640/762/31 651/760/31 650/969/31
f 649/763/31 642/754/31 644/752/31
f 640/762/31 650/969/31 649/763/31
f 647/764/37 645/767/37 650/765/37
f 645/767/38 646/770/38 649/768/38
f 648/769/35 652/772/35 649/768/35
f 647/771/36 651/970/36 652/772/36
f 654/773/35 656/776/35 655/774/35
f 656/776/36 660/778/36 659/777/36
f 660/778/37 658/780/37 657/779/37
f 658/780/38 654/971/38 653/781/38
f 659/777/34 657/779/34 653/782/34
f 656/784/31 654/972/31 658/780/31
f 662/785/35 664/788/35 663/786/35
f 664/788/36 668/790/36 667/789/36
f 668/790/37 666/792/37 665/791/37
f 666/792/38 662/973/38 661/793/38
f 667/789/34 665/791/34 661/794/34
f 664/796/31 662/974/31 666/792/31
