# Blender 4.4.0
# www.blender.org
mtllib torus.mtl
o トーラス.001
v 1.000000 0.000000 0.000000
v 0.965451 0.047553 0.000000
v 0.909549 0.029389 0.000000
v 0.909549 -0.029389 0.000000
v 0.965451 -0.047553 0.000000
v 0.923880 0.000000 -0.382683
v 0.891960 0.047553 -0.369462
v 0.840314 0.029389 -0.348069
v 0.840314 -0.029389 -0.348069
v 0.891960 -0.047553 -0.369462
v 0.707107 0.000000 -0.707107
v 0.682677 0.047553 -0.682677
v 0.643148 0.029389 -0.643148
v 0.643148 -0.029389 -0.643148
v 0.682677 -0.047553 -0.682677
v 0.382684 0.000000 -0.923879
v 0.369462 0.047553 -0.891960
v 0.348070 0.029389 -0.840314
v 0.348070 -0.029389 -0.840314
v 0.369462 -0.047553 -0.891960
v 0.000000 0.000000 -1.000000
v 0.000000 0.047553 -0.965451
v 0.000000 0.029389 -0.909549
v 0.000000 -0.029389 -0.909549
v 0.000000 -0.047553 -0.965451
v -0.382684 0.000000 -0.923880
v -0.369462 0.047553 -0.891960
v -0.348069 0.029389 -0.840314
v -0.348069 -0.029389 -0.840314
v -0.369462 -0.047553 -0.891960
v -0.707107 0.000000 -0.707107
v -0.682677 0.047553 -0.682677
v -0.643148 0.029389 -0.643148
v -0.643148 -0.029389 -0.643148
v -0.682677 -0.047553 -0.682677
v -0.923880 0.000000 -0.382683
v -0.891960 0.047553 -0.369462
v -0.840314 0.029389 -0.348069
v -0.840314 -0.029389 -0.348069
v -0.891960 -0.047553 -0.369462
v -1.000000 0.000000 -0.000000
v -0.965451 0.047553 -0.000000
v -0.909549 0.029389 -0.000000
v -0.909549 -0.029389 -0.000000
v -0.965451 -0.047553 -0.000000
v -0.923880 0.000000 0.382683
v -0.891960 0.047553 0.369462
v -0.840314 0.029389 0.348069
v -0.840314 -0.029389 0.348069
v -0.891960 -0.047553 0.369462
v -0.707107 0.000000 0.707107
v -0.682677 0.047553 0.682677
v -0.643148 0.029389 0.643148
v -0.643148 -0.029389 0.643148
v -0.682677 -0.047553 0.682677
v -0.382684 0.000000 0.923880
v -0.369462 0.047553 0.891960
v -0.348069 0.029389 0.840314
v -0.348069 -0.029389 0.840314
v -0.369462 -0.047553 0.891960
v 0.000000 0.000000 1.000000
v 0.000000 0.047553 0.965451
v 0.000000 0.029389 0.909549
v 0.000000 -0.029389 0.909549
v 0.000000 -0.047553 0.965451
v 0.382684 0.000000 0.923879
v 0.369462 0.047553 0.891960
v 0.348070 0.029389 0.840314
v 0.348070 -0.029389 0.840314
v 0.369462 -0.047553 0.891960
v 0.707106 0.000000 0.707107
v 0.682676 0.047553 0.682677
v 0.643148 0.029389 0.643149
v 0.643148 -0.029389 0.643149
v 0.682676 -0.047553 0.682677
v 0.923879 0.000000 0.382684
v 0.891960 0.047553 0.369462
v 0.840314 0.029389 0.348070
v 0.840314 -0.029389 0.348070
v 0.891960 -0.047553 0.369462
vn 0.7987 0.5803 -0.1589
vn -0.3084 0.9493 0.0614
vn -0.9808 -0.0000 0.1951
vn -0.3084 -0.9493 0.0614
vn 0.7987 -0.5803 -0.1589
vn 0.6771 0.5803 -0.4525
vn -0.2615 0.9493 0.1747
vn -0.8315 -0.0000 0.5556
vn -0.2615 -0.9493 0.1747
vn 0.6771 -0.5803 -0.4525
vn 0.4525 0.5803 -0.6771
vn -0.1747 0.9493 0.2615
vn -0.5556 -0.0000 0.8315
vn -0.1747 -0.9493 0.2615
vn 0.4524 -0.5803 -0.6771
vn 0.1589 0.5803 -0.7987
vn -0.0614 0.9493 0.3084
vn -0.1951 -0.0000 0.9808
vn -0.0614 -0.9493 0.3084
vn 0.1589 -0.5803 -0.7987
vn -0.1589 0.5803 -0.7987
vn 0.0614 0.9493 0.3084
vn 0.1951 -0.0000 0.9808
vn 0.0614 -0.9493 0.3084
vn -0.1589 -0.5803 -0.7987
vn -0.4525 0.5803 -0.6771
vn 0.1747 0.9493 0.2615
vn 0.5556 -0.0000 0.8315
vn 0.1747 -0.9493 0.2615
vn -0.4524 -0.5803 -0.6771
vn -0.6771 0.5803 -0.4524
vn 0.2615 0.9493 0.1747
vn 0.8315 -0.0000 0.5556
vn 0.2615 -0.9493 0.1747
vn -0.6771 -0.5803 -0.4524
vn -0.7987 0.5803 -0.1589
vn 0.3084 0.9493 0.0614
vn 0.9808 -0.0000 0.1951
vn 0.3084 -0.9493 0.0614
vn -0.7987 -0.5803 -0.1589
vn -0.7987 0.5803 0.1589
vn 0.3084 0.9493 -0.0614
vn 0.9808 -0.0000 -0.1951
vn 0.3084 -0.9493 -0.0614
vn -0.7987 -0.5803 0.1589
vn -0.6771 0.5803 0.4524
vn 0.2615 0.9493 -0.1747
vn 0.8315 -0.0000 -0.5556
vn 0.2615 -0.9493 -0.1747
vn -0.6771 -0.5803 0.4524
vn -0.4525 0.5803 0.6771
vn 0.1747 0.9493 -0.2615
vn 0.5556 -0.0000 -0.8315
vn 0.1747 -0.9493 -0.2615
vn -0.4525 -0.5803 0.6771
vn -0.1589 0.5803 0.7987
vn 0.0614 0.9493 -0.3084
vn 0.1951 -0.0000 -0.9808
vn 0.0614 -0.9493 -0.3084
vn -0.1589 -0.5803 0.7987
vn 0.1589 0.5803 0.7987
vn -0.0614 0.9493 -0.3084
vn -0.1951 -0.0000 -0.9808
vn -0.0614 -0.9493 -0.3084
vn 0.1589 -0.5803 0.7987
vn 0.4524 0.5803 0.6771
vn -0.1747 0.9493 -0.2615
vn -0.5556 -0.0000 -0.8315
vn -0.1747 -0.9493 -0.2615
vn 0.4524 -0.5803 0.6771
vn 0.6771 0.5803 0.4525
vn -0.2615 0.9493 -0.1747
vn -0.8315 -0.0000 -0.5556
vn -0.2615 -0.9493 -0.1747
vn 0.6771 -0.5803 0.4525
vn 0.7987 0.5803 0.1589
vn -0.3084 0.9493 -0.0614
vn -0.9808 -0.0000 -0.1951
vn -0.3084 -0.9493 -0.0614
vn 0.7987 -0.5803 0.1589
vn 0.4524 0.5803 -0.6771
vn 0.4525 -0.5803 -0.6771
vn -0.4525 -0.5803 -0.6771
vn -0.6771 0.5803 -0.4525
vn -0.6771 -0.5803 -0.4525
vn -0.6771 0.5803 0.4525
vn -0.6771 -0.5803 0.4525
vn -0.4524 -0.5803 0.6771
vn 0.4525 0.5803 0.6771
vn 0.4525 -0.5803 0.6771
vt 0.562500 0.600000
vt 0.500000 0.800000
vt 0.500000 0.600000
vt 0.562500 1.000000
vt 0.500000 1.000000
vt 0.562500 0.000000
vt 0.500000 0.200000
vt 0.500000 0.000000
vt 0.562500 0.200000
vt 0.500000 0.400000
vt 0.625000 0.600000
vt 0.562500 0.800000
vt 0.625000 1.000000
vt 0.625000 0.000000
vt 0.625000 0.200000
vt 0.562500 0.400000
vt 0.687500 0.600000
vt 0.625000 0.800000
vt 0.687500 1.000000
vt 0.687500 0.000000
vt 0.687500 0.200000
vt 0.625000 0.400000
vt 0.687500 0.400000
vt 0.750000 0.600000
vt 0.687500 0.800000
vt 0.750000 0.800000
vt 0.750000 0.000000
vt 0.750000 0.200000
vt 0.750000 0.400000
vt 0.812500 0.600000
vt 0.812500 0.800000
vt 0.750000 1.000000
vt 0.812500 0.000000
vt 0.812500 0.400000
vt 0.875000 0.600000
vt 0.875000 0.800000
vt 0.812500 1.000000
vt 0.875000 0.000000
vt 0.812500 0.200000
vt 0.875000 0.200000
vt 0.937500 0.600000
vt 0.937500 1.000000
vt 0.875000 1.000000
vt 0.937500 0.000000
vt 0.937500 0.200000
vt 0.875000 0.400000
vt 1.000000 0.600000
vt 0.937500 0.800000
vt 1.000000 1.000000
vt 1.000000 0.000000
vt 1.000000 0.200000
vt 0.937500 0.400000
vt 1.000000 0.400000
vt 0.062500 0.600000
vt 0.000000 0.800000
vt 0.000000 0.600000
vt 0.062500 1.000000
vt 0.000000 1.000000
vt 0.062500 0.000000
vt 0.000000 0.200000
vt 0.000000 0.000000
vt 0.062500 0.200000
vt 0.000000 0.400000
vt 0.062500 0.400000
vt 0.125000 0.600000
vt 0.062500 0.800000
vt 0.125000 0.800000
vt 0.125000 0.000000
vt 0.125000 0.200000
vt 0.125000 0.400000
vt 0.187500 0.800000
vt 0.125000 1.000000
vt 0.187500 0.000000
vt 0.187500 0.200000
vt 0.187500 0.400000
vt 0.187500 0.600000
vt 0.250000 0.800000
vt 0.250000 1.000000
vt 0.187500 1.000000
vt 0.250000 0.000000
vt 0.250000 0.200000
vt 0.250000 0.400000
vt 0.312500 0.600000
vt 0.250000 0.600000
vt 0.312500 0.800000
vt 0.312500 0.000000
vt 0.312500 0.200000
vt 0.312500 0.400000
vt 0.375000 0.600000
vt 0.375000 1.000000
vt 0.312500 1.000000
vt 0.375000 0.000000
vt 0.375000 0.200000
vt 0.437500 0.600000
vt 0.375000 0.800000
vt 0.437500 1.000000
vt 0.437500 0.000000
vt 0.437500 0.200000
vt 0.375000 0.400000
vt 0.437500 0.400000
vt 0.437500 0.800000
vt 1.000000 0.800000
s 0
f 6/1/1 2/2/1 1/3/1
f 2/2/2 8/4/2 3/5/2
f 8/6/3 4/7/3 3/8/3
f 9/9/4 5/10/4 4/7/4
f 5/10/5 6/1/5 1/3/5
f 11/11/6 7/12/6 6/1/6
f 7/12/7 13/13/7 8/4/7
f 13/14/8 9/9/8 8/6/8
f 14/15/9 10/16/9 9/9/9
f 10/16/10 11/11/10 6/1/10
f 16/17/11 12/18/11 11/11/11
f 12/18/12 18/19/12 13/13/12
f 18/20/13 14/15/13 13/14/13
f 19/21/14 15/22/14 14/15/14
f 20/23/15 11/11/15 15/22/15
f 21/24/16 17/25/16 16/17/16
f 22/26/17 18/19/17 17/25/17
f 23/27/18 19/21/18 18/20/18
f 24/28/19 20/23/19 19/21/19
f 25/29/20 16/17/20 20/23/20
f 26/30/21 22/26/21 21/24/21
f 27/31/22 23/32/22 22/26/22
f 28/33/23 24/28/23 23/27/23
f 24/28/24 30/34/24 25/29/24
f 25/29/25 26/30/25 21/24/25
f 31/35/26 27/31/26 26/30/26
f 32/36/27 28/37/27 27/31/27
f 33/38/28 29/39/28 28/33/28
f 34/40/29 30/34/29 29/39/29
f 30/34/30 31/35/30 26/30/30
f 36/41/31 32/36/31 31/35/31
f 32/36/32 38/42/32 33/43/32
f 38/44/33 34/40/33 33/38/33
f 39/45/34 35/46/34 34/40/34
f 35/46/35 36/41/35 31/35/35
f 41/47/36 37/48/36 36/41/36
f 37/48/37 43/49/37 38/42/37
f 43/50/38 39/45/38 38/44/38
f 44/51/39 40/52/39 39/45/39
f 45/53/40 36/41/40 40/52/40
f 46/54/41 42/55/41 41/56/41
f 42/55/42 48/57/42 43/58/42
f 48/59/43 44/60/43 43/61/43
f 49/62/44 45/63/44 44/60/44
f 50/64/45 41/56/45 45/63/45
f 51/65/46 47/66/46 46/54/46
f 52/67/47 48/57/47 47/66/47
f 53/68/48 49/62/48 48/59/48
f 54/69/49 50/64/49 49/62/49
f 55/70/50 46/54/50 50/64/50
f 51/65/51 57/71/51 52/67/51
f 57/71/52 53/72/52 52/67/52
f 58/73/53 54/69/53 53/68/53
f 59/74/54 55/70/54 54/69/54
f 60/75/55 51/65/55 55/70/55
f 56/76/56 62/77/56 57/71/56
f 57/71/57 63/78/57 58/79/57
f 63/80/58 59/74/58 58/73/58
f 64/81/59 60/75/59 59/74/59
f 65/82/60 56/76/60 60/75/60
f 66/83/61 62/77/61 61/84/61
f 67/85/62 63/78/62 62/77/62
f 68/86/63 64/81/63 63/80/63
f 69/87/64 65/82/64 64/81/64
f 70/88/65 61/84/65 65/82/65
f 71/89/66 67/85/66 66/83/66
f 67/85/67 73/90/67 68/91/67
f 73/92/68 69/87/68 68/86/68
f 74/93/69 70/88/69 69/87/69
f 70/88/70 71/89/70 66/83/70
f 76/94/71 72/95/71 71/89/71
f 72/95/72 78/96/72 73/90/72
f 78/97/73 74/93/73 73/92/73
f 79/98/74 75/99/74 74/93/74
f 80/100/75 71/89/75 75/99/75
f 1/3/76 77/101/76 76/94/76
f 2/2/77 78/96/77 77/101/77
f 3/8/78 79/98/78 78/97/78
f 4/7/79 80/100/79 79/98/79
f 5/10/80 76/94/80 80/100/80
f 6/1/1 7/12/1 2/2/1
f 2/2/2 7/12/2 8/4/2
f 8/6/3 9/9/3 4/7/3
f 9/9/4 10/16/4 5/10/4
f 5/10/5 10/16/5 6/1/5
f 11/11/6 12/18/6 7/12/6
f 7/12/7 12/18/7 13/13/7
f 13/14/8 14/15/8 9/9/8
f 14/15/9 15/22/9 10/16/9
f 10/16/10 15/22/10 11/11/10
f 16/17/81 17/25/81 12/18/81
f 12/18/12 17/25/12 18/19/12
f 18/20/13 19/21/13 14/15/13
f 19/21/14 20/23/14 15/22/14
f 20/23/82 16/17/82 11/11/82
f 21/24/16 22/26/16 17/25/16
f 22/26/17 23/32/17 18/19/17
f 23/27/18 24/28/18 19/21/18
f 24/28/19 25/29/19 20/23/19
f 25/29/20 21/24/20 16/17/20
f 26/30/21 27/31/21 22/26/21
f 27/31/22 28/37/22 23/32/22
f 28/33/23 29/39/23 24/28/23
f 24/28/24 29/39/24 30/34/24
f 25/29/25 30/34/25 26/30/25
f 31/35/26 32/36/26 27/31/26
f 32/36/27 33/43/27 28/37/27
f 33/38/28 34/40/28 29/39/28
f 34/40/29 35/46/29 30/34/29
f 30/34/83 35/46/83 31/35/83
f 36/41/84 37/48/84 32/36/84
f 32/36/32 37/48/32 38/42/32
f 38/44/33 39/45/33 34/40/33
f 39/45/34 40/52/34 35/46/34
f 35/46/85 40/52/85 36/41/85
f 41/47/36 42/102/36 37/48/36
f 37/48/37 42/102/37 43/49/37
f 43/50/38 44/51/38 39/45/38
f 44/51/39 45/53/39 40/52/39
f 45/53/40 41/47/40 36/41/40
f 46/54/41 47/66/41 42/55/41
f 42/55/42 47/66/42 48/57/42
f 48/59/43 49/62/43 44/60/43
f 49/62/44 50/64/44 45/63/44
f 50/64/45 46/54/45 41/56/45
f 51/65/86 52/67/86 47/66/86
f 52/67/47 53/72/47 48/57/47
f 53/68/48 54/69/48 49/62/48
f 54/69/49 55/70/49 50/64/49
f 55/70/87 51/65/87 46/54/87
f 51/65/51 56/76/51 57/71/51
f 57/71/52 58/79/52 53/72/52
f 58/73/53 59/74/53 54/69/53
f 59/74/54 60/75/54 55/70/54
f 60/75/88 56/76/88 51/65/88
f 56/76/56 61/84/56 62/77/56
f 57/71/57 62/77/57 63/78/57
f 63/80/58 64/81/58 59/74/58
f 64/81/59 65/82/59 60/75/59
f 65/82/60 61/84/60 56/76/60
f 66/83/61 67/85/61 62/77/61
f 67/85/62 68/91/62 63/78/62
f 68/86/63 69/87/63 64/81/63
f 69/87/64 70/88/64 65/82/64
f 70/88/65 66/83/65 61/84/65
f 71/89/89 72/95/89 67/85/89
f 67/85/67 72/95/67 73/90/67
f 73/92/68 74/93/68 69/87/68
f 74/93/69 75/99/69 70/88/69
f 70/88/90 75/99/90 71/89/90
f 76/94/71 77/101/71 72/95/71
f 72/95/72 77/101/72 78/96/72
f 78/97/73 79/98/73 74/93/73
f 79/98/74 80/100/74 75/99/74
f 80/100/75 76/94/75 71/89/75
f 1/3/76 2/2/76 77/101/76
f 2/2/77 3/5/77 78/96/77
f 3/8/78 4/7/78 79/98/78
f 4/7/79 5/10/79 80/100/79
f 5/10/80 1/3/80 76/94/80
