# Blender 4.4.0
# www.blender.org
mtllib drumCan.mtl
o 円柱.002
v -0.650000 1.964595 -0.195000
v -0.650000 2.015405 -0.195000
v -0.481125 1.964595 -0.097500
v -0.481125 2.015405 -0.097500
v -0.481125 1.964595 0.097500
v -0.481125 2.015405 0.097500
v -0.650000 1.964595 0.195000
v -0.650000 2.015405 0.195000
v -0.818875 1.964595 0.097500
v -0.818875 2.015405 0.097500
v -0.818875 1.964595 -0.097500
v -0.818875 2.015405 -0.097500
v -0.600251 2.015405 -0.120104
v -0.577776 2.015405 -0.108091
v -0.541909 2.015405 -0.072224
v -0.558076 2.015405 -0.091924
v -0.520000 2.015405 0.000000
v -0.522498 2.015405 0.025362
v -0.522498 2.015405 -0.025362
v -0.529896 2.015405 -0.049749
v -0.780000 2.015405 0.000000
v -0.777502 2.015405 0.025362
v -0.777502 2.015405 -0.025362
v -0.770104 2.015405 -0.049749
v -0.741924 2.015405 -0.091924
v -0.758091 2.015405 -0.072224
v -0.699749 2.015405 -0.120104
v -0.722224 2.015405 -0.108091
v -0.722224 2.015405 0.108091
v -0.675362 2.015405 0.127502
v -0.699749 2.015405 0.120104
v -0.624638 2.015405 0.127502
v -0.650000 2.015405 0.130000
v -0.577776 2.015405 0.108091
v -0.600251 2.015405 0.120104
v -0.758091 2.015405 0.072224
v -0.770104 2.015405 0.049749
v -0.650000 2.015405 -0.130000
v -0.675362 2.015405 -0.127502
v -0.741924 2.015405 0.091924
v -0.624638 2.015405 -0.127502
v -0.541909 2.015405 0.072224
v -0.529896 2.015405 0.049749
v -0.558076 2.015405 0.091924
v -0.722224 1.964595 -0.108091
v -0.675362 1.964595 -0.127502
v -0.699749 1.964595 -0.120104
v -0.624638 1.964595 -0.127502
v -0.600251 1.964595 -0.120104
v -0.577776 1.964595 -0.108091
v -0.650000 1.964595 -0.130000
v -0.600251 1.964595 0.120104
v -0.558076 1.964595 0.091924
v -0.577776 1.964595 0.108091
v -0.529896 1.964595 0.049749
v -0.520000 1.964595 0.000000
v -0.522498 1.964595 -0.025362
v -0.522498 1.964595 0.025362
v -0.541909 1.964595 0.072224
v -0.780000 1.964595 0.000000
v -0.770104 1.964595 0.049749
v -0.777502 1.964595 0.025362
v -0.777502 1.964595 -0.025362
v -0.741924 1.964595 0.091924
v -0.758091 1.964595 0.072224
v -0.699749 1.964595 0.120104
v -0.722224 1.964595 0.108091
v -0.758091 1.964595 -0.072224
v -0.770104 1.964595 -0.049749
v -0.675362 1.964595 0.127502
v -0.741924 1.964595 -0.091924
v -0.650000 1.964595 0.130000
v -0.624638 1.964595 0.127502
v -0.541909 1.964595 -0.072224
v -0.529896 1.964595 -0.049749
v -0.558076 1.964595 -0.091924
v 0.650000 1.964595 -0.225000
v 0.844856 1.964595 -0.112500
v 0.650000 2.015405 -0.225000
v 0.455144 1.964595 -0.112500
v 0.650000 1.964595 -0.150000
v 0.455144 2.015405 -0.112500
v 0.679264 1.964595 -0.147118
v 0.707402 1.964595 -0.138582
v 0.733335 1.964595 -0.124720
v 0.620736 1.964595 -0.147118
v 0.592598 1.964595 -0.138582
v 0.566665 1.964595 -0.124720
v 0.543934 1.964595 -0.106066
v 0.566665 2.015405 -0.124720
v 0.592598 2.015405 -0.138582
v 0.620736 2.015405 -0.147118
v 0.650000 2.015405 -0.150000
v 0.679264 2.015405 -0.147118
v 0.707402 2.015405 -0.138582
v 0.733335 2.015405 -0.124720
v 0.756066 2.015405 -0.106066
v 0.844856 2.015405 -0.112500
v 0.844856 2.015405 0.112500
v 0.844856 1.964595 0.112500
v 0.774721 2.015405 -0.083336
v 0.788582 2.015405 -0.057403
v 0.797118 2.015405 -0.029264
v 0.800000 2.015405 0.000000
v 0.797118 2.015405 0.029264
v 0.800000 1.964595 0.000000
v 0.797118 1.964595 0.029264
v 0.788582 1.964595 0.057403
v 0.774721 1.964595 0.083336
v 0.788582 2.015405 0.057403
v 0.774721 2.015405 0.083336
v 0.756066 2.015405 0.106066
v 0.756066 1.964595 0.106066
v 0.733335 1.964595 0.124720
v 0.707402 1.964595 0.138582
v 0.733335 2.015405 0.124720
v 0.650000 1.964595 0.225000
v 0.650000 2.015405 0.225000
v 0.455144 1.964595 0.112500
v 0.650000 1.964595 0.150000
v 0.679264 1.964595 0.147118
v 0.620736 1.964595 0.147118
v 0.592598 1.964595 0.138582
v 0.566665 1.964595 0.124720
v 0.543934 1.964595 0.106066
v 0.566665 2.015405 0.124720
v 0.592598 2.015405 0.138582
v 0.620736 2.015405 0.147118
v 0.650000 2.015405 0.150000
v 0.679264 2.015405 0.147118
v 0.707402 2.015405 0.138582
v 0.543934 2.015405 0.106066
v 0.455144 2.015405 0.112500
v 0.525280 2.015405 0.083336
v 0.511418 2.015405 0.057403
v 0.502882 2.015405 0.029264
v 0.500000 2.015405 0.000000
v 0.502882 2.015405 -0.029264
v 0.500000 1.964595 0.000000
v 0.502882 1.964595 0.029264
v 0.511418 1.964595 0.057403
v 0.525280 1.964595 0.083336
v 0.502882 1.964595 -0.029264
v 0.511418 1.964595 -0.057403
v 0.511418 2.015405 -0.057403
v 0.525280 2.015405 -0.083336
v 0.543934 2.015405 -0.106066
v 0.525280 1.964595 -0.083336
v 0.797118 1.964595 -0.029264
v 0.788582 1.964595 -0.057403
v 0.774721 1.964595 -0.083336
v 0.756066 1.964595 -0.106066
v -0.000000 -2.000000 -1.000000
v 0.195090 -2.000000 -0.980785
v -0.000000 -2.000000 -1.049328
v -0.195090 -2.000000 -0.980785
v 0.204714 -2.000000 -1.029165
v 0.204714 -1.903817 -1.029165
v 0.401560 -2.000000 -0.969452
v -0.000000 -1.903817 -1.049328
v 0.382683 -2.000000 -0.923880
v 0.555570 -2.000000 -0.831470
v 0.707107 -2.000000 -0.707107
v 0.582975 -2.000000 -0.872484
v 0.831470 -2.000000 -0.555570
v 0.741987 -2.000000 -0.741987
v 0.741987 -1.903817 -0.741987
v 0.872484 -2.000000 -0.582975
v 0.582975 -1.903817 -0.872484
v 0.401560 -1.903817 -0.969452
v 0.555570 -1.903817 -0.831470
v 0.382683 -1.903817 -0.923880
v 0.707107 -1.903817 -0.707107
v 0.555570 -0.675103 -0.831470
v 0.382683 -0.675103 -0.923880
v 0.394164 -0.631418 -0.951596
v 0.195090 -0.675103 -0.980785
v 0.572237 -0.631418 -0.856414
v 0.555570 -0.587733 -0.831470
v 0.728320 -0.631418 -0.728320
v 0.382683 -0.587733 -0.923880
v 0.195090 -0.587733 -0.980785
v 0.382683 0.000000 -0.923880
v 0.195090 0.000000 -0.980785
v -0.000000 0.000000 -1.000000
v 0.195090 0.587733 -0.980785
v 0.555570 0.000000 -0.831470
v -0.195090 0.000000 -0.980785
v 0.980785 0.000000 -0.195090
v 0.382683 0.587733 -0.923880
v 0.394164 0.631418 -0.951596
v 0.555570 0.587733 -0.831470
v 0.572237 0.631418 -0.856414
v 0.555570 0.675103 -0.831470
v 0.728320 0.631418 -0.728320
v 0.382683 0.675103 -0.923880
v 0.195090 0.675103 -0.980785
v 0.382683 1.903817 -0.923880
v 0.555570 1.903817 -0.831470
v 0.707107 1.903817 -0.707107
v 0.582975 1.903817 -0.872484
v 0.401560 1.903817 -0.969452
v 0.741987 1.903817 -0.741987
v 0.741987 2.000000 -0.741987
v 0.872484 1.903817 -0.582975
v 0.872484 2.000000 -0.582975
v 0.831470 1.903817 -0.555570
v 0.923880 1.903817 -0.382683
v 0.831470 0.675103 -0.555570
v 0.707107 0.675103 -0.707107
v 0.856414 0.631418 -0.572237
v 0.923880 0.675103 -0.382683
v 0.951596 0.631418 -0.394164
v 0.923880 0.587733 -0.382683
v 1.010209 0.631418 -0.200943
v 0.831470 0.587733 -0.555570
v 0.707107 0.587733 -0.707107
v 0.831470 0.000000 -0.555570
v 0.707107 0.000000 -0.707107
v 0.707107 -0.587733 -0.707107
v 0.831470 -0.587733 -0.555570
v 0.856414 -0.631418 -0.572237
v 0.923880 -0.587733 -0.382683
v 0.951596 -0.631418 -0.394164
v 0.923880 -0.675103 -0.382683
v 1.010209 -0.631418 -0.200943
v 0.831470 -0.675103 -0.555570
v 0.707107 -0.675103 -0.707107
v 0.831470 -1.903817 -0.555570
v 0.923880 -1.903817 -0.382683
v 0.980785 -1.903817 -0.195090
v 0.969453 -1.903817 -0.401560
v 0.872484 -1.903817 -0.582975
v 1.029165 -1.903817 -0.204714
v 1.029165 -2.000000 -0.204714
v 1.049328 -1.903817 0.000000
v 1.000000 -1.903817 0.000000
v 1.049328 -2.000000 0.000000
v 1.000000 -2.000000 0.000000
v 1.029165 -2.000000 0.204714
v 1.029165 -1.903817 0.204714
v 0.969453 -2.000000 0.401560
v 0.980785 -2.000000 0.195090
v 0.923880 -2.000000 0.382683
v 0.831470 -2.000000 0.555570
v 0.872484 -2.000000 0.582975
v 0.872484 -1.903817 0.582975
v 0.741987 -2.000000 0.741987
v 0.969453 -1.903817 0.401560
v 0.923880 -1.903817 0.382683
v 0.980785 -1.903817 0.195090
v 0.831470 -1.903817 0.555570
v 0.923880 -0.675103 0.382683
v 0.980785 -0.675103 0.195090
v 1.010209 -0.631418 0.200943
v 1.000000 -0.675103 0.000000
v 1.030000 -0.631418 0.000000
v 1.000000 -0.587733 0.000000
v 0.980785 -0.587733 -0.195090
v 0.980785 -0.675103 -0.195090
v 0.980785 -0.587733 0.195090
v 0.923880 -0.587733 0.382683
v 0.980785 0.000000 0.195090
v 1.000000 0.000000 0.000000
v 1.000000 0.587733 0.000000
v 0.980785 0.587733 0.195090
v 1.010209 0.631418 0.200943
v 0.923880 0.587733 0.382683
v 1.030000 0.631418 0.000000
v 1.000000 0.675103 0.000000
v 0.980785 0.587733 -0.195090
v 0.980785 0.675103 -0.195090
v 0.980785 0.675103 0.195090
v 0.923880 0.675103 0.382683
v 0.980785 1.903817 0.195090
v 0.923880 1.903817 0.382683
v 0.969453 1.903817 0.401560
v 0.831470 1.903817 0.555570
v 0.872484 1.903817 0.582975
v 1.029165 1.903817 0.204714
v 1.029165 2.000000 0.204714
v 1.049328 1.903817 0.000000
v 1.000000 1.903817 0.000000
v 0.969453 2.000000 0.401560
v 0.872484 2.000000 0.582975
v 0.923880 2.000000 0.382683
v 0.980785 2.000000 0.195090
v 0.831470 2.000000 0.555570
v 0.923880 1.968017 0.382683
v 0.831470 1.968017 0.555570
v 0.707107 1.968017 0.707107
v 0.555570 1.968017 0.831470
v 0.980785 1.968017 0.195090
v -0.195090 1.968017 0.980785
v -0.000000 1.968017 1.000000
v -0.382683 1.968017 0.923880
v -0.195090 2.000000 0.980785
v -0.831470 1.968017 0.555570
v -0.707107 1.968017 0.707107
v -0.555570 1.968017 0.831470
v 0.195090 1.968017 0.980785
v 0.382683 1.968017 0.923880
v -0.980785 1.968017 -0.195090
v 0.195090 1.968017 -0.980785
v -0.000000 2.000000 1.000000
v 0.195090 2.000000 0.980785
v -0.000000 2.000000 1.049328
v 0.204714 2.000000 1.029165
v -0.000000 1.903817 1.049328
v -0.204714 2.000000 1.029165
v 0.204714 1.903817 1.029165
v 0.195090 1.903817 0.980785
v 0.401560 1.903817 0.969452
v -0.000000 1.903817 1.000000
v 0.382683 1.903817 0.923880
v 0.555570 1.903817 0.831470
v 0.382683 0.675103 0.923880
v 0.555570 0.675103 0.831470
v 0.572237 0.631418 0.856414
v 0.707107 0.675103 0.707107
v 0.728320 0.631418 0.728320
v 0.707107 0.587733 0.707107
v 0.856414 0.631418 0.572237
v 0.831470 0.587733 0.555570
v 0.831470 0.675103 0.555570
v 0.555570 0.587733 0.831470
v 0.382683 0.587733 0.923880
v 0.555570 0.000000 0.831470
v 0.707107 0.000000 0.707107
v 0.831470 0.000000 0.555570
v 0.707107 -0.587733 0.707107
v 0.195090 0.000000 0.980785
v 0.555570 -0.587733 0.831470
v 0.572237 -0.631418 0.856414
v 0.382683 -0.587733 0.923880
v 0.728320 -0.631418 0.728320
v 0.856414 -0.631418 0.572237
v 0.707107 -0.675103 0.707107
v 0.831470 -0.587733 0.555570
v 0.831470 -0.675103 0.555570
v 0.555570 -0.675103 0.831470
v 0.382683 -0.675103 0.923880
v 0.555570 -1.903817 0.831470
v 0.382683 -1.903817 0.923880
v 0.401560 -1.903817 0.969452
v 0.195090 -1.903817 0.980785
v 0.204714 -1.903817 1.029165
v 0.204714 -2.000000 1.029165
v -0.000000 -1.903817 1.049328
v -0.000000 -1.903817 1.000000
v -0.000000 -2.000000 1.049328
v -0.000000 -2.000000 1.000000
v -0.204714 -2.000000 1.029165
v -0.195090 -2.000000 0.980785
v 0.195090 -2.000000 0.980785
v 0.382683 -2.000000 0.923880
v 0.707107 -2.000000 0.707107
v 0.555570 -2.000000 0.831470
v -0.555570 -2.000000 0.831470
v 0.980785 -2.000000 -0.195090
v -0.980785 -2.000000 0.195090
v -0.923880 -2.000000 0.382683
v -1.000000 -2.000000 0.000000
v -1.029165 -2.000000 0.204714
v -0.980785 -2.000000 -0.195090
v -0.923880 -2.000000 -0.382683
v -0.831470 -2.000000 -0.555570
v -0.707107 -2.000000 -0.707107
v -0.872484 -2.000000 -0.582975
v -0.969453 -2.000000 -0.401560
v -0.741987 -2.000000 -0.741987
v -0.741987 -1.903817 -0.741987
v -0.582975 -2.000000 -0.872484
v -0.555570 -2.000000 -0.831470
v -0.872484 -1.903817 -0.582975
v -0.969453 -1.903817 -0.401560
v -0.831470 -1.903817 -0.555570
v -0.707107 -1.903817 -0.707107
v -0.555570 -1.903817 -0.831470
v -0.707107 -0.675103 -0.707107
v -0.831470 -0.675103 -0.555570
v -0.856414 -0.631418 -0.572237
v -0.923880 -0.675103 -0.382683
v -0.951596 -0.631418 -0.394164
v -0.923880 -0.587733 -0.382683
v -1.010209 -0.631418 -0.200943
v -0.831470 -0.587733 -0.555570
v -0.707107 -0.587733 -0.707107
v -0.831470 0.000000 -0.555570
v -0.923880 0.000000 -0.382683
v -0.980785 0.000000 -0.195090
v -0.923880 0.587733 -0.382683
v -0.980785 0.000000 0.195090
v -0.831470 0.587733 -0.555570
v -0.856414 0.631418 -0.572237
v -0.707107 0.587733 -0.707107
v -0.951596 0.631418 -0.394164
v -1.010209 0.631418 -0.200943
v -0.923880 0.675103 -0.382683
v -0.831470 0.675103 -0.555570
v -0.707107 0.675103 -0.707107
v -0.831470 1.903817 -0.555570
v -0.707107 1.903817 -0.707107
v -0.555570 1.903817 -0.831470
v -0.741987 1.903817 -0.741987
v -0.872484 1.903817 -0.582975
v -0.872484 2.000000 -0.582975
v -0.969453 1.903817 -0.401560
v -0.741987 2.000000 -0.741987
v -0.707107 2.000000 -0.707107
v -0.582975 2.000000 -0.872484
v -0.555570 2.000000 -0.831470
v -0.831470 2.000000 -0.555570
v -0.923880 2.000000 -0.382683
v -0.831470 1.968017 -0.555570
v -0.969453 2.000000 -0.401560
v -0.707107 1.968017 -0.707107
v -0.555570 1.968017 -0.831470
v -0.382683 1.968017 -0.923880
v -0.000000 1.968017 -1.000000
v -0.195090 1.968017 -0.980785
v -0.923880 1.968017 -0.382683
v -0.980785 2.000000 -0.195090
v -1.000000 2.000000 0.000000
v -1.029165 2.000000 -0.204714
v -1.049328 2.000000 0.000000
v -1.029165 1.903817 -0.204714
v -1.049328 1.903817 0.000000
v -1.029165 1.903817 0.204714
v -1.000000 1.903817 0.000000
v -0.980785 1.903817 0.195090
v -0.980785 1.903817 -0.195090
v -1.000000 0.675103 0.000000
v -0.980785 0.675103 0.195090
v -1.010209 0.631418 0.200943
v -0.923880 0.675103 0.382683
v -1.030000 0.631418 0.000000
v -1.000000 0.587733 0.000000
v -0.980785 0.587733 0.195090
v -0.980785 0.587733 -0.195090
v -0.980785 0.675103 -0.195090
v -0.923880 1.903817 -0.382683
v -1.000000 0.000000 0.000000
v -1.000000 -0.587733 0.000000
v -0.980785 -0.587733 -0.195090
v -1.030000 -0.631418 0.000000
v -1.010209 -0.631418 0.200943
v -1.000000 -0.675103 0.000000
v -0.980785 -0.587733 0.195090
v -0.980785 -0.675103 0.195090
v -0.980785 -0.675103 -0.195090
v -0.980785 -1.903817 -0.195090
v -0.923880 -1.903817 -0.382683
v -1.029165 -1.903817 -0.204714
v -1.029165 -2.000000 -0.204714
v -1.049328 -1.903817 0.000000
v -1.000000 -1.903817 0.000000
v -0.980785 -1.903817 0.195090
v -1.029165 -1.903817 0.204714
v -0.969453 -1.903817 0.401560
v -1.049328 -2.000000 0.000000
v -0.923880 -1.903817 0.382683
v -0.831470 -1.903817 0.555570
v -0.923880 -0.675103 0.382683
v -0.831470 -0.675103 0.555570
v -0.856414 -0.631418 0.572237
v -0.707107 -0.675103 0.707107
v -0.728320 -0.631418 0.728320
v -0.555570 -0.675103 0.831470
v -0.707107 -1.903817 0.707107
v -0.555570 -1.903817 0.831470
v -0.741987 -1.903817 0.741987
v -0.741987 -2.000000 0.741987
v -0.582975 -1.903817 0.872484
v -0.872484 -1.903817 0.582975
v -0.872484 -2.000000 0.582975
v -0.831470 -2.000000 0.555570
v -0.969453 -2.000000 0.401560
v -0.707107 -2.000000 0.707107
v -0.582975 -2.000000 0.872484
v -0.401560 -1.903817 0.969452
v -0.382683 -1.903817 0.923880
v -0.195090 -1.903817 0.980785
v -0.382683 -0.675103 0.923880
v -0.195090 -0.675103 0.980785
v -0.204714 -1.903817 1.029165
v -0.401560 -2.000000 0.969452
v -0.382683 -2.000000 0.923880
v -0.200943 -0.631418 1.010209
v -0.000000 -0.675103 1.000000
v -0.394164 -0.631418 0.951596
v -0.382683 -0.587733 0.923880
v -0.572237 -0.631418 0.856414
v -0.555570 -0.587733 0.831470
v -0.707107 -0.587733 0.707107
v -0.555570 0.000000 0.831470
v -0.382683 0.000000 0.923880
v -0.195090 0.000000 0.980785
v -0.382683 0.587733 0.923880
v -0.555570 0.587733 0.831470
v -0.572237 0.631418 0.856414
v -0.707107 0.587733 0.707107
v -0.394164 0.631418 0.951596
v -0.728320 0.631418 0.728320
v -0.707107 0.675103 0.707107
v -0.856414 0.631418 0.572237
v -0.555570 0.675103 0.831470
v -0.382683 0.675103 0.923880
v -0.555570 1.903817 0.831470
v -0.707107 1.903817 0.707107
v -0.831470 1.903817 0.555570
v -0.741987 1.903817 0.741987
v -0.741987 2.000000 0.741987
v -0.582975 1.903817 0.872484
v -0.872484 1.903817 0.582975
v -0.872484 2.000000 0.582975
v -0.831470 2.000000 0.555570
v -0.969453 2.000000 0.401560
v -0.707107 2.000000 0.707107
v -0.555570 2.000000 0.831470
v -0.582975 2.000000 0.872484
v -0.382683 2.000000 0.923880
v -0.401560 2.000000 0.969452
v -0.401560 1.903817 0.969452
v -0.204714 1.903817 1.029165
v -0.195090 1.903817 0.980785
v -0.382683 1.903817 0.923880
v -0.195090 0.675103 0.980785
v -0.200943 0.631418 1.010209
v -0.000000 0.675103 1.000000
v -0.000000 0.631418 1.030000
v 0.195090 0.675103 0.980785
v 0.200943 0.631418 1.010209
v 0.195090 0.587733 0.980785
v 0.394164 0.631418 0.951596
v -0.000000 0.587733 1.000000
v -0.195090 0.587733 0.980785
v -0.000000 0.000000 1.000000
v -0.000000 -0.587733 1.000000
v -0.195090 -0.587733 0.980785
v 0.195090 -0.587733 0.980785
v -0.000000 -0.631418 1.030000
v 0.200943 -0.631418 1.010209
v 0.394164 -0.631418 0.951596
v 0.195090 -0.675103 0.980785
v 0.382683 0.000000 0.923880
v -0.969453 1.903817 0.401560
v -1.029165 2.000000 0.204714
v -0.923880 2.000000 0.382683
v -0.980785 2.000000 0.195090
v -0.923880 1.968017 0.382683
v -0.980785 1.968017 0.195090
v -1.000000 1.968017 0.000000
v -0.923880 1.903817 0.382683
v -0.831470 0.675103 0.555570
v -0.831470 0.587733 0.555570
v -0.951596 0.631418 0.394164
v -0.923880 0.587733 0.382683
v -0.923880 0.000000 0.382683
v -0.831470 0.000000 0.555570
v -0.707107 0.000000 0.707107
v -0.831470 -0.587733 0.555570
v -0.923880 -0.587733 0.382683
v -0.951596 -0.631418 0.394164
v -0.195090 2.000000 -0.980785
v -0.382683 2.000000 -0.923880
v -0.401560 2.000000 -0.969452
v -0.204714 2.000000 -1.029165
v -0.204714 1.903817 -1.029165
v -0.000000 2.000000 -1.049328
v -0.401560 1.903817 -0.969452
v -0.582975 1.903817 -0.872484
v -0.382683 1.903817 -0.923880
v -0.195090 1.903817 -0.980785
v -0.382683 0.675103 -0.923880
v -0.555570 0.675103 -0.831470
v -0.572237 0.631418 -0.856414
v -0.728320 0.631418 -0.728320
v -0.394164 0.631418 -0.951596
v -0.382683 0.587733 -0.923880
v -0.200943 0.631418 -1.010209
v -0.195090 0.587733 -0.980785
v -0.000000 0.587733 -1.000000
v -0.382683 0.000000 -0.923880
v -0.555570 0.000000 -0.831470
v -0.382683 -0.587733 -0.923880
v -0.195090 -0.587733 -0.980785
v -0.200943 -0.631418 -1.010209
v -0.000000 -0.587733 -1.000000
v -0.394164 -0.631418 -0.951596
v -0.572237 -0.631418 -0.856414
v -0.382683 -0.675103 -0.923880
v -0.555570 -0.675103 -0.831470
v -0.382683 -1.903817 -0.923880
v -0.728320 -0.631418 -0.728320
v -0.555570 -0.587733 -0.831470
v -0.707107 0.000000 -0.707107
v -0.555570 0.587733 -0.831470
v -0.195090 -1.903817 -0.980785
v -0.401560 -1.903817 -0.969452
v -0.582975 -1.903817 -0.872484
v -0.204714 -1.903817 -1.029165
v -0.204714 -2.000000 -1.029165
v -0.401560 -2.000000 -0.969452
v -0.382683 -2.000000 -0.923880
v -0.000000 -1.903817 -1.000000
v -0.195090 -0.675103 -0.980785
v -0.000000 -0.675103 -1.000000
v -0.000000 -0.631418 -1.030000
v 0.195090 -1.903817 -0.980785
v 0.200943 -0.631418 -1.010209
v -0.000000 0.631418 -1.030000
v 0.200943 0.631418 -1.010209
v -0.000000 0.675103 -1.000000
v -0.195090 0.675103 -0.980785
v -0.000000 1.903817 -1.000000
v 0.195090 1.903817 -0.980785
v 0.204714 1.903817 -1.029165
v -0.000000 1.903817 -1.049328
v 0.204714 2.000000 -1.029165
v 0.401560 2.000000 -0.969452
v 0.195090 2.000000 -0.980785
v -0.000000 2.000000 -1.000000
v 0.382683 2.000000 -0.923880
v 0.555570 2.000000 -0.831470
v 0.382683 1.968017 -0.923880
v 0.555570 1.968017 -0.831470
v 0.707107 1.968017 -0.707107
v 0.831470 1.968017 -0.555570
v 0.707107 2.000000 -0.707107
v 0.831470 2.000000 -0.555570
v 0.923880 2.000000 -0.382683
v 0.923880 1.968017 -0.382683
v 0.980785 1.968017 -0.195090
v 1.000000 1.968017 0.000000
v 0.980785 2.000000 -0.195090
v 1.029165 2.000000 -0.204714
v 1.000000 2.000000 0.000000
v 1.049328 2.000000 0.000000
v 1.029165 1.903817 -0.204714
v 0.980785 1.903817 -0.195090
v 0.969453 1.903817 -0.401560
v 0.969453 2.000000 -0.401560
v 0.582975 2.000000 -0.872484
v 0.923880 -2.000000 -0.382683
v 0.969453 -2.000000 -0.401560
v 0.582975 -2.000000 0.872484
v 0.401560 -2.000000 0.969452
v 0.582975 -1.903817 0.872484
v 0.741987 -1.903817 0.741987
v 0.707107 -1.903817 0.707107
v 0.951596 -0.631418 0.394164
v 0.923880 0.000000 0.382683
v 0.707107 1.903817 0.707107
v 0.951596 0.631418 0.394164
v 0.741987 1.903817 0.741987
v 0.741987 2.000000 0.741987
v 0.582975 1.903817 0.872484
v 0.582975 2.000000 0.872484
v 0.401560 2.000000 0.969452
v 0.555570 2.000000 0.831470
v 0.707107 2.000000 0.707107
v 0.382683 2.000000 0.923880
v 0.923880 0.000000 -0.382683
vn 0.5000 -0.0000 -0.8660
vn 1.0000 -0.0000 -0.0000
vn 0.5000 -0.0000 0.8660
vn -0.5000 -0.0000 0.8660
vn -0.0000 1.0000 -0.0000
vn -1.0000 -0.0000 -0.0000
vn -0.5000 -0.0000 -0.8660
vn -0.0000 -1.0000 -0.0000
vn -0.0980 -0.0000 0.9952
vn -0.2903 -0.0000 0.9569
vn -0.4714 -0.0000 0.8819
vn -0.6344 -0.0000 0.7730
vn -0.7730 -0.0000 0.6344
vn -0.8819 -0.0000 0.4714
vn -0.9569 -0.0000 0.2903
vn -0.9952 -0.0000 0.0980
vn -0.9952 -0.0000 -0.0980
vn -0.9569 -0.0000 -0.2903
vn -0.8819 -0.0000 -0.4714
vn -0.7730 -0.0000 -0.6344
vn -0.6344 -0.0000 -0.7730
vn -0.4714 -0.0000 -0.8819
vn -0.2903 -0.0000 -0.9569
vn -0.0980 -0.0000 -0.9952
vn 0.0980 -0.0000 -0.9952
vn 0.2903 -0.0000 -0.9569
vn 0.4714 -0.0000 -0.8819
vn 0.6344 -0.0000 -0.7730
vn 0.7730 -0.0000 -0.6344
vn 0.8819 -0.0000 -0.4714
vn 0.9569 -0.0000 -0.2903
vn 0.9952 -0.0000 -0.0980
vn 0.9952 -0.0000 0.0980
vn 0.9569 -0.0000 0.2903
vn 0.8819 -0.0000 0.4714
vn 0.7730 -0.0000 0.6344
vn 0.6344 -0.0000 0.7730
vn 0.4714 -0.0000 0.8819
vn 0.2903 -0.0000 0.9569
vn 0.0980 -0.0000 0.9952
vn 0.2397 -0.5642 -0.7901
vn 0.3892 -0.5642 -0.7281
vn 0.3892 0.5642 -0.7281
vn 0.5238 0.5642 -0.6382
vn 0.5238 -0.5642 -0.6382
vn 0.2397 0.5642 -0.7901
vn 0.6382 0.5642 -0.5238
vn 0.7281 0.5642 -0.3892
vn 0.7901 -0.5642 -0.2397
vn 0.7281 -0.5642 -0.3892
vn 0.7901 0.5642 -0.2397
vn 0.6382 -0.5642 -0.5238
vn 0.8216 -0.5642 0.0809
vn 0.7901 -0.5642 0.2397
vn 0.8216 0.5642 -0.0809
vn 0.8216 0.5642 0.0809
vn 0.8216 -0.5642 -0.0809
vn 0.7901 0.5642 0.2397
vn 0.3892 0.5642 0.7281
vn 0.5238 0.5642 0.6382
vn 0.5238 -0.5642 0.6382
vn 0.6382 -0.5642 0.5238
vn 0.6382 0.5642 0.5238
vn 0.3892 -0.5642 0.7281
vn -0.7281 -0.5642 -0.3892
vn -0.6382 -0.5642 -0.5238
vn -0.7901 0.5642 -0.2397
vn -0.7281 0.5642 -0.3892
vn -0.7901 -0.5642 -0.2397
vn -0.6382 0.5642 -0.5238
vn -0.7901 0.5642 0.2397
vn -0.8216 0.5642 0.0809
vn -0.8216 -0.5642 -0.0809
vn -0.8216 -0.5642 0.0809
vn -0.8216 0.5642 -0.0809
vn -0.6382 -0.5642 0.5238
vn -0.7281 -0.5642 0.3892
vn -0.5238 -0.5642 0.6382
vn -0.0809 -0.5642 0.8216
vn -0.2397 -0.5642 0.7901
vn -0.2397 0.5642 0.7901
vn -0.3892 0.5642 0.7281
vn -0.3892 -0.5642 0.7281
vn -0.5238 0.5642 0.6382
vn -0.6382 0.5642 0.5238
vn -0.0809 0.5642 0.8216
vn 0.0809 0.5642 0.8216
vn 0.2397 -0.5642 0.7901
vn 0.0809 -0.5642 0.8216
vn 0.2397 0.5642 0.7901
vn -0.7281 0.5642 0.3892
vn -0.7901 -0.5642 0.2397
vn -0.3892 0.5642 -0.7281
vn -0.5238 0.5642 -0.6382
vn -0.3892 -0.5642 -0.7281
vn -0.2397 -0.5642 -0.7901
vn -0.2397 0.5642 -0.7901
vn -0.0809 -0.5642 -0.8216
vn -0.0809 0.5642 -0.8216
vn -0.5238 -0.5642 -0.6382
vn 0.0809 -0.5642 -0.8216
vn 0.0809 0.5642 -0.8216
vn 0.7281 -0.5642 0.3892
vn 0.7281 0.5642 0.3892
vt 0.918459 0.896434
vt 0.892830 0.856299
vt 0.920422 0.842284
vt 0.899472 0.903142
vt 0.868949 0.864941
vt 0.876499 0.917353
vt 0.840420 0.866953
vt 0.845592 0.842209
vt 0.885875 0.805409
vt 0.886845 0.822587
vt 0.894014 0.910465
vt 0.889853 0.913158
vt 0.844330 0.804848
vt 0.841150 0.793909
vt 0.841478 0.786752
vt 0.892004 0.786374
vt 0.847188 0.768327
vt 0.908074 0.765311
vt 0.876254 0.859066
vt 0.880504 0.857400
vt 0.891282 0.796936
vt 0.890257 0.800351
vt 0.915740 0.898998
vt 0.917947 0.844261
vt 0.913914 0.845366
vt 0.912323 0.900464
vt 0.909068 0.846965
vt 0.908795 0.902403
vt 0.903652 0.848252
vt 0.905191 0.904323
vt 0.898506 0.850242
vt 0.893690 0.851853
vt 0.901710 0.906407
vt 0.889427 0.853594
vt 0.898098 0.908319
vt 0.885076 0.855633
vt 0.885615 0.915889
vt 0.872153 0.860147
vt 0.881694 0.918912
vt 0.868525 0.860959
vt 0.877913 0.921690
vt 0.865038 0.861837
vt 0.873678 0.924432
vt 0.861499 0.862467
vt 0.869246 0.927586
vt 0.860074 0.863266
vt 0.866871 0.929048
vt 0.859159 0.862629
vt 0.865909 0.931768
vt 0.859415 0.859884
vt 0.867395 0.936011
vt 0.845014 0.837776
vt 0.887843 0.819685
vt 0.844163 0.832895
vt 0.887882 0.816564
vt 0.843290 0.826856
vt 0.888256 0.813222
vt 0.841762 0.820343
vt 0.888575 0.809947
vt 0.841098 0.813364
vt 0.840420 0.806833
vt 0.889136 0.806789
vt 0.840514 0.800667
vt 0.889643 0.803698
vt 0.842086 0.779776
vt 0.892335 0.793616
vt 0.842226 0.773103
vt 0.893741 0.790602
vt 0.842637 0.767063
vt 0.895159 0.787921
vt 0.843702 0.760841
vt 0.896592 0.785226
vt 0.844734 0.754235
vt 0.898313 0.782600
vt 0.845674 0.750745
vt 0.898665 0.781267
vt 0.844552 0.747536
vt 0.899731 0.781138
vt 0.840420 0.745312
vt 0.901600 0.783079
vt 0.840420 0.939029
vt 0.918690 0.897674
vt 0.857906 0.721424
vt 0.887756 0.822404
vt 0.768525 0.811932
vt 0.748537 0.786556
vt 0.755952 0.791307
vt 0.717306 0.860460
vt 0.836795 0.817740
vt 0.835027 0.860430
vt 0.794991 0.838513
vt 0.796059 0.818180
vt 0.793571 0.827341
vt 0.794074 0.838121
vt 0.794053 0.834964
vt 0.757664 0.793158
vt 0.759848 0.790730
vt 0.756380 0.792996
vt 0.794040 0.831298
vt 0.837046 0.842693
vt 0.793219 0.823432
vt 0.838887 0.835289
vt 0.836052 0.849545
vt 0.835148 0.855044
vt 0.696765 0.832316
vt 0.701717 0.829735
vt 0.703050 0.826009
vt 0.701877 0.821983
vt 0.700704 0.814281
vt 0.703742 0.805625
vt 0.741060 0.763682
vt 0.700315 0.764123
vt 0.697945 0.784684
vt 0.699441 0.807136
vt 0.698944 0.800279
vt 0.698750 0.792669
vt 0.747244 0.774005
vt 0.697631 0.776502
vt 0.745934 0.769882
vt 0.745175 0.765861
vt 0.696893 0.768841
vt 0.744570 0.762185
vt 0.696765 0.761916
vt 0.697528 0.754534
vt 0.743901 0.758430
vt 0.743549 0.754519
vt 0.698224 0.746570
vt 0.743080 0.750562
vt 0.742129 0.743345
vt 0.702084 0.721424
vt 0.819808 0.721424
vt 0.788584 0.795312
vt 0.768600 0.769941
vt 0.781171 0.790562
vt 0.779459 0.788711
vt 0.777275 0.791138
vt 0.743046 0.743737
vt 0.743067 0.746895
vt 0.780743 0.788873
vt 0.835234 0.759893
vt 0.783359 0.793725
vt 0.834061 0.755867
vt 0.835394 0.752141
vt 0.840344 0.749561
vt 0.701058 0.732311
vt 0.701963 0.726811
vt 0.700065 0.739164
vt 0.833369 0.776246
vt 0.836406 0.767592
vt 0.839165 0.797183
vt 0.837669 0.774735
vt 0.838166 0.781591
vt 0.838361 0.789200
vt 0.788607 0.803815
vt 0.839479 0.805363
vt 0.789877 0.807860
vt 0.786880 0.800180
vt 0.785139 0.796972
vt 0.791186 0.811982
vt 0.791945 0.816002
vt 0.840217 0.813022
vt 0.840344 0.819946
vt 0.839582 0.827327
vt 0.792550 0.819677
vt 0.748514 0.778051
vt 0.750241 0.781687
vt 0.751982 0.784895
vt 0.753763 0.788143
vt 0.304449 0.757909
vt 0.307935 0.762475
vt 0.311338 0.767474
vt 0.312391 0.766863
vt 0.308881 0.761680
vt 0.309794 0.760895
vt 0.313438 0.766257
vt 0.314768 0.772661
vt 0.313509 0.773087
vt 0.315157 0.778893
vt 0.315566 0.784979
vt 0.315329 0.790845
vt 0.316914 0.785028
vt 0.316426 0.778723
vt 0.317678 0.778556
vt 0.318231 0.785086
vt 0.316617 0.791186
vt 0.315996 0.772243
vt 0.319044 0.778360
vt 0.317324 0.771783
vt 0.340451 0.763624
vt 0.319656 0.785141
vt 0.343217 0.774606
vt 0.342431 0.762931
vt 0.335705 0.753327
vt 0.345289 0.774300
vt 0.344449 0.762219
vt 0.347401 0.773982
vt 0.345991 0.785972
vt 0.339364 0.751198
vt 0.357098 0.740911
vt 0.363784 0.755431
vt 0.073221 0.812192
vt 0.054941 0.821735
vt 0.048873 0.806813
vt 0.255387 0.952060
vt 0.246533 0.952060
vt 0.237849 0.950332
vt 0.068630 0.800866
vt 0.045708 0.791023
vt 0.229669 0.946944
vt 0.222308 0.942025
vt 0.347820 0.727883
vt 0.285873 0.935765
vt 0.075119 0.811195
vt 0.081509 0.821122
vt 0.079837 0.822455
vt 0.089619 0.829658
vt 0.076978 0.810217
vt 0.083152 0.819814
vt 0.072694 0.799637
vt 0.098663 0.798857
vt 0.102411 0.804727
vt 0.099835 0.798177
vt 0.107990 0.808898
vt 0.107057 0.809956
vt 0.103482 0.803854
vt 0.108846 0.807915
vt 0.113655 0.812145
vt 0.113042 0.813236
vt 0.112358 0.814423
vt 0.090973 0.828074
vt 0.118165 0.818032
vt 0.100136 0.834680
vt 0.109652 0.841280
vt 0.099121 0.836471
vt 0.110284 0.839363
vt 0.109013 0.843242
vt 0.120797 0.843845
vt 0.098086 0.838301
vt 0.088232 0.831272
vt 0.074885 0.846852
vt 0.088068 0.856071
vt 0.272250 0.946944
vt 0.264070 0.950332
vt 0.368518 0.786909
vt 0.366332 0.802755
vt 0.346551 0.798008
vt 0.063711 0.835251
vt 0.367643 0.770943
vt 0.348114 0.786062
vt 0.344505 0.797515
vt 0.340869 0.808478
vt 0.342745 0.809354
vt 0.335188 0.818410
vt 0.342501 0.797027
vt 0.339034 0.807621
vt 0.343908 0.785880
vt 0.319262 0.791886
vt 0.317949 0.798461
vt 0.317884 0.791529
vt 0.316009 0.804809
vt 0.314732 0.803714
vt 0.316620 0.797780
vt 0.313948 0.811185
vt 0.313428 0.802491
vt 0.312910 0.809974
vt 0.315237 0.812639
vt 0.310811 0.807614
vt 0.306051 0.809945
vt 0.306886 0.811275
vt 0.300226 0.811015
vt 0.299840 0.809702
vt 0.305168 0.808493
vt 0.293781 0.810200
vt 0.293932 0.811464
vt 0.300626 0.812294
vt 0.294087 0.812708
vt 0.287664 0.810762
vt 0.301053 0.813663
vt 0.307631 0.812570
vt 0.317304 0.831537
vt 0.294249 0.814066
vt 0.307045 0.835638
vt 0.327600 0.826841
vt 0.318249 0.833257
vt 0.326346 0.825401
vt 0.336803 0.819617
vt 0.328890 0.828313
vt 0.319223 0.835016
vt 0.333609 0.817232
vt 0.342083 0.843396
vt 0.308244 0.839542
vt 0.328983 0.852614
vt 0.143759 0.843393
vt 0.149988 0.862474
vt 0.134394 0.865818
vt 0.294180 0.920223
vt 0.290791 0.928403
vt 0.132304 0.845921
vt 0.118431 0.865818
vt 0.352927 0.831630
vt 0.132107 0.843962
vt 0.143136 0.841474
vt 0.154516 0.838457
vt 0.120572 0.845844
vt 0.121019 0.841893
vt 0.131909 0.842051
vt 0.142521 0.839602
vt 0.152481 0.834906
vt 0.135206 0.819401
vt 0.140438 0.815391
vt 0.134739 0.818075
vt 0.139720 0.814126
vt 0.144391 0.809671
vt 0.145314 0.810745
vt 0.129919 0.822794
vt 0.134309 0.816709
vt 0.130063 0.824042
vt 0.139054 0.812938
vt 0.138357 0.811724
vt 0.143540 0.808675
vt 0.133797 0.815038
vt 0.138263 0.811269
vt 0.142531 0.807336
vt 0.142665 0.807666
vt 0.134041 0.813952
vt 0.146063 0.802685
vt 0.149259 0.797517
vt 0.152722 0.774311
vt 0.153084 0.779974
vt 0.152841 0.780045
vt 0.152746 0.786057
vt 0.152649 0.774201
vt 0.149466 0.768824
vt 0.146088 0.763495
vt 0.117564 0.751897
vt 0.137445 0.754808
vt 0.141817 0.758870
vt 0.151229 0.791847
vt 0.098922 0.791321
vt 0.152949 0.786039
vt 0.154304 0.779862
vt 0.154171 0.786151
vt 0.155384 0.786261
vt 0.155499 0.779743
vt 0.153573 0.773804
vt 0.155380 0.793064
vt 0.156709 0.786383
vt 0.156809 0.779618
vt 0.154033 0.792676
vt 0.152972 0.799475
vt 0.174985 0.810341
vt 0.179091 0.799741
vt 0.176860 0.811289
vt 0.170670 0.821244
vt 0.169021 0.819966
vt 0.178770 0.812255
vt 0.172355 0.822544
vt 0.164169 0.831398
vt 0.162783 0.829813
vt 0.161425 0.828262
vt 0.188529 0.835048
vt 0.183178 0.800914
vt 0.197079 0.821510
vt 0.290791 0.885822
vt 0.294180 0.894002
vt 0.279612 0.872200
vt 0.282381 0.862081
vt 0.266604 0.858976
vt 0.272456 0.839298
vt 0.177569 0.846700
vt 0.295907 0.902686
vt 0.298465 0.862082
vt 0.284364 0.841690
vt 0.284568 0.839576
vt 0.273056 0.837251
vt 0.261190 0.834708
vt 0.296456 0.841782
vt 0.296046 0.837643
vt 0.296251 0.839691
vt 0.284764 0.837503
vt 0.273645 0.835242
vt 0.263121 0.830947
vt 0.280625 0.811888
vt 0.274214 0.809267
vt 0.274780 0.808033
vt 0.269073 0.804744
vt 0.268436 0.805685
vt 0.263735 0.800969
vt 0.269602 0.803908
vt 0.265650 0.799332
vt 0.264736 0.800117
vt 0.263192 0.793538
vt 0.266595 0.798537
vt 0.270081 0.803103
vt 0.262140 0.794148
vt 0.281656 0.808098
vt 0.275805 0.805710
vt 0.259374 0.782118
vt 0.311986 0.801134
vt 0.287809 0.809425
vt 0.262544 0.759877
vt 0.260420 0.764510
vt 0.261102 0.758520
vt 0.263720 0.753397
vt 0.269363 0.752519
vt 0.274691 0.751310
vt 0.280750 0.750812
vt 0.274305 0.749996
vt 0.286722 0.751587
vt 0.286867 0.750250
vt 0.280599 0.749548
vt 0.292875 0.752914
vt 0.280444 0.748304
vt 0.287000 0.748948
vt 0.293210 0.751677
vt 0.273905 0.748718
vt 0.280282 0.746946
vt 0.287137 0.747540
vt 0.278486 0.723370
vt 0.293906 0.749124
vt 0.289767 0.723510
vt 0.266895 0.723441
vt 0.278282 0.721323
vt 0.267487 0.725373
vt 0.266283 0.721470
vt 0.256281 0.727755
vt 0.278072 0.719231
vt 0.260306 0.702104
vt 0.290166 0.719323
vt 0.276062 0.698930
vt 0.087223 0.733790
vt 0.073615 0.718428
vt 0.086702 0.708956
vt 0.206013 0.911539
vt 0.206013 0.902685
vt 0.216047 0.878460
vt 0.096923 0.726608
vt 0.101432 0.702329
vt 0.207740 0.894002
vt 0.245545 0.708399
vt 0.097958 0.728415
vt 0.088624 0.735384
vt 0.079026 0.742772
vt 0.108385 0.723500
vt 0.098979 0.730182
vt 0.089998 0.736944
vt 0.082395 0.745356
vt 0.106248 0.754592
vt 0.102020 0.759995
vt 0.107176 0.755708
vt 0.103154 0.760885
vt 0.098607 0.765990
vt 0.108032 0.756747
vt 0.111835 0.751172
vt 0.104204 0.761706
vt 0.108913 0.757798
vt 0.105281 0.762539
vt 0.102138 0.767838
vt 0.100990 0.767233
vt 0.113185 0.753745
vt 0.109054 0.758173
vt 0.112495 0.752449
vt 0.105527 0.762796
vt 0.102348 0.768002
vt 0.100387 0.773681
vt 0.098881 0.779507
vt 0.098801 0.785537
vt 0.113293 0.754271
vt 0.117704 0.750708
vt 0.122072 0.745724
vt 0.117235 0.748821
vt 0.121728 0.742691
vt 0.121370 0.739238
vt 0.116818 0.747118
vt 0.127322 0.745587
vt 0.121609 0.741374
vt 0.127506 0.744100
vt 0.130685 0.723089
vt 0.116354 0.745536
vt 0.119700 0.722857
vt 0.141496 0.725728
vt 0.130912 0.721130
vt 0.119504 0.720955
vt 0.107759 0.721575
vt 0.119309 0.719002
vt 0.131142 0.719125
vt 0.109003 0.725377
vt 0.111122 0.749819
vt 0.117219 0.698930
vt 0.211128 0.885822
vt 0.232445 0.717617
vt 0.255306 0.725997
vt 0.133380 0.698979
vt 0.221601 0.729385
vt 0.245640 0.732700
vt 0.246931 0.734172
vt 0.237725 0.741398
vt 0.240924 0.743780
vt 0.239344 0.742601
vt 0.248185 0.735611
vt 0.257226 0.729475
vt 0.266900 0.748442
vt 0.273478 0.747349
vt 0.267645 0.749736
vt 0.259294 0.748372
vt 0.268480 0.751067
vt 0.260583 0.749827
vt 0.259798 0.757298
vt 0.258522 0.756202
vt 0.257911 0.763232
vt 0.261621 0.751037
vt 0.256582 0.762550
vt 0.255268 0.769126
vt 0.232029 0.763984
vt 0.235497 0.753389
vt 0.230025 0.763497
vt 0.230622 0.775132
vt 0.228539 0.775039
vt 0.231313 0.786406
vt 0.254875 0.775871
vt 0.255487 0.782651
vt 0.256299 0.775926
vt 0.256853 0.782456
vt 0.257617 0.775984
vt 0.257914 0.769825
vt 0.256647 0.769483
vt 0.259202 0.770167
vt 0.259152 0.763876
vt 0.258964 0.776033
vt 0.257207 0.789229
vt 0.258535 0.788769
vt 0.258105 0.782288
vt 0.261093 0.794755
vt 0.259947 0.795417
vt 0.238826 0.807684
vt 0.234080 0.797388
vt 0.259763 0.788351
vt 0.261022 0.787925
vt 0.237013 0.808736
vt 0.245400 0.816923
vt 0.232099 0.798081
vt 0.230082 0.798793
vt 0.227129 0.787030
vt 0.229241 0.786712
vt 0.210747 0.805581
vt 0.226415 0.774950
vt 0.206888 0.790069
vt 0.172023 0.742979
vt 0.188335 0.730252
vt 0.197002 0.743917
vt 0.246533 0.862165
vt 0.255387 0.862165
vt 0.264070 0.863892
vt 0.178585 0.753335
vt 0.202927 0.758934
vt 0.217433 0.820101
vt 0.176674 0.754325
vt 0.170334 0.744310
vt 0.162244 0.735663
vt 0.163648 0.734046
vt 0.152722 0.728726
vt 0.168677 0.745617
vt 0.160873 0.737252
vt 0.174803 0.755296
vt 0.149294 0.760763
vt 0.144660 0.755484
vt 0.143725 0.756563
vt 0.139359 0.750948
vt 0.142868 0.757567
vt 0.148218 0.761649
vt 0.138070 0.753325
vt 0.138678 0.752184
vt 0.132659 0.749923
vt 0.137450 0.754483
vt 0.141981 0.758587
vt 0.146238 0.763309
vt 0.147239 0.762471
vt 0.149671 0.768678
vt 0.150770 0.768008
vt 0.154542 0.773414
vt 0.151844 0.767360
vt 0.155653 0.773000
vt 0.153022 0.766671
vt 0.179021 0.765929
vt 0.181166 0.777141
vt 0.181038 0.765327
vt 0.183261 0.776932
vt 0.183282 0.788735
vt 0.181183 0.788545
vt 0.181114 0.800321
vt 0.185420 0.788931
vt 0.185398 0.776725
vt 0.205929 0.790827
vt 0.183098 0.764720
vt 0.205929 0.774756
vt 0.272250 0.867281
vt 0.226710 0.833128
vt 0.235167 0.809814
vt 0.238270 0.844205
vt 0.242213 0.819701
vt 0.252299 0.826420
vt 0.250986 0.828099
vt 0.243820 0.818296
vt 0.262166 0.832808
vt 0.253587 0.824774
vt 0.251723 0.852932
vt 0.202943 0.806593
vt 0.285873 0.878460
vt 0.133079 0.748608
vt 0.127189 0.747163
vt 0.132209 0.751265
vt 0.132204 0.751719
vt 0.127259 0.749773
vt 0.127010 0.748875
vt 0.122209 0.747553
vt 0.133533 0.747207
vt 0.151694 0.730528
vt 0.142792 0.721826
vt 0.153776 0.726889
vt 0.142137 0.723799
vt 0.164001 0.709046
vt 0.149197 0.702430
vt 0.222308 0.872200
vt 0.229669 0.867281
vt 0.208198 0.758259
vt 0.213434 0.743142
vt 0.231783 0.751660
vt 0.177207 0.718466
vt 0.237849 0.863892
vt 0.206013 0.774104
vt 0.227978 0.763004
vt 0.233660 0.752532
vt 0.100086 0.773588
vt 0.098678 0.779516
vt 0.098815 0.773206
vt 0.097454 0.779397
vt 0.097338 0.785705
vt 0.097570 0.772835
vt 0.096238 0.779280
vt 0.099855 0.766637
vt 0.096216 0.772440
vt 0.076454 0.755086
vt 0.094908 0.779152
vt 0.072399 0.765768
vt 0.070363 0.765196
vt 0.074563 0.754141
vt 0.080729 0.744075
vt 0.068287 0.764611
vt 0.066125 0.776655
vt 0.068270 0.776838
vt 0.048386 0.759062
vt 0.066239 0.788881
vt 0.045545 0.774921
vt 0.216047 0.935765
vt 0.211128 0.928403
vt 0.322807 0.708080
vt 0.336260 0.716806
vt 0.323545 0.732913
vt 0.054143 0.744000
vt 0.307925 0.702036
vt 0.313340 0.726304
vt 0.312365 0.728204
vt 0.322231 0.734592
vt 0.332317 0.741311
vt 0.301474 0.723761
vt 0.300885 0.725770
vt 0.311409 0.730065
vt 0.289962 0.721437
vt 0.300317 0.751745
vt 0.302074 0.721714
vt 0.292148 0.698930
vt 0.072637 0.753177
vt 0.062641 0.730279
vt 0.207740 0.920223
vt 0.293538 0.750459
vt 0.306094 0.755327
vt 0.305458 0.756268
vt 0.299751 0.752979
vt 0.304928 0.757104
vt 0.298725 0.755302
vt 0.299244 0.754122
vt 0.310795 0.760043
vt 0.320943 0.736238
vt 0.329130 0.744089
vt 0.330710 0.742716
vt 0.337517 0.752276
vt 0.314584 0.765595
vt 0.068376 0.788662
vt 0.070683 0.800249
vt 0.070471 0.788441
vt 0.096009 0.792555
vt 0.070375 0.777018
vt 0.094832 0.785935
vt 0.096142 0.785817
vt 0.097116 0.792156
vt 0.098080 0.791783
vt 0.098560 0.785600
vt 0.100903 0.797539
vt 0.101995 0.796878
vt 0.098999 0.791407
vt 0.102199 0.796743
vt 0.105602 0.802051
vt 0.105453 0.802220
vt 0.109896 0.806653
vt 0.109732 0.806915
vt 0.114288 0.810772
vt 0.114279 0.811041
vt 0.119574 0.813862
vt 0.119565 0.814238
vt 0.124557 0.816123
vt 0.124881 0.816887
vt 0.129609 0.819533
vt 0.124602 0.818390
vt 0.129802 0.821977
vt 0.130239 0.825803
vt 0.124386 0.819630
vt 0.124138 0.820855
vt 0.118643 0.816721
vt 0.119089 0.815497
vt 0.104456 0.803045
vt 0.314111 0.796502
vt 0.315379 0.797136
vt 0.275287 0.806890
vt 0.281321 0.809335
vt 0.280992 0.810552
vt 0.287531 0.812064
vt 0.287393 0.813472
vt 0.307637 0.837569
vt 0.314222 0.858909
vt 0.164567 0.855986
vt 0.295907 0.911539
vt 0.153492 0.836661
vt 0.149547 0.805414
vt 0.148420 0.804543
vt 0.147376 0.803741
vt 0.150605 0.798256
vt 0.151732 0.798840
vt 0.149466 0.797665
vt 0.152794 0.792310
vt 0.146306 0.802924
vt 0.151528 0.791934
vt 0.102775 0.862501
vt 0.279612 0.942025
vt 0.361095 0.817872
s 0
usemtl マテリアル
f 2/1/1 3/2/1 1/3/1
f 4/4/2 5/5/2 3/2/2
f 6/6/3 7/7/3 5/5/3
f 8/8/4 9/9/4 7/10/4
f 4/4/5 19/11/5 17/12/5
f 10/13/5 22/14/5 21/15/5
f 10/13/6 11/16/6 9/9/6
f 12/17/7 1/18/7 11/16/7
f 5/5/8 58/19/8 56/20/8
f 60/21/8 62/22/8 9/9/8
f 41/23/9 51/24/9 48/25/9
f 13/26/10 48/25/10 49/27/10
f 14/28/11 49/27/11 50/29/11
f 16/30/12 50/29/12 76/31/12
f 16/30/13 74/32/13 15/33/13
f 15/33/14 75/34/14 20/35/14
f 20/35/15 57/36/15 19/11/15
f 19/11/16 56/20/16 17/12/16
f 17/12/17 58/19/17 18/37/17
f 18/37/18 55/38/18 43/39/18
f 43/39/19 59/40/19 42/41/19
f 42/41/20 53/42/20 44/43/20
f 44/43/21 54/44/21 34/45/21
f 34/45/22 52/46/22 35/47/22
f 35/47/23 73/48/23 32/49/23
f 32/49/24 72/50/24 33/51/24
f 33/52/25 70/53/25 30/54/25
f 30/54/26 66/55/26 31/56/26
f 31/56/27 67/57/27 29/58/27
f 29/58/28 64/59/28 40/60/28
f 36/61/29 64/59/29 65/62/29
f 37/63/30 65/62/30 61/64/30
f 22/14/31 61/64/31 62/22/31
f 21/15/32 62/22/32 60/21/32
f 23/65/33 60/21/33 63/66/33
f 24/67/34 63/66/34 69/68/34
f 26/69/35 69/68/35 68/70/35
f 25/71/36 68/70/36 71/72/36
f 28/73/37 71/72/37 45/74/37
f 27/75/38 45/74/38 47/76/38
f 39/77/39 47/76/39 46/78/39
f 38/79/40 46/78/40 51/80/40
f 2/1/1 4/4/1 3/2/1
f 4/4/2 6/6/2 5/5/2
f 6/6/3 8/81/3 7/7/3
f 8/8/4 10/13/4 9/9/4
f 32/49/5 33/51/5 8/81/5
f 2/1/5 38/82/5 41/23/5
f 2/1/5 41/23/5 13/26/5
f 32/49/5 8/81/5 35/47/5
f 8/81/5 6/6/5 34/45/5
f 35/47/5 8/81/5 34/45/5
f 4/4/5 2/1/5 14/28/5
f 2/1/5 13/26/5 14/28/5
f 44/43/5 34/45/5 6/6/5
f 4/4/5 14/28/5 16/30/5
f 4/4/5 16/30/5 15/33/5
f 42/41/5 44/43/5 6/6/5
f 43/39/5 42/41/5 6/6/5
f 4/4/5 15/33/5 20/35/5
f 4/4/5 20/35/5 19/11/5
f 43/39/5 6/6/5 18/37/5
f 6/6/5 4/4/5 17/12/5
f 18/37/5 6/6/5 17/12/5
f 39/77/5 38/79/5 2/83/5
f 8/8/5 33/52/5 30/54/5
f 8/8/5 30/54/5 31/56/5
f 39/77/5 2/83/5 27/75/5
f 2/83/5 12/17/5 28/73/5
f 27/75/5 2/83/5 28/73/5
f 10/13/5 8/8/5 29/58/5
f 8/8/5 31/56/5 29/58/5
f 25/71/5 28/73/5 12/17/5
f 10/13/5 29/58/5 40/60/5
f 10/13/5 40/60/5 36/61/5
f 26/69/5 25/71/5 12/17/5
f 24/67/5 26/69/5 12/17/5
f 10/13/5 36/61/5 37/63/5
f 10/13/5 37/63/5 22/14/5
f 24/67/5 12/17/5 23/65/5
f 12/17/5 10/13/5 21/15/5
f 23/65/5 12/17/5 21/15/5
f 10/13/6 12/17/6 11/16/6
f 12/17/7 2/83/7 1/18/7
f 48/25/8 51/24/8 1/3/8
f 7/7/8 72/50/8 73/48/8
f 7/7/8 73/48/8 52/46/8
f 48/25/8 1/3/8 49/27/8
f 1/3/8 3/2/8 50/29/8
f 49/27/8 1/3/8 50/29/8
f 5/5/8 7/7/8 54/44/8
f 7/7/8 52/46/8 54/44/8
f 76/31/8 50/29/8 3/2/8
f 5/5/8 54/44/8 53/42/8
f 5/5/8 53/42/8 59/40/8
f 74/32/8 76/31/8 3/2/8
f 75/34/8 74/32/8 3/2/8
f 5/5/8 59/40/8 55/38/8
f 5/5/8 55/38/8 58/19/8
f 75/34/8 3/2/8 57/36/8
f 3/2/8 5/5/8 56/20/8
f 57/36/8 3/2/8 56/20/8
f 1/18/8 51/80/8 46/78/8
f 1/18/8 46/78/8 47/76/8
f 70/53/8 72/84/8 7/10/8
f 66/55/8 70/53/8 7/10/8
f 11/16/8 1/18/8 45/74/8
f 1/18/8 47/76/8 45/74/8
f 66/55/8 7/10/8 67/57/8
f 7/10/8 9/9/8 67/57/8
f 11/16/8 45/74/8 71/72/8
f 11/16/8 71/72/8 68/70/8
f 64/59/8 67/57/8 9/9/8
f 65/62/8 64/59/8 9/9/8
f 11/16/8 68/70/8 69/68/8
f 11/16/8 69/68/8 63/66/8
f 61/64/8 65/62/8 9/9/8
f 62/22/8 61/64/8 9/9/8
f 9/9/8 11/16/8 60/21/8
f 11/16/8 63/66/8 60/21/8
f 41/23/9 38/82/9 51/24/9
f 13/26/10 41/23/10 48/25/10
f 14/28/11 13/26/11 49/27/11
f 16/30/12 14/28/12 50/29/12
f 16/30/13 76/31/13 74/32/13
f 15/33/14 74/32/14 75/34/14
f 20/35/15 75/34/15 57/36/15
f 19/11/16 57/36/16 56/20/16
f 17/12/17 56/20/17 58/19/17
f 18/37/18 58/19/18 55/38/18
f 43/39/19 55/38/19 59/40/19
f 42/41/20 59/40/20 53/42/20
f 44/43/21 53/42/21 54/44/21
f 34/45/22 54/44/22 52/46/22
f 35/47/23 52/46/23 73/48/23
f 32/49/24 73/48/24 72/50/24
f 33/52/25 72/84/25 70/53/25
f 30/54/26 70/53/26 66/55/26
f 31/56/27 66/55/27 67/57/27
f 29/58/28 67/57/28 64/59/28
f 36/61/29 40/60/29 64/59/29
f 37/63/30 36/61/30 65/62/30
f 22/14/31 37/63/31 61/64/31
f 21/15/32 22/14/32 62/22/32
f 23/65/33 21/15/33 60/21/33
f 24/67/34 23/65/34 63/66/34
f 26/69/35 24/67/35 69/68/35
f 25/71/36 26/69/36 68/70/36
f 28/73/37 25/71/37 71/72/37
f 27/75/38 28/73/38 45/74/38
f 39/77/39 27/75/39 47/76/39
f 38/79/40 39/77/40 46/78/40
f 77/85/8 78/86/8 85/87/8
f 79/88/1 78/86/1 77/85/1
f 82/89/7 79/90/7 77/91/7
f 80/92/8 77/91/8 88/93/8
f 82/89/7 77/91/7 80/92/7
f 77/91/8 81/94/8 86/95/8
f 83/96/8 81/97/8 77/85/8
f 83/96/8 77/85/8 84/98/8
f 84/98/8 77/85/8 85/87/8
f 77/91/8 86/95/8 87/99/8
f 77/91/8 87/99/8 88/93/8
f 91/100/38 88/93/38 87/99/38
f 80/92/8 88/93/8 89/101/8
f 90/102/37 89/101/37 88/93/37
f 91/100/38 90/102/38 88/93/38
f 91/100/5 79/90/5 90/102/5
f 92/103/39 91/100/39 87/99/39
f 92/103/5 79/90/5 91/100/5
f 93/104/40 92/103/40 86/95/40
f 92/103/5 93/104/5 79/90/5
f 92/103/39 87/99/39 86/95/39
f 79/88/5 93/105/5 94/106/5
f 94/106/9 93/105/9 81/97/9
f 93/104/40 86/95/40 81/94/40
f 95/107/10 94/106/10 83/96/10
f 79/88/5 94/106/5 95/107/5
f 94/106/9 81/97/9 83/96/9
f 96/108/11 95/107/11 84/98/11
f 79/88/5 95/107/5 96/108/5
f 95/107/10 83/96/10 84/98/10
f 97/109/12 96/108/12 85/87/12
f 98/110/5 96/108/5 97/109/5
f 96/108/11 84/98/11 85/87/11
f 98/110/5 79/88/5 96/108/5
f 79/88/1 98/110/1 78/86/1
f 98/110/2 100/111/2 78/86/2
f 99/112/5 98/110/5 104/113/5
f 98/110/2 99/112/2 100/111/2
f 98/110/5 97/109/5 101/114/5
f 98/110/5 101/114/5 102/115/5
f 98/110/5 102/115/5 103/116/5
f 98/110/5 103/116/5 104/113/5
f 103/116/16 106/117/16 104/113/16
f 105/118/5 99/112/5 104/113/5
f 104/113/17 107/119/17 105/118/17
f 104/113/17 106/117/17 107/119/17
f 105/118/18 107/119/18 108/120/18
f 100/111/8 108/120/8 107/119/8
f 100/111/8 107/119/8 106/117/8
f 110/121/19 108/120/19 109/122/19
f 100/111/8 109/122/8 108/120/8
f 105/118/18 108/120/18 110/121/18
f 110/121/5 99/112/5 105/118/5
f 110/121/5 111/123/5 99/112/5
f 110/121/19 109/122/19 111/123/19
f 111/123/5 112/124/5 99/112/5
f 111/123/20 113/125/20 112/124/20
f 111/123/20 109/122/20 113/125/20
f 112/124/21 113/125/21 114/126/21
f 100/111/8 114/126/8 113/125/8
f 100/111/8 113/125/8 109/122/8
f 116/127/22 114/126/22 115/128/22
f 117/129/8 115/128/8 114/126/8
f 112/124/21 114/126/21 116/127/21
f 100/111/8 117/129/8 114/126/8
f 99/112/3 117/129/3 100/111/3
f 99/112/3 118/130/3 117/129/3
f 118/131/4 119/132/4 117/133/4
f 117/133/8 119/132/8 124/134/8
f 122/135/8 120/136/8 117/133/8
f 117/129/8 120/137/8 121/138/8
f 117/129/8 121/138/8 115/128/8
f 123/139/8 122/135/8 117/133/8
f 123/139/8 117/133/8 124/134/8
f 126/140/28 124/134/28 125/141/28
f 125/141/8 124/134/8 119/132/8
f 127/142/27 123/139/27 124/134/27
f 127/142/27 124/134/27 126/140/27
f 118/131/5 128/143/5 127/142/5
f 128/143/26 123/139/26 127/142/26
f 118/131/5 127/142/5 126/140/5
f 118/131/5 129/144/5 128/143/5
f 129/144/25 122/135/25 128/143/25
f 128/143/26 122/135/26 123/139/26
f 130/145/5 129/146/5 118/130/5
f 130/145/24 120/137/24 129/146/24
f 129/144/25 120/136/25 122/135/25
f 130/145/5 118/130/5 131/147/5
f 131/147/23 121/138/23 130/145/23
f 130/145/24 121/138/24 120/137/24
f 131/147/5 118/130/5 116/127/5
f 116/127/22 115/128/22 131/147/22
f 131/147/23 115/128/23 121/138/23
f 133/148/5 126/140/5 132/149/5
f 126/140/28 125/141/28 132/149/28
f 133/148/5 118/131/5 126/140/5
f 118/131/4 133/148/4 119/132/4
f 133/148/6 80/92/6 119/132/6
f 133/148/6 82/89/6 80/92/6
f 82/89/5 133/148/5 137/150/5
f 133/148/5 132/149/5 134/151/5
f 133/148/5 134/151/5 135/152/5
f 133/148/5 135/152/5 136/153/5
f 133/148/5 136/153/5 137/150/5
f 137/150/32 136/153/32 140/154/32
f 138/155/33 137/150/33 139/156/33
f 138/155/5 82/89/5 137/150/5
f 137/150/32 140/154/32 139/156/32
f 139/156/8 140/154/8 119/132/8
f 140/154/8 141/157/8 119/132/8
f 136/153/31 141/157/31 140/154/31
f 141/157/8 142/158/8 119/132/8
f 135/152/30 142/158/30 141/157/30
f 136/153/31 135/152/31 141/157/31
f 142/158/8 125/141/8 119/132/8
f 134/151/29 125/141/29 142/158/29
f 135/152/30 134/151/30 142/158/30
f 80/92/8 143/159/8 139/156/8
f 138/155/33 139/156/33 143/159/33
f 119/132/8 80/92/8 139/156/8
f 80/92/8 144/160/8 143/159/8
f 145/161/34 143/159/34 144/160/34
f 145/161/34 138/155/34 143/159/34
f 145/161/5 82/89/5 138/155/5
f 146/162/35 145/161/35 144/160/35
f 145/161/5 146/162/5 82/89/5
f 147/163/36 146/162/36 148/164/36
f 146/162/5 147/163/5 82/89/5
f 146/162/35 144/160/35 148/164/35
f 80/92/8 89/101/8 148/164/8
f 147/163/36 148/164/36 89/101/36
f 80/92/8 148/164/8 144/160/8
f 90/102/37 147/163/37 89/101/37
f 147/163/5 90/102/5 82/89/5
f 134/151/29 132/149/29 125/141/29
f 118/130/5 99/112/5 116/127/5
f 112/124/5 116/127/5 99/112/5
f 103/116/16 149/165/16 106/117/16
f 149/165/8 78/86/8 106/117/8
f 78/86/8 100/111/8 106/117/8
f 102/115/15 150/166/15 149/165/15
f 150/166/8 78/86/8 149/165/8
f 102/115/15 149/165/15 103/116/15
f 101/114/14 151/167/14 150/166/14
f 150/166/8 151/167/8 78/86/8
f 101/114/14 150/166/14 102/115/14
f 97/109/13 152/168/13 151/167/13
f 151/167/8 152/168/8 78/86/8
f 97/109/13 151/167/13 101/114/13
f 152/168/8 85/87/8 78/86/8
f 97/109/12 85/87/12 152/168/12
f 79/90/5 82/89/5 90/102/5
f 156/169/8 153/170/8 154/171/8
f 153/170/8 157/172/8 154/171/8
f 153/170/8 155/173/8 157/172/8
f 156/169/8 155/173/8 153/170/8
f 160/174/25 157/172/25 155/173/25
f 160/174/25 158/175/25 157/172/25
f 158/175/26 159/176/26 157/172/26
f 161/177/8 157/172/8 159/176/8
f 161/177/8 154/171/8 157/172/8
f 154/171/8 161/177/8 156/169/8
f 162/178/8 161/177/8 159/176/8
f 161/177/8 162/178/8 156/169/8
f 162/178/8 163/179/8 165/180/8
f 162/178/8 166/181/8 163/179/8
f 162/178/8 164/182/8 166/181/8
f 162/178/8 159/176/8 164/182/8
f 162/178/8 165/180/8 156/169/8
f 165/180/8 163/179/8 166/181/8
f 169/183/28 166/181/28 164/182/28
f 169/183/28 167/184/28 166/181/28
f 167/184/29 168/185/29 166/181/29
f 165/180/8 166/181/8 168/185/8
f 170/186/27 169/183/27 164/182/27
f 171/187/5 169/183/5 170/186/5
f 171/187/5 167/184/5 169/183/5
f 171/187/5 170/186/5 172/188/5
f 175/189/27 171/187/27 172/188/27
f 171/187/5 173/190/5 167/184/5
f 174/191/28 173/190/28 171/187/28
f 175/189/27 174/191/27 171/187/27
f 176/192/41 175/189/41 177/193/41
f 178/194/42 175/189/42 176/192/42
f 177/193/26 175/189/26 172/188/26
f 178/194/42 174/191/42 175/189/42
f 181/195/43 179/196/43 178/194/43
f 179/196/44 180/197/44 178/194/44
f 181/195/43 178/194/43 176/192/43
f 180/197/45 174/191/45 178/194/45
f 182/198/46 181/195/46 176/192/46
f 184/199/26 181/195/26 182/198/26
f 183/200/27 179/196/27 181/195/27
f 184/199/26 183/200/26 181/195/26
f 190/201/26 183/202/26 184/203/26
f 187/204/5 183/205/5 184/206/5
f 186/207/25 184/203/25 185/208/25
f 184/206/5 185/209/5 188/210/5
f 185/211/25 184/199/25 182/198/25
f 190/201/26 184/203/26 186/207/26
f 187/204/5 184/206/5 189/212/5
f 184/206/5 188/210/5 189/212/5
f 186/207/41 191/213/41 190/201/41
f 190/201/42 191/213/42 193/214/42
f 190/201/42 193/214/42 192/215/42
f 192/215/27 183/202/27 190/201/27
f 192/215/45 193/214/45 195/216/45
f 196/217/43 193/214/43 191/213/43
f 196/217/43 194/218/43 193/214/43
f 194/218/44 195/216/44 193/214/44
f 197/219/46 196/217/46 191/213/46
f 198/220/26 196/217/26 197/219/26
f 199/221/27 194/218/27 196/217/27
f 199/221/27 196/217/27 198/220/27
f 202/222/8 199/221/8 198/220/8
f 199/221/8 203/223/8 200/224/8
f 200/224/28 194/218/28 199/221/28
f 199/221/8 201/225/8 203/223/8
f 202/222/8 201/225/8 199/221/8
f 204/226/28 203/223/28 201/225/28
f 206/227/29 203/223/29 204/226/29
f 203/223/8 205/228/8 207/229/8
f 206/227/29 205/228/29 203/223/29
f 203/223/8 207/229/8 200/224/8
f 207/229/29 210/230/29 200/224/29
f 205/228/8 208/231/8 207/229/8
f 208/231/30 209/232/30 207/229/30
f 207/229/29 209/232/29 210/230/29
f 195/216/47 210/230/47 209/232/47
f 194/218/44 210/230/44 195/216/44
f 200/224/28 210/230/28 194/218/28
f 209/232/48 213/233/48 211/234/48
f 195/216/47 209/232/47 211/234/47
f 209/232/48 212/235/48 213/233/48
f 208/231/30 212/235/30 209/232/30
f 214/236/49 213/233/49 215/237/49
f 216/238/50 213/233/50 214/236/50
f 216/238/50 211/234/50 213/233/50
f 212/235/51 215/237/51 213/233/51
f 195/216/52 216/238/52 217/239/52
f 216/238/29 219/240/29 217/239/29
f 195/216/52 211/234/52 216/238/52
f 214/236/30 218/241/30 216/238/30
f 216/238/29 218/241/29 219/240/29
f 218/242/5 219/243/5 189/212/5
f 219/244/29 218/245/29 221/246/29
f 217/239/28 219/240/28 187/247/28
f 219/243/5 187/204/5 189/212/5
f 187/248/28 219/244/28 220/249/28
f 219/244/29 221/246/29 220/249/29
f 221/246/47 180/197/47 220/249/47
f 221/246/47 222/250/47 180/197/47
f 221/246/48 224/251/48 222/250/48
f 221/246/48 223/252/48 224/251/48
f 218/245/30 223/252/30 221/246/30
f 223/252/51 226/253/51 224/251/51
f 224/251/50 227/254/50 222/250/50
f 224/251/50 225/255/50 227/254/50
f 226/253/49 225/255/49 224/251/49
f 180/197/52 222/250/52 227/254/52
f 228/256/29 227/254/29 229/257/29
f 180/197/52 227/254/52 228/256/52
f 227/254/30 225/255/30 230/258/30
f 227/254/30 230/258/30 229/257/30
f 230/258/5 233/259/5 229/257/5
f 230/258/5 231/260/5 234/261/5
f 225/255/31 231/260/31 230/258/31
f 230/258/5 232/262/5 233/259/5
f 230/258/5 234/261/5 232/262/5
f 237/263/5 234/261/5 231/260/5
f 232/262/31 234/261/31 235/264/31
f 234/261/32 238/265/32 235/264/32
f 234/261/32 236/266/32 238/265/32
f 237/263/5 236/266/5 234/261/5
f 239/267/8 238/265/8 240/268/8
f 239/267/8 235/264/8 238/265/8
f 236/266/33 240/268/33 238/265/33
f 236/266/33 241/269/33 240/268/33
f 241/269/34 242/270/34 240/268/34
f 244/271/8 240/268/8 242/270/8
f 244/271/8 243/272/8 240/268/8
f 239/267/8 240/268/8 243/272/8
f 243/272/8 244/271/8 245/273/8
f 244/271/8 246/274/8 245/273/8
f 244/271/8 242/270/8 246/274/8
f 249/275/35 246/274/35 242/270/35
f 249/275/35 247/276/35 246/274/35
f 247/276/36 248/277/36 246/274/36
f 245/273/8 246/274/8 248/277/8
f 250/278/5 249/275/5 241/269/5
f 250/278/5 247/276/5 249/275/5
f 241/269/34 249/275/34 242/270/34
f 250/278/5 241/269/5 251/279/5
f 254/280/34 250/278/34 251/279/34
f 250/278/5 252/281/5 247/276/5
f 253/282/35 252/281/35 250/278/35
f 254/280/34 253/282/34 250/278/34
f 257/283/53 255/284/53 254/280/53
f 255/284/54 253/282/54 254/280/54
f 256/285/33 254/280/33 251/279/33
f 257/283/53 254/280/53 256/285/53
f 259/286/55 258/287/55 257/283/55
f 261/288/56 257/283/56 258/287/56
f 257/283/57 260/289/57 226/253/57
f 259/286/55 257/283/55 226/253/55
f 257/283/57 256/285/57 260/289/57
f 261/288/56 255/284/56 257/283/56
f 264/290/33 261/288/33 258/287/33
f 262/291/58 255/284/58 261/288/58
f 263/292/34 262/291/34 261/288/34
f 264/290/33 263/292/33 261/288/33
f 266/293/33 263/294/33 264/295/33
f 263/296/5 264/297/5 189/212/5
f 265/298/32 264/295/32 189/299/32
f 189/300/32 264/290/32 258/287/32
f 266/293/33 264/295/33 265/298/33
f 269/301/53 266/293/53 265/298/53
f 269/301/53 267/302/53 266/293/53
f 267/302/54 268/303/54 266/293/54
f 268/303/34 263/294/34 266/293/34
f 271/304/57 269/301/57 265/298/57
f 271/304/57 215/237/57 269/301/57
f 272/305/55 269/301/55 215/237/55
f 269/301/56 270/306/56 273/307/56
f 272/305/55 270/306/55 269/301/55
f 269/301/56 273/307/56 267/302/56
f 267/302/58 273/307/58 274/308/58
f 275/309/33 273/307/33 270/306/33
f 276/310/34 274/308/34 273/307/34
f 276/310/34 273/307/34 275/309/34
f 280/311/8 277/312/8 276/310/8
f 276/310/8 277/312/8 279/313/8
f 280/311/8 276/310/8 275/309/8
f 276/310/8 279/313/8 278/314/8
f 278/314/35 274/308/35 276/310/35
f 283/315/8 280/311/8 275/309/8
f 281/316/33 280/311/33 282/317/33
f 284/318/34 280/311/34 281/316/34
f 283/315/8 282/317/8 280/311/8
f 284/318/34 277/312/34 280/311/34
f 286/319/5 284/318/5 281/316/5
f 285/320/35 277/312/35 284/318/35
f 285/320/5 284/318/5 286/319/5
f 287/321/18 289/322/18 286/319/18
f 286/319/5 281/316/5 287/321/5
f 286/319/19 290/323/19 288/324/19
f 285/320/5 286/319/5 288/324/5
f 286/319/19 289/322/19 290/323/19
f 290/323/5 289/322/5 293/325/5
f 288/324/20 290/323/20 291/326/20
f 292/327/5 291/326/5 290/323/5
f 292/327/5 290/323/5 294/328/5
f 290/323/5 293/325/5 294/328/5
f 305/329/25 295/330/25 294/328/25
f 294/328/5 295/330/5 301/331/5
f 297/332/26 294/328/26 296/333/26
f 300/334/5 296/333/5 294/328/5
f 305/329/25 294/328/25 297/332/25
f 303/335/5 298/336/5 294/328/5
f 298/336/5 299/337/5 294/328/5
f 299/337/5 300/334/5 294/328/5
f 301/331/5 302/338/5 294/328/5
f 302/338/5 292/327/5 294/328/5
f 294/328/5 293/325/5 304/339/5
f 304/339/5 303/335/5 294/328/5
f 306/340/24 295/330/24 305/329/24
f 307/341/5 306/340/5 305/329/5
f 297/332/5 307/341/5 305/329/5
f 307/341/5 308/342/5 306/340/5
f 307/341/40 311/343/40 308/342/40
f 307/341/40 309/344/40 311/343/40
f 310/345/9 309/344/9 307/341/9
f 297/332/5 310/345/5 307/341/5
f 315/346/8 311/343/8 312/347/8
f 311/343/8 314/348/8 312/347/8
f 308/342/39 311/343/39 313/349/39
f 315/346/8 313/349/8 311/343/8
f 311/343/8 309/344/8 314/348/8
f 316/350/8 313/349/8 315/346/8
f 315/346/38 318/351/38 316/350/38
f 312/347/39 317/352/39 315/346/39
f 315/346/38 317/352/38 318/351/38
f 319/353/59 318/351/59 317/352/59
f 321/354/60 318/351/60 319/353/60
f 321/354/60 320/355/60 318/351/60
f 316/350/37 318/351/37 320/355/37
f 321/354/61 326/356/61 322/357/61
f 324/358/62 321/354/62 322/357/62
f 324/358/62 323/359/62 321/354/62
f 325/360/63 321/354/63 323/359/63
f 325/360/63 320/355/63 321/354/63
f 321/354/61 319/353/61 326/356/61
f 326/356/37 329/361/37 322/357/37
f 319/353/64 327/362/64 326/356/64
f 327/362/38 328/363/38 326/356/38
f 326/356/37 328/363/37 329/361/37
f 328/364/5 329/365/5 332/366/5
f 329/367/37 328/368/37 333/369/37
f 322/357/36 329/361/36 330/370/36
f 329/365/5 330/371/5 332/366/5
f 330/372/36 329/367/36 331/373/36
f 329/367/37 333/369/37 331/373/37
f 333/369/60 336/374/60 331/373/60
f 333/369/60 334/375/60 336/374/60
f 335/376/59 334/375/59 333/369/59
f 328/368/38 335/376/38 333/369/38
f 339/377/63 331/373/63 336/374/63
f 336/374/62 340/378/62 337/379/62
f 339/377/63 336/374/63 337/379/63
f 336/374/62 338/380/62 340/378/62
f 336/374/61 341/381/61 338/380/61
f 336/374/61 334/375/61 341/381/61
f 334/375/64 342/382/64 341/381/64
f 338/380/37 341/381/37 343/383/37
f 341/381/38 342/382/38 344/384/38
f 341/381/38 344/384/38 343/383/38
f 343/383/5 344/384/5 345/385/5
f 344/384/5 347/386/5 345/385/5
f 344/384/5 346/387/5 347/386/5
f 342/382/39 346/387/39 344/384/39
f 350/388/5 347/386/5 346/387/5
f 345/385/39 347/386/39 348/389/39
f 347/386/40 351/390/40 348/389/40
f 347/386/40 349/391/40 351/390/40
f 350/388/5 349/391/5 347/386/5
f 354/392/8 352/393/8 351/390/8
f 355/394/8 351/390/8 352/393/8
f 355/394/8 348/389/8 351/390/8
f 349/391/9 353/395/9 351/390/9
f 354/392/8 351/390/8 353/395/8
f 358/396/8 356/397/8 355/394/8
f 356/397/8 348/389/8 355/394/8
f 355/394/8 352/393/8 359/398/8
f 360/399/8 245/273/8 355/394/8
f 245/273/8 357/400/8 355/394/8
f 357/400/8 358/396/8 355/394/8
f 355/394/8 359/398/8 361/401/8
f 156/169/8 360/399/8 355/394/8
f 355/394/8 361/401/8 156/169/8
f 362/402/8 361/401/8 359/398/8
f 362/402/8 364/403/8 361/401/8
f 363/404/8 361/401/8 364/403/8
f 361/401/8 363/404/8 365/405/8
f 365/405/8 366/406/8 361/401/8
f 366/406/8 367/407/8 361/401/8
f 361/401/8 367/407/8 156/169/8
f 367/407/8 366/406/8 370/408/8
f 367/407/8 368/409/8 156/169/8
f 367/407/8 371/410/8 368/409/8
f 367/407/8 369/411/8 371/410/8
f 367/407/8 370/408/8 369/411/8
f 374/412/8 368/409/8 371/410/8
f 375/413/20 371/410/20 369/411/20
f 375/413/20 372/414/20 371/410/20
f 372/414/21 373/415/21 371/410/21
f 374/412/8 371/410/8 373/415/8
f 376/416/19 375/413/19 369/411/19
f 377/417/5 375/413/5 376/416/5
f 378/418/5 372/414/5 375/413/5
f 378/418/5 375/413/5 377/417/5
f 381/419/20 378/418/20 377/417/20
f 379/420/5 372/414/5 378/418/5
f 380/421/21 379/420/21 378/418/21
f 381/419/20 380/421/20 378/418/20
f 384/422/65 382/423/65 381/419/65
f 382/423/66 380/421/66 381/419/66
f 383/424/19 381/419/19 377/417/19
f 384/422/65 381/419/65 383/424/65
f 385/425/67 384/422/67 386/426/67
f 387/427/68 384/422/68 385/425/68
f 386/426/69 384/422/69 383/424/69
f 387/427/68 382/423/68 384/422/68
f 390/428/19 387/427/19 385/425/19
f 388/429/70 382/423/70 387/427/70
f 389/430/20 388/429/20 387/427/20
f 390/428/19 389/430/19 387/427/19
f 394/431/19 389/432/19 390/433/19
f 389/434/5 390/435/5 393/436/5
f 392/437/18 390/433/18 391/438/18
f 390/435/5 391/439/5 393/436/5
f 391/440/18 390/428/18 385/425/18
f 394/431/19 390/433/19 392/437/19
f 397/441/65 394/431/65 392/437/65
f 397/441/65 395/442/65 394/431/65
f 395/442/66 396/443/66 394/431/66
f 396/443/20 389/432/20 394/431/20
f 398/444/69 397/441/69 392/437/69
f 398/444/67 399/445/67 397/441/67
f 397/441/68 399/445/68 400/446/68
f 397/441/68 400/446/68 395/442/68
f 395/442/70 400/446/70 401/447/70
f 402/448/19 400/446/19 399/445/19
f 403/449/20 401/447/20 400/446/20
f 403/449/20 400/446/20 402/448/20
f 406/450/8 403/449/8 402/448/8
f 405/451/8 404/452/8 403/449/8
f 404/452/21 401/447/21 403/449/21
f 406/450/8 405/451/8 403/449/8
f 407/453/19 406/450/19 408/454/19
f 409/455/20 406/450/20 407/453/20
f 408/454/8 406/450/8 402/448/8
f 409/455/20 405/451/20 406/450/20
f 409/455/5 413/456/5 410/457/5
f 412/458/5 409/455/5 410/457/5
f 409/455/5 407/453/5 413/456/5
f 411/459/21 405/451/21 409/455/21
f 412/458/5 411/459/5 409/455/5
f 414/460/35 415/461/35 413/456/35
f 413/456/5 416/462/5 414/460/5
f 413/456/36 417/463/36 410/457/36
f 413/456/5 407/453/5 416/462/5
f 413/456/36 415/461/36 417/463/36
f 418/464/5 417/463/5 415/461/5
f 410/457/37 417/463/37 418/464/37
f 412/458/38 418/464/38 419/465/38
f 421/466/5 419/465/5 418/464/5
f 410/457/37 418/464/37 412/458/37
f 304/339/5 418/464/5 303/335/5
f 304/339/5 420/467/5 418/464/5
f 420/467/5 421/466/5 418/464/5
f 415/461/5 422/468/5 418/464/5
f 422/468/5 303/335/5 418/464/5
f 423/469/34 303/335/34 422/468/34
f 414/460/35 422/468/35 415/461/35
f 423/469/34 422/468/34 414/460/34
f 424/470/33 303/335/33 423/469/33
f 425/471/5 424/470/5 423/469/5
f 414/460/5 425/471/5 423/469/5
f 425/471/5 426/472/5 424/470/5
f 425/471/17 428/473/17 426/472/17
f 425/471/17 427/474/17 428/473/17
f 416/462/18 427/474/18 425/471/18
f 414/460/5 416/462/5 425/471/5
f 426/472/16 428/473/16 429/475/16
f 429/475/8 428/473/8 430/476/8
f 430/476/8 428/473/8 427/474/8
f 429/475/8 430/476/8 431/477/8
f 430/476/16 434/478/16 431/477/16
f 430/476/8 427/474/8 432/479/8
f 432/479/17 433/480/17 430/476/17
f 430/476/16 433/480/16 434/478/16
f 436/481/71 434/478/71 435/482/71
f 434/478/72 437/483/72 435/482/72
f 431/477/15 434/478/15 436/481/15
f 434/478/72 433/480/72 437/483/72
f 437/483/73 440/484/73 438/485/73
f 439/486/74 437/483/74 438/485/74
f 439/486/74 435/482/74 437/483/74
f 437/483/75 433/480/75 441/487/75
f 437/483/73 398/444/73 440/484/73
f 437/483/75 441/487/75 398/444/75
f 398/444/67 441/487/67 399/445/67
f 432/479/17 441/487/17 433/480/17
f 442/488/18 399/445/18 441/487/18
f 442/488/18 441/487/18 432/479/18
f 427/474/8 442/488/8 432/479/8
f 408/454/8 402/448/8 442/488/8
f 402/448/19 399/445/19 442/488/19
f 427/474/8 408/454/8 442/488/8
f 440/484/17 443/489/17 438/485/17
f 398/444/69 392/437/69 440/484/69
f 392/437/18 391/438/18 440/484/18
f 440/484/17 391/438/17 443/489/17
f 391/439/5 443/490/5 393/436/5
f 443/491/17 391/440/17 445/492/17
f 438/485/16 443/489/16 393/493/16
f 393/494/16 443/491/16 444/495/16
f 443/491/17 445/492/17 444/495/17
f 445/492/75 446/496/75 444/495/75
f 445/492/75 386/426/75 446/496/75
f 385/425/67 386/426/67 445/492/67
f 391/440/18 385/425/18 445/492/18
f 449/497/72 444/495/72 446/496/72
f 446/496/74 450/498/74 447/499/74
f 449/497/72 446/496/72 447/499/72
f 446/496/74 448/500/74 450/498/74
f 446/496/73 451/501/73 448/500/73
f 446/496/73 386/426/73 451/501/73
f 386/426/69 383/424/69 451/501/69
f 448/500/17 451/501/17 452/502/17
f 451/501/18 383/424/18 453/503/18
f 451/501/18 453/503/18 452/502/18
f 453/503/5 454/504/5 452/502/5
f 377/417/5 376/416/5 453/503/5
f 383/424/19 377/417/19 453/503/19
f 453/503/5 376/416/5 454/504/5
f 456/505/17 454/504/17 455/506/17
f 454/504/18 370/408/18 455/506/18
f 457/507/5 454/504/5 456/505/5
f 454/504/18 376/416/18 370/408/18
f 457/507/5 452/502/5 454/504/5
f 457/507/5 459/508/5 458/509/5
f 450/498/16 457/507/16 458/509/16
f 448/500/17 452/502/17 457/507/17
f 457/507/5 456/505/5 459/508/5
f 450/498/16 448/500/16 457/507/16
f 460/510/15 459/508/15 364/403/15
f 459/508/16 461/511/16 364/403/16
f 462/512/5 459/508/5 460/510/5
f 459/508/16 456/505/16 461/511/16
f 462/512/5 458/509/5 459/508/5
f 463/513/5 462/512/5 460/510/5
f 465/514/14 462/512/14 463/513/14
f 464/515/15 458/509/15 462/512/15
f 465/514/14 464/515/14 462/512/14
f 466/516/76 465/514/76 467/517/76
f 466/516/77 464/515/77 465/514/77
f 467/517/13 465/514/13 463/513/13
f 468/518/78 467/517/78 469/519/78
f 466/516/76 467/517/76 468/518/76
f 469/519/12 467/517/12 470/520/12
f 467/517/13 463/513/13 470/520/13
f 471/521/5 470/520/5 472/522/5
f 469/519/12 470/520/12 471/521/12
f 463/513/5 472/522/5 470/520/5
f 474/523/12 472/522/12 473/524/12
f 472/522/13 476/525/13 473/524/13
f 471/521/5 472/522/5 474/523/5
f 472/522/13 475/526/13 476/525/13
f 463/513/5 475/526/5 472/522/5
f 477/527/8 476/525/8 478/528/8
f 479/529/8 476/525/8 477/527/8
f 479/529/8 473/524/8 476/525/8
f 475/526/14 478/528/14 476/525/14
f 359/398/8 473/524/8 479/529/8
f 359/398/8 479/529/8 477/527/8
f 475/526/14 460/510/14 478/528/14
f 460/510/15 364/403/15 478/528/15
f 362/402/8 478/528/8 364/403/8
f 477/527/8 478/528/8 362/402/8
f 477/527/8 362/402/8 359/398/8
f 463/513/5 460/510/5 475/526/5
f 482/530/5 471/521/5 474/523/5
f 481/531/11 474/523/11 480/532/11
f 474/523/12 473/524/12 480/532/12
f 482/530/5 474/523/5 481/531/5
f 482/530/5 481/531/5 486/533/5
f 482/530/5 486/533/5 483/534/5
f 485/535/10 482/530/10 483/534/10
f 484/536/11 471/521/11 482/530/11
f 485/535/10 484/536/10 482/530/10
f 483/534/5 486/533/5 349/391/5
f 349/391/9 486/533/9 353/395/9
f 486/533/10 487/537/10 353/395/10
f 486/533/10 481/531/10 487/537/10
f 488/538/8 487/537/8 480/532/8
f 488/538/8 353/395/8 487/537/8
f 481/531/11 480/532/11 487/537/11
f 488/538/8 354/392/8 353/395/8
f 354/392/8 488/538/8 359/398/8
f 488/538/8 480/532/8 359/398/8
f 489/539/79 485/535/79 490/540/79
f 491/541/80 485/535/80 489/539/80
f 490/540/9 485/535/9 483/534/9
f 491/541/80 484/536/80 485/535/80
f 492/542/81 491/541/81 489/539/81
f 494/543/82 491/541/82 492/542/82
f 493/544/83 484/536/83 491/541/83
f 494/543/82 493/544/82 491/541/82
f 497/545/11 494/543/11 492/542/11
f 494/543/84 468/518/84 493/544/84
f 494/543/84 495/546/84 468/518/84
f 496/547/12 495/546/12 494/543/12
f 497/545/11 496/547/11 494/543/11
f 500/548/11 496/549/11 497/550/11
f 496/551/5 497/552/5 498/553/5
f 499/554/10 497/550/10 498/555/10
f 498/556/10 497/545/10 492/542/10
f 500/548/11 497/550/11 499/554/11
f 503/557/83 500/548/83 499/554/83
f 500/548/78 501/558/78 504/559/78
f 503/557/83 501/558/83 500/548/83
f 500/548/78 504/559/78 502/560/78
f 502/560/12 496/549/12 500/548/12
f 502/560/76 504/559/76 506/561/76
f 507/562/84 504/559/84 501/558/84
f 507/562/84 505/563/84 504/559/84
f 505/563/85 506/561/85 504/559/85
f 508/564/82 507/562/82 501/558/82
f 509/565/11 507/562/11 508/564/11
f 510/566/12 505/563/12 507/562/12
f 510/566/12 507/562/12 509/565/12
f 509/565/8 512/567/8 510/566/8
f 512/567/8 511/568/8 510/566/8
f 511/568/13 505/563/13 510/566/13
f 513/569/12 512/567/12 514/570/12
f 516/571/13 512/567/13 513/569/13
f 509/565/8 514/570/8 512/567/8
f 516/571/13 515/572/13 512/567/13
f 512/567/8 515/572/8 511/568/8
f 518/573/5 516/571/5 517/574/5
f 516/571/5 519/575/5 517/574/5
f 516/571/5 513/569/5 519/575/5
f 518/573/14 515/572/14 516/571/14
f 513/569/5 520/576/5 519/575/5
f 520/576/28 299/337/28 519/575/28
f 519/575/29 298/336/29 517/574/29
f 519/575/29 299/337/29 298/336/29
f 513/569/5 521/577/5 520/576/5
f 521/577/5 522/578/5 520/576/5
f 522/578/27 300/334/27 520/576/27
f 520/576/28 300/334/28 299/337/28
f 522/578/5 523/579/5 310/345/5
f 521/577/5 523/579/5 522/578/5
f 297/332/26 296/333/26 522/578/26
f 522/578/5 310/345/5 297/332/5
f 522/578/27 296/333/27 300/334/27
f 523/579/10 525/580/10 310/345/10
f 523/579/10 524/581/10 525/580/10
f 521/577/11 524/581/11 523/579/11
f 309/344/8 525/580/8 526/582/8
f 525/580/8 527/583/8 526/582/8
f 310/345/9 525/580/9 309/344/9
f 525/580/8 524/581/8 527/583/8
f 527/583/8 524/581/8 514/570/8
f 527/583/10 528/584/10 526/582/10
f 527/583/8 514/570/8 509/565/8
f 509/565/11 508/564/11 527/583/11
f 527/583/10 508/564/10 528/584/10
f 530/585/86 528/584/86 529/586/86
f 528/584/81 503/557/81 529/586/81
f 526/582/9 528/584/9 530/585/9
f 528/584/81 508/564/81 503/557/81
f 530/585/86 529/586/86 531/587/86
f 533/588/87 530/585/87 531/587/87
f 533/588/87 532/589/87 530/585/87
f 314/348/40 530/585/40 532/589/40
f 526/582/9 530/585/9 314/348/9
f 535/590/88 533/588/88 534/591/88
f 533/588/89 536/592/89 534/591/89
f 535/590/90 532/589/90 533/588/90
f 533/588/89 531/587/89 536/592/89
f 536/592/40 332/593/40 534/591/40
f 536/592/79 531/587/79 529/586/79
f 536/592/79 529/586/79 537/594/79
f 537/594/9 538/595/9 536/592/9
f 536/592/40 538/595/40 332/593/40
f 537/594/9 498/555/9 538/595/9
f 498/553/5 538/596/5 496/551/5
f 538/597/9 498/556/9 540/598/9
f 538/596/5 332/366/5 496/551/5
f 332/599/40 538/597/40 539/600/40
f 538/597/9 540/598/9 539/600/9
f 539/600/86 540/598/86 489/539/86
f 492/542/81 489/539/81 540/598/81
f 498/556/10 492/542/10 540/598/10
f 539/600/87 543/601/87 541/602/87
f 332/599/40 539/600/40 541/602/40
f 539/600/87 542/603/87 543/601/87
f 539/600/86 489/539/86 542/603/86
f 541/602/90 543/601/90 544/604/90
f 544/604/88 543/601/88 545/605/88
f 543/601/89 490/540/89 545/605/89
f 543/601/89 542/603/89 490/540/89
f 342/382/39 545/605/39 346/387/39
f 544/604/88 545/605/88 342/382/88
f 545/605/40 490/540/40 350/388/40
f 545/605/40 350/388/40 346/387/40
f 335/376/59 544/604/59 334/375/59
f 541/602/90 544/604/90 335/376/90
f 334/375/64 544/604/64 342/382/64
f 489/539/79 490/540/79 542/603/79
f 546/606/39 541/602/39 335/376/39
f 546/606/39 332/599/39 541/602/39
f 534/591/39 332/593/39 546/607/39
f 332/366/5 546/608/5 328/364/5
f 327/362/38 546/607/38 328/363/38
f 328/368/38 546/606/38 335/376/38
f 534/591/39 546/607/39 327/362/39
f 529/586/80 499/554/80 537/594/80
f 499/554/10 498/555/10 537/594/10
f 319/353/64 535/590/64 327/362/64
f 535/590/88 534/591/88 327/362/88
f 319/353/59 317/352/59 535/590/59
f 535/590/90 317/352/90 532/589/90
f 312/347/39 532/589/39 317/352/39
f 314/348/40 532/589/40 312/347/40
f 529/586/80 503/557/80 499/554/80
f 309/344/8 526/582/8 314/348/8
f 521/577/11 514/570/11 524/581/11
f 513/569/12 514/570/12 521/577/12
f 518/573/14 547/609/14 515/572/14
f 548/610/15 547/609/15 518/573/15
f 548/610/5 518/573/5 549/611/5
f 518/573/5 517/574/5 549/611/5
f 517/574/30 551/612/30 549/611/30
f 549/611/31 552/613/31 550/614/31
f 548/610/5 549/611/5 550/614/5
f 549/611/31 551/612/31 552/613/31
f 552/613/5 551/612/5 303/335/5
f 550/614/32 552/613/32 553/615/32
f 303/335/5 553/615/5 552/613/5
f 424/470/33 553/615/33 303/335/33
f 550/614/32 553/615/32 424/470/32
f 517/574/30 298/336/30 551/612/30
f 551/612/5 298/336/5 303/335/5
f 424/470/5 548/610/5 550/614/5
f 548/610/15 429/475/15 547/609/15
f 426/472/16 429/475/16 548/610/16
f 424/470/5 426/472/5 548/610/5
f 511/568/8 515/572/8 547/609/8
f 554/616/8 547/609/8 429/475/8
f 511/568/8 547/609/8 554/616/8
f 554/616/14 555/617/14 511/568/14
f 554/616/8 429/475/8 431/477/8
f 431/477/15 436/481/15 554/616/15
f 554/616/14 436/481/14 555/617/14
f 506/561/91 555/617/91 436/481/91
f 505/563/85 555/617/85 506/561/85
f 511/568/13 555/617/13 505/563/13
f 508/564/82 501/558/82 503/557/82
f 506/561/77 558/618/77 556/619/77
f 502/560/76 506/561/76 556/619/76
f 506/561/77 557/620/77 558/618/77
f 506/561/91 436/481/91 557/620/91
f 558/618/14 560/621/14 556/619/14
f 558/618/92 557/620/92 435/482/92
f 558/618/92 435/482/92 439/486/92
f 439/486/15 559/622/15 558/618/15
f 558/618/14 559/622/14 560/621/14
f 393/436/5 559/623/5 560/624/5
f 560/625/14 559/626/14 563/627/14
f 556/619/13 560/621/13 561/628/13
f 560/624/5 561/629/5 393/436/5
f 561/630/13 560/625/13 562/631/13
f 560/625/14 563/627/14 562/631/14
f 563/627/91 466/516/91 562/631/91
f 563/627/91 564/632/91 466/516/91
f 563/627/71 447/499/71 564/632/71
f 563/627/71 449/497/71 447/499/71
f 559/626/15 449/497/15 563/627/15
f 466/516/77 564/632/77 464/515/77
f 447/499/92 464/515/92 564/632/92
f 495/546/85 562/631/85 466/516/85
f 561/630/13 562/631/13 495/546/13
f 502/560/12 561/628/12 496/549/12
f 561/629/5 496/551/5 393/436/5
f 496/547/12 561/630/12 495/546/12
f 556/619/13 561/628/13 502/560/13
f 439/486/15 393/493/15 559/622/15
f 559/626/15 393/494/15 449/497/15
f 436/481/71 435/482/71 557/620/71
f 393/436/5 496/551/5 332/366/5
f 495/546/85 466/516/85 468/518/85
f 493/544/83 469/519/83 484/536/83
f 468/518/78 469/519/78 493/544/78
f 490/540/9 483/534/9 350/388/9
f 484/536/11 469/519/11 471/521/11
f 483/534/5 349/391/5 350/388/5
f 359/398/8 480/532/8 473/524/8
f 447/499/92 450/498/92 464/515/92
f 464/515/15 450/498/15 458/509/15
f 363/404/8 364/403/8 461/511/8
f 456/505/17 455/506/17 461/511/17
f 363/404/8 461/511/8 455/506/8
f 366/406/8 455/506/8 370/408/8
f 366/406/8 365/405/8 455/506/8
f 363/404/8 455/506/8 365/405/8
f 393/494/16 444/495/16 449/497/16
f 438/485/16 393/493/16 439/486/16
f 416/462/18 408/454/18 427/474/18
f 566/633/39 419/465/39 421/466/39
f 565/634/40 421/466/40 420/467/40
f 566/633/39 421/466/39 565/634/39
f 566/633/5 567/635/5 411/459/5
f 568/636/5 567/635/5 566/633/5
f 412/458/38 419/465/38 566/633/38
f 566/633/5 411/459/5 412/458/5
f 568/636/5 566/633/5 565/634/5
f 570/637/5 568/636/5 565/634/5
f 568/636/23 571/638/23 567/635/23
f 568/636/23 569/639/23 571/638/23
f 570/637/24 569/639/24 568/636/24
f 567/635/22 571/638/22 572/640/22
f 572/640/8 571/638/8 573/641/8
f 573/641/8 571/638/8 569/639/8
f 572/640/8 573/641/8 404/452/8
f 573/641/22 576/642/22 404/452/22
f 573/641/8 569/639/8 574/643/8
f 574/643/23 575/644/23 573/641/23
f 573/641/22 575/644/22 576/642/22
f 576/642/93 579/645/93 577/646/93
f 578/647/94 576/642/94 577/646/94
f 578/647/94 401/447/94 576/642/94
f 404/452/21 576/642/21 401/447/21
f 576/642/93 575/644/93 579/645/93
f 577/646/95 579/645/95 580/648/95
f 579/645/96 582/649/96 580/648/96
f 575/644/97 581/650/97 579/645/97
f 579/645/96 581/650/96 582/649/96
f 582/649/23 584/651/23 580/648/23
f 581/650/98 583/652/98 582/649/98
f 583/652/24 188/653/24 582/649/24
f 582/649/23 188/653/23 584/651/23
f 188/210/5 584/654/5 585/655/5
f 584/656/23 188/657/23 587/658/23
f 580/648/22 584/651/22 585/659/22
f 585/660/22 584/656/22 586/661/22
f 584/656/23 587/658/23 586/661/23
f 587/658/97 590/662/97 586/661/97
f 587/658/97 588/663/97 590/662/97
f 589/664/99 588/663/99 587/658/99
f 188/657/24 589/664/24 587/658/24
f 586/661/93 590/662/93 591/665/93
f 590/662/95 593/666/95 591/665/95
f 590/662/95 592/667/95 593/666/95
f 588/663/96 592/667/96 590/662/96
f 595/668/100 591/665/100 593/666/100
f 380/421/21 593/666/21 379/420/21
f 595/668/100 593/666/100 380/421/100
f 593/666/22 592/667/22 594/669/22
f 593/666/22 594/669/22 379/420/22
f 388/429/70 595/668/70 382/423/70
f 596/670/94 595/668/94 388/429/94
f 382/423/66 595/668/66 380/421/66
f 596/670/94 591/665/94 595/668/94
f 597/671/21 596/670/21 388/429/21
f 586/661/93 591/665/93 596/670/93
f 585/660/22 586/661/22 596/670/22
f 597/671/21 585/660/21 596/670/21
f 598/672/21 585/659/21 597/673/21
f 585/655/5 597/674/5 188/210/5
f 396/443/20 597/673/20 389/432/20
f 597/674/5 389/434/5 188/210/5
f 389/430/20 597/671/20 388/429/20
f 598/672/21 597/673/21 396/443/21
f 578/647/100 598/672/100 396/443/100
f 578/647/100 577/646/100 598/672/100
f 577/646/95 580/648/95 598/672/95
f 580/648/22 585/659/22 598/672/22
f 594/669/5 601/675/5 379/420/5
f 594/669/5 599/676/5 602/677/5
f 592/667/23 599/676/23 594/669/23
f 594/669/5 600/678/5 601/675/5
f 594/669/5 602/677/5 600/678/5
f 600/678/23 602/677/23 603/679/23
f 602/677/24 155/173/24 603/679/24
f 602/677/24 160/174/24 155/173/24
f 599/676/5 160/174/5 602/677/5
f 156/169/8 603/679/8 155/173/8
f 605/680/8 603/679/8 156/169/8
f 605/680/8 604/681/8 603/679/8
f 600/678/23 603/679/23 604/681/23
f 605/680/8 373/415/8 604/681/8
f 605/680/8 374/412/8 373/415/8
f 374/412/8 605/680/8 156/169/8
f 601/675/22 604/681/22 373/415/22
f 601/675/22 600/678/22 604/681/22
f 372/414/21 601/675/21 373/415/21
f 379/420/5 601/675/5 372/414/5
f 599/676/5 606/682/5 160/174/5
f 607/683/24 606/682/24 599/676/24
f 592/667/23 607/683/23 599/676/23
f 588/663/96 607/683/96 592/667/96
f 588/663/98 608/684/98 607/683/98
f 607/683/24 608/684/24 606/682/24
f 588/663/98 609/685/98 608/684/98
f 611/686/101 608/684/101 609/685/101
f 611/686/101 177/193/101 608/684/101
f 608/684/25 177/193/25 610/687/25
f 608/684/25 610/687/25 606/682/25
f 589/664/102 182/198/102 611/686/102
f 182/198/46 176/192/46 611/686/46
f 589/664/102 611/686/102 609/685/102
f 176/192/41 177/193/41 611/686/41
f 610/687/5 160/174/5 606/682/5
f 172/188/5 158/175/5 610/687/5
f 177/193/26 172/188/26 610/687/26
f 610/687/5 158/175/5 160/174/5
f 589/664/99 609/685/99 588/663/99
f 185/211/25 182/198/25 589/664/25
f 188/657/24 185/211/24 589/664/24
f 581/650/98 612/688/98 583/652/98
f 583/652/101 612/688/101 613/689/101
f 186/207/25 185/208/25 583/652/25
f 583/652/101 613/689/101 186/207/101
f 583/652/24 185/208/24 188/653/24
f 186/207/41 613/689/41 191/213/41
f 614/690/102 613/689/102 612/688/102
f 614/690/102 197/219/102 613/689/102
f 197/219/46 191/213/46 613/689/46
f 581/650/99 614/690/99 612/688/99
f 617/691/25 197/219/25 614/690/25
f 581/650/99 615/692/99 614/690/99
f 616/693/24 614/690/24 615/692/24
f 617/691/25 614/690/25 616/693/25
f 619/694/8 617/691/8 616/693/8
f 618/695/8 198/220/8 617/691/8
f 198/220/26 197/219/26 617/691/26
f 619/694/8 618/695/8 617/691/8
f 570/637/24 619/694/24 569/639/24
f 620/696/25 619/694/25 570/637/25
f 620/696/25 618/695/25 619/694/25
f 574/643/8 569/639/8 619/694/8
f 574/643/8 619/694/8 616/693/8
f 620/696/5 570/637/5 623/697/5
f 621/698/26 618/695/26 620/696/26
f 624/699/5 621/698/5 620/696/5
f 624/699/5 620/696/5 622/700/5
f 620/696/5 623/697/5 622/700/5
f 622/700/10 626/701/10 624/699/10
f 624/699/11 627/702/11 625/703/11
f 625/703/5 621/698/5 624/699/5
f 624/699/11 626/701/11 627/702/11
f 627/702/5 626/701/5 304/339/5
f 625/703/12 627/702/12 628/704/12
f 628/704/5 627/702/5 304/339/5
f 630/705/13 628/704/13 629/706/13
f 629/706/5 628/704/5 304/339/5
f 625/703/12 628/704/12 630/705/12
f 204/226/5 625/703/5 630/705/5
f 630/705/13 629/706/13 631/707/13
f 631/707/5 204/226/5 630/705/5
f 631/707/14 633/708/14 632/709/14
f 632/709/5 206/227/5 631/707/5
f 631/707/5 206/227/5 204/226/5
f 631/707/14 629/706/14 633/708/14
f 634/710/5 633/708/5 629/706/5
f 632/709/15 633/708/15 634/710/15
f 636/711/16 634/710/16 635/712/16
f 293/325/5 635/712/5 634/710/5
f 632/709/15 634/710/15 636/711/15
f 293/325/5 634/710/5 629/706/5
f 637/713/5 632/709/5 636/711/5
f 638/714/5 637/713/5 636/711/5
f 636/711/16 635/712/16 638/714/16
f 638/714/5 639/715/5 637/713/5
f 281/316/5 639/715/5 638/714/5
f 638/714/17 293/325/17 287/321/17
f 281/316/5 638/714/5 287/321/5
f 638/714/17 635/712/17 293/325/17
f 639/715/32 640/716/32 637/713/32
f 639/715/32 282/317/32 640/716/32
f 281/316/33 282/317/33 639/715/33
f 208/231/8 640/716/8 641/717/8
f 640/716/8 283/315/8 641/717/8
f 637/713/31 640/716/31 642/718/31
f 208/231/8 642/718/8 640/716/8
f 640/716/8 282/317/8 283/315/8
f 643/719/30 642/718/30 205/228/30
f 637/713/31 642/718/31 643/719/31
f 205/228/8 642/718/8 208/231/8
f 632/709/5 643/719/5 206/227/5
f 637/713/5 643/719/5 632/709/5
f 643/719/30 205/228/30 206/227/30
f 641/717/31 212/235/31 208/231/31
f 283/315/32 272/305/32 641/717/32
f 641/717/31 272/305/31 212/235/31
f 293/325/5 629/706/5 304/339/5
f 622/700/10 304/339/10 626/701/10
f 625/703/5 644/720/5 621/698/5
f 204/226/5 644/720/5 625/703/5
f 644/720/27 202/222/27 621/698/27
f 644/720/27 201/225/27 202/222/27
f 204/226/28 201/225/28 644/720/28
f 623/697/9 304/339/9 622/700/9
f 570/637/5 565/634/5 623/697/5
f 565/634/40 420/467/40 623/697/40
f 623/697/9 420/467/9 304/339/9
f 621/698/26 202/222/26 618/695/26
f 618/695/8 202/222/8 198/220/8
f 616/693/24 615/692/24 574/643/24
f 575/644/97 615/692/97 581/650/97
f 574/643/23 615/692/23 575/644/23
f 395/442/66 578/647/66 396/443/66
f 395/442/70 401/447/70 578/647/70
f 411/459/21 572/640/21 405/451/21
f 567/635/22 572/640/22 411/459/22
f 405/451/8 572/640/8 404/452/8
f 407/453/19 408/454/19 416/462/19
f 188/210/5 389/434/5 393/436/5
f 188/210/5 393/436/5 332/366/5
f 376/416/19 369/411/19 370/408/19
f 368/409/8 374/412/8 156/169/8
f 165/180/8 645/721/8 360/399/8
f 645/721/8 235/264/8 360/399/8
f 239/267/8 360/399/8 235/264/8
f 360/399/8 239/267/8 243/272/8
f 165/180/8 360/399/8 156/169/8
f 360/399/8 243/272/8 245/273/8
f 645/721/8 165/180/8 168/185/8
f 645/721/8 646/722/8 235/264/8
f 645/721/8 168/185/8 646/722/8
f 233/259/30 646/722/30 168/185/30
f 233/259/30 232/262/30 646/722/30
f 232/262/31 235/264/31 646/722/31
f 352/393/8 354/392/8 359/398/8
f 358/396/8 357/400/8 248/277/8
f 358/396/8 648/723/8 356/397/8
f 358/396/8 647/724/8 648/723/8
f 358/396/8 248/277/8 647/724/8
f 649/725/38 648/723/38 647/724/38
f 649/725/38 345/385/38 648/723/38
f 345/385/39 348/389/39 648/723/39
f 356/397/8 648/723/8 348/389/8
f 343/383/5 649/725/5 650/726/5
f 343/383/5 345/385/5 649/725/5
f 650/726/37 649/725/37 647/724/37
f 252/281/5 651/727/5 650/726/5
f 343/383/5 650/726/5 651/727/5
f 247/276/36 650/726/36 248/277/36
f 650/726/37 647/724/37 248/277/37
f 252/281/5 650/726/5 247/276/5
f 340/378/36 651/727/36 252/281/36
f 338/380/37 343/383/37 651/727/37
f 340/378/36 338/380/36 651/727/36
f 245/273/8 248/277/8 357/400/8
f 652/728/103 337/379/103 340/378/103
f 253/282/35 340/378/35 252/281/35
f 652/728/103 340/378/103 253/282/103
f 262/291/58 652/728/58 255/284/58
f 339/377/104 652/728/104 262/291/104
f 255/284/54 652/728/54 253/282/54
f 339/377/104 337/379/104 652/728/104
f 653/729/35 339/377/35 262/291/35
f 330/372/36 331/373/36 339/377/36
f 653/729/35 330/372/35 339/377/35
f 324/358/35 330/370/35 653/730/35
f 330/371/5 653/731/5 263/296/5
f 268/303/34 653/730/34 263/294/34
f 263/292/34 653/729/34 262/291/34
f 324/358/35 653/730/35 268/303/35
f 332/366/5 330/371/5 189/212/5
f 332/366/5 189/212/5 188/210/5
f 322/357/36 330/370/36 324/358/36
f 330/371/5 263/296/5 189/212/5
f 655/732/104 325/360/104 323/359/104
f 655/732/104 274/308/104 325/360/104
f 278/314/35 325/360/35 274/308/35
f 654/733/36 320/355/36 325/360/36
f 654/733/36 325/360/36 278/314/36
f 267/302/54 655/732/54 268/303/54
f 655/732/103 324/358/103 268/303/103
f 267/302/58 274/308/58 655/732/58
f 655/732/103 323/359/103 324/358/103
f 278/314/8 656/734/8 654/733/8
f 656/734/8 316/350/8 654/733/8
f 316/350/37 320/355/37 654/733/37
f 657/735/36 656/734/36 279/313/36
f 659/736/37 656/734/37 657/735/37
f 278/314/8 279/313/8 656/734/8
f 659/736/37 658/737/37 656/734/37
f 656/734/8 658/737/8 316/350/8
f 661/738/5 659/736/5 657/735/5
f 660/739/38 658/737/38 659/736/38
f 660/739/5 659/736/5 661/738/5
f 662/740/21 292/327/21 661/738/21
f 661/738/5 657/735/5 662/740/5
f 660/739/5 661/738/5 663/741/5
f 661/738/22 302/338/22 663/741/22
f 661/738/22 292/327/22 302/338/22
f 663/741/23 301/331/23 306/340/23
f 308/342/5 663/741/5 306/340/5
f 308/342/5 660/739/5 663/741/5
f 663/741/23 302/338/23 301/331/23
f 288/324/20 291/326/20 662/740/20
f 657/735/5 288/324/5 662/740/5
f 662/740/21 291/326/21 292/327/21
f 660/739/38 313/349/38 658/737/38
f 308/342/39 313/349/39 660/739/39
f 316/350/8 658/737/8 313/349/8
f 657/735/5 285/320/5 288/324/5
f 657/735/36 279/313/36 285/320/36
f 306/340/24 301/331/24 295/330/24
f 287/321/18 293/325/18 289/322/18
f 285/320/35 279/313/35 277/312/35
f 275/309/33 270/306/33 283/315/33
f 283/315/32 270/306/32 272/305/32
f 212/235/51 272/305/51 215/237/51
f 214/236/49 215/237/49 271/304/49
f 271/304/31 664/742/31 214/236/31
f 265/298/32 189/299/32 271/304/32
f 271/304/31 189/299/31 664/742/31
f 189/212/5 664/743/5 218/242/5
f 664/744/31 189/300/31 259/286/31
f 214/236/30 664/742/30 218/241/30
f 218/245/30 664/744/30 223/252/30
f 664/744/31 259/286/31 223/252/31
f 226/253/49 260/289/49 225/255/49
f 225/255/31 260/289/31 231/260/31
f 260/289/32 256/285/32 237/263/32
f 260/289/32 237/263/32 231/260/32
f 223/252/51 259/286/51 226/253/51
f 189/300/32 258/287/32 259/286/32
f 256/285/33 251/279/33 237/263/33
f 237/263/5 251/279/5 241/269/5
f 237/263/5 241/269/5 236/266/5
f 167/184/29 233/259/29 168/185/29
f 229/257/5 233/259/5 167/184/5
f 229/257/5 167/184/5 173/190/5
f 228/256/29 229/257/29 173/190/29
f 180/197/45 228/256/45 174/191/45
f 174/191/28 228/256/28 173/190/28
f 179/196/44 220/249/44 180/197/44
f 187/248/28 220/249/28 179/196/28
f 192/215/45 195/216/45 217/239/45
f 217/239/28 187/247/28 192/215/28
f 192/215/27 187/247/27 183/202/27
f 183/200/27 187/248/27 179/196/27
f 172/188/5 170/186/5 158/175/5
f 158/175/26 170/186/26 159/176/26
f 170/186/27 164/182/27 159/176/27
