# Blender 4.4.0
# www.blender.org
mtllib testObstacle.mtl
o Cube
v 0.942869 0.942869 -1.000000
v 0.942869 1.000000 -0.942869
v 1.000000 0.942869 -0.942869
v 0.942869 0.983267 -0.983267
v 0.975854 0.975854 -0.975854
v 0.983267 0.983267 -0.942869
v 0.983267 0.942869 -0.983267
v 0.942869 -1.000000 -1.000000
v 1.000000 -1.000000 -0.942869
v 0.983267 -1.000000 -0.983267
v 0.942869 1.000000 0.942869
v 0.942869 0.942869 1.000000
v 1.000000 0.942869 0.942869
v 0.942869 0.983267 0.983267
v 0.975854 0.975854 0.975854
v 0.983267 0.942869 0.983267
v 0.983267 0.983267 0.942869
v 1.000000 -1.000000 0.942869
v 0.942869 -1.000000 1.000000
v 0.983267 -1.000000 0.983267
v -0.942869 1.000000 -0.942869
v -0.942869 0.942869 -1.000000
v -1.000000 0.942869 -0.942869
v -0.942869 0.983267 -0.983267
v -0.975854 0.975854 -0.975854
v -0.983267 0.942869 -0.983267
v -0.983267 0.983267 -0.942869
v -1.000000 -1.000000 -0.942869
v -0.942869 -1.000000 -1.000000
v -0.983267 -1.000000 -0.983267
v -0.942869 0.942869 1.000000
v -0.942869 1.000000 0.942869
v -1.000000 0.942869 0.942869
v -0.942869 0.983267 0.983267
v -0.975854 0.975854 0.975854
v -0.983267 0.983267 0.942869
v -0.983267 0.942869 0.983267
v -0.942869 -1.000000 1.000000
v -1.000000 -1.000000 0.942869
v -0.983267 -1.000000 0.983267
vn -0.0000 -1.0000 -0.0000
vn 1.0000 -0.0000 -0.0000
vn -0.0000 -0.0000 1.0000
vn -1.0000 -0.0000 -0.0000
vn -0.0000 1.0000 -0.0000
vn 0.2402 0.2402 -0.9406
vn 0.5774 0.5774 -0.5774
vn 0.6993 0.1479 -0.6993
vn 0.2402 0.9406 -0.2402
vn 0.1479 0.6993 -0.6993
vn 0.9406 0.2402 -0.2402
vn 0.6993 0.6993 -0.1479
vn 0.2402 0.9406 0.2402
vn 0.5774 0.5774 0.5774
vn 0.6993 0.6993 0.1479
vn 0.2402 0.2402 0.9406
vn 0.1479 0.6993 0.6993
vn 0.9406 0.2402 0.2402
vn 0.6993 0.1479 0.6993
vn -0.2402 0.9406 -0.2402
vn -0.5774 0.5774 -0.5774
vn -0.6993 0.6993 -0.1479
vn -0.2402 0.2402 -0.9406
vn -0.1479 0.6993 -0.6993
vn -0.9406 0.2402 -0.2402
vn -0.6993 0.1479 -0.6993
vn -0.2402 0.2402 0.9406
vn -0.5774 0.5774 0.5774
vn -0.6993 0.1479 0.6993
vn -0.2402 0.9406 0.2402
vn -0.1479 0.6993 0.6993
vn -0.9406 0.2402 0.2402
vn -0.6993 0.6993 0.1479
vn 0.3827 -0.0000 0.9239
vn 0.7071 -0.0000 0.7071
vn -0.9239 -0.0000 0.3827
vn -0.7071 -0.0000 0.7071
vn 0.9239 -0.0000 -0.3827
vn 0.7071 -0.0000 -0.7071
vn -0.3827 -0.0000 -0.9239
vn -0.7071 -0.0000 -0.7071
vn -0.0000 -0.0000 -1.0000
vn 0.9239 -0.0000 0.3827
vn -0.3827 -0.0000 0.9239
vn 0.3827 -0.0000 -0.9239
vn -0.9239 -0.0000 -0.3827
vt 0.125000 0.742859
vt 0.132141 0.500000
vt 0.375000 0.742859
vt 0.617859 0.742859
vt 0.375000 0.507141
vt 0.617859 0.507141
vt 0.617859 0.992859
vt 0.375000 0.757141
vt 0.617859 0.757141
vt 0.617859 0.242859
vt 0.375000 0.007141
vt 0.617859 0.007141
vt 0.867859 0.742859
vt 0.632141 0.507141
vt 0.867859 0.507141
vt 0.617859 0.492859
vt 0.623994 0.500000
vt 0.617859 0.500000
vt 0.632141 0.500000
vt 0.625000 0.507141
vt 0.632141 0.742859
vt 0.625000 0.748994
vt 0.625000 0.742859
vt 0.625000 0.757141
vt 0.617859 0.750000
vt 0.871982 0.500000
vt 0.875000 0.507141
vt 0.617859 0.257141
vt 0.621982 0.250000
vt 0.625000 0.257141
vt 0.625000 0.246982
vt 0.617859 0.250000
vt 0.625000 0.996982
vt 0.617859 1.000000
vt 0.875000 0.746982
vt 0.867859 0.750000
vt 0.621982 0.000000
vt 0.625000 0.007141
vt 0.625000 0.492859
vt 0.867859 0.500000
vt 0.375000 0.750000
vt 0.617859 0.000000
vt 0.375000 1.000000
vt 0.375000 0.500000
vt 0.375000 0.257141
vt 0.375000 0.250000
vt 0.625000 0.242859
vt 0.875000 0.742859
vt 0.632141 0.750000
vt 0.625000 0.992859
vt 0.367859 0.500000
vt 0.372908 0.502092
vt 0.372908 0.747908
vt 0.367859 0.750000
vt 0.132141 0.750000
vt 0.127092 0.747908
vt 0.125000 0.507141
vt 0.127092 0.502092
vt 0.375000 0.992859
vt 0.375000 0.242859
vt 0.375000 0.000000
vt 0.375000 0.492859
s 1
usemtl Material.001
f 39/1/1 29/2/1 18/3/1
f 13/4/2 9/5/2 3/6/2
f 31/7/3 19/8/3 12/9/3
f 23/10/4 39/11/4 33/12/4
f 32/13/5 2/14/5 21/15/5
f 1/16/6 5/17/7 7/18/8
f 2/14/9 5/17/7 4/19/10
f 3/6/11 5/17/7 6/20/12
f 11/21/13 15/22/14 17/23/15
f 12/9/16 15/22/14 14/24/17
f 13/4/18 15/22/14 16/25/19
f 21/15/20 25/26/21 27/27/22
f 22/28/23 25/29/21 24/30/24
f 23/10/25 25/31/21 26/32/26
f 31/7/27 35/33/28 37/34/29
f 32/13/30 35/35/28 34/36/31
f 33/12/32 35/37/28 36/38/33
f 22/28/23 4/39/10 1/16/6
f 24/40/24 2/14/9 4/19/10
f 11/21/13 6/20/12 2/14/9
f 17/23/15 3/6/11 6/20/12
f 19/8/34 16/25/19 12/9/16
f 20/41/35 13/4/18 16/25/19
f 39/11/36 37/42/29 33/12/32
f 40/43/37 31/7/27 37/34/29
f 9/5/38 7/18/8 3/6/11
f 10/44/39 1/16/6 7/18/8
f 29/45/40 26/32/26 22/28/23
f 30/46/41 23/10/25 26/32/26
f 33/12/32 27/47/22 23/10/25
f 36/48/33 21/15/20 27/27/22
f 32/13/30 14/49/17 11/21/13
f 34/50/31 12/9/16 14/24/17
f 1/16/42 29/45/42 22/28/42
f 29/2/1 8/51/1 9/5/1
f 8/51/1 10/52/1 9/5/1
f 9/5/1 18/3/1 29/2/1
f 18/3/1 20/53/1 19/54/1
f 19/54/1 38/55/1 39/1/1
f 38/55/1 40/56/1 39/1/1
f 39/1/1 28/57/1 29/2/1
f 28/57/1 30/58/1 29/2/1
f 18/3/1 19/54/1 39/1/1
f 13/4/2 18/3/2 9/5/2
f 31/7/3 38/59/3 19/8/3
f 23/10/4 28/60/4 39/11/4
f 32/13/5 11/21/5 2/14/5
f 1/16/6 4/39/10 5/17/7
f 2/14/9 6/20/12 5/17/7
f 3/6/11 7/18/8 5/17/7
f 11/21/13 14/49/17 15/22/14
f 12/9/16 16/25/19 15/22/14
f 13/4/18 17/23/15 15/22/14
f 21/15/20 24/40/24 25/26/21
f 22/28/23 26/32/26 25/29/21
f 23/10/25 27/47/22 25/31/21
f 31/7/27 34/50/31 35/33/28
f 32/13/30 36/48/33 35/35/28
f 33/12/32 37/42/29 35/37/28
f 22/28/23 24/30/24 4/39/10
f 24/40/24 21/15/20 2/14/9
f 11/21/13 17/23/15 6/20/12
f 17/23/15 13/4/18 3/6/11
f 19/8/34 20/41/35 16/25/19
f 20/41/35 18/3/43 13/4/18
f 39/11/36 40/61/37 37/42/29
f 40/43/37 38/59/44 31/7/27
f 9/5/38 10/44/39 7/18/8
f 10/44/39 8/62/45 1/16/6
f 29/45/40 30/46/41 26/32/26
f 30/46/41 28/60/46 23/10/25
f 33/12/32 36/38/33 27/47/22
f 36/48/33 32/13/30 21/15/20
f 32/13/30 34/36/31 14/49/17
f 34/50/31 31/7/27 12/9/16
f 1/16/42 8/62/42 29/45/42
