# Blender 4.4.0
# www.blender.org
mtllib pistol.mtl
o 立方体.002
v -0.020000 -0.048183 -0.176858
v -0.020000 0.189481 -0.143457
v -0.020000 -0.037049 -0.256080
v -0.020000 0.200615 -0.222678
v 0.020000 -0.048183 -0.176858
v 0.020000 0.189481 -0.143457
v 0.020000 -0.037049 -0.256080
v 0.020000 0.200615 -0.222678
v -0.120000 0.095210 0.517879
v -0.120000 0.435210 0.517879
v -0.120000 0.095210 -0.642121
v -0.120000 0.435210 -0.642121
v 0.120000 0.095210 0.517879
v 0.120000 0.435210 0.517879
v 0.120000 0.095210 -0.642121
v 0.120000 0.435210 -0.642121
v -0.100000 -0.421272 -0.371323
v -0.100000 0.364029 -0.218675
v -0.100000 -0.364029 -0.665811
v -0.100000 0.421272 -0.513164
v 0.100000 -0.421272 -0.371323
v 0.100000 0.364029 -0.218675
v 0.100000 -0.364029 -0.665811
v 0.100000 0.421272 -0.513164
vn -1.0000 -0.0000 -0.0000
vn -0.0000 0.1392 -0.9903
vn 1.0000 -0.0000 -0.0000
vn -0.0000 -0.1392 0.9903
vn -0.0000 -0.9903 -0.1392
vn -0.0000 0.9903 0.1392
vn -0.0000 -0.0000 -1.0000
vn -0.0000 -0.0000 1.0000
vn -0.0000 -1.0000 -0.0000
vn -0.0000 1.0000 -0.0000
vn -0.0000 0.1908 -0.9816
vn -0.0000 -0.1908 0.9816
vn -0.0000 -0.9816 -0.1908
vn -0.0000 0.9816 0.1908
vt 0.625000 0.000000
vt 0.375000 0.250000
vt 0.375000 0.000000
vt 0.625000 0.250000
vt 0.375000 0.500000
vt 0.625000 0.500000
vt 0.375000 0.750000
vt 0.625000 0.750000
vt 0.375000 1.000000
vt 0.125000 0.750000
vt 0.125000 0.500000
vt 0.875000 0.500000
vt 0.625000 1.000000
vt 0.875000 0.750000
s 0
f 2/1/1 3/2/1 1/3/1
f 4/4/2 7/5/2 3/2/2
f 8/6/3 5/7/3 7/5/3
f 6/8/4 1/9/4 5/7/4
f 7/5/5 1/10/5 3/11/5
f 4/12/6 6/8/6 8/6/6
f 10/1/1 11/2/1 9/3/1
f 12/4/7 15/5/7 11/2/7
f 15/5/3 14/8/3 13/7/3
f 14/8/8 9/9/8 13/7/8
f 15/5/9 9/10/9 11/11/9
f 12/12/10 14/8/10 16/6/10
f 17/3/1 20/4/1 19/2/1
f 20/4/11 23/5/11 19/2/11
f 24/6/3 21/7/3 23/5/3
f 22/8/12 17/9/12 21/7/12
f 23/5/13 17/10/13 19/11/13
f 20/12/14 22/8/14 24/6/14
f 2/1/1 4/4/1 3/2/1
f 4/4/2 8/6/2 7/5/2
f 8/6/3 6/8/3 5/7/3
f 6/8/4 2/13/4 1/9/4
f 7/5/5 5/7/5 1/10/5
f 4/12/6 2/14/6 6/8/6
f 10/1/1 12/4/1 11/2/1
f 12/4/7 16/6/7 15/5/7
f 15/5/3 16/6/3 14/8/3
f 14/8/8 10/13/8 9/9/8
f 15/5/9 13/7/9 9/10/9
f 12/12/10 10/14/10 14/8/10
f 17/3/1 18/1/1 20/4/1
f 20/4/11 24/6/11 23/5/11
f 24/6/3 22/8/3 21/7/3
f 22/8/12 18/13/12 17/9/12
f 23/5/13 21/7/13 17/10/13
f 20/12/14 18/14/14 22/8/14
