# Blender 4.4.0
# www.blender.org
mtllib normalEnemy.mtl
o chara
v -0.558061 0.558061 -0.200000
v -0.500000 0.558061 -0.141939
v -0.558061 0.500000 -0.141939
v -0.517006 0.558061 -0.182995
v -0.524539 0.524539 -0.175461
v -0.517006 0.517006 -0.141940
v -0.558061 0.517006 -0.182995
v -0.558061 0.941939 -0.200000
v -0.558061 1.000000 -0.141940
v -0.500000 0.941939 -0.141940
v -0.558061 0.982994 -0.182995
v -0.524539 0.975461 -0.175461
v -0.517006 0.982994 -0.141940
v -0.517006 0.941939 -0.182995
v -0.558061 0.500000 0.941939
v -0.500000 0.558061 0.941939
v -0.558061 0.558061 1.000000
v -0.517006 0.517006 0.941939
v -0.524539 0.524539 0.975461
v -0.517006 0.558061 0.982994
v -0.558061 0.517006 0.982994
v -0.500000 0.941940 0.941939
v -0.558061 1.000000 0.941939
v -0.558061 0.941940 1.000000
v -0.517006 0.982994 0.941939
v -0.524539 0.975461 0.975461
v -0.558061 0.982994 0.982994
v -0.517006 0.941940 0.982994
v -0.941939 0.500000 -0.141939
v -1.000000 0.558061 -0.141939
v -0.941939 0.558061 -0.200000
v -0.982994 0.517006 -0.141940
v -0.975461 0.524539 -0.175461
v -0.982994 0.558061 -0.182995
v -0.941939 0.517006 -0.182995
v -0.941939 0.941939 -0.200000
v -1.000000 0.941939 -0.141940
v -0.941939 1.000000 -0.141940
v -0.982994 0.941939 -0.182995
v -0.975461 0.975461 -0.175461
v -0.982994 0.982994 -0.141940
v -0.941939 0.982994 -0.182995
v -0.941939 0.500000 0.941939
v -0.941939 0.558061 1.000000
v -1.000000 0.558061 0.941939
v -0.941939 0.517006 0.982994
v -0.975461 0.524539 0.975461
v -0.982994 0.558061 0.982994
v -0.982994 0.517006 0.941939
v -1.000000 0.941940 0.941939
v -0.941939 0.941940 1.000000
v -0.941939 1.000000 0.941939
v -0.982994 0.941940 0.982994
v -0.975461 0.975461 0.975461
v -0.941939 0.982994 0.982994
v -0.982994 0.982994 0.941939
v 0.441939 1.058061 -0.500000
v 0.500000 1.058061 -0.441940
v 0.441939 1.000000 -0.441940
v 0.482994 1.058061 -0.482995
v 0.475461 1.024539 -0.475461
v 0.482994 1.017006 -0.441940
v 0.441939 1.017006 -0.482995
v 0.441939 1.941939 -0.500000
v 0.441939 2.000000 -0.441940
v 0.500000 1.941939 -0.441940
v 0.441939 1.982994 -0.482995
v 0.475461 1.975461 -0.475461
v 0.482994 1.982994 -0.441940
v 0.482994 1.941939 -0.482995
v 0.441939 1.000000 0.441939
v 0.500000 1.058061 0.441939
v 0.441939 1.058061 0.500000
v 0.482994 1.017006 0.441939
v 0.475461 1.024539 0.475461
v 0.482994 1.058061 0.482994
v 0.441939 1.017006 0.482994
v 0.500000 1.941939 0.441939
v 0.441939 2.000000 0.441939
v 0.441939 1.941939 0.500000
v 0.482994 1.982994 0.441939
v 0.475461 1.975461 0.475461
v 0.441939 1.982994 0.482994
v 0.482994 1.941939 0.482994
v -0.441939 1.000000 -0.441940
v -0.500000 1.058061 -0.441940
v -0.441939 1.058061 -0.500000
v -0.482994 1.017006 -0.441940
v -0.475461 1.024539 -0.475461
v -0.482994 1.058061 -0.482995
v -0.441939 1.017006 -0.482995
v -0.441939 1.941939 -0.500000
v -0.500000 1.941939 -0.441940
v -0.441939 2.000000 -0.441940
v -0.482994 1.941939 -0.482995
v -0.475461 1.975461 -0.475461
v -0.482994 1.982994 -0.441940
v -0.441939 1.982994 -0.482995
v -0.441939 1.000000 0.441939
v -0.441939 1.058061 0.500000
v -0.500000 1.058061 0.441939
v -0.441939 1.017006 0.482994
v -0.475461 1.024539 0.475461
v -0.482994 1.058061 0.482994
v -0.482994 1.017006 0.441939
v -0.500000 1.941939 0.441939
v -0.441939 1.941939 0.500000
v -0.441939 2.000000 0.441939
v -0.482994 1.941939 0.482994
v -0.475461 1.975461 0.475461
v -0.441939 1.982994 0.482994
v -0.482994 1.982994 0.441939
v 0.691939 -0.941939 -0.350000
v 0.750000 -0.941939 -0.291939
v 0.691939 -1.000000 -0.291939
v 0.732994 -0.941939 -0.332994
v 0.725461 -0.975461 -0.325461
v 0.732994 -0.982994 -0.291939
v 0.691939 -0.982994 -0.332994
v 0.691939 0.941939 -0.350000
v 0.691939 1.000000 -0.291940
v 0.750000 0.941939 -0.291939
v 0.691939 0.982994 -0.332995
v 0.725461 0.975461 -0.325461
v 0.732994 0.982994 -0.291939
v 0.732994 0.941939 -0.332995
v 0.691939 -1.000000 0.291940
v 0.750000 -0.941939 0.291939
v 0.691939 -0.941939 0.350000
v 0.732994 -0.982994 0.291939
v 0.725461 -0.975461 0.325461
v 0.732994 -0.941939 0.332995
v 0.691939 -0.982994 0.332995
v 0.750000 0.941939 0.291939
v 0.691939 1.000000 0.291939
v 0.691939 0.941939 0.350000
v 0.732994 0.982994 0.291939
v 0.725461 0.975461 0.325461
v 0.691939 0.982994 0.332994
v 0.732994 0.941939 0.332994
v -0.691939 -1.000000 -0.291939
v -0.750000 -0.941939 -0.291939
v -0.691939 -0.941939 -0.350000
v -0.732994 -0.982994 -0.291939
v -0.725461 -0.975461 -0.325461
v -0.732994 -0.941939 -0.332994
v -0.691939 -0.982994 -0.332994
v -0.691939 0.941939 -0.350000
v -0.750000 0.941939 -0.291939
v -0.691939 1.000000 -0.291940
v -0.732994 0.941939 -0.332995
v -0.725461 0.975461 -0.325461
v -0.732994 0.982994 -0.291939
v -0.691939 0.982994 -0.332995
v -0.691939 -1.000000 0.291940
v -0.691939 -0.941939 0.350000
v -0.750000 -0.941939 0.291939
v -0.691939 -0.982994 0.332995
v -0.725461 -0.975461 0.325461
v -0.732994 -0.941939 0.332995
v -0.732994 -0.982994 0.291939
v -0.750000 0.941939 0.291939
v -0.691939 0.941939 0.350000
v -0.691939 1.000000 0.291939
v -0.732994 0.941939 0.332994
v -0.725461 0.975461 0.325461
v -0.691939 0.982994 0.332994
v -0.732994 0.982994 0.291939
v -0.208061 -1.941939 -0.250000
v -0.150000 -1.941939 -0.191939
v -0.208061 -2.000000 -0.191939
v -0.167006 -1.941939 -0.232994
v -0.174539 -1.975461 -0.225461
v -0.167006 -1.982994 -0.191939
v -0.208061 -1.982994 -0.232994
v -0.208061 -1.058061 -0.250000
v -0.208061 -1.000000 -0.191939
v -0.150000 -1.058061 -0.191939
v -0.208061 -1.017006 -0.232994
v -0.174539 -1.024539 -0.225461
v -0.167006 -1.017006 -0.191939
v -0.167006 -1.058061 -0.232994
v -0.208061 -2.000000 0.191940
v -0.150000 -1.941939 0.191940
v -0.208061 -1.941939 0.250000
v -0.167006 -1.982994 0.191940
v -0.174539 -1.975461 0.225461
v -0.167006 -1.941939 0.232995
v -0.208061 -1.982994 0.232995
v -0.150000 -1.058061 0.191940
v -0.208061 -1.000000 0.191940
v -0.208061 -1.058061 0.250000
v -0.167006 -1.017006 0.191940
v -0.174539 -1.024539 0.225461
v -0.208061 -1.017006 0.232995
v -0.167006 -1.058061 0.232995
v -0.591939 -2.000000 -0.191939
v -0.650000 -1.941939 -0.191939
v -0.591939 -1.941939 -0.250000
v -0.632994 -1.982994 -0.191939
v -0.625461 -1.975461 -0.225461
v -0.632994 -1.941939 -0.232994
v -0.591939 -1.982994 -0.232994
v -0.591939 -1.058061 -0.250000
v -0.650000 -1.058061 -0.191939
v -0.591939 -1.000000 -0.191939
v -0.632994 -1.058061 -0.232994
v -0.625461 -1.024539 -0.225461
v -0.632994 -1.017006 -0.191939
v -0.591939 -1.017006 -0.232994
v -0.591939 -2.000000 0.191940
v -0.591939 -1.941939 0.250000
v -0.650000 -1.941939 0.191940
v -0.591939 -1.982994 0.232995
v -0.625461 -1.975461 0.225461
v -0.632994 -1.941939 0.232995
v -0.632994 -1.982994 0.191940
v -0.650000 -1.058061 0.191940
v -0.591939 -1.058061 0.250000
v -0.591939 -1.000000 0.191940
v -0.632994 -1.058061 0.232995
v -0.625461 -1.024539 0.225461
v -0.591939 -1.017006 0.232995
v -0.632994 -1.017006 0.191940
v 0.591939 -1.941939 -0.250000
v 0.650000 -1.941939 -0.191939
v 0.591939 -2.000000 -0.191939
v 0.632994 -1.941939 -0.232994
v 0.625461 -1.975461 -0.225461
v 0.632994 -1.982994 -0.191939
v 0.591939 -1.982994 -0.232994
v 0.591939 -1.058061 -0.250000
v 0.591939 -1.000000 -0.191939
v 0.650000 -1.058061 -0.191939
v 0.591939 -1.017006 -0.232994
v 0.625461 -1.024539 -0.225461
v 0.632994 -1.017006 -0.191939
v 0.632994 -1.058061 -0.232994
v 0.591939 -2.000000 0.191940
v 0.650000 -1.941939 0.191940
v 0.591939 -1.941939 0.250000
v 0.632994 -1.982994 0.191940
v 0.625461 -1.975461 0.225461
v 0.632994 -1.941939 0.232995
v 0.591939 -1.982994 0.232995
v 0.650000 -1.058061 0.191940
v 0.591939 -1.000000 0.191940
v 0.591939 -1.058061 0.250000
v 0.632994 -1.017006 0.191940
v 0.625461 -1.024539 0.225461
v 0.591939 -1.017006 0.232995
v 0.632994 -1.058061 0.232995
v 0.208061 -2.000000 -0.191939
v 0.150000 -1.941939 -0.191939
v 0.208061 -1.941939 -0.250000
v 0.167006 -1.982994 -0.191939
v 0.174539 -1.975461 -0.225461
v 0.167006 -1.941939 -0.232994
v 0.208061 -1.982994 -0.232994
v 0.208061 -1.058061 -0.250000
v 0.150000 -1.058061 -0.191939
v 0.208061 -1.000000 -0.191939
v 0.167006 -1.058061 -0.232994
v 0.174539 -1.024539 -0.225461
v 0.167006 -1.017006 -0.191939
v 0.208061 -1.017006 -0.232994
v 0.208061 -2.000000 0.191940
v 0.208061 -1.941939 0.250000
v 0.150000 -1.941939 0.191940
v 0.208061 -1.982994 0.232995
v 0.174539 -1.975461 0.225461
v 0.167006 -1.941939 0.232995
v 0.167006 -1.982994 0.191940
v 0.150000 -1.058061 0.191940
v 0.208061 -1.058061 0.250000
v 0.208061 -1.000000 0.191940
v 0.167006 -1.058061 0.232995
v 0.174539 -1.024539 0.225461
v 0.208061 -1.017006 0.232995
v 0.167006 -1.017006 0.191940
v 0.941939 0.558061 -0.200000
v 1.000000 0.558061 -0.141939
v 0.941939 0.500000 -0.141939
v 0.982994 0.558061 -0.182995
v 0.975461 0.524539 -0.175461
v 0.982994 0.517006 -0.141940
v 0.941939 0.517006 -0.182995
v 0.941939 0.941939 -0.200000
v 0.941939 1.000000 -0.141940
v 1.000000 0.941939 -0.141940
v 0.941939 0.982994 -0.182995
v 0.975461 0.975461 -0.175461
v 0.982994 0.982994 -0.141940
v 0.982994 0.941939 -0.182995
v 0.941939 0.500000 0.941939
v 1.000000 0.558061 0.941939
v 0.941939 0.558061 1.000000
v 0.982994 0.517006 0.941939
v 0.975461 0.524539 0.975461
v 0.982994 0.558061 0.982994
v 0.941939 0.517006 0.982994
v 1.000000 0.941940 0.941939
v 0.941939 1.000000 0.941939
v 0.941939 0.941940 1.000000
v 0.982994 0.982994 0.941939
v 0.975461 0.975461 0.975461
v 0.941939 0.982994 0.982994
v 0.982994 0.941940 0.982994
v 0.558061 0.500000 -0.141939
v 0.500000 0.558061 -0.141939
v 0.558061 0.558061 -0.200000
v 0.517006 0.517006 -0.141940
v 0.524539 0.524539 -0.175461
v 0.517006 0.558061 -0.182995
v 0.558061 0.517006 -0.182995
v 0.558061 0.941939 -0.200000
v 0.500000 0.941939 -0.141940
v 0.558061 1.000000 -0.141940
v 0.517006 0.941939 -0.182995
v 0.524539 0.975461 -0.175461
v 0.517006 0.982994 -0.141940
v 0.558061 0.982994 -0.182995
v 0.558061 0.500000 0.941939
v 0.558061 0.558061 1.000000
v 0.500000 0.558061 0.941939
v 0.558061 0.517006 0.982994
v 0.524539 0.524539 0.975461
v 0.517006 0.558061 0.982994
v 0.517006 0.517006 0.941939
v 0.500000 0.941940 0.941939
v 0.558061 0.941940 1.000000
v 0.558061 1.000000 0.941939
v 0.517006 0.941940 0.982994
v 0.524539 0.975461 0.975461
v 0.558061 0.982994 0.982994
v 0.517006 0.982994 0.941939
vn -0.0000 -0.0000 -1.0000
vn -0.0000 -1.0000 -0.0000
vn 1.0000 -0.0000 -0.0000
vn -0.0000 1.0000 -0.0000
vn -1.0000 -0.0000 -0.0000
vn -0.0000 -0.0000 1.0000
vn 0.2402 -0.2402 -0.9406
vn 0.5774 -0.5774 -0.5773
vn 0.1479 -0.6993 -0.6993
vn 0.9406 -0.2402 -0.2402
vn 0.6993 -0.1479 -0.6993
vn 0.2402 -0.9406 -0.2402
vn 0.6993 -0.6993 -0.1479
vn 0.2402 0.2402 -0.9406
vn 0.5774 0.5774 -0.5773
vn 0.6993 0.1479 -0.6993
vn 0.2402 0.9406 -0.2402
vn 0.1479 0.6993 -0.6993
vn 0.9406 0.2402 -0.2402
vn 0.6993 0.6993 -0.1479
vn 0.2402 -0.9406 0.2402
vn 0.5774 -0.5774 0.5774
vn 0.1479 -0.6993 0.6993
vn 0.9406 -0.2402 0.2402
vn 0.6993 -0.6993 0.1479
vn 0.2402 -0.2402 0.9406
vn 0.6993 -0.1479 0.6993
vn 0.9406 0.2402 0.2402
vn 0.5774 0.5774 0.5774
vn 0.6993 0.1479 0.6993
vn 0.2402 0.9406 0.2402
vn 0.6993 0.6993 0.1479
vn 0.2402 0.2402 0.9406
vn 0.1479 0.6993 0.6993
vn -0.2402 -0.9406 -0.2402
vn -0.5774 -0.5774 -0.5773
vn -0.1479 -0.6993 -0.6993
vn -0.9406 -0.2402 -0.2402
vn -0.6993 -0.6993 -0.1479
vn -0.2402 -0.2402 -0.9406
vn -0.6993 -0.1479 -0.6993
vn -0.2402 0.2402 -0.9406
vn -0.5774 0.5774 -0.5773
vn -0.1479 0.6993 -0.6993
vn -0.9406 0.2402 -0.2402
vn -0.6993 0.1479 -0.6993
vn -0.2402 0.9406 -0.2402
vn -0.6993 0.6993 -0.1479
vn -0.2402 -0.9406 0.2402
vn -0.5774 -0.5774 0.5774
vn -0.6993 -0.6993 0.1479
vn -0.2402 -0.2402 0.9406
vn -0.1479 -0.6993 0.6993
vn -0.9406 -0.2402 0.2402
vn -0.6993 -0.1479 0.6993
vn -0.9406 0.2402 0.2402
vn -0.5774 0.5774 0.5774
vn -0.6993 0.6993 0.1479
vn -0.2402 0.2402 0.9406
vn -0.6993 0.1479 0.6993
vn -0.2402 0.9406 0.2402
vn -0.1479 0.6993 0.6993
vn 0.5773 -0.5774 -0.5774
vn 0.5773 0.5774 -0.5774
vn 0.5773 -0.5774 0.5774
vn 0.5773 0.5774 0.5774
vn -0.5773 -0.5774 -0.5774
vn -0.5773 0.5773 -0.5774
vn -0.5773 -0.5774 0.5774
vn -0.5773 0.5774 0.5774
vn 0.5774 -0.5774 0.5773
vn 0.5774 0.5774 0.5773
vn -0.5774 -0.5774 0.5773
vn -0.5774 0.5774 0.5773
vn -0.5774 -0.5774 -0.5774
vn -0.5774 0.5774 -0.5774
vn 0.5773 0.5773 -0.5774
vn 0.5773 -0.5773 0.5774
vn -0.5773 0.5774 -0.5774
vt 0.595970 0.970970
vt 0.404030 0.779030
vt 0.595970 0.779030
vt 0.345970 0.720970
vt 0.154030 0.529030
vt 0.345970 0.529030
vt 0.610485 0.970970
vt 0.389515 0.779030
vt 0.610485 0.779030
vt 0.610485 0.220970
vt 0.389515 0.029030
vt 0.610485 0.029030
vt 0.845970 0.720970
vt 0.654030 0.529030
vt 0.845970 0.529030
vt 0.610485 0.985485
vt 0.389515 0.764515
vt 0.610485 0.764515
vt 0.860485 0.735485
vt 0.639515 0.514515
vt 0.860485 0.514515
vt 0.617742 0.990323
vt 0.382258 0.759677
vt 0.617742 0.759677
vt 0.610485 0.235485
vt 0.389515 0.014515
vt 0.610485 0.014515
vt 0.345970 0.737904
vt 0.154030 0.512096
vt 0.345970 0.512096
vt 0.595970 0.737904
vt 0.404030 0.512096
vt 0.595970 0.512096
vt 0.365323 0.729264
vt 0.134677 0.520736
vt 0.365323 0.520736
vt 0.845970 0.737904
vt 0.654030 0.512096
vt 0.845970 0.512096
vt 0.610485 0.720970
vt 0.389515 0.529030
vt 0.610485 0.529030
vt 0.617742 0.229264
vt 0.382258 0.020736
vt 0.617742 0.020736
vt 0.845970 0.720970
vt 0.845970 0.529030
vt 0.610485 0.735485
vt 0.389515 0.514515
vt 0.610485 0.514515
vt 0.617742 0.490323
vt 0.382258 0.259677
vt 0.617742 0.259677
vt 0.595970 0.237904
vt 0.404030 0.012096
vt 0.595970 0.012096
vt 0.360485 0.735485
vt 0.139515 0.514515
vt 0.360485 0.514515
vt 0.595970 0.470970
vt 0.404030 0.279030
vt 0.595970 0.279030
vt 0.617742 0.729264
vt 0.382258 0.520736
vt 0.617742 0.520736
vt 0.610485 0.470970
vt 0.389515 0.279030
vt 0.610485 0.279030
vt 0.610485 0.485485
vt 0.389515 0.264515
vt 0.610485 0.264515
vt 0.345970 0.720970
vt 0.154030 0.529030
vt 0.345970 0.529030
vt 0.865323 0.729264
vt 0.634677 0.520736
vt 0.865323 0.520736
vt 0.389515 0.779030
vt 0.610485 0.470970
vt 0.389515 0.279030
vt 0.404030 0.970970
vt 0.387270 1.000000
vt 0.375000 0.970970
vt 0.375000 0.005112
vt 0.404030 0.000000
vt 0.154030 0.737904
vt 0.137270 0.750000
vt 0.125000 0.737904
vt 0.625000 0.987730
vt 0.595970 1.000000
vt 0.875000 0.744888
vt 0.845970 0.750000
vt 0.612730 0.000000
vt 0.625000 0.012096
vt 0.125000 0.505112
vt 0.154030 0.500000
vt 0.404030 0.237904
vt 0.387270 0.250000
vt 0.375000 0.237904
vt 0.375000 0.262270
vt 0.404030 0.250000
vt 0.625000 0.244888
vt 0.595970 0.250000
vt 0.862730 0.500000
vt 0.875000 0.512096
vt 0.612730 0.250000
vt 0.625000 0.279030
vt 0.379090 0.752386
vt 0.345970 0.750000
vt 0.404030 0.737904
vt 0.375000 0.737904
vt 0.404030 0.750000
vt 0.625000 0.748296
vt 0.625000 0.779030
vt 0.595970 0.750000
vt 0.654030 0.737904
vt 0.625000 0.737904
vt 0.375000 0.501704
vt 0.375000 0.512096
vt 0.404030 0.470970
vt 0.375000 0.470970
vt 0.404030 0.500000
vt 0.620910 0.497614
vt 0.625000 0.512096
vt 0.595970 0.500000
vt 0.654030 0.500000
vt 0.389515 0.985485
vt 0.381135 1.000000
vt 0.375000 0.985485
vt 0.375000 0.006135
vt 0.389515 0.000000
vt 0.139515 0.735485
vt 0.131135 0.750000
vt 0.125000 0.735485
vt 0.625000 0.993865
vt 0.610485 1.000000
vt 0.875000 0.743865
vt 0.860485 0.750000
vt 0.618865 0.000000
vt 0.625000 0.014515
vt 0.125000 0.506135
vt 0.139515 0.500000
vt 0.389515 0.235485
vt 0.381135 0.250000
vt 0.375000 0.235485
vt 0.375000 0.256135
vt 0.389515 0.250000
vt 0.625000 0.243865
vt 0.610485 0.250000
vt 0.868865 0.500000
vt 0.875000 0.514515
vt 0.618865 0.250000
vt 0.625000 0.264515
vt 0.377045 0.750000
vt 0.360485 0.750000
vt 0.389515 0.735485
vt 0.375000 0.735485
vt 0.389515 0.750000
vt 0.625000 0.747955
vt 0.625000 0.764515
vt 0.610485 0.750000
vt 0.639515 0.735485
vt 0.625000 0.735485
vt 0.375000 0.502045
vt 0.375000 0.514515
vt 0.389515 0.485485
vt 0.375000 0.485485
vt 0.389515 0.500000
vt 0.622955 0.500000
vt 0.625000 0.514515
vt 0.610485 0.500000
vt 0.639515 0.500000
vt 0.382258 0.990323
vt 0.378067 1.000000
vt 0.375000 0.990323
vt 0.375000 0.008764
vt 0.382258 0.000000
vt 0.134677 0.729264
vt 0.129090 0.750000
vt 0.125000 0.729264
vt 0.625000 0.995910
vt 0.617742 1.000000
vt 0.875000 0.741236
vt 0.865323 0.750000
vt 0.621933 0.000000
vt 0.625000 0.020736
vt 0.125000 0.508764
vt 0.134677 0.500000
vt 0.382258 0.229264
vt 0.378067 0.250000
vt 0.375000 0.229264
vt 0.375000 0.254090
vt 0.382258 0.250000
vt 0.625000 0.241236
vt 0.617742 0.250000
vt 0.870910 0.500000
vt 0.875000 0.520736
vt 0.621933 0.250000
vt 0.625000 0.259677
vt 0.376022 0.748442
vt 0.365323 0.750000
vt 0.382258 0.729264
vt 0.375000 0.729264
vt 0.382258 0.750000
vt 0.625341 0.747079
vt 0.625000 0.759677
vt 0.617742 0.750000
vt 0.634677 0.729264
vt 0.625000 0.729264
vt 0.374659 0.502921
vt 0.375000 0.520736
vt 0.382258 0.490323
vt 0.375000 0.490323
vt 0.382258 0.500000
vt 0.623978 0.501558
vt 0.625000 0.520736
vt 0.617742 0.500000
vt 0.634677 0.500000
vt 0.389515 0.970970
vt 0.381135 1.000000
vt 0.375000 0.970970
vt 0.375000 0.012270
vt 0.154030 0.720970
vt 0.137270 0.750000
vt 0.125000 0.720970
vt 0.875000 0.737730
vt 0.845970 0.750000
vt 0.625000 0.029030
vt 0.125000 0.512270
vt 0.389515 0.220970
vt 0.375000 0.220970
vt 0.625000 0.237730
vt 0.875000 0.529030
vt 0.389515 0.720970
vt 0.375000 0.720970
vt 0.627045 0.745910
vt 0.654030 0.720970
vt 0.625000 0.720970
vt 0.372955 0.504090
vt 0.375000 0.529030
vt 0.389515 0.470970
vt 0.625000 0.529030
vt 0.654030 0.500000
vt 0.389515 0.970970
vt 0.154030 0.720970
vt 0.345970 0.750000
vt 0.654030 0.720970
vt 0.389515 0.470970
vt 0.654030 0.500000
vt 0.404030 1.000000
vt 0.595970 0.000000
vt 0.375000 0.012096
vt 0.125000 0.512096
vt 0.375000 0.279030
vt 0.345970 0.500000
vt 0.154030 0.750000
vt 0.375000 0.779030
vt 0.845970 0.500000
vt 0.625000 0.470970
vt 0.389515 1.000000
vt 0.610485 0.000000
vt 0.375000 0.014515
vt 0.125000 0.514515
vt 0.375000 0.264515
vt 0.360485 0.500000
vt 0.139515 0.750000
vt 0.375000 0.764515
vt 0.860485 0.500000
vt 0.625000 0.485485
vt 0.382258 1.000000
vt 0.617742 0.000000
vt 0.375000 0.020736
vt 0.125000 0.520736
vt 0.375000 0.259677
vt 0.365323 0.500000
vt 0.134677 0.750000
vt 0.375000 0.759677
vt 0.865323 0.500000
vt 0.625000 0.490323
vt 0.375000 0.029030
vt 0.125000 0.529030
vt 0.154030 0.750000
vt 0.845970 0.500000
vt 0.345970 0.500000
vt 0.875000 0.737904
vt 0.625000 0.237904
vt 0.625000 0.970970
vt 0.654030 0.750000
vt 0.875000 0.735485
vt 0.625000 0.235485
vt 0.625000 0.985485
vt 0.639515 0.750000
vt 0.875000 0.729264
vt 0.625000 0.229264
vt 0.625000 0.990323
vt 0.634677 0.750000
vt 0.875000 0.720970
vt 0.625000 0.220970
vt 0.654030 0.750000
s 1
f 288/1/1 311/2/1 316/3/1
f 197/4/2 183/5/2 211/6/2
f 176/7/1 199/8/1 204/9/1
f 190/10/3 170/11/3 178/12/3
f 177/13/4 220/14/4 191/15/4
f 64/16/1 87/17/1 92/18/1
f 65/19/4 108/20/4 79/21/4
f 120/22/1 143/23/1 148/24/1
f 78/25/3 58/26/3 66/27/3
f 29/28/2 15/29/2 43/30/2
f 37/31/5 45/32/5 50/33/5
f 141/34/2 127/35/2 155/36/2
f 9/37/4 52/38/4 23/39/4
f 205/40/5 213/41/5 218/42/5
f 134/43/3 114/44/3 122/45/3
f 309/28/2 295/29/2 323/30/2
f 233/46/4 276/14/4 247/47/4
f 93/48/5 101/49/5 106/50/5
f 163/51/6 129/52/6 136/53/6
f 302/54/3 282/55/3 290/56/3
f 85/57/2 71/58/2 99/59/2
f 51/60/6 17/61/6 24/62/6
f 149/63/5 157/64/5 162/65/5
f 246/10/3 226/11/3 234/12/3
f 219/66/6 185/67/6 192/68/6
f 107/69/6 73/70/6 80/71/6
f 261/40/5 269/41/5 274/42/5
f 253/72/2 239/73/2 267/74/2
f 289/37/4 332/38/4 303/39/4
f 121/75/4 164/76/4 135/77/4
f 232/7/1 255/78/1 260/9/1
f 317/31/5 325/32/5 330/33/5
f 275/79/6 241/80/6 248/68/6
f 22/54/3 2/55/3 10/56/3
f 331/60/6 297/61/6 304/62/6
f 1/81/7 5/82/8 7/83/9
f 2/55/10 5/84/8 4/85/11
f 3/86/12 5/87/8 6/88/13
f 8/1/14 12/89/15 14/90/16
f 9/37/17 12/91/15 11/92/18
f 10/56/19 12/93/15 13/94/20
f 15/29/21 19/95/22 21/96/23
f 16/97/24 19/98/22 18/99/25
f 17/61/26 19/100/22 20/101/27
f 22/54/28 26/102/29 28/103/30
f 23/39/31 26/104/29 25/105/32
f 24/62/33 26/106/29 27/107/34
f 29/28/35 33/108/36 35/109/37
f 30/110/38 33/108/36 32/111/39
f 31/2/40 33/108/36 34/112/41
f 36/3/42 40/113/43 42/114/44
f 37/31/45 40/113/43 39/115/46
f 38/116/47 40/113/43 41/117/48
f 43/30/49 47/118/50 49/119/51
f 44/120/52 47/118/50 46/121/53
f 45/32/54 47/118/50 48/122/55
f 50/33/56 54/123/57 56/124/58
f 51/60/59 54/123/57 53/125/60
f 52/38/61 54/123/57 55/126/62
f 57/127/7 61/128/63 63/129/9
f 58/26/10 61/130/63 60/131/11
f 59/132/12 61/133/63 62/134/13
f 64/16/14 68/135/64 70/136/16
f 65/19/17 68/137/64 67/138/18
f 66/27/19 68/139/64 69/140/20
f 71/58/21 75/141/65 77/142/23
f 72/143/24 75/144/65 74/145/25
f 73/70/26 75/146/65 76/147/27
f 78/25/28 82/148/66 84/149/30
f 79/21/31 82/150/66 81/151/32
f 80/71/33 82/152/66 83/153/34
f 85/57/35 89/154/67 91/155/37
f 86/156/38 89/154/67 88/157/39
f 87/17/40 89/154/67 90/158/41
f 92/18/42 96/159/68 98/160/44
f 93/48/45 96/159/68 95/161/46
f 94/162/47 96/159/68 97/163/48
f 99/59/49 103/164/69 105/165/51
f 100/166/52 103/164/69 102/167/53
f 101/49/54 103/164/69 104/168/55
f 106/50/56 110/169/70 112/170/58
f 107/69/59 110/169/70 109/171/60
f 108/20/61 110/169/70 111/172/62
f 113/173/7 117/174/8 119/175/9
f 114/44/10 117/176/8 116/177/11
f 115/178/12 117/179/8 118/180/13
f 120/22/14 124/181/15 126/182/16
f 121/75/17 124/183/15 123/184/18
f 122/45/19 124/185/15 125/186/20
f 127/35/21 131/187/71 133/188/23
f 128/189/24 131/190/71 130/191/25
f 129/52/26 131/192/71 132/193/27
f 134/43/28 138/194/72 140/195/30
f 135/77/31 138/196/72 137/197/32
f 136/53/33 138/198/72 139/199/34
f 141/34/35 145/200/36 147/201/37
f 142/202/38 145/200/36 144/203/39
f 143/23/40 145/200/36 146/204/41
f 148/24/42 152/205/43 154/206/44
f 149/63/45 152/205/43 151/207/46
f 150/208/47 152/205/43 153/209/48
f 155/36/49 159/210/73 161/211/51
f 156/212/52 159/210/73 158/213/53
f 157/64/54 159/210/73 160/214/55
f 162/65/56 166/215/74 168/216/58
f 163/51/59 166/215/74 165/217/60
f 164/76/61 166/215/74 167/218/62
f 169/219/7 173/220/63 175/221/9
f 170/11/10 173/222/63 172/131/11
f 171/223/12 173/224/63 174/225/13
f 176/7/14 180/89/64 182/136/16
f 177/13/17 180/226/64 179/227/18
f 178/12/19 180/139/64 181/228/20
f 183/5/21 187/229/65 189/96/23
f 184/230/24 187/144/65 186/231/25
f 185/67/26 187/100/65 188/147/27
f 190/10/28 194/232/66 196/149/30
f 191/15/31 194/104/66 193/233/32
f 192/68/33 194/152/66 195/107/34
f 197/4/35 201/154/75 203/109/37
f 198/234/38 201/154/75 200/235/39
f 199/8/40 201/154/75 202/158/41
f 204/9/42 208/236/76 210/114/44
f 205/40/45 208/236/76 207/161/46
f 206/237/47 208/236/76 209/238/48
f 211/6/49 215/239/50 217/240/51
f 212/241/52 215/239/50 214/121/53
f 213/41/54 215/239/50 216/168/55
f 218/42/56 222/169/57 224/242/58
f 219/66/59 222/169/57 221/171/60
f 220/14/61 222/169/57 223/243/62
f 225/244/7 229/220/63 231/83/9
f 226/11/10 229/222/63 228/131/11
f 227/245/12 229/87/63 230/225/13
f 232/7/14 236/89/77 238/136/16
f 233/46/17 236/226/77 235/92/18
f 234/12/19 236/139/77 237/228/20
f 239/73/21 243/229/78 245/96/23
f 240/230/24 243/144/78 242/231/25
f 241/80/26 243/100/78 244/147/27
f 246/10/28 250/232/66 252/149/30
f 247/47/31 250/104/66 249/233/32
f 248/68/33 250/152/66 251/107/34
f 253/72/35 257/154/75 259/246/37
f 254/234/38 257/154/75 256/235/39
f 255/78/40 257/154/75 258/158/41
f 260/9/42 264/236/79 266/114/44
f 261/40/45 264/236/79 263/161/46
f 262/247/47 264/236/79 265/238/48
f 267/74/49 271/239/50 273/240/51
f 268/248/52 271/239/50 270/121/53
f 269/41/54 271/239/50 272/168/55
f 274/42/56 278/169/70 280/242/58
f 275/79/59 278/169/70 277/171/60
f 276/14/61 278/169/70 279/249/62
f 281/81/7 285/82/8 287/83/9
f 282/55/10 285/84/8 284/85/11
f 283/86/12 285/87/8 286/88/13
f 288/1/14 292/89/15 294/90/16
f 289/37/17 292/91/15 291/92/18
f 290/56/19 292/93/15 293/94/20
f 295/29/21 299/95/22 301/96/23
f 296/97/24 299/98/22 298/99/25
f 297/61/26 299/100/22 300/101/27
f 302/54/28 306/102/29 308/103/30
f 303/39/31 306/104/29 305/105/32
f 304/62/33 306/106/29 307/107/34
f 309/28/35 313/108/36 315/109/37
f 310/110/38 313/108/36 312/111/39
f 311/2/40 313/108/36 314/112/41
f 316/3/42 320/113/43 322/114/44
f 317/31/45 320/113/43 319/115/46
f 318/116/47 320/113/43 321/117/48
f 323/30/49 327/118/50 329/119/51
f 324/120/52 327/118/50 326/121/53
f 325/32/54 327/118/50 328/122/55
f 330/33/56 334/123/57 336/124/58
f 331/60/59 334/123/57 333/125/60
f 332/38/61 334/123/57 335/126/62
f 8/1/14 4/250/11 1/81/7
f 14/251/16 2/55/10 4/85/11
f 2/55/10 18/99/25 6/252/13
f 18/253/25 3/86/12 6/88/13
f 22/54/28 20/101/27 16/97/24
f 28/103/30 17/61/26 20/101/27
f 44/120/52 21/254/23 17/61/26
f 46/255/53 15/29/21 21/96/23
f 51/60/59 48/122/55 44/120/52
f 53/125/60 45/32/54 48/122/55
f 29/28/35 49/119/51 32/111/39
f 49/119/51 30/110/38 32/111/39
f 37/31/45 34/112/41 30/110/38
f 39/115/46 31/2/40 34/112/41
f 29/28/35 7/256/9 3/86/12
f 35/257/37 1/81/7 7/83/9
f 52/38/61 27/258/34 23/39/31
f 55/259/62 24/62/33 27/107/34
f 37/31/45 56/124/58 41/117/48
f 56/124/58 38/116/47 41/117/48
f 57/127/7 70/136/16 60/260/11
f 70/261/16 58/26/10 60/131/11
f 72/143/24 62/262/13 58/26/10
f 74/263/25 59/132/12 62/134/13
f 78/25/28 76/147/27 72/143/24
f 84/149/30 73/70/26 76/147/27
f 100/166/52 77/264/23 73/70/26
f 102/265/53 71/58/21 77/142/23
f 107/69/59 104/168/55 100/166/52
f 109/171/60 101/49/54 104/168/55
f 99/59/49 88/157/39 85/57/35
f 105/165/51 86/156/38 88/157/39
f 93/48/45 90/158/41 86/156/38
f 95/161/46 87/17/40 90/158/41
f 85/57/35 63/266/9 59/132/12
f 91/267/37 57/127/7 63/129/9
f 108/20/61 83/268/34 79/21/31
f 111/269/62 80/71/33 83/153/34
f 106/50/56 97/163/48 93/48/45
f 112/170/58 94/162/47 97/163/48
f 120/22/14 116/270/11 113/173/7
f 126/271/16 114/44/10 116/177/11
f 128/189/24 118/272/13 114/44/10
f 130/273/25 115/178/12 118/180/13
f 134/43/28 132/193/27 128/189/24
f 140/195/30 129/52/26 132/193/27
f 156/212/52 133/274/23 129/52/26
f 158/275/53 127/35/21 133/188/23
f 163/51/59 160/214/55 156/212/52
f 165/217/60 157/64/54 160/214/55
f 155/36/49 144/203/39 141/34/35
f 161/211/51 142/202/38 144/203/39
f 149/63/45 146/204/41 142/202/38
f 151/207/46 143/23/40 146/204/41
f 141/34/35 119/276/9 115/178/12
f 147/277/37 113/173/7 119/175/9
f 164/76/61 139/278/34 135/77/31
f 167/279/62 136/53/33 139/199/34
f 162/65/56 153/209/48 149/63/45
f 168/216/58 150/208/47 153/209/48
f 176/7/14 172/260/11 169/219/7
f 182/261/16 170/11/10 172/131/11
f 184/230/24 174/280/13 170/11/10
f 186/281/25 171/223/12 174/225/13
f 190/10/28 188/147/27 184/230/24
f 196/149/30 185/67/26 188/147/27
f 212/241/52 189/254/23 185/67/26
f 214/255/53 183/5/21 189/96/23
f 219/66/59 216/168/55 212/241/52
f 216/168/55 218/42/56 213/41/54
f 211/6/49 200/235/39 197/4/35
f 217/240/51 198/234/38 200/235/39
f 205/40/45 202/158/41 198/234/38
f 202/158/41 204/9/42 199/8/40
f 197/4/35 175/282/9 171/223/12
f 203/257/37 169/219/7 175/221/9
f 220/14/61 195/283/34 191/15/31
f 195/107/34 219/66/59 192/68/33
f 218/42/56 209/238/48 205/40/45
f 224/242/58 206/237/47 209/238/48
f 232/7/14 228/260/11 225/244/7
f 238/261/16 226/11/10 228/131/11
f 240/230/24 230/280/13 226/11/10
f 242/281/25 227/245/12 230/225/13
f 246/10/28 244/147/27 240/230/24
f 252/149/30 241/80/26 244/147/27
f 268/248/52 245/254/23 241/80/26
f 270/284/53 239/73/21 245/96/23
f 275/79/59 272/168/55 268/248/52
f 272/168/55 274/42/56 269/41/54
f 267/74/49 256/235/39 253/72/35
f 273/240/51 254/234/38 256/235/39
f 261/40/45 258/158/41 254/234/38
f 258/158/41 260/9/42 255/78/40
f 253/72/35 231/256/9 227/245/12
f 259/257/37 225/244/7 231/83/9
f 276/14/61 251/258/34 247/47/31
f 251/107/34 275/79/59 248/68/33
f 274/42/56 265/238/48 261/40/45
f 280/242/58 262/247/47 265/238/48
f 288/1/14 284/250/11 281/81/7
f 294/251/16 282/55/10 284/85/11
f 282/55/10 298/99/25 286/252/13
f 298/253/25 283/86/12 286/88/13
f 302/54/28 300/101/27 296/97/24
f 308/103/30 297/61/26 300/101/27
f 324/120/52 301/254/23 297/61/26
f 326/255/53 295/29/21 301/96/23
f 331/60/59 328/122/55 324/120/52
f 333/125/60 325/32/54 328/122/55
f 309/28/35 329/119/51 312/111/39
f 329/119/51 310/110/38 312/111/39
f 317/31/45 314/112/41 310/110/38
f 319/115/46 311/2/40 314/112/41
f 309/28/35 287/256/9 283/86/12
f 315/257/37 281/81/7 287/83/9
f 332/38/61 307/258/34 303/39/31
f 335/259/62 304/62/33 307/107/34
f 317/31/45 336/124/58 321/117/48
f 336/124/58 318/116/47 321/117/48
f 9/37/17 25/105/32 13/285/20
f 25/286/32 10/56/19 13/94/20
f 36/3/42 11/287/18 8/1/14
f 42/288/44 9/37/17 11/92/18
f 79/21/31 69/289/20 65/19/17
f 81/290/32 66/27/19 69/140/20
f 92/18/42 67/291/18 64/16/14
f 98/292/44 65/19/17 67/138/18
f 135/77/31 125/293/20 121/75/17
f 137/294/32 122/45/19 125/186/20
f 148/24/42 123/295/18 120/22/14
f 154/296/44 121/75/17 123/184/18
f 191/15/31 181/297/20 177/13/17
f 193/298/32 178/12/19 181/228/20
f 204/9/42 179/287/18 176/7/14
f 210/288/44 177/13/17 179/227/18
f 247/47/31 237/297/20 233/46/17
f 249/298/32 234/12/19 237/228/20
f 260/9/42 235/287/18 232/7/14
f 266/299/44 233/46/17 235/92/18
f 289/37/17 305/105/32 293/285/20
f 305/286/32 290/56/19 293/94/20
f 316/3/42 291/287/18 288/1/14
f 322/288/44 289/37/17 291/92/18
f 8/1/1 31/2/1 36/3/1
f 288/1/1 281/81/1 311/2/1
f 197/4/2 171/223/2 183/5/2
f 176/7/1 169/219/1 199/8/1
f 190/10/3 184/230/3 170/11/3
f 177/13/4 206/237/4 220/14/4
f 64/16/1 57/127/1 87/17/1
f 65/19/4 94/162/4 108/20/4
f 120/22/1 113/173/1 143/23/1
f 78/25/3 72/143/3 58/26/3
f 29/28/2 3/86/2 15/29/2
f 37/31/5 30/110/5 45/32/5
f 141/34/2 115/178/2 127/35/2
f 9/37/4 38/116/4 52/38/4
f 205/40/5 198/234/5 213/41/5
f 134/43/3 128/189/3 114/44/3
f 309/28/2 283/86/2 295/29/2
f 233/46/4 262/247/4 276/14/4
f 93/48/5 86/156/5 101/49/5
f 163/51/6 156/212/6 129/52/6
f 302/54/3 296/97/3 282/55/3
f 85/57/2 59/132/2 71/58/2
f 51/60/6 44/120/6 17/61/6
f 149/63/5 142/202/5 157/64/5
f 246/10/3 240/230/3 226/11/3
f 219/66/6 212/241/6 185/67/6
f 107/69/6 100/166/6 73/70/6
f 261/40/5 254/234/5 269/41/5
f 253/72/2 227/245/2 239/73/2
f 289/37/4 318/116/4 332/38/4
f 121/75/4 150/208/4 164/76/4
f 232/7/1 225/244/1 255/78/1
f 317/31/5 310/110/5 325/32/5
f 275/79/6 268/248/6 241/80/6
f 22/54/3 16/97/3 2/55/3
f 331/60/6 324/120/6 297/61/6
f 1/81/7 4/250/11 5/82/8
f 2/55/10 6/252/13 5/84/8
f 3/86/12 7/256/9 5/87/8
f 8/1/14 11/287/18 12/89/15
f 9/37/17 13/285/20 12/91/15
f 10/56/19 14/251/16 12/93/15
f 15/29/21 18/253/25 19/95/22
f 16/97/24 20/101/27 19/98/22
f 17/61/26 21/254/23 19/100/22
f 22/54/28 25/286/32 26/102/29
f 23/39/31 27/258/34 26/104/29
f 24/62/33 28/103/30 26/106/29
f 29/28/35 32/111/39 33/108/36
f 30/110/38 34/112/41 33/108/36
f 31/2/40 35/257/37 33/108/36
f 36/3/42 39/115/46 40/113/43
f 37/31/45 41/117/48 40/113/43
f 38/116/47 42/288/44 40/113/43
f 43/30/49 46/255/53 47/118/50
f 44/120/52 48/122/55 47/118/50
f 45/32/54 49/119/51 47/118/50
f 50/33/56 53/125/60 54/123/57
f 51/60/59 55/259/62 54/123/57
f 52/38/61 56/124/58 54/123/57
f 57/127/7 60/260/11 61/128/63
f 58/26/10 62/262/13 61/130/63
f 59/132/12 63/266/9 61/133/63
f 64/16/14 67/291/18 68/135/64
f 65/19/17 69/289/20 68/137/64
f 66/27/19 70/261/16 68/139/64
f 71/58/21 74/263/25 75/141/65
f 72/143/24 76/147/27 75/144/65
f 73/70/26 77/264/23 75/146/65
f 78/25/28 81/290/32 82/148/66
f 79/21/31 83/268/34 82/150/66
f 80/71/33 84/149/30 82/152/66
f 85/57/35 88/157/39 89/154/67
f 86/156/38 90/158/41 89/154/67
f 87/17/40 91/267/37 89/154/67
f 92/18/42 95/161/46 96/159/68
f 93/48/45 97/163/48 96/159/68
f 94/162/47 98/292/44 96/159/68
f 99/59/49 102/265/53 103/164/69
f 100/166/52 104/168/55 103/164/69
f 101/49/54 105/165/51 103/164/69
f 106/50/56 109/171/60 110/169/70
f 107/69/59 111/269/62 110/169/70
f 108/20/61 112/170/58 110/169/70
f 113/173/7 116/270/11 117/174/8
f 114/44/10 118/272/13 117/176/8
f 115/178/12 119/276/9 117/179/8
f 120/22/14 123/295/18 124/181/15
f 121/75/17 125/293/20 124/183/15
f 122/45/19 126/271/16 124/185/15
f 127/35/21 130/273/25 131/187/71
f 128/189/24 132/193/27 131/190/71
f 129/52/26 133/274/23 131/192/71
f 134/43/28 137/294/32 138/194/72
f 135/77/31 139/278/34 138/196/72
f 136/53/33 140/195/30 138/198/72
f 141/34/35 144/203/39 145/200/36
f 142/202/38 146/204/41 145/200/36
f 143/23/40 147/277/37 145/200/36
f 148/24/42 151/207/46 152/205/43
f 149/63/45 153/209/48 152/205/43
f 150/208/47 154/296/44 152/205/43
f 155/36/49 158/275/53 159/210/73
f 156/212/52 160/214/55 159/210/73
f 157/64/54 161/211/51 159/210/73
f 162/65/56 165/217/60 166/215/74
f 163/51/59 167/279/62 166/215/74
f 164/76/61 168/216/58 166/215/74
f 169/219/7 172/260/11 173/220/63
f 170/11/10 174/280/13 173/222/63
f 171/223/12 175/282/9 173/224/63
f 176/7/14 179/287/18 180/89/64
f 177/13/17 181/297/20 180/226/64
f 178/12/19 182/261/16 180/139/64
f 183/5/21 186/281/25 187/229/65
f 184/230/24 188/147/27 187/144/65
f 185/67/26 189/254/23 187/100/65
f 190/10/28 193/298/32 194/232/66
f 191/15/31 195/283/34 194/104/66
f 192/68/33 196/149/30 194/152/66
f 197/4/35 200/235/39 201/154/75
f 198/234/38 202/158/41 201/154/75
f 199/8/40 203/257/37 201/154/75
f 204/9/42 207/161/46 208/236/76
f 205/40/45 209/238/48 208/236/76
f 206/237/47 210/288/44 208/236/76
f 211/6/49 214/255/53 215/239/50
f 212/241/52 216/168/55 215/239/50
f 213/41/54 217/240/51 215/239/50
f 218/42/56 221/171/60 222/169/57
f 219/66/59 223/259/62 222/169/57
f 220/14/61 224/242/58 222/169/57
f 225/244/7 228/260/11 229/220/63
f 226/11/10 230/280/13 229/222/63
f 227/245/12 231/256/9 229/87/63
f 232/7/14 235/287/18 236/89/77
f 233/46/17 237/297/20 236/226/77
f 234/12/19 238/261/16 236/139/77
f 239/73/21 242/281/25 243/229/78
f 240/230/24 244/147/27 243/144/78
f 241/80/26 245/254/23 243/100/78
f 246/10/28 249/298/32 250/232/66
f 247/47/31 251/258/34 250/104/66
f 248/68/33 252/149/30 250/152/66
f 253/72/35 256/235/39 257/154/75
f 254/234/38 258/158/41 257/154/75
f 255/78/40 259/257/37 257/154/75
f 260/9/42 263/161/46 264/236/79
f 261/40/45 265/238/48 264/236/79
f 262/247/47 266/299/44 264/236/79
f 267/74/49 270/284/53 271/239/50
f 268/248/52 272/168/55 271/239/50
f 269/41/54 273/240/51 271/239/50
f 274/42/56 277/171/60 278/169/70
f 275/79/59 279/259/62 278/169/70
f 276/14/61 280/242/58 278/169/70
f 281/81/7 284/250/11 285/82/8
f 282/55/10 286/252/13 285/84/8
f 283/86/12 287/256/9 285/87/8
f 288/1/14 291/287/18 292/89/15
f 289/37/17 293/285/20 292/91/15
f 290/56/19 294/251/16 292/93/15
f 295/29/21 298/253/25 299/95/22
f 296/97/24 300/101/27 299/98/22
f 297/61/26 301/254/23 299/100/22
f 302/54/28 305/286/32 306/102/29
f 303/39/31 307/258/34 306/104/29
f 304/62/33 308/103/30 306/106/29
f 309/28/35 312/111/39 313/108/36
f 310/110/38 314/112/41 313/108/36
f 311/2/40 315/257/37 313/108/36
f 316/3/42 319/115/46 320/113/43
f 317/31/45 321/117/48 320/113/43
f 318/116/47 322/288/44 320/113/43
f 323/30/49 326/255/53 327/118/50
f 324/120/52 328/122/55 327/118/50
f 325/32/54 329/119/51 327/118/50
f 330/33/56 333/125/60 334/123/57
f 331/60/59 335/259/62 334/123/57
f 332/38/61 336/124/58 334/123/57
f 8/1/14 14/90/16 4/250/11
f 14/251/16 10/56/19 2/55/10
f 2/55/10 16/97/24 18/99/25
f 18/253/25 15/29/21 3/86/12
f 22/54/28 28/103/30 20/101/27
f 28/103/30 24/62/33 17/61/26
f 44/120/52 46/121/53 21/254/23
f 46/255/53 43/30/49 15/29/21
f 51/60/59 53/125/60 48/122/55
f 53/125/60 50/33/56 45/32/54
f 29/28/35 43/30/49 49/119/51
f 49/119/51 45/32/54 30/110/38
f 37/31/45 39/115/46 34/112/41
f 39/115/46 36/3/42 31/2/40
f 29/28/35 35/109/37 7/256/9
f 35/257/37 31/2/40 1/81/7
f 52/38/61 55/126/62 27/258/34
f 55/259/62 51/60/59 24/62/33
f 37/31/45 50/33/56 56/124/58
f 56/124/58 52/38/61 38/116/47
f 57/127/7 64/16/14 70/136/16
f 70/261/16 66/27/19 58/26/10
f 72/143/24 74/145/25 62/262/13
f 74/263/25 71/58/21 59/132/12
f 78/25/28 84/149/30 76/147/27
f 84/149/30 80/71/33 73/70/26
f 100/166/52 102/167/53 77/264/23
f 102/265/53 99/59/49 71/58/21
f 107/69/59 109/171/60 104/168/55
f 109/171/60 106/50/56 101/49/54
f 99/59/49 105/165/51 88/157/39
f 105/165/51 101/49/54 86/156/38
f 93/48/45 95/161/46 90/158/41
f 95/161/46 92/18/42 87/17/40
f 85/57/35 91/155/37 63/266/9
f 91/267/37 87/17/40 57/127/7
f 108/20/61 111/172/62 83/268/34
f 111/269/62 107/69/59 80/71/33
f 106/50/56 112/170/58 97/163/48
f 112/170/58 108/20/61 94/162/47
f 120/22/14 126/182/16 116/270/11
f 126/271/16 122/45/19 114/44/10
f 128/189/24 130/191/25 118/272/13
f 130/273/25 127/35/21 115/178/12
f 134/43/28 140/195/30 132/193/27
f 140/195/30 136/53/33 129/52/26
f 156/212/52 158/213/53 133/274/23
f 158/275/53 155/36/49 127/35/21
f 163/51/59 165/217/60 160/214/55
f 165/217/60 162/65/56 157/64/54
f 155/36/49 161/211/51 144/203/39
f 161/211/51 157/64/54 142/202/38
f 149/63/45 151/207/46 146/204/41
f 151/207/46 148/24/42 143/23/40
f 141/34/35 147/201/37 119/276/9
f 147/277/37 143/23/40 113/173/7
f 164/76/61 167/218/62 139/278/34
f 167/279/62 163/51/59 136/53/33
f 162/65/56 168/216/58 153/209/48
f 168/216/58 164/76/61 150/208/47
f 176/7/14 182/136/16 172/260/11
f 182/261/16 178/12/19 170/11/10
f 184/230/24 186/231/25 174/280/13
f 186/281/25 183/5/21 171/223/12
f 190/10/28 196/149/30 188/147/27
f 196/149/30 192/68/33 185/67/26
f 212/241/52 214/121/53 189/254/23
f 214/255/53 211/6/49 183/5/21
f 219/66/59 221/171/60 216/168/55
f 216/168/55 221/171/60 218/42/56
f 211/6/49 217/240/51 200/235/39
f 217/240/51 213/41/54 198/234/38
f 205/40/45 207/161/46 202/158/41
f 202/158/41 207/161/46 204/9/42
f 197/4/35 203/109/37 175/282/9
f 203/257/37 199/8/40 169/219/7
f 220/14/61 223/243/62 195/283/34
f 195/107/34 223/259/62 219/66/59
f 218/42/56 224/242/58 209/238/48
f 224/242/58 220/14/61 206/237/47
f 232/7/14 238/136/16 228/260/11
f 238/261/16 234/12/19 226/11/10
f 240/230/24 242/231/25 230/280/13
f 242/281/25 239/73/21 227/245/12
f 246/10/28 252/149/30 244/147/27
f 252/149/30 248/68/33 241/80/26
f 268/248/52 270/121/53 245/254/23
f 270/284/53 267/74/49 239/73/21
f 275/79/59 277/171/60 272/168/55
f 272/168/55 277/171/60 274/42/56
f 267/74/49 273/240/51 256/235/39
f 273/240/51 269/41/54 254/234/38
f 261/40/45 263/161/46 258/158/41
f 258/158/41 263/161/46 260/9/42
f 253/72/35 259/246/37 231/256/9
f 259/257/37 255/78/40 225/244/7
f 276/14/61 279/249/62 251/258/34
f 251/107/34 279/259/62 275/79/59
f 274/42/56 280/242/58 265/238/48
f 280/242/58 276/14/61 262/247/47
f 288/1/14 294/90/16 284/250/11
f 294/251/16 290/56/19 282/55/10
f 282/55/10 296/97/24 298/99/25
f 298/253/25 295/29/21 283/86/12
f 302/54/28 308/103/30 300/101/27
f 308/103/30 304/62/33 297/61/26
f 324/120/52 326/121/53 301/254/23
f 326/255/53 323/30/49 295/29/21
f 331/60/59 333/125/60 328/122/55
f 333/125/60 330/33/56 325/32/54
f 309/28/35 323/30/49 329/119/51
f 329/119/51 325/32/54 310/110/38
f 317/31/45 319/115/46 314/112/41
f 319/115/46 316/3/42 311/2/40
f 309/28/35 315/109/37 287/256/9
f 315/257/37 311/2/40 281/81/7
f 332/38/61 335/126/62 307/258/34
f 335/259/62 331/60/59 304/62/33
f 317/31/45 330/33/56 336/124/58
f 336/124/58 332/38/61 318/116/47
f 9/37/17 23/39/31 25/105/32
f 25/286/32 22/54/28 10/56/19
f 36/3/42 42/114/44 11/287/18
f 42/288/44 38/116/47 9/37/17
f 79/21/31 81/151/32 69/289/20
f 81/290/32 78/25/28 66/27/19
f 92/18/42 98/160/44 67/291/18
f 98/292/44 94/162/47 65/19/17
f 135/77/31 137/197/32 125/293/20
f 137/294/32 134/43/28 122/45/19
f 148/24/42 154/206/44 123/295/18
f 154/296/44 150/208/47 121/75/17
f 191/15/31 193/233/32 181/297/20
f 193/298/32 190/10/28 178/12/19
f 204/9/42 210/114/44 179/287/18
f 210/288/44 206/237/47 177/13/17
f 247/47/31 249/233/32 237/297/20
f 249/298/32 246/10/28 234/12/19
f 260/9/42 266/114/44 235/287/18
f 266/299/44 262/247/47 233/46/17
f 289/37/17 303/39/31 305/105/32
f 305/286/32 302/54/28 290/56/19
f 316/3/42 322/114/44 291/287/18
f 322/288/44 318/116/47 289/37/17
f 8/1/1 1/81/1 31/2/1
