{
	"asset":{
		"generator":"Khronos glTF Blender I/O v4.4.55",
		"version":"2.0"
	},
	"scene":0,
	"scenes":[
		{
			"name":"Scene",
			"nodes":[
				26
			]
		}
	],
	"nodes":[
		{
			"name":"mixamorig:HeadTop_End",
			"rotation":[
				-1.7763568394002505e-15,
				0,
				0,
				1
			],
			"translation":[
				0,
				49.88348388671875,
				-0.010258376598358154
			]
		},
		{
			"children":[
				0
			],
			"name":"mixamorig:Head",
			"rotation":[
				-1.8623271813567044e-09,
				0,
				0,
				1
			],
			"translation":[
				0,
				30.73786163330078,
				-0.006321050226688385
			]
		},
		{
			"children":[
				1
			],
			"name":"mixamorig:Neck",
			"rotation":[
				-0.017251478508114815,
				0,
				0,
				0.9998512268066406
			],
			"translation":[
				0,
				32.18632125854492,
				1.8940772861242294e-07
			]
		},
		{
			"name":"mixamorig:LeftHand",
			"rotation":[
				5.4569690779993074e-12,
				1.658009063376653e-09,
				9.95942261994287e-09,
				1
			],
			"scale":[
				0.9999999403953552,
				0.9999998807907104,
				0.9999998807907104
			],
			"translation":[
				1.0132789611816406e-06,
				61.650962829589844,
				5.185604095458984e-06
			]
		},
		{
			"children":[
				3
			],
			"name":"mixamorig:LeftForeArm",
			"rotation":[
				-0.003814256750047207,
				0.00019304724992252886,
				-0.0505625382065773,
				0.9987136125564575
			],
			"scale":[
				1,
				1.0000001192092896,
				1
			],
			"translation":[
				-5.0924718379974365e-06,
				83.28626251220703,
				-7.415539585053921e-06
			]
		},
		{
			"children":[
				4
			],
			"name":"mixamorig:LeftArm",
			"rotation":[
				-0.09760336577892303,
				-0.012030760757625103,
				0.12174347788095474,
				0.9876777529716492
			],
			"scale":[
				1,
				0.9999999403953552,
				1
			],
			"translation":[
				-2.384185791015625e-07,
				37.001258850097656,
				-2.3793429136276245e-05
			]
		},
		{
			"children":[
				5
			],
			"name":"mixamorig:LeftShoulder",
			"rotation":[
				0.5078469514846802,
				0.47727707028388977,
				-0.5860870480537415,
				0.4132797122001648
			],
			"translation":[
				17.998525619506836,
				28.40431022644043,
				-2.5832509994506836
			]
		},
		{
			"name":"mixamorig:RightHand",
			"rotation":[
				-6.318441592156887e-08,
				-4.065441316924989e-09,
				-1.0262738214805722e-08,
				1
			],
			"scale":[
				1.0000001192092896,
				0.9999999403953552,
				1
			],
			"translation":[
				1.6242265701293945e-06,
				61.65793991088867,
				8.054077625274658e-06
			]
		},
		{
			"children":[
				7
			],
			"name":"mixamorig:RightForeArm",
			"rotation":[
				-0.008191680535674095,
				0.0004989157314412296,
				-0.06080111861228943,
				0.998116135597229
			],
			"scale":[
				1,
				0.9999999403953552,
				1
			],
			"translation":[
				9.5367431640625e-07,
				83.37042236328125,
				-1.8328428268432617e-06
			]
		},
		{
			"children":[
				8
			],
			"name":"mixamorig:RightArm",
			"rotation":[
				-0.08880484849214554,
				-0.01174142025411129,
				0.13054952025413513,
				0.9873867630958557
			],
			"scale":[
				1,
				1.0000001192092896,
				1
			],
			"translation":[
				4.76837158203125e-07,
				36.97398376464844,
				9.5367431640625e-06
			]
		},
		{
			"children":[
				9
			],
			"name":"mixamorig:RightShoulder",
			"rotation":[
				0.5858825445175171,
				-0.4137483239173889,
				0.503239631652832,
				0.4819791316986084
			],
			"scale":[
				0.9999999403953552,
				0.9999999403953552,
				1
			],
			"translation":[
				-17.998525619506836,
				28.58817481994629,
				2.743337392807007
			]
		},
		{
			"children":[
				2,
				6,
				10
			],
			"name":"mixamorig:Spine2",
			"translation":[
				0,
				28.610105514526367,
				-2.384185791015625e-07
			]
		},
		{
			"children":[
				11
			],
			"name":"mixamorig:Spine1",
			"rotation":[
				5.587935447692871e-09,
				0,
				0,
				1
			],
			"translation":[
				0,
				25.03382110595703,
				4.76837158203125e-07
			]
		},
		{
			"children":[
				12
			],
			"name":"mixamorig:Spine",
			"rotation":[
				0.017251476645469666,
				0,
				0,
				0.9998512268066406
			],
			"translation":[
				0,
				21.444793701171875,
				0.7402397990226746
			]
		},
		{
			"name":"mixamorig:LeftToe_End",
			"rotation":[
				1.0565854609012604e-06,
				-2.601882265196309e-08,
				-6.686605047434568e-08,
				1
			],
			"scale":[
				1,
				1,
				1.0000001192092896
			],
			"translation":[
				1.430511474609375e-06,
				14.37507438659668,
				-3.159046173095703e-06
			]
		},
		{
			"children":[
				14
			],
			"name":"mixamorig:LeftToeBase",
			"rotation":[
				0.017340093851089478,
				0.001014101435430348,
				0.058377962559461594,
				0.9981434941291809
			],
			"scale":[
				0.9999999403953552,
				1,
				0.9999998807907104
			],
			"translation":[
				0,
				23.664138793945312,
				-1.8406659364700317e-05
			]
		},
		{
			"children":[
				15
			],
			"name":"mixamorig:LeftFoot",
			"rotation":[
				0.6926287412643433,
				0.2396538108587265,
				-0.26489588618278503,
				0.6266272664070129
			],
			"scale":[
				0.9999998211860657,
				0.9999998211860657,
				0.9999998211860657
			],
			"translation":[
				-2.5173649191856384e-06,
				83.9064712524414,
				-1.1026859283447266e-06
			]
		},
		{
			"children":[
				16
			],
			"name":"mixamorig:LeftLeg",
			"rotation":[
				-0.04040677845478058,
				-0.0011633974500000477,
				0.028541328385472298,
				0.9987749457359314
			],
			"scale":[
				1,
				0.9999999403953552,
				1
			],
			"translation":[
				1.5884870663285255e-06,
				95.14575958251953,
				4.083194653503597e-07
			]
		},
		{
			"children":[
				17
			],
			"name":"mixamorig:LeftUpLeg",
			"rotation":[
				-5.723303911508992e-05,
				-0.004538271576166153,
				-0.9999104142189026,
				0.012592636048793793
			],
			"scale":[
				1.0000001192092896,
				1.0000001192092896,
				1
			],
			"translation":[
				28.431846618652344,
				-11.898330688476562,
				3.6011993885040283
			]
		},
		{
			"name":"mixamorig:RightToe_End",
			"rotation":[
				-5.476176170304825e-07,
				-2.471497282385826e-07,
				2.0035076886415482e-07,
				1
			],
			"scale":[
				0.9999999403953552,
				1.0000001192092896,
				1.0000001192092896
			],
			"translation":[
				-4.76837158203125e-07,
				14.103477478027344,
				-6.22868537902832e-06
			]
		},
		{
			"children":[
				19
			],
			"name":"mixamorig:RightToeBase",
			"rotation":[
				0.016422245651483536,
				0.0008444050909020007,
				0.05132041499018669,
				0.998546838760376
			],
			"scale":[
				0.9999998807907104,
				0.9999998807907104,
				0.9999999403953552
			],
			"translation":[
				-4.291534423828125e-06,
				31.52302360534668,
				1.7061829566955566e-05
			]
		},
		{
			"children":[
				20
			],
			"name":"mixamorig:RightFoot",
			"rotation":[
				0.7436352372169495,
				-0.16737806797027588,
				0.202445387840271,
				0.6148228049278259
			],
			"translation":[
				2.3283064365386963e-07,
				85.03907012939453,
				-6.556510925292969e-07
			]
		},
		{
			"children":[
				21
			],
			"name":"mixamorig:RightLeg",
			"rotation":[
				-0.08808352798223495,
				0.002514135092496872,
				-0.028410255908966064,
				0.995704710483551
			],
			"scale":[
				0.9999999403953552,
				0.9999998807907104,
				0.9999999403953552
			],
			"translation":[
				-1.2127566151320934e-07,
				95.14203643798828,
				-2.690649125725031e-08
			]
		},
		{
			"children":[
				22
			],
			"name":"mixamorig:RightUpLeg",
			"rotation":[
				1.2108158443879802e-05,
				-0.0009649633429944515,
				0.9999202489852905,
				0.012593249790370464
			],
			"scale":[
				1.000000238418579,
				1.0000001192092896,
				1
			],
			"translation":[
				-28.431846618652344,
				-11.898330688476562,
				3.5277836322784424
			]
		},
		{
			"children":[
				13,
				18,
				23
			],
			"name":"mixamorig:Hips",
			"rotation":[
				-0.7071067690849304,
				0,
				0,
				0.7071067690849304
			],
			"scale":[
				1,
				0.9999998807907104,
				1
			],
			"translation":[
				0,
				-3.7006454467773438,
				1.911407232284546
			]
		},
		{
			"mesh":0,
			"name":"\u7acb\u65b9\u4f53",
			"skin":0
		},
		{
			"children":[
				25,
				24
			],
			"name":"Armature",
			"rotation":[
				0.7071068286895752,
				0,
				0,
				0.7071068286895752
			],
			"scale":[
				0.009999999776482582,
				0.009999999776482582,
				0.009999999776482582
			],
			"translation":[
				0,
				-2,
				0
			]
		}
	],
	"animations":[
		{
			"channels":[
				{
					"sampler":0,
					"target":{
						"node":24,
						"path":"translation"
					}
				},
				{
					"sampler":1,
					"target":{
						"node":24,
						"path":"rotation"
					}
				},
				{
					"sampler":2,
					"target":{
						"node":24,
						"path":"scale"
					}
				},
				{
					"sampler":3,
					"target":{
						"node":13,
						"path":"translation"
					}
				},
				{
					"sampler":4,
					"target":{
						"node":13,
						"path":"rotation"
					}
				},
				{
					"sampler":5,
					"target":{
						"node":13,
						"path":"scale"
					}
				},
				{
					"sampler":6,
					"target":{
						"node":12,
						"path":"translation"
					}
				},
				{
					"sampler":7,
					"target":{
						"node":12,
						"path":"rotation"
					}
				},
				{
					"sampler":8,
					"target":{
						"node":12,
						"path":"scale"
					}
				},
				{
					"sampler":9,
					"target":{
						"node":11,
						"path":"translation"
					}
				},
				{
					"sampler":10,
					"target":{
						"node":11,
						"path":"rotation"
					}
				},
				{
					"sampler":11,
					"target":{
						"node":11,
						"path":"scale"
					}
				},
				{
					"sampler":12,
					"target":{
						"node":2,
						"path":"translation"
					}
				},
				{
					"sampler":13,
					"target":{
						"node":2,
						"path":"rotation"
					}
				},
				{
					"sampler":14,
					"target":{
						"node":2,
						"path":"scale"
					}
				},
				{
					"sampler":15,
					"target":{
						"node":1,
						"path":"translation"
					}
				},
				{
					"sampler":16,
					"target":{
						"node":1,
						"path":"rotation"
					}
				},
				{
					"sampler":17,
					"target":{
						"node":1,
						"path":"scale"
					}
				},
				{
					"sampler":18,
					"target":{
						"node":0,
						"path":"translation"
					}
				},
				{
					"sampler":19,
					"target":{
						"node":0,
						"path":"rotation"
					}
				},
				{
					"sampler":20,
					"target":{
						"node":0,
						"path":"scale"
					}
				},
				{
					"sampler":21,
					"target":{
						"node":6,
						"path":"translation"
					}
				},
				{
					"sampler":22,
					"target":{
						"node":6,
						"path":"rotation"
					}
				},
				{
					"sampler":23,
					"target":{
						"node":6,
						"path":"scale"
					}
				},
				{
					"sampler":24,
					"target":{
						"node":5,
						"path":"translation"
					}
				},
				{
					"sampler":25,
					"target":{
						"node":5,
						"path":"rotation"
					}
				},
				{
					"sampler":26,
					"target":{
						"node":5,
						"path":"scale"
					}
				},
				{
					"sampler":27,
					"target":{
						"node":4,
						"path":"translation"
					}
				},
				{
					"sampler":28,
					"target":{
						"node":4,
						"path":"rotation"
					}
				},
				{
					"sampler":29,
					"target":{
						"node":4,
						"path":"scale"
					}
				},
				{
					"sampler":30,
					"target":{
						"node":3,
						"path":"translation"
					}
				},
				{
					"sampler":31,
					"target":{
						"node":3,
						"path":"rotation"
					}
				},
				{
					"sampler":32,
					"target":{
						"node":3,
						"path":"scale"
					}
				},
				{
					"sampler":33,
					"target":{
						"node":10,
						"path":"translation"
					}
				},
				{
					"sampler":34,
					"target":{
						"node":10,
						"path":"rotation"
					}
				},
				{
					"sampler":35,
					"target":{
						"node":10,
						"path":"scale"
					}
				},
				{
					"sampler":36,
					"target":{
						"node":9,
						"path":"translation"
					}
				},
				{
					"sampler":37,
					"target":{
						"node":9,
						"path":"rotation"
					}
				},
				{
					"sampler":38,
					"target":{
						"node":9,
						"path":"scale"
					}
				},
				{
					"sampler":39,
					"target":{
						"node":8,
						"path":"translation"
					}
				},
				{
					"sampler":40,
					"target":{
						"node":8,
						"path":"rotation"
					}
				},
				{
					"sampler":41,
					"target":{
						"node":8,
						"path":"scale"
					}
				},
				{
					"sampler":42,
					"target":{
						"node":7,
						"path":"translation"
					}
				},
				{
					"sampler":43,
					"target":{
						"node":7,
						"path":"rotation"
					}
				},
				{
					"sampler":44,
					"target":{
						"node":7,
						"path":"scale"
					}
				},
				{
					"sampler":45,
					"target":{
						"node":18,
						"path":"translation"
					}
				},
				{
					"sampler":46,
					"target":{
						"node":18,
						"path":"rotation"
					}
				},
				{
					"sampler":47,
					"target":{
						"node":18,
						"path":"scale"
					}
				},
				{
					"sampler":48,
					"target":{
						"node":17,
						"path":"translation"
					}
				},
				{
					"sampler":49,
					"target":{
						"node":17,
						"path":"rotation"
					}
				},
				{
					"sampler":50,
					"target":{
						"node":17,
						"path":"scale"
					}
				},
				{
					"sampler":51,
					"target":{
						"node":16,
						"path":"translation"
					}
				},
				{
					"sampler":52,
					"target":{
						"node":16,
						"path":"rotation"
					}
				},
				{
					"sampler":53,
					"target":{
						"node":16,
						"path":"scale"
					}
				},
				{
					"sampler":54,
					"target":{
						"node":15,
						"path":"translation"
					}
				},
				{
					"sampler":55,
					"target":{
						"node":15,
						"path":"rotation"
					}
				},
				{
					"sampler":56,
					"target":{
						"node":15,
						"path":"scale"
					}
				},
				{
					"sampler":57,
					"target":{
						"node":14,
						"path":"translation"
					}
				},
				{
					"sampler":58,
					"target":{
						"node":14,
						"path":"rotation"
					}
				},
				{
					"sampler":59,
					"target":{
						"node":14,
						"path":"scale"
					}
				},
				{
					"sampler":60,
					"target":{
						"node":23,
						"path":"translation"
					}
				},
				{
					"sampler":61,
					"target":{
						"node":23,
						"path":"rotation"
					}
				},
				{
					"sampler":62,
					"target":{
						"node":23,
						"path":"scale"
					}
				},
				{
					"sampler":63,
					"target":{
						"node":22,
						"path":"translation"
					}
				},
				{
					"sampler":64,
					"target":{
						"node":22,
						"path":"rotation"
					}
				},
				{
					"sampler":65,
					"target":{
						"node":22,
						"path":"scale"
					}
				},
				{
					"sampler":66,
					"target":{
						"node":21,
						"path":"translation"
					}
				},
				{
					"sampler":67,
					"target":{
						"node":21,
						"path":"rotation"
					}
				},
				{
					"sampler":68,
					"target":{
						"node":21,
						"path":"scale"
					}
				},
				{
					"sampler":69,
					"target":{
						"node":20,
						"path":"translation"
					}
				},
				{
					"sampler":70,
					"target":{
						"node":20,
						"path":"rotation"
					}
				},
				{
					"sampler":71,
					"target":{
						"node":20,
						"path":"scale"
					}
				},
				{
					"sampler":72,
					"target":{
						"node":19,
						"path":"translation"
					}
				},
				{
					"sampler":73,
					"target":{
						"node":19,
						"path":"rotation"
					}
				},
				{
					"sampler":74,
					"target":{
						"node":19,
						"path":"scale"
					}
				}
			],
			"name":"Armature|mixamo.com|Layer0",
			"samplers":[
				{
					"input":7,
					"interpolation":"LINEAR",
					"output":8
				},
				{
					"input":7,
					"interpolation":"LINEAR",
					"output":9
				},
				{
					"input":10,
					"interpolation":"STEP",
					"output":11
				},
				{
					"input":10,
					"interpolation":"LINEAR",
					"output":12
				},
				{
					"input":7,
					"interpolation":"LINEAR",
					"output":13
				},
				{
					"input":10,
					"interpolation":"STEP",
					"output":14
				},
				{
					"input":10,
					"interpolation":"LINEAR",
					"output":15
				},
				{
					"input":7,
					"interpolation":"LINEAR",
					"output":16
				},
				{
					"input":10,
					"interpolation":"LINEAR",
					"output":17
				},
				{
					"input":10,
					"interpolation":"LINEAR",
					"output":18
				},
				{
					"input":7,
					"interpolation":"LINEAR",
					"output":19
				},
				{
					"input":10,
					"interpolation":"STEP",
					"output":20
				},
				{
					"input":10,
					"interpolation":"LINEAR",
					"output":21
				},
				{
					"input":7,
					"interpolation":"LINEAR",
					"output":22
				},
				{
					"input":10,
					"interpolation":"STEP",
					"output":23
				},
				{
					"input":10,
					"interpolation":"LINEAR",
					"output":24
				},
				{
					"input":7,
					"interpolation":"LINEAR",
					"output":25
				},
				{
					"input":10,
					"interpolation":"STEP",
					"output":26
				},
				{
					"input":10,
					"interpolation":"STEP",
					"output":27
				},
				{
					"input":10,
					"interpolation":"STEP",
					"output":28
				},
				{
					"input":10,
					"interpolation":"STEP",
					"output":29
				},
				{
					"input":10,
					"interpolation":"LINEAR",
					"output":30
				},
				{
					"input":7,
					"interpolation":"LINEAR",
					"output":31
				},
				{
					"input":10,
					"interpolation":"STEP",
					"output":32
				},
				{
					"input":7,
					"interpolation":"LINEAR",
					"output":33
				},
				{
					"input":7,
					"interpolation":"LINEAR",
					"output":34
				},
				{
					"input":10,
					"interpolation":"LINEAR",
					"output":35
				},
				{
					"input":10,
					"interpolation":"LINEAR",
					"output":36
				},
				{
					"input":7,
					"interpolation":"LINEAR",
					"output":37
				},
				{
					"input":10,
					"interpolation":"LINEAR",
					"output":38
				},
				{
					"input":10,
					"interpolation":"STEP",
					"output":39
				},
				{
					"input":10,
					"interpolation":"STEP",
					"output":40
				},
				{
					"input":10,
					"interpolation":"STEP",
					"output":41
				},
				{
					"input":10,
					"interpolation":"LINEAR",
					"output":42
				},
				{
					"input":7,
					"interpolation":"LINEAR",
					"output":43
				},
				{
					"input":10,
					"interpolation":"STEP",
					"output":44
				},
				{
					"input":7,
					"interpolation":"LINEAR",
					"output":45
				},
				{
					"input":7,
					"interpolation":"LINEAR",
					"output":46
				},
				{
					"input":10,
					"interpolation":"STEP",
					"output":47
				},
				{
					"input":10,
					"interpolation":"LINEAR",
					"output":48
				},
				{
					"input":7,
					"interpolation":"LINEAR",
					"output":49
				},
				{
					"input":10,
					"interpolation":"STEP",
					"output":50
				},
				{
					"input":10,
					"interpolation":"STEP",
					"output":51
				},
				{
					"input":10,
					"interpolation":"STEP",
					"output":52
				},
				{
					"input":10,
					"interpolation":"STEP",
					"output":53
				},
				{
					"input":10,
					"interpolation":"LINEAR",
					"output":54
				},
				{
					"input":7,
					"interpolation":"LINEAR",
					"output":55
				},
				{
					"input":10,
					"interpolation":"STEP",
					"output":56
				},
				{
					"input":10,
					"interpolation":"LINEAR",
					"output":57
				},
				{
					"input":7,
					"interpolation":"LINEAR",
					"output":58
				},
				{
					"input":10,
					"interpolation":"STEP",
					"output":59
				},
				{
					"input":10,
					"interpolation":"LINEAR",
					"output":60
				},
				{
					"input":7,
					"interpolation":"LINEAR",
					"output":61
				},
				{
					"input":10,
					"interpolation":"LINEAR",
					"output":62
				},
				{
					"input":10,
					"interpolation":"LINEAR",
					"output":63
				},
				{
					"input":7,
					"interpolation":"LINEAR",
					"output":64
				},
				{
					"input":10,
					"interpolation":"STEP",
					"output":65
				},
				{
					"input":10,
					"interpolation":"STEP",
					"output":66
				},
				{
					"input":10,
					"interpolation":"STEP",
					"output":67
				},
				{
					"input":10,
					"interpolation":"STEP",
					"output":68
				},
				{
					"input":10,
					"interpolation":"LINEAR",
					"output":69
				},
				{
					"input":7,
					"interpolation":"LINEAR",
					"output":70
				},
				{
					"input":10,
					"interpolation":"STEP",
					"output":71
				},
				{
					"input":10,
					"interpolation":"LINEAR",
					"output":72
				},
				{
					"input":7,
					"interpolation":"LINEAR",
					"output":73
				},
				{
					"input":10,
					"interpolation":"STEP",
					"output":74
				},
				{
					"input":10,
					"interpolation":"LINEAR",
					"output":75
				},
				{
					"input":7,
					"interpolation":"LINEAR",
					"output":76
				},
				{
					"input":10,
					"interpolation":"LINEAR",
					"output":77
				},
				{
					"input":10,
					"interpolation":"LINEAR",
					"output":78
				},
				{
					"input":7,
					"interpolation":"LINEAR",
					"output":79
				},
				{
					"input":10,
					"interpolation":"STEP",
					"output":80
				},
				{
					"input":10,
					"interpolation":"STEP",
					"output":81
				},
				{
					"input":10,
					"interpolation":"STEP",
					"output":82
				},
				{
					"input":10,
					"interpolation":"STEP",
					"output":83
				}
			]
		}
	],
	"meshes":[
		{
			"name":"\u7acb\u65b9\u4f53",
			"primitives":[
				{
					"attributes":{
						"POSITION":0,
						"NORMAL":1,
						"TEXCOORD_0":2,
						"JOINTS_0":3,
						"WEIGHTS_0":4
					},
					"indices":5
				}
			]
		}
	],
	"skins":[
		{
			"inverseBindMatrices":6,
			"joints":[
				24,
				13,
				12,
				11,
				2,
				1,
				0,
				6,
				5,
				4,
				3,
				10,
				9,
				8,
				7,
				18,
				17,
				16,
				15,
				14,
				23,
				22,
				21,
				20,
				19
			],
			"name":"Armature"
		}
	],
	"accessors":[
		{
			"bufferView":0,
			"componentType":5126,
			"count":280,
			"max":[
				2.1810529232025146,
				-0.14101232588291168,
				0.39124077558517456
			],
			"min":[
				-2.1810529232025146,
				-3.9637515544891357,
				-0.39124128222465515
			],
			"type":"VEC3"
		},
		{
			"bufferView":1,
			"componentType":5126,
			"count":280,
			"type":"VEC3"
		},
		{
			"bufferView":2,
			"componentType":5126,
			"count":280,
			"type":"VEC2"
		},
		{
			"bufferView":3,
			"componentType":5121,
			"count":280,
			"type":"VEC4"
		},
		{
			"bufferView":4,
			"componentType":5126,
			"count":280,
			"type":"VEC4"
		},
		{
			"bufferView":5,
			"componentType":5123,
			"count":900,
			"type":"SCALAR"
		},
		{
			"bufferView":6,
			"componentType":5126,
			"count":25,
			"type":"MAT4"
		},
		{
			"bufferView":7,
			"componentType":5126,
			"count":25,
			"max":[
				0.8333333333333334
			],
			"min":[
				0.03333333333333333
			],
			"type":"SCALAR"
		},
		{
			"bufferView":8,
			"componentType":5126,
			"count":25,
			"type":"VEC3"
		},
		{
			"bufferView":9,
			"componentType":5126,
			"count":25,
			"type":"VEC4"
		},
		{
			"bufferView":10,
			"componentType":5126,
			"count":2,
			"max":[
				0.8333333333333334
			],
			"min":[
				0.03333333333333333
			],
			"type":"SCALAR"
		},
		{
			"bufferView":11,
			"componentType":5126,
			"count":2,
			"type":"VEC3"
		},
		{
			"bufferView":12,
			"componentType":5126,
			"count":2,
			"type":"VEC3"
		},
		{
			"bufferView":13,
			"componentType":5126,
			"count":25,
			"type":"VEC4"
		},
		{
			"bufferView":14,
			"componentType":5126,
			"count":2,
			"type":"VEC3"
		},
		{
			"bufferView":15,
			"componentType":5126,
			"count":2,
			"type":"VEC3"
		},
		{
			"bufferView":16,
			"componentType":5126,
			"count":25,
			"type":"VEC4"
		},
		{
			"bufferView":17,
			"componentType":5126,
			"count":2,
			"type":"VEC3"
		},
		{
			"bufferView":18,
			"componentType":5126,
			"count":2,
			"type":"VEC3"
		},
		{
			"bufferView":19,
			"componentType":5126,
			"count":25,
			"type":"VEC4"
		},
		{
			"bufferView":20,
			"componentType":5126,
			"count":2,
			"type":"VEC3"
		},
		{
			"bufferView":21,
			"componentType":5126,
			"count":2,
			"type":"VEC3"
		},
		{
			"bufferView":22,
			"componentType":5126,
			"count":25,
			"type":"VEC4"
		},
		{
			"bufferView":23,
			"componentType":5126,
			"count":2,
			"type":"VEC3"
		},
		{
			"bufferView":24,
			"componentType":5126,
			"count":2,
			"type":"VEC3"
		},
		{
			"bufferView":25,
			"componentType":5126,
			"count":25,
			"type":"VEC4"
		},
		{
			"bufferView":26,
			"componentType":5126,
			"count":2,
			"type":"VEC3"
		},
		{
			"bufferView":27,
			"componentType":5126,
			"count":2,
			"type":"VEC3"
		},
		{
			"bufferView":28,
			"componentType":5126,
			"count":2,
			"type":"VEC4"
		},
		{
			"bufferView":29,
			"componentType":5126,
			"count":2,
			"type":"VEC3"
		},
		{
			"bufferView":30,
			"componentType":5126,
			"count":2,
			"type":"VEC3"
		},
		{
			"bufferView":31,
			"componentType":5126,
			"count":25,
			"type":"VEC4"
		},
		{
			"bufferView":32,
			"componentType":5126,
			"count":2,
			"type":"VEC3"
		},
		{
			"bufferView":33,
			"componentType":5126,
			"count":25,
			"type":"VEC3"
		},
		{
			"bufferView":34,
			"componentType":5126,
			"count":25,
			"type":"VEC4"
		},
		{
			"bufferView":35,
			"componentType":5126,
			"count":2,
			"type":"VEC3"
		},
		{
			"bufferView":36,
			"componentType":5126,
			"count":2,
			"type":"VEC3"
		},
		{
			"bufferView":37,
			"componentType":5126,
			"count":25,
			"type":"VEC4"
		},
		{
			"bufferView":38,
			"componentType":5126,
			"count":2,
			"type":"VEC3"
		},
		{
			"bufferView":39,
			"componentType":5126,
			"count":2,
			"type":"VEC3"
		},
		{
			"bufferView":40,
			"componentType":5126,
			"count":2,
			"type":"VEC4"
		},
		{
			"bufferView":41,
			"componentType":5126,
			"count":2,
			"type":"VEC3"
		},
		{
			"bufferView":42,
			"componentType":5126,
			"count":2,
			"type":"VEC3"
		},
		{
			"bufferView":43,
			"componentType":5126,
			"count":25,
			"type":"VEC4"
		},
		{
			"bufferView":44,
			"componentType":5126,
			"count":2,
			"type":"VEC3"
		},
		{
			"bufferView":45,
			"componentType":5126,
			"count":25,
			"type":"VEC3"
		},
		{
			"bufferView":46,
			"componentType":5126,
			"count":25,
			"type":"VEC4"
		},
		{
			"bufferView":47,
			"componentType":5126,
			"count":2,
			"type":"VEC3"
		},
		{
			"bufferView":48,
			"componentType":5126,
			"count":2,
			"type":"VEC3"
		},
		{
			"bufferView":49,
			"componentType":5126,
			"count":25,
			"type":"VEC4"
		},
		{
			"bufferView":50,
			"componentType":5126,
			"count":2,
			"type":"VEC3"
		},
		{
			"bufferView":51,
			"componentType":5126,
			"count":2,
			"type":"VEC3"
		},
		{
			"bufferView":52,
			"componentType":5126,
			"count":2,
			"type":"VEC4"
		},
		{
			"bufferView":53,
			"componentType":5126,
			"count":2,
			"type":"VEC3"
		},
		{
			"bufferView":54,
			"componentType":5126,
			"count":2,
			"type":"VEC3"
		},
		{
			"bufferView":55,
			"componentType":5126,
			"count":25,
			"type":"VEC4"
		},
		{
			"bufferView":56,
			"componentType":5126,
			"count":2,
			"type":"VEC3"
		},
		{
			"bufferView":57,
			"componentType":5126,
			"count":2,
			"type":"VEC3"
		},
		{
			"bufferView":58,
			"componentType":5126,
			"count":25,
			"type":"VEC4"
		},
		{
			"bufferView":59,
			"componentType":5126,
			"count":2,
			"type":"VEC3"
		},
		{
			"bufferView":60,
			"componentType":5126,
			"count":2,
			"type":"VEC3"
		},
		{
			"bufferView":61,
			"componentType":5126,
			"count":25,
			"type":"VEC4"
		},
		{
			"bufferView":62,
			"componentType":5126,
			"count":2,
			"type":"VEC3"
		},
		{
			"bufferView":63,
			"componentType":5126,
			"count":2,
			"type":"VEC3"
		},
		{
			"bufferView":64,
			"componentType":5126,
			"count":25,
			"type":"VEC4"
		},
		{
			"bufferView":65,
			"componentType":5126,
			"count":2,
			"type":"VEC3"
		},
		{
			"bufferView":66,
			"componentType":5126,
			"count":2,
			"type":"VEC3"
		},
		{
			"bufferView":67,
			"componentType":5126,
			"count":2,
			"type":"VEC4"
		},
		{
			"bufferView":68,
			"componentType":5126,
			"count":2,
			"type":"VEC3"
		},
		{
			"bufferView":69,
			"componentType":5126,
			"count":2,
			"type":"VEC3"
		},
		{
			"bufferView":70,
			"componentType":5126,
			"count":25,
			"type":"VEC4"
		},
		{
			"bufferView":71,
			"componentType":5126,
			"count":2,
			"type":"VEC3"
		},
		{
			"bufferView":72,
			"componentType":5126,
			"count":2,
			"type":"VEC3"
		},
		{
			"bufferView":73,
			"componentType":5126,
			"count":25,
			"type":"VEC4"
		},
		{
			"bufferView":74,
			"componentType":5126,
			"count":2,
			"type":"VEC3"
		},
		{
			"bufferView":75,
			"componentType":5126,
			"count":2,
			"type":"VEC3"
		},
		{
			"bufferView":76,
			"componentType":5126,
			"count":25,
			"type":"VEC4"
		},
		{
			"bufferView":77,
			"componentType":5126,
			"count":2,
			"type":"VEC3"
		},
		{
			"bufferView":78,
			"componentType":5126,
			"count":2,
			"type":"VEC3"
		},
		{
			"bufferView":79,
			"componentType":5126,
			"count":25,
			"type":"VEC4"
		},
		{
			"bufferView":80,
			"componentType":5126,
			"count":2,
			"type":"VEC3"
		},
		{
			"bufferView":81,
			"componentType":5126,
			"count":2,
			"type":"VEC3"
		},
		{
			"bufferView":82,
			"componentType":5126,
			"count":2,
			"type":"VEC4"
		},
		{
			"bufferView":83,
			"componentType":5126,
			"count":2,
			"type":"VEC3"
		}
	],
	"bufferViews":[
		{
			"buffer":0,
			"byteLength":3360,
			"byteOffset":0,
			"target":34962
		},
		{
			"buffer":0,
			"byteLength":3360,
			"byteOffset":3360,
			"target":34962
		},
		{
			"buffer":0,
			"byteLength":2240,
			"byteOffset":6720,
			"target":34962
		},
		{
			"buffer":0,
			"byteLength":1120,
			"byteOffset":8960,
			"target":34962
		},
		{
			"buffer":0,
			"byteLength":4480,
			"byteOffset":10080,
			"target":34962
		},
		{
			"buffer":0,
			"byteLength":1800,
			"byteOffset":14560,
			"target":34963
		},
		{
			"buffer":0,
			"byteLength":1600,
			"byteOffset":16360
		},
		{
			"buffer":0,
			"byteLength":100,
			"byteOffset":17960
		},
		{
			"buffer":0,
			"byteLength":300,
			"byteOffset":18060
		},
		{
			"buffer":0,
			"byteLength":400,
			"byteOffset":18360
		},
		{
			"buffer":0,
			"byteLength":8,
			"byteOffset":18760
		},
		{
			"buffer":0,
			"byteLength":24,
			"byteOffset":18768
		},
		{
			"buffer":0,
			"byteLength":24,
			"byteOffset":18792
		},
		{
			"buffer":0,
			"byteLength":400,
			"byteOffset":18816
		},
		{
			"buffer":0,
			"byteLength":24,
			"byteOffset":19216
		},
		{
			"buffer":0,
			"byteLength":24,
			"byteOffset":19240
		},
		{
			"buffer":0,
			"byteLength":400,
			"byteOffset":19264
		},
		{
			"buffer":0,
			"byteLength":24,
			"byteOffset":19664
		},
		{
			"buffer":0,
			"byteLength":24,
			"byteOffset":19688
		},
		{
			"buffer":0,
			"byteLength":400,
			"byteOffset":19712
		},
		{
			"buffer":0,
			"byteLength":24,
			"byteOffset":20112
		},
		{
			"buffer":0,
			"byteLength":24,
			"byteOffset":20136
		},
		{
			"buffer":0,
			"byteLength":400,
			"byteOffset":20160
		},
		{
			"buffer":0,
			"byteLength":24,
			"byteOffset":20560
		},
		{
			"buffer":0,
			"byteLength":24,
			"byteOffset":20584
		},
		{
			"buffer":0,
			"byteLength":400,
			"byteOffset":20608
		},
		{
			"buffer":0,
			"byteLength":24,
			"byteOffset":21008
		},
		{
			"buffer":0,
			"byteLength":24,
			"byteOffset":21032
		},
		{
			"buffer":0,
			"byteLength":32,
			"byteOffset":21056
		},
		{
			"buffer":0,
			"byteLength":24,
			"byteOffset":21088
		},
		{
			"buffer":0,
			"byteLength":24,
			"byteOffset":21112
		},
		{
			"buffer":0,
			"byteLength":400,
			"byteOffset":21136
		},
		{
			"buffer":0,
			"byteLength":24,
			"byteOffset":21536
		},
		{
			"buffer":0,
			"byteLength":300,
			"byteOffset":21560
		},
		{
			"buffer":0,
			"byteLength":400,
			"byteOffset":21860
		},
		{
			"buffer":0,
			"byteLength":24,
			"byteOffset":22260
		},
		{
			"buffer":0,
			"byteLength":24,
			"byteOffset":22284
		},
		{
			"buffer":0,
			"byteLength":400,
			"byteOffset":22308
		},
		{
			"buffer":0,
			"byteLength":24,
			"byteOffset":22708
		},
		{
			"buffer":0,
			"byteLength":24,
			"byteOffset":22732
		},
		{
			"buffer":0,
			"byteLength":32,
			"byteOffset":22756
		},
		{
			"buffer":0,
			"byteLength":24,
			"byteOffset":22788
		},
		{
			"buffer":0,
			"byteLength":24,
			"byteOffset":22812
		},
		{
			"buffer":0,
			"byteLength":400,
			"byteOffset":22836
		},
		{
			"buffer":0,
			"byteLength":24,
			"byteOffset":23236
		},
		{
			"buffer":0,
			"byteLength":300,
			"byteOffset":23260
		},
		{
			"buffer":0,
			"byteLength":400,
			"byteOffset":23560
		},
		{
			"buffer":0,
			"byteLength":24,
			"byteOffset":23960
		},
		{
			"buffer":0,
			"byteLength":24,
			"byteOffset":23984
		},
		{
			"buffer":0,
			"byteLength":400,
			"byteOffset":24008
		},
		{
			"buffer":0,
			"byteLength":24,
			"byteOffset":24408
		},
		{
			"buffer":0,
			"byteLength":24,
			"byteOffset":24432
		},
		{
			"buffer":0,
			"byteLength":32,
			"byteOffset":24456
		},
		{
			"buffer":0,
			"byteLength":24,
			"byteOffset":24488
		},
		{
			"buffer":0,
			"byteLength":24,
			"byteOffset":24512
		},
		{
			"buffer":0,
			"byteLength":400,
			"byteOffset":24536
		},
		{
			"buffer":0,
			"byteLength":24,
			"byteOffset":24936
		},
		{
			"buffer":0,
			"byteLength":24,
			"byteOffset":24960
		},
		{
			"buffer":0,
			"byteLength":400,
			"byteOffset":24984
		},
		{
			"buffer":0,
			"byteLength":24,
			"byteOffset":25384
		},
		{
			"buffer":0,
			"byteLength":24,
			"byteOffset":25408
		},
		{
			"buffer":0,
			"byteLength":400,
			"byteOffset":25432
		},
		{
			"buffer":0,
			"byteLength":24,
			"byteOffset":25832
		},
		{
			"buffer":0,
			"byteLength":24,
			"byteOffset":25856
		},
		{
			"buffer":0,
			"byteLength":400,
			"byteOffset":25880
		},
		{
			"buffer":0,
			"byteLength":24,
			"byteOffset":26280
		},
		{
			"buffer":0,
			"byteLength":24,
			"byteOffset":26304
		},
		{
			"buffer":0,
			"byteLength":32,
			"byteOffset":26328
		},
		{
			"buffer":0,
			"byteLength":24,
			"byteOffset":26360
		},
		{
			"buffer":0,
			"byteLength":24,
			"byteOffset":26384
		},
		{
			"buffer":0,
			"byteLength":400,
			"byteOffset":26408
		},
		{
			"buffer":0,
			"byteLength":24,
			"byteOffset":26808
		},
		{
			"buffer":0,
			"byteLength":24,
			"byteOffset":26832
		},
		{
			"buffer":0,
			"byteLength":400,
			"byteOffset":26856
		},
		{
			"buffer":0,
			"byteLength":24,
			"byteOffset":27256
		},
		{
			"buffer":0,
			"byteLength":24,
			"byteOffset":27280
		},
		{
			"buffer":0,
			"byteLength":400,
			"byteOffset":27304
		},
		{
			"buffer":0,
			"byteLength":24,
			"byteOffset":27704
		},
		{
			"buffer":0,
			"byteLength":24,
			"byteOffset":27728
		},
		{
			"buffer":0,
			"byteLength":400,
			"byteOffset":27752
		},
		{
			"buffer":0,
			"byteLength":24,
			"byteOffset":28152
		},
		{
			"buffer":0,
			"byteLength":24,
			"byteOffset":28176
		},
		{
			"buffer":0,
			"byteLength":32,
			"byteOffset":28200
		},
		{
			"buffer":0,
			"byteLength":24,
			"byteOffset":28232
		}
	],
	"buffers":[
		{
			"byteLength":28256,
			"uri":"walk.bin"
		}
	]
}
