# Blender 4.4.0
# www.blender.org
mtllib concreteBarrier.mtl
o 立方体.001
v -0.787500 1.000000 0.000000
v -0.795873 1.000000 0.025000
v -0.790173 1.032632 0.000000
v -0.795873 1.000000 -0.025000
v -0.798475 1.031757 0.025000
v -0.798475 1.031757 -0.025000
v -0.818750 1.000000 0.043301
v -0.821156 1.029368 0.043301
v -0.850000 1.000000 0.050000
v -0.852139 1.026105 0.050000
v -0.883121 1.022842 0.043301
v -0.858518 1.051764 0.050000
v -0.888704 1.045293 0.043301
v -0.910801 1.040557 0.025000
v -0.897901 1.066970 0.043301
v -0.919037 1.059966 0.025000
v -0.926773 1.057402 0.000000
v -0.930369 1.078349 0.025000
v -0.937620 1.075000 0.000000
v -0.930369 1.078349 -0.025000
v -0.951246 1.091314 0.000000
v -0.919037 1.059966 -0.025000
v -0.910801 1.040557 -0.025000
v -0.897901 1.066970 -0.043301
v -0.888704 1.045293 -0.043301
v -0.883121 1.022842 -0.043301
v -0.858518 1.051764 -0.050000
v -0.852139 1.026105 -0.050000
v -0.850000 1.000000 -0.050000
v -0.821156 1.029368 -0.043301
v -0.818750 1.000000 -0.043301
v -0.881250 1.000000 0.043301
v -0.904127 1.000000 0.025000
v -0.905802 1.020453 0.025000
v -0.914104 1.019579 0.000000
v -0.918889 1.038823 0.000000
v -0.905802 1.020453 -0.025000
v -0.904127 1.000000 -0.025000
v -0.881250 1.000000 -0.043301
v -0.912500 1.000000 0.000000
v -0.828333 1.058234 -0.043301
v -0.806236 1.062971 -0.025000
v -0.840159 1.086104 -0.043301
v -0.869030 1.076537 -0.050000
v -0.883494 1.100000 -0.050000
v -0.910557 1.087500 -0.043301
v -0.926454 1.106533 -0.043301
v -0.944603 1.095392 -0.025000
v -0.961497 1.110803 -0.025000
v -0.967417 1.106066 0.000000
v -0.961497 1.110803 0.025000
v -0.985857 1.119003 0.000000
v -0.944603 1.095392 0.025000
v -0.926454 1.106533 0.043301
v -0.910557 1.087500 0.043301
v -0.883494 1.100000 0.050000
v -0.869030 1.076537 0.050000
v -0.840159 1.086104 0.043301
v -0.828333 1.058234 0.043301
v -0.806236 1.062971 0.025000
v -0.798148 1.064705 0.000000
v -0.819024 1.093107 0.025000
v -0.811288 1.095671 0.000000
v -0.836619 1.121651 0.025000
v -0.856430 1.112500 0.043301
v -0.876869 1.136971 0.043301
v -0.901662 1.121752 0.050000
v -0.923223 1.141421 0.050000
v -0.945320 1.123744 0.043301
v -0.966833 1.138837 0.043301
v -0.980760 1.124317 0.025000
v -1.002063 1.135705 0.025000
v -1.006250 1.129904 0.000000
v -1.002063 1.135705 -0.025000
v -1.028247 1.138582 0.000000
v -0.980760 1.124317 -0.025000
v -0.966833 1.138837 -0.043301
v -0.945320 1.123744 -0.043301
v -0.923223 1.141421 -0.050000
v -0.901662 1.121752 -0.050000
v -0.876869 1.136971 -0.043301
v -0.856430 1.112500 -0.043301
v -0.836619 1.121651 -0.025000
v -0.819024 1.093107 -0.025000
v -0.829367 1.125000 0.000000
v -0.858720 1.148112 -0.025000
v -0.852077 1.152190 0.000000
v -0.884950 1.172040 -0.025000
v -0.901126 1.159099 -0.043301
v -0.928786 1.178504 -0.043301
v -0.947810 1.158671 -0.050000
v -0.975000 1.173205 -0.050000
v -0.990625 1.151554 -0.043301
v -1.016288 1.161679 -0.043301
v -1.025042 1.144771 -0.025000
v -1.049304 1.151359 -0.025000
v -1.051471 1.144889 0.000000
v -1.049304 1.151359 0.025000
v -1.075526 1.148717 0.000000
v -1.025042 1.144771 0.025000
v -1.016288 1.161679 0.043301
v -0.990625 1.151554 0.043301
v -0.975000 1.173205 0.050000
v -0.947810 1.158671 0.050000
v -0.928786 1.178504 0.043301
v -0.901126 1.159099 0.043301
v -0.884950 1.172040 0.025000
v -0.858720 1.148112 0.025000
v -0.879029 1.176777 0.000000
v -0.914859 1.193024 0.025000
v -0.909762 1.198338 0.000000
v -0.947937 1.210705 0.025000
v -0.959375 1.194856 0.043301
v -0.992370 1.207873 0.043301
v -1.004329 1.184776 0.050000
v -1.035295 1.193185 0.050000
v -1.043383 1.169037 0.043301
v -1.071447 1.173503 0.043301
v -1.074433 1.155358 0.025000
v -1.100000 1.156699 0.025000
v -1.100000 1.150000 0.000000
v -1.100000 1.156699 -0.025000
v -1.124474 1.148717 0.000000
v -1.074433 1.155358 -0.025000
v -1.125567 1.155358 0.025000
v -1.125567 1.155358 -0.025000
v -1.128553 1.173503 -0.043301
v -1.150696 1.151359 -0.025000
v -1.156617 1.169037 -0.043301
v -1.164705 1.193185 -0.050000
v -1.183712 1.161679 -0.043301
v -1.195671 1.184776 -0.050000
v -1.207630 1.207873 -0.043301
v -1.225000 1.173205 -0.050000
v -1.240625 1.194856 -0.043301
v -1.252063 1.210705 -0.025000
v -1.271214 1.178504 -0.043301
v -1.285141 1.193024 -0.025000
v -1.290238 1.198338 0.000000
v -1.315050 1.172040 -0.025000
v -1.320971 1.176777 0.000000
v -1.315050 1.172040 0.025000
v -1.347923 1.152190 0.000000
v -1.285141 1.193024 0.025000
v -1.252063 1.210705 0.025000
v -1.271214 1.178504 0.043301
v -1.240625 1.194856 0.043301
v -1.207630 1.207873 0.043301
v -1.225000 1.173205 0.050000
v -1.195671 1.184776 0.050000
v -1.164705 1.193185 0.050000
v -1.183712 1.161679 0.043301
v -1.156617 1.169037 0.043301
v -1.128553 1.173503 0.043301
v -1.150696 1.151359 0.025000
v -1.148529 1.144889 0.000000
v -1.174958 1.144771 0.025000
v -1.171753 1.138582 0.000000
v -1.197937 1.135705 0.025000
v -1.209375 1.151554 0.043301
v -1.233167 1.138837 0.043301
v -1.252190 1.158671 0.050000
v -1.276777 1.141421 0.050000
v -1.298874 1.159099 0.043301
v -1.323131 1.136971 0.043301
v -1.341280 1.148112 0.025000
v -1.363381 1.121651 0.025000
v -1.370633 1.125000 0.000000
v -1.363381 1.121651 -0.025000
v -1.388712 1.095671 0.000000
v -1.341280 1.148112 -0.025000
v -1.323131 1.136971 -0.043301
v -1.298874 1.159099 -0.043301
v -1.276777 1.141421 -0.050000
v -1.252190 1.158671 -0.050000
v -1.233167 1.138837 -0.043301
v -1.209375 1.151554 -0.043301
v -1.197937 1.135705 -0.025000
v -1.174958 1.144771 -0.025000
v -1.193750 1.129904 0.000000
v -1.219240 1.124317 -0.025000
v -1.214143 1.119003 0.000000
v -1.238503 1.110803 -0.025000
v -1.254680 1.123744 -0.043301
v -1.273546 1.106533 -0.043301
v -1.298338 1.121752 -0.050000
v -1.316506 1.100000 -0.050000
v -1.343570 1.112500 -0.043301
v -1.359841 1.086104 -0.043301
v -1.380976 1.093107 -0.025000
v -1.393764 1.062971 -0.025000
v -1.401852 1.064705 0.000000
v -1.393764 1.062971 0.025000
v -1.409827 1.032632 0.000000
v -1.380976 1.093107 0.025000
v -1.359841 1.086104 0.043301
v -1.343570 1.112500 0.043301
v -1.316506 1.100000 0.050000
v -1.298338 1.121752 0.050000
v -1.273546 1.106533 0.043301
v -1.254680 1.123744 0.043301
v -1.238503 1.110803 0.025000
v -1.219240 1.124317 0.025000
v -1.232583 1.106066 0.000000
v -1.255397 1.095392 0.025000
v -1.248754 1.091314 0.000000
v -1.269631 1.078349 0.025000
v -1.289443 1.087500 0.043301
v -1.302099 1.066970 0.043301
v -1.330970 1.076537 0.050000
v -1.341482 1.051764 0.050000
v -1.371667 1.058234 0.043301
v -1.378844 1.029368 0.043301
v -1.401525 1.031757 0.025000
v -1.404127 1.000000 0.025000
v -1.412500 1.000000 0.000000
v -1.404127 1.000000 -0.025000
v -1.401525 1.031757 -0.025000
v -1.381250 1.000000 0.043301
v -1.350000 1.000000 0.050000
v -1.350000 1.000000 -0.050000
v -1.381250 1.000000 -0.043301
v -1.378844 1.029368 -0.043301
v -1.347861 1.026105 -0.050000
v -1.316879 1.022842 -0.043301
v -1.341482 1.051764 -0.050000
v -1.311296 1.045293 -0.043301
v -1.289199 1.040557 -0.025000
v -1.302099 1.066970 -0.043301
v -1.280964 1.059966 -0.025000
v -1.273227 1.057402 0.000000
v -1.269631 1.078349 -0.025000
v -1.262380 1.075000 0.000000
v -1.280964 1.059966 0.025000
v -1.289199 1.040557 0.025000
v -1.311296 1.045293 0.043301
v -1.316879 1.022842 0.043301
v -1.347861 1.026105 0.050000
v -1.294198 1.020453 0.025000
v -1.318750 1.000000 0.043301
v -1.295874 1.000000 0.025000
v -1.295874 1.000000 -0.025000
v -1.318750 1.000000 -0.043301
v -1.294198 1.020453 -0.025000
v -1.285896 1.019579 0.000000
v -1.281111 1.038823 0.000000
v -1.287500 1.000000 0.000000
v -1.255397 1.095392 -0.025000
v -1.289443 1.087500 -0.043301
v -1.330970 1.076537 -0.050000
v -1.371667 1.058234 -0.043301
v -1.132632 1.198289 0.050000
v -1.100000 1.175000 0.043301
v -1.100000 1.200000 0.050000
v -1.067369 1.198289 0.050000
v -1.063290 1.223075 0.043301
v -1.027207 1.217333 0.043301
v -1.021286 1.235011 0.025000
v -0.983616 1.224781 0.025000
v -0.980411 1.230970 0.000000
v -0.943750 1.216506 0.000000
v -0.947937 1.210705 -0.025000
v -0.983616 1.224781 -0.025000
v -0.992370 1.207873 -0.043301
v -1.021286 1.235011 -0.025000
v -1.027207 1.217333 -0.043301
v -1.035295 1.193185 -0.050000
v -1.063290 1.223075 -0.043301
v -1.067369 1.198289 -0.050000
v -1.071447 1.173503 -0.043301
v -1.100000 1.200000 -0.050000
v -1.100000 1.175000 -0.043301
v -1.132632 1.198289 -0.050000
v -1.136711 1.223075 -0.043301
v -1.172793 1.217333 -0.043301
v -1.178714 1.235011 -0.025000
v -1.216384 1.224781 -0.025000
v -1.219589 1.230970 0.000000
v -1.256250 1.216506 0.000000
v -1.216384 1.224781 0.025000
v -1.178714 1.235011 0.025000
v -1.172793 1.217333 0.043301
v -1.136711 1.223075 0.043301
v -1.139697 1.241220 0.025000
v -1.100000 1.225000 0.043301
v -1.100000 1.243301 0.025000
v -1.060304 1.241220 0.025000
v -1.059211 1.247861 0.000000
v -1.019119 1.241481 0.000000
v -1.060304 1.241220 -0.025000
v -1.100000 1.243301 -0.025000
v -1.100000 1.225000 -0.043301
v -1.139697 1.241220 -0.025000
v -1.140790 1.247861 0.000000
v -1.180881 1.241481 0.000000
v -1.100000 1.250000 0.000000
v -1.043383 1.169037 -0.043301
v -1.004329 1.184776 -0.050000
v -0.959375 1.194856 -0.043301
v -0.914859 1.193024 -0.025000
v 1.412500 1.000000 0.000000
v 1.409827 1.032632 0.000000
v 1.404127 1.000000 -0.025000
v 1.408313 1.000000 0.012500
v 1.404127 1.000000 0.025000
v 1.405676 1.032194 0.012500
v 1.401525 1.031757 0.025000
v 1.397808 1.063838 0.012500
v 1.393764 1.062971 0.025000
v 1.384844 1.094389 0.012500
v 1.401852 1.064705 0.000000
v 1.388712 1.095671 0.000000
v 1.393764 1.062971 -0.025000
v 1.371667 1.058234 -0.043301
v 1.401525 1.031757 -0.025000
v 1.380976 1.093107 -0.025000
v 1.359841 1.086104 -0.043301
v 1.363381 1.121651 -0.025000
v 1.341280 1.148112 -0.025000
v 1.370633 1.125000 0.000000
v 1.343570 1.112500 -0.043301
v 1.316506 1.100000 -0.050000
v 1.323131 1.136971 -0.043301
v 1.298338 1.121752 -0.050000
v 1.298874 1.159099 -0.043301
v 1.271214 1.178504 -0.043301
v 1.276777 1.141421 -0.050000
v 1.315050 1.172040 -0.025000
v 1.285141 1.193024 -0.025000
v 1.320971 1.176777 0.000000
v 1.290238 1.198338 0.000000
v 1.347923 1.152190 0.000000
v 1.318010 1.174408 0.012500
v 1.315050 1.172040 0.025000
v 1.287689 1.195681 0.012500
v 1.344602 1.150151 0.012500
v 1.367007 1.123325 0.012500
v 1.341280 1.148112 0.025000
v 1.363381 1.121651 0.025000
v 1.323131 1.136971 0.043301
v 1.343570 1.112500 0.043301
v 1.298338 1.121752 0.050000
v 1.298874 1.159099 0.043301
v 1.276777 1.141421 0.050000
v 1.271214 1.178504 0.043301
v 1.252190 1.158671 0.050000
v 1.240625 1.194856 0.043301
v 1.285141 1.193024 0.025000
v 1.252063 1.210705 0.025000
v 1.254157 1.213606 0.012500
v 1.216384 1.224781 0.025000
v 1.207630 1.207873 0.043301
v 1.178714 1.235011 0.025000
v 1.217987 1.227875 0.012500
v 1.219589 1.230970 0.000000
v 1.179797 1.238246 0.012500
v 1.140243 1.244540 0.012500
v 1.180881 1.241481 0.000000
v 1.140789 1.247861 0.000000
v 1.178714 1.235011 -0.025000
v 1.216384 1.224781 -0.025000
v 1.172793 1.217333 -0.043301
v 1.139696 1.241220 -0.025000
v 1.136711 1.223075 -0.043301
v 1.100000 1.243301 -0.025000
v 1.100000 1.225000 -0.043301
v 1.060303 1.241220 -0.025000
v 1.100000 1.250000 0.000000
v 1.059211 1.247861 0.000000
v 1.100000 1.246651 0.012500
v 1.059757 1.244540 0.012500
v 1.100000 1.243301 0.025000
v 1.060303 1.241220 0.025000
v 1.100000 1.225000 0.043301
v 1.139696 1.241220 0.025000
v 1.136711 1.223075 0.043301
v 1.132632 1.198289 0.050000
v 1.172793 1.217333 0.043301
v 1.164705 1.193185 0.050000
v 1.195671 1.184776 0.050000
v 1.156617 1.169037 0.043301
v 1.183712 1.161679 0.043301
v 1.150696 1.151359 0.025000
v 1.128553 1.173503 0.043301
v 1.125567 1.155358 0.025000
v 1.100000 1.175000 0.043301
v 1.071447 1.173503 0.043301
v 1.100000 1.200000 0.050000
v 1.100000 1.156699 0.025000
v 1.074433 1.155358 0.025000
v 1.100000 1.150000 0.000000
v 1.124474 1.148717 0.000000
v 1.100000 1.156699 -0.025000
v 1.075526 1.148717 0.000000
v 1.074433 1.155358 -0.025000
v 1.051471 1.144889 0.000000
v 1.049304 1.151359 -0.025000
v 1.028247 1.138582 0.000000
v 1.049304 1.151359 0.025000
v 1.025043 1.144771 0.025000
v 1.043383 1.169037 0.043301
v 1.016288 1.161679 0.043301
v 1.035295 1.193185 0.050000
v 1.004329 1.184776 0.050000
v 1.027207 1.217333 0.043301
v 1.067368 1.198289 0.050000
v 1.063290 1.223075 0.043301
v 0.992370 1.207873 0.043301
v 1.021286 1.235011 0.025000
v 1.020203 1.238246 0.012500
v 0.983616 1.224781 0.025000
v 0.947937 1.210705 0.025000
v 0.982014 1.227875 0.012500
v 0.980411 1.230970 0.000000
v 0.945843 1.213606 0.012500
v 0.912311 1.195681 0.012500
v 0.943750 1.216506 0.000000
v 0.909762 1.198338 0.000000
v 0.947937 1.210705 -0.025000
v 0.959375 1.194856 -0.043301
v 0.914859 1.193024 -0.025000
v 0.983616 1.224781 -0.025000
v 0.992370 1.207873 -0.043301
v 1.021286 1.235011 -0.025000
v 1.027207 1.217333 -0.043301
v 1.019119 1.241481 0.000000
v 1.035295 1.193185 -0.050000
v 1.063290 1.223075 -0.043301
v 1.067368 1.198289 -0.050000
v 1.071447 1.173503 -0.043301
v 1.100000 1.200000 -0.050000
v 1.132632 1.198289 -0.050000
v 1.100000 1.175000 -0.043301
v 1.128553 1.173503 -0.043301
v 1.156617 1.169037 -0.043301
v 1.125567 1.155358 -0.025000
v 1.150696 1.151359 -0.025000
v 1.148529 1.144889 0.000000
v 1.174958 1.144771 -0.025000
v 1.171753 1.138582 0.000000
v 1.197937 1.135705 -0.025000
v 1.183712 1.161679 -0.043301
v 1.195671 1.184776 -0.050000
v 1.209375 1.151554 -0.043301
v 1.233167 1.138837 -0.043301
v 1.225000 1.173205 -0.050000
v 1.252190 1.158671 -0.050000
v 1.240625 1.194856 -0.043301
v 1.207630 1.207873 -0.043301
v 1.252063 1.210705 -0.025000
v 1.256250 1.216506 0.000000
v 1.219240 1.124317 -0.025000
v 1.254680 1.123744 -0.043301
v 1.238503 1.110803 -0.025000
v 1.273546 1.106533 -0.043301
v 1.255397 1.095392 -0.025000
v 1.289443 1.087500 -0.043301
v 1.302099 1.066970 -0.043301
v 1.269631 1.078349 -0.025000
v 1.262380 1.075000 0.000000
v 1.280964 1.059966 -0.025000
v 1.289199 1.040557 -0.025000
v 1.273227 1.057402 0.000000
v 1.280964 1.059966 0.025000
v 1.281111 1.038823 0.000000
v 1.289199 1.040557 0.025000
v 1.285896 1.019579 0.000000
v 1.294198 1.020453 0.025000
v 1.287500 1.000000 0.000000
v 1.294198 1.020453 -0.025000
v 1.316879 1.022842 -0.043301
v 1.295874 1.000000 -0.025000
v 1.318750 1.000000 -0.043301
v 1.350000 1.000000 -0.050000
v 1.347861 1.026105 -0.050000
v 1.381250 1.000000 -0.043301
v 1.378844 1.029368 -0.043301
v 1.341482 1.051764 -0.050000
v 1.330970 1.076537 -0.050000
v 1.311296 1.045293 -0.043301
v 1.295874 1.000000 0.025000
v 1.318750 1.000000 0.043301
v 1.316879 1.022842 0.043301
v 1.350000 1.000000 0.050000
v 1.347861 1.026105 0.050000
v 1.381250 1.000000 0.043301
v 1.378844 1.029368 0.043301
v 1.371667 1.058234 0.043301
v 1.341482 1.051764 0.050000
v 1.359841 1.086104 0.043301
v 1.330970 1.076537 0.050000
v 1.380976 1.093107 0.025000
v 1.302099 1.066970 0.043301
v 1.316506 1.100000 0.050000
v 1.289443 1.087500 0.043301
v 1.269631 1.078349 0.025000
v 1.273546 1.106533 0.043301
v 1.255397 1.095392 0.025000
v 1.254680 1.123744 0.043301
v 1.238503 1.110803 0.025000
v 1.233167 1.138837 0.043301
v 1.209375 1.151554 0.043301
v 1.219240 1.124317 0.025000
v 1.214143 1.119003 0.000000
v 1.197937 1.135705 0.025000
v 1.193750 1.129904 0.000000
v 1.174958 1.144771 0.025000
v 1.232583 1.106066 0.000000
v 1.248754 1.091314 0.000000
v 1.225000 1.173205 0.050000
v 1.311296 1.045293 0.043301
v 1.164705 1.193185 -0.050000
v 1.043383 1.169037 -0.043301
v 1.016288 1.161679 -0.043301
v 1.004329 1.184776 -0.050000
v 0.990625 1.151554 -0.043301
v 1.025043 1.144771 -0.025000
v 1.002063 1.135705 -0.025000
v 1.006250 1.129904 0.000000
v 0.980760 1.124317 -0.025000
v 0.985857 1.119003 0.000000
v 0.966833 1.138837 -0.043301
v 0.961497 1.110803 -0.025000
v 0.945320 1.123744 -0.043301
v 0.944603 1.095392 -0.025000
v 0.967417 1.106066 0.000000
v 0.951246 1.091314 0.000000
v 0.961497 1.110803 0.025000
v 0.945320 1.123744 0.043301
v 0.980760 1.124317 0.025000
v 0.944603 1.095392 0.025000
v 0.926454 1.106533 0.043301
v 0.930369 1.078349 0.025000
v 0.919037 1.059966 0.025000
v 0.937620 1.075000 0.000000
v 0.910557 1.087500 0.043301
v 0.897901 1.066970 0.043301
v 0.883494 1.100000 0.050000
v 0.869030 1.076537 0.050000
v 0.856430 1.112500 0.043301
v 0.901662 1.121752 0.050000
v 0.876869 1.136971 0.043301
v 0.923223 1.141421 0.050000
v 0.901126 1.159099 0.043301
v 0.947810 1.158671 0.050000
v 0.928786 1.178504 0.043301
v 0.975000 1.173205 0.050000
v 0.966833 1.138837 0.043301
v 0.990625 1.151554 0.043301
v 1.002063 1.135705 0.025000
v 0.959375 1.194856 0.043301
v 0.914859 1.193024 0.025000
v 0.884950 1.172040 0.025000
v 0.881989 1.174408 0.012500
v 0.858720 1.148112 0.025000
v 0.836619 1.121651 0.025000
v 0.855399 1.150151 0.012500
v 0.832993 1.123325 0.012500
v 0.852077 1.152190 0.000000
v 0.858720 1.148112 -0.025000
v 0.879029 1.176777 0.000000
v 0.829367 1.125000 0.000000
v 0.836619 1.121651 -0.025000
v 0.811288 1.095671 0.000000
v 0.819024 1.093107 -0.025000
v 0.798148 1.064705 0.000000
v 0.815156 1.094389 0.012500
v 0.819024 1.093107 0.025000
v 0.802192 1.063838 0.012500
v 0.794324 1.032194 0.012500
v 0.806236 1.062971 0.025000
v 0.798475 1.031757 0.025000
v 0.828333 1.058234 0.043301
v 0.821156 1.029368 0.043301
v 0.858518 1.051764 0.050000
v 0.840159 1.086104 0.043301
v 0.852139 1.026105 0.050000
v 0.888704 1.045293 0.043301
v 0.910801 1.040557 0.025000
v 0.883121 1.022842 0.043301
v 0.881250 1.000000 0.043301
v 0.905802 1.020453 0.025000
v 0.904127 1.000000 0.025000
v 0.914104 1.019579 0.000000
v 0.905802 1.020453 -0.025000
v 0.918889 1.038823 0.000000
v 0.912500 1.000000 0.000000
v 0.904127 1.000000 -0.025000
v 0.881250 1.000000 -0.043301
v 0.883121 1.022842 -0.043301
v 0.850000 1.000000 -0.050000
v 0.818750 1.000000 -0.043301
v 0.852139 1.026105 -0.050000
v 0.858518 1.051764 -0.050000
v 0.821156 1.029368 -0.043301
v 0.828333 1.058234 -0.043301
v 0.798475 1.031757 -0.025000
v 0.790173 1.032632 0.000000
v 0.795873 1.000000 -0.025000
v 0.806236 1.062971 -0.025000
v 0.787500 1.000000 0.000000
v 0.791687 1.000000 0.012500
v 0.795873 1.000000 0.025000
v 0.818750 1.000000 0.043301
v 0.850000 1.000000 0.050000
v 0.840159 1.086104 -0.043301
v 0.869030 1.076537 -0.050000
v 0.856430 1.112500 -0.043301
v 0.883494 1.100000 -0.050000
v 0.876869 1.136971 -0.043301
v 0.901662 1.121752 -0.050000
v 0.901126 1.159099 -0.043301
v 0.923223 1.141421 -0.050000
v 0.928786 1.178504 -0.043301
v 0.884950 1.172040 -0.025000
v 0.947810 1.158671 -0.050000
v 0.975000 1.173205 -0.050000
v 0.926454 1.106533 -0.043301
v 0.910557 1.087500 -0.043301
v 0.897901 1.066970 -0.043301
v 0.930369 1.078349 -0.025000
v 0.919037 1.059966 -0.025000
v 0.926773 1.057402 0.000000
v 0.910801 1.040557 -0.025000
v 0.888704 1.045293 -0.043301
v -2.000000 -1.000000 1.000000
v -2.000000 -1.000000 -1.000000
v -2.000000 -0.759315 1.000000
v 2.000000 -1.000000 1.000000
v -2.000000 -0.562939 0.788873
v -2.000000 -0.747759 0.979048
v 2.000000 -0.747759 0.979048
v 2.000000 -0.759315 1.000000
v 2.000000 -0.562939 0.788873
v 2.000000 -0.314214 0.622182
v 2.000000 -0.562939 -0.788873
v 2.000000 -0.747759 -0.979048
v 2.000000 -0.314214 -0.622182
v -2.000000 -0.562939 -0.788873
v 2.000000 -1.000000 -1.000000
v 2.000000 -0.759315 -1.000000
v -2.000000 -0.759315 -1.000000
v -2.000000 -0.747759 -0.979048
v -2.000000 -0.314214 -0.622182
v -2.000000 -0.011140 -0.485384
v -2.000000 -0.314214 0.622182
v -2.000000 -0.011140 0.485383
v -2.000000 0.334633 0.383733
v 2.000000 -0.011140 0.485383
v 2.000000 0.334633 0.383733
v 2.000000 -0.011140 -0.485384
v 2.000000 0.334633 -0.383733
v 2.000000 0.709819 -0.321136
v -2.000000 0.334633 -0.383733
v -2.000000 0.709819 -0.321136
v -2.000000 1.000000 -0.305417
v -2.000000 0.709819 0.321136
v -2.000000 1.000000 0.305417
v 2.000000 0.709819 0.321136
v 2.000000 1.000000 0.305417
v 2.000000 1.000000 -0.305417
vn 0.9454 0.0775 0.3166
vn 0.9454 0.0775 -0.3166
vn -0.9454 -0.0775 0.3166
vn 0.6109 -0.1519 0.7770
vn 0.4493 0.4925 0.7454
vn 0.5514 0.7860 0.2795
vn -0.5033 0.4203 0.7550
vn 0.0920 -0.2331 0.9681
vn 0.5493 0.3386 0.7639
vn 0.1879 0.1158 0.9753
vn -0.6239 -0.0511 0.7798
vn 0.2096 0.0172 -0.9776
vn 0.2059 0.0512 -0.9772
vn 0.2096 -0.0172 -0.9776
vn -0.1986 -0.0843 -0.9764
vn 0.5857 -0.2485 0.7715
vn 0.5493 -0.3386 0.7639
vn 0.8755 0.3715 0.3090
vn -0.8114 -0.5002 0.3024
vn -0.7334 -0.6126 0.2948
vn -0.8755 -0.3715 0.3090
vn -0.5857 -0.2485 0.7715
vn -0.6109 -0.1519 0.7770
vn -0.2059 -0.0512 0.9772
vn 0.1986 -0.0843 -0.9764
vn -0.2096 -0.0172 0.9776
vn 0.6239 0.0511 0.7798
vn -0.2059 -0.0512 -0.9772
vn -0.6109 -0.1519 -0.7770
vn 0.6239 -0.0511 0.7798
vn -0.9454 -0.0775 -0.3166
vn -0.9214 -0.2291 0.3140
vn 0.6239 -0.0511 -0.7798
vn -0.9214 0.2291 0.3140
vn 0.6109 -0.1519 -0.7770
vn -0.1986 0.0843 -0.9764
vn -0.5857 0.2485 0.7715
vn -0.1879 -0.1158 0.9753
vn -0.5033 -0.4204 0.7550
vn -0.1157 -0.2164 -0.9694
vn -0.6456 -0.7077 0.2870
vn -0.4493 -0.4925 0.7454
vn -0.6456 0.7077 0.2870
vn -0.5514 -0.7860 0.2795
vn -0.1879 -0.1158 -0.9753
vn -0.1740 -0.1453 -0.9740
vn 0.1986 0.0843 -0.9764
vn 0.1879 0.1158 -0.9753
vn 0.5857 0.2485 -0.7715
vn 0.9214 0.2291 -0.3140
vn 0.8755 0.3715 -0.3090
vn -0.8114 0.5002 0.3024
vn 0.5493 0.3386 -0.7639
vn 0.5033 0.4203 -0.7550
vn -0.1740 0.1453 0.9740
vn 0.1571 -0.1722 -0.9725
vn -0.1375 0.1960 -0.9709
vn -0.3889 -0.5544 -0.7358
vn -0.3238 -0.6057 -0.7269
vn 0.4535 -0.8484 -0.2728
vn -0.3536 -0.8964 -0.2672
vn -0.4535 -0.8485 0.2728
vn 0.3536 -0.8964 -0.2672
vn 0.3889 -0.5544 -0.7358
vn 0.3238 -0.6057 -0.7269
vn -0.1571 -0.1722 0.9725
vn -0.1375 -0.1960 0.9709
vn 0.1740 0.1453 0.9740
vn -0.1571 0.1722 0.9725
vn 0.2550 -0.6464 -0.7192
vn -0.1986 -0.0843 0.9764
vn -0.8114 0.5002 -0.3024
vn -0.7334 0.6126 -0.2948
vn 0.0668 -0.2459 -0.9670
vn 0.6456 -0.7077 -0.2870
vn 0.1375 0.1960 0.9709
vn -0.3889 -0.5544 0.7358
vn -0.1157 -0.2164 0.9694
vn 0.1157 0.2164 0.9694
vn -0.2550 -0.6464 0.7192
vn -0.0920 -0.2331 0.9681
vn -0.2529 -0.9311 0.2629
vn -0.1837 -0.6766 0.7130
vn 0.2529 -0.9311 -0.2629
vn -0.1517 -0.9536 -0.2600
vn 0.1517 0.9536 0.2600
vn 0.1837 -0.6766 0.7130
vn -0.1375 -0.1960 -0.9709
vn -0.1157 0.2164 -0.9694
vn 0.4493 0.4925 -0.7454
vn 0.3889 0.5544 -0.7358
vn -0.7334 0.6126 0.2948
vn 0.6456 0.7077 -0.2870
vn 0.5514 0.7860 -0.2795
vn -0.4535 0.8485 0.2728
vn -0.2550 -0.6464 -0.7192
vn 0.0920 0.2331 -0.9681
vn -0.0668 0.2459 0.9670
vn -0.1109 -0.6967 -0.7088
vn 0.1517 -0.9536 -0.2600
vn -0.0506 -0.9647 -0.2585
vn 0.0506 -0.9647 0.2585
vn 0.1517 -0.9536 0.2600
vn -0.0371 -0.7066 -0.7066
vn 0.1109 -0.6967 0.7088
vn -0.0405 0.2545 0.9662
vn 0.0668 -0.2459 0.9670
vn 0.0668 0.2459 0.9670
vn -0.0920 0.2331 0.9681
vn -0.1157 0.2164 0.9694
vn 0.3238 0.6057 -0.7269
vn -0.4535 -0.8485 -0.2728
vn -0.5514 -0.7860 -0.2795
vn -0.5514 0.7860 -0.2795
vn -0.6456 0.7077 -0.2870
vn 0.2096 0.0172 0.9776
vn -0.4535 0.8485 -0.2728
vn -0.3238 0.6057 -0.7269
vn -0.3889 0.5544 -0.7358
vn -0.3238 0.6057 0.7269
vn -0.0668 -0.2459 -0.9670
vn 0.0920 -0.2331 -0.9681
vn 0.0405 -0.2545 -0.9662
vn -0.1517 -0.9536 0.2600
vn -0.2529 0.9311 0.2629
vn 0.2550 0.6464 -0.7192
vn -0.3889 0.5544 0.7358
vn 0.4493 -0.4925 0.7454
vn -0.1571 0.1722 -0.9725
vn -0.7334 -0.6126 -0.2948
vn -0.5033 0.4203 -0.7550
vn 0.7334 0.6126 0.2948
vn 0.8114 0.5002 -0.3024
vn -0.4493 0.4925 0.7454
vn 0.5033 0.4203 0.7550
vn -0.1375 0.1960 0.9709
vn 0.1571 -0.1722 0.9725
vn 0.2550 -0.6464 0.7191
vn 0.3238 -0.6057 0.7269
vn 0.2529 -0.9311 0.2629
vn 0.4535 -0.8484 0.2728
vn 0.5514 -0.7860 0.2795
vn 0.3889 -0.5544 0.7358
vn -0.4493 0.4925 -0.7454
vn 0.1571 0.1722 -0.9725
vn 0.1740 -0.1453 0.9740
vn -0.5493 -0.3386 0.7639
vn 0.8755 -0.3715 -0.3090
vn -0.8755 0.3715 -0.3090
vn -0.9214 0.2291 -0.3140
vn -0.9214 -0.2291 -0.3140
vn -0.5857 0.2485 -0.7715
vn -0.1740 0.1453 -0.9740
vn -0.1879 0.1158 -0.9753
vn 0.1571 0.1722 0.9725
vn 0.7334 0.6126 -0.2948
vn 0.1879 -0.1158 -0.9753
vn -0.2059 0.0512 -0.9772
vn -0.9454 0.0775 -0.3166
vn 0.0136 0.2588 -0.9658
vn -0.9454 0.0775 0.3166
vn -0.6239 0.0511 0.7798
vn -0.6109 0.1519 -0.7770
vn -0.2059 0.0512 0.9772
vn 0.1986 0.0843 0.9764
vn 0.5857 -0.2485 -0.7715
vn 0.1879 -0.1158 0.9753
vn -0.5493 0.3386 0.7639
vn -0.5033 -0.4204 -0.7550
vn 0.1740 -0.1453 -0.9740
vn 0.4493 -0.4925 -0.7454
vn 0.6456 -0.7077 0.2870
vn -0.5514 0.7860 0.2795
vn -0.1740 -0.1453 0.9740
vn -0.4493 -0.4925 -0.7454
vn -0.6109 0.1519 0.7770
vn 0.5857 0.2485 0.7715
vn 0.2059 -0.0512 -0.9772
vn -0.2096 0.0172 -0.9776
vn -0.2096 -0.0172 -0.9776
vn 0.6109 0.1519 0.7770
vn 0.2529 0.9311 0.2629
vn 0.6239 0.0511 -0.7798
vn 0.6109 0.1519 -0.7770
vn -0.2096 0.0172 0.9776
vn 0.2059 -0.0512 0.9772
vn 0.2096 -0.0172 0.9776
vn -0.5857 -0.2485 -0.7715
vn 0.1986 -0.0843 0.9764
vn 0.8114 -0.5002 0.3024
vn 0.8755 -0.3715 0.3090
vn -0.5493 -0.3386 -0.7639
vn 0.8114 0.5002 0.3024
vn 0.7334 -0.6126 0.2948
vn 0.2059 0.0512 0.9772
vn -0.6239 -0.0511 -0.7798
vn 0.9454 -0.0775 0.3166
vn -0.6239 0.0511 -0.7798
vn 0.9214 -0.2291 0.3140
vn 0.9214 0.2291 0.3140
vn 0.9454 -0.0775 -0.3166
vn 0.5033 -0.4203 0.7550
vn -0.1879 0.1158 0.9753
vn -0.1986 0.0843 0.9764
vn -0.1109 0.6967 0.7088
vn 0.9214 -0.2291 -0.3140
vn 0.5493 -0.3386 -0.7639
vn 0.1375 -0.1960 -0.9709
vn -0.3238 -0.6057 0.7269
vn 0.3536 -0.8964 0.2672
vn 0.1375 0.1960 -0.9709
vn 0.1157 0.2164 -0.9694
vn -0.0920 0.2331 -0.9681
vn -0.1837 0.6766 0.7130
vn -0.2550 0.6464 -0.7192
vn -0.1837 0.6766 -0.7130
vn 0.1157 -0.2164 -0.9694
vn 0.0920 0.2331 0.9681
vn 0.0405 -0.2545 0.9662
vn -0.0506 0.9647 0.2585
vn -0.8755 0.3715 0.3090
vn -0.1837 -0.6766 -0.7130
vn 0.0405 0.2545 -0.9662
vn 0.1157 -0.2164 0.9694
vn 0.2550 0.6464 0.7192
vn -0.6456 -0.7077 -0.2870
vn 0.4535 0.8485 -0.2728
vn 0.3238 0.6057 0.7269
vn 0.0668 0.2459 -0.9670
vn -0.0920 -0.2331 -0.9681
vn -0.3536 0.8964 0.2672
vn 0.1375 -0.1960 0.9709
vn -0.1571 -0.1722 -0.9725
vn 0.5033 -0.4204 -0.7550
vn -0.8114 -0.5002 -0.3024
vn 0.7334 -0.6126 -0.2948
vn 0.3889 0.5544 0.7358
vn -0.5493 0.3386 -0.7639
vn -0.8755 -0.3715 -0.3090
vn -0.0370 0.7066 0.7066
vn -0.2529 -0.9311 -0.2629
vn -0.3536 -0.8964 0.2672
vn -0.2550 0.6464 0.7192
vn 0.1838 0.6766 0.7130
vn 0.8114 -0.5002 -0.3024
vn 0.3536 0.8964 0.2672
vn 0.1837 -0.6766 -0.7130
vn 0.0371 0.7066 0.7066
vn -0.1517 0.9536 0.2600
vn 0.1109 -0.6967 -0.7088
vn 0.5514 -0.7860 -0.2795
vn 0.0136 -0.2588 -0.9658
vn 0.0371 -0.7066 -0.7066
vn -0.0405 -0.2545 -0.9662
vn 0.0136 -0.2588 0.9658
vn 0.1837 0.6766 -0.7130
vn -0.1109 -0.6967 0.7088
vn 0.3536 0.8964 -0.2672
vn 0.2528 0.9311 -0.2629
vn 0.4535 0.8485 0.2728
vn 0.6456 0.7077 0.2870
vn -0.0668 0.2459 -0.9670
vn 0.0405 0.2545 0.9662
vn 0.1109 0.6967 0.7088
vn -0.0405 -0.2545 0.9662
vn -0.0136 -0.2588 0.9658
vn 0.0136 0.2588 0.9658
vn -0.0371 -0.7066 0.7066
vn -0.0136 0.2588 0.9658
vn -0.0136 -0.2588 -0.9658
vn 0.1109 0.6967 -0.7088
vn -0.3536 0.8964 -0.2672
vn -0.2529 0.9311 -0.2629
vn -0.1109 0.6967 -0.7088
vn -0.0405 0.2545 -0.9662
vn -0.0371 0.7066 -0.7066
vn -0.0136 0.2588 -0.9658
vn 0.0370 0.7066 -0.7066
vn 0.1518 0.9536 -0.2600
vn 0.0506 0.9647 -0.2585
vn 0.0371 -0.7066 0.7066
vn -0.0506 -0.9647 0.2585
vn 0.0506 0.9647 0.2585
vn -0.1517 0.9536 -0.2600
vn -0.0506 0.9647 -0.2585
vn -0.0668 -0.2459 0.9670
vn 0.1740 0.1453 -0.9740
vn 0.0506 -0.9647 -0.2585
vn -0.0000 -1.0000 -0.0000
vn 0.9454 0.0775 0.3167
vn 0.5033 0.4204 -0.7550
vn 0.7334 0.6125 0.2948
vn 0.5033 0.4204 0.7550
vn 0.4535 0.8484 0.2728
vn 0.2528 0.9311 0.2629
vn -0.2528 0.9311 0.2629
vn -0.4535 0.8484 0.2728
vn 0.2550 -0.6464 -0.7191
vn 0.4535 -0.8485 -0.2728
vn 0.7334 -0.6125 0.2948
vn 0.4535 -0.8485 0.2728
vn -0.5033 0.4204 0.7550
vn -0.5033 0.4204 -0.7550
vn -1.0000 -0.0000 -0.0000
vn -0.0000 -0.0000 1.0000
vn -0.0000 0.8756 0.4830
vn -0.0000 0.7171 0.6969
vn 1.0000 -0.0000 -0.0000
vn -0.0000 0.5567 0.8307
vn -0.0000 0.7171 -0.6969
vn -0.0000 0.5567 -0.8307
vn -0.0000 -0.0000 -1.0000
vn -0.0000 0.8756 -0.4830
vn -0.0000 0.4114 -0.9115
vn -0.0000 0.4114 0.9115
vn -0.0000 0.2820 0.9594
vn -0.0000 0.2820 -0.9594
vn -0.0000 0.1646 -0.9864
vn -0.0000 0.0541 -0.9985
vn -0.0000 0.1646 0.9864
vn -0.0000 0.0541 0.9985
vn -0.0000 1.0000 -0.0000
vn -0.7334 -0.6125 0.2948
vn 0.1518 0.9536 0.2600
vn 0.1838 -0.6766 0.7130
vn -0.7334 -0.6125 -0.2948
vn 0.2550 -0.6464 0.7192
vn 0.7334 0.6125 -0.2948
vn 0.5033 -0.4204 0.7550
vn 0.5033 -0.4203 -0.7550
vn -0.0371 0.7066 0.7066
vn 0.0370 0.7066 0.7066
vn -0.1518 0.9536 0.2600
vn 0.2529 0.9311 -0.2629
vn -0.0370 0.7066 -0.7066
vn 0.0371 0.7066 -0.7066
vn 0.1517 0.9536 -0.2600
vn -0.1518 0.9536 -0.2600
vn -0.2550 0.6464 -0.7191
vn -0.9454 0.0775 0.3167
vn 0.7334 -0.6125 -0.2948
vt 0.915681 0.610466
vt 0.913806 0.665509
vt 0.911393 0.642163
vt 0.916929 0.665106
vt 0.915441 0.658887
vt 0.915623 0.680721
vt 0.915146 0.673634
vt 0.914344 0.680686
vt 0.913155 0.870754
vt 0.913531 0.861242
vt 0.913318 0.861574
vt 0.915445 0.732618
vt 0.916240 0.724894
vt 0.916126 0.734333
vt 0.915420 0.734833
vt 0.915918 0.742550
vt 0.915974 0.836116
vt 0.915433 0.826671
vt 0.916051 0.825106
vt 0.913246 0.804410
vt 0.911820 0.799748
vt 0.913048 0.797105
vt 0.915910 0.700899
vt 0.915654 0.712731
vt 0.915380 0.700662
vt 0.914748 0.710589
vt 0.914623 0.699645
vt 0.913612 0.672367
vt 0.913552 0.679339
vt 0.918088 0.676227
vt 0.920723 0.658283
vt 0.920160 0.667668
vt 0.916946 0.687807
vt 0.918012 0.671804
vt 0.917155 0.870762
vt 0.919714 0.881844
vt 0.917690 0.873500
vt 0.917405 0.698212
vt 0.917473 0.688292
vt 0.913220 0.852566
vt 0.913333 0.851702
vt 0.912914 0.843759
vt 0.913169 0.841932
vt 0.915443 0.683618
vt 0.915200 0.685186
vt 0.913565 0.697450
vt 0.915533 0.705604
vt 0.915572 0.697134
vt 0.913214 0.706243
vt 0.915500 0.714039
vt 0.913915 0.688791
vt 0.913680 0.688487
vt 0.913009 0.676635
vt 0.916600 0.862045
vt 0.917054 0.851709
vt 0.917029 0.861581
vt 0.911006 0.668346
vt 0.912891 0.672265
vt 0.910002 0.659221
vt 0.917755 0.679047
vt 0.917355 0.688693
vt 0.913198 0.877757
vt 0.913942 0.869367
vt 0.917022 0.673613
vt 0.917184 0.680579
vt 0.915614 0.688788
vt 0.917084 0.877765
vt 0.916374 0.869372
vt 0.915520 0.876440
vt 0.915114 0.891252
vt 0.914890 0.864885
vt 0.915164 0.866404
vt 0.916818 0.861249
vt 0.916067 0.850398
vt 0.916125 0.863015
vt 0.915296 0.849377
vt 0.915100 0.849376
vt 0.915646 0.849128
vt 0.913445 0.708081
vt 0.912860 0.714914
vt 0.913083 0.717377
vt 0.918774 0.742396
vt 0.917134 0.737846
vt 0.918575 0.734410
vt 0.915473 0.722373
vt 0.912537 0.723369
vt 0.915248 0.824672
vt 0.915971 0.815662
vt 0.915267 0.815155
vt 0.915450 0.730645
vt 0.917547 0.708011
vt 0.916366 0.699518
vt 0.917859 0.717339
vt 0.916199 0.710518
vt 0.916401 0.686851
vt 0.915561 0.700553
vt 0.915683 0.685034
vt 0.914998 0.700831
vt 0.915198 0.849321
vt 0.915226 0.835860
vt 0.915262 0.712674
vt 0.915254 0.723300
vt 0.914697 0.713857
vt 0.915417 0.837285
vt 0.914330 0.829414
vt 0.918043 0.823871
vt 0.916147 0.829418
vt 0.916542 0.820374
vt 0.915245 0.817378
vt 0.916986 0.812139
vt 0.918593 0.731642
vt 0.918246 0.726112
vt 0.918394 0.723357
vt 0.918677 0.739861
vt 0.915276 0.811026
vt 0.918408 0.818349
vt 0.918530 0.810133
vt 0.915409 0.747455
vt 0.915429 0.738960
vt 0.912295 0.731645
vt 0.915293 0.802531
vt 0.918527 0.801830
vt 0.918409 0.815579
vt 0.918641 0.807597
vt 0.914545 0.720589
vt 0.912656 0.726131
vt 0.914151 0.729625
vt 0.912289 0.734417
vt 0.913972 0.820369
vt 0.915281 0.817378
vt 0.914092 0.688036
vt 0.913653 0.698332
vt 0.914476 0.836113
vt 0.914444 0.825103
vt 0.918797 0.791873
vt 0.917560 0.797113
vt 0.917690 0.789979
vt 0.917853 0.835089
vt 0.915242 0.827613
vt 0.915225 0.835947
vt 0.913708 0.737856
vt 0.915162 0.740806
vt 0.912056 0.742396
vt 0.913363 0.745574
vt 0.912173 0.748160
vt 0.911920 0.750230
vt 0.915390 0.756254
vt 0.912274 0.756701
vt 0.915311 0.793733
vt 0.915370 0.765433
vt 0.918502 0.756708
vt 0.915027 0.768808
vt 0.915370 0.763086
vt 0.915359 0.769031
vt 0.912198 0.793276
vt 0.911832 0.791860
vt 0.916723 0.729604
vt 0.917332 0.804418
vt 0.915530 0.809186
vt 0.915853 0.801756
vt 0.915410 0.732600
vt 0.914632 0.724874
vt 0.915664 0.740796
vt 0.914718 0.734321
vt 0.915433 0.725316
vt 0.914898 0.742543
vt 0.915571 0.800139
vt 0.915284 0.806914
vt 0.915793 0.807442
vt 0.918639 0.748166
vt 0.917648 0.752879
vt 0.915959 0.748229
vt 0.917450 0.745572
vt 0.912946 0.789971
vt 0.914473 0.794886
vt 0.918866 0.758124
vt 0.918335 0.765622
vt 0.918772 0.766296
vt 0.915330 0.784554
vt 0.918426 0.793288
vt 0.918296 0.784374
vt 0.915350 0.774993
vt 0.912364 0.784364
vt 0.912424 0.774989
vt 0.918275 0.774998
vt 0.918698 0.774999
vt 0.911925 0.783690
vt 0.914267 0.788327
vt 0.912925 0.782704
vt 0.914145 0.781799
vt 0.914551 0.755100
vt 0.913005 0.760010
vt 0.913136 0.752877
vt 0.914735 0.801754
vt 0.915028 0.809186
vt 0.914773 0.807440
vt 0.914562 0.815659
vt 0.915024 0.800138
vt 0.918878 0.750235
vt 0.918777 0.799761
vt 0.918737 0.783701
vt 0.915147 0.787261
vt 0.915312 0.793047
vt 0.915347 0.793497
vt 0.915122 0.749846
vt 0.916222 0.755099
vt 0.915347 0.756489
vt 0.912847 0.832622
vt 0.912319 0.826618
vt 0.912457 0.823859
vt 0.915055 0.826670
vt 0.917832 0.706199
vt 0.915445 0.714131
vt 0.915450 0.700676
vt 0.916198 0.713892
vt 0.915632 0.723332
vt 0.913561 0.812132
vt 0.911924 0.807584
vt 0.912062 0.801818
vt 0.912125 0.815567
vt 0.912026 0.810120
vt 0.912114 0.818337
vt 0.915259 0.819342
vt 0.916363 0.720550
vt 0.914494 0.839429
vt 0.915191 0.852855
vt 0.917163 0.852574
vt 0.914751 0.849126
vt 0.915444 0.864886
vt 0.915029 0.837284
vt 0.915943 0.839432
vt 0.917257 0.841941
vt 0.917791 0.877901
vt 0.916836 0.884681
vt 0.915014 0.940315
vt 0.917720 0.774997
vt 0.916551 0.768188
vt 0.917771 0.767282
vt 0.913418 0.884674
vt 0.910839 0.908267
vt 0.912490 0.877890
vt 0.913746 0.862039
vt 0.914216 0.863011
vt 0.914547 0.687069
vt 0.914326 0.850395
vt 0.918122 0.714889
vt 0.917617 0.832632
vt 0.918170 0.826629
vt 0.912602 0.835079
vt 0.920723 0.891061
vt 0.915382 0.756940
vt 0.915195 0.762726
vt 0.915419 0.756492
vt 0.918603 0.640835
vt 0.909505 0.891038
vt 0.912609 0.873490
vt 0.910551 0.881825
vt 0.917568 0.697379
vt 0.915208 0.844382
vt 0.917927 0.671988
vt 0.914767 0.876439
vt 0.915158 0.869279
vt 0.919319 0.908284
vt 0.915174 0.861206
vt 0.917506 0.843768
vt 0.912172 0.739859
vt 0.916143 0.794889
vt 0.916375 0.788330
vt 0.915275 0.793496
vt 0.915500 0.787261
vt 0.914840 0.748234
vt 0.915335 0.780957
vt 0.914987 0.774993
vt 0.915347 0.774994
vt 0.916428 0.761659
vt 0.917750 0.760014
vt 0.915669 0.749851
vt 0.915407 0.743073
vt 0.915394 0.750352
vt 0.915298 0.799635
vt 0.914153 0.774992
vt 0.915003 0.781178
vt 0.914319 0.761658
vt 0.915324 0.786901
vt 0.917740 0.782711
vt 0.912000 0.774988
vt 0.911900 0.758116
vt 0.912403 0.765614
vt 0.915548 0.762725
vt 0.912956 0.767276
vt 0.914171 0.768186
vt 0.911961 0.766287
vt 0.912976 0.774990
vt 0.916524 0.781802
vt 0.916542 0.774995
vt 0.915667 0.781179
vt 0.915707 0.774994
vt 0.915692 0.768809
vt 0.915142 0.877206
vt 0.898317 0.940238
vt 0.902118 0.883143
vt 0.902549 0.914879
vt 0.900218 0.881199
vt 0.904220 0.886893
vt 0.900542 0.870693
vt 0.897456 0.870331
vt 0.903672 0.883222
vt 0.900159 0.877893
vt 0.904176 0.897462
vt 0.898720 0.859556
vt 0.901198 0.861190
vt 0.903689 0.861980
vt 0.898261 0.844738
vt 0.900687 0.845289
vt 0.902870 0.845705
vt 0.902140 0.861173
vt 0.901739 0.846126
vt 0.900580 0.859578
vt 0.898311 0.874672
vt 0.903179 0.833225
vt 0.903117 0.845455
vt 0.902259 0.834413
vt 0.902536 0.824252
vt 0.903411 0.822893
vt 0.902783 0.832730
vt 0.901092 0.826794
vt 0.900948 0.836465
vt 0.900451 0.847137
vt 0.901057 0.818056
vt 0.902790 0.815324
vt 0.903005 0.807127
vt 0.903925 0.814118
vt 0.900940 0.810025
vt 0.902602 0.822578
vt 0.905202 0.805242
vt 0.902885 0.815269
vt 0.896330 0.804524
vt 0.900190 0.814149
vt 0.900462 0.822518
vt 0.898275 0.813566
vt 0.898400 0.822330
vt 0.897283 0.804787
vt 0.900512 0.832740
vt 0.898263 0.832537
vt 0.899084 0.823680
vt 0.898923 0.833644
vt 0.899237 0.814858
vt 0.900253 0.826251
vt 0.899896 0.835684
vt 0.900727 0.817663
vt 0.901238 0.809739
vt 0.899384 0.806753
vt 0.901782 0.802288
vt 0.900119 0.799362
vt 0.899182 0.796947
vt 0.900442 0.790853
vt 0.900386 0.796013
vt 0.901292 0.790379
vt 0.901003 0.792789
vt 0.901697 0.786758
vt 0.901178 0.785392
vt 0.902236 0.790013
vt 0.901657 0.785125
vt 0.902737 0.794433
vt 0.901641 0.780076
vt 0.901897 0.779918
vt 0.902163 0.784953
vt 0.902189 0.779828
vt 0.902143 0.780157
vt 0.902355 0.785561
vt 0.902820 0.791105
vt 0.901681 0.786874
vt 0.902079 0.792981
vt 0.901485 0.780905
vt 0.901504 0.774717
vt 0.902155 0.774638
vt 0.902282 0.769095
vt 0.902419 0.769334
vt 0.902058 0.774606
vt 0.902285 0.774603
vt 0.902181 0.769253
vt 0.901861 0.774627
vt 0.902421 0.774735
vt 0.901975 0.769148
vt 0.902593 0.768608
vt 0.902169 0.780861
vt 0.903401 0.774883
vt 0.903171 0.781942
vt 0.902818 0.788642
vt 0.902340 0.795319
vt 0.903931 0.790685
vt 0.903646 0.798094
vt 0.904135 0.783079
vt 0.903855 0.792179
vt 0.903728 0.800210
vt 0.903955 0.783844
vt 0.904148 0.775117
vt 0.904337 0.775030
vt 0.904609 0.767005
vt 0.903642 0.767843
vt 0.904396 0.766410
vt 0.901802 0.775099
vt 0.901604 0.784028
vt 0.899300 0.783772
vt 0.899617 0.766277
vt 0.899494 0.775017
vt 0.901991 0.766185
vt 0.899637 0.757963
vt 0.904713 0.758132
vt 0.899681 0.749982
vt 0.902163 0.757625
vt 0.902317 0.749409
vt 0.904973 0.750187
vt 0.904987 0.752175
vt 0.904854 0.759468
vt 0.903758 0.754660
vt 0.903759 0.761204
vt 0.902440 0.756755
vt 0.902579 0.762714
vt 0.901892 0.763734
vt 0.901703 0.758132
vt 0.902249 0.763900
vt 0.902292 0.758331
vt 0.901451 0.752096
vt 0.902214 0.750461
vt 0.902331 0.752309
vt 0.902877 0.758517
vt 0.903199 0.752526
vt 0.902388 0.745589
vt 0.901175 0.745377
vt 0.903588 0.745824
vt 0.903449 0.751876
vt 0.903976 0.745118
vt 0.902976 0.757959
vt 0.902215 0.756574
vt 0.902678 0.750236
vt 0.901845 0.762582
vt 0.902577 0.763617
vt 0.901593 0.768530
vt 0.902617 0.764042
vt 0.900642 0.761030
vt 0.900901 0.754437
vt 0.900487 0.767723
vt 0.900427 0.774819
vt 0.899463 0.766849
vt 0.899529 0.759262
vt 0.899392 0.774923
vt 0.900344 0.781933
vt 0.899238 0.783017
vt 0.900387 0.788693
vt 0.899092 0.790671
vt 0.899015 0.792132
vt 0.901404 0.792631
vt 0.898752 0.800194
vt 0.901200 0.800915
vt 0.899023 0.798135
vt 0.898559 0.808080
vt 0.900988 0.808953
vt 0.899025 0.805627
vt 0.900545 0.795437
vt 0.900761 0.802483
vt 0.899048 0.813313
vt 0.898447 0.815928
vt 0.902629 0.799637
vt 0.903747 0.797265
vt 0.909478 0.804440
vt 0.893215 0.804103
vt 0.899128 0.821317
vt 0.898402 0.823867
vt 0.899215 0.829778
vt 0.898381 0.831996
vt 0.899188 0.838786
vt 0.898320 0.840348
vt 0.898929 0.848288
vt 0.898162 0.848834
vt 0.900215 0.832674
vt 0.899858 0.840703
vt 0.899405 0.848739
vt 0.898353 0.857960
vt 0.897883 0.857197
vt 0.900210 0.856285
vt 0.900971 0.848208
vt 0.899193 0.863773
vt 0.898799 0.856601
vt 0.897922 0.864073
vt 0.897585 0.865027
vt 0.897774 0.871906
vt 0.896183 0.873760
vt 0.897397 0.867012
vt 0.894701 0.878938
vt 0.897622 0.870152
vt 0.894745 0.888965
vt 0.895114 0.906003
vt 0.899427 0.858622
vt 0.900403 0.864748
vt 0.902871 0.874687
vt 0.900970 0.867266
vt 0.901052 0.871382
vt 0.900088 0.856783
vt 0.899564 0.857706
vt 0.899799 0.845960
vt 0.898968 0.844981
vt 0.900786 0.847247
vt 0.900494 0.856398
vt 0.901227 0.838101
vt 0.901775 0.829327
vt 0.901632 0.839937
vt 0.902233 0.831738
vt 0.902763 0.823716
vt 0.902351 0.821023
vt 0.903197 0.815852
vt 0.902861 0.813127
vt 0.903517 0.808057
vt 0.903277 0.805521
vt 0.900761 0.816853
vt 0.900509 0.824731
vt 0.899682 0.751920
vt 0.901278 0.747648
vt 0.899957 0.744597
vt 0.899812 0.742202
vt 0.902452 0.741459
vt 0.900047 0.734473
vt 0.900330 0.737097
vt 0.902566 0.733654
vt 0.900373 0.726648
vt 0.900828 0.729256
vt 0.901369 0.720911
vt 0.900740 0.718614
vt 0.902654 0.725866
vt 0.902705 0.717997
vt 0.904781 0.719032
vt 0.904999 0.726987
vt 0.905122 0.734757
vt 0.904317 0.721467
vt 0.904623 0.729692
vt 0.904870 0.737457
vt 0.904503 0.710874
vt 0.904075 0.712730
vt 0.903978 0.703598
vt 0.904175 0.702619
vt 0.902698 0.710022
vt 0.902953 0.704878
vt 0.902683 0.715147
vt 0.902763 0.724555
vt 0.902081 0.705870
vt 0.901645 0.717239
vt 0.901572 0.727229
vt 0.903048 0.733045
vt 0.901701 0.735949
vt 0.903390 0.740745
vt 0.901941 0.743589
vt 0.903637 0.747918
vt 0.904983 0.744901
vt 0.905116 0.742445
vt 0.900934 0.737729
vt 0.902495 0.737912
vt 0.902702 0.728977
vt 0.900807 0.728861
vt 0.903077 0.718425
vt 0.900890 0.718462
vt 0.904593 0.729193
vt 0.904048 0.738149
vt 0.905261 0.718572
vt 0.905045 0.728503
vt 0.904521 0.737429
vt 0.905504 0.717985
vt 0.906143 0.705684
vt 0.905825 0.705393
vt 0.907423 0.689105
vt 0.903745 0.705729
vt 0.904920 0.689777
vt 0.901329 0.706148
vt 0.909029 0.664161
vt 0.906781 0.667813
vt 0.902390 0.691289
vt 0.904607 0.672973
vt 0.903177 0.693145
vt 0.905234 0.679514
vt 0.903666 0.694067
vt 0.904979 0.683619
vt 0.904050 0.694451
vt 0.904301 0.686105
vt 0.903747 0.694538
vt 0.904687 0.680170
vt 0.903040 0.687024
vt 0.907193 0.676275
vt 0.901572 0.680400
vt 0.901771 0.686675
vt 0.902332 0.694162
vt 0.901881 0.678879
vt 0.901497 0.685720
vt 0.908362 0.667771
vt 0.901236 0.676737
vt 0.901536 0.683771
vt 0.899212 0.672079
vt 0.901708 0.680761
vt 0.898783 0.662399
vt 0.901937 0.692854
vt 0.902439 0.676285
vt 0.902979 0.692276
vt 0.900763 0.644397
vt 0.904141 0.691381
vt 0.904725 0.669702
vt 0.905792 0.689849
vt 0.905467 0.610466
vt 0.904686 0.704872
vt 0.908603 0.636039
vt 0.909478 0.653543
vt 0.903458 0.703765
vt 0.904599 0.716621
vt 0.903411 0.714427
vt 0.903005 0.724049
vt 0.904235 0.726800
vt 0.902414 0.732655
vt 0.903748 0.735619
vt 0.901792 0.740423
vt 0.903211 0.743319
vt 0.901810 0.711974
vt 0.901079 0.710332
vt 0.902025 0.702512
vt 0.901322 0.701891
vt 0.902597 0.702016
vt 0.901439 0.693549
vt 0.176531 0.795784
vt 0.212094 0.765261
vt 0.188701 0.797897
vt 0.117225 0.878523
vt 0.105508 0.807501
vt 0.146878 0.837153
vt 0.206183 0.754414
vt 0.211162 0.757983
vt 0.211090 0.758587
vt 0.092551 0.923461
vt 0.087573 0.919893
vt 0.237954 0.754414
vt 0.237308 0.822280
vt 0.237954 0.822280
vt 0.244316 0.754414
vt 0.122753 0.881830
vt 0.122204 0.882092
vt 0.129396 0.880636
vt 0.155462 0.855136
vt 0.137012 0.880876
vt 0.244316 0.822280
vt 0.250679 0.754414
vt 0.152788 0.848001
vt 0.151785 0.841327
vt 0.267489 0.890199
vt 0.273852 0.822333
vt 0.267489 0.822333
vt 0.261127 0.822333
vt 0.261127 0.890199
vt 0.151856 0.840722
vt 0.181509 0.799352
vt 0.273852 0.890199
vt 0.274498 0.822333
vt 0.182059 0.799090
vt 0.196318 0.798136
vt 0.219008 0.779720
vt 0.204615 0.799800
vt 0.254765 0.822333
vt 0.254765 0.890199
vt 0.250679 0.822280
vt 0.257041 0.754414
vt 0.257041 0.822280
vt 0.263404 0.754414
vt 0.213274 0.802824
vt 0.224653 0.786949
vt 0.145310 0.882540
vt 0.165348 0.869689
vt 0.153969 0.885563
vt 0.159702 0.862459
vt 0.248402 0.822333
vt 0.248402 0.890199
vt 0.242040 0.822333
vt 0.242040 0.890199
vt 0.162658 0.889831
vt 0.221963 0.807092
vt 0.237308 0.822333
vt 0.237255 0.798434
vt 0.228198 0.811069
vt 0.263404 0.822280
vt 0.269766 0.754414
vt 0.269766 0.822280
vt 0.274498 0.754414
vt 0.168893 0.893808
vt 0.172180 0.876546
vt 0.177949 0.881173
vt 0.219319 0.910826
vt 0.915454 0.672782
vt 0.896487 0.871096
vt 0.900612 0.679605
vt 0.075856 0.848870
vt 0.237308 0.754414
vt 0.274498 0.890199
vt 0.214767 0.772397
vt 0.231486 0.793807
vt 0.237308 0.890199
vt 0.274498 0.822280
vt 0.210263 0.923461
s 0
usemtl マテリアル
f 1/1/1 5/2/1 2/3/1
f 1/1/2 6/4/2 3/5/2
f 35/6/3 33/7/3 34/8/3
f 237/9/4 235/10/4 236/11/4
f 106/12/5 108/13/5 107/14/5
f 109/15/6 110/16/6 107/14/6
f 167/17/7 165/18/7 166/19/7
f 149/20/8 152/21/8 150/22/8
f 62/23/9 65/24/9 58/25/9
f 58/25/10 56/26/10 57/27/10
f 34/8/11 32/28/11 11/29/11
f 28/30/12 31/31/12 29/32/12
f 27/33/13 30/34/13 28/30/13
f 225/35/14 221/36/14 224/37/14
f 24/38/15 27/33/15 25/39/15
f 236/11/16 234/40/16 209/41/16
f 209/41/17 207/42/17 208/43/17
f 61/44/18 62/23/18 60/45/18
f 16/46/19 19/47/19 17/48/19
f 18/49/20 21/50/20 19/47/20
f 17/48/21 14/51/21 16/46/21
f 13/52/22 16/46/22 14/51/22
f 14/51/23 11/29/23 13/52/23
f 10/53/24 13/52/24 11/29/24
f 226/54/25 229/55/25 227/56/25
f 11/29/26 9/57/26 10/53/26
f 2/3/27 8/58/27 7/59/27
f 25/39/28 28/30/28 26/60/28
f 26/60/29 23/61/29 25/39/29
f 240/62/30 239/63/30 237/9/30
f 38/64/31 35/6/31 37/65/31
f 34/8/32 36/66/32 35/6/32
f 243/67/33 244/68/33 242/69/33
f 194/70/34 193/71/34 192/72/34
f 228/73/35 225/35/35 227/56/35
f 250/74/36 251/75/36 189/76/36
f 193/71/37 196/77/37 195/78/37
f 55/79/38 57/27/38 56/26/38
f 53/80/39 55/79/39 54/81/39
f 93/82/40 91/83/40 77/84/40
f 50/85/41 53/80/41 51/86/41
f 54/81/42 51/86/42 53/80/42
f 143/87/43 142/88/43 141/89/43
f 51/86/44 52/90/44 50/85/44
f 46/91/45 44/92/45 24/38/45
f 47/93/46 45/94/46 46/91/46
f 44/92/47 41/95/47 27/33/47
f 45/94/48 43/96/48 44/92/48
f 43/96/49 42/97/49 41/95/49
f 3/5/50 42/97/50 61/44/50
f 84/98/51 61/44/51 42/97/51
f 170/99/52 167/17/52 168/100/52
f 82/101/53 84/98/53 43/96/53
f 81/102/54 83/103/54 82/101/54
f 197/104/55 199/105/55 165/18/55
f 184/106/56 186/107/56 174/108/56
f 173/109/57 175/110/57 174/108/57
f 76/111/58 78/112/58 49/113/58
f 74/114/59 77/84/59 76/111/59
f 180/115/60 181/116/60 178/117/60
f 75/118/61 74/114/61 73/119/61
f 71/120/62 73/119/62 52/90/62
f 158/121/63 178/117/63 179/122/63
f 181/116/64 184/106/64 176/123/64
f 178/117/65 176/123/65 177/124/65
f 67/125/66 69/126/66 54/81/66
f 68/127/67 70/128/67 69/126/67
f 65/24/68 67/125/68 56/26/68
f 165/18/69 163/129/69 164/130/69
f 177/124/70 179/122/70 178/117/70
f 12/131/71 15/132/71 13/52/71
f 169/133/72 170/99/72 168/100/72
f 171/134/73 168/100/73 143/87/73
f 129/135/74 132/136/74 130/137/74
f 248/138/75 204/139/75 206/140/75
f 104/141/76 106/12/76 105/142/76
f 69/126/77 71/120/77 51/86/77
f 102/143/78 104/141/78 103/144/78
f 105/142/79 103/144/79 104/141/79
f 100/145/80 102/143/80 101/146/80
f 103/144/81 101/146/81 102/143/81
f 97/147/82 100/145/82 98/148/82
f 101/146/83 98/148/83 100/145/83
f 179/122/84 156/149/84 158/121/84
f 99/150/85 96/151/85 97/147/85
f 287/152/86 289/153/86 288/154/86
f 152/21/87 155/155/87 153/156/87
f 77/84/88 79/157/88 78/112/88
f 134/158/89 137/159/89 135/160/89
f 89/161/90 86/162/90 81/102/90
f 90/163/91 88/164/91 89/161/91
f 168/100/92 166/19/92 143/87/92
f 88/164/93 87/165/93 86/162/93
f 300/166/94 109/15/94 88/164/94
f 145/167/95 139/168/95 144/169/95
f 95/170/96 93/82/96 74/114/96
f 298/171/97 299/172/97 92/173/97
f 151/174/98 148/175/98 150/22/98
f 297/176/99 124/177/99 270/178/99
f 123/179/100 128/180/100 126/181/100
f 121/182/101 124/177/101 99/150/101
f 125/183/102 121/182/102 120/184/102
f 155/155/103 123/179/103 125/183/103
f 270/178/104 122/185/104 272/186/104
f 153/156/105 125/183/105 154/187/105
f 282/188/106 252/189/106 283/190/106
f 150/22/107 153/156/107 151/174/107
f 114/191/108 116/192/108 115/193/108
f 147/194/109 150/22/109 148/175/109
f 146/195/110 149/20/110 147/194/110
f 299/172/111 300/166/111 90/163/111
f 73/119/112 76/111/112 52/90/112
f 52/90/113 49/113/113 50/85/113
f 138/196/114 141/89/114 139/168/114
f 140/197/115 143/87/115 141/89/115
f 10/53/116 7/59/116 8/58/116
f 139/168/117 136/198/117 138/196/117
f 135/160/118 138/196/118 136/198/118
f 137/159/119 140/197/119 138/196/119
f 144/169/120 147/194/120 145/167/120
f 297/176/121 298/171/121 94/199/121
f 131/200/122 134/158/122 132/136/122
f 130/137/123 127/201/123 129/135/123
f 98/148/124 99/150/124 97/147/124
f 281/202/125 278/203/125 280/204/125
f 262/205/126 264/206/126 263/207/126
f 142/88/127 146/195/127 144/169/127
f 200/208/128 202/209/128 201/210/128
f 174/108/129 172/211/129 173/109/129
f 21/50/130 20/212/130 19/47/130
f 172/211/131 169/133/131 171/134/131
f 108/13/132 85/213/132 87/165/132
f 83/103/133 63/214/133 84/98/133
f 166/19/134 164/130/134 142/88/134
f 64/215/135 66/216/135 65/24/135
f 164/130/136 162/217/136 146/195/136
f 199/105/137 201/210/137 163/129/137
f 160/218/138 157/219/138 152/21/138
f 161/220/139 159/221/139 160/218/139
f 157/219/140 156/149/140 155/155/140
f 203/222/141 180/115/141 159/221/141
f 202/209/142 182/223/142 203/222/142
f 201/210/143 203/222/143 161/220/143
f 171/134/144 173/109/144 172/211/144
f 79/157/145 81/102/145 80/224/145
f 198/225/146 200/208/146 199/105/146
f 15/132/147 18/49/147 16/46/147
f 231/226/148 228/73/148 230/227/148
f 190/228/149 192/72/149 170/99/149
f 191/229/150 194/70/150 192/72/150
f 36/66/151 37/65/151 35/6/151
f 189/76/152 191/229/152 190/228/152
f 186/107/153 188/230/153 172/211/153
f 187/231/154 189/76/154 188/230/154
f 66/216/155 68/127/155 67/125/155
f 86/162/156 85/213/156 83/103/156
f 249/232/157 250/74/157 187/231/157
f 223/233/158 226/54/158 224/37/158
f 218/234/159 216/235/159 194/70/159
f 271/236/160 268/237/160 269/238/160
f 216/235/161 214/239/161 194/70/161
f 215/240/162 213/241/162 214/239/162
f 251/75/163 218/234/163 191/229/163
f 213/241/164 211/242/164 212/243/164
f 57/27/165 59/244/165 58/25/165
f 227/56/166 230/227/166 228/73/166
f 210/245/167 208/43/167 198/225/167
f 195/78/168 197/104/168 167/17/168
f 48/246/169 46/91/169 20/212/169
f 185/247/170 187/231/170 186/107/170
f 183/248/171 185/247/171 184/106/171
f 205/249/172 204/139/172 202/209/172
f 141/89/173 144/169/173 139/168/173
f 56/26/174 54/81/174 55/79/174
f 49/113/175 47/93/175 48/246/175
f 214/239/176 212/243/176 193/71/176
f 60/45/177 58/25/177 59/244/177
f 224/37/178 227/56/178 225/35/178
f 222/250/179 224/37/179 221/36/179
f 29/32/180 26/60/180 28/30/180
f 59/244/181 5/2/181 60/45/181
f 260/251/182 258/252/182 259/253/182
f 30/34/183 4/254/183 31/31/183
f 41/95/184 6/4/184 30/34/184
f 219/255/185 238/256/185 213/241/185
f 238/256/186 236/11/186 211/242/186
f 220/257/187 237/9/187 238/256/187
f 22/258/188 25/39/188 23/61/188
f 211/242/189 209/41/189 210/245/189
f 234/40/190 233/259/190 207/42/190
f 235/10/191 231/226/191 234/40/191
f 20/212/192 24/38/192 22/258/192
f 63/214/193 64/215/193 62/23/193
f 207/42/194 206/140/194 205/249/194
f 8/58/195 12/131/195 10/53/195
f 37/65/196 39/260/196 38/64/196
f 241/261/197 245/262/197 239/63/197
f 217/263/198 223/233/198 222/250/198
f 239/63/199 246/264/199 235/10/199
f 60/45/200 3/5/200 61/44/200
f 245/262/201 242/69/201 244/68/201
f 208/43/202 205/249/202 200/208/202
f 196/77/203 198/225/203 197/104/203
f 212/243/204 210/245/204 196/77/204
f 283/190/205 281/202/205 282/188/205
f 244/68/206 246/264/206 245/262/206
f 229/55/207 232/265/207 230/227/207
f 176/123/208 174/108/208 175/110/208
f 70/128/209 72/266/209 71/120/209
f 159/221/210 158/121/210 157/219/210
f 91/83/211 89/161/211 79/157/211
f 92/173/212 90/163/212 91/83/212
f 132/136/213 135/160/213 133/267/213
f 280/204/214 282/188/214 281/202/214
f 136/198/215 133/267/215 135/160/215
f 275/268/216 277/269/216 276/270/216
f 175/110/217 177/124/217 176/123/217
f 113/271/218 115/193/218 103/144/218
f 154/187/219 151/174/219 153/156/219
f 294/272/220 286/273/220 296/274/220
f 192/72/221 195/78/221 170/99/221
f 96/151/222 94/199/222 95/170/222
f 269/238/223 266/275/223 267/276/223
f 162/217/224 160/218/224 149/20/224
f 112/277/225 114/191/225 113/271/225
f 50/85/226 48/246/226 21/50/226
f 111/278/227 262/205/227 261/279/227
f 110/16/228 113/271/228 105/142/228
f 264/206/229 267/276/229 266/275/229
f 94/199/230 92/173/230 93/82/230
f 279/280/231 280/204/231 278/203/231
f 163/129/232 161/220/232 162/217/232
f 78/112/233 80/224/233 47/93/233
f 249/232/234 248/138/234 232/265/234
f 19/47/235 22/258/235 17/48/235
f 232/265/236 206/140/236 233/259/236
f 107/14/237 105/142/237 106/12/237
f 188/230/238 190/228/238 169/133/238
f 23/61/239 17/48/239 22/258/239
f 285/281/240 284/282/240 283/190/240
f 97/147/241 95/170/241 75/118/241
f 72/266/242 75/118/242 73/119/242
f 148/175/243 145/167/243 147/194/243
f 257/283/244 259/253/244 258/252/244
f 230/227/245 233/259/245 231/226/245
f 259/253/246 261/279/246 260/251/246
f 128/180/247 131/200/247 129/135/247
f 285/281/248 287/152/248 286/273/248
f 295/284/249 284/282/249 294/272/249
f 126/181/250 129/135/250 127/201/250
f 182/223/251 183/248/251 181/116/251
f 272/186/252 273/285/252 271/236/252
f 127/201/253 122/185/253 126/181/253
f 267/276/254 270/178/254 269/238/254
f 253/286/255 252/189/255 154/187/255
f 266/275/256 263/207/256 264/206/256
f 117/287/257 119/288/257 98/148/257
f 263/207/258 261/279/258 262/205/258
f 265/289/259 260/251/259 263/207/259
f 111/278/260 112/277/260 110/16/260
f 87/165/261 107/14/261 108/13/261
f 133/267/262 130/137/262 132/136/262
f 255/290/263 257/283/263 256/291/263
f 258/252/264 256/291/264 257/283/264
f 116/192/265 118/292/265 117/287/265
f 253/286/266 255/290/266 254/293/266
f 256/291/267 254/293/267 255/290/267
f 118/292/268 120/184/268 119/288/268
f 283/190/269 254/293/269 285/281/269
f 272/186/270 269/238/270 270/178/270
f 268/237/271 265/289/271 266/275/271
f 277/269/272 279/280/272 278/203/272
f 278/203/273 276/270/273 277/269/273
f 276/270/274 274/294/274 275/268/274
f 273/285/275 275/268/275 274/294/275
f 292/295/276 293/296/276 291/297/276
f 274/294/277 271/236/277 273/285/277
f 292/295/278 290/298/278 268/237/278
f 290/298/279 289/153/279 265/289/279
f 291/297/280 288/154/280 290/298/280
f 154/187/281 120/184/281 253/286/281
f 119/288/282 121/182/282 99/150/282
f 288/154/283 286/273/283 287/152/283
f 293/296/284 295/284/284 294/272/284
f 294/272/285 291/297/285 293/296/285
f 115/193/286 117/287/286 101/146/286
f 80/224/287 82/101/287 45/94/287
f 121/182/288 126/181/288 122/185/288
f 247/299/289 241/261/289 216/235/289
f 38/64/289 39/260/289 4/254/289
f 301/300/1 306/301/1 304/302/1
f 301/300/2 315/303/2 302/304/2
f 482/305/289 481/306/289 486/307/289
f 304/302/290 307/308/290 305/309/290
f 309/310/200 306/301/200 308/311/200
f 308/311/200 302/304/200 311/312/200
f 308/311/18 492/313/18 309/310/18
f 311/312/18 310/314/18 308/311/18
f 316/315/51 311/312/51 313/316/51
f 302/304/50 313/316/50 311/312/50
f 317/317/49 313/316/49 314/318/49
f 314/318/184 315/303/184 477/319/184
f 318/320/133 312/321/133 316/315/133
f 321/322/53 316/315/53 317/317/53
f 323/323/291 318/320/291 321/322/291
f 319/324/156 320/325/156 318/320/156
f 324/326/287 321/322/287 322/327/287
f 322/327/48 317/317/48 479/328/48
f 327/329/145 323/323/145 324/326/145
f 325/330/90 319/324/90 323/323/90
f 326/331/91 328/332/91 325/330/91
f 447/333/211 325/330/211 327/329/211
f 328/332/93 332/334/93 319/324/93
f 329/335/94 330/336/94 328/332/94
f 330/336/6 335/337/6 333/338/6
f 332/334/261 333/338/261 336/339/261
f 336/339/261 334/340/261 338/341/261
f 333/338/6 348/342/6 334/340/6
f 336/339/132 320/325/132 332/334/132
f 338/341/292 337/343/292 336/339/292
f 339/344/293 340/345/293 341/346/293
f 343/347/5 338/341/5 334/340/5
f 341/346/68 342/348/68 494/349/68
f 340/345/155 344/350/155 342/348/155
f 346/351/76 343/347/76 345/352/76
f 334/340/237 345/352/237 343/347/237
f 345/352/79 510/353/79 346/351/79
f 348/342/228 347/354/228 345/352/228
f 335/337/294 349/355/294 348/342/294
f 351/356/246 350/357/246 354/358/246
f 349/355/225 352/359/225 347/354/225
f 378/360/244 351/356/244 353/361/244
f 354/358/295 353/361/295 351/356/295
f 355/362/182 356/363/182 354/358/182
f 354/358/246 451/364/246 355/362/246
f 375/365/86 356/363/86 357/366/86
f 357/366/86 358/367/86 359/368/86
f 363/369/279 358/367/279 360/370/279
f 360/370/259 355/362/259 361/371/259
f 362/372/256 361/371/256 449/373/256
f 364/374/271 360/370/271 362/372/271
f 366/375/278 363/369/278 364/374/278
f 365/376/280 359/368/280 363/369/280
f 366/375/276 367/377/276 365/376/276
f 369/378/285 365/376/285 367/377/285
f 359/368/283 370/379/283 357/366/283
f 369/378/220 370/379/220 368/380/220
f 371/381/220 372/382/220 370/379/220
f 357/366/283 372/382/283 375/365/283
f 374/383/240 373/384/240 407/385/240
f 374/383/248 375/365/248 372/382/248
f 353/361/264 376/386/264 378/360/264
f 376/386/267 388/387/267 377/388/267
f 377/388/263 378/360/263 376/386/263
f 352/359/108 379/389/108 380/390/108
f 380/390/286 381/391/286 382/392/286
f 379/389/265 384/393/265 381/391/265
f 382/392/83 383/394/83 507/395/83
f 381/391/257 385/396/257 383/394/257
f 384/393/268 389/397/268 385/396/268
f 386/398/266 377/388/266 388/387/266
f 387/399/281 389/397/281 386/398/281
f 386/398/255 406/400/255 387/399/255
f 390/401/102 391/402/102 389/397/102
f 385/396/282 391/402/282 392/403/282
f 391/402/101 436/404/101 392/403/101
f 391/402/288 395/405/288 393/406/288
f 394/407/100 397/408/100 395/405/100
f 399/409/103 394/407/103 390/401/103
f 517/410/84 396/411/84 398/412/84
f 400/413/140 396/411/140 399/409/140
f 402/414/87 399/409/87 401/415/87
f 401/415/105 390/401/105 387/399/105
f 404/416/107 401/415/107 403/417/107
f 387/399/219 403/417/219 401/415/219
f 403/417/98 408/418/98 404/416/98
f 405/419/106 406/400/106 407/385/106
f 407/385/269 388/387/269 374/383/269
f 407/385/205 409/420/205 405/419/205
f 411/421/214 405/419/214 409/420/214
f 410/422/249 373/384/249 371/381/249
f 409/420/296 413/423/296 411/421/296
f 408/418/243 412/424/243 551/425/243
f 415/426/231 411/421/231 413/423/231
f 410/422/125 414/427/125 413/423/125
f 417/428/231 413/423/231 414/427/231
f 412/424/297 416/429/297 552/430/297
f 415/426/95 418/431/95 416/429/95
f 418/431/117 419/432/117 421/433/117
f 422/434/272 417/428/272 414/427/272
f 419/432/215 423/435/215 420/436/215
f 420/436/118 421/433/118 419/432/118
f 425/437/216 422/434/216 424/438/216
f 414/427/273 424/438/273 422/434/273
f 424/438/274 428/439/274 425/437/274
f 367/377/284 426/440/284 369/378/284
f 426/440/249 371/381/249 369/378/249
f 423/435/262 427/441/262 515/442/262
f 429/443/275 425/437/275 428/439/275
f 428/439/277 431/444/277 429/443/277
f 427/441/123 430/445/123 513/446/123
f 433/447/252 429/443/252 431/444/252
f 433/447/270 432/448/270 434/449/270
f 431/444/160 364/374/160 432/448/160
f 434/449/104 393/406/104 433/447/104
f 430/445/253 393/406/253 395/405/253
f 512/450/254 434/449/254 432/448/254
f 435/451/99 436/404/99 434/449/99
f 392/403/85 437/452/85 438/453/85
f 438/453/241 439/454/241 440/455/241
f 437/452/222 442/456/222 439/454/222
f 440/455/61 441/457/61 506/458/61
f 439/454/96 444/459/96 441/457/96
f 435/451/121 443/460/121 442/456/121
f 442/456/230 446/461/230 444/459/230
f 441/457/59 445/462/59 452/463/59
f 444/459/40 447/333/40 445/462/40
f 446/461/212 326/331/212 447/333/212
f 443/460/97 448/464/97 446/461/97
f 450/465/126 449/373/126 361/371/126
f 448/464/111 329/335/111 326/331/111
f 331/466/227 450/465/227 451/364/227
f 361/371/258 451/364/258 450/465/258
f 331/467/260 350/357/260 335/337/260
f 449/373/229 512/450/229 362/372/229
f 445/462/88 327/329/88 453/468/88
f 452/463/58 453/468/58 454/469/58
f 454/469/175 455/470/175 456/471/175
f 453/468/233 324/326/233 455/470/233
f 456/471/169 457/472/169 459/473/169
f 455/470/46 322/327/46 457/472/46
f 457/472/45 479/328/45 458/474/45
f 459/473/192 458/474/192 461/475/192
f 509/476/130 459/473/130 460/477/130
f 460/477/235 461/475/235 463/478/235
f 461/475/188 480/479/188 462/480/188
f 462/480/239 463/478/239 461/475/239
f 463/478/21 466/481/21 464/482/21
f 464/482/19 460/477/19 463/478/19
f 468/483/32 465/484/32 467/485/32
f 465/484/151 470/486/151 467/485/151
f 467/485/3 481/306/3 468/483/3
f 472/487/31 467/485/31 470/486/31
f 470/486/196 473/488/196 472/487/196
f 471/489/29 462/480/29 480/479/29
f 474/490/180 471/489/180 475/491/180
f 475/491/12 476/492/12 474/490/12
f 477/319/183 303/493/183 476/492/183
f 478/494/13 477/319/13 475/491/13
f 480/479/28 475/491/28 471/489/28
f 479/328/47 314/318/47 478/494/47
f 458/474/15 478/494/15 480/479/15
f 468/483/11 482/305/11 483/495/11
f 483/495/26 484/496/26 485/497/26
f 485/497/116 486/307/116 487/498/116
f 305/309/27 487/498/27 486/307/27
f 487/498/195 489/499/195 485/497/195
f 488/500/181 307/308/181 309/310/181
f 491/501/165 488/500/165 490/502/165
f 309/310/177 490/502/177 488/500/177
f 490/502/10 494/349/10 491/501/10
f 492/313/9 341/346/9 490/502/9
f 310/314/193 339/344/193 492/313/193
f 489/499/71 493/503/71 511/504/71
f 495/505/38 491/501/38 494/349/38
f 494/349/174 497/506/174 495/505/174
f 493/503/147 496/507/147 464/482/147
f 498/508/39 495/505/39 497/506/39
f 497/506/42 500/509/42 498/508/42
f 342/348/66 499/510/66 497/506/66
f 499/510/77 503/511/77 500/509/77
f 344/350/67 501/512/67 499/510/67
f 501/512/209 505/513/209 503/511/209
f 502/514/78 346/351/78 510/353/78
f 500/509/44 504/515/44 508/516/44
f 503/511/62 506/458/62 504/515/62
f 505/513/242 440/455/242 506/458/242
f 507/395/80 502/514/80 382/392/80
f 438/453/82 507/395/82 383/394/82
f 506/458/112 452/463/112 504/515/112
f 504/515/113 454/469/113 508/516/113
f 508/516/41 498/508/41 500/509/41
f 508/516/226 456/471/226 509/476/226
f 496/507/20 509/476/20 460/477/20
f 510/353/81 382/392/81 502/514/81
f 347/354/218 380/390/218 510/353/218
f 511/504/22 464/482/22 466/481/22
f 466/481/23 483/495/23 511/504/23
f 485/497/24 511/504/24 483/495/24
f 432/448/223 362/372/223 512/450/223
f 383/394/124 392/403/124 438/453/124
f 395/405/250 513/446/250 430/445/250
f 513/446/74 515/442/74 427/441/74
f 397/408/247 514/517/247 513/446/247
f 514/517/122 617/518/122 515/442/122
f 516/519/298 517/410/298 518/520/298
f 398/412/63 518/520/63 517/410/63
f 519/521/299 520/522/299 518/520/299
f 518/520/65 522/523/65 516/519/65
f 521/524/251 523/525/251 520/522/251
f 520/522/64 524/526/64 522/523/64
f 523/525/171 618/527/171 524/526/171
f 525/528/75 526/529/75 527/530/75
f 531/531/172 526/529/172 528/532/172
f 528/532/142 521/524/142 530/533/142
f 532/534/128 528/532/128 529/535/128
f 529/535/143 530/533/143 548/536/143
f 533/537/300 527/530/300 531/531/300
f 536/538/202 531/531/202 532/534/202
f 537/539/17 533/537/17 536/538/17
f 534/540/190 535/541/190 533/537/190
f 539/542/167 536/538/167 538/543/167
f 538/543/146 532/534/146 541/544/146
f 576/545/203 538/543/203 540/546/203
f 540/546/55 541/544/55 542/547/55
f 542/547/69 543/548/69 544/549/69
f 541/544/137 529/535/137 543/548/137
f 544/549/136 545/550/136 546/551/136
f 543/548/232 548/536/232 545/550/232
f 546/551/110 547/552/110 551/425/110
f 545/550/224 549/553/224 547/552/224
f 548/536/139 550/554/139 549/553/139
f 547/552/8 402/414/8 404/416/8
f 549/553/138 400/413/138 402/414/138
f 530/533/301 519/521/301 550/554/301
f 550/554/210 398/412/210 400/413/210
f 551/425/109 404/416/109 408/418/109
f 552/430/120 551/425/120 412/424/120
f 553/555/127 546/551/127 552/430/127
f 554/556/173 552/430/173 416/429/173
f 557/557/43 553/555/43 554/556/43
f 555/558/134 544/549/134 553/555/134
f 558/559/92 555/558/92 557/557/92
f 556/560/302 542/547/302 555/558/302
f 559/561/43 554/556/43 561/562/43
f 562/563/92 557/557/92 559/561/92
f 560/564/73 562/563/73 559/561/73
f 615/565/115 559/561/115 561/562/115
f 563/566/72 564/567/72 562/563/72
f 564/567/52 558/559/52 562/563/52
f 565/568/149 566/569/149 564/567/149
f 566/569/221 567/570/221 564/567/221
f 567/570/52 556/560/52 558/559/52
f 569/571/221 568/572/221 567/570/221
f 598/573/34 569/571/34 566/569/34
f 570/574/34 571/575/34 569/571/34
f 572/576/176 573/577/176 571/575/176
f 571/575/37 576/545/37 568/572/37
f 574/578/164 575/579/164 573/577/164
f 573/577/204 539/542/204 576/545/204
f 568/572/168 540/546/168 556/560/168
f 577/580/186 578/581/186 575/579/186
f 575/579/189 537/539/189 539/542/189
f 578/581/16 534/540/16 537/539/16
f 580/582/4 579/583/4 578/581/4
f 581/584/30 582/585/30 580/582/30
f 605/586/187 580/582/187 577/580/187
f 583/587/197 584/588/197 582/585/197
f 582/585/199 586/589/199 579/583/199
f 584/588/201 588/590/201 585/591/201
f 585/591/206 586/589/206 584/588/206
f 583/587/289 581/584/289 604/592/289
f 589/593/33 585/591/33 588/590/33
f 590/594/14 591/595/14 593/596/14
f 592/597/179 593/596/179 591/595/179
f 593/596/178 625/598/178 590/594/178
f 595/599/158 594/600/158 593/596/158
f 599/601/198 595/599/198 592/597/198
f 596/602/163 597/603/163 600/604/163
f 600/604/150 598/573/150 566/569/150
f 597/603/159 601/605/159 598/573/159
f 606/606/152 600/604/152 565/568/152
f 601/605/161 570/574/161 598/573/161
f 602/607/161 572/576/161 570/574/161
f 603/608/162 574/578/162 572/576/162
f 604/592/185 577/580/185 574/578/185
f 607/609/36 596/602/36 606/606/36
f 608/610/238 565/568/238 563/566/238
f 609/611/154 606/606/154 608/610/154
f 611/612/153 608/610/153 610/613/153
f 610/613/303 563/566/303 560/564/303
f 613/614/129 610/613/129 612/615/129
f 560/564/144 612/615/144 610/613/144
f 612/615/57 616/616/57 613/614/57
f 614/617/119 615/565/119 421/433/119
f 421/433/114 561/562/114 418/431/114
f 617/518/89 614/617/89 420/436/89
f 616/616/217 516/519/217 522/523/217
f 522/523/208 613/614/208 616/616/208
f 515/442/213 420/436/213 423/435/213
f 524/526/56 611/612/56 613/614/56
f 618/527/170 609/611/170 611/612/170
f 619/618/234 525/528/234 621/619/234
f 619/618/157 607/609/157 609/611/157
f 620/620/207 621/619/207 622/621/207
f 622/621/245 535/541/245 623/622/245
f 621/619/236 527/530/236 535/541/236
f 625/598/166 622/621/166 624/623/166
f 623/622/148 624/623/148 622/621/148
f 624/623/35 590/594/35 625/598/35
f 594/600/25 620/620/25 625/598/25
f 579/583/191 623/622/191 534/540/191
f 561/562/173 416/429/173 418/431/173
f 312/321/193 337/343/193 310/314/193
f 627/624/304 630/625/304 639/626/304
f 629/627/289 627/628/289 640/629/289
f 626/630/304 628/631/304 631/632/304
f 629/627/305 628/633/305 626/634/305
f 626/630/304 631/632/304 630/625/304
f 631/635/306 633/636/306 632/637/306
f 632/637/307 630/638/307 631/635/307
f 632/639/308 633/640/308 629/627/308
f 634/641/308 632/639/308 629/627/308
f 634/641/308 638/642/308 635/643/308
f 634/644/309 646/645/309 630/638/309
f 634/641/308 640/629/308 636/646/308
f 640/629/308 637/647/308 636/646/308
f 636/648/310 643/649/310 639/650/310
f 636/648/311 644/651/311 638/652/311
f 640/629/308 641/653/308 637/647/308
f 642/654/312 640/629/312 627/624/312
f 637/655/313 642/656/313 643/649/313
f 643/657/304 642/654/304 627/624/304
f 639/626/304 643/657/304 627/624/304
f 630/625/304 644/658/304 639/626/304
f 644/658/304 647/659/304 645/660/304
f 638/652/314 645/661/314 651/662/314
f 635/663/315 647/664/315 646/645/315
f 649/665/316 648/666/316 647/664/316
f 654/667/304 647/659/304 648/668/304
f 649/669/308 652/670/308 650/671/308
f 649/669/308 638/642/308 651/672/308
f 651/662/317 654/673/317 652/674/317
f 652/674/318 655/675/318 653/676/318
f 652/670/308 659/677/308 650/671/308
f 648/668/304 655/678/304 654/667/304
f 656/679/319 653/676/319 655/675/319
f 655/678/304 658/680/304 656/681/304
f 650/682/320 657/683/320 648/666/320
f 659/684/321 658/685/321 657/683/321
f 660/686/308 653/687/308 661/688/308
f 656/689/322 660/686/322 661/688/322
f 1/1/1 3/5/1 5/2/1
f 1/1/2 4/254/2 6/4/2
f 35/6/3 40/690/3 33/7/3
f 237/9/4 239/63/4 235/10/4
f 106/12/5 66/216/5 108/13/5
f 109/15/6 111/278/6 110/16/6
f 167/17/302 197/104/302 165/18/302
f 149/20/8 160/218/8 152/21/8
f 62/23/9 64/215/9 65/24/9
f 58/25/10 65/24/10 56/26/10
f 34/8/11 33/7/11 32/28/11
f 28/30/12 30/34/12 31/31/12
f 27/33/13 41/95/13 30/34/13
f 225/35/14 243/67/14 221/36/14
f 24/38/15 44/92/15 27/33/15
f 236/11/16 235/10/16 234/40/16
f 209/41/17 234/40/17 207/42/17
f 61/44/18 63/214/18 62/23/18
f 16/46/19 18/49/19 19/47/19
f 18/49/323 53/80/323 21/50/323
f 17/48/21 36/66/21 14/51/21
f 13/52/22 15/132/22 16/46/22
f 14/51/23 34/8/23 11/29/23
f 10/53/24 12/131/24 13/52/24
f 226/54/25 250/74/25 229/55/25
f 11/29/26 32/28/26 9/57/26
f 2/3/27 5/2/27 8/58/27
f 25/39/28 27/33/28 28/30/28
f 26/60/29 37/65/29 23/61/29
f 240/62/30 241/261/30 239/63/30
f 38/64/31 40/690/31 35/6/31
f 34/8/32 14/51/32 36/66/32
f 243/67/33 225/35/33 244/68/33
f 194/70/34 214/239/34 193/71/34
f 228/73/35 244/68/35 225/35/35
f 250/74/36 226/54/36 251/75/36
f 193/71/37 212/243/37 196/77/37
f 55/79/38 15/132/38 57/27/38
f 53/80/39 18/49/39 55/79/39
f 93/82/40 92/173/40 91/83/40
f 50/85/41 21/50/41 53/80/41
f 54/81/42 69/126/42 51/86/42
f 143/87/43 166/19/43 142/88/43
f 51/86/44 71/120/44 52/90/44
f 46/91/45 45/94/45 44/92/45
f 47/93/46 80/224/46 45/94/46
f 44/92/47 43/96/47 41/95/47
f 45/94/48 82/101/48 43/96/48
f 43/96/49 84/98/49 42/97/49
f 3/5/50 6/4/50 42/97/50
f 84/98/51 63/214/51 61/44/51
f 170/99/52 195/78/52 167/17/52
f 82/101/53 83/103/53 84/98/53
f 81/102/54 86/162/54 83/103/54
f 197/104/55 198/225/55 199/105/55
f 184/106/56 185/247/56 186/107/56
f 173/109/57 137/159/57 175/110/57
f 76/111/58 77/84/58 78/112/58
f 74/114/59 93/82/59 77/84/59
f 180/115/299 182/223/299 181/116/299
f 75/118/61 95/170/61 74/114/61
f 71/120/62 72/266/62 73/119/62
f 158/121/63 180/115/63 178/117/63
f 181/116/64 183/248/64 184/106/64
f 178/117/65 181/116/65 176/123/65
f 67/125/66 68/127/66 69/126/66
f 68/127/67 104/141/67 70/128/67
f 65/24/68 66/216/68 67/125/68
f 165/18/69 199/105/69 163/129/69
f 177/124/298 131/200/298 179/122/298
f 12/131/71 57/27/71 15/132/71
f 169/133/72 190/228/72 170/99/72
f 171/134/73 169/133/73 168/100/73
f 129/135/74 131/200/74 132/136/74
f 248/138/75 183/248/75 204/139/75
f 104/141/76 68/127/76 106/12/76
f 69/126/77 70/128/77 71/120/77
f 102/143/78 70/128/78 104/141/78
f 105/142/79 113/271/79 103/144/79
f 100/145/80 72/266/80 102/143/80
f 103/144/81 115/193/81 101/146/81
f 97/147/82 75/118/82 100/145/82
f 101/146/83 117/287/83 98/148/83
f 179/122/84 128/180/84 156/149/84
f 99/150/85 124/177/85 96/151/85
f 287/152/324 258/252/324 289/153/324
f 152/21/325 157/219/325 155/155/325
f 77/84/88 91/83/88 79/157/88
f 134/158/89 175/110/89 137/159/89
f 89/161/90 88/164/90 86/162/90
f 90/163/91 300/166/91 88/164/91
f 168/100/92 167/17/92 166/19/92
f 88/164/93 109/15/93 87/165/93
f 300/166/94 111/278/94 109/15/94
f 145/167/297 279/280/297 139/168/297
f 95/170/96 94/199/96 93/82/96
f 298/171/97 264/206/97 299/172/97
f 151/174/98 282/188/98 148/175/98
f 297/176/99 96/151/99 124/177/99
f 123/179/100 156/149/100 128/180/100
f 121/182/101 122/185/101 124/177/101
f 125/183/102 123/179/102 121/182/102
f 155/155/103 156/149/103 123/179/103
f 270/178/104 124/177/104 122/185/104
f 153/156/105 155/155/105 125/183/105
f 282/188/106 151/174/106 252/189/106
f 150/22/107 152/21/107 153/156/107
f 114/191/108 257/283/108 116/192/108
f 147/194/109 149/20/109 150/22/109
f 146/195/110 162/217/110 149/20/110
f 299/172/111 262/205/111 300/166/111
f 73/119/112 74/114/112 76/111/112
f 52/90/113 76/111/113 49/113/113
f 138/196/114 140/197/114 141/89/114
f 140/197/115 171/134/115 143/87/115
f 10/53/116 9/57/116 7/59/116
f 139/168/117 279/280/117 136/198/117
f 135/160/118 137/159/118 138/196/118
f 137/159/119 173/109/119 140/197/119
f 144/169/120 146/195/120 147/194/120
f 297/176/121 267/276/121 298/171/121
f 131/200/122 177/124/122 134/158/122
f 130/137/123 273/285/123 127/201/123
f 98/148/124 119/288/124 99/150/124
f 281/202/296 295/284/296 278/203/296
f 262/205/126 299/172/126 264/206/126
f 142/88/127 164/130/127 146/195/127
f 200/208/128 205/249/128 202/209/128
f 174/108/129 186/107/129 172/211/129
f 21/50/326 48/246/326 20/212/326
f 172/211/303 188/230/303 169/133/303
f 108/13/132 64/215/132 85/213/132
f 83/103/133 85/213/133 63/214/133
f 166/19/134 165/18/134 164/130/134
f 64/215/135 108/13/135 66/216/135
f 164/130/136 163/129/136 162/217/136
f 199/105/137 200/208/137 201/210/137
f 160/218/327 159/221/327 157/219/327
f 161/220/139 203/222/139 159/221/139
f 157/219/140 158/121/140 156/149/140
f 203/222/301 182/223/301 180/115/301
f 202/209/142 204/139/142 182/223/142
f 201/210/143 202/209/143 203/222/143
f 171/134/144 140/197/144 173/109/144
f 79/157/145 89/161/145 81/102/145
f 198/225/146 208/43/146 200/208/146
f 15/132/147 55/79/147 18/49/147
f 231/226/148 246/264/148 228/73/148
f 190/228/149 191/229/149 192/72/149
f 191/229/150 218/234/150 194/70/150
f 36/66/151 23/61/151 37/65/151
f 189/76/152 251/75/152 191/229/152
f 186/107/153 187/231/153 188/230/153
f 187/231/154 250/74/154 189/76/154
f 66/216/155 106/12/155 68/127/155
f 86/162/328 87/165/328 85/213/328
f 249/232/157 229/55/157 250/74/157
f 223/233/158 251/75/158 226/54/158
f 218/234/159 217/263/159 216/235/159
f 271/236/160 292/295/160 268/237/160
f 216/235/161 215/240/161 214/239/161
f 215/240/162 219/255/162 213/241/162
f 251/75/163 223/233/163 218/234/163
f 213/241/164 238/256/164 211/242/164
f 57/27/165 12/131/165 59/244/165
f 227/56/166 229/55/166 230/227/166
f 210/245/167 209/41/167 208/43/167
f 195/78/168 196/77/168 197/104/168
f 48/246/169 47/93/169 46/91/169
f 185/247/170 249/232/170 187/231/170
f 183/248/171 248/138/171 185/247/171
f 205/249/172 206/140/172 204/139/172
f 141/89/173 142/88/173 144/169/173
f 56/26/174 67/125/174 54/81/174
f 49/113/175 78/112/175 47/93/175
f 214/239/176 213/241/176 212/243/176
f 60/45/177 62/23/177 58/25/177
f 224/37/178 226/54/178 227/56/178
f 222/250/179 223/233/179 224/37/179
f 29/32/180 39/260/180 26/60/180
f 59/244/181 8/58/181 5/2/181
f 260/251/295 289/153/295 258/252/295
f 30/34/183 6/4/183 4/254/183
f 41/95/184 42/97/184 6/4/184
f 219/255/185 220/257/185 238/256/185
f 238/256/186 237/9/186 236/11/186
f 220/257/187 240/62/187 237/9/187
f 22/258/188 24/38/188 25/39/188
f 211/242/189 236/11/189 209/41/189
f 234/40/190 231/226/190 233/259/190
f 235/10/191 246/264/191 231/226/191
f 20/212/192 46/91/192 24/38/192
f 63/214/193 85/213/193 64/215/193
f 207/42/194 233/259/194 206/140/194
f 8/58/195 59/244/195 12/131/195
f 37/65/196 26/60/196 39/260/196
f 241/261/197 247/299/197 245/262/197
f 217/263/198 218/234/198 223/233/198
f 239/63/199 245/262/199 246/264/199
f 60/45/200 5/2/200 3/5/200
f 245/262/201 247/299/201 242/69/201
f 208/43/329 207/42/329 205/249/329
f 196/77/203 210/245/203 198/225/203
f 212/243/204 211/242/204 210/245/204
f 283/190/205 284/282/205 281/202/205
f 244/68/206 228/73/206 246/264/206
f 229/55/207 249/232/207 232/265/207
f 176/123/208 184/106/208 174/108/208
f 70/128/209 102/143/209 72/266/209
f 159/221/210 180/115/210 158/121/210
f 91/83/211 90/163/211 89/161/211
f 92/173/212 299/172/212 90/163/212
f 132/136/213 134/158/213 135/160/213
f 280/204/214 148/175/214 282/188/214
f 136/198/215 277/269/215 133/267/215
f 275/268/216 133/267/216 277/269/216
f 175/110/217 134/158/217 177/124/217
f 113/271/218 114/191/218 115/193/218
f 154/187/219 252/189/219 151/174/219
f 294/272/220 284/282/220 286/273/220
f 192/72/221 193/71/221 195/78/221
f 96/151/222 297/176/222 94/199/222
f 269/238/223 268/237/223 266/275/223
f 162/217/224 161/220/224 160/218/224
f 112/277/225 259/253/225 114/191/225
f 50/85/226 49/113/226 48/246/226
f 111/278/227 300/166/227 262/205/227
f 110/16/228 112/277/228 113/271/228
f 264/206/229 298/171/229 267/276/229
f 94/199/230 298/171/230 92/173/230
f 279/280/231 145/167/231 280/204/231
f 163/129/232 201/210/232 161/220/232
f 78/112/233 79/157/233 80/224/233
f 249/232/330 185/247/330 248/138/330
f 19/47/235 20/212/235 22/258/235
f 232/265/236 248/138/236 206/140/236
f 107/14/237 110/16/237 105/142/237
f 188/230/238 189/76/238 190/228/238
f 23/61/239 36/66/239 17/48/239
f 285/281/331 286/273/331 284/282/331
f 97/147/241 96/151/241 95/170/241
f 72/266/242 100/145/242 75/118/242
f 148/175/243 280/204/243 145/167/243
f 257/283/244 114/191/244 259/253/244
f 230/227/245 232/265/245 233/259/245
f 259/253/246 112/277/246 261/279/246
f 128/180/247 179/122/247 131/200/247
f 285/281/332 256/291/332 287/152/332
f 295/284/333 281/202/333 284/282/333
f 126/181/250 128/180/250 129/135/250
f 182/223/251 204/139/251 183/248/251
f 272/186/252 127/201/252 273/285/252
f 127/201/253 272/186/253 122/185/253
f 267/276/254 297/176/254 270/178/254
f 253/286/255 254/293/255 252/189/255
f 266/275/256 265/289/256 263/207/256
f 117/287/257 118/292/257 119/288/257
f 263/207/258 260/251/258 261/279/258
f 265/289/334 289/153/334 260/251/334
f 111/278/294 261/279/294 112/277/294
f 87/165/261 109/15/261 107/14/261
f 133/267/262 275/268/262 130/137/262
f 255/290/263 116/192/263 257/283/263
f 258/252/264 287/152/264 256/291/264
f 116/192/265 255/290/265 118/292/265
f 253/286/266 118/292/266 255/290/266
f 256/291/267 285/281/267 254/293/267
f 118/292/268 253/286/268 120/184/268
f 283/190/269 252/189/269 254/293/269
f 272/186/270 271/236/270 269/238/270
f 268/237/271 290/298/271 265/289/271
f 277/269/272 136/198/272 279/280/272
f 278/203/273 295/284/273 276/270/273
f 276/270/274 293/296/274 274/294/274
f 273/285/275 130/137/275 275/268/275
f 292/295/335 274/294/335 293/296/335
f 274/294/277 292/295/277 271/236/277
f 292/295/336 291/297/336 290/298/336
f 290/298/337 288/154/337 289/153/337
f 291/297/280 296/274/280 288/154/280
f 154/187/281 125/183/281 120/184/281
f 119/288/282 120/184/282 121/182/282
f 288/154/283 296/274/283 286/273/283
f 293/296/338 276/270/338 295/284/338
f 294/272/285 296/274/285 291/297/285
f 115/193/286 116/192/286 117/287/286
f 80/224/287 81/102/287 82/101/287
f 121/182/288 123/179/288 126/181/288
f 240/62/289 220/257/289 219/255/289
f 219/255/289 215/240/289 240/62/289
f 215/240/289 216/235/289 241/261/289
f 240/62/289 215/240/289 241/261/289
f 216/235/289 217/263/289 242/69/289
f 217/263/289 222/250/289 243/67/289
f 222/250/289 221/36/289 243/67/289
f 243/67/289 242/69/289 217/263/289
f 242/69/289 247/299/289 216/235/289
f 29/32/289 31/31/289 39/260/289
f 31/31/289 4/254/289 39/260/289
f 4/254/289 1/1/289 40/690/289
f 1/1/289 2/3/289 33/7/289
f 2/3/289 7/59/289 32/28/289
f 7/59/289 9/57/289 32/28/289
f 32/28/289 33/7/289 2/3/289
f 33/7/289 40/690/289 1/1/289
f 40/690/289 38/64/289 4/254/289
f 301/300/1 302/304/1 306/301/1
f 301/300/2 303/493/2 315/303/2
f 473/488/289 474/490/289 476/492/289
f 476/492/289 303/493/289 472/487/289
f 303/493/289 301/300/289 472/487/289
f 304/302/289 305/309/289 481/306/289
f 305/309/289 486/307/289 481/306/289
f 301/300/289 304/302/289 469/691/289
f 472/487/289 301/300/289 469/691/289
f 472/487/289 473/488/289 476/492/289
f 481/306/289 469/691/289 304/302/289
f 484/496/289 482/305/289 486/307/289
f 304/302/1 306/301/1 307/308/1
f 309/310/200 307/308/200 306/301/200
f 308/311/200 306/301/200 302/304/200
f 308/311/18 310/314/18 492/313/18
f 311/312/18 312/321/18 310/314/18
f 316/315/51 312/321/51 311/312/51
f 302/304/50 315/303/50 313/316/50
f 317/317/49 316/315/49 313/316/49
f 314/318/184 313/316/184 315/303/184
f 318/320/133 320/325/133 312/321/133
f 321/322/53 318/320/53 316/315/53
f 323/323/54 319/324/54 318/320/54
f 319/324/156 332/334/156 320/325/156
f 324/326/287 323/323/287 321/322/287
f 322/327/48 321/322/48 317/317/48
f 327/329/145 325/330/145 323/323/145
f 325/330/90 328/332/90 319/324/90
f 326/331/91 329/335/91 328/332/91
f 447/333/211 326/331/211 325/330/211
f 328/332/93 330/336/93 332/334/93
f 329/335/94 331/466/94 330/336/94
f 330/336/6 331/467/6 335/337/6
f 332/334/261 330/336/261 333/338/261
f 336/339/261 333/338/261 334/340/261
f 333/338/6 335/337/6 348/342/6
f 336/339/132 337/343/132 320/325/132
f 338/341/132 339/344/132 337/343/132
f 339/344/135 338/341/135 340/345/135
f 343/347/5 340/345/5 338/341/5
f 341/346/68 340/345/68 342/348/68
f 340/345/155 343/347/155 344/350/155
f 346/351/76 344/350/76 343/347/76
f 334/340/237 348/342/237 345/352/237
f 345/352/79 347/354/79 510/353/79
f 348/342/228 349/355/228 347/354/228
f 335/337/260 350/357/260 349/355/260
f 351/356/246 349/355/246 350/357/246
f 349/355/225 351/356/225 352/359/225
f 378/360/244 352/359/244 351/356/244
f 354/358/182 356/363/182 353/361/182
f 355/362/182 358/367/182 356/363/182
f 354/358/246 350/357/246 451/364/246
f 375/365/324 353/361/324 356/363/324
f 357/366/86 356/363/86 358/367/86
f 363/369/337 359/368/337 358/367/337
f 360/370/334 358/367/334 355/362/334
f 362/372/256 360/370/256 361/371/256
f 364/374/271 363/369/271 360/370/271
f 366/375/336 365/376/336 363/369/336
f 365/376/280 368/380/280 359/368/280
f 366/375/335 428/439/335 367/377/335
f 369/378/285 368/380/285 365/376/285
f 359/368/283 368/380/283 370/379/283
f 369/378/220 371/381/220 370/379/220
f 371/381/220 373/384/220 372/382/220
f 357/366/283 370/379/283 372/382/283
f 374/383/331 372/382/331 373/384/331
f 374/383/332 376/386/332 375/365/332
f 353/361/264 375/365/264 376/386/264
f 376/386/267 374/383/267 388/387/267
f 377/388/263 379/389/263 378/360/263
f 352/359/108 378/360/108 379/389/108
f 380/390/286 379/389/286 381/391/286
f 379/389/265 377/388/265 384/393/265
f 382/392/83 381/391/83 383/394/83
f 381/391/257 384/393/257 385/396/257
f 384/393/268 386/398/268 389/397/268
f 386/398/266 384/393/266 377/388/266
f 387/399/281 390/401/281 389/397/281
f 386/398/255 388/387/255 406/400/255
f 390/401/102 394/407/102 391/402/102
f 385/396/282 389/397/282 391/402/282
f 391/402/101 393/406/101 436/404/101
f 391/402/288 394/407/288 395/405/288
f 394/407/100 396/411/100 397/408/100
f 399/409/103 396/411/103 394/407/103
f 517/410/84 397/408/84 396/411/84
f 400/413/140 398/412/140 396/411/140
f 402/414/325 400/413/325 399/409/325
f 401/415/105 399/409/105 390/401/105
f 404/416/107 402/414/107 401/415/107
f 387/399/219 406/400/219 403/417/219
f 403/417/98 405/419/98 408/418/98
f 405/419/106 403/417/106 406/400/106
f 407/385/269 406/400/269 388/387/269
f 407/385/205 373/384/205 409/420/205
f 411/421/214 408/418/214 405/419/214
f 410/422/333 409/420/333 373/384/333
f 409/420/125 410/422/125 413/423/125
f 408/418/243 411/421/243 412/424/243
f 415/426/231 412/424/231 411/421/231
f 410/422/125 426/440/125 414/427/125
f 417/428/231 415/426/231 413/423/231
f 412/424/95 415/426/95 416/429/95
f 415/426/95 417/428/95 418/431/95
f 418/431/117 417/428/117 419/432/117
f 422/434/272 419/432/272 417/428/272
f 419/432/339 422/434/339 423/435/339
f 420/436/118 614/617/118 421/433/118
f 425/437/216 423/435/216 422/434/216
f 414/427/273 426/440/273 424/438/273
f 424/438/274 367/377/274 428/439/274
f 367/377/338 424/438/338 426/440/338
f 426/440/249 410/422/249 371/381/249
f 423/435/262 425/437/262 427/441/262
f 429/443/275 427/441/275 425/437/275
f 428/439/277 366/375/277 431/444/277
f 427/441/123 429/443/123 430/445/123
f 433/447/252 430/445/252 429/443/252
f 433/447/270 431/444/270 432/448/270
f 431/444/160 366/375/160 364/374/160
f 434/449/104 436/404/104 393/406/104
f 430/445/253 433/447/253 393/406/253
f 512/450/254 435/451/254 434/449/254
f 435/451/99 437/452/99 436/404/99
f 392/403/85 436/404/85 437/452/85
f 438/453/241 437/452/241 439/454/241
f 437/452/222 435/451/222 442/456/222
f 440/455/61 439/454/61 441/457/61
f 439/454/96 442/456/96 444/459/96
f 435/451/121 512/450/121 443/460/121
f 442/456/230 443/460/230 446/461/230
f 441/457/59 444/459/59 445/462/59
f 444/459/40 446/461/40 447/333/40
f 446/461/212 448/464/212 326/331/212
f 443/460/97 449/373/97 448/464/97
f 450/465/126 448/464/126 449/373/126
f 448/464/111 450/465/111 329/335/111
f 331/466/227 329/335/227 450/465/227
f 361/371/258 355/362/258 451/364/258
f 331/467/294 451/364/294 350/357/294
f 449/373/229 443/460/229 512/450/229
f 445/462/88 447/333/88 327/329/88
f 452/463/58 445/462/58 453/468/58
f 454/469/175 453/468/175 455/470/175
f 453/468/233 327/329/233 324/326/233
f 456/471/169 455/470/169 457/472/169
f 455/470/46 324/326/46 322/327/46
f 457/472/45 322/327/45 479/328/45
f 459/473/192 457/472/192 458/474/192
f 509/476/130 456/471/130 459/473/130
f 460/477/235 459/473/235 461/475/235
f 461/475/188 458/474/188 480/479/188
f 462/480/239 465/484/239 463/478/239
f 463/478/21 465/484/21 466/481/21
f 464/482/19 496/507/19 460/477/19
f 468/483/32 466/481/32 465/484/32
f 465/484/151 462/480/151 470/486/151
f 467/485/3 469/691/3 481/306/3
f 472/487/31 469/691/31 467/485/31
f 470/486/196 471/489/196 473/488/196
f 471/489/29 470/486/29 462/480/29
f 474/490/180 473/488/180 471/489/180
f 475/491/12 477/319/12 476/492/12
f 477/319/183 315/303/183 303/493/183
f 478/494/13 314/318/13 477/319/13
f 480/479/28 478/494/28 475/491/28
f 479/328/47 317/317/47 314/318/47
f 458/474/15 479/328/15 478/494/15
f 468/483/11 481/306/11 482/305/11
f 483/495/26 482/305/26 484/496/26
f 485/497/116 484/496/116 486/307/116
f 305/309/27 307/308/27 487/498/27
f 487/498/195 488/500/195 489/499/195
f 488/500/181 487/498/181 307/308/181
f 491/501/165 489/499/165 488/500/165
f 309/310/177 492/313/177 490/502/177
f 490/502/10 341/346/10 494/349/10
f 492/313/9 339/344/9 341/346/9
f 310/314/193 337/343/193 339/344/193
f 489/499/71 491/501/71 493/503/71
f 495/505/38 493/503/38 491/501/38
f 494/349/174 342/348/174 497/506/174
f 493/503/147 495/505/147 496/507/147
f 498/508/39 496/507/39 495/505/39
f 497/506/42 499/510/42 500/509/42
f 342/348/66 344/350/66 499/510/66
f 499/510/77 501/512/77 503/511/77
f 344/350/67 346/351/67 501/512/67
f 501/512/209 502/514/209 505/513/209
f 502/514/78 501/512/78 346/351/78
f 500/509/44 503/511/44 504/515/44
f 503/511/62 505/513/62 506/458/62
f 505/513/242 507/395/242 440/455/242
f 507/395/80 505/513/80 502/514/80
f 438/453/82 440/455/82 507/395/82
f 506/458/112 441/457/112 452/463/112
f 504/515/113 452/463/113 454/469/113
f 508/516/41 509/476/41 498/508/41
f 508/516/226 454/469/226 456/471/226
f 496/507/20 498/508/20 509/476/20
f 510/353/81 380/390/81 382/392/81
f 347/354/218 352/359/218 380/390/218
f 511/504/22 493/503/22 464/482/22
f 466/481/23 468/483/23 483/495/23
f 485/497/24 489/499/24 511/504/24
f 432/448/223 364/374/223 362/372/223
f 383/394/124 385/396/124 392/403/124
f 395/405/250 397/408/250 513/446/250
f 513/446/74 514/517/74 515/442/74
f 397/408/247 517/410/247 514/517/247
f 514/517/122 516/519/122 617/518/122
f 516/519/298 514/517/298 517/410/298
f 398/412/63 519/521/63 518/520/63
f 519/521/299 521/524/299 520/522/299
f 518/520/65 520/522/65 522/523/65
f 521/524/251 526/529/251 523/525/251
f 520/522/64 523/525/64 524/526/64
f 523/525/171 525/528/171 618/527/171
f 525/528/75 523/525/75 526/529/75
f 531/531/172 527/530/172 526/529/172
f 528/532/142 526/529/142 521/524/142
f 532/534/128 531/531/128 528/532/128
f 529/535/143 528/532/143 530/533/143
f 533/537/194 535/541/194 527/530/194
f 536/538/329 533/537/329 531/531/329
f 537/539/17 534/540/17 533/537/17
f 534/540/190 623/622/190 535/541/190
f 539/542/167 537/539/167 536/538/167
f 538/543/146 536/538/146 532/534/146
f 576/545/203 539/542/203 538/543/203
f 540/546/55 538/543/55 541/544/55
f 542/547/69 541/544/69 543/548/69
f 541/544/137 532/534/137 529/535/137
f 544/549/136 543/548/136 545/550/136
f 543/548/232 529/535/232 548/536/232
f 546/551/110 545/550/110 547/552/110
f 545/550/224 548/536/224 549/553/224
f 548/536/139 530/533/139 550/554/139
f 547/552/8 549/553/8 402/414/8
f 549/553/138 550/554/138 400/413/138
f 530/533/301 521/524/301 519/521/301
f 550/554/210 519/521/210 398/412/210
f 551/425/109 547/552/109 404/416/109
f 552/430/120 546/551/120 551/425/120
f 553/555/127 544/549/127 546/551/127
f 554/556/173 553/555/173 552/430/173
f 557/557/43 555/558/43 553/555/43
f 555/558/134 542/547/134 544/549/134
f 558/559/92 556/560/92 555/558/92
f 556/560/302 540/546/302 542/547/302
f 559/561/43 557/557/43 554/556/43
f 562/563/92 558/559/92 557/557/92
f 560/564/73 563/566/73 562/563/73
f 615/565/115 560/564/115 559/561/115
f 563/566/72 565/568/72 564/567/72
f 564/567/52 567/570/52 558/559/52
f 565/568/149 600/604/149 566/569/149
f 566/569/221 569/571/221 567/570/221
f 567/570/52 568/572/52 556/560/52
f 569/571/221 571/575/221 568/572/221
f 598/573/34 570/574/34 569/571/34
f 570/574/34 572/576/34 571/575/34
f 572/576/176 574/578/176 573/577/176
f 571/575/37 573/577/37 576/545/37
f 574/578/164 577/580/164 575/579/164
f 573/577/204 575/579/204 539/542/204
f 568/572/168 576/545/168 540/546/168
f 577/580/186 580/582/186 578/581/186
f 575/579/189 578/581/189 537/539/189
f 578/581/16 579/583/16 534/540/16
f 580/582/4 582/585/4 579/583/4
f 581/584/30 583/587/30 582/585/30
f 605/586/187 581/584/187 580/582/187
f 583/587/197 587/692/197 584/588/197
f 582/585/199 584/588/199 586/589/199
f 584/588/201 587/692/201 588/590/201
f 585/591/206 624/623/206 586/589/206
f 581/584/289 605/586/289 604/592/289
f 604/592/289 603/608/289 583/587/289
f 603/608/289 602/607/289 583/587/289
f 602/607/289 601/605/289 587/692/289
f 601/605/289 599/601/289 588/590/289
f 599/601/289 592/597/289 589/593/289
f 592/597/289 591/595/289 589/593/289
f 589/593/289 588/590/289 599/601/289
f 588/590/289 587/692/289 601/605/289
f 587/692/289 583/587/289 602/607/289
f 589/593/33 590/594/33 585/591/33
f 590/594/14 589/593/14 591/595/14
f 592/597/179 595/599/179 593/596/179
f 593/596/178 594/600/178 625/598/178
f 595/599/158 596/602/158 594/600/158
f 599/601/198 597/603/198 595/599/198
f 596/602/163 595/599/163 597/603/163
f 600/604/150 597/603/150 598/573/150
f 597/603/159 599/601/159 601/605/159
f 606/606/152 596/602/152 600/604/152
f 601/605/161 602/607/161 570/574/161
f 602/607/340 603/608/340 572/576/340
f 603/608/162 604/592/162 574/578/162
f 604/592/185 605/586/185 577/580/185
f 607/609/36 594/600/36 596/602/36
f 608/610/238 606/606/238 565/568/238
f 609/611/154 607/609/154 606/606/154
f 611/612/153 609/611/153 608/610/153
f 610/613/303 608/610/303 563/566/303
f 613/614/129 611/612/129 610/613/129
f 560/564/144 615/565/144 612/615/144
f 612/615/57 614/617/57 616/616/57
f 614/617/119 612/615/119 615/565/119
f 421/433/114 615/565/114 561/562/114
f 617/518/89 616/616/89 614/617/89
f 616/616/217 617/518/217 516/519/217
f 522/523/208 524/526/208 613/614/208
f 515/442/213 617/518/213 420/436/213
f 524/526/56 618/527/56 611/612/56
f 618/527/170 619/618/170 609/611/170
f 619/618/330 618/527/330 525/528/330
f 619/618/157 620/620/157 607/609/157
f 620/620/207 619/618/207 621/619/207
f 622/621/245 621/619/245 535/541/245
f 621/619/341 525/528/341 527/530/341
f 625/598/166 620/620/166 622/621/166
f 623/622/148 586/589/148 624/623/148
f 624/623/35 585/591/35 590/594/35
f 594/600/25 607/609/25 620/620/25
f 579/583/191 586/589/191 623/622/191
f 561/562/173 554/556/173 416/429/173
f 312/321/193 320/325/193 337/343/193
f 627/624/304 626/630/304 630/625/304
f 629/627/289 626/693/289 627/628/289
f 629/627/305 633/640/305 628/633/305
f 631/635/306 628/694/306 633/636/306
f 632/637/307 634/644/307 630/638/307
f 634/641/308 636/646/308 638/642/308
f 634/644/309 635/663/309 646/645/309
f 634/641/308 629/627/308 640/629/308
f 636/648/310 637/655/310 643/649/310
f 636/648/311 639/650/311 644/651/311
f 642/654/312 641/653/312 640/629/312
f 637/655/313 641/695/313 642/656/313
f 630/625/304 646/696/304 644/658/304
f 644/658/304 646/696/304 647/659/304
f 638/652/314 644/651/314 645/661/314
f 635/663/315 649/665/315 647/664/315
f 649/665/316 650/682/316 648/666/316
f 654/667/304 645/660/304 647/659/304
f 649/669/308 651/672/308 652/670/308
f 649/669/308 635/643/308 638/642/308
f 651/662/317 645/661/317 654/673/317
f 652/674/318 654/673/318 655/675/318
f 652/670/308 653/687/308 659/677/308
f 648/668/304 657/697/304 655/678/304
f 656/679/319 661/698/319 653/676/319
f 655/678/304 657/697/304 658/680/304
f 650/682/320 659/684/320 657/683/320
f 659/684/321 660/699/321 658/685/321
f 660/686/308 659/677/308 653/687/308
f 656/689/322 658/700/322 660/686/322
