# Blender 4.4.0
# www.blender.org
mtllib diorama.mtl
o 立方体.005
v -2.000000 1.000000 6.000000
v -2.000000 5.000000 6.000000
v -2.000000 1.000000 4.000000
v -2.000000 5.000000 4.000000
v 2.000000 1.000000 6.000000
v 2.000000 5.000000 6.000000
v 2.000000 1.000000 4.000000
v 2.000000 5.000000 4.000000
v -10.000000 -1.000000 10.000000
v -10.000000 1.000000 10.000000
v -10.000000 -1.000000 -10.000000
v -10.000000 1.000000 -10.000000
v 10.000000 -1.000000 10.000000
v 10.000000 1.000000 10.000000
v 10.000000 -1.000000 -10.000000
v 10.000000 1.000000 -10.000000
v -8.000000 1.000000 1.000000
v -8.000000 7.000000 1.000000
v -8.000000 1.000000 -1.000000
v -8.000000 7.000000 -1.000000
v -2.000000 1.000000 1.000000
v -2.000000 7.000000 1.000000
v -2.000000 1.000000 -1.000000
v -2.000000 7.000000 -1.000000
v 2.000000 1.000000 1.000000
v 2.000000 7.000000 1.000000
v 2.000000 1.000000 -1.000000
v 2.000000 7.000000 -1.000000
v 8.000000 1.000000 1.000000
v 8.000000 7.000000 1.000000
v 8.000000 1.000000 -1.000000
v 8.000000 7.000000 -1.000000
v -5.573447 3.558061 5.477871
v -5.589114 3.558061 5.397269
v -5.540979 3.500000 5.429737
v -5.597974 3.558061 5.440816
v -5.587516 3.524539 5.438782
v -5.575016 3.517006 5.406780
v -5.563938 3.517006 5.463774
v -5.573447 3.941939 5.477871
v -5.540980 4.000000 5.429738
v -5.589115 3.941939 5.397270
v -5.563938 3.982994 5.463774
v -5.587516 3.975461 5.438782
v -5.575016 3.982994 5.406780
v -5.597974 3.941939 5.440816
v -4.934883 3.500000 4.531161
v -4.983017 3.558061 4.498693
v -4.902415 3.558061 4.483026
v -4.968919 3.517006 4.508203
v -4.943928 3.524539 4.484625
v -4.945961 3.558061 4.474167
v -4.911925 3.517006 4.497125
v -4.983017 3.941940 4.498693
v -4.934883 4.000000 4.531161
v -4.902415 3.941940 4.483026
v -4.968919 3.982994 4.508203
v -4.943928 3.975461 4.484625
v -4.911925 3.982994 4.497125
v -4.945961 3.941940 4.474167
v -5.222730 3.500000 5.644398
v -5.174595 3.558061 5.676866
v -5.255198 3.558061 5.692533
v -5.188694 3.517006 5.667357
v -5.213684 3.524539 5.690935
v -5.211652 3.558061 5.701393
v -5.245688 3.517006 5.678435
v -5.255198 3.941939 5.692533
v -5.174596 3.941939 5.676867
v -5.222731 4.000000 5.644399
v -5.211652 3.941939 5.701393
v -5.213684 3.975461 5.690935
v -5.188694 3.982994 5.667357
v -5.245688 3.982994 5.678435
v -4.616633 3.500000 4.745823
v -4.584166 3.558061 4.697688
v -4.568499 3.558061 4.778290
v -4.593676 3.517006 4.711787
v -4.570097 3.524539 4.736777
v -4.559639 3.558061 4.734744
v -4.582597 3.517006 4.768780
v -4.568499 3.941940 4.778290
v -4.584166 3.941940 4.697688
v -4.616633 4.000000 4.745823
v -4.559639 3.941940 4.734744
v -4.570097 3.975461 4.736777
v -4.593676 3.982994 4.711787
v -4.582597 3.982994 4.768780
v -6.570242 4.058061 5.167390
v -6.585910 4.058061 5.086789
v -6.537776 4.000000 5.119256
v -6.594769 4.058061 5.130334
v -6.584311 4.024539 5.128301
v -6.571812 4.017006 5.096298
v -6.560733 4.017006 5.153292
v -6.570242 4.941939 5.167390
v -6.537776 5.000000 5.119256
v -6.585910 4.941939 5.086789
v -6.560733 4.982994 5.153292
v -6.584311 4.975461 5.128301
v -6.571812 4.982994 5.096298
v -6.594769 4.941939 5.130334
v -6.043517 4.000000 4.386487
v -6.091651 4.058061 4.354020
v -6.011049 4.058061 4.338352
v -6.077553 4.017006 4.363529
v -6.052562 4.024539 4.339951
v -6.054595 4.058061 4.329493
v -6.020559 4.017006 4.352451
v -6.091651 4.941939 4.354020
v -6.043517 5.000000 4.386487
v -6.011049 4.941939 4.338352
v -6.077553 4.982994 4.363529
v -6.052562 4.975461 4.339951
v -6.020559 4.982994 4.352451
v -6.054595 4.941939 4.329493
v -5.805007 4.000000 5.613514
v -5.756873 4.058061 5.645981
v -5.837474 4.058061 5.661648
v -5.770971 4.017006 5.636472
v -5.795961 4.024539 5.660049
v -5.793929 4.058061 5.670508
v -5.827965 4.017006 5.647550
v -5.837474 4.941939 5.661648
v -5.756873 4.941939 5.645981
v -5.805007 5.000000 5.613514
v -5.793929 4.941939 5.670508
v -5.795961 4.975461 5.660049
v -5.770971 4.982994 5.636472
v -5.827965 4.982994 5.647550
v -5.310749 4.000000 4.880745
v -5.278281 4.058061 4.832611
v -5.262614 4.058061 4.913212
v -5.287791 4.017006 4.846709
v -5.264212 4.024539 4.871699
v -5.253755 4.058061 4.869667
v -5.276712 4.017006 4.903703
v -5.262614 4.941939 4.913212
v -5.278281 4.941939 4.832611
v -5.310749 5.000000 4.880745
v -5.253755 4.941939 4.869667
v -5.264212 4.975461 4.871699
v -5.287791 4.982994 4.846709
v -5.276712 4.982994 4.903703
v -6.693623 2.058061 4.903236
v -6.709290 2.058061 4.822634
v -6.661155 2.000000 4.855101
v -6.718149 2.058061 4.866179
v -6.707691 2.024539 4.864147
v -6.695191 2.017006 4.832143
v -6.684113 2.017006 4.889137
v -6.693623 3.941939 4.903236
v -6.661156 4.000000 4.855102
v -6.709290 3.941939 4.822634
v -6.684114 3.982994 4.889138
v -6.707692 3.975461 4.864147
v -6.695191 3.982994 4.832143
v -6.718150 3.941939 4.866180
v -6.334654 2.000000 4.371043
v -6.382790 2.058061 4.338577
v -6.302187 2.058061 4.322909
v -6.368691 2.017006 4.348086
v -6.343700 2.024539 4.324508
v -6.345733 2.058061 4.314050
v -6.311697 2.017006 4.337007
v -6.382790 3.941939 4.338577
v -6.334655 4.000000 4.371044
v -6.302187 3.941939 4.322909
v -6.368691 3.982994 4.348087
v -6.343700 3.975461 4.324508
v -6.311697 3.982994 4.337008
v -6.345733 3.941939 4.314051
v -5.513868 2.000000 5.628956
v -5.465734 2.058061 5.661423
v -5.546336 2.058061 5.677091
v -5.479832 2.017006 5.651913
v -5.504823 2.024539 5.675492
v -5.502790 2.058061 5.685949
v -5.536826 2.017006 5.662992
v -5.546336 3.941939 5.677091
v -5.465734 3.941939 5.661423
v -5.513869 4.000000 5.628957
v -5.502790 3.941939 5.685950
v -5.504823 3.975461 5.675492
v -5.479832 3.982994 5.651914
v -5.536827 3.982994 5.662993
v -5.187367 2.000000 5.144898
v -5.154901 2.058061 5.096764
v -5.139233 2.058061 5.177366
v -5.164410 2.017006 5.110862
v -5.140831 2.024539 5.135853
v -5.130373 2.058061 5.133820
v -5.153332 2.017006 5.167857
v -5.139233 3.941939 5.177366
v -5.154901 3.941939 5.096764
v -5.187368 4.000000 5.144899
v -5.130374 3.941939 5.133821
v -5.140832 3.975461 5.135853
v -5.164411 3.982994 5.110863
v -5.153332 3.982994 5.167857
v -5.891569 1.058061 5.323606
v -5.907237 1.058061 5.243003
v -5.859102 1.000000 5.275471
v -5.916096 1.058061 5.286549
v -5.905638 1.024539 5.284516
v -5.893138 1.017006 5.252513
v -5.882060 1.017006 5.309507
v -5.891569 1.941939 5.323606
v -5.859102 2.000000 5.275471
v -5.907237 1.941939 5.243003
v -5.882060 1.982994 5.309507
v -5.905638 1.975461 5.284516
v -5.893138 1.982994 5.252513
v -5.916096 1.941939 5.286549
v -5.644440 1.000000 4.957221
v -5.692575 1.058061 4.924753
v -5.611973 1.058061 4.909087
v -5.678476 1.017006 4.934263
v -5.653486 1.024539 4.910685
v -5.655518 1.058061 4.900227
v -5.621482 1.017006 4.923184
v -5.692575 1.941939 4.924753
v -5.644440 2.000000 4.957221
v -5.611973 1.941939 4.909087
v -5.678476 1.982994 4.934263
v -5.653486 1.975461 4.910685
v -5.621482 1.982994 4.923184
v -5.655518 1.941939 4.900227
v -5.540853 1.000000 5.490132
v -5.492718 1.058061 5.522600
v -5.573320 1.058061 5.538267
v -5.506817 1.017006 5.513090
v -5.531807 1.024539 5.536669
v -5.529774 1.058061 5.547126
v -5.563810 1.017006 5.524169
v -5.573320 1.941939 5.538267
v -5.492718 1.941939 5.522600
v -5.540853 2.000000 5.490133
v -5.529774 1.941939 5.547126
v -5.531807 1.975461 5.536669
v -5.506817 1.982994 5.513090
v -5.563810 1.982994 5.524169
v -5.326190 1.000000 5.171883
v -5.293724 1.058061 5.123748
v -5.278056 1.058061 5.204350
v -5.303233 1.017006 5.137846
v -5.279655 1.024539 5.162838
v -5.269197 1.058061 5.160804
v -5.292154 1.017006 5.194840
v -5.278056 1.941939 5.204350
v -5.293724 1.941939 5.123749
v -5.326190 2.000000 5.171883
v -5.269197 1.941939 5.160804
v -5.279655 1.975461 5.162838
v -5.303233 1.982994 5.137846
v -5.292154 1.982994 5.194840
v -6.554800 1.058061 4.876251
v -6.570467 1.058061 4.795649
v -6.522332 1.000000 4.828116
v -6.579326 1.058061 4.839195
v -6.568868 1.024539 4.837162
v -6.556368 1.017006 4.805159
v -6.545290 1.017006 4.862153
v -6.554800 1.941939 4.876251
v -6.522332 2.000000 4.828116
v -6.570467 1.941939 4.795649
v -6.545290 1.982994 4.862153
v -6.568868 1.975461 4.837162
v -6.556368 1.982994 4.805159
v -6.579326 1.941939 4.839195
v -6.307670 1.000000 4.509866
v -6.355804 1.058061 4.477399
v -6.275203 1.058061 4.461732
v -6.341706 1.017006 4.486909
v -6.316716 1.024539 4.463331
v -6.318748 1.058061 4.452873
v -6.284712 1.017006 4.475830
v -6.355804 1.941939 4.477399
v -6.307670 2.000000 4.509866
v -6.275203 1.941939 4.461732
v -6.341706 1.982994 4.486909
v -6.316716 1.975461 4.463331
v -6.284712 1.982994 4.475830
v -6.318748 1.941939 4.452873
v -6.204083 1.000000 5.042778
v -6.155948 1.058061 5.075245
v -6.236550 1.058061 5.090913
v -6.170047 1.017006 5.065736
v -6.195037 1.024539 5.089314
v -6.193004 1.058061 5.099772
v -6.227040 1.017006 5.076815
v -6.236550 1.941939 5.090913
v -6.155948 1.941939 5.075246
v -6.204083 2.000000 5.042778
v -6.193005 1.941939 5.099772
v -6.195037 1.975461 5.089314
v -6.170047 1.982994 5.065736
v -6.227040 1.982994 5.076815
v -5.989420 1.000000 4.724528
v -5.956954 1.058061 4.676394
v -5.941286 1.058061 4.756996
v -5.966463 1.017006 4.690492
v -5.942885 1.024539 4.715483
v -5.932426 1.058061 4.713449
v -5.955384 1.017006 4.747486
v -5.941286 1.941939 4.756996
v -5.956954 1.941939 4.676394
v -5.989420 2.000000 4.724528
v -5.932426 1.941939 4.713450
v -5.942885 1.975461 4.715483
v -5.966463 1.982994 4.690492
v -5.955384 1.982994 4.747486
v -6.817003 3.558061 4.639082
v -6.832670 3.558061 4.558480
v -6.784536 3.500000 4.590947
v -6.841530 3.558061 4.602026
v -6.831072 3.524539 4.599993
v -6.818573 3.517006 4.567990
v -6.807494 3.517006 4.624984
v -6.817003 3.941939 4.639082
v -6.784536 4.000000 4.590948
v -6.832671 3.941939 4.558481
v -6.807494 3.982994 4.624984
v -6.831072 3.975461 4.599993
v -6.818573 3.982994 4.567990
v -6.841530 3.941939 4.602026
v -6.178439 3.500000 3.692372
v -6.226573 3.558061 3.659904
v -6.145972 3.558061 3.644237
v -6.212475 3.517006 3.669414
v -6.187485 3.524539 3.645835
v -6.189517 3.558061 3.635378
v -6.155481 3.517006 3.658335
v -6.226574 3.941940 3.659904
v -6.178439 4.000000 3.692372
v -6.145972 3.941940 3.644237
v -6.212475 3.982994 3.669414
v -6.187485 3.975461 3.645835
v -6.155481 3.982994 3.658335
v -6.189517 3.941940 3.635378
v -6.466287 3.500000 4.805609
v -6.418152 3.558061 4.838077
v -6.498754 3.558061 4.853744
v -6.432251 3.517006 4.828568
v -6.457241 3.524539 4.852145
v -6.455208 3.558061 4.862604
v -6.489244 3.517006 4.839646
v -6.498754 3.941939 4.853744
v -6.418152 3.941939 4.838077
v -6.466287 4.000000 4.805610
v -6.455208 3.941939 4.862604
v -6.457241 3.975461 4.852145
v -6.432251 3.982994 4.828568
v -6.489244 3.982994 4.839646
v -5.860189 3.500000 3.907033
v -5.827723 3.558061 3.858899
v -5.812055 3.558061 3.939501
v -5.837232 3.517006 3.872997
v -5.813653 3.524539 3.897988
v -5.803196 3.558061 3.895955
v -5.826153 3.517006 3.929991
v -5.812055 3.941940 3.939501
v -5.827723 3.941940 3.858899
v -5.860189 4.000000 3.907033
v -5.803196 3.941940 3.895955
v -5.813653 3.975461 3.897988
v -5.837232 3.982994 3.872997
v -5.826153 3.982994 3.929991
v 4.384973 3.902308 -3.537628
v 4.328439 3.902308 -3.670812
v 4.423298 3.800000 -3.632486
v 4.329123 3.902308 -3.592512
v 4.346404 3.843241 -3.599848
v 4.356222 3.829965 -3.659587
v 4.396198 3.829965 -3.565413
v 4.384973 4.097692 -3.537628
v 4.423298 4.200000 -3.632486
v 4.328439 4.097692 -3.670812
v 4.396198 4.170035 -3.565413
v 4.346404 4.156760 -3.599848
v 4.356222 4.170035 -3.659587
v 4.329123 4.097692 -3.592512
v 4.646332 3.800000 -4.184517
v 4.551474 3.902308 -4.222842
v 4.684658 3.902308 -4.279375
v 4.579257 3.829965 -4.211617
v 4.613693 3.843240 -4.261411
v 4.606357 3.902308 -4.278692
v 4.673432 3.829965 -4.251593
v 4.551474 4.097692 -4.222842
v 4.646332 4.200000 -4.184517
v 4.684658 4.097692 -4.279375
v 4.579257 4.170035 -4.211617
v 4.613693 4.156760 -4.261411
v 4.673432 4.170035 -4.251593
v 4.606357 4.097692 -4.278692
v 4.604455 3.800000 -3.559295
v 4.699313 3.902308 -3.520969
v 4.566129 3.902308 -3.464436
v 4.671530 3.829965 -3.532194
v 4.637094 3.843241 -3.482401
v 4.644430 3.902308 -3.465120
v 4.577355 3.829965 -3.492220
v 4.566129 4.097692 -3.464436
v 4.699313 4.097692 -3.520969
v 4.604455 4.200000 -3.559295
v 4.644430 4.097692 -3.465120
v 4.637094 4.156760 -3.482401
v 4.671530 4.170035 -3.532194
v 4.577355 4.170035 -3.492220
v 4.827489 3.800000 -4.111324
v 4.865815 3.902308 -4.206183
v 4.922348 3.902308 -4.073000
v 4.854589 3.829965 -4.178400
v 4.904384 3.843240 -4.143965
v 4.921665 3.902308 -4.151299
v 4.894565 3.829965 -4.084225
v 4.922348 4.097692 -4.073000
v 4.865815 4.097692 -4.206183
v 4.827489 4.200000 -4.111324
v 4.921665 4.097692 -4.151299
v 4.904384 4.156760 -4.143965
v 4.854589 4.170035 -4.178400
v 4.894565 4.170035 -4.084225
v 3.793068 1.102308 -4.208187
v 3.736535 1.102308 -4.341371
v 3.831393 1.000000 -4.303045
v 3.737218 1.102308 -4.263070
v 3.754499 1.043241 -4.270406
v 3.764318 1.029965 -4.330145
v 3.804293 1.029965 -4.235970
v 3.793068 1.697692 -4.208187
v 3.831393 1.800000 -4.303045
v 3.736535 1.697692 -4.341371
v 3.804293 1.770035 -4.235970
v 3.754499 1.756760 -4.270406
v 3.764318 1.770035 -4.330145
v 3.737218 1.697692 -4.263070
v 4.503956 1.000000 -5.967696
v 4.409098 1.102308 -6.006021
v 4.542281 1.102308 -6.062554
v 4.436881 1.029965 -5.994797
v 4.471316 1.043240 -6.044589
v 4.463981 1.102308 -6.061872
v 4.531056 1.029965 -6.034771
v 4.409098 1.697692 -6.006021
v 4.503956 1.800000 -5.967696
v 4.542281 1.697692 -6.062554
v 4.436881 1.770035 -5.994797
v 4.471316 1.756759 -6.044589
v 4.531056 1.770035 -6.034771
v 4.463981 1.697692 -6.061872
v 5.496044 1.000000 -3.630483
v 5.590902 1.102308 -3.592157
v 5.457719 1.102308 -3.535625
v 5.563119 1.029965 -3.603382
v 5.528684 1.043241 -3.553588
v 5.536019 1.102308 -3.536307
v 5.468944 1.029965 -3.563407
v 5.457719 1.697692 -3.535625
v 5.590902 1.697692 -3.592157
v 5.496044 1.800000 -3.630483
v 5.536019 1.697692 -3.536307
v 5.528684 1.756760 -3.553589
v 5.563119 1.770035 -3.603382
v 5.468944 1.770035 -3.563407
v 6.168607 1.000000 -5.295134
v 6.206932 1.102308 -5.389992
v 6.263465 1.102308 -5.256808
v 6.195707 1.029965 -5.362208
v 6.245501 1.043240 -5.327772
v 6.262782 1.102308 -5.335109
v 6.235682 1.029965 -5.268033
v 6.263465 1.697692 -5.256808
v 6.206932 1.697692 -5.389992
v 6.168607 1.800000 -5.295134
v 6.262782 1.697692 -5.335109
v 6.245501 1.756759 -5.327772
v 6.195707 1.770035 -5.362209
v 6.235682 1.770035 -5.268033
v 4.053426 3.302308 -4.318703
v 3.996893 3.302308 -4.451886
v 4.091751 3.200000 -4.413561
v 3.997576 3.302308 -4.373586
v 4.014857 3.243241 -4.380921
v 4.024676 3.229965 -4.440660
v 4.064651 3.229965 -4.346485
v 4.053426 4.697692 -4.318703
v 4.091751 4.800000 -4.413561
v 3.996893 4.697692 -4.451886
v 4.064651 4.770035 -4.346485
v 4.014857 4.756760 -4.380922
v 4.024676 4.770035 -4.440661
v 3.997576 4.697692 -4.373586
v 4.614471 3.200000 -5.707338
v 4.519613 3.302308 -5.745664
v 4.652797 3.302308 -5.802197
v 4.547396 3.229965 -5.734438
v 4.581831 3.243240 -5.784232
v 4.574496 3.302308 -5.801514
v 4.641572 3.229965 -5.774413
v 4.519613 4.697692 -5.745664
v 4.614471 4.800000 -5.707338
v 4.652797 4.697692 -5.802197
v 4.547396 4.770035 -5.734439
v 4.581831 4.756760 -5.784232
v 4.641572 4.770035 -5.774414
v 4.574496 4.697692 -5.801514
v 5.385529 3.200000 -3.890841
v 5.480387 3.302308 -3.852515
v 5.347203 3.302308 -3.795982
v 5.452604 3.229965 -3.863741
v 5.418169 3.243241 -3.813947
v 5.425504 3.302308 -3.796665
v 5.358428 3.229965 -3.823766
v 5.347204 4.697692 -3.795982
v 5.480387 4.697692 -3.852515
v 5.385529 4.800000 -3.890841
v 5.425504 4.697692 -3.796665
v 5.418169 4.756760 -3.813948
v 5.452604 4.770035 -3.863741
v 5.358428 4.770035 -3.823766
v 5.908249 3.200000 -5.184618
v 5.946574 3.302308 -5.279476
v 6.003107 3.302308 -5.146293
v 5.935349 3.229965 -5.251694
v 5.985143 3.243240 -5.217257
v 6.002424 3.302308 -5.224593
v 5.975324 3.229965 -5.157518
v 6.003107 4.697692 -5.146293
v 5.946574 4.697692 -5.279476
v 5.908249 4.800000 -5.184618
v 6.002424 4.697692 -5.224593
v 5.985143 4.756760 -5.217257
v 5.935349 4.770035 -5.251694
v 5.975324 4.770035 -5.157518
v 4.574142 1.502308 -4.539733
v 4.517609 1.502308 -4.672916
v 4.612467 1.400000 -4.634591
v 4.518292 1.502308 -4.594616
v 4.535573 1.443240 -4.601952
v 4.545392 1.429965 -4.661692
v 4.585367 1.429965 -4.567516
v 4.574142 3.297692 -4.539733
v 4.612467 3.400000 -4.634592
v 4.517609 3.297692 -4.672916
v 4.585367 3.370035 -4.567516
v 4.535573 3.356760 -4.601952
v 4.545392 3.370035 -4.661692
v 4.518292 3.297692 -4.594617
v 4.835502 1.400000 -5.186622
v 4.740644 1.502308 -5.224947
v 4.873827 1.502308 -5.281480
v 4.768427 1.429965 -5.213722
v 4.802862 1.443240 -5.263515
v 4.795527 1.502308 -5.280797
v 4.862602 1.429965 -5.253697
v 4.740644 3.297692 -5.224947
v 4.835502 3.400000 -5.186622
v 4.873827 3.297692 -5.281481
v 4.768427 3.370035 -5.213722
v 4.802863 3.356760 -5.263516
v 4.862602 3.370035 -5.253697
v 4.795527 3.297692 -5.280798
v 5.164498 1.400000 -4.411556
v 5.259356 1.502308 -4.373232
v 5.126173 1.502308 -4.316698
v 5.231573 1.429965 -4.384457
v 5.197137 1.443240 -4.334662
v 5.204473 1.502308 -4.317381
v 5.137398 1.429965 -4.344481
v 5.126173 3.297692 -4.316698
v 5.259356 3.297692 -4.373232
v 5.164498 3.400000 -4.411557
v 5.204473 3.297692 -4.317382
v 5.197137 3.356760 -4.334662
v 5.231573 3.370035 -4.384457
v 5.137398 3.370035 -4.344481
v 5.387533 1.400000 -4.963587
v 5.425858 1.502308 -5.058446
v 5.482391 1.502308 -4.925261
v 5.414633 1.429965 -5.030663
v 5.464427 1.443240 -4.996226
v 5.481708 1.502308 -5.003562
v 5.454608 1.429965 -4.936487
v 5.482391 3.297692 -4.925262
v 5.425858 3.297692 -5.058446
v 5.387533 3.400000 -4.963588
v 5.481708 3.297692 -5.003562
v 5.464427 3.356760 -4.996227
v 5.414633 3.370035 -5.030663
v 5.454608 3.370035 -4.936487
v -3.908126 3.902308 -6.819365
v -4.049103 3.902308 -6.786818
v -3.994888 3.800000 -6.873580
v -3.971875 3.902308 -6.773894
v -3.976098 3.843241 -6.792187
v -4.033224 3.829965 -6.812229
v -3.933538 3.829965 -6.835244
v -3.908126 4.097692 -6.819365
v -3.994888 4.200000 -6.873580
v -4.049103 4.097692 -6.786818
v -3.933538 4.170035 -6.835244
v -3.976098 4.156760 -6.792187
v -4.033224 4.170035 -6.812229
v -3.971875 4.097692 -6.773894
v -4.499803 3.800000 -7.189085
v -4.554018 3.902308 -7.102324
v -4.586565 3.902308 -7.243300
v -4.538138 3.829965 -7.127735
v -4.581196 3.843240 -7.170294
v -4.599489 3.902308 -7.166071
v -4.561153 3.829965 -7.227421
v -4.554018 4.097692 -7.102324
v -4.499803 4.200000 -7.189085
v -4.586565 4.097692 -7.243300
v -4.538138 4.170035 -7.127735
v -4.581196 4.156760 -7.170294
v -4.561153 4.170035 -7.227421
v -4.599489 4.097692 -7.166071
v -3.891350 3.800000 -7.039275
v -3.837135 3.902308 -7.126037
v -3.804588 3.902308 -6.985060
v -3.853014 3.829965 -7.100625
v -3.809958 3.843241 -7.058066
v -3.791665 3.902308 -7.062290
v -3.830001 3.829965 -7.000939
v -3.804588 4.097692 -6.985060
v -3.837135 4.097692 -7.126037
v -3.891350 4.200000 -7.039275
v -3.791665 4.097692 -7.062290
v -3.809958 4.156760 -7.058066
v -3.853014 4.170035 -7.100625
v -3.830001 4.170035 -7.000939
v -4.396265 3.800000 -7.354780
v -4.483027 3.902308 -7.408996
v -4.342050 3.902308 -7.441543
v -4.457615 3.829965 -7.393116
v -4.415056 3.843240 -7.436174
v -4.419279 3.902308 -7.454467
v -4.357929 3.829965 -7.416131
v -4.342050 4.097692 -7.441543
v -4.483027 4.097692 -7.408996
v -4.396265 4.200000 -7.354780
v -4.419279 4.097692 -7.454467
v -4.415056 4.156760 -7.436174
v -4.457615 4.170035 -7.393116
v -4.357929 4.170035 -7.416131
v -4.671280 1.102308 -6.352894
v -4.812258 1.102308 -6.320347
v -4.758042 1.000000 -6.407108
v -4.735028 1.102308 -6.307423
v -4.739251 1.043241 -6.325715
v -4.796379 1.029965 -6.345758
v -4.696692 1.029965 -6.368773
v -4.671280 1.697692 -6.352894
v -4.758043 1.800000 -6.407108
v -4.812258 1.697692 -6.320347
v -4.696692 1.770035 -6.368773
v -4.739252 1.756760 -6.325715
v -4.796379 1.770035 -6.345758
v -4.735028 1.697692 -6.307423
v -6.280615 1.000000 -7.358518
v -6.334829 1.102308 -7.271755
v -6.367377 1.102308 -7.412732
v -6.318951 1.029965 -7.297167
v -6.362008 1.043240 -7.339725
v -6.380301 1.102308 -7.335503
v -6.341965 1.029965 -7.396853
v -6.334829 1.697692 -7.271755
v -6.280615 1.800000 -7.358518
v -6.367377 1.697692 -7.412732
v -6.318951 1.770035 -7.297167
v -6.362008 1.756759 -7.339725
v -6.341965 1.770035 -7.396853
v -6.380301 1.697692 -7.335503
v -3.806634 1.000000 -7.929681
v -3.752419 1.102308 -8.016443
v -3.719872 1.102308 -7.875466
v -3.768298 1.029965 -7.991032
v -3.725240 1.043241 -7.948472
v -3.706948 1.102308 -7.952695
v -3.745284 1.029965 -7.891345
v -3.719872 1.697692 -7.875466
v -3.752419 1.697692 -8.016443
v -3.806634 1.800000 -7.929681
v -3.706948 1.697692 -7.952695
v -3.725240 1.756760 -7.948472
v -3.768298 1.770035 -7.991032
v -3.745284 1.770035 -7.891345
v -5.329206 1.000000 -8.881089
v -5.415968 1.102308 -8.935305
v -5.274991 1.102308 -8.967852
v -5.390556 1.029965 -8.919426
v -5.347996 1.043240 -8.962482
v -5.352221 1.102308 -8.980776
v -5.290870 1.029965 -8.942440
v -5.274991 1.697692 -8.967852
v -5.415968 1.697692 -8.935305
v -5.329206 1.800000 -8.881089
v -5.352221 1.697692 -8.980776
v -5.347996 1.756759 -8.962482
v -5.390556 1.770035 -8.919426
v -5.290870 1.770035 -8.942440
v -4.734906 3.302308 -6.628488
v -4.875884 3.302308 -6.595941
v -4.821669 3.200000 -6.682702
v -4.798654 3.302308 -6.583016
v -4.802877 3.243241 -6.601309
v -4.860004 3.229965 -6.621352
v -4.760318 3.229965 -6.644366
v -4.734907 4.697692 -6.628488
v -4.821669 4.800000 -6.682703
v -4.875884 4.697692 -6.595941
v -4.760318 4.770035 -6.644366
v -4.802878 4.756760 -6.601309
v -4.860004 4.770035 -6.621352
v -4.798654 4.697692 -6.583016
v -6.005021 3.200000 -7.422143
v -6.059236 3.302308 -7.335382
v -6.091784 3.302308 -7.476358
v -6.043357 3.229965 -7.360793
v -6.086415 3.243240 -7.403352
v -6.104708 3.302308 -7.399129
v -6.066371 3.229965 -7.460480
v -6.059237 4.697692 -7.335382
v -6.005021 4.800000 -7.422143
v -6.091784 4.697692 -7.476358
v -6.043357 4.770035 -7.360793
v -6.086415 4.756760 -7.403352
v -6.066372 4.770035 -7.460480
v -6.104708 4.697692 -7.399129
v -4.082228 3.200000 -7.866055
v -4.028013 3.302308 -7.952817
v -3.995466 3.302308 -7.811840
v -4.043892 3.229965 -7.927405
v -4.000834 3.243241 -7.884847
v -3.982541 3.302308 -7.889070
v -4.020877 3.229965 -7.827719
v -3.995466 4.697692 -7.811840
v -4.028013 4.697692 -7.952817
v -4.082228 4.800000 -7.866055
v -3.982541 4.697692 -7.889070
v -4.000834 4.756760 -7.884847
v -4.043892 4.770035 -7.927405
v -4.020877 4.770035 -7.827720
v -5.265580 3.200000 -8.605496
v -5.352343 3.302308 -8.659711
v -5.211365 3.302308 -8.692258
v -5.326931 3.229965 -8.643832
v -5.284371 3.243240 -8.686890
v -5.288595 3.302308 -8.705182
v -5.227244 3.229965 -8.666846
v -5.211366 4.697692 -8.692258
v -5.352343 4.697692 -8.659711
v -5.265581 4.800000 -8.605496
v -5.288595 4.697692 -8.705182
v -5.284372 4.756760 -8.686890
v -5.326931 4.770035 -8.643832
v -5.227244 4.770035 -8.666846
v -4.862158 1.502308 -7.179674
v -5.003135 1.502308 -7.147127
v -4.948920 1.400000 -7.233890
v -4.925906 1.502308 -7.134203
v -4.930129 1.443240 -7.152495
v -4.987256 1.429965 -7.172539
v -4.887569 1.429965 -7.195554
v -4.862158 3.297692 -7.179674
v -4.948920 3.400000 -7.233890
v -5.003135 3.297692 -7.147127
v -4.887570 3.370035 -7.195554
v -4.930129 3.356760 -7.152495
v -4.987256 3.370035 -7.172539
v -4.925906 3.297692 -7.134203
v -5.453834 1.400000 -7.549395
v -5.508049 1.502308 -7.462633
v -5.540596 1.502308 -7.603610
v -5.492170 1.429965 -7.488045
v -5.535227 1.443240 -7.530603
v -5.553520 1.502308 -7.526381
v -5.515184 1.429965 -7.587730
v -5.508049 3.297692 -7.462633
v -5.453835 3.400000 -7.549395
v -5.540596 3.297692 -7.603610
v -5.492170 3.370035 -7.488045
v -5.535228 3.356760 -7.530603
v -5.515184 3.370035 -7.587730
v -5.553521 3.297692 -7.526381
v -4.633414 1.400000 -7.738804
v -4.579199 1.502308 -7.825565
v -4.546652 1.502308 -7.684588
v -4.595078 1.429965 -7.800154
v -4.552021 1.443240 -7.757595
v -4.533728 1.502308 -7.761818
v -4.572064 1.429965 -7.700468
v -4.546652 3.297692 -7.684588
v -4.579200 3.297692 -7.825565
v -4.633415 3.400000 -7.738804
v -4.533728 3.297692 -7.761818
v -4.552021 3.356760 -7.757595
v -4.595078 3.370035 -7.800154
v -4.572064 3.370035 -7.700468
v -5.138329 1.400000 -8.054309
v -5.225091 1.502308 -8.108524
v -5.084114 1.502308 -8.141071
v -5.199679 1.429965 -8.092645
v -5.157119 1.443240 -8.135702
v -5.161343 1.502308 -8.153996
v -5.099993 1.429965 -8.115660
v -5.084114 3.297692 -8.141071
v -5.225091 3.297692 -8.108524
v -5.138329 3.400000 -8.054309
v -5.161343 3.297692 -8.153996
v -5.157120 3.356760 -8.135703
v -5.199679 3.370035 -8.092645
v -5.099993 3.370035 -8.115660
vn -1.0000 -0.0000 -0.0000
vn -0.0000 -0.0000 -1.0000
vn 1.0000 -0.0000 -0.0000
vn -0.0000 -0.0000 1.0000
vn -0.0000 -1.0000 -0.0000
vn -0.0000 1.0000 -0.0000
vn -0.5592 -0.0000 0.8290
vn -0.8290 -0.0000 -0.5592
vn 0.8290 -0.0000 0.5592
vn 0.5592 -0.0000 -0.8290
vn -0.6935 -0.2576 0.6728
vn -0.7805 -0.6036 0.1628
vn -0.5190 -0.6716 0.5288
vn -0.8994 -0.2551 -0.3551
vn -0.9637 -0.1502 0.2208
vn -0.3685 -0.9272 0.0670
vn -0.6612 -0.6939 -0.2851
vn -0.6935 0.2576 0.6728
vn -0.7805 0.6036 0.1628
vn -0.9637 0.1502 0.2208
vn -0.3685 0.9272 0.0670
vn -0.5190 0.6716 0.5288
vn -0.8994 0.2551 -0.3551
vn -0.6612 0.6939 -0.2851
vn -0.0587 -0.9487 -0.3107
vn -0.1311 -0.4780 -0.8685
vn 0.2835 -0.6433 -0.7112
vn -0.6226 -0.2244 -0.7497
vn -0.5000 -0.6760 -0.5414
vn 0.2884 -0.2103 -0.9341
vn -0.1294 -0.1310 -0.9829
vn -0.6226 0.2244 -0.7497
vn -0.1311 0.4780 -0.8685
vn -0.1294 0.1310 -0.9829
vn -0.0587 0.9487 -0.3107
vn -0.5000 0.6760 -0.5414
vn 0.2884 0.2103 -0.9341
vn 0.2835 0.6433 -0.7112
vn 0.0587 -0.9487 0.3107
vn 0.1311 -0.4780 0.8685
vn -0.2835 -0.6432 0.7113
vn 0.6226 -0.2244 0.7497
vn 0.5000 -0.6760 0.5414
vn -0.2884 -0.2103 0.9341
vn 0.1294 -0.1310 0.9829
vn -0.2884 0.2103 0.9341
vn 0.1311 0.4780 0.8685
vn -0.2835 0.6432 0.7113
vn 0.6226 0.2244 0.7497
vn 0.1294 0.1310 0.9829
vn 0.0587 0.9487 0.3107
vn 0.5000 0.6760 0.5414
vn 0.3685 -0.9272 -0.0670
vn 0.7805 -0.6036 -0.1628
vn 0.6612 -0.6939 0.2851
vn 0.6935 -0.2576 -0.6728
vn 0.5190 -0.6716 -0.5288
vn 0.8994 -0.2551 0.3550
vn 0.9637 -0.1502 -0.2207
vn 0.8994 0.2551 0.3551
vn 0.7805 0.6036 -0.1628
vn 0.6612 0.6939 0.2851
vn 0.6935 0.2576 -0.6728
vn 0.9637 0.1502 -0.2207
vn 0.3685 0.9272 -0.0670
vn 0.5190 0.6716 -0.5288
vn -0.8994 -0.2551 -0.3550
vn -0.8994 0.2551 -0.3550
vn 0.2835 -0.6433 -0.7113
vn 0.2835 0.6432 -0.7113
vn 0.9637 -0.1502 -0.2208
vn 0.8994 0.2551 0.3550
vn 0.9637 0.1502 -0.2208
vn -0.9637 -0.1502 0.2207
vn 0.2835 -0.6432 -0.7113
vn -0.9637 0.1502 0.2207
vn -0.2835 -0.6433 0.7113
vn -0.2835 0.6433 0.7113
vn 0.2835 0.6433 -0.7113
vn 0.8994 -0.2551 0.3551
vn 0.3746 -0.0000 -0.9272
vn -0.3746 -0.0000 0.9272
vn 0.9272 -0.0000 0.3746
vn -0.9272 -0.0000 -0.3746
vn -0.5410 -0.2546 0.8016
vn -0.7314 -0.5934 0.3360
vn -0.4071 -0.6519 0.6398
vn -0.9560 -0.2516 -0.1507
vn -0.8820 -0.1495 0.4468
vn -0.3403 -0.9303 0.1370
vn -0.7019 -0.6992 -0.1358
vn -0.5410 0.2546 0.8016
vn -0.7314 0.5934 0.3360
vn -0.8820 0.1495 0.4468
vn -0.3403 0.9303 0.1370
vn -0.4071 0.6519 0.6398
vn -0.9560 0.2516 -0.1507
vn -0.7019 0.6992 -0.1358
vn -0.1233 -0.9470 -0.2966
vn -0.2816 -0.4960 -0.8214
vn 0.1421 -0.6229 -0.7693
vn -0.7700 -0.2320 -0.5944
vn -0.5924 -0.6874 -0.4202
vn 0.0957 -0.2092 -0.9732
vn -0.2874 -0.1355 -0.9482
vn -0.7700 0.2320 -0.5944
vn -0.2816 0.4960 -0.8214
vn -0.2874 0.1355 -0.9482
vn -0.1233 0.9470 -0.2966
vn -0.5924 0.6874 -0.4202
vn 0.0957 0.2092 -0.9732
vn 0.1421 0.6229 -0.7693
vn 0.1233 -0.9470 0.2966
vn 0.2816 -0.4960 0.8214
vn -0.1421 -0.6229 0.7693
vn 0.7700 -0.2320 0.5944
vn 0.5923 -0.6874 0.4202
vn -0.0957 -0.2092 0.9732
vn 0.2875 -0.1355 0.9482
vn -0.0957 0.2092 0.9732
vn 0.2816 0.4960 0.8214
vn -0.1421 0.6229 0.7693
vn 0.7700 0.2320 0.5944
vn 0.2875 0.1355 0.9482
vn 0.1233 0.9470 0.2966
vn 0.5924 0.6874 0.4202
vn 0.3403 -0.9303 -0.1370
vn 0.7314 -0.5934 -0.3360
vn 0.7019 -0.6992 0.1358
vn 0.5410 -0.2546 -0.8016
vn 0.4071 -0.6519 -0.6398
vn 0.9560 -0.2516 0.1507
vn 0.8820 -0.1495 -0.4468
vn 0.9560 0.2516 0.1507
vn 0.7314 0.5934 -0.3360
vn 0.7019 0.6992 0.1358
vn 0.5410 0.2546 -0.8016
vn 0.8821 0.1495 -0.4468
vn 0.3403 0.9303 -0.1370
vn 0.4071 0.6519 -0.6398
vn -0.8820 -0.1496 0.4468
vn -0.5923 0.6874 -0.4202
vn 0.5924 -0.6874 0.4202
vn 0.2874 -0.1355 0.9482
vn 0.2874 0.1355 0.9482
vn 0.5923 0.6874 0.4202
vn 0.8820 -0.1496 -0.4468
vn 0.8820 0.1496 -0.4468
vn -0.8820 0.1496 0.4468
vn 0.8820 0.1495 -0.4468
vn -0.8480 -0.0000 -0.5299
vn 0.8480 -0.0000 0.5299
vn 0.5299 -0.0000 -0.8480
vn -0.5299 -0.0000 0.8480
vn 0.6494 -0.2258 0.7262
vn 0.1555 -0.4801 0.8633
vn 0.5167 -0.6782 0.5225
vn -0.2561 -0.2095 0.9437
vn 0.1542 -0.1315 0.9793
vn 0.0694 -0.9485 0.3090
vn -0.2610 -0.6397 0.7229
vn 0.6494 0.2258 0.7262
vn 0.1555 0.4801 0.8633
vn 0.1542 0.1315 0.9793
vn 0.0694 0.9485 0.3090
vn 0.5167 0.6782 0.5225
vn -0.2561 0.2095 0.9437
vn -0.2610 0.6397 0.7229
vn -0.3652 -0.9276 0.0790
vn -0.7747 -0.6024 0.1921
vn -0.6699 -0.6951 -0.2609
vn -0.6696 -0.2574 0.6967
vn -0.5020 -0.6687 0.5485
vn -0.9118 -0.2545 -0.3221
vn -0.9539 -0.1501 0.2599
vn -0.6696 0.2574 0.6967
vn -0.7747 0.6024 0.1921
vn -0.9539 0.1501 0.2599
vn -0.3652 0.9276 0.0790
vn -0.5020 0.6687 0.5485
vn -0.9118 0.2545 -0.3221
vn -0.6699 0.6951 -0.2609
vn 0.3652 -0.9276 -0.0790
vn 0.7747 -0.6024 -0.1921
vn 0.6699 -0.6951 0.2609
vn 0.6696 -0.2574 -0.6967
vn 0.5020 -0.6687 -0.5485
vn 0.9118 -0.2546 0.3221
vn 0.9539 -0.1501 -0.2599
vn 0.9118 0.2546 0.3221
vn 0.7747 0.6024 -0.1921
vn 0.6699 0.6951 0.2609
vn 0.6696 0.2574 -0.6967
vn 0.9539 0.1501 -0.2599
vn 0.3652 0.9276 -0.0790
vn 0.5020 0.6687 -0.5485
vn -0.0694 -0.9485 -0.3090
vn -0.1555 -0.4801 -0.8633
vn 0.2610 -0.6397 -0.7229
vn -0.6494 -0.2258 -0.7262
vn -0.5167 -0.6782 -0.5225
vn 0.2561 -0.2095 -0.9437
vn -0.1542 -0.1315 -0.9793
vn 0.2561 0.2095 -0.9437
vn -0.1555 0.4801 -0.8633
vn 0.2610 0.6397 -0.7229
vn -0.6494 0.2258 -0.7262
vn -0.1542 0.1315 -0.9793
vn -0.0694 0.9485 -0.3090
vn -0.5167 0.6782 -0.5225
vn -0.5020 -0.6686 0.5485
vn -0.9118 -0.2546 -0.3221
vn 0.9118 0.2545 0.3221
vn -0.5020 0.6686 0.5485
vn -0.9118 0.2546 -0.3221
vn 0.5020 -0.6686 -0.5485
vt 0.157136 0.062861
vt 0.112395 0.107603
vt 0.112395 0.062861
vt 0.157136 0.107603
vt 0.112395 0.152344
vt 0.157136 0.152344
vt 0.112395 0.197085
vt 0.157136 0.197085
vt 0.112395 0.241826
vt 0.067654 0.197085
vt 0.067654 0.152344
vt 0.201878 0.152344
vt 0.157814 0.913217
vt 0.093099 0.977932
vt 0.093099 0.913217
vt 0.157814 0.848502
vt 0.093099 0.848502
vt 0.028384 0.977932
vt 0.028384 0.913217
vt 0.028384 0.848502
vt 0.093099 0.783787
vt 0.028384 0.783787
vt 0.878430 0.742137
vt 0.824694 0.795873
vt 0.824694 0.742137
vt 0.878430 0.795873
vt 0.824694 0.849609
vt 0.878430 0.849609
vt 0.824694 0.903345
vt 0.878430 0.903345
vt 0.824694 0.957081
vt 0.770958 0.903345
vt 0.770958 0.849609
vt 0.932167 0.849609
vt 0.525066 0.747394
vt 0.474934 0.797525
vt 0.474934 0.747394
vt 0.525066 0.797525
vt 0.474934 0.847656
vt 0.525066 0.847656
vt 0.474934 0.897787
vt 0.525066 0.897787
vt 0.474934 0.947919
vt 0.424803 0.897787
vt 0.424803 0.847656
vt 0.575197 0.847656
vt 0.000000 0.000000
vt 0.157136 0.241826
vt 0.201878 0.197085
vt 0.157814 0.977932
vt 0.157814 0.783787
vt 0.878430 0.957081
vt 0.932167 0.903345
vt 0.525066 0.947919
vt 0.575197 0.897787
s 0
usemtl マテリアル
f 2/1/1 3/2/1 1/3/1
f 4/4/2 7/5/2 3/2/2
f 8/6/3 5/7/3 7/5/3
f 6/8/4 1/9/4 5/7/4
f 7/5/5 1/10/5 3/11/5
f 4/12/6 6/8/6 8/6/6
f 10/13/1 11/14/1 9/15/1
f 12/16/2 15/15/2 11/17/2
f 16/15/3 13/18/3 15/19/3
f 14/17/4 9/19/4 13/20/4
f 15/21/5 9/16/5 11/17/5
f 12/22/6 14/17/6 16/20/6
f 18/23/1 19/24/1 17/25/1
f 20/26/2 23/27/2 19/24/2
f 24/28/3 21/29/3 23/27/3
f 22/30/4 17/31/4 21/29/4
f 23/27/5 17/32/5 19/33/5
f 20/34/6 22/30/6 24/28/6
f 26/35/1 27/36/1 25/37/1
f 28/38/2 31/39/2 27/36/2
f 32/40/3 29/41/3 31/39/3
f 30/42/4 25/43/4 29/41/4
f 31/39/5 25/44/5 27/45/5
f 28/46/6 30/42/6 32/40/6
s 1
f 320/47/7 343/47/7 348/47/7
f 229/47/5 215/47/5 243/47/5
f 208/47/7 231/47/7 236/47/7
f 222/47/8 202/47/8 210/47/8
f 209/47/6 252/47/6 223/47/6
f 96/47/7 119/47/7 124/47/7
f 97/47/6 140/47/6 111/47/6
f 152/47/7 175/47/7 180/47/7
f 110/47/8 90/47/8 98/47/8
f 61/47/5 47/47/5 75/47/5
f 69/47/9 77/47/9 82/47/9
f 173/47/5 159/47/5 187/47/5
f 41/47/6 84/47/6 55/47/6
f 237/47/9 245/47/9 250/47/9
f 166/47/8 146/47/8 154/47/8
f 341/47/5 327/47/5 355/47/5
f 265/47/6 308/47/6 279/47/6
f 125/47/9 133/47/9 138/47/9
f 195/47/10 161/47/10 168/47/10
f 334/47/8 314/47/8 322/47/8
f 117/47/5 103/47/5 131/47/5
f 83/47/10 49/47/10 56/47/10
f 181/47/9 189/47/9 194/47/9
f 278/47/8 258/47/8 266/47/8
f 251/47/10 217/47/10 224/47/10
f 139/47/10 105/47/10 112/47/10
f 293/47/9 301/47/9 306/47/9
f 285/47/5 271/47/5 299/47/5
f 321/47/6 364/47/6 335/47/6
f 153/47/6 196/47/6 167/47/6
f 264/47/7 287/47/7 292/47/7
f 349/47/9 357/47/9 362/47/9
f 307/47/10 273/47/10 280/47/10
f 54/47/8 34/47/8 42/47/8
f 363/47/10 329/47/10 336/47/10
f 33/47/11 37/47/12 39/47/13
f 34/47/14 37/47/12 36/47/15
f 35/47/16 37/47/12 38/47/17
f 40/47/18 44/47/19 46/47/20
f 41/47/21 44/47/19 43/47/22
f 42/47/23 44/47/19 45/47/24
f 47/47/25 51/47/26 53/47/27
f 48/47/28 51/47/26 50/47/29
f 49/47/30 51/47/26 52/47/31
f 54/47/32 58/47/33 60/47/34
f 55/47/35 58/47/33 57/47/36
f 56/47/37 58/47/33 59/47/38
f 61/47/39 65/47/40 67/47/41
f 62/47/42 65/47/40 64/47/43
f 63/47/44 65/47/40 66/47/45
f 68/47/46 72/47/47 74/47/48
f 69/47/49 72/47/47 71/47/50
f 70/47/51 72/47/47 73/47/52
f 75/47/53 79/47/54 81/47/55
f 76/47/56 79/47/54 78/47/57
f 77/47/58 79/47/54 80/47/59
f 82/47/60 86/47/61 88/47/62
f 83/47/63 86/47/61 85/47/64
f 84/47/65 86/47/61 87/47/66
f 89/47/11 93/47/12 95/47/13
f 90/47/67 93/47/12 92/47/15
f 91/47/16 93/47/12 94/47/17
f 96/47/18 100/47/19 102/47/20
f 97/47/21 100/47/19 99/47/22
f 98/47/68 100/47/19 101/47/24
f 103/47/25 107/47/26 109/47/69
f 104/47/28 107/47/26 106/47/29
f 105/47/30 107/47/26 108/47/31
f 110/47/32 114/47/33 116/47/34
f 111/47/35 114/47/33 113/47/36
f 112/47/37 114/47/33 115/47/70
f 117/47/39 121/47/40 123/47/41
f 118/47/42 121/47/40 120/47/43
f 119/47/44 121/47/40 122/47/45
f 124/47/46 128/47/47 130/47/48
f 125/47/49 128/47/47 127/47/50
f 126/47/51 128/47/47 129/47/52
f 131/47/53 135/47/54 137/47/55
f 132/47/56 135/47/54 134/47/57
f 133/47/58 135/47/54 136/47/71
f 138/47/72 142/47/61 144/47/62
f 139/47/63 142/47/61 141/47/73
f 140/47/65 142/47/61 143/47/66
f 145/47/11 149/47/12 151/47/13
f 146/47/67 149/47/12 148/47/74
f 147/47/16 149/47/12 150/47/17
f 152/47/18 156/47/19 158/47/20
f 153/47/21 156/47/19 155/47/22
f 154/47/23 156/47/19 157/47/24
f 159/47/25 163/47/26 165/47/75
f 160/47/28 163/47/26 162/47/29
f 161/47/30 163/47/26 164/47/31
f 166/47/32 170/47/33 172/47/34
f 167/47/35 170/47/33 169/47/36
f 168/47/37 170/47/33 171/47/38
f 173/47/39 177/47/40 179/47/41
f 174/47/42 177/47/40 176/47/43
f 175/47/44 177/47/40 178/47/45
f 180/47/46 184/47/47 186/47/48
f 181/47/49 184/47/47 183/47/50
f 182/47/51 184/47/47 185/47/52
f 187/47/53 191/47/54 193/47/55
f 188/47/56 191/47/54 190/47/57
f 189/47/58 191/47/54 192/47/71
f 194/47/72 198/47/61 200/47/62
f 195/47/63 198/47/61 197/47/64
f 196/47/65 198/47/61 199/47/66
f 201/47/11 205/47/12 207/47/13
f 202/47/14 205/47/12 204/47/74
f 203/47/16 205/47/12 206/47/17
f 208/47/18 212/47/19 214/47/76
f 209/47/21 212/47/19 211/47/22
f 210/47/68 212/47/19 213/47/24
f 215/47/25 219/47/26 221/47/75
f 216/47/28 219/47/26 218/47/29
f 217/47/30 219/47/26 220/47/31
f 222/47/32 226/47/33 228/47/34
f 223/47/35 226/47/33 225/47/36
f 224/47/37 226/47/33 227/47/70
f 229/47/39 233/47/40 235/47/77
f 230/47/42 233/47/40 232/47/43
f 231/47/44 233/47/40 234/47/45
f 236/47/46 240/47/47 242/47/48
f 237/47/49 240/47/47 239/47/50
f 238/47/51 240/47/47 241/47/52
f 243/47/53 247/47/54 249/47/55
f 244/47/56 247/47/54 246/47/57
f 245/47/58 247/47/54 248/47/71
f 250/47/60 254/47/61 256/47/62
f 251/47/63 254/47/61 253/47/64
f 252/47/65 254/47/61 255/47/66
f 257/47/11 261/47/12 263/47/13
f 258/47/67 261/47/12 260/47/74
f 259/47/16 261/47/12 262/47/17
f 264/47/18 268/47/19 270/47/76
f 265/47/21 268/47/19 267/47/22
f 266/47/68 268/47/19 269/47/24
f 271/47/25 275/47/26 277/47/75
f 272/47/28 275/47/26 274/47/29
f 273/47/30 275/47/26 276/47/31
f 278/47/32 282/47/33 284/47/34
f 279/47/35 282/47/33 281/47/36
f 280/47/37 282/47/33 283/47/70
f 285/47/39 289/47/40 291/47/77
f 286/47/42 289/47/40 288/47/43
f 287/47/44 289/47/40 290/47/45
f 292/47/46 296/47/47 298/47/78
f 293/47/49 296/47/47 295/47/50
f 294/47/51 296/47/47 297/47/52
f 299/47/53 303/47/54 305/47/55
f 300/47/56 303/47/54 302/47/57
f 301/47/58 303/47/54 304/47/71
f 306/47/72 310/47/61 312/47/62
f 307/47/63 310/47/61 309/47/73
f 308/47/65 310/47/61 311/47/66
f 313/47/11 317/47/12 319/47/13
f 314/47/14 317/47/12 316/47/15
f 315/47/16 317/47/12 318/47/17
f 320/47/18 324/47/19 326/47/20
f 321/47/21 324/47/19 323/47/22
f 322/47/68 324/47/19 325/47/24
f 327/47/25 331/47/26 333/47/75
f 328/47/28 331/47/26 330/47/29
f 329/47/30 331/47/26 332/47/31
f 334/47/32 338/47/33 340/47/34
f 335/47/35 338/47/33 337/47/36
f 336/47/37 338/47/33 339/47/79
f 341/47/39 345/47/40 347/47/41
f 342/47/42 345/47/40 344/47/43
f 343/47/44 345/47/40 346/47/45
f 348/47/46 352/47/47 354/47/48
f 349/47/49 352/47/47 351/47/50
f 350/47/51 352/47/47 353/47/52
f 355/47/53 359/47/54 361/47/55
f 356/47/56 359/47/54 358/47/57
f 357/47/80 359/47/54 360/47/71
f 362/47/72 366/47/61 368/47/62
f 363/47/63 366/47/61 365/47/73
f 364/47/65 366/47/61 367/47/66
f 40/47/18 36/47/15 33/47/11
f 46/47/20 34/47/14 36/47/15
f 34/47/14 50/47/29 38/47/17
f 50/47/29 35/47/16 38/47/17
f 54/47/32 52/47/31 48/47/28
f 60/47/34 49/47/30 52/47/31
f 76/47/56 53/47/27 49/47/30
f 78/47/57 47/47/25 53/47/27
f 83/47/63 80/47/59 76/47/56
f 85/47/64 77/47/58 80/47/59
f 61/47/39 81/47/55 64/47/43
f 81/47/55 62/47/42 64/47/43
f 69/47/49 66/47/45 62/47/42
f 71/47/50 63/47/44 66/47/45
f 61/47/39 39/47/13 35/47/16
f 67/47/41 33/47/11 39/47/13
f 84/47/65 59/47/38 55/47/35
f 87/47/66 56/47/37 59/47/38
f 69/47/49 88/47/62 73/47/52
f 88/47/62 70/47/51 73/47/52
f 89/47/11 102/47/20 92/47/15
f 102/47/20 90/47/67 92/47/15
f 104/47/28 94/47/17 90/47/67
f 106/47/29 91/47/16 94/47/17
f 110/47/32 108/47/31 104/47/28
f 116/47/34 105/47/30 108/47/31
f 132/47/56 109/47/69 105/47/30
f 134/47/57 103/47/25 109/47/69
f 139/47/63 136/47/71 132/47/56
f 141/47/73 133/47/58 136/47/71
f 131/47/53 120/47/43 117/47/39
f 137/47/55 118/47/42 120/47/43
f 125/47/49 122/47/45 118/47/42
f 127/47/50 119/47/44 122/47/45
f 117/47/39 95/47/13 91/47/16
f 123/47/41 89/47/11 95/47/13
f 140/47/65 115/47/70 111/47/35
f 143/47/66 112/47/37 115/47/70
f 138/47/72 129/47/52 125/47/49
f 144/47/62 126/47/51 129/47/52
f 152/47/18 148/47/74 145/47/11
f 158/47/20 146/47/67 148/47/74
f 160/47/28 150/47/17 146/47/67
f 162/47/29 147/47/16 150/47/17
f 166/47/32 164/47/31 160/47/28
f 172/47/34 161/47/30 164/47/31
f 188/47/56 165/47/75 161/47/30
f 190/47/57 159/47/25 165/47/75
f 195/47/63 192/47/71 188/47/56
f 197/47/64 189/47/58 192/47/71
f 187/47/53 176/47/43 173/47/39
f 193/47/55 174/47/42 176/47/43
f 181/47/49 178/47/45 174/47/42
f 183/47/50 175/47/44 178/47/45
f 173/47/39 151/47/13 147/47/16
f 179/47/41 145/47/11 151/47/13
f 196/47/65 171/47/38 167/47/35
f 199/47/66 168/47/37 171/47/38
f 194/47/72 185/47/52 181/47/49
f 200/47/62 182/47/51 185/47/52
f 208/47/18 204/47/74 201/47/11
f 214/47/76 202/47/14 204/47/74
f 216/47/28 206/47/17 202/47/14
f 218/47/29 203/47/16 206/47/17
f 222/47/32 220/47/31 216/47/28
f 228/47/34 217/47/30 220/47/31
f 244/47/56 221/47/75 217/47/30
f 246/47/57 215/47/25 221/47/75
f 251/47/63 248/47/71 244/47/56
f 248/47/71 250/47/60 245/47/58
f 243/47/53 232/47/43 229/47/39
f 249/47/55 230/47/42 232/47/43
f 237/47/49 234/47/45 230/47/42
f 234/47/45 236/47/46 231/47/44
f 229/47/39 207/47/13 203/47/16
f 235/47/77 201/47/11 207/47/13
f 252/47/65 227/47/70 223/47/35
f 227/47/70 251/47/63 224/47/37
f 250/47/60 241/47/52 237/47/49
f 256/47/62 238/47/51 241/47/52
f 264/47/18 260/47/74 257/47/11
f 270/47/76 258/47/67 260/47/74
f 272/47/28 262/47/17 258/47/67
f 274/47/29 259/47/16 262/47/17
f 278/47/32 276/47/31 272/47/28
f 284/47/34 273/47/30 276/47/31
f 300/47/56 277/47/75 273/47/30
f 302/47/57 271/47/25 277/47/75
f 307/47/63 304/47/71 300/47/56
f 304/47/71 306/47/72 301/47/58
f 299/47/53 288/47/43 285/47/39
f 305/47/55 286/47/42 288/47/43
f 293/47/49 290/47/45 286/47/42
f 290/47/45 292/47/46 287/47/44
f 285/47/39 263/47/13 259/47/16
f 291/47/77 257/47/11 263/47/13
f 308/47/65 283/47/70 279/47/35
f 283/47/70 307/47/63 280/47/37
f 306/47/72 297/47/52 293/47/49
f 312/47/62 294/47/51 297/47/52
f 320/47/18 316/47/15 313/47/11
f 326/47/20 314/47/14 316/47/15
f 314/47/14 330/47/29 318/47/17
f 330/47/29 315/47/16 318/47/17
f 334/47/32 332/47/31 328/47/28
f 340/47/34 329/47/30 332/47/31
f 356/47/56 333/47/75 329/47/30
f 358/47/57 327/47/25 333/47/75
f 363/47/63 360/47/71 356/47/56
f 365/47/73 357/47/80 360/47/71
f 341/47/39 361/47/55 344/47/43
f 361/47/55 342/47/42 344/47/43
f 349/47/49 346/47/45 342/47/42
f 351/47/50 343/47/44 346/47/45
f 341/47/39 319/47/13 315/47/16
f 347/47/41 313/47/11 319/47/13
f 364/47/65 339/47/79 335/47/35
f 367/47/66 336/47/37 339/47/79
f 349/47/49 368/47/62 353/47/52
f 368/47/62 350/47/51 353/47/52
f 41/47/21 57/47/36 45/47/24
f 57/47/36 42/47/23 45/47/24
f 68/47/46 43/47/22 40/47/18
f 74/47/48 41/47/21 43/47/22
f 111/47/35 101/47/24 97/47/21
f 113/47/36 98/47/68 101/47/24
f 124/47/46 99/47/22 96/47/18
f 130/47/48 97/47/21 99/47/22
f 167/47/35 157/47/24 153/47/21
f 169/47/36 154/47/23 157/47/24
f 180/47/46 155/47/22 152/47/18
f 186/47/48 153/47/21 155/47/22
f 223/47/35 213/47/24 209/47/21
f 225/47/36 210/47/68 213/47/24
f 236/47/46 211/47/22 208/47/18
f 242/47/48 209/47/21 211/47/22
f 279/47/35 269/47/24 265/47/21
f 281/47/36 266/47/68 269/47/24
f 292/47/46 267/47/22 264/47/18
f 298/47/78 265/47/21 267/47/22
f 321/47/21 337/47/36 325/47/24
f 337/47/36 322/47/68 325/47/24
f 348/47/46 323/47/22 320/47/18
f 354/47/48 321/47/21 323/47/22
f 40/47/7 63/47/7 68/47/7
f 320/47/7 313/47/7 343/47/7
f 229/47/5 203/47/5 215/47/5
f 208/47/7 201/47/7 231/47/7
f 222/47/8 216/47/8 202/47/8
f 209/47/6 238/47/6 252/47/6
f 96/47/7 89/47/7 119/47/7
f 97/47/6 126/47/6 140/47/6
f 152/47/7 145/47/7 175/47/7
f 110/47/8 104/47/8 90/47/8
f 61/47/5 35/47/5 47/47/5
f 69/47/9 62/47/9 77/47/9
f 173/47/5 147/47/5 159/47/5
f 41/47/6 70/47/6 84/47/6
f 237/47/9 230/47/9 245/47/9
f 166/47/8 160/47/8 146/47/8
f 341/47/5 315/47/5 327/47/5
f 265/47/6 294/47/6 308/47/6
f 125/47/9 118/47/9 133/47/9
f 195/47/10 188/47/10 161/47/10
f 334/47/8 328/47/8 314/47/8
f 117/47/5 91/47/5 103/47/5
f 83/47/10 76/47/10 49/47/10
f 181/47/9 174/47/9 189/47/9
f 278/47/8 272/47/8 258/47/8
f 251/47/10 244/47/10 217/47/10
f 139/47/10 132/47/10 105/47/10
f 293/47/9 286/47/9 301/47/9
f 285/47/5 259/47/5 271/47/5
f 321/47/6 350/47/6 364/47/6
f 153/47/6 182/47/6 196/47/6
f 264/47/7 257/47/7 287/47/7
f 349/47/9 342/47/9 357/47/9
f 307/47/10 300/47/10 273/47/10
f 54/47/8 48/47/8 34/47/8
f 363/47/10 356/47/10 329/47/10
f 33/47/11 36/47/15 37/47/12
f 34/47/14 38/47/17 37/47/12
f 35/47/16 39/47/13 37/47/12
f 40/47/18 43/47/22 44/47/19
f 41/47/21 45/47/24 44/47/19
f 42/47/23 46/47/20 44/47/19
f 47/47/25 50/47/29 51/47/26
f 48/47/28 52/47/31 51/47/26
f 49/47/30 53/47/27 51/47/26
f 54/47/32 57/47/36 58/47/33
f 55/47/35 59/47/38 58/47/33
f 56/47/37 60/47/34 58/47/33
f 61/47/39 64/47/43 65/47/40
f 62/47/42 66/47/45 65/47/40
f 63/47/44 67/47/41 65/47/40
f 68/47/46 71/47/50 72/47/47
f 69/47/49 73/47/52 72/47/47
f 70/47/51 74/47/48 72/47/47
f 75/47/53 78/47/57 79/47/54
f 76/47/56 80/47/59 79/47/54
f 77/47/58 81/47/55 79/47/54
f 82/47/60 85/47/64 86/47/61
f 83/47/63 87/47/66 86/47/61
f 84/47/65 88/47/62 86/47/61
f 89/47/11 92/47/15 93/47/12
f 90/47/67 94/47/17 93/47/12
f 91/47/16 95/47/13 93/47/12
f 96/47/18 99/47/22 100/47/19
f 97/47/21 101/47/24 100/47/19
f 98/47/68 102/47/20 100/47/19
f 103/47/25 106/47/29 107/47/26
f 104/47/28 108/47/31 107/47/26
f 105/47/30 109/47/69 107/47/26
f 110/47/32 113/47/36 114/47/33
f 111/47/35 115/47/70 114/47/33
f 112/47/37 116/47/34 114/47/33
f 117/47/39 120/47/43 121/47/40
f 118/47/42 122/47/45 121/47/40
f 119/47/44 123/47/41 121/47/40
f 124/47/46 127/47/50 128/47/47
f 125/47/49 129/47/52 128/47/47
f 126/47/51 130/47/48 128/47/47
f 131/47/53 134/47/57 135/47/54
f 132/47/56 136/47/71 135/47/54
f 133/47/58 137/47/55 135/47/54
f 138/47/72 141/47/73 142/47/61
f 139/47/63 143/47/66 142/47/61
f 140/47/65 144/47/62 142/47/61
f 145/47/11 148/47/74 149/47/12
f 146/47/67 150/47/17 149/47/12
f 147/47/16 151/47/13 149/47/12
f 152/47/18 155/47/22 156/47/19
f 153/47/21 157/47/24 156/47/19
f 154/47/23 158/47/20 156/47/19
f 159/47/25 162/47/29 163/47/26
f 160/47/28 164/47/31 163/47/26
f 161/47/30 165/47/75 163/47/26
f 166/47/32 169/47/36 170/47/33
f 167/47/35 171/47/38 170/47/33
f 168/47/37 172/47/34 170/47/33
f 173/47/39 176/47/43 177/47/40
f 174/47/42 178/47/45 177/47/40
f 175/47/44 179/47/41 177/47/40
f 180/47/46 183/47/50 184/47/47
f 181/47/49 185/47/52 184/47/47
f 182/47/51 186/47/48 184/47/47
f 187/47/53 190/47/57 191/47/54
f 188/47/56 192/47/71 191/47/54
f 189/47/58 193/47/55 191/47/54
f 194/47/72 197/47/64 198/47/61
f 195/47/63 199/47/66 198/47/61
f 196/47/65 200/47/62 198/47/61
f 201/47/11 204/47/74 205/47/12
f 202/47/14 206/47/17 205/47/12
f 203/47/16 207/47/13 205/47/12
f 208/47/18 211/47/22 212/47/19
f 209/47/21 213/47/24 212/47/19
f 210/47/68 214/47/76 212/47/19
f 215/47/25 218/47/29 219/47/26
f 216/47/28 220/47/31 219/47/26
f 217/47/30 221/47/75 219/47/26
f 222/47/32 225/47/36 226/47/33
f 223/47/35 227/47/70 226/47/33
f 224/47/37 228/47/34 226/47/33
f 229/47/39 232/47/43 233/47/40
f 230/47/42 234/47/45 233/47/40
f 231/47/44 235/47/77 233/47/40
f 236/47/46 239/47/50 240/47/47
f 237/47/49 241/47/52 240/47/47
f 238/47/51 242/47/48 240/47/47
f 243/47/53 246/47/57 247/47/54
f 244/47/56 248/47/71 247/47/54
f 245/47/58 249/47/55 247/47/54
f 250/47/60 253/47/64 254/47/61
f 251/47/63 255/47/66 254/47/61
f 252/47/65 256/47/62 254/47/61
f 257/47/11 260/47/74 261/47/12
f 258/47/67 262/47/17 261/47/12
f 259/47/16 263/47/13 261/47/12
f 264/47/18 267/47/22 268/47/19
f 265/47/21 269/47/24 268/47/19
f 266/47/68 270/47/76 268/47/19
f 271/47/25 274/47/29 275/47/26
f 272/47/28 276/47/31 275/47/26
f 273/47/30 277/47/75 275/47/26
f 278/47/32 281/47/36 282/47/33
f 279/47/35 283/47/70 282/47/33
f 280/47/37 284/47/34 282/47/33
f 285/47/39 288/47/43 289/47/40
f 286/47/42 290/47/45 289/47/40
f 287/47/44 291/47/77 289/47/40
f 292/47/46 295/47/50 296/47/47
f 293/47/49 297/47/52 296/47/47
f 294/47/51 298/47/78 296/47/47
f 299/47/53 302/47/57 303/47/54
f 300/47/56 304/47/71 303/47/54
f 301/47/58 305/47/55 303/47/54
f 306/47/72 309/47/73 310/47/61
f 307/47/63 311/47/66 310/47/61
f 308/47/65 312/47/62 310/47/61
f 313/47/11 316/47/15 317/47/12
f 314/47/14 318/47/17 317/47/12
f 315/47/16 319/47/13 317/47/12
f 320/47/18 323/47/22 324/47/19
f 321/47/21 325/47/24 324/47/19
f 322/47/68 326/47/20 324/47/19
f 327/47/25 330/47/29 331/47/26
f 328/47/28 332/47/31 331/47/26
f 329/47/30 333/47/75 331/47/26
f 334/47/32 337/47/36 338/47/33
f 335/47/35 339/47/79 338/47/33
f 336/47/37 340/47/34 338/47/33
f 341/47/39 344/47/43 345/47/40
f 342/47/42 346/47/45 345/47/40
f 343/47/44 347/47/41 345/47/40
f 348/47/46 351/47/50 352/47/47
f 349/47/49 353/47/52 352/47/47
f 350/47/51 354/47/48 352/47/47
f 355/47/53 358/47/57 359/47/54
f 356/47/56 360/47/71 359/47/54
f 357/47/80 361/47/55 359/47/54
f 362/47/72 365/47/73 366/47/61
f 363/47/63 367/47/66 366/47/61
f 364/47/65 368/47/62 366/47/61
f 40/47/18 46/47/20 36/47/15
f 46/47/20 42/47/23 34/47/14
f 34/47/14 48/47/28 50/47/29
f 50/47/29 47/47/25 35/47/16
f 54/47/32 60/47/34 52/47/31
f 60/47/34 56/47/37 49/47/30
f 76/47/56 78/47/57 53/47/27
f 78/47/57 75/47/53 47/47/25
f 83/47/63 85/47/64 80/47/59
f 85/47/64 82/47/60 77/47/58
f 61/47/39 75/47/53 81/47/55
f 81/47/55 77/47/58 62/47/42
f 69/47/49 71/47/50 66/47/45
f 71/47/50 68/47/46 63/47/44
f 61/47/39 67/47/41 39/47/13
f 67/47/41 63/47/44 33/47/11
f 84/47/65 87/47/66 59/47/38
f 87/47/66 83/47/63 56/47/37
f 69/47/49 82/47/60 88/47/62
f 88/47/62 84/47/65 70/47/51
f 89/47/11 96/47/18 102/47/20
f 102/47/20 98/47/68 90/47/67
f 104/47/28 106/47/29 94/47/17
f 106/47/29 103/47/25 91/47/16
f 110/47/32 116/47/34 108/47/31
f 116/47/34 112/47/37 105/47/30
f 132/47/56 134/47/57 109/47/69
f 134/47/57 131/47/53 103/47/25
f 139/47/63 141/47/73 136/47/71
f 141/47/73 138/47/72 133/47/58
f 131/47/53 137/47/55 120/47/43
f 137/47/55 133/47/58 118/47/42
f 125/47/49 127/47/50 122/47/45
f 127/47/50 124/47/46 119/47/44
f 117/47/39 123/47/41 95/47/13
f 123/47/41 119/47/44 89/47/11
f 140/47/65 143/47/66 115/47/70
f 143/47/66 139/47/63 112/47/37
f 138/47/72 144/47/62 129/47/52
f 144/47/62 140/47/65 126/47/51
f 152/47/18 158/47/20 148/47/74
f 158/47/20 154/47/23 146/47/67
f 160/47/28 162/47/29 150/47/17
f 162/47/29 159/47/25 147/47/16
f 166/47/32 172/47/34 164/47/31
f 172/47/34 168/47/37 161/47/30
f 188/47/56 190/47/57 165/47/75
f 190/47/57 187/47/53 159/47/25
f 195/47/63 197/47/64 192/47/71
f 197/47/64 194/47/72 189/47/58
f 187/47/53 193/47/55 176/47/43
f 193/47/55 189/47/58 174/47/42
f 181/47/49 183/47/50 178/47/45
f 183/47/50 180/47/46 175/47/44
f 173/47/39 179/47/41 151/47/13
f 179/47/41 175/47/44 145/47/11
f 196/47/65 199/47/66 171/47/38
f 199/47/66 195/47/63 168/47/37
f 194/47/72 200/47/62 185/47/52
f 200/47/62 196/47/65 182/47/51
f 208/47/18 214/47/76 204/47/74
f 214/47/76 210/47/68 202/47/14
f 216/47/28 218/47/29 206/47/17
f 218/47/29 215/47/25 203/47/16
f 222/47/32 228/47/34 220/47/31
f 228/47/34 224/47/37 217/47/30
f 244/47/56 246/47/57 221/47/75
f 246/47/57 243/47/53 215/47/25
f 251/47/63 253/47/64 248/47/71
f 248/47/71 253/47/64 250/47/60
f 243/47/53 249/47/55 232/47/43
f 249/47/55 245/47/58 230/47/42
f 237/47/49 239/47/50 234/47/45
f 234/47/45 239/47/50 236/47/46
f 229/47/39 235/47/77 207/47/13
f 235/47/77 231/47/44 201/47/11
f 252/47/65 255/47/66 227/47/70
f 227/47/70 255/47/66 251/47/63
f 250/47/60 256/47/62 241/47/52
f 256/47/62 252/47/65 238/47/51
f 264/47/18 270/47/76 260/47/74
f 270/47/76 266/47/68 258/47/67
f 272/47/28 274/47/29 262/47/17
f 274/47/29 271/47/25 259/47/16
f 278/47/32 284/47/34 276/47/31
f 284/47/34 280/47/37 273/47/30
f 300/47/56 302/47/57 277/47/75
f 302/47/57 299/47/53 271/47/25
f 307/47/63 309/47/73 304/47/71
f 304/47/71 309/47/73 306/47/72
f 299/47/53 305/47/55 288/47/43
f 305/47/55 301/47/58 286/47/42
f 293/47/49 295/47/50 290/47/45
f 290/47/45 295/47/50 292/47/46
f 285/47/39 291/47/77 263/47/13
f 291/47/77 287/47/44 257/47/11
f 308/47/65 311/47/66 283/47/70
f 283/47/70 311/47/66 307/47/63
f 306/47/72 312/47/62 297/47/52
f 312/47/62 308/47/65 294/47/51
f 320/47/18 326/47/20 316/47/15
f 326/47/20 322/47/68 314/47/14
f 314/47/14 328/47/28 330/47/29
f 330/47/29 327/47/25 315/47/16
f 334/47/32 340/47/34 332/47/31
f 340/47/34 336/47/37 329/47/30
f 356/47/56 358/47/57 333/47/75
f 358/47/57 355/47/53 327/47/25
f 363/47/63 365/47/73 360/47/71
f 365/47/73 362/47/72 357/47/80
f 341/47/39 355/47/53 361/47/55
f 361/47/55 357/47/80 342/47/42
f 349/47/49 351/47/50 346/47/45
f 351/47/50 348/47/46 343/47/44
f 341/47/39 347/47/41 319/47/13
f 347/47/41 343/47/44 313/47/11
f 364/47/65 367/47/66 339/47/79
f 367/47/66 363/47/63 336/47/37
f 349/47/49 362/47/72 368/47/62
f 368/47/62 364/47/65 350/47/51
f 41/47/21 55/47/35 57/47/36
f 57/47/36 54/47/32 42/47/23
f 68/47/46 74/47/48 43/47/22
f 74/47/48 70/47/51 41/47/21
f 111/47/35 113/47/36 101/47/24
f 113/47/36 110/47/32 98/47/68
f 124/47/46 130/47/48 99/47/22
f 130/47/48 126/47/51 97/47/21
f 167/47/35 169/47/36 157/47/24
f 169/47/36 166/47/32 154/47/23
f 180/47/46 186/47/48 155/47/22
f 186/47/48 182/47/51 153/47/21
f 223/47/35 225/47/36 213/47/24
f 225/47/36 222/47/32 210/47/68
f 236/47/46 242/47/48 211/47/22
f 242/47/48 238/47/51 209/47/21
f 279/47/35 281/47/36 269/47/24
f 281/47/36 278/47/32 266/47/68
f 292/47/46 298/47/78 267/47/22
f 298/47/78 294/47/51 265/47/21
f 321/47/21 335/47/35 337/47/36
f 337/47/36 334/47/32 322/47/68
f 348/47/46 354/47/48 323/47/22
f 354/47/48 350/47/51 321/47/21
f 40/47/7 33/47/7 63/47/7
f 475/47/81 441/47/81 448/47/81
f 565/47/5 551/47/5 579/47/5
f 544/47/82 567/47/82 572/47/82
f 453/47/5 439/47/5 467/47/5
f 419/47/81 385/47/81 392/47/81
f 433/47/6 476/47/6 447/47/6
f 397/47/5 383/47/5 411/47/5
f 488/47/82 511/47/82 516/47/82
f 432/47/82 455/47/82 460/47/82
f 509/47/5 495/47/5 523/47/5
f 573/47/83 581/47/83 586/47/83
f 377/47/6 420/47/6 391/47/6
f 517/47/83 525/47/83 530/47/83
f 390/47/84 370/47/84 378/47/84
f 446/47/84 426/47/84 434/47/84
f 545/47/6 588/47/6 559/47/6
f 502/47/84 482/47/84 490/47/84
f 461/47/83 469/47/83 474/47/83
f 531/47/81 497/47/81 504/47/81
f 489/47/6 532/47/6 503/47/6
f 558/47/84 538/47/84 546/47/84
f 405/47/83 413/47/83 418/47/83
f 587/47/81 553/47/81 560/47/81
f 369/47/85 373/47/86 375/47/87
f 370/47/88 373/47/86 372/47/89
f 371/47/90 373/47/86 374/47/91
f 376/47/92 380/47/93 382/47/94
f 377/47/95 380/47/93 379/47/96
f 378/47/97 380/47/93 381/47/98
f 383/47/99 387/47/100 389/47/101
f 384/47/102 387/47/100 386/47/103
f 385/47/104 387/47/100 388/47/105
f 390/47/106 394/47/107 396/47/108
f 391/47/109 394/47/107 393/47/110
f 392/47/111 394/47/107 395/47/112
f 397/47/113 401/47/114 403/47/115
f 398/47/116 401/47/114 400/47/117
f 399/47/118 401/47/114 402/47/119
f 404/47/120 408/47/121 410/47/122
f 405/47/123 408/47/121 407/47/124
f 406/47/125 408/47/121 409/47/126
f 411/47/127 415/47/128 417/47/129
f 412/47/130 415/47/128 414/47/131
f 413/47/132 415/47/128 416/47/133
f 418/47/134 422/47/135 424/47/136
f 419/47/137 422/47/135 421/47/138
f 420/47/139 422/47/135 423/47/140
f 425/47/85 429/47/86 431/47/87
f 426/47/88 429/47/86 428/47/141
f 427/47/90 429/47/86 430/47/91
f 432/47/92 436/47/93 438/47/94
f 433/47/95 436/47/93 435/47/96
f 434/47/97 436/47/93 437/47/98
f 439/47/99 443/47/100 445/47/101
f 440/47/102 443/47/100 442/47/103
f 441/47/104 443/47/100 444/47/105
f 446/47/106 450/47/107 452/47/108
f 447/47/109 450/47/107 449/47/142
f 448/47/111 450/47/107 451/47/112
f 453/47/113 457/47/114 459/47/115
f 454/47/116 457/47/114 456/47/143
f 455/47/118 457/47/114 458/47/144
f 460/47/120 464/47/121 466/47/122
f 461/47/123 464/47/121 463/47/145
f 462/47/125 464/47/121 465/47/146
f 467/47/127 471/47/128 473/47/129
f 468/47/130 471/47/128 470/47/131
f 469/47/132 471/47/128 472/47/147
f 474/47/134 478/47/135 480/47/136
f 475/47/137 478/47/135 477/47/148
f 476/47/139 478/47/135 479/47/140
f 481/47/85 485/47/86 487/47/87
f 482/47/88 485/47/86 484/47/141
f 483/47/90 485/47/86 486/47/91
f 488/47/92 492/47/93 494/47/149
f 489/47/95 492/47/93 491/47/96
f 490/47/97 492/47/93 493/47/98
f 495/47/99 499/47/100 501/47/101
f 496/47/102 499/47/100 498/47/103
f 497/47/104 499/47/100 500/47/105
f 502/47/106 506/47/107 508/47/108
f 503/47/109 506/47/107 505/47/110
f 504/47/111 506/47/107 507/47/112
f 509/47/113 513/47/114 515/47/115
f 510/47/116 513/47/114 512/47/143
f 511/47/118 513/47/114 514/47/144
f 516/47/120 520/47/121 522/47/122
f 517/47/123 520/47/121 519/47/145
f 518/47/125 520/47/121 521/47/146
f 523/47/127 527/47/128 529/47/129
f 524/47/130 527/47/128 526/47/131
f 525/47/132 527/47/128 528/47/133
f 530/47/134 534/47/135 536/47/136
f 531/47/137 534/47/135 533/47/150
f 532/47/139 534/47/135 535/47/140
f 537/47/85 541/47/86 543/47/87
f 538/47/88 541/47/86 540/47/89
f 539/47/90 541/47/86 542/47/91
f 544/47/92 548/47/93 550/47/94
f 545/47/95 548/47/93 547/47/96
f 546/47/97 548/47/93 549/47/98
f 551/47/99 555/47/100 557/47/101
f 552/47/102 555/47/100 554/47/103
f 553/47/104 555/47/100 556/47/105
f 558/47/106 562/47/107 564/47/108
f 559/47/109 562/47/107 561/47/142
f 560/47/111 562/47/107 563/47/112
f 565/47/113 569/47/114 571/47/115
f 566/47/116 569/47/114 568/47/143
f 567/47/118 569/47/114 570/47/144
f 572/47/120 576/47/121 578/47/122
f 573/47/123 576/47/121 575/47/124
f 574/47/125 576/47/121 577/47/146
f 579/47/127 583/47/128 585/47/129
f 580/47/130 583/47/128 582/47/131
f 581/47/132 583/47/128 584/47/133
f 586/47/134 590/47/135 592/47/136
f 587/47/137 590/47/135 589/47/150
f 588/47/139 590/47/135 591/47/140
f 376/47/92 372/47/89 369/47/85
f 382/47/94 370/47/88 372/47/89
f 384/47/102 374/47/91 370/47/88
f 374/47/91 383/47/99 371/47/90
f 390/47/106 388/47/105 384/47/102
f 396/47/108 385/47/104 388/47/105
f 412/47/130 389/47/101 385/47/104
f 414/47/131 383/47/99 389/47/101
f 419/47/137 416/47/133 412/47/130
f 421/47/138 413/47/132 416/47/133
f 411/47/127 400/47/117 397/47/113
f 400/47/117 413/47/132 398/47/116
f 405/47/123 402/47/119 398/47/116
f 407/47/124 399/47/118 402/47/119
f 397/47/113 375/47/87 371/47/90
f 403/47/115 369/47/85 375/47/87
f 420/47/139 395/47/112 391/47/109
f 423/47/140 392/47/111 395/47/112
f 418/47/134 409/47/126 405/47/123
f 409/47/126 420/47/139 406/47/125
f 432/47/92 428/47/141 425/47/85
f 438/47/94 426/47/88 428/47/141
f 440/47/102 430/47/91 426/47/88
f 442/47/103 427/47/90 430/47/91
f 446/47/106 444/47/105 440/47/102
f 452/47/108 441/47/104 444/47/105
f 468/47/130 445/47/101 441/47/104
f 470/47/131 439/47/99 445/47/101
f 475/47/137 472/47/147 468/47/130
f 477/47/148 469/47/132 472/47/147
f 467/47/127 456/47/143 453/47/113
f 473/47/129 454/47/116 456/47/143
f 461/47/123 458/47/144 454/47/116
f 463/47/145 455/47/118 458/47/144
f 453/47/113 431/47/87 427/47/90
f 459/47/115 425/47/85 431/47/87
f 476/47/139 451/47/112 447/47/109
f 479/47/140 448/47/111 451/47/112
f 474/47/134 465/47/146 461/47/123
f 480/47/136 462/47/125 465/47/146
f 488/47/92 484/47/141 481/47/85
f 484/47/141 490/47/97 482/47/88
f 496/47/102 486/47/91 482/47/88
f 498/47/103 483/47/90 486/47/91
f 502/47/106 500/47/105 496/47/102
f 500/47/105 504/47/111 497/47/104
f 524/47/130 501/47/101 497/47/104
f 526/47/131 495/47/99 501/47/101
f 531/47/137 528/47/133 524/47/130
f 528/47/133 530/47/134 525/47/132
f 523/47/127 512/47/143 509/47/113
f 529/47/129 510/47/116 512/47/143
f 517/47/123 514/47/144 510/47/116
f 514/47/144 516/47/120 511/47/118
f 509/47/113 487/47/87 483/47/90
f 515/47/115 481/47/85 487/47/87
f 532/47/139 507/47/112 503/47/109
f 535/47/140 504/47/111 507/47/112
f 530/47/134 521/47/146 517/47/123
f 536/47/136 518/47/125 521/47/146
f 537/47/85 550/47/94 540/47/89
f 550/47/94 538/47/88 540/47/89
f 552/47/102 542/47/91 538/47/88
f 554/47/103 539/47/90 542/47/91
f 552/47/102 564/47/108 556/47/105
f 564/47/108 553/47/104 556/47/105
f 580/47/130 557/47/101 553/47/104
f 582/47/131 551/47/99 557/47/101
f 580/47/130 589/47/150 584/47/133
f 589/47/150 581/47/132 584/47/133
f 579/47/127 568/47/143 565/47/113
f 585/47/129 566/47/116 568/47/143
f 566/47/116 575/47/124 570/47/144
f 575/47/124 567/47/118 570/47/144
f 565/47/113 543/47/87 539/47/90
f 571/47/115 537/47/85 543/47/87
f 588/47/139 563/47/112 559/47/109
f 591/47/140 560/47/111 563/47/112
f 586/47/134 577/47/146 573/47/123
f 592/47/136 574/47/125 577/47/146
f 391/47/109 381/47/98 377/47/95
f 381/47/98 390/47/106 378/47/97
f 404/47/120 379/47/96 376/47/92
f 410/47/122 377/47/95 379/47/96
f 447/47/109 437/47/98 433/47/95
f 449/47/142 434/47/97 437/47/98
f 460/47/120 435/47/96 432/47/92
f 466/47/122 433/47/95 435/47/96
f 503/47/109 493/47/98 489/47/95
f 505/47/110 490/47/97 493/47/98
f 516/47/120 491/47/96 488/47/92
f 522/47/122 489/47/95 491/47/96
f 559/47/109 549/47/98 545/47/95
f 561/47/142 546/47/97 549/47/98
f 572/47/120 547/47/96 544/47/92
f 578/47/122 545/47/95 547/47/96
f 376/47/82 399/47/82 404/47/82
f 475/47/81 468/47/81 441/47/81
f 565/47/5 539/47/5 551/47/5
f 544/47/82 537/47/82 567/47/82
f 453/47/5 427/47/5 439/47/5
f 419/47/81 412/47/81 385/47/81
f 433/47/6 462/47/6 476/47/6
f 397/47/5 371/47/5 383/47/5
f 488/47/82 481/47/82 511/47/82
f 432/47/82 425/47/82 455/47/82
f 509/47/5 483/47/5 495/47/5
f 573/47/83 566/47/83 581/47/83
f 377/47/6 406/47/6 420/47/6
f 517/47/83 510/47/83 525/47/83
f 390/47/84 384/47/84 370/47/84
f 446/47/84 440/47/84 426/47/84
f 545/47/6 574/47/6 588/47/6
f 502/47/84 496/47/84 482/47/84
f 461/47/83 454/47/83 469/47/83
f 531/47/81 524/47/81 497/47/81
f 489/47/6 518/47/6 532/47/6
f 558/47/84 552/47/84 538/47/84
f 405/47/83 398/47/83 413/47/83
f 587/47/81 580/47/81 553/47/81
f 369/47/85 372/47/89 373/47/86
f 370/47/88 374/47/91 373/47/86
f 371/47/90 375/47/87 373/47/86
f 376/47/92 379/47/96 380/47/93
f 377/47/95 381/47/98 380/47/93
f 378/47/97 382/47/94 380/47/93
f 383/47/99 386/47/103 387/47/100
f 384/47/102 388/47/105 387/47/100
f 385/47/104 389/47/101 387/47/100
f 390/47/106 393/47/110 394/47/107
f 391/47/109 395/47/112 394/47/107
f 392/47/111 396/47/108 394/47/107
f 397/47/113 400/47/117 401/47/114
f 398/47/116 402/47/119 401/47/114
f 399/47/118 403/47/115 401/47/114
f 404/47/120 407/47/124 408/47/121
f 405/47/123 409/47/126 408/47/121
f 406/47/125 410/47/122 408/47/121
f 411/47/127 414/47/131 415/47/128
f 412/47/130 416/47/133 415/47/128
f 413/47/132 417/47/129 415/47/128
f 418/47/134 421/47/138 422/47/135
f 419/47/137 423/47/140 422/47/135
f 420/47/139 424/47/136 422/47/135
f 425/47/85 428/47/141 429/47/86
f 426/47/88 430/47/91 429/47/86
f 427/47/90 431/47/87 429/47/86
f 432/47/92 435/47/96 436/47/93
f 433/47/95 437/47/98 436/47/93
f 434/47/97 438/47/94 436/47/93
f 439/47/99 442/47/103 443/47/100
f 440/47/102 444/47/105 443/47/100
f 441/47/104 445/47/101 443/47/100
f 446/47/106 449/47/142 450/47/107
f 447/47/109 451/47/112 450/47/107
f 448/47/111 452/47/108 450/47/107
f 453/47/113 456/47/143 457/47/114
f 454/47/116 458/47/144 457/47/114
f 455/47/118 459/47/115 457/47/114
f 460/47/120 463/47/145 464/47/121
f 461/47/123 465/47/146 464/47/121
f 462/47/125 466/47/122 464/47/121
f 467/47/127 470/47/131 471/47/128
f 468/47/130 472/47/147 471/47/128
f 469/47/132 473/47/129 471/47/128
f 474/47/134 477/47/148 478/47/135
f 475/47/137 479/47/140 478/47/135
f 476/47/139 480/47/136 478/47/135
f 481/47/85 484/47/141 485/47/86
f 482/47/88 486/47/91 485/47/86
f 483/47/90 487/47/87 485/47/86
f 488/47/92 491/47/96 492/47/93
f 489/47/95 493/47/98 492/47/93
f 490/47/97 494/47/149 492/47/93
f 495/47/99 498/47/103 499/47/100
f 496/47/102 500/47/105 499/47/100
f 497/47/104 501/47/101 499/47/100
f 502/47/106 505/47/110 506/47/107
f 503/47/109 507/47/112 506/47/107
f 504/47/111 508/47/108 506/47/107
f 509/47/113 512/47/143 513/47/114
f 510/47/116 514/47/144 513/47/114
f 511/47/118 515/47/115 513/47/114
f 516/47/120 519/47/145 520/47/121
f 517/47/123 521/47/146 520/47/121
f 518/47/125 522/47/122 520/47/121
f 523/47/127 526/47/131 527/47/128
f 524/47/130 528/47/133 527/47/128
f 525/47/132 529/47/129 527/47/128
f 530/47/134 533/47/150 534/47/135
f 531/47/137 535/47/140 534/47/135
f 532/47/139 536/47/136 534/47/135
f 537/47/85 540/47/89 541/47/86
f 538/47/88 542/47/91 541/47/86
f 539/47/90 543/47/87 541/47/86
f 544/47/92 547/47/96 548/47/93
f 545/47/95 549/47/98 548/47/93
f 546/47/97 550/47/94 548/47/93
f 551/47/99 554/47/103 555/47/100
f 552/47/102 556/47/105 555/47/100
f 553/47/104 557/47/101 555/47/100
f 558/47/106 561/47/142 562/47/107
f 559/47/109 563/47/112 562/47/107
f 560/47/111 564/47/108 562/47/107
f 565/47/113 568/47/143 569/47/114
f 566/47/116 570/47/144 569/47/114
f 567/47/118 571/47/115 569/47/114
f 572/47/120 575/47/124 576/47/121
f 573/47/123 577/47/146 576/47/121
f 574/47/125 578/47/122 576/47/121
f 579/47/127 582/47/131 583/47/128
f 580/47/130 584/47/133 583/47/128
f 581/47/132 585/47/129 583/47/128
f 586/47/134 589/47/150 590/47/135
f 587/47/137 591/47/140 590/47/135
f 588/47/139 592/47/136 590/47/135
f 376/47/92 382/47/94 372/47/89
f 382/47/94 378/47/97 370/47/88
f 384/47/102 386/47/103 374/47/91
f 374/47/91 386/47/103 383/47/99
f 390/47/106 396/47/108 388/47/105
f 396/47/108 392/47/111 385/47/104
f 412/47/130 414/47/131 389/47/101
f 414/47/131 411/47/127 383/47/99
f 419/47/137 421/47/138 416/47/133
f 421/47/138 418/47/134 413/47/132
f 411/47/127 417/47/129 400/47/117
f 400/47/117 417/47/129 413/47/132
f 405/47/123 407/47/124 402/47/119
f 407/47/124 404/47/120 399/47/118
f 397/47/113 403/47/115 375/47/87
f 403/47/115 399/47/118 369/47/85
f 420/47/139 423/47/140 395/47/112
f 423/47/140 419/47/137 392/47/111
f 418/47/134 424/47/136 409/47/126
f 409/47/126 424/47/136 420/47/139
f 432/47/92 438/47/94 428/47/141
f 438/47/94 434/47/97 426/47/88
f 440/47/102 442/47/103 430/47/91
f 442/47/103 439/47/99 427/47/90
f 446/47/106 452/47/108 444/47/105
f 452/47/108 448/47/111 441/47/104
f 468/47/130 470/47/131 445/47/101
f 470/47/131 467/47/127 439/47/99
f 475/47/137 477/47/148 472/47/147
f 477/47/148 474/47/134 469/47/132
f 467/47/127 473/47/129 456/47/143
f 473/47/129 469/47/132 454/47/116
f 461/47/123 463/47/145 458/47/144
f 463/47/145 460/47/120 455/47/118
f 453/47/113 459/47/115 431/47/87
f 459/47/115 455/47/118 425/47/85
f 476/47/139 479/47/140 451/47/112
f 479/47/140 475/47/137 448/47/111
f 474/47/134 480/47/136 465/47/146
f 480/47/136 476/47/139 462/47/125
f 488/47/92 494/47/149 484/47/141
f 484/47/141 494/47/149 490/47/97
f 496/47/102 498/47/103 486/47/91
f 498/47/103 495/47/99 483/47/90
f 502/47/106 508/47/108 500/47/105
f 500/47/105 508/47/108 504/47/111
f 524/47/130 526/47/131 501/47/101
f 526/47/131 523/47/127 495/47/99
f 531/47/137 533/47/150 528/47/133
f 528/47/133 533/47/150 530/47/134
f 523/47/127 529/47/129 512/47/143
f 529/47/129 525/47/132 510/47/116
f 517/47/123 519/47/145 514/47/144
f 514/47/144 519/47/145 516/47/120
f 509/47/113 515/47/115 487/47/87
f 515/47/115 511/47/118 481/47/85
f 532/47/139 535/47/140 507/47/112
f 535/47/140 531/47/137 504/47/111
f 530/47/134 536/47/136 521/47/146
f 536/47/136 532/47/139 518/47/125
f 537/47/85 544/47/92 550/47/94
f 550/47/94 546/47/97 538/47/88
f 552/47/102 554/47/103 542/47/91
f 554/47/103 551/47/99 539/47/90
f 552/47/102 558/47/106 564/47/108
f 564/47/108 560/47/111 553/47/104
f 580/47/130 582/47/131 557/47/101
f 582/47/131 579/47/127 551/47/99
f 580/47/130 587/47/137 589/47/150
f 589/47/150 586/47/134 581/47/132
f 579/47/127 585/47/129 568/47/143
f 585/47/129 581/47/132 566/47/116
f 566/47/116 573/47/123 575/47/124
f 575/47/124 572/47/120 567/47/118
f 565/47/113 571/47/115 543/47/87
f 571/47/115 567/47/118 537/47/85
f 588/47/139 591/47/140 563/47/112
f 591/47/140 587/47/137 560/47/111
f 586/47/134 592/47/136 577/47/146
f 592/47/136 588/47/139 574/47/125
f 391/47/109 393/47/110 381/47/98
f 381/47/98 393/47/110 390/47/106
f 404/47/120 410/47/122 379/47/96
f 410/47/122 406/47/125 377/47/95
f 447/47/109 449/47/142 437/47/98
f 449/47/142 446/47/106 434/47/97
f 460/47/120 466/47/122 435/47/96
f 466/47/122 462/47/125 433/47/95
f 503/47/109 505/47/110 493/47/98
f 505/47/110 502/47/106 490/47/97
f 516/47/120 522/47/122 491/47/96
f 522/47/122 518/47/125 489/47/95
f 559/47/109 561/47/142 549/47/98
f 561/47/142 558/47/106 546/47/97
f 572/47/120 578/47/122 547/47/96
f 578/47/122 574/47/125 545/47/95
f 376/47/82 369/47/82 399/47/82
f 699/47/151 665/47/151 672/47/151
f 789/47/5 775/47/5 803/47/5
f 768/47/152 791/47/152 796/47/152
f 677/47/5 663/47/5 691/47/5
f 643/47/151 609/47/151 616/47/151
f 657/47/6 700/47/6 671/47/6
f 621/47/5 607/47/5 635/47/5
f 712/47/152 735/47/152 740/47/152
f 656/47/152 679/47/152 684/47/152
f 733/47/5 719/47/5 747/47/5
f 797/47/153 805/47/153 810/47/153
f 601/47/6 644/47/6 615/47/6
f 741/47/153 749/47/153 754/47/153
f 614/47/154 594/47/154 602/47/154
f 670/47/154 650/47/154 658/47/154
f 769/47/6 812/47/6 783/47/6
f 726/47/154 706/47/154 714/47/154
f 685/47/153 693/47/153 698/47/153
f 755/47/151 721/47/151 728/47/151
f 713/47/6 756/47/6 727/47/6
f 782/47/154 762/47/154 770/47/154
f 629/47/153 637/47/153 642/47/153
f 811/47/151 777/47/151 784/47/151
f 593/47/155 597/47/156 599/47/157
f 594/47/158 597/47/156 596/47/159
f 595/47/160 597/47/156 598/47/161
f 600/47/162 604/47/163 606/47/164
f 601/47/165 604/47/163 603/47/166
f 602/47/167 604/47/163 605/47/168
f 607/47/169 611/47/170 613/47/171
f 608/47/172 611/47/170 610/47/173
f 609/47/174 611/47/170 612/47/175
f 614/47/176 618/47/177 620/47/178
f 615/47/179 618/47/177 617/47/180
f 616/47/181 618/47/177 619/47/182
f 621/47/183 625/47/184 627/47/185
f 622/47/186 625/47/184 624/47/187
f 623/47/188 625/47/184 626/47/189
f 628/47/190 632/47/191 634/47/192
f 629/47/193 632/47/191 631/47/194
f 630/47/195 632/47/191 633/47/196
f 635/47/197 639/47/198 641/47/199
f 636/47/200 639/47/198 638/47/201
f 637/47/202 639/47/198 640/47/203
f 642/47/204 646/47/205 648/47/206
f 643/47/207 646/47/205 645/47/208
f 644/47/209 646/47/205 647/47/210
f 649/47/155 653/47/156 655/47/157
f 650/47/158 653/47/156 652/47/159
f 651/47/160 653/47/156 654/47/161
f 656/47/162 660/47/163 662/47/164
f 657/47/165 660/47/163 659/47/166
f 658/47/167 660/47/163 661/47/168
f 663/47/169 667/47/170 669/47/171
f 664/47/172 667/47/170 666/47/211
f 665/47/212 667/47/170 668/47/175
f 670/47/176 674/47/177 676/47/178
f 671/47/179 674/47/177 673/47/180
f 672/47/181 674/47/177 675/47/182
f 677/47/183 681/47/184 683/47/185
f 678/47/186 681/47/184 680/47/187
f 679/47/188 681/47/184 682/47/189
f 684/47/213 688/47/191 690/47/192
f 685/47/193 688/47/191 687/47/194
f 686/47/195 688/47/191 689/47/196
f 691/47/197 695/47/198 697/47/199
f 692/47/200 695/47/198 694/47/201
f 693/47/202 695/47/198 696/47/203
f 698/47/204 702/47/205 704/47/206
f 699/47/207 702/47/205 701/47/208
f 700/47/209 702/47/205 703/47/210
f 705/47/155 709/47/156 711/47/157
f 706/47/158 709/47/156 708/47/159
f 707/47/160 709/47/156 710/47/161
f 712/47/162 716/47/163 718/47/164
f 713/47/165 716/47/163 715/47/166
f 714/47/167 716/47/163 717/47/168
f 719/47/169 723/47/170 725/47/171
f 720/47/172 723/47/170 722/47/173
f 721/47/212 723/47/170 724/47/175
f 726/47/176 730/47/177 732/47/178
f 727/47/179 730/47/177 729/47/214
f 728/47/181 730/47/177 731/47/182
f 733/47/183 737/47/184 739/47/185
f 734/47/186 737/47/184 736/47/187
f 735/47/188 737/47/184 738/47/189
f 740/47/213 744/47/191 746/47/192
f 741/47/193 744/47/191 743/47/194
f 742/47/195 744/47/191 745/47/196
f 747/47/197 751/47/198 753/47/199
f 748/47/200 751/47/198 750/47/201
f 749/47/202 751/47/198 752/47/203
f 754/47/204 758/47/205 760/47/206
f 755/47/207 758/47/205 757/47/208
f 756/47/209 758/47/205 759/47/210
f 761/47/155 765/47/156 767/47/157
f 762/47/158 765/47/156 764/47/159
f 763/47/160 765/47/156 766/47/161
f 768/47/162 772/47/163 774/47/164
f 769/47/165 772/47/163 771/47/166
f 770/47/167 772/47/163 773/47/168
f 775/47/169 779/47/170 781/47/171
f 776/47/172 779/47/170 778/47/211
f 777/47/212 779/47/170 780/47/175
f 782/47/176 786/47/177 788/47/178
f 783/47/179 786/47/177 785/47/180
f 784/47/215 786/47/177 787/47/182
f 789/47/183 793/47/184 795/47/185
f 790/47/186 793/47/184 792/47/216
f 791/47/188 793/47/184 794/47/189
f 796/47/190 800/47/191 802/47/192
f 797/47/193 800/47/191 799/47/194
f 798/47/195 800/47/191 801/47/196
f 803/47/197 807/47/198 809/47/199
f 804/47/200 807/47/198 806/47/201
f 805/47/202 807/47/198 808/47/203
f 810/47/204 814/47/205 816/47/206
f 811/47/207 814/47/205 813/47/208
f 812/47/209 814/47/205 815/47/210
f 600/47/162 596/47/159 593/47/155
f 606/47/164 594/47/158 596/47/159
f 608/47/172 598/47/161 594/47/158
f 598/47/161 607/47/169 595/47/160
f 614/47/176 612/47/175 608/47/172
f 620/47/178 609/47/174 612/47/175
f 636/47/200 613/47/171 609/47/174
f 638/47/201 607/47/169 613/47/171
f 643/47/207 640/47/203 636/47/200
f 645/47/208 637/47/202 640/47/203
f 635/47/197 624/47/187 621/47/183
f 624/47/187 637/47/202 622/47/186
f 629/47/193 626/47/189 622/47/186
f 631/47/194 623/47/188 626/47/189
f 621/47/183 599/47/157 595/47/160
f 627/47/185 593/47/155 599/47/157
f 644/47/209 619/47/182 615/47/179
f 647/47/210 616/47/181 619/47/182
f 642/47/204 633/47/196 629/47/193
f 633/47/196 644/47/209 630/47/195
f 656/47/162 652/47/159 649/47/155
f 662/47/164 650/47/158 652/47/159
f 664/47/172 654/47/161 650/47/158
f 666/47/211 651/47/160 654/47/161
f 670/47/176 668/47/175 664/47/172
f 676/47/178 665/47/212 668/47/175
f 692/47/200 669/47/171 665/47/212
f 694/47/201 663/47/169 669/47/171
f 699/47/207 696/47/203 692/47/200
f 701/47/208 693/47/202 696/47/203
f 691/47/197 680/47/187 677/47/183
f 697/47/199 678/47/186 680/47/187
f 685/47/193 682/47/189 678/47/186
f 687/47/194 679/47/188 682/47/189
f 677/47/183 655/47/157 651/47/160
f 683/47/185 649/47/155 655/47/157
f 700/47/209 675/47/182 671/47/179
f 703/47/210 672/47/181 675/47/182
f 698/47/204 689/47/196 685/47/193
f 704/47/206 686/47/195 689/47/196
f 712/47/162 708/47/159 705/47/155
f 708/47/159 714/47/167 706/47/158
f 720/47/172 710/47/161 706/47/158
f 722/47/173 707/47/160 710/47/161
f 726/47/176 724/47/175 720/47/172
f 724/47/175 728/47/181 721/47/212
f 748/47/200 725/47/171 721/47/212
f 750/47/201 719/47/169 725/47/171
f 755/47/207 752/47/203 748/47/200
f 752/47/203 754/47/204 749/47/202
f 747/47/197 736/47/187 733/47/183
f 753/47/199 734/47/186 736/47/187
f 741/47/193 738/47/189 734/47/186
f 738/47/189 740/47/213 735/47/188
f 733/47/183 711/47/157 707/47/160
f 739/47/185 705/47/155 711/47/157
f 756/47/209 731/47/182 727/47/179
f 759/47/210 728/47/181 731/47/182
f 754/47/204 745/47/196 741/47/193
f 760/47/206 742/47/195 745/47/196
f 761/47/155 774/47/164 764/47/159
f 774/47/164 762/47/158 764/47/159
f 776/47/172 766/47/161 762/47/158
f 778/47/211 763/47/160 766/47/161
f 776/47/172 788/47/178 780/47/175
f 788/47/178 777/47/212 780/47/175
f 804/47/200 781/47/171 777/47/212
f 806/47/201 775/47/169 781/47/171
f 804/47/200 813/47/208 808/47/203
f 813/47/208 805/47/202 808/47/203
f 803/47/197 792/47/216 789/47/183
f 809/47/199 790/47/186 792/47/216
f 790/47/186 799/47/194 794/47/189
f 799/47/194 791/47/188 794/47/189
f 789/47/183 767/47/157 763/47/160
f 795/47/185 761/47/155 767/47/157
f 812/47/209 787/47/182 783/47/179
f 815/47/210 784/47/215 787/47/182
f 810/47/204 801/47/196 797/47/193
f 816/47/206 798/47/195 801/47/196
f 615/47/179 605/47/168 601/47/165
f 605/47/168 614/47/176 602/47/167
f 628/47/190 603/47/166 600/47/162
f 634/47/192 601/47/165 603/47/166
f 671/47/179 661/47/168 657/47/165
f 673/47/180 658/47/167 661/47/168
f 684/47/213 659/47/166 656/47/162
f 690/47/192 657/47/165 659/47/166
f 727/47/179 717/47/168 713/47/165
f 729/47/214 714/47/167 717/47/168
f 740/47/213 715/47/166 712/47/162
f 746/47/192 713/47/165 715/47/166
f 783/47/179 773/47/168 769/47/165
f 785/47/180 770/47/167 773/47/168
f 796/47/190 771/47/166 768/47/162
f 802/47/192 769/47/165 771/47/166
f 600/47/152 623/47/152 628/47/152
f 699/47/151 692/47/151 665/47/151
f 789/47/5 763/47/5 775/47/5
f 768/47/152 761/47/152 791/47/152
f 677/47/5 651/47/5 663/47/5
f 643/47/151 636/47/151 609/47/151
f 657/47/6 686/47/6 700/47/6
f 621/47/5 595/47/5 607/47/5
f 712/47/152 705/47/152 735/47/152
f 656/47/152 649/47/152 679/47/152
f 733/47/5 707/47/5 719/47/5
f 797/47/153 790/47/153 805/47/153
f 601/47/6 630/47/6 644/47/6
f 741/47/153 734/47/153 749/47/153
f 614/47/154 608/47/154 594/47/154
f 670/47/154 664/47/154 650/47/154
f 769/47/6 798/47/6 812/47/6
f 726/47/154 720/47/154 706/47/154
f 685/47/153 678/47/153 693/47/153
f 755/47/151 748/47/151 721/47/151
f 713/47/6 742/47/6 756/47/6
f 782/47/154 776/47/154 762/47/154
f 629/47/153 622/47/153 637/47/153
f 811/47/151 804/47/151 777/47/151
f 593/47/155 596/47/159 597/47/156
f 594/47/158 598/47/161 597/47/156
f 595/47/160 599/47/157 597/47/156
f 600/47/162 603/47/166 604/47/163
f 601/47/165 605/47/168 604/47/163
f 602/47/167 606/47/164 604/47/163
f 607/47/169 610/47/173 611/47/170
f 608/47/172 612/47/175 611/47/170
f 609/47/174 613/47/171 611/47/170
f 614/47/176 617/47/180 618/47/177
f 615/47/179 619/47/182 618/47/177
f 616/47/181 620/47/178 618/47/177
f 621/47/183 624/47/187 625/47/184
f 622/47/186 626/47/189 625/47/184
f 623/47/188 627/47/185 625/47/184
f 628/47/190 631/47/194 632/47/191
f 629/47/193 633/47/196 632/47/191
f 630/47/195 634/47/192 632/47/191
f 635/47/197 638/47/201 639/47/198
f 636/47/200 640/47/203 639/47/198
f 637/47/202 641/47/199 639/47/198
f 642/47/204 645/47/208 646/47/205
f 643/47/207 647/47/210 646/47/205
f 644/47/209 648/47/206 646/47/205
f 649/47/155 652/47/159 653/47/156
f 650/47/158 654/47/161 653/47/156
f 651/47/160 655/47/157 653/47/156
f 656/47/162 659/47/166 660/47/163
f 657/47/165 661/47/168 660/47/163
f 658/47/167 662/47/164 660/47/163
f 663/47/169 666/47/211 667/47/170
f 664/47/172 668/47/175 667/47/170
f 665/47/212 669/47/171 667/47/170
f 670/47/176 673/47/180 674/47/177
f 671/47/179 675/47/182 674/47/177
f 672/47/181 676/47/178 674/47/177
f 677/47/183 680/47/187 681/47/184
f 678/47/186 682/47/189 681/47/184
f 679/47/188 683/47/185 681/47/184
f 684/47/213 687/47/194 688/47/191
f 685/47/193 689/47/196 688/47/191
f 686/47/195 690/47/192 688/47/191
f 691/47/197 694/47/201 695/47/198
f 692/47/200 696/47/203 695/47/198
f 693/47/202 697/47/199 695/47/198
f 698/47/204 701/47/208 702/47/205
f 699/47/207 703/47/210 702/47/205
f 700/47/209 704/47/206 702/47/205
f 705/47/155 708/47/159 709/47/156
f 706/47/158 710/47/161 709/47/156
f 707/47/160 711/47/157 709/47/156
f 712/47/162 715/47/166 716/47/163
f 713/47/165 717/47/168 716/47/163
f 714/47/167 718/47/164 716/47/163
f 719/47/169 722/47/173 723/47/170
f 720/47/172 724/47/175 723/47/170
f 721/47/212 725/47/171 723/47/170
f 726/47/176 729/47/214 730/47/177
f 727/47/179 731/47/182 730/47/177
f 728/47/181 732/47/178 730/47/177
f 733/47/183 736/47/187 737/47/184
f 734/47/186 738/47/189 737/47/184
f 735/47/188 739/47/185 737/47/184
f 740/47/213 743/47/194 744/47/191
f 741/47/193 745/47/196 744/47/191
f 742/47/195 746/47/192 744/47/191
f 747/47/197 750/47/201 751/47/198
f 748/47/200 752/47/203 751/47/198
f 749/47/202 753/47/199 751/47/198
f 754/47/204 757/47/208 758/47/205
f 755/47/207 759/47/210 758/47/205
f 756/47/209 760/47/206 758/47/205
f 761/47/155 764/47/159 765/47/156
f 762/47/158 766/47/161 765/47/156
f 763/47/160 767/47/157 765/47/156
f 768/47/162 771/47/166 772/47/163
f 769/47/165 773/47/168 772/47/163
f 770/47/167 774/47/164 772/47/163
f 775/47/169 778/47/211 779/47/170
f 776/47/172 780/47/175 779/47/170
f 777/47/212 781/47/171 779/47/170
f 782/47/176 785/47/180 786/47/177
f 783/47/179 787/47/182 786/47/177
f 784/47/215 788/47/178 786/47/177
f 789/47/183 792/47/216 793/47/184
f 790/47/186 794/47/189 793/47/184
f 791/47/188 795/47/185 793/47/184
f 796/47/190 799/47/194 800/47/191
f 797/47/193 801/47/196 800/47/191
f 798/47/195 802/47/192 800/47/191
f 803/47/197 806/47/201 807/47/198
f 804/47/200 808/47/203 807/47/198
f 805/47/202 809/47/199 807/47/198
f 810/47/204 813/47/208 814/47/205
f 811/47/207 815/47/210 814/47/205
f 812/47/209 816/47/206 814/47/205
f 600/47/162 606/47/164 596/47/159
f 606/47/164 602/47/167 594/47/158
f 608/47/172 610/47/173 598/47/161
f 598/47/161 610/47/173 607/47/169
f 614/47/176 620/47/178 612/47/175
f 620/47/178 616/47/181 609/47/174
f 636/47/200 638/47/201 613/47/171
f 638/47/201 635/47/197 607/47/169
f 643/47/207 645/47/208 640/47/203
f 645/47/208 642/47/204 637/47/202
f 635/47/197 641/47/199 624/47/187
f 624/47/187 641/47/199 637/47/202
f 629/47/193 631/47/194 626/47/189
f 631/47/194 628/47/190 623/47/188
f 621/47/183 627/47/185 599/47/157
f 627/47/185 623/47/188 593/47/155
f 644/47/209 647/47/210 619/47/182
f 647/47/210 643/47/207 616/47/181
f 642/47/204 648/47/206 633/47/196
f 633/47/196 648/47/206 644/47/209
f 656/47/162 662/47/164 652/47/159
f 662/47/164 658/47/167 650/47/158
f 664/47/172 666/47/211 654/47/161
f 666/47/211 663/47/169 651/47/160
f 670/47/176 676/47/178 668/47/175
f 676/47/178 672/47/181 665/47/212
f 692/47/200 694/47/201 669/47/171
f 694/47/201 691/47/197 663/47/169
f 699/47/207 701/47/208 696/47/203
f 701/47/208 698/47/204 693/47/202
f 691/47/197 697/47/199 680/47/187
f 697/47/199 693/47/202 678/47/186
f 685/47/193 687/47/194 682/47/189
f 687/47/194 684/47/213 679/47/188
f 677/47/183 683/47/185 655/47/157
f 683/47/185 679/47/188 649/47/155
f 700/47/209 703/47/210 675/47/182
f 703/47/210 699/47/207 672/47/181
f 698/47/204 704/47/206 689/47/196
f 704/47/206 700/47/209 686/47/195
f 712/47/162 718/47/164 708/47/159
f 708/47/159 718/47/164 714/47/167
f 720/47/172 722/47/173 710/47/161
f 722/47/173 719/47/169 707/47/160
f 726/47/176 732/47/178 724/47/175
f 724/47/175 732/47/178 728/47/181
f 748/47/200 750/47/201 725/47/171
f 750/47/201 747/47/197 719/47/169
f 755/47/207 757/47/208 752/47/203
f 752/47/203 757/47/208 754/47/204
f 747/47/197 753/47/199 736/47/187
f 753/47/199 749/47/202 734/47/186
f 741/47/193 743/47/194 738/47/189
f 738/47/189 743/47/194 740/47/213
f 733/47/183 739/47/185 711/47/157
f 739/47/185 735/47/188 705/47/155
f 756/47/209 759/47/210 731/47/182
f 759/47/210 755/47/207 728/47/181
f 754/47/204 760/47/206 745/47/196
f 760/47/206 756/47/209 742/47/195
f 761/47/155 768/47/162 774/47/164
f 774/47/164 770/47/167 762/47/158
f 776/47/172 778/47/211 766/47/161
f 778/47/211 775/47/169 763/47/160
f 776/47/172 782/47/176 788/47/178
f 788/47/178 784/47/215 777/47/212
f 804/47/200 806/47/201 781/47/171
f 806/47/201 803/47/197 775/47/169
f 804/47/200 811/47/207 813/47/208
f 813/47/208 810/47/204 805/47/202
f 803/47/197 809/47/199 792/47/216
f 809/47/199 805/47/202 790/47/186
f 790/47/186 797/47/193 799/47/194
f 799/47/194 796/47/190 791/47/188
f 789/47/183 795/47/185 767/47/157
f 795/47/185 791/47/188 761/47/155
f 812/47/209 815/47/210 787/47/182
f 815/47/210 811/47/207 784/47/215
f 810/47/204 816/47/206 801/47/196
f 816/47/206 812/47/209 798/47/195
f 615/47/179 617/47/180 605/47/168
f 605/47/168 617/47/180 614/47/176
f 628/47/190 634/47/192 603/47/166
f 634/47/192 630/47/195 601/47/165
f 671/47/179 673/47/180 661/47/168
f 673/47/180 670/47/176 658/47/167
f 684/47/213 690/47/192 659/47/166
f 690/47/192 686/47/195 657/47/165
f 727/47/179 729/47/214 717/47/168
f 729/47/214 726/47/176 714/47/167
f 740/47/213 746/47/192 715/47/166
f 746/47/192 742/47/195 713/47/165
f 783/47/179 785/47/180 773/47/168
f 785/47/180 782/47/176 770/47/167
f 796/47/190 802/47/192 771/47/166
f 802/47/192 798/47/195 769/47/165
f 600/47/152 593/47/152 623/47/152
s 0
f 2/1/1 4/4/1 3/2/1
f 4/4/2 8/6/2 7/5/2
f 8/6/3 6/8/3 5/7/3
f 6/8/4 2/48/4 1/9/4
f 7/5/5 5/7/5 1/10/5
f 4/12/6 2/49/6 6/8/6
f 10/13/1 12/50/1 11/14/1
f 12/16/2 16/13/2 15/15/2
f 16/15/3 14/14/3 13/18/3
f 14/17/4 10/15/4 9/19/4
f 15/21/5 13/51/5 9/16/5
f 12/22/6 10/21/6 14/17/6
f 18/23/1 20/26/1 19/24/1
f 20/26/2 24/28/2 23/27/2
f 24/28/3 22/30/3 21/29/3
f 22/30/4 18/52/4 17/31/4
f 23/27/5 21/29/5 17/32/5
f 20/34/6 18/53/6 22/30/6
f 26/35/1 28/38/1 27/36/1
f 28/38/2 32/40/2 31/39/2
f 32/40/3 30/42/3 29/41/3
f 30/42/4 26/54/4 25/43/4
f 31/39/5 29/41/5 25/44/5
f 28/46/6 26/55/6 30/42/6
