# Blender 3.3.1
# www.blender.org
mtllib bossEnemy.mtl
o 立方体.001
v -0.500000 1.000000 10.000000
v -0.500000 2.000000 10.000000
v -0.500000 1.000000 0.000000
v -0.500000 2.000000 0.000000
v 0.500000 1.000000 10.000000
v 0.500000 2.000000 10.000000
v 0.500000 1.000000 0.000000
v 0.500000 2.000000 0.000000
v -5.000000 -3.000000 5.000000
v -5.000000 3.000000 5.000000
v -5.000000 -3.000000 -5.000000
v -5.000000 3.000000 -5.000000
v 5.000000 -3.000000 5.000000
v 5.000000 3.000000 5.000000
v 5.000000 -3.000000 -5.000000
v 5.000000 3.000000 -5.000000
vn -1.0000 -0.0000 -0.0000
vn -0.0000 -0.0000 -1.0000
vn 1.0000 -0.0000 -0.0000
vn -0.0000 -0.0000 1.0000
vn -0.0000 -1.0000 -0.0000
vn -0.0000 1.0000 -0.0000
vt 0.375000 0.000000
vt 0.375000 1.000000
vt 0.125000 0.750000
vt 0.625000 0.000000
vt 0.625000 1.000000
vt 0.875000 0.750000
vt 0.125000 0.500000
vt 0.375000 0.250000
vt 0.625000 0.250000
vt 0.875000 0.500000
vt 0.375000 0.750000
vt 0.625000 0.750000
vt 0.375000 0.500000
vt 0.625000 0.500000
vt 0.375000 0.000000
vt 0.375000 1.000000
vt 0.125000 0.750000
vt 0.625000 0.000000
vt 0.625000 1.000000
vt 0.875000 0.750000
vt 0.125000 0.500000
vt 0.375000 0.250000
vt 0.625000 0.250000
vt 0.875000 0.500000
vt 0.375000 0.750000
vt 0.625000 0.750000
vt 0.375000 0.500000
vt 0.625000 0.500000
s 0
f 2/4/1 3/8/1 1/1/1
f 4/9/2 7/13/2 3/8/2
f 8/14/3 5/11/3 7/13/3
f 6/12/4 1/2/4 5/11/4
f 7/13/5 1/3/5 3/7/5
f 4/10/6 6/12/6 8/14/6
f 10/18/1 11/22/1 9/15/1
f 12/23/2 15/27/2 11/22/2
f 16/28/3 13/25/3 15/27/3
f 14/26/4 9/16/4 13/25/4
f 15/27/5 9/17/5 11/21/5
f 12/24/6 14/26/6 16/28/6
f 2/4/1 4/9/1 3/8/1
f 4/9/2 8/14/2 7/13/2
f 8/14/3 6/12/3 5/11/3
f 6/12/4 2/5/4 1/2/4
f 7/13/5 5/11/5 1/3/5
f 4/10/6 2/6/6 6/12/6
f 10/18/1 12/23/1 11/22/1
f 12/23/2 16/28/2 15/27/2
f 16/28/3 14/26/3 13/25/3
f 14/26/4 10/19/4 9/16/4
f 15/27/5 13/25/5 9/17/5
f 12/24/6 10/20/6 14/26/6
