{
	"asset":{
		"generator":"Khronos glTF Blender I/O v4.5.48",
		"version":"2.0"
	},
	"scene":0,
	"scenes":[
		{
			"name":"Scene",
			"nodes":[
				26
			]
		}
	],
	"nodes":[
		{
			"name":"mixamorig:HeadTop_End",
			"translation":[
				0,
				53.46039581298828,
				-0.14842571318149567
			]
		},
		{
			"children":[
				0
			],
			"name":"mixamorig:Head",
			"translation":[
				0,
				27.176559448242188,
				-0.07545224577188492
			]
		},
		{
			"children":[
				1
			],
			"name":"mixamorig:Neck",
			"rotation":[
				-0.021235590800642967,
				0,
				0,
				0.9997745156288147
			],
			"translation":[
				0,
				33.22270584106445,
				-3.67872416973114e-07
			]
		},
		{
			"name":"mixamorig:LeftHand",
			"rotation":[
				-3.7717026724060077e-10,
				-4.114099283469841e-09,
				-1.1259543519770432e-08,
				1
			],
			"scale":[
				1,
				1.0000001192092896,
				1
			],
			"translation":[
				1.4510005712509155e-06,
				67.0546875,
				-4.440429620444775e-06
			]
		},
		{
			"children":[
				3
			],
			"name":"mixamorig:LeftForeArm",
			"rotation":[
				0.0015539366286247969,
				-7.617533265147358e-05,
				-0.048970360308885574,
				0.9987990260124207
			],
			"scale":[
				0.9999998807907104,
				1,
				0.9999999403953552
			],
			"translation":[
				-4.231929779052734e-06,
				81.32068634033203,
				2.832384780049324e-07
			]
		},
		{
			"children":[
				4
			],
			"name":"mixamorig:LeftArm",
			"rotation":[
				-0.09959955513477325,
				-0.012225759215652943,
				0.12121833115816116,
				0.9875407218933105
			],
			"scale":[
				0.9999999403953552,
				0.9999998211860657,
				0.9999999403953552
			],
			"translation":[
				-4.76837158203125e-07,
				37.040531158447266,
				-4.038214683532715e-06
			]
		},
		{
			"children":[
				5
			],
			"name":"mixamorig:LeftShoulder",
			"rotation":[
				0.5086678266525269,
				0.47681498527526855,
				-0.5857441425323486,
				0.41328975558280945
			],
			"scale":[
				0.9999999403953552,
				0.9999998211860657,
				1
			],
			"translation":[
				18.234071731567383,
				29.670900344848633,
				-2.5675487518310547
			]
		},
		{
			"name":"mixamorig:RightHand",
			"rotation":[
				1.9235815718054994e-10,
				6.165805643831845e-10,
				9.458744898438454e-11,
				1
			],
			"scale":[
				1,
				1,
				0.9999999403953552
			],
			"translation":[
				1.1138617992401123e-06,
				67.0547103881836,
				-2.4581095203757286e-06
			]
		},
		{
			"children":[
				7
			],
			"name":"mixamorig:RightForeArm",
			"rotation":[
				0.0018018799601122737,
				-1.6125125057442347e-06,
				-0.0009641495998948812,
				0.9999979138374329
			],
			"scale":[
				0.9999999403953552,
				0.9999998807907104,
				1
			],
			"translation":[
				-6.705522537231445e-08,
				80.93159484863281,
				7.621711120009422e-06
			]
		},
		{
			"children":[
				8
			],
			"name":"mixamorig:RightArm",
			"rotation":[
				-0.09897758811712265,
				-0.0005842916434630752,
				0.005873831454664469,
				0.9950721859931946
			],
			"scale":[
				0.9999999403953552,
				0.9999997019767761,
				0.9999997019767761
			],
			"translation":[
				-1.0281801223754883e-06,
				36.64008331298828,
				-6.681308150291443e-06
			]
		},
		{
			"children":[
				9
			],
			"name":"mixamorig:RightShoulder",
			"rotation":[
				0.5503004193305969,
				-0.44497150182724,
				0.5449239611625671,
				0.449697345495224
			],
			"scale":[
				0.9999997615814209,
				0.9999997019767761,
				0.9999998211860657
			],
			"translation":[
				-18.234071731567383,
				29.787399291992188,
				0.17357642948627472
			]
		},
		{
			"children":[
				2,
				6,
				10
			],
			"name":"mixamorig:Spine2",
			"rotation":[
				1.3038517820973539e-08,
				0,
				0,
				1
			],
			"scale":[
				1,
				0.9999999403953552,
				0.9999999403953552
			],
			"translation":[
				0,
				29.53127670288086,
				2.384185791015625e-07
			]
		},
		{
			"children":[
				11
			],
			"name":"mixamorig:Spine1",
			"rotation":[
				-5.587936335871291e-09,
				0,
				0,
				1
			],
			"scale":[
				1,
				0.9999999403953552,
				0.9999999403953552
			],
			"translation":[
				0,
				25.839855194091797,
				-4.76837158203125e-07
			]
		},
		{
			"children":[
				12
			],
			"name":"mixamorig:Spine",
			"rotation":[
				0.02123558148741722,
				0,
				0,
				0.9997745752334595
			],
			"scale":[
				1,
				0.9999999403953552,
				0.9999999403953552
			],
			"translation":[
				0,
				22.12847900390625,
				0.9404590129852295
			]
		},
		{
			"name":"mixamorig:LeftToe_End",
			"rotation":[
				1.0640360414981842e-06,
				-8.591450750827789e-08,
				-5.6315911933779716e-08,
				1
			],
			"scale":[
				1,
				1,
				0.9999998807907104
			],
			"translation":[
				9.5367431640625e-07,
				14.375080108642578,
				-3.159046173095703e-06
			]
		},
		{
			"children":[
				14
			],
			"name":"mixamorig:LeftToeBase",
			"rotation":[
				0.0162862166762352,
				0.0009576604352332652,
				0.058680761605501175,
				0.9981434941291809
			],
			"scale":[
				1,
				1.0000001192092896,
				1.0000001192092896
			],
			"translation":[
				-1.9073486328125e-06,
				23.664142608642578,
				-9.238719940185547e-06
			]
		},
		{
			"children":[
				15
			],
			"name":"mixamorig:LeftFoot",
			"rotation":[
				0.6944953799247742,
				0.23850587010383606,
				-0.26505622267723083,
				0.6249290704727173
			],
			"scale":[
				1.000000238418579,
				1.000000238418579,
				1.0000001192092896
			],
			"translation":[
				3.1150411814451218e-06,
				82.0750961303711,
				-1.6242265701293945e-06
			]
		},
		{
			"children":[
				16
			],
			"name":"mixamorig:LeftLeg",
			"rotation":[
				-0.03227098658680916,
				-0.0015467680059373379,
				0.04795851558446884,
				0.9983267188072205
			],
			"scale":[
				0.9999999403953552,
				1.0000001192092896,
				1
			],
			"translation":[
				4.251169229974039e-07,
				93.14148712158203,
				1.6545254766242579e-07
			]
		},
		{
			"children":[
				17
			],
			"name":"mixamorig:LeftUpLeg",
			"rotation":[
				-6.034979946889507e-07,
				-0.0004021095810458064,
				-0.9999985694885254,
				0.0016534139867872
			],
			"scale":[
				0.9999998211860657,
				1,
				0.9999998807907104
			],
			"translation":[
				29.27789306640625,
				-12.337600708007812,
				4.598342418670654
			]
		},
		{
			"name":"mixamorig:RightToe_End",
			"rotation":[
				-5.406327545642853e-07,
				-1.2316741049289703e-07,
				1.1218254769573832e-07,
				1
			],
			"scale":[
				0.9999999403953552,
				0.9999998807907104,
				1.0000001192092896
			],
			"translation":[
				-1.5497207641601562e-06,
				14.103476524353027,
				5.781650543212891e-06
			]
		},
		{
			"children":[
				19
			],
			"name":"mixamorig:RightToeBase",
			"rotation":[
				0.017211562022566795,
				0.0008801742806099355,
				0.05106113851070404,
				0.998546838760376
			],
			"translation":[
				5.960464477539062e-07,
				31.523025512695312,
				-2.200016751885414e-05
			]
		},
		{
			"children":[
				20
			],
			"name":"mixamorig:RightFoot",
			"rotation":[
				0.7459275722503662,
				-0.16644597053527832,
				0.2028132975101471,
				0.6121720671653748
			],
			"scale":[
				0.9999999403953552,
				0.9999998807907104,
				0.9999998211860657
			],
			"translation":[
				-3.069639205932617e-06,
				83.20661926269531,
				1.3053417205810547e-05
			]
		},
		{
			"children":[
				21
			],
			"name":"mixamorig:RightLeg",
			"rotation":[
				-0.08406003564596176,
				0.004032323602586985,
				-0.047738466411828995,
				0.9953083395957947
			],
			"scale":[
				0.9999999403953552,
				1.0000001192092896,
				0.9999999403953552
			],
			"translation":[
				-2.5211847969330847e-06,
				93.14476013183594,
				-5.557103577302769e-08
			]
		},
		{
			"children":[
				22
			],
			"name":"mixamorig:RightUpLeg",
			"rotation":[
				6.832253347965889e-06,
				-0.0042189243249595165,
				0.9999897480010986,
				0.001653342042118311
			],
			"scale":[
				0.9999998807907104,
				0.9999998807907104,
				0.9999998807907104
			],
			"translation":[
				-29.27789306640625,
				-12.337600708007812,
				4.680560111999512
			]
		},
		{
			"children":[
				13,
				18,
				23
			],
			"name":"mixamorig:Hips",
			"rotation":[
				-0.7071067690849304,
				0,
				0,
				0.7071067690849304
			],
			"translation":[
				0,
				-4.693379878997803,
				5.345534801483154
			]
		},
		{
			"mesh":0,
			"name":"\u7acb\u65b9\u4f53",
			"skin":0
		},
		{
			"children":[
				25,
				24
			],
			"name":"Armature",
			"rotation":[
				0.7071068286895752,
				0,
				0,
				0.7071068286895752
			],
			"scale":[
				0.009999999776482582,
				0.009999999776482582,
				0.009999999776482582
			],
			"translation":[
				0,
				-2,
				0
			]
		}
	],
	"animations":[
		{
			"channels":[
				{
					"sampler":0,
					"target":{
						"node":24,
						"path":"translation"
					}
				},
				{
					"sampler":1,
					"target":{
						"node":24,
						"path":"rotation"
					}
				},
				{
					"sampler":2,
					"target":{
						"node":24,
						"path":"scale"
					}
				},
				{
					"sampler":3,
					"target":{
						"node":13,
						"path":"translation"
					}
				},
				{
					"sampler":4,
					"target":{
						"node":13,
						"path":"rotation"
					}
				},
				{
					"sampler":5,
					"target":{
						"node":13,
						"path":"scale"
					}
				},
				{
					"sampler":6,
					"target":{
						"node":12,
						"path":"translation"
					}
				},
				{
					"sampler":7,
					"target":{
						"node":12,
						"path":"rotation"
					}
				},
				{
					"sampler":8,
					"target":{
						"node":12,
						"path":"scale"
					}
				},
				{
					"sampler":9,
					"target":{
						"node":11,
						"path":"translation"
					}
				},
				{
					"sampler":10,
					"target":{
						"node":11,
						"path":"rotation"
					}
				},
				{
					"sampler":11,
					"target":{
						"node":11,
						"path":"scale"
					}
				},
				{
					"sampler":12,
					"target":{
						"node":2,
						"path":"translation"
					}
				},
				{
					"sampler":13,
					"target":{
						"node":2,
						"path":"rotation"
					}
				},
				{
					"sampler":14,
					"target":{
						"node":2,
						"path":"scale"
					}
				},
				{
					"sampler":15,
					"target":{
						"node":1,
						"path":"translation"
					}
				},
				{
					"sampler":16,
					"target":{
						"node":1,
						"path":"rotation"
					}
				},
				{
					"sampler":17,
					"target":{
						"node":1,
						"path":"scale"
					}
				},
				{
					"sampler":18,
					"target":{
						"node":0,
						"path":"translation"
					}
				},
				{
					"sampler":19,
					"target":{
						"node":0,
						"path":"rotation"
					}
				},
				{
					"sampler":20,
					"target":{
						"node":0,
						"path":"scale"
					}
				},
				{
					"sampler":21,
					"target":{
						"node":6,
						"path":"translation"
					}
				},
				{
					"sampler":22,
					"target":{
						"node":6,
						"path":"rotation"
					}
				},
				{
					"sampler":23,
					"target":{
						"node":6,
						"path":"scale"
					}
				},
				{
					"sampler":24,
					"target":{
						"node":5,
						"path":"translation"
					}
				},
				{
					"sampler":25,
					"target":{
						"node":5,
						"path":"rotation"
					}
				},
				{
					"sampler":26,
					"target":{
						"node":5,
						"path":"scale"
					}
				},
				{
					"sampler":27,
					"target":{
						"node":4,
						"path":"translation"
					}
				},
				{
					"sampler":28,
					"target":{
						"node":4,
						"path":"rotation"
					}
				},
				{
					"sampler":29,
					"target":{
						"node":4,
						"path":"scale"
					}
				},
				{
					"sampler":30,
					"target":{
						"node":3,
						"path":"translation"
					}
				},
				{
					"sampler":31,
					"target":{
						"node":3,
						"path":"rotation"
					}
				},
				{
					"sampler":32,
					"target":{
						"node":3,
						"path":"scale"
					}
				},
				{
					"sampler":33,
					"target":{
						"node":10,
						"path":"translation"
					}
				},
				{
					"sampler":34,
					"target":{
						"node":10,
						"path":"rotation"
					}
				},
				{
					"sampler":35,
					"target":{
						"node":10,
						"path":"scale"
					}
				},
				{
					"sampler":36,
					"target":{
						"node":9,
						"path":"translation"
					}
				},
				{
					"sampler":37,
					"target":{
						"node":9,
						"path":"rotation"
					}
				},
				{
					"sampler":38,
					"target":{
						"node":9,
						"path":"scale"
					}
				},
				{
					"sampler":39,
					"target":{
						"node":8,
						"path":"translation"
					}
				},
				{
					"sampler":40,
					"target":{
						"node":8,
						"path":"rotation"
					}
				},
				{
					"sampler":41,
					"target":{
						"node":8,
						"path":"scale"
					}
				},
				{
					"sampler":42,
					"target":{
						"node":7,
						"path":"translation"
					}
				},
				{
					"sampler":43,
					"target":{
						"node":7,
						"path":"rotation"
					}
				},
				{
					"sampler":44,
					"target":{
						"node":7,
						"path":"scale"
					}
				},
				{
					"sampler":45,
					"target":{
						"node":18,
						"path":"translation"
					}
				},
				{
					"sampler":46,
					"target":{
						"node":18,
						"path":"rotation"
					}
				},
				{
					"sampler":47,
					"target":{
						"node":18,
						"path":"scale"
					}
				},
				{
					"sampler":48,
					"target":{
						"node":17,
						"path":"translation"
					}
				},
				{
					"sampler":49,
					"target":{
						"node":17,
						"path":"rotation"
					}
				},
				{
					"sampler":50,
					"target":{
						"node":17,
						"path":"scale"
					}
				},
				{
					"sampler":51,
					"target":{
						"node":16,
						"path":"translation"
					}
				},
				{
					"sampler":52,
					"target":{
						"node":16,
						"path":"rotation"
					}
				},
				{
					"sampler":53,
					"target":{
						"node":16,
						"path":"scale"
					}
				},
				{
					"sampler":54,
					"target":{
						"node":15,
						"path":"translation"
					}
				},
				{
					"sampler":55,
					"target":{
						"node":15,
						"path":"rotation"
					}
				},
				{
					"sampler":56,
					"target":{
						"node":15,
						"path":"scale"
					}
				},
				{
					"sampler":57,
					"target":{
						"node":14,
						"path":"translation"
					}
				},
				{
					"sampler":58,
					"target":{
						"node":14,
						"path":"rotation"
					}
				},
				{
					"sampler":59,
					"target":{
						"node":14,
						"path":"scale"
					}
				},
				{
					"sampler":60,
					"target":{
						"node":23,
						"path":"translation"
					}
				},
				{
					"sampler":61,
					"target":{
						"node":23,
						"path":"rotation"
					}
				},
				{
					"sampler":62,
					"target":{
						"node":23,
						"path":"scale"
					}
				},
				{
					"sampler":63,
					"target":{
						"node":22,
						"path":"translation"
					}
				},
				{
					"sampler":64,
					"target":{
						"node":22,
						"path":"rotation"
					}
				},
				{
					"sampler":65,
					"target":{
						"node":22,
						"path":"scale"
					}
				},
				{
					"sampler":66,
					"target":{
						"node":21,
						"path":"translation"
					}
				},
				{
					"sampler":67,
					"target":{
						"node":21,
						"path":"rotation"
					}
				},
				{
					"sampler":68,
					"target":{
						"node":21,
						"path":"scale"
					}
				},
				{
					"sampler":69,
					"target":{
						"node":20,
						"path":"translation"
					}
				},
				{
					"sampler":70,
					"target":{
						"node":20,
						"path":"rotation"
					}
				},
				{
					"sampler":71,
					"target":{
						"node":20,
						"path":"scale"
					}
				},
				{
					"sampler":72,
					"target":{
						"node":19,
						"path":"translation"
					}
				},
				{
					"sampler":73,
					"target":{
						"node":19,
						"path":"rotation"
					}
				},
				{
					"sampler":74,
					"target":{
						"node":19,
						"path":"scale"
					}
				}
			],
			"name":"Armature|mixamo.com|Layer0",
			"samplers":[
				{
					"input":7,
					"interpolation":"LINEAR",
					"output":8
				},
				{
					"input":7,
					"interpolation":"LINEAR",
					"output":9
				},
				{
					"input":10,
					"interpolation":"STEP",
					"output":11
				},
				{
					"input":10,
					"interpolation":"LINEAR",
					"output":12
				},
				{
					"input":7,
					"interpolation":"LINEAR",
					"output":13
				},
				{
					"input":10,
					"interpolation":"LINEAR",
					"output":14
				},
				{
					"input":10,
					"interpolation":"LINEAR",
					"output":15
				},
				{
					"input":7,
					"interpolation":"LINEAR",
					"output":16
				},
				{
					"input":10,
					"interpolation":"STEP",
					"output":17
				},
				{
					"input":10,
					"interpolation":"LINEAR",
					"output":18
				},
				{
					"input":7,
					"interpolation":"LINEAR",
					"output":19
				},
				{
					"input":10,
					"interpolation":"STEP",
					"output":20
				},
				{
					"input":10,
					"interpolation":"LINEAR",
					"output":21
				},
				{
					"input":7,
					"interpolation":"LINEAR",
					"output":22
				},
				{
					"input":10,
					"interpolation":"STEP",
					"output":23
				},
				{
					"input":10,
					"interpolation":"LINEAR",
					"output":24
				},
				{
					"input":7,
					"interpolation":"LINEAR",
					"output":25
				},
				{
					"input":10,
					"interpolation":"STEP",
					"output":26
				},
				{
					"input":7,
					"interpolation":"LINEAR",
					"output":27
				},
				{
					"input":10,
					"interpolation":"STEP",
					"output":28
				},
				{
					"input":10,
					"interpolation":"STEP",
					"output":29
				},
				{
					"input":10,
					"interpolation":"LINEAR",
					"output":30
				},
				{
					"input":7,
					"interpolation":"LINEAR",
					"output":31
				},
				{
					"input":10,
					"interpolation":"STEP",
					"output":32
				},
				{
					"input":10,
					"interpolation":"LINEAR",
					"output":33
				},
				{
					"input":7,
					"interpolation":"LINEAR",
					"output":34
				},
				{
					"input":10,
					"interpolation":"LINEAR",
					"output":35
				},
				{
					"input":10,
					"interpolation":"LINEAR",
					"output":36
				},
				{
					"input":7,
					"interpolation":"LINEAR",
					"output":37
				},
				{
					"input":10,
					"interpolation":"LINEAR",
					"output":38
				},
				{
					"input":10,
					"interpolation":"STEP",
					"output":39
				},
				{
					"input":10,
					"interpolation":"STEP",
					"output":40
				},
				{
					"input":10,
					"interpolation":"STEP",
					"output":41
				},
				{
					"input":10,
					"interpolation":"LINEAR",
					"output":42
				},
				{
					"input":7,
					"interpolation":"LINEAR",
					"output":43
				},
				{
					"input":10,
					"interpolation":"STEP",
					"output":44
				},
				{
					"input":10,
					"interpolation":"LINEAR",
					"output":45
				},
				{
					"input":7,
					"interpolation":"LINEAR",
					"output":46
				},
				{
					"input":10,
					"interpolation":"LINEAR",
					"output":47
				},
				{
					"input":10,
					"interpolation":"LINEAR",
					"output":48
				},
				{
					"input":7,
					"interpolation":"LINEAR",
					"output":49
				},
				{
					"input":10,
					"interpolation":"LINEAR",
					"output":50
				},
				{
					"input":10,
					"interpolation":"STEP",
					"output":51
				},
				{
					"input":10,
					"interpolation":"STEP",
					"output":52
				},
				{
					"input":10,
					"interpolation":"STEP",
					"output":53
				},
				{
					"input":10,
					"interpolation":"LINEAR",
					"output":54
				},
				{
					"input":7,
					"interpolation":"LINEAR",
					"output":55
				},
				{
					"input":10,
					"interpolation":"STEP",
					"output":56
				},
				{
					"input":10,
					"interpolation":"LINEAR",
					"output":57
				},
				{
					"input":7,
					"interpolation":"LINEAR",
					"output":58
				},
				{
					"input":10,
					"interpolation":"STEP",
					"output":59
				},
				{
					"input":10,
					"interpolation":"LINEAR",
					"output":60
				},
				{
					"input":7,
					"interpolation":"LINEAR",
					"output":61
				},
				{
					"input":10,
					"interpolation":"STEP",
					"output":62
				},
				{
					"input":10,
					"interpolation":"LINEAR",
					"output":63
				},
				{
					"input":7,
					"interpolation":"LINEAR",
					"output":64
				},
				{
					"input":10,
					"interpolation":"LINEAR",
					"output":65
				},
				{
					"input":10,
					"interpolation":"STEP",
					"output":66
				},
				{
					"input":10,
					"interpolation":"STEP",
					"output":67
				},
				{
					"input":10,
					"interpolation":"STEP",
					"output":68
				},
				{
					"input":10,
					"interpolation":"LINEAR",
					"output":69
				},
				{
					"input":7,
					"interpolation":"LINEAR",
					"output":70
				},
				{
					"input":10,
					"interpolation":"STEP",
					"output":71
				},
				{
					"input":10,
					"interpolation":"LINEAR",
					"output":72
				},
				{
					"input":7,
					"interpolation":"LINEAR",
					"output":73
				},
				{
					"input":10,
					"interpolation":"LINEAR",
					"output":74
				},
				{
					"input":10,
					"interpolation":"LINEAR",
					"output":75
				},
				{
					"input":7,
					"interpolation":"LINEAR",
					"output":76
				},
				{
					"input":10,
					"interpolation":"LINEAR",
					"output":77
				},
				{
					"input":10,
					"interpolation":"LINEAR",
					"output":78
				},
				{
					"input":7,
					"interpolation":"LINEAR",
					"output":79
				},
				{
					"input":10,
					"interpolation":"LINEAR",
					"output":80
				},
				{
					"input":10,
					"interpolation":"STEP",
					"output":81
				},
				{
					"input":10,
					"interpolation":"STEP",
					"output":82
				},
				{
					"input":10,
					"interpolation":"STEP",
					"output":83
				}
			]
		}
	],
	"meshes":[
		{
			"name":"\u7acb\u65b9\u4f53",
			"primitives":[
				{
					"attributes":{
						"POSITION":0,
						"NORMAL":1,
						"TEXCOORD_0":2,
						"JOINTS_0":3,
						"WEIGHTS_0":4
					},
					"indices":5
				}
			]
		}
	],
	"skins":[
		{
			"inverseBindMatrices":6,
			"joints":[
				24,
				13,
				12,
				11,
				2,
				1,
				0,
				6,
				5,
				4,
				3,
				10,
				9,
				8,
				7,
				18,
				17,
				16,
				15,
				14,
				23,
				22,
				21,
				20,
				19
			],
			"name":"Armature"
		}
	],
	"accessors":[
		{
			"bufferView":0,
			"componentType":5126,
			"count":280,
			"max":[
				2.1810529232025146,
				-0.1410117894411087,
				0.3912407457828522
			],
			"min":[
				-2.1810529232025146,
				-3.963752031326294,
				-0.391241192817688
			],
			"type":"VEC3"
		},
		{
			"bufferView":1,
			"componentType":5126,
			"count":280,
			"type":"VEC3"
		},
		{
			"bufferView":2,
			"componentType":5126,
			"count":280,
			"type":"VEC2"
		},
		{
			"bufferView":3,
			"componentType":5121,
			"count":280,
			"type":"VEC4"
		},
		{
			"bufferView":4,
			"componentType":5126,
			"count":280,
			"type":"VEC4"
		},
		{
			"bufferView":5,
			"componentType":5123,
			"count":900,
			"type":"SCALAR"
		},
		{
			"bufferView":6,
			"componentType":5126,
			"count":25,
			"type":"MAT4"
		},
		{
			"bufferView":7,
			"componentType":5126,
			"count":31,
			"max":[
				1.0333333333333334
			],
			"min":[
				0.03333333333333333
			],
			"type":"SCALAR"
		},
		{
			"bufferView":8,
			"componentType":5126,
			"count":31,
			"type":"VEC3"
		},
		{
			"bufferView":9,
			"componentType":5126,
			"count":31,
			"type":"VEC4"
		},
		{
			"bufferView":10,
			"componentType":5126,
			"count":2,
			"max":[
				1.0333333333333334
			],
			"min":[
				0.03333333333333333
			],
			"type":"SCALAR"
		},
		{
			"bufferView":11,
			"componentType":5126,
			"count":2,
			"type":"VEC3"
		},
		{
			"bufferView":12,
			"componentType":5126,
			"count":2,
			"type":"VEC3"
		},
		{
			"bufferView":13,
			"componentType":5126,
			"count":31,
			"type":"VEC4"
		},
		{
			"bufferView":14,
			"componentType":5126,
			"count":2,
			"type":"VEC3"
		},
		{
			"bufferView":15,
			"componentType":5126,
			"count":2,
			"type":"VEC3"
		},
		{
			"bufferView":16,
			"componentType":5126,
			"count":31,
			"type":"VEC4"
		},
		{
			"bufferView":17,
			"componentType":5126,
			"count":2,
			"type":"VEC3"
		},
		{
			"bufferView":18,
			"componentType":5126,
			"count":2,
			"type":"VEC3"
		},
		{
			"bufferView":19,
			"componentType":5126,
			"count":31,
			"type":"VEC4"
		},
		{
			"bufferView":20,
			"componentType":5126,
			"count":2,
			"type":"VEC3"
		},
		{
			"bufferView":21,
			"componentType":5126,
			"count":2,
			"type":"VEC3"
		},
		{
			"bufferView":22,
			"componentType":5126,
			"count":31,
			"type":"VEC4"
		},
		{
			"bufferView":23,
			"componentType":5126,
			"count":2,
			"type":"VEC3"
		},
		{
			"bufferView":24,
			"componentType":5126,
			"count":2,
			"type":"VEC3"
		},
		{
			"bufferView":25,
			"componentType":5126,
			"count":31,
			"type":"VEC4"
		},
		{
			"bufferView":26,
			"componentType":5126,
			"count":2,
			"type":"VEC3"
		},
		{
			"bufferView":27,
			"componentType":5126,
			"count":31,
			"type":"VEC3"
		},
		{
			"bufferView":28,
			"componentType":5126,
			"count":2,
			"type":"VEC4"
		},
		{
			"bufferView":29,
			"componentType":5126,
			"count":2,
			"type":"VEC3"
		},
		{
			"bufferView":30,
			"componentType":5126,
			"count":2,
			"type":"VEC3"
		},
		{
			"bufferView":31,
			"componentType":5126,
			"count":31,
			"type":"VEC4"
		},
		{
			"bufferView":32,
			"componentType":5126,
			"count":2,
			"type":"VEC3"
		},
		{
			"bufferView":33,
			"componentType":5126,
			"count":2,
			"type":"VEC3"
		},
		{
			"bufferView":34,
			"componentType":5126,
			"count":31,
			"type":"VEC4"
		},
		{
			"bufferView":35,
			"componentType":5126,
			"count":2,
			"type":"VEC3"
		},
		{
			"bufferView":36,
			"componentType":5126,
			"count":2,
			"type":"VEC3"
		},
		{
			"bufferView":37,
			"componentType":5126,
			"count":31,
			"type":"VEC4"
		},
		{
			"bufferView":38,
			"componentType":5126,
			"count":2,
			"type":"VEC3"
		},
		{
			"bufferView":39,
			"componentType":5126,
			"count":2,
			"type":"VEC3"
		},
		{
			"bufferView":40,
			"componentType":5126,
			"count":2,
			"type":"VEC4"
		},
		{
			"bufferView":41,
			"componentType":5126,
			"count":2,
			"type":"VEC3"
		},
		{
			"bufferView":42,
			"componentType":5126,
			"count":2,
			"type":"VEC3"
		},
		{
			"bufferView":43,
			"componentType":5126,
			"count":31,
			"type":"VEC4"
		},
		{
			"bufferView":44,
			"componentType":5126,
			"count":2,
			"type":"VEC3"
		},
		{
			"bufferView":45,
			"componentType":5126,
			"count":2,
			"type":"VEC3"
		},
		{
			"bufferView":46,
			"componentType":5126,
			"count":31,
			"type":"VEC4"
		},
		{
			"bufferView":47,
			"componentType":5126,
			"count":2,
			"type":"VEC3"
		},
		{
			"bufferView":48,
			"componentType":5126,
			"count":2,
			"type":"VEC3"
		},
		{
			"bufferView":49,
			"componentType":5126,
			"count":31,
			"type":"VEC4"
		},
		{
			"bufferView":50,
			"componentType":5126,
			"count":2,
			"type":"VEC3"
		},
		{
			"bufferView":51,
			"componentType":5126,
			"count":2,
			"type":"VEC3"
		},
		{
			"bufferView":52,
			"componentType":5126,
			"count":2,
			"type":"VEC4"
		},
		{
			"bufferView":53,
			"componentType":5126,
			"count":2,
			"type":"VEC3"
		},
		{
			"bufferView":54,
			"componentType":5126,
			"count":2,
			"type":"VEC3"
		},
		{
			"bufferView":55,
			"componentType":5126,
			"count":31,
			"type":"VEC4"
		},
		{
			"bufferView":56,
			"componentType":5126,
			"count":2,
			"type":"VEC3"
		},
		{
			"bufferView":57,
			"componentType":5126,
			"count":2,
			"type":"VEC3"
		},
		{
			"bufferView":58,
			"componentType":5126,
			"count":31,
			"type":"VEC4"
		},
		{
			"bufferView":59,
			"componentType":5126,
			"count":2,
			"type":"VEC3"
		},
		{
			"bufferView":60,
			"componentType":5126,
			"count":2,
			"type":"VEC3"
		},
		{
			"bufferView":61,
			"componentType":5126,
			"count":31,
			"type":"VEC4"
		},
		{
			"bufferView":62,
			"componentType":5126,
			"count":2,
			"type":"VEC3"
		},
		{
			"bufferView":63,
			"componentType":5126,
			"count":2,
			"type":"VEC3"
		},
		{
			"bufferView":64,
			"componentType":5126,
			"count":31,
			"type":"VEC4"
		},
		{
			"bufferView":65,
			"componentType":5126,
			"count":2,
			"type":"VEC3"
		},
		{
			"bufferView":66,
			"componentType":5126,
			"count":2,
			"type":"VEC3"
		},
		{
			"bufferView":67,
			"componentType":5126,
			"count":2,
			"type":"VEC4"
		},
		{
			"bufferView":68,
			"componentType":5126,
			"count":2,
			"type":"VEC3"
		},
		{
			"bufferView":69,
			"componentType":5126,
			"count":2,
			"type":"VEC3"
		},
		{
			"bufferView":70,
			"componentType":5126,
			"count":31,
			"type":"VEC4"
		},
		{
			"bufferView":71,
			"componentType":5126,
			"count":2,
			"type":"VEC3"
		},
		{
			"bufferView":72,
			"componentType":5126,
			"count":2,
			"type":"VEC3"
		},
		{
			"bufferView":73,
			"componentType":5126,
			"count":31,
			"type":"VEC4"
		},
		{
			"bufferView":74,
			"componentType":5126,
			"count":2,
			"type":"VEC3"
		},
		{
			"bufferView":75,
			"componentType":5126,
			"count":2,
			"type":"VEC3"
		},
		{
			"bufferView":76,
			"componentType":5126,
			"count":31,
			"type":"VEC4"
		},
		{
			"bufferView":77,
			"componentType":5126,
			"count":2,
			"type":"VEC3"
		},
		{
			"bufferView":78,
			"componentType":5126,
			"count":2,
			"type":"VEC3"
		},
		{
			"bufferView":79,
			"componentType":5126,
			"count":31,
			"type":"VEC4"
		},
		{
			"bufferView":80,
			"componentType":5126,
			"count":2,
			"type":"VEC3"
		},
		{
			"bufferView":81,
			"componentType":5126,
			"count":2,
			"type":"VEC3"
		},
		{
			"bufferView":82,
			"componentType":5126,
			"count":2,
			"type":"VEC4"
		},
		{
			"bufferView":83,
			"componentType":5126,
			"count":2,
			"type":"VEC3"
		}
	],
	"bufferViews":[
		{
			"buffer":0,
			"byteLength":3360,
			"byteOffset":0,
			"target":34962
		},
		{
			"buffer":0,
			"byteLength":3360,
			"byteOffset":3360,
			"target":34962
		},
		{
			"buffer":0,
			"byteLength":2240,
			"byteOffset":6720,
			"target":34962
		},
		{
			"buffer":0,
			"byteLength":1120,
			"byteOffset":8960,
			"target":34962
		},
		{
			"buffer":0,
			"byteLength":4480,
			"byteOffset":10080,
			"target":34962
		},
		{
			"buffer":0,
			"byteLength":1800,
			"byteOffset":14560,
			"target":34963
		},
		{
			"buffer":0,
			"byteLength":1600,
			"byteOffset":16360
		},
		{
			"buffer":0,
			"byteLength":124,
			"byteOffset":17960
		},
		{
			"buffer":0,
			"byteLength":372,
			"byteOffset":18084
		},
		{
			"buffer":0,
			"byteLength":496,
			"byteOffset":18456
		},
		{
			"buffer":0,
			"byteLength":8,
			"byteOffset":18952
		},
		{
			"buffer":0,
			"byteLength":24,
			"byteOffset":18960
		},
		{
			"buffer":0,
			"byteLength":24,
			"byteOffset":18984
		},
		{
			"buffer":0,
			"byteLength":496,
			"byteOffset":19008
		},
		{
			"buffer":0,
			"byteLength":24,
			"byteOffset":19504
		},
		{
			"buffer":0,
			"byteLength":24,
			"byteOffset":19528
		},
		{
			"buffer":0,
			"byteLength":496,
			"byteOffset":19552
		},
		{
			"buffer":0,
			"byteLength":24,
			"byteOffset":20048
		},
		{
			"buffer":0,
			"byteLength":24,
			"byteOffset":20072
		},
		{
			"buffer":0,
			"byteLength":496,
			"byteOffset":20096
		},
		{
			"buffer":0,
			"byteLength":24,
			"byteOffset":20592
		},
		{
			"buffer":0,
			"byteLength":24,
			"byteOffset":20616
		},
		{
			"buffer":0,
			"byteLength":496,
			"byteOffset":20640
		},
		{
			"buffer":0,
			"byteLength":24,
			"byteOffset":21136
		},
		{
			"buffer":0,
			"byteLength":24,
			"byteOffset":21160
		},
		{
			"buffer":0,
			"byteLength":496,
			"byteOffset":21184
		},
		{
			"buffer":0,
			"byteLength":24,
			"byteOffset":21680
		},
		{
			"buffer":0,
			"byteLength":372,
			"byteOffset":21704
		},
		{
			"buffer":0,
			"byteLength":32,
			"byteOffset":22076
		},
		{
			"buffer":0,
			"byteLength":24,
			"byteOffset":22108
		},
		{
			"buffer":0,
			"byteLength":24,
			"byteOffset":22132
		},
		{
			"buffer":0,
			"byteLength":496,
			"byteOffset":22156
		},
		{
			"buffer":0,
			"byteLength":24,
			"byteOffset":22652
		},
		{
			"buffer":0,
			"byteLength":24,
			"byteOffset":22676
		},
		{
			"buffer":0,
			"byteLength":496,
			"byteOffset":22700
		},
		{
			"buffer":0,
			"byteLength":24,
			"byteOffset":23196
		},
		{
			"buffer":0,
			"byteLength":24,
			"byteOffset":23220
		},
		{
			"buffer":0,
			"byteLength":496,
			"byteOffset":23244
		},
		{
			"buffer":0,
			"byteLength":24,
			"byteOffset":23740
		},
		{
			"buffer":0,
			"byteLength":24,
			"byteOffset":23764
		},
		{
			"buffer":0,
			"byteLength":32,
			"byteOffset":23788
		},
		{
			"buffer":0,
			"byteLength":24,
			"byteOffset":23820
		},
		{
			"buffer":0,
			"byteLength":24,
			"byteOffset":23844
		},
		{
			"buffer":0,
			"byteLength":496,
			"byteOffset":23868
		},
		{
			"buffer":0,
			"byteLength":24,
			"byteOffset":24364
		},
		{
			"buffer":0,
			"byteLength":24,
			"byteOffset":24388
		},
		{
			"buffer":0,
			"byteLength":496,
			"byteOffset":24412
		},
		{
			"buffer":0,
			"byteLength":24,
			"byteOffset":24908
		},
		{
			"buffer":0,
			"byteLength":24,
			"byteOffset":24932
		},
		{
			"buffer":0,
			"byteLength":496,
			"byteOffset":24956
		},
		{
			"buffer":0,
			"byteLength":24,
			"byteOffset":25452
		},
		{
			"buffer":0,
			"byteLength":24,
			"byteOffset":25476
		},
		{
			"buffer":0,
			"byteLength":32,
			"byteOffset":25500
		},
		{
			"buffer":0,
			"byteLength":24,
			"byteOffset":25532
		},
		{
			"buffer":0,
			"byteLength":24,
			"byteOffset":25556
		},
		{
			"buffer":0,
			"byteLength":496,
			"byteOffset":25580
		},
		{
			"buffer":0,
			"byteLength":24,
			"byteOffset":26076
		},
		{
			"buffer":0,
			"byteLength":24,
			"byteOffset":26100
		},
		{
			"buffer":0,
			"byteLength":496,
			"byteOffset":26124
		},
		{
			"buffer":0,
			"byteLength":24,
			"byteOffset":26620
		},
		{
			"buffer":0,
			"byteLength":24,
			"byteOffset":26644
		},
		{
			"buffer":0,
			"byteLength":496,
			"byteOffset":26668
		},
		{
			"buffer":0,
			"byteLength":24,
			"byteOffset":27164
		},
		{
			"buffer":0,
			"byteLength":24,
			"byteOffset":27188
		},
		{
			"buffer":0,
			"byteLength":496,
			"byteOffset":27212
		},
		{
			"buffer":0,
			"byteLength":24,
			"byteOffset":27708
		},
		{
			"buffer":0,
			"byteLength":24,
			"byteOffset":27732
		},
		{
			"buffer":0,
			"byteLength":32,
			"byteOffset":27756
		},
		{
			"buffer":0,
			"byteLength":24,
			"byteOffset":27788
		},
		{
			"buffer":0,
			"byteLength":24,
			"byteOffset":27812
		},
		{
			"buffer":0,
			"byteLength":496,
			"byteOffset":27836
		},
		{
			"buffer":0,
			"byteLength":24,
			"byteOffset":28332
		},
		{
			"buffer":0,
			"byteLength":24,
			"byteOffset":28356
		},
		{
			"buffer":0,
			"byteLength":496,
			"byteOffset":28380
		},
		{
			"buffer":0,
			"byteLength":24,
			"byteOffset":28876
		},
		{
			"buffer":0,
			"byteLength":24,
			"byteOffset":28900
		},
		{
			"buffer":0,
			"byteLength":496,
			"byteOffset":28924
		},
		{
			"buffer":0,
			"byteLength":24,
			"byteOffset":29420
		},
		{
			"buffer":0,
			"byteLength":24,
			"byteOffset":29444
		},
		{
			"buffer":0,
			"byteLength":496,
			"byteOffset":29468
		},
		{
			"buffer":0,
			"byteLength":24,
			"byteOffset":29964
		},
		{
			"buffer":0,
			"byteLength":24,
			"byteOffset":29988
		},
		{
			"buffer":0,
			"byteLength":32,
			"byteOffset":30012
		},
		{
			"buffer":0,
			"byteLength":24,
			"byteOffset":30044
		}
	],
	"buffers":[
		{
			"byteLength":30068,
			"uri":"walk.bin"
		}
	]
}
