# Blender 4.4.0
# www.blender.org
mtllib eventTrigger.mtl
o 立方体
v -0.994227 -0.994227 0.994227
v -1.005774 -1.005774 1.005774
v -0.994227 0.994227 0.994227
v -1.005774 1.005774 1.005774
v -0.994227 -0.994227 -0.994227
v -1.005774 -1.005774 -1.005774
v -0.994227 0.994227 -0.994227
v -1.005774 1.005774 -1.005774
v 0.994227 -0.994227 0.994227
v 1.005774 -1.005774 1.005774
v 0.994227 0.994227 0.994227
v 1.005774 1.005774 1.005774
v 0.994227 -0.994227 -0.994227
v 1.005774 -1.005774 -1.005774
v 0.994227 0.994227 -0.994227
v 1.005774 1.005774 -1.005774
v -1.000000 -0.990000 0.990000
v -1.000000 0.990000 0.990000
v -1.000000 0.990000 -0.990000
v -1.000000 -0.990000 -0.990000
v -0.990000 -0.990000 -1.000000
v -0.990000 0.990000 -1.000000
v 0.990000 0.990000 -1.000000
v 0.990000 -0.990000 -1.000000
v 1.000000 -0.990000 -0.990000
v 1.000000 0.990000 -0.990000
v 1.000000 0.990000 0.990000
v 1.000000 -0.990000 0.990000
v 0.990000 -0.990000 1.000000
v 0.990000 0.990000 1.000000
v -0.990000 0.990000 1.000000
v -0.990000 -0.990000 1.000000
v -0.990000 -1.000000 -0.990000
v 0.990000 -1.000000 -0.990000
v 0.990000 -1.000000 0.990000
v -0.990000 -1.000000 0.990000
v 0.990000 1.000000 -0.990000
v -0.990000 1.000000 -0.990000
v -0.990000 1.000000 0.990000
v 0.990000 1.000000 0.990000
vn 0.5907 -0.0000 -0.8069
vn -0.9391 -0.0000 -0.3437
vn 0.5907 -0.8069 -0.0000
vn -0.9391 -0.3437 -0.0000
vn 0.5907 -0.0000 0.8069
vn -0.9391 -0.0000 0.3437
vn 0.5907 0.8069 -0.0000
vn -0.9391 0.3437 -0.0000
vn 0.8069 -0.0000 0.5907
vn 0.3437 -0.0000 -0.9391
vn -0.0000 -0.8069 0.5907
vn -0.0000 -0.3437 -0.9391
vn -0.8069 -0.0000 0.5907
vn -0.3437 -0.0000 -0.9391
vn -0.0000 0.8069 0.5907
vn -0.0000 0.3437 -0.9391
vn -0.5907 -0.0000 0.8069
vn 0.9391 -0.0000 0.3437
vn -0.5907 -0.8069 -0.0000
vn 0.9391 -0.3437 -0.0000
vn -0.5907 -0.0000 -0.8069
vn 0.9391 -0.0000 -0.3437
vn -0.5907 0.8069 -0.0000
vn 0.9391 0.3437 -0.0000
vn -0.8069 -0.0000 -0.5907
vn -0.3437 -0.0000 0.9391
vn -0.0000 -0.8069 -0.5907
vn -0.0000 -0.3437 0.9391
vn 0.8069 -0.0000 -0.5907
vn 0.3437 -0.0000 0.9391
vn -0.0000 0.8069 -0.5907
vn -0.0000 0.3437 0.9391
vn -0.0000 0.5907 0.8069
vn -0.0000 -0.9391 0.3437
vn -0.8069 0.5907 -0.0000
vn -0.3437 -0.9391 -0.0000
vn -0.0000 0.5907 -0.8069
vn -0.0000 -0.9391 -0.3437
vn 0.8069 0.5907 -0.0000
vn 0.3437 -0.9391 -0.0000
vn -0.0000 -0.5907 0.8069
vn -0.0000 0.9391 0.3437
vn 0.8069 -0.5907 -0.0000
vn 0.3437 0.9391 -0.0000
vn -0.0000 -0.5907 -0.8069
vn -0.0000 0.9391 -0.3437
vn -0.8069 -0.5907 -0.0000
vn -0.3437 0.9391 -0.0000
vt 0.625000 0.000000
vt 0.375000 0.000000
vt 0.625000 0.250000
vt 0.375000 0.250000
vt 0.625000 0.500000
vt 0.375000 0.500000
vt 0.625000 0.750000
vt 0.375000 0.750000
vt 0.625000 1.000000
vt 0.375000 1.000000
vt 0.125000 0.500000
vt 0.125000 0.750000
vt 0.875000 0.500000
vt 0.875000 0.750000
s 0
usemtl マテリアル
f 18/1/1 1/2/1 17/2/1
f 17/2/2 4/1/2 18/1/2
f 19/3/3 3/1/3 18/1/3
f 18/1/4 8/3/4 19/3/4
f 20/4/5 7/3/5 19/3/5
f 19/3/6 6/4/6 20/4/6
f 17/2/7 5/4/7 20/4/7
f 20/4/8 2/2/8 17/2/8
f 22/3/9 5/4/9 21/4/9
f 21/4/10 8/3/10 22/3/10
f 23/5/11 7/3/11 22/3/11
f 22/3/12 16/5/12 23/5/12
f 24/6/13 15/5/13 23/5/13
f 23/5/14 14/6/14 24/6/14
f 21/4/15 13/6/15 24/6/15
f 24/6/16 6/4/16 21/4/16
f 26/5/17 13/6/17 25/6/17
f 25/6/18 16/5/18 26/5/18
f 27/7/19 15/5/19 26/5/19
f 26/5/20 12/7/20 27/7/20
f 28/8/21 11/7/21 27/7/21
f 27/7/22 10/8/22 28/8/22
f 25/6/23 9/8/23 28/8/23
f 28/8/24 14/6/24 25/6/24
f 30/7/25 9/8/25 29/8/25
f 29/8/26 12/7/26 30/7/26
f 31/9/27 11/7/27 30/7/27
f 30/7/28 4/9/28 31/9/28
f 32/10/29 3/9/29 31/9/29
f 31/9/30 2/10/30 32/10/30
f 29/8/31 1/10/31 32/10/31
f 32/10/32 10/8/32 29/8/32
f 34/6/33 5/11/33 33/11/33
f 33/11/34 14/6/34 34/6/34
f 35/8/35 13/6/35 34/6/35
f 34/6/36 10/8/36 35/8/36
f 36/12/37 9/8/37 35/8/37
f 35/8/38 2/12/38 36/12/38
f 33/11/39 1/12/39 36/12/39
f 36/12/40 6/11/40 33/11/40
f 38/13/41 15/5/41 37/5/41
f 37/5/42 8/13/42 38/13/42
f 39/14/43 7/13/43 38/13/43
f 38/13/44 4/14/44 39/14/44
f 40/7/45 3/14/45 39/14/45
f 39/14/46 12/7/46 40/7/46
f 37/5/47 11/7/47 40/7/47
f 40/7/48 16/5/48 37/5/48
f 18/1/1 3/1/1 1/2/1
f 17/2/2 2/2/2 4/1/2
f 19/3/3 7/3/3 3/1/3
f 18/1/4 4/1/4 8/3/4
f 20/4/5 5/4/5 7/3/5
f 19/3/6 8/3/6 6/4/6
f 17/2/7 1/2/7 5/4/7
f 20/4/8 6/4/8 2/2/8
f 22/3/9 7/3/9 5/4/9
f 21/4/10 6/4/10 8/3/10
f 23/5/11 15/5/11 7/3/11
f 22/3/12 8/3/12 16/5/12
f 24/6/13 13/6/13 15/5/13
f 23/5/14 16/5/14 14/6/14
f 21/4/15 5/4/15 13/6/15
f 24/6/16 14/6/16 6/4/16
f 26/5/17 15/5/17 13/6/17
f 25/6/18 14/6/18 16/5/18
f 27/7/19 11/7/19 15/5/19
f 26/5/20 16/5/20 12/7/20
f 28/8/21 9/8/21 11/7/21
f 27/7/22 12/7/22 10/8/22
f 25/6/23 13/6/23 9/8/23
f 28/8/24 10/8/24 14/6/24
f 30/7/25 11/7/25 9/8/25
f 29/8/26 10/8/26 12/7/26
f 31/9/27 3/9/27 11/7/27
f 30/7/28 12/7/28 4/9/28
f 32/10/29 1/10/29 3/9/29
f 31/9/30 4/9/30 2/10/30
f 29/8/31 9/8/31 1/10/31
f 32/10/32 2/10/32 10/8/32
f 34/6/33 13/6/33 5/11/33
f 33/11/34 6/11/34 14/6/34
f 35/8/35 9/8/35 13/6/35
f 34/6/36 14/6/36 10/8/36
f 36/12/37 1/12/37 9/8/37
f 35/8/38 10/8/38 2/12/38
f 33/11/39 5/11/39 1/12/39
f 36/12/40 2/12/40 6/11/40
f 38/13/41 7/13/41 15/5/41
f 37/5/42 16/5/42 8/13/42
f 39/14/43 3/14/43 7/13/43
f 38/13/44 8/13/44 4/14/44
f 40/7/45 11/7/45 3/14/45
f 39/14/46 4/14/46 12/7/46
f 37/5/47 15/5/47 11/7/47
f 40/7/48 12/7/48 16/5/48
